<?xml version="1.0" encoding="utf-8"?>
<!-- Generator: Adobe Illustrator 18.0.0, SVG Export Plug-In . SVG Version: 6.00 Build 0)  -->
<!DOCTYPE svg PUBLIC "-//W3C//DTD SVG 1.1//EN" "http://www.w3.org/Graphics/SVG/1.1/DTD/svg11.dtd">
<svg version="1.1" id="Layer_1" xmlns="http://www.w3.org/2000/svg" xmlns:xlink="http://www.w3.org/1999/xlink" x="0px" y="0px"
	 viewBox="21.3 3.8 213.2 59.7" enable-background="new 21.3 3.8 213.2 59.7" xml:space="preserve">
<g>
	<path fill="#3E5D9F" d="M21.3,34.5c0-0.6,0-1.1,0-1.7c0-0.3,0.1-0.6,0.1-0.9c0.1-0.9,0.1-1.9,0.3-2.8c0.8-5.2,2.8-9.9,6.2-14
		C33.5,8.3,40.7,4.5,49.5,4c0.4,0,0.8-0.1,1.2-0.1c0.3,0,0.6,0,1,0c0.2,0,0.4,0.1,0.6,0.1c3.7,0.1,7.3,0.8,10.6,2.4
		c10,4.6,16,12.3,17.8,23.3c0.5,3.4,0.4,6.8-0.3,10.1c-1.7,7.7-5.8,13.9-12.2,18.4c-4.6,3.2-9.7,4.9-15.2,5.2
		c-0.4,0-0.8,0.1-1.2,0.1c-0.3,0-0.6,0-1,0c-0.2,0-0.4-0.1-0.6-0.1c-1.7-0.2-3.3-0.2-5-0.6c-7.8-1.7-13.9-5.8-18.5-12.2
		c-2.9-4.1-4.6-8.7-5.1-13.6C21.4,36.1,21.3,35.3,21.3,34.5z M59.5,15.9c-0.2,0-0.4,0-0.6,0c-1.9,0-3.8,0-5.7,0
		c-4,0.1-6.4,2.7-6.7,6.6c-0.1,1.5-0.1,3-0.1,4.5c0,0.4-0.1,0.6-0.6,0.6c-0.8,0-1.6,0-2.3,0c-0.8,0-0.8,0-0.8,0.8c0,1.6,0,3.2,0,4.8
		c0,0.8,0,0.8,0.8,0.8c0.7,0,1.4,0,2,0c0.9,0,0.9,0,0.9,0.9c0,5.4,0,10.8,0,16.2c0,0.8,0,0.8,0.8,0.8c2,0,4.1,0,6.1,0
		c0.8,0,0.8,0,0.8-0.8c0-5.5,0-10.9,0-16.4c0-0.5,0.2-0.7,0.7-0.7c1.2,0,2.4,0,3.6,0c0.4,0,0.6-0.1,0.6-0.6c0.1-1,0.2-2.1,0.3-3.1
		c0.1-0.9,0.2-1.8,0.2-2.8c-0.3,0-0.5,0-0.7,0c-1.4,0-2.8,0-4.2,0c-0.6,0-0.7-0.2-0.7-0.7c0-0.7,0-1.5,0-2.2c0-1.7,0.8-2.5,2.5-2.5
		c1,0,2,0,3.1,0C59.5,19.9,59.5,17.9,59.5,15.9z"/>
	<path fill="#FFFFFF" d="M59.5,15.9c0,2.1,0,4.1,0,6.1c-1,0-2.1,0-3.1,0c-1.8,0-2.5,0.8-2.5,2.5c0,0.7,0,1.5,0,2.2
		c0,0.5,0.1,0.7,0.7,0.7c1.4,0,2.8,0,4.2,0c0.2,0,0.4,0,0.7,0c-0.1,1-0.1,1.9-0.2,2.8c-0.1,1-0.2,2.1-0.3,3.1c0,0.4-0.2,0.6-0.6,0.6
		c-1.2,0-2.4,0-3.6,0c-0.5,0-0.7,0.1-0.7,0.7c0,5.5,0,10.9,0,16.4c0,0.8,0,0.8-0.8,0.8c-2,0-4.1,0-6.1,0c-0.8,0-0.8,0-0.8-0.8
		c0-5.4,0-10.8,0-16.2c0-0.9,0-0.9-0.9-0.9c-0.7,0-1.4,0-2,0c-0.8,0-0.8,0-0.8-0.8c0-1.6,0-3.2,0-4.8c0-0.8,0-0.8,0.8-0.8
		c0.8,0,1.6,0,2.3,0c0.4,0,0.6-0.2,0.6-0.6c0-1.5,0-3,0.1-4.5c0.3-3.9,2.8-6.4,6.7-6.5c1.9,0,3.8,0,5.7,0
		C59.1,15.8,59.3,15.8,59.5,15.9z"/>
</g>
<rect x="94.3" y="20.1" fill="none" width="140.1" height="41.1"/>
<text transform="matrix(1 0 0 1 94.3403 44.7661)" fill="#3E5D9F" font-family="'WDBBangna'" font-size="33.6275">เข้าสู่ระบบ</text>
<text transform="matrix(1 0 0 1 94.3403 44.7661)" fill="none" stroke="#3E5D9F" stroke-width="0.9341" stroke-miterlimit="10" font-family="'WDBBangna'" font-size="33.6275">เข้าสู่ระบบ</text>
</svg>
