<?xml version="1.0" encoding="utf-8"?>
<!-- Generator: Adobe Illustrator 16.0.0, SVG Export Plug-In . SVG Version: 6.00 Build 0)  -->
<!DOCTYPE svg PUBLIC "-//W3C//DTD SVG 1.1//EN" "http://www.w3.org/Graphics/SVG/1.1/DTD/svg11.dtd">
<svg version="1.1" id="Layer_1" xmlns="http://www.w3.org/2000/svg" xmlns:xlink="http://www.w3.org/1999/xlink" x="0px" y="0px"
	 width="245.663px" height="67.254px" viewBox="0 0 245.663 67.254" enable-background="new 0 0 245.663 67.254"
	 xml:space="preserve">
<g>
	<path fill="#FFFFFF" d="M245.662,34.389c-0.113,18.263-15.009,32.978-33.274,32.864L32.866,66.14
		C14.599,66.027-0.113,51.128,0,32.864l0,0C0.113,14.601,15.009-0.113,33.275,0l179.522,1.113
		C231.064,1.227,245.776,16.125,245.662,34.389L245.662,34.389z"/>
	<g>
		<path fill="#3E5D9F" d="M21.252,34.491c0-0.554,0-1.114,0-1.672c0.049-0.31,0.119-0.619,0.147-0.929
			c0.1-0.948,0.129-1.903,0.281-2.841c0.844-5.205,2.848-9.91,6.2-13.987c5.585-6.799,12.78-10.538,21.593-11.099
			c0.388-0.024,0.777-0.094,1.167-0.146c0.315,0,0.639,0,0.951,0c0.211,0.045,0.421,0.114,0.63,0.122
			c3.699,0.104,7.27,0.841,10.624,2.375c10.042,4.603,16.022,12.339,17.759,23.28c0.534,3.391,0.389,6.771-0.328,10.117
			c-1.662,7.725-5.751,13.88-12.227,18.408c-4.556,3.195-9.654,4.931-15.231,5.229c-0.411,0.024-0.817,0.094-1.228,0.144
			c-0.32,0-0.635,0-0.954,0c-0.206-0.041-0.419-0.096-0.63-0.119c-1.653-0.197-3.333-0.248-4.955-0.598
			c-7.751-1.652-13.917-5.758-18.455-12.242c-2.869-4.099-4.555-8.653-5.077-13.631C21.441,36.099,21.342,35.297,21.252,34.491z
			 M59.492,15.86c-0.229-0.014-0.412-0.032-0.582-0.032c-1.912,0-3.827-0.04-5.736,0.011c-3.954,0.1-6.433,2.663-6.748,6.55
			c-0.12,1.483-0.081,2.978-0.089,4.47c0,0.433-0.144,0.602-0.586,0.588c-0.776-0.025-1.553-0.008-2.329-0.006
			c-0.8,0.001-0.815,0.014-0.815,0.789c0,1.592,0,3.184,0,4.773c0,0.805,0,0.809,0.782,0.812c0.68,0,1.355,0,2.032,0
			c0.881,0,0.885,0,0.885,0.91c0,5.409,0,10.819,0,16.229c0,0.771,0,0.771,0.792,0.771c2.029,0.005,4.062,0.005,6.095,0.005
			c0.828-0.005,0.834-0.005,0.834-0.843c0-5.469,0.008-10.939-0.012-16.412c-0.005-0.531,0.154-0.683,0.676-0.664
			c1.21,0.035,2.428-0.002,3.645,0.018c0.426,0.008,0.578-0.126,0.607-0.57c0.065-1.025,0.212-2.051,0.31-3.074
			c0.084-0.896,0.152-1.797,0.232-2.779c-0.287,0-0.504,0-0.719,0c-1.389,0-2.781-0.029-4.18,0.016
			c-0.576,0.018-0.715-0.183-0.688-0.715c0.042-0.734,0.009-1.472,0.012-2.206c0.006-1.737,0.768-2.487,2.521-2.487
			c1.009-0.004,2.017,0,3.061,0C59.492,19.926,59.492,17.928,59.492,15.86z"/>
		<path fill="#FFFFFF" d="M59.492,15.86c0,2.068,0,4.066,0,6.148c-1.044,0-2.052,0-3.061,0c-1.754,0-2.516,0.754-2.521,2.491
			c-0.003,0.734,0.03,1.47-0.012,2.204c-0.033,0.534,0.111,0.732,0.688,0.715c1.394-0.045,2.79-0.014,4.18-0.014
			c0.215,0,0.433,0,0.719,0c-0.08,0.982-0.148,1.881-0.232,2.777c-0.098,1.025-0.244,2.051-0.31,3.074
			c-0.029,0.441-0.182,0.58-0.607,0.571c-1.217-0.021-2.435,0.017-3.645-0.019c-0.521-0.017-0.681,0.135-0.676,0.666
			c0.02,5.469,0.012,10.939,0.012,16.408c0,0.842-0.006,0.842-0.834,0.844c-2.033,0-4.062,0-6.095-0.002
			c-0.792,0-0.792,0-0.792-0.771c0-5.41,0-10.821,0-16.23c0-0.912,0-0.912-0.885-0.912c-0.681,0-1.355,0-2.032,0
			c-0.782-0.002-0.782-0.006-0.782-0.81c0-1.591,0-3.181,0-4.778c0-0.77,0.016-0.782,0.815-0.785
			c0.776-0.002,1.555-0.02,2.329,0.006c0.442,0.014,0.586-0.156,0.586-0.589c0.009-1.491-0.031-2.985,0.089-4.471
			c0.315-3.884,2.791-6.448,6.748-6.548c1.909-0.049,3.824-0.012,5.736-0.012C59.08,15.828,59.26,15.842,59.492,15.86z"/>
	</g>
	<rect x="94.341" y="20.119" fill="none" width="140.113" height="41.101"/>
	
		<text transform="matrix(1 0 0 1 94.3403 44.7661)" fill="#3E5D9F" stroke="#3E5D9F" stroke-width="0.9341" stroke-miterlimit="10" font-family="'WDBBangna'" font-size="33.6275">เข้าสู่ระบบ</text>
</g>
</svg>
