<?xml version="1.0" encoding="utf-8"?>
<!-- Generator: Adobe Illustrator 18.0.0, SVG Export Plug-In . SVG Version: 6.00 Build 0)  -->
<!DOCTYPE svg PUBLIC "-//W3C//DTD SVG 1.1//EN" "http://www.w3.org/Graphics/SVG/1.1/DTD/svg11.dtd">
<svg version="1.1" id="Layer_1" xmlns="http://www.w3.org/2000/svg" xmlns:xlink="http://www.w3.org/1999/xlink" x="0px" y="0px"
	 viewBox="128.4 108.7 492.4 87.3" enable-background="new 128.4 108.7 492.4 87.3" xml:space="preserve">
<g>
	<g>
		<defs>
			<rect id="SVGID_1_" x="114" y="76.6" width="572" height="146"/>
		</defs>
		<clipPath id="SVGID_2_">
			<use xlink:href="#SVGID_1_"  overflow="visible"/>
		</clipPath>
		<g clip-path="url(#SVGID_2_)">
			<g>
				<defs>
					<rect id="SVGID_3_" x="26" y="-265.4" width="660" height="684"/>
				</defs>
				<clipPath id="SVGID_4_">
					<use xlink:href="#SVGID_3_"  overflow="visible"/>
				</clipPath>
				<g clip-path="url(#SVGID_4_)">
					<g>
						<g>
							<defs>
								<rect id="SVGID_5_" x="-29.6" y="-188.9" width="800" height="800"/>
							</defs>
							<defs>
								<rect id="SVGID_6_" x="-29.6" y="-188.9" width="800" height="800"/>
							</defs>
							<defs>
								<rect id="SVGID_7_" x="-29.6" y="-188.9" width="800" height="800"/>
							</defs>
							<defs>
								<rect id="SVGID_8_" x="-29.6" y="-188.9" width="800" height="800"/>
							</defs>
							<defs>
								<rect id="SVGID_9_" x="-29.6" y="-188.9" width="800" height="800"/>
							</defs>
							<defs>
								<rect id="SVGID_10_" x="-29.6" y="-188.9" width="800" height="800"/>
							</defs>
							<defs>
								<rect id="SVGID_11_" x="-29.6" y="-188.9" width="800" height="800"/>
							</defs>
							<defs>
								<rect id="SVGID_12_" x="-29.6" y="-188.9" width="800" height="800"/>
							</defs>
							<defs>
								<rect id="SVGID_13_" x="-29.6" y="-188.9" width="800" height="800"/>
							</defs>
							<defs>
								<rect id="SVGID_14_" x="-29.6" y="-188.9" width="800" height="800"/>
							</defs>
							<defs>
								<rect id="SVGID_15_" x="-29.6" y="-188.9" width="800" height="800"/>
							</defs>
							<defs>
								<rect id="SVGID_16_" x="-29.6" y="-188.9" width="800" height="800"/>
							</defs>
							<defs>
								<rect id="SVGID_17_" x="-29.6" y="-188.9" width="800" height="800"/>
							</defs>
							<defs>
								<rect id="SVGID_18_" x="-29.6" y="-188.9" width="800" height="800"/>
							</defs>
							<defs>
								<rect id="SVGID_19_" x="-29.6" y="-188.9" width="800" height="800"/>
							</defs>
							<clipPath id="SVGID_20_">
								<use xlink:href="#SVGID_5_"  overflow="visible"/>
							</clipPath>
							<clipPath id="SVGID_21_" clip-path="url(#SVGID_20_)">
								<use xlink:href="#SVGID_6_"  overflow="visible"/>
							</clipPath>
							<clipPath id="SVGID_22_" clip-path="url(#SVGID_21_)">
								<use xlink:href="#SVGID_7_"  overflow="visible"/>
							</clipPath>
							<clipPath id="SVGID_23_" clip-path="url(#SVGID_22_)">
								<use xlink:href="#SVGID_8_"  overflow="visible"/>
							</clipPath>
							<clipPath id="SVGID_24_" clip-path="url(#SVGID_23_)">
								<use xlink:href="#SVGID_9_"  overflow="visible"/>
							</clipPath>
							<clipPath id="SVGID_25_" clip-path="url(#SVGID_24_)">
								<use xlink:href="#SVGID_10_"  overflow="visible"/>
							</clipPath>
							<clipPath id="SVGID_26_" clip-path="url(#SVGID_25_)">
								<use xlink:href="#SVGID_11_"  overflow="visible"/>
							</clipPath>
							<clipPath id="SVGID_27_" clip-path="url(#SVGID_26_)">
								<use xlink:href="#SVGID_12_"  overflow="visible"/>
							</clipPath>
							<clipPath id="SVGID_28_" clip-path="url(#SVGID_27_)">
								<use xlink:href="#SVGID_13_"  overflow="visible"/>
							</clipPath>
							<clipPath id="SVGID_29_" clip-path="url(#SVGID_28_)">
								<use xlink:href="#SVGID_14_"  overflow="visible"/>
							</clipPath>
							<clipPath id="SVGID_30_" clip-path="url(#SVGID_29_)">
								<use xlink:href="#SVGID_15_"  overflow="visible"/>
							</clipPath>
							<clipPath id="SVGID_31_" clip-path="url(#SVGID_30_)">
								<use xlink:href="#SVGID_16_"  overflow="visible"/>
							</clipPath>
							<clipPath id="SVGID_32_" clip-path="url(#SVGID_31_)">
								<use xlink:href="#SVGID_17_"  overflow="visible"/>
							</clipPath>
							<clipPath id="SVGID_33_" clip-path="url(#SVGID_32_)">
								<use xlink:href="#SVGID_18_"  overflow="visible"/>
							</clipPath>
							<clipPath id="SVGID_34_" clip-path="url(#SVGID_33_)">
								<use xlink:href="#SVGID_19_"  overflow="visible"/>
							</clipPath>
							<path clip-path="url(#SVGID_34_)" fill="#C6A000" d="M128.4,165.9l205.2-3.1c1.7,0,3,1.4,3,3.1c0,1.7-1.3,3.2-3,3.2h-0.1
								L128.4,165.9z"/>
							<path clip-path="url(#SVGID_34_)" fill="#C6A000" d="M620.8,165.9l-205.2,2.9c-1.7,0-3-1.1-3-2.8c0-1.7,1.3-2.9,3-2.9h0.1
								L620.8,165.9z"/>
							<path clip-path="url(#SVGID_34_)" fill="#754D25" d="M88.8,29.9"/>
							<path clip-path="url(#SVGID_34_)" fill="#C6A000" d="M346.8,174.2c0,0-0.1,0.3-0.3,0.8c-0.2,0.5-0.6,1.3-1,2.2
								c-0.4,0.9-1,2.1-1.5,3.4c-0.5,1.3-0.9,2.7-1.1,4.3c-0.1,0.8-0.1,1.6,0,2.4c0.1,0.8,0.2,1.7,0.5,2.4c0.5,1.4,1.5,3.1,3.2,4.1
								c0.8,0.5,1.8,0.7,2.8,0.6c0.5,0,1-0.2,1.5-0.4l0.4-0.2c0.1-0.1,0.2-0.1,0.3-0.2c0.2-0.1,0.4-0.3,0.6-0.5
								c1.6-1.4,2.2-3.8,2.1-6c0-1.1-0.2-2.2-0.5-3.2c-0.3-1.1-0.7-2-1.1-3c-0.9-1.9-2.2-3.6-3.6-4.9c-0.7-0.7-1.5-1.3-2.3-1.9
								c-0.4-0.3-0.8-0.6-1.1-0.8c-0.4-0.3-0.9-0.6-1.3-0.8c-1.5-0.9-3.2-1.6-4.8-2.1c-1.6-0.5-3.1-0.9-4.5-1.1
								c-1.4-0.3-2.6-0.4-3.6-0.6c-2.1-0.2-3.3-0.4-3.3-0.4l0-0.4c0,0,0.3-0.1,0.8-0.3c0.6-0.2,1.4-0.4,2.4-0.6
								c1.1-0.2,2.4-0.4,3.9-0.5c1.5-0.1,3.3,0,5.1,0.3c1.9,0.3,3.9,0.9,6,1.9c0.6,0.3,1,0.5,1.4,0.8c0.6,0.4,1,0.6,1.5,1
								c1,0.7,1.9,1.5,2.7,2.4c1.7,1.8,3,4,3.9,6.5c0.4,1.2,0.7,2.6,0.8,3.8c0.1,1.3,0,2.6-0.3,3.9c-0.5,2.5-1.6,5-3.5,6.7
								c-0.2,0.2-0.5,0.4-0.8,0.6c-0.1,0.1-0.3,0.2-0.4,0.3l-0.4,0.2c-0.1,0.1-0.2,0.1-0.4,0.2l-0.4,0.2c-0.3,0.1-0.6,0.2-0.9,0.3
								c-1.2,0.3-2.6,0.3-3.9-0.1c-2.5-0.7-4.6-2.5-5.7-4.8c-0.5-1.2-0.8-2.3-0.8-3.4c-0.1-0.6,0-1.1,0-1.7c0.1-0.5,0.1-1.1,0.2-1.6
								c0.4-2,1.3-3.6,2.1-4.9c0.8-1.3,1.7-2.3,2.4-3.1c0.7-0.8,1.4-1.4,1.8-1.7c0.4-0.4,0.7-0.6,0.7-0.6L346.8,174.2z"/>
							<path clip-path="url(#SVGID_34_)" fill="#C6A000" d="M349,171.7l2.1-4c0.7-1.3,1.3-2.6,1.9-3.9c0.3-0.7,0.5-1.3,0.8-2
								c0.2-0.7,0.5-1.3,0.6-2c0.2-0.7,0.3-1.3,0.5-2c0.1-0.3,0.1-0.7,0.2-1c0-0.3,0.1-0.7,0.1-1c0.1-0.7,0.1-1.4,0.1-2
								c0-0.8,0-1.4-0.1-2c-0.1-0.7-0.2-1.3-0.4-2c-0.2-0.6-0.4-1.3-0.7-1.9c-0.3-0.6-0.6-1.2-1-1.7c-0.4-0.5-0.8-1.1-1.3-1.5
								c-0.5-0.5-1-0.9-1.6-1.2c-0.6-0.4-1.2-0.7-1.8-0.9l1.3-1.6c0.3,0.6,0.5,1.2,0.7,1.8c0.1,0.6,0.2,1.2,0.2,1.8
								c0,0.6-0.1,1.2-0.2,1.8c-0.2,0.6-0.4,1.2-0.7,1.7c-0.3,0.5-0.5,0.9-0.8,1.4c-0.2,0.5-0.4,0.9-0.6,1.4c-0.4,0.9-0.7,1.9-1,2.9
								c-0.5,2-0.7,4.1-0.2,6.1c0.2,1,0.6,1.9,1.2,2.8c0.6,0.9,1.3,1.6,2.1,2.2l-0.2,0.3c-0.9-0.6-1.8-1.3-2.4-2.2
								c-0.7-0.9-1.2-1.9-1.5-2.9c-0.7-2.1-0.6-4.4-0.2-6.6c0.2-1.1,0.5-2.2,0.8-3.2c0.2-0.5,0.4-1,0.6-1.5c0.2-0.5,0.5-1,0.7-1.5
								c0.2-0.4,0.3-0.9,0.4-1.3c0.1-0.4,0.1-0.9,0.1-1.4c0-0.5-0.1-0.9-0.2-1.3c-0.1-0.4-0.3-0.9-0.5-1.2l-1.7-2.6l3,1
								c0.8,0.3,1.5,0.6,2.2,1c0.7,0.4,1.4,0.9,2,1.4c0.6,0.5,1.2,1.1,1.7,1.7c0.5,0.6,1,1.3,1.4,2c0.4,0.7,0.8,1.5,1.1,2.2
								c0.3,0.8,0.5,1.6,0.7,2.4c0.2,0.8,0.3,1.7,0.3,2.4c0,0.9,0,1.6-0.1,2.5c-0.1,0.8-0.2,1.6-0.4,2.4c-0.2,0.8-0.5,1.5-0.7,2.3
								c-0.3,0.7-0.6,1.5-1,2.2c-0.4,0.7-0.8,1.4-1.2,2c-0.4,0.7-0.9,1.3-1.3,1.9c-0.5,0.6-0.9,1.2-1.4,1.8c-1,1.1-2.1,2.2-3.2,3.2
								L349,171.7z"/>
							<path clip-path="url(#SVGID_34_)" fill="#C6A000" d="M348.6,173.2c0,0,0.1-0.2,0.3-0.6c0.2-0.3,0.5-0.9,0.9-1.5
								c0.9-1.2,2.5-2.8,4.8-4c1.1-0.6,2.5-1.2,4-1.4c1.5-0.2,3.3,0,4.8,0.5c1.5,0.6,3,1.3,4.4,2.4c1.4,1.1,2.6,2.5,3.1,4.5
								c0.4,1.9,0,3.9-0.9,5.7c-0.9,1.7-2.3,3.3-4.4,3.9c-2,0.6-4.3,0-5.6-1.1c-0.7-0.6-1.3-1.4-1.6-2.3c-0.3-0.8-0.4-1.7-0.3-2.5
								c0.1-1.6,0.9-2.8,1.7-3.7c0.9-0.9,1.9-1.2,2.8-1.3c0.8,0,1.4,0.2,1.8,0.3c0.4,0.2,0.6,0.3,0.6,0.3l-0.1,0.3c0,0-0.2,0-0.6,0
								c-0.4,0-0.9,0-1.5,0.2c-0.6,0.2-1.1,0.7-1.5,1.4c-0.4,0.7-0.6,1.6-0.6,2.5c0.1,0.9,0.5,1.7,1.3,2.1c0.1,0.1,0.2,0.1,0.2,0.1
								c0,0,0.3,0.1,0.4,0.2l0.3,0.1c0.1,0,0.2,0.1,0.4,0.1c0.5,0.1,0.9,0,1.4-0.1c0.9-0.3,1.9-1,2.6-2.2c0.7-1.1,1.1-2.4,1-3.7
								c0-0.6-0.1-1.3-0.3-2c-0.2-0.7-0.6-1.4-1-1.9c-0.9-1.2-2.3-2-3.7-2.1c-0.4-0.1-0.7,0-1,0c-0.3,0-0.6,0.1-1,0.2
								c-0.6,0.2-1.3,0.4-1.9,0.6c-1.2,0.5-2.3,0.9-3.4,1.3c-2.1,0.9-3.8,1.8-5,2.5c-0.6,0.4-1.1,0.6-1.4,0.9
								c-0.3,0.2-0.5,0.3-0.5,0.3L348.6,173.2z"/>
							<path clip-path="url(#SVGID_34_)" fill="#C6A000" d="M367.6,150c0,0-0.3-0.1-0.9-0.2c-0.3,0-0.6-0.1-1.1-0.3
								c-0.2-0.1-0.4-0.1-0.7-0.2c-0.2-0.1-0.5-0.2-0.7-0.3c-1-0.5-2.2-1.2-3.4-2.3c-1.2-1.1-2.3-2.6-3.1-4.4
								c-0.8-1.8-1.3-4.1-0.8-6.5c0.1-0.6,0.4-1.1,0.5-1.7c0.1-0.3,0.3-0.5,0.4-0.8l0.2-0.4l0.1-0.2l0.1-0.1c0,0,0.1-0.1,0.1-0.1
								l0,0l0,0c0.2-0.2,0.3-0.4,0.5-0.7c0.3-0.2,0.5-0.5,0.8-0.7c0.5-0.4,1.2-0.7,1.8-0.9c1.4-0.3,2.8,0,3.9,0.6
								c1.1,0.6,2.1,1.5,2.8,2.6c1.4,2.1,2.1,4.6,2.6,7.1c0.4,2.5,0.5,5.1,0.1,7.6c-0.4,2.5-1.2,4.9-2.3,7.1
								c-1.1,2.2-2.5,4.1-4.1,5.7c-0.5,0.4-0.7,0.7-1.2,1.1c-0.4,0.4-0.9,0.7-1.3,1c-0.9,0.6-1.7,1.1-2.5,1.6c-1.6,1-3,1.8-4.2,2.6
								c-1.2,0.8-2.2,1.6-2.9,2.4c-0.7,0.8-1.2,1.4-1.5,1.9c-0.3,0.5-0.5,0.8-0.5,0.8l-0.3-0.1c0,0,0.1-0.3,0.2-0.9
								c0.2-0.6,0.5-1.4,1.1-2.4c0.6-1,1.5-2,2.6-3.1c1.1-1.1,2.5-2.1,4-3.2c0.7-0.5,1.5-1.1,2.2-1.7c0.4-0.3,0.7-0.6,1.1-0.9
								c0.3-0.3,0.8-0.7,1-1c0.7-0.7,1.3-1.5,1.9-2.4c0.6-0.9,1.2-1.8,1.7-2.7c1-1.9,1.9-4,2.4-6.3c0.5-2.2,0.8-4.6,0.8-7
								c0-2.4-0.5-4.8-1.8-6.8c-0.6-1-1.5-1.8-2.5-2.2c-1-0.5-2.1-0.5-3-0.1c-0.4,0.2-0.8,0.5-1.1,0.8c-0.2,0.2-0.2,0.3-0.4,0.5
								c-0.1,0.2-0.3,0.5-0.4,0.7l-0.2,0.6c-0.1,0.2-0.2,0.4-0.2,0.7c-0.1,0.5-0.3,0.9-0.3,1.4c-0.3,1.8,0,3.6,0.6,5.2
								c0.6,1.6,1.4,2.9,2.3,4c0.2,0.3,0.4,0.5,0.7,0.8c0.2,0.2,0.4,0.5,0.7,0.7c0.5,0.4,0.9,0.8,1.3,1.1c0.2,0.2,0.4,0.3,0.6,0.5
								c0.2,0.1,0.4,0.2,0.5,0.3c0.3,0.2,0.6,0.4,0.9,0.5c0.5,0.3,0.8,0.4,0.8,0.4L367.6,150z"/>
							<path clip-path="url(#SVGID_34_)" fill="#C6A000" d="M374.3,191.8c0,0,0.3-0.3,0.8-0.7c0.4-0.5,1.1-1.3,1.4-2.5
								c0.4-1.2,0.5-2.7,0.3-4.4c-0.2-1.7-0.7-3.6-1.4-5.7c-0.3-1-0.7-2.1-1.1-3.2c-0.4-1.1-0.9-2.2-1.4-3.3c-1-2.2-2.3-4.5-3.7-6.8
								c-1.4-2.3-3-4.6-4.6-7c-1.6-2.4-3.3-4.9-4.7-7.6c-1.4-2.7-2.5-5.6-3.2-8.6c-0.1-0.8-0.3-1.5-0.3-2.3l-0.1-0.6l0-0.1l0-0.2
								l0-0.3c0-0.4,0-0.7,0-1.1c0-1.6,0.3-3.1,0.7-4.5c0.8-2.9,2.3-5.4,3.8-7.4c1.6-2.1,3.3-3.8,4.9-5.4c1.5-1.6,3-3,4.1-4.3
								c1.2-1.3,2.1-2.5,2.8-3.6c0.7-1.1,1.2-2,1.5-2.6c0.3-0.6,0.4-1,0.4-1s-0.1,0.4-0.3,1c-0.2,0.7-0.5,1.6-1.1,2.8
								c-0.6,1.2-1.3,2.6-2.4,4.1c-1,1.5-2.3,3.1-3.7,4.8c-1.4,1.7-2.9,3.5-4.3,5.5c-1.3,2-2.5,4.3-3.1,6.8
								c-0.3,1.2-0.4,2.5-0.4,3.8c0,0.3,0,0.7,0,1l0,0.3c0,0,0,0.1,0,0.1l0,0.1l0.1,0.5c0.1,0.7,0.2,1.3,0.3,2
								c0.6,2.6,1.6,5.2,3,7.7c1.3,2.5,2.9,5,4.4,7.4c1.6,2.4,3.1,4.9,4.5,7.3c1.4,2.4,2.5,4.9,3.4,7.3c0.5,1.2,0.9,2.4,1.2,3.6
								c0.3,1.1,0.6,2.3,0.9,3.4c0.5,2.2,0.8,4.2,0.8,6.1c0,1.9-0.3,3.5-0.9,4.7c-0.6,1.2-1.4,1.9-1.9,2.4
								C374.6,191.6,374.3,191.8,374.3,191.8"/>
							<path clip-path="url(#SVGID_34_)" fill="#C6A000" d="M326.4,163.5c0,0,0.4,0,1,0c0.6,0,1.6-0.1,2.7-0.2
								c1.2-0.1,2.5-0.3,4-0.7c1.5-0.4,3-1,4.3-1.9c0.3-0.3,0.7-0.5,0.9-0.8l0.2-0.2l0,0c0,0-0.1,0.1,0,0l0,0l0.1-0.1l0.1-0.1
								l0.3-0.3c0.1-0.1,0.1-0.2,0.2-0.2c0.5-0.6,1-1.4,1.4-2.2c0.8-1.6,1.3-3.5,0.5-5.5l-0.3-0.7l-0.5-0.8
								c-0.2-0.2-0.3-0.4-0.5-0.6c-0.2-0.2-0.4-0.4-0.7-0.6c-0.9-0.8-2.1-1.3-3.3-1.6c-2.5-0.6-5.2-0.2-7.7,0.5
								c-2.6,0.7-5.3,1.6-8,2c-2.7,0.4-5.5,0.7-8.2,0.8c-1.4,0-2.7,0-4-0.2l-0.5-0.1l-0.5-0.1c-0.3,0-0.6-0.1-0.9-0.1
								c-0.6-0.1-1.3-0.2-1.9-0.4c-2.4-0.6-4.7-1.4-6.7-2.5c-2-1.1-3.7-2.4-4.9-4c-1.2-1.6-1.8-3.3-1.8-4.7
								c-0.1-0.7,0.1-1.3,0.1-1.8c0.1-0.5,0.2-0.9,0.4-1.2c0.3-0.6,0.4-1,0.4-1l0.5,0.1c0,0,0,0.3,0.1,1c0,0.3,0,0.7,0.2,1.1
								c0.1,0.4,0.2,0.9,0.4,1.4c0.4,1,1.1,1.9,2.2,2.8c1.1,0.8,2.6,1.6,4.3,2.1c1.7,0.6,3.7,1,5.9,1.4c0.5,0.1,1.1,0.2,1.6,0.2
								c0.3,0,0.6,0.1,0.9,0.1l0.4,0.1l0.4,0c1.1,0.1,2.3,0.2,3.5,0.3c2.4,0.2,4.9,0.2,7.6,0.1c2.6-0.1,5.3-0.1,8.1-0.2
								c2.9,0,5.7,0.1,8.5,0.8c1.4,0.3,2.7,0.9,4,1.6l0.9,0.6l0.9,0.7l0.7,0.7c0.3,0.4,0.5,0.6,0.8,0.9c0.9,1.2,1.6,2.7,1.8,4.2
								c0.2,1.5,0,3.1-0.4,4.4c-0.5,1.4-1.2,2.5-2.2,3.6c-0.1,0.1-0.3,0.3-0.4,0.4l-0.3,0.3l-0.4,0.3l-0.4,0.3
								c-0.5,0.4-1,0.7-1.6,1.1c-2.2,1.2-4.4,1.6-6.2,1.6c-1.9,0-3.4-0.3-4.6-0.6c-1.2-0.3-2.1-0.7-2.7-1c-0.6-0.3-0.9-0.5-0.9-0.5
								L326.4,163.5z"/>
							<path clip-path="url(#SVGID_34_)" fill="#C6A000" d="M402.8,174c0,0,0.2,0.2,0.7,0.6c0.4,0.4,1,1,1.8,1.7
								c0.7,0.8,1.6,1.8,2.4,3.1c0.8,1.3,1.7,2.9,2.1,4.9c0.1,0.5,0.2,1,0.2,1.6c0,0.5,0.1,1.1,0,1.7c-0.1,1.1-0.3,2.2-0.8,3.4
								c-1.1,2.3-3.1,4.1-5.7,4.8c-1.2,0.4-2.6,0.4-3.9,0.1c-0.3-0.1-0.6-0.2-0.9-0.3l-0.4-0.2c-0.2-0.1-0.3-0.1-0.4-0.2l-0.4-0.2
								c-0.1-0.1-0.3-0.2-0.4-0.3c-0.3-0.2-0.5-0.4-0.8-0.6c-1.9-1.7-3-4.2-3.5-6.7c-0.2-1.3-0.3-2.6-0.3-3.9
								c0.1-1.3,0.4-2.6,0.8-3.8c0.9-2.5,2.2-4.7,3.9-6.5c0.8-0.9,1.7-1.7,2.7-2.4c0.5-0.4,0.9-0.7,1.5-1c0.5-0.3,0.9-0.5,1.4-0.8
								c2.1-1,4.1-1.5,6-1.9c1.9-0.3,3.6-0.4,5.1-0.3c1.5,0.1,2.8,0.3,3.9,0.5c1.1,0.2,1.9,0.4,2.4,0.6c0.5,0.2,0.8,0.3,0.8,0.3
								l0,0.4c0,0-1.2,0.1-3.3,0.4c-1,0.1-2.3,0.3-3.6,0.6c-1.4,0.3-2.9,0.6-4.5,1.1c-1.6,0.5-3.3,1.2-4.8,2.1
								c-0.4,0.2-0.8,0.5-1.3,0.8c-0.3,0.2-0.8,0.5-1.1,0.8c-0.8,0.6-1.5,1.2-2.3,1.9c-1.4,1.4-2.7,3-3.6,4.9c-0.5,1-0.8,1.9-1.1,3
								c-0.3,1-0.5,2.1-0.5,3.2c-0.1,2.2,0.5,4.6,2.1,6c0.2,0.2,0.4,0.4,0.6,0.5c0.1,0.1,0.2,0.1,0.3,0.2l0.4,0.2
								c0.5,0.2,1,0.4,1.5,0.4c1,0.1,2-0.1,2.8-0.6c1.6-1,2.7-2.7,3.2-4.1c0.3-0.7,0.4-1.6,0.5-2.4c0.1-0.8,0.1-1.6,0-2.3
								c-0.2-1.5-0.6-3-1.1-4.3c-0.5-1.3-1-2.4-1.5-3.4c-0.4-1-0.8-1.7-1-2.2c-0.2-0.5-0.3-0.8-0.3-0.8L402.8,174z"/>
							<path clip-path="url(#SVGID_34_)" fill="#C6A000" d="M400,171.9c-1.1-1-2.2-2.1-3.2-3.2c-0.5-0.6-1-1.2-1.4-1.8
								c-0.5-0.6-0.9-1.2-1.3-1.9c-0.4-0.7-0.8-1.3-1.2-2c-0.4-0.7-0.7-1.4-1-2.2c-0.3-0.7-0.6-1.5-0.7-2.3
								c-0.2-0.8-0.4-1.6-0.4-2.4c-0.1-0.8-0.1-1.6-0.1-2.5c0-0.7,0.1-1.6,0.3-2.4c0.2-0.8,0.4-1.6,0.7-2.4c0.3-0.8,0.7-1.5,1-2.2
								c0.4-0.7,0.9-1.4,1.4-2c0.5-0.6,1.1-1.2,1.7-1.7c0.6-0.5,1.3-1,2-1.4c0.7-0.4,1.5-0.7,2.2-1l3-1l-1.7,2.6
								c-0.2,0.3-0.4,0.8-0.5,1.2c-0.1,0.4-0.2,0.9-0.2,1.3c0,0.5,0,0.9,0.1,1.4c0.1,0.4,0.2,0.9,0.4,1.3c0.2,0.4,0.5,0.9,0.7,1.5
								c0.2,0.5,0.4,1,0.6,1.5c0.4,1,0.6,2.1,0.8,3.2c0.4,2.2,0.4,4.4-0.2,6.6c-0.3,1.1-0.8,2.1-1.5,2.9c-0.7,0.9-1.5,1.6-2.4,2.2
								l-0.2-0.3c0.8-0.6,1.6-1.4,2.1-2.2c0.6-0.9,1-1.8,1.2-2.8c0.5-2,0.3-4.1-0.2-6.1c-0.3-1-0.6-2-1-2.9
								c-0.2-0.5-0.4-0.9-0.6-1.4c-0.2-0.5-0.5-0.9-0.8-1.4c-0.3-0.5-0.5-1.1-0.7-1.7c-0.1-0.6-0.2-1.2-0.2-1.8
								c0-0.6,0.1-1.2,0.2-1.8c0.2-0.6,0.3-1.1,0.7-1.8l1.3,1.6c-0.6,0.3-1.2,0.6-1.8,0.9c-0.6,0.4-1.1,0.8-1.6,1.2
								c-0.5,0.4-0.9,1-1.3,1.5c-0.4,0.5-0.7,1.1-1,1.7c-0.3,0.6-0.5,1.2-0.7,1.9c-0.2,0.6-0.3,1.3-0.4,2c-0.1,0.7-0.1,1.2-0.1,2
								c0,0.6,0,1.3,0.1,2c0,0.3,0.1,0.7,0.1,1c0,0.3,0.1,0.7,0.2,1c0.1,0.7,0.3,1.3,0.5,2c0.2,0.7,0.4,1.3,0.6,2
								c0.2,0.7,0.5,1.3,0.8,2c0.6,1.3,1.2,2.6,1.9,3.9l2.1,4L400,171.9z"/>
							<path clip-path="url(#SVGID_34_)" fill="#C6A000" d="M400.4,173.4c0,0-0.2-0.1-0.5-0.3c-0.3-0.2-0.8-0.5-1.4-0.9
								c-1.2-0.7-2.9-1.6-5-2.5c-1.1-0.4-2.2-0.9-3.4-1.3c-0.6-0.2-1.3-0.5-1.9-0.6c-0.4-0.1-0.7-0.2-1-0.2c-0.3,0-0.7-0.1-1,0
								c-1.4,0.1-2.8,0.9-3.7,2.1c-0.5,0.6-0.8,1.3-1,1.9c-0.2,0.7-0.3,1.4-0.3,2c-0.1,1.3,0.3,2.6,1,3.7c0.7,1.1,1.7,1.9,2.6,2.2
								c0.5,0.1,0.9,0.2,1.4,0.1c0.1,0,0.2-0.1,0.4-0.1l0.3-0.1c0.1-0.1,0.4-0.2,0.4-0.2c0.1,0,0.1-0.1,0.2-0.1
								c0.8-0.4,1.2-1.2,1.3-2.1c0.1-0.9-0.1-1.8-0.6-2.5c-0.4-0.7-1-1.1-1.5-1.4c-0.6-0.2-1.1-0.3-1.5-0.2c-0.4,0-0.6,0-0.6,0
								l-0.1-0.3c0,0,0.2-0.1,0.6-0.3c0.4-0.2,1-0.4,1.8-0.3c0.8,0,1.9,0.4,2.8,1.3c0.9,0.8,1.6,2.1,1.7,3.7c0.1,0.8,0,1.6-0.3,2.5
								c-0.3,0.8-0.9,1.6-1.6,2.3c-1.4,1.1-3.6,1.8-5.6,1.1c-2-0.6-3.5-2.2-4.4-3.9c-0.9-1.7-1.3-3.7-0.9-5.7c0.5-2,1.8-3.4,3.1-4.5
								c1.4-1.1,2.8-1.8,4.4-2.4c1.5-0.6,3.3-0.8,4.8-0.5c1.5,0.2,2.9,0.7,4,1.4c2.3,1.2,3.9,2.8,4.8,4c0.5,0.6,0.8,1.1,0.9,1.5
								c0.2,0.4,0.3,0.6,0.3,0.6L400.4,173.4z"/>
							<path clip-path="url(#SVGID_34_)" fill="#C6A000" d="M381.6,149.7c0,0,0.3-0.1,0.8-0.4c0.3-0.1,0.6-0.3,0.9-0.5
								c0.2-0.1,0.3-0.2,0.5-0.3c0.2-0.1,0.4-0.3,0.6-0.5c0.4-0.3,0.8-0.7,1.3-1.1c0.2-0.2,0.4-0.5,0.7-0.7c0.2-0.2,0.5-0.5,0.7-0.8
								c0.9-1.1,1.7-2.4,2.3-4c0.6-1.6,0.8-3.4,0.6-5.2c0-0.5-0.2-0.9-0.3-1.4c-0.1-0.2-0.2-0.4-0.2-0.7l-0.2-0.6
								c-0.1-0.2-0.3-0.5-0.4-0.7c-0.1-0.2-0.2-0.3-0.4-0.5c-0.3-0.3-0.7-0.6-1.1-0.8c-0.8-0.4-2-0.4-3,0.1c-1,0.4-1.9,1.2-2.5,2.2
								c-1.3,2-1.7,4.4-1.8,6.8c0,2.4,0.3,4.8,0.8,7c0.5,2.2,1.4,4.4,2.4,6.3c0.5,0.9,1.1,1.8,1.7,2.7c0.6,0.8,1.3,1.6,1.9,2.4
								c0.3,0.3,0.7,0.8,1,1c0.3,0.3,0.7,0.6,1.1,0.9c0.7,0.6,1.5,1.2,2.2,1.7c1.5,1.1,2.9,2.2,4,3.2c1.1,1.1,2,2.1,2.6,3.1
								c0.6,1,0.9,1.8,1.1,2.4c0.2,0.6,0.2,0.9,0.2,0.9l-0.3,0.1c0,0-0.2-0.3-0.5-0.8c-0.3-0.5-0.8-1.2-1.5-1.9
								c-0.7-0.7-1.7-1.5-2.9-2.4c-1.2-0.8-2.6-1.6-4.2-2.6c-0.8-0.5-1.6-1-2.5-1.6c-0.4-0.3-0.9-0.6-1.3-1
								c-0.5-0.4-0.8-0.7-1.2-1.1c-1.6-1.6-3-3.5-4.1-5.7c-1.1-2.2-1.9-4.6-2.3-7.1c-0.4-2.5-0.3-5.1,0.1-7.6c0.5-2.5,1.2-5,2.6-7.1
								c0.7-1.1,1.6-2,2.8-2.6c1.1-0.6,2.5-1,3.9-0.6c0.7,0.2,1.3,0.5,1.8,0.9c0.3,0.2,0.5,0.5,0.8,0.7c0.2,0.2,0.4,0.4,0.5,0.7l0,0
								l0,0c0,0,0.1,0.1,0.1,0.1l0.1,0.1l0.1,0.2l0.2,0.4c0.1,0.3,0.3,0.5,0.4,0.8c0.2,0.6,0.5,1.1,0.5,1.7c0.5,2.4,0,4.7-0.8,6.5
								c-0.8,1.9-2,3.3-3.1,4.4c-1.2,1.1-2.3,1.9-3.4,2.3c-0.3,0.1-0.5,0.2-0.7,0.3c-0.2,0.1-0.5,0.2-0.7,0.2
								c-0.4,0.1-0.8,0.3-1.1,0.3c-0.6,0.1-0.9,0.2-0.9,0.2L381.6,149.7z"/>
							<path clip-path="url(#SVGID_34_)" fill="#C6A000" d="M375,191.8c0,0-0.3-0.2-0.9-0.6c-0.5-0.5-1.3-1.2-1.9-2.4
								c-0.6-1.2-1-2.8-0.9-4.7c0-1.9,0.3-3.9,0.8-6.1c0.3-1.1,0.5-2.2,0.9-3.4c0.3-1.2,0.8-2.4,1.2-3.6c0.9-2.4,2.1-4.9,3.4-7.3
								c1.4-2.4,2.9-4.9,4.5-7.3c1.6-2.4,3.1-4.8,4.4-7.4c1.3-2.5,2.4-5.1,3-7.7c0.1-0.7,0.3-1.3,0.3-2l0.1-0.5l0-0.1
								c0,0.1,0-0.1,0-0.1l0-0.3c0-0.3,0.1-0.7,0-1c0-1.2-0.1-2.5-0.4-3.8c-0.6-2.5-1.7-4.7-3.1-6.8c-1.3-2-2.9-3.8-4.3-5.5
								c-1.4-1.7-2.7-3.3-3.7-4.8c-1-1.5-1.8-2.9-2.4-4.1c-0.6-1.2-0.9-2.2-1.1-2.8c-0.2-0.7-0.3-1-0.3-1s0.2,0.3,0.4,1
								c0.3,0.6,0.8,1.5,1.5,2.6c0.7,1.1,1.6,2.3,2.8,3.6c1.2,1.3,2.6,2.7,4.1,4.3c1.5,1.6,3.3,3.3,4.9,5.4c1.6,2.1,3,4.6,3.8,7.4
								c0.4,1.4,0.6,2.9,0.7,4.5c0,0.4,0,0.7,0,1.1l0,0.3l0,0.2l0,0.1l-0.1,0.6c-0.1,0.8-0.2,1.5-0.3,2.3c-0.6,3-1.7,5.9-3.2,8.6
								c-1.4,2.7-3.1,5.2-4.7,7.6c-1.6,2.4-3.2,4.7-4.6,7c-1.4,2.3-2.6,4.6-3.7,6.8c-0.5,1.1-1,2.2-1.4,3.3
								c-0.4,1.1-0.8,2.2-1.1,3.2c-0.7,2.1-1.2,4-1.4,5.7c-0.2,1.7-0.1,3.2,0.3,4.4c0.4,1.2,1,2,1.4,2.5
								C374.8,191.6,375,191.8,375,191.8"/>
							<path clip-path="url(#SVGID_34_)" fill="#C6A000" d="M423,164c0,0-0.3,0.2-0.9,0.5c-0.6,0.3-1.5,0.7-2.7,1
								c-1.2,0.3-2.8,0.6-4.6,0.6c-1.8,0-4-0.4-6.2-1.6c-0.5-0.3-1.1-0.7-1.6-1.1l-0.4-0.3l-0.4-0.3l-0.3-0.3
								c-0.1-0.1-0.2-0.3-0.4-0.4c-1-1.1-1.7-2.2-2.2-3.6c-0.5-1.4-0.7-2.9-0.4-4.4c0.2-1.5,0.9-3,1.8-4.2c0.3-0.3,0.5-0.5,0.8-0.9
								l0.7-0.7l0.9-0.7l0.9-0.6c1.3-0.7,2.6-1.2,4-1.6c2.8-0.7,5.6-0.8,8.5-0.8c2.8,0.1,5.5,0.1,8.1,0.2c2.6,0.1,5.2,0.1,7.6-0.1
								c1.2-0.1,2.4-0.2,3.5-0.3l0.4,0l0.4-0.1c0.3,0,0.6-0.1,0.9-0.1c0.5-0.1,1.1-0.1,1.6-0.2c2.2-0.3,4.2-0.8,5.9-1.4
								c1.8-0.6,3.2-1.3,4.3-2.1c1.1-0.8,1.9-1.8,2.2-2.8c0.3-0.5,0.3-0.9,0.4-1.4c0.1-0.4,0.1-0.8,0.2-1.1c0-0.6,0.1-1,0.1-1
								l0.5-0.1c0,0,0.1,0.3,0.4,1c0.1,0.3,0.3,0.7,0.4,1.2c0.1,0.5,0.2,1.1,0.1,1.8c0,1.4-0.6,3.1-1.8,4.7c-1.2,1.6-2.9,2.9-4.9,4
								c-2,1.1-4.3,1.9-6.7,2.5c-0.6,0.2-1.3,0.3-1.9,0.4c-0.3,0-0.6,0.1-0.9,0.1l-0.5,0.1l-0.5,0.1c-1.3,0.2-2.6,0.2-4,0.2
								c-2.7,0-5.5-0.3-8.2-0.8c-2.7-0.4-5.4-1.2-8-2c-2.5-0.7-5.2-1.1-7.7-0.5c-1.2,0.3-2.4,0.8-3.3,1.6c-0.2,0.2-0.4,0.4-0.7,0.6
								c-0.2,0.2-0.4,0.4-0.5,0.6l-0.5,0.8l-0.3,0.7c-0.7,2-0.3,3.9,0.5,5.5c0.4,0.8,0.9,1.6,1.4,2.2c0.1,0.1,0.1,0.1,0.2,0.2
								l0.3,0.3l0.1,0.1l0.1,0.1l0,0c0.1,0.1-0.1-0.1,0,0l0,0l0.2,0.2c0.3,0.3,0.6,0.5,0.9,0.8c1.3,0.9,2.8,1.5,4.3,1.9
								c1.5,0.4,2.8,0.5,4,0.7c1.2,0.1,2.1,0.1,2.7,0.2c0.7,0,1,0,1,0L423,164z"/>
						</g>
					</g>
				</g>
			</g>
		</g>
	</g>
</g>
</svg>
