<?xml version="1.0" encoding="utf-8"?>
<!-- Generator: Adobe Illustrator 16.0.0, SVG Export Plug-In . SVG Version: 6.00 Build 0)  -->
<!DOCTYPE svg PUBLIC "-//W3C//DTD SVG 1.1//EN" "http://www.w3.org/Graphics/SVG/1.1/DTD/svg11.dtd">
<svg version="1.1" id="Layer_1" xmlns="http://www.w3.org/2000/svg" xmlns:xlink="http://www.w3.org/1999/xlink" x="0px" y="0px"
	 width="30px" height="30px" viewBox="0 0 30 30" enable-background="new 0 0 30 30" xml:space="preserve">
<g>
	<path fill-rule="evenodd" clip-rule="evenodd" fill="#5380A5" d="M16.021,30c-0.74,0-1.48,0-2.221,0
		c-0.556-0.078-1.119-0.06-1.675-0.139c-1.277-0.183-2.474-0.627-3.633-1.174c-1.745-0.822-3.277-1.946-4.587-3.361
		c-1.872-2.023-3.121-4.38-3.71-7.077c-0.132-0.606-0.118-1.23-0.165-1.848c-0.006-0.067,0.021-0.14-0.03-0.201c0-0.8,0-1.6,0-2.4
		c0.07-0.553,0.055-1.113,0.132-1.664c0.147-1.053,0.49-2.054,0.902-3.027c1.011-2.385,2.537-4.379,4.563-5.991
		c1.65-1.312,3.502-2.22,5.53-2.782c0.811-0.226,1.642-0.247,2.471-0.306c0.088-0.006,0.18,0.028,0.262-0.029c0.76,0,1.52,0,2.28,0
		c0.564,0.075,1.137,0.064,1.702,0.137c1.084,0.14,2.103,0.501,3.102,0.923c1.932,0.816,3.619,1.994,5.057,3.519
		c1.922,2.038,3.201,4.425,3.803,7.165c0.136,0.619,0.122,1.256,0.167,1.886c0.006,0.077-0.025,0.16,0.029,0.231
		c0,0.78,0,1.56,0,2.34c-0.084,0.534-0.066,1.075-0.135,1.611c-0.161,1.262-0.596,2.438-1.121,3.581
		c-0.818,1.781-1.955,3.342-3.391,4.677c-2.026,1.884-4.392,3.14-7.099,3.734c-0.628,0.138-1.274,0.124-1.913,0.168
		C16.235,29.979,16.124,29.939,16.021,30z"/>
	<path fill-rule="evenodd" clip-rule="evenodd" fill="#FFFFFF" d="M15.085,6.541c2.18,0,4.358,0.008,6.538-0.004
		c1.007-0.006,1.957,0.899,1.957,1.949c0.002,4.389,0.002,8.777,0,13.165c0,0.993-0.932,1.928-1.922,1.928
		c-4.398,0.002-8.797,0.002-13.195,0c-1.004,0-1.92-0.918-1.921-1.922c-0.001-4.398-0.001-8.797,0-13.195
		c0.001-1.018,0.9-1.92,1.916-1.921C10.667,6.539,12.876,6.541,15.085,6.541z"/>
	<path fill-rule="evenodd" clip-rule="evenodd" fill="#5380A5" d="M15.041,21.608c-1.879,0-3.758,0.001-5.637,0
		c-0.691,0-0.896-0.204-0.896-0.893c-0.001-2.179-0.001-4.357,0-6.536c0-0.435,0.003-0.436,0.428-0.438
		c0.23-0.001,0.461,0.013,0.689-0.003c0.268-0.018,0.347,0.063,0.295,0.345c-0.268,1.446,0.015,2.784,0.859,3.99
		c1.398,1.996,4.004,2.751,6.266,1.826c2.233-0.913,3.554-3.255,3.181-5.643c-0.074-0.472-0.207-0.524,0.449-0.516
		c0.17,0.002,0.34,0,0.51,0c0.422,0.002,0.424,0.003,0.424,0.439c0.001,2.188,0.001,4.378,0,6.566
		c-0.001,0.641-0.223,0.859-0.871,0.86C18.84,21.609,16.94,21.608,15.041,21.608z"/>
	<path fill-rule="evenodd" clip-rule="evenodd" fill="#5380A5" d="M15.059,18.331c-1.813,0-3.285-1.471-3.282-3.281
		c0.002-1.808,1.483-3.28,3.292-3.275c1.796,0.006,3.256,1.467,3.268,3.27S16.867,18.33,15.059,18.331z"/>
	<path fill-rule="evenodd" clip-rule="evenodd" fill="#5380A5" d="M19.959,11.773c-0.32,0-0.64,0.009-0.959-0.002
		c-0.395-0.013-0.649-0.236-0.661-0.629c-0.02-0.668-0.02-1.337,0-2.006c0.012-0.389,0.271-0.619,0.665-0.625
		c0.649-0.009,1.298-0.01,1.947,0.001c0.383,0.007,0.643,0.259,0.65,0.643c0.015,0.659,0.016,1.318,0,1.977
		c-0.009,0.383-0.27,0.626-0.654,0.64C20.618,11.782,20.288,11.773,19.959,11.773z"/>
</g>
</svg>
