<?xml version="1.0" encoding="utf-8"?>
<!-- Generator: Adobe Illustrator 16.0.0, SVG Export Plug-In . SVG Version: 6.00 Build 0)  -->
<!DOCTYPE svg PUBLIC "-//W3C//DTD SVG 1.1//EN" "http://www.w3.org/Graphics/SVG/1.1/DTD/svg11.dtd">
<svg version="1.1" id="Layer_1" xmlns="http://www.w3.org/2000/svg" xmlns:xlink="http://www.w3.org/1999/xlink" x="0px" y="0px"
	 width="30px" height="30px" viewBox="0 0 30 30" enable-background="new 0 0 30 30" xml:space="preserve">
<g>
	<path fill-rule="evenodd" clip-rule="evenodd" fill="#CB2027" d="M16.021,30c-0.74,0-1.48,0-2.221,0
		c-0.556-0.078-1.119-0.06-1.675-0.139c-1.277-0.183-2.474-0.627-3.633-1.174c-1.745-0.822-3.277-1.946-4.587-3.361
		c-1.872-2.023-3.121-4.38-3.71-7.077c-0.132-0.606-0.118-1.23-0.165-1.848c-0.006-0.067,0.021-0.14-0.03-0.201c0-0.8,0-1.6,0-2.4
		c0.07-0.553,0.055-1.113,0.132-1.664c0.147-1.053,0.49-2.054,0.902-3.027c1.011-2.385,2.537-4.379,4.563-5.991
		c1.65-1.312,3.502-2.22,5.53-2.782c0.811-0.226,1.642-0.247,2.471-0.306c0.088-0.006,0.18,0.028,0.262-0.029c0.76,0,1.52,0,2.28,0
		c0.564,0.075,1.137,0.064,1.702,0.137c1.084,0.14,2.103,0.501,3.102,0.923c1.932,0.816,3.619,1.994,5.057,3.519
		c1.922,2.038,3.201,4.425,3.803,7.165c0.136,0.619,0.122,1.256,0.167,1.886c0.006,0.077-0.025,0.16,0.029,0.231
		c0,0.78,0,1.56,0,2.34c-0.084,0.534-0.066,1.075-0.135,1.611c-0.161,1.262-0.596,2.438-1.121,3.581
		c-0.818,1.781-1.955,3.342-3.391,4.677c-2.026,1.884-4.392,3.14-7.099,3.734c-0.628,0.138-1.274,0.124-1.913,0.168
		C16.235,29.979,16.124,29.939,16.021,30z"/>
</g>
<g>
	<path fill-rule="evenodd" clip-rule="evenodd" fill="#FFFFFF" d="M11.18,9.585c3.606,1.881,7.191,3.751,10.813,5.641
		c-3.622,1.878-7.208,3.737-10.813,5.605C11.18,17.072,11.18,13.349,11.18,9.585z"/>
</g>
</svg>
