<?xml version="1.0" encoding="utf-8"?>
<!-- Generator: Adobe Illustrator 18.0.0, SVG Export Plug-In . SVG Version: 6.00 Build 0)  -->
<!DOCTYPE svg PUBLIC "-//W3C//DTD SVG 1.1//EN" "http://www.w3.org/Graphics/SVG/1.1/DTD/svg11.dtd">
<svg version="1.1" id="Layer_1" xmlns="http://www.w3.org/2000/svg" xmlns:xlink="http://www.w3.org/1999/xlink" x="0px" y="0px"
	 viewBox="791.2 19.7 282.6 334.2" enable-background="new 791.2 19.7 282.6 334.2" xml:space="preserve">
<g id="BG" display="none">
	<g display="inline">
		<g>
			<defs>
				<rect id="SVGID_1_" x="1" y="1.4" width="1366" height="1017.6"/>
			</defs>
			<clipPath id="SVGID_2_">
				<use xlink:href="#SVGID_1_"  overflow="visible"/>
			</clipPath>
			
				<linearGradient id="SVGID_3_" gradientUnits="userSpaceOnUse" x1="676.8726" y1="-343.5635" x2="681.0792" y2="1590.8584" gradientTransform="matrix(1 0 0 -1 0 770)">
				<stop  offset="0" style="stop-color:#008D8B"/>
				<stop  offset="0.5742" style="stop-color:#724391"/>
				<stop  offset="1" style="stop-color:#724391"/>
			</linearGradient>
			<path clip-path="url(#SVGID_2_)" fill="url(#SVGID_3_)" d="M1373.1-0.1H-15v896.3l-3.9,2.6l0.7,82.8l3.3,2v20.2h13.6l0.7,4.2
				l0.4,0.2c-0.3,1.4-0.6,2.8-0.9,4.1c-0.8,3.8-1.9,7.3-3.4,10.7c-0.1,46.8-0.2,93.6-0.2,140.4c11.9-12.3,28.6-30.3,37-42.9
				c0,0-38.5-52.8-13.3-70.9c7.3-5.2,11.7-10.3,14.4-15.1l30.1-0.3c2.8,5.2,7.8,11.1,16.5,17c25.6,17.5-1.6,71.7-1.6,71.7l54.4,61.5
				l50.5-56.6l-14.7-61.9c0,0,10.7-17.8,16.4-32.8l11.6-0.1c1.3,0.7,2.6,1.5,3.9,2.4l29.8-0.3c6.3,14.2,16.1,29.6,16.1,29.6
				l-14,62.2l52.7,55.7l54.5-62.6c0,0-28.8-53.7-2.8-71.7c7.2-5,11.8-9.9,14.8-14.4l40.4-0.4c2.8,4.7,7.4,9.7,15,14.8
				c26.1,17.5-12.4,71.1-12.4,71.1c14.7,20.5,52.7,55.6,52.7,55.6l54.6-56.6c0,0-35.2-52.9-9.3-70.9c7.6-5.3,12.4-10.5,15.3-15.1
				l39.6-0.4c2.7,4.9,7.5,10.2,15.4,15.6c26,17.5-8.7,71.7-8.7,71.7l52.7,57.2l51.7-53.7c0,0-39.6-52.8-13.7-70.8
				c10.9-7.6,16-15,18.2-21l51.8-0.5c2.2,6,7.3,13.3,18.1,20.7c25.6,17.5-12.1,71.1-12.1,71.1l51.4,52.7l50.5-58
				c0,0-34.9-53.7-9.8-71.6c7.7-5.5,12.2-10.9,14.8-15.8l38.7-0.4c2.9,4.6,7.7,9.7,15.2,14.8c25.6,17.5-7.9,71-7.9,71l54.3,55.6
				c0,0,36.5-35.8,50.6-56.6c0,0-38.5-52.8-13.3-70.9c7.3-5.2,11.7-10.3,14.4-15.1l30.1-0.3c2.8,5.2,7.8,11.1,16.5,17
				c25.6,17.5-1.6,71.7-1.6,71.7l54.4,61.5l50.5-56.6l-14.7-61.9c0,0,10.7-17.8,16.4-32.8l39.5-0.4c2.1-0.8,4.2-1.5,6.4-1.8l6.6,0.1
				c5.7,15,16.4,32.8,16.4,32.8l-14.7,61.9l50.5,56.6l54.4-61.5c0,0-27.2-54.2-1.6-71.7c8.7-5.9,13.7-11.8,16.5-17l30.1,0.3
				c2.7,4.7,7.1,9.9,14.4,15.1c25.1,18-13.3,70.9-13.3,70.9c8.5,12.6,25.1,30.6,37,42.9c0-46.8-0.1-93.6-0.2-140.4
				c-1.5-3.4-2.6-7-3.4-10.7c0-0.1,0-0.1,0-0.2h3.7V-0.1z"/>
		</g>
	</g>
	<rect x="0" display="inline" fill="#FFFFFF" width="1366" height="521"/>
	
		<image display="inline" overflow="visible" enable-background="new    " width="1586" height="291" xlink:href="919C6B28674468B3.png"  transform="matrix(0.8613 0 0 0.8613 9.765625e-04 280.3672)">
	</image>
	
		<image display="inline" overflow="visible" opacity="0.2" enable-background="new    " width="1586" height="291" xlink:href="919C6B28674468B1.png"  transform="matrix(0.8613 0 0 -0.8613 9.765625e-04 771.6318)">
	</image>
</g>
<g id="frame" display="none">
	<path display="inline" fill="#969696" d="M1210.2,990.6c0,6.3-5.1,11.4-11.4,11.4H167.2c-6.3,0-11.4-5.1-11.4-11.4V359.3
		c0-6.3,5.1-11.4,11.4-11.4h1031.6c6.3,0,11.4,5.1,11.4,11.4L1210.2,990.6L1210.2,990.6z"/>
	<path display="inline" fill="#EEDDCC" d="M155.8,2326.1c0,14.8,5.1,16.9,11.4,16.9h1031.6c6.3,0,11.4,0.5,11.4-16.9V460.9H155.8
		V2326.1z"/>
	
		<image display="inline" overflow="visible" enable-background="new    " width="46" height="37" xlink:href="919C6B28674468B7.jpeg"  transform="matrix(1 0 0 1 530 572)">
	</image>
	<rect x="542" y="392" display="inline" fill="none" width="294.7" height="52.5"/>
	<text transform="matrix(1 0 0 1 582.4004 427.1836)" display="inline" fill="#FFFFFF" font-family="'WDBBangna'" font-size="48">ยืนยันตัวตน</text>
	<rect x="155.8" y="768" display="inline" fill="#F2E7DD" width="1054.4" height="421.6"/>
	<rect x="155.8" y="1629" display="inline" fill="#F2E7DD" width="1054.4" height="421.6"/>
</g>
<g id="part_1" display="none">
	<circle display="inline" fill="#FFFFFF" cx="321.6" cy="627.1" r="103.5"/>
	<rect x="433.1" y="572" display="inline" fill="none" width="318.9" height="42"/>
	<text transform="matrix(1 0 0 1 479.2876 593.9893)" display="inline" font-family="'WDBBangna'" font-size="30">กวิน เมศร์ศิริตระกูล</text>
	<rect x="446.4" y="610.4" display="inline" fill="none" width="220" height="73"/>
	<text transform="matrix(1 0 0 1 479.3994 625.0117)" display="inline" font-family="'WDBBangna'" font-size="20">สาขา Web Design</text>
	<path display="inline" fill="#36AA00" d="M678,686.7c0,6.6-1.4,8-8,8H486c-6.6,0-8-1.4-8-8v-33c0-6.6,1.4-8,8-8h184
		c6.6,0,8,1.4,8,8V686.7z"/>
	<rect x="492.4" y="660.7" display="inline" fill="none" width="174" height="34"/>
	<text transform="matrix(1 0 0 1 509.5405 678.3379)" display="inline" fill="#FFFFFF" font-family="'WDBBangna'" font-size="24">ยืนยันเรียบร้อย</text>
	<path display="inline" fill="#FFFFFF" d="M1148,702c0,7.2-5.4,13-12,13H812.5c-6.6,0-12-5.8-12-13V544c0-7.2,5.4-13,12-13H1136
		c6.6,0,12,5.8,12,13V702z"/>
	<rect x="851.3" y="563.6" display="inline" fill="none" width="246" height="26"/>
	<text transform="matrix(1 0 0 1 885.1523 581.1699)" display="inline" font-family="'WDBBangna'" font-size="24">จำนวนเงินที่การโอน</text>
	<rect x="811.1" y="617.3" display="inline" fill="none" width="276" height="103.5"/>
	<text transform="matrix(1 0 0 1 839.6631 675.9678)" display="inline" font-family="'WDBBangna'" font-size="80">501.26</text>
	<rect x="1036.9" y="654.1" display="inline" fill="none" width="100.5" height="30"/>
	<text transform="matrix(1 0 0 1 1067.5977 671.668)" display="inline" font-family="'WDBBangna'" font-size="24">บาท</text>
	<rect x="509.2" y="811.5" display="inline" fill="none" width="358" height="43.1"/>
	<text transform="matrix(1 0 0 1 519.6421 836.4268)" display="inline" font-family="'WDBBangna'" font-size="34">รายละเอียดการยืนยันสิทธิ์</text>
</g>
<g id="part_2" display="none">
	<rect x="484.5" y="1245.6" display="inline" fill="none" width="433.5" height="30"/>
	<text transform="matrix(1 0 0 1 518.2256 1270.4932)" display="inline" font-family="'WDBBangna'" font-size="34">Upload หลักฐานการโอนเงิน</text>
	<rect x="337.5" y="1305.9" display="inline" fill="none" width="727.5" height="82.5"/>
	<text transform="matrix(1 0 0 1 401.0322 1322.7471)" display="inline" font-family="'CSPraJad'" font-size="24">เช่น ใบโอนเิงน, สลิปโอนเงิน ( จาก ATM หรือ Internet Banking )</text>
	<text transform="matrix(1 0 0 1 548.6492 1380.347)" display="inline" font-family="'CSPraJad'" font-size="24">( ภาพถ่าย, scan, screenshot )</text>
	<path display="inline" fill="#7A7A7A" d="M1001.5,1448.4c0,5.5-1.1,6.7-6.4,6.7H848c-5.3,0-6.4-1.1-6.4-6.7v-27.5
		c0-5.5,1.1-6.7,6.4-6.7h147.1c5.3,0,6.4,1.1,6.4,6.7L1001.5,1448.4L1001.5,1448.4z"/>
	<rect x="855.1" y="1429.2" display="inline" fill="none" width="139.1" height="27.2"/>
	
		<text transform="matrix(1 0 0 1 894.3271 1443.2773)" display="inline" fill="#FFFFFF" font-family="'WDBBangna'" font-size="19.1862">เลือกไฟล์</text>
	<rect x="399.6" y="1413.9" display="inline" fill="#FFFFFF" width="448.4" height="41.1"/>
	<path display="inline" fill="#2C72FF" d="M756.2,1523.7c0,5.5-1.1,6.7-6.4,6.7H602.7c-5.3,0-6.4-1.1-6.4-6.7v-27.5
		c0-5.5,1.1-6.7,6.4-6.7h147.1c5.3,0,6.4,1.1,6.4,6.7L756.2,1523.7L756.2,1523.7z"/>
	<rect x="609.8" y="1504.5" display="inline" fill="none" width="139.1" height="27.2"/>
	
		<text transform="matrix(1 0 0 1 650.7715 1518.5986)" display="inline" fill="#FFFFFF" font-family="'WDBBangna'" font-size="19.1862">Upload</text>
	<rect x="459.5" y="1553.6" display="inline" fill="none" width="433.5" height="30"/>
	<text transform="matrix(1 0 0 1 624.7891 1569.6953)" display="inline" fill="#2C72FF" font-family="'WDBBangna'" font-size="22">คลิกเพื่อดูรูป</text>
</g>
<g id="part_3" display="none">
	<rect x="484.5" y="1709.7" display="inline" fill="none" width="433.5" height="30"/>
	<text transform="matrix(1 0 0 1 519.1436 1734.6221)" display="inline" font-family="'WDBBangna'" font-size="34">Upload หลักฐานแสดงตัวตน</text>
	<rect x="337.5" y="1770.1" display="inline" fill="none" width="727.5" height="41.2"/>
	<text transform="matrix(1 0 0 1 362.1235 1786.876)" display="inline" font-family="'CSPraJad'" font-size="24">รูปบัตรนักเรียน หรือบัตรประชาชน หากไม่มีสามรถใช้เป็น transcript แทนได้</text>
	<path display="inline" fill="#7A7A7A" d="M1001.5,1868.9c0,5.5-1.1,6.7-6.4,6.7H848c-5.3,0-6.4-1.1-6.4-6.7v-27.5
		c0-5.5,1.1-6.7,6.4-6.7h147.1c5.3,0,6.4,1.1,6.4,6.7L1001.5,1868.9L1001.5,1868.9z"/>
	<rect x="855.1" y="1849.7" display="inline" fill="none" width="139.1" height="27.2"/>
	
		<text transform="matrix(1 0 0 1 894.3271 1863.791)" display="inline" fill="#FFFFFF" font-family="'WDBBangna'" font-size="19.1862">เลือกไฟล์</text>
	<rect x="399.6" y="1834.5" display="inline" fill="#FFFFFF" width="448.4" height="41.1"/>
	<path display="inline" fill="#2C72FF" d="M756.2,1944.2c0,5.5-1.1,6.7-6.4,6.7H602.7c-5.3,0-6.4-1.1-6.4-6.7v-27.5
		c0-5.5,1.1-6.7,6.4-6.7h147.1c5.3,0,6.4,1.1,6.4,6.7L756.2,1944.2L756.2,1944.2z"/>
	<rect x="609.8" y="1925" display="inline" fill="none" width="139.1" height="27.2"/>
	
		<text transform="matrix(1 0 0 1 650.7715 1939.1123)" display="inline" fill="#FFFFFF" font-family="'WDBBangna'" font-size="19.1862">Upload</text>
	<rect x="459.5" y="1977.6" display="inline" fill="none" width="433.5" height="30"/>
	<text transform="matrix(1 0 0 1 624.7891 1993.6953)" display="inline" fill="#2C72FF" font-family="'WDBBangna'" font-size="22">คลิกเพื่อดูรูป</text>
</g>
<g id="part_4" display="none">
	<rect x="466.3" y="2115.7" display="inline" fill="none" width="433.5" height="30"/>
	<text transform="matrix(1 0 0 1 557.084 2140.6221)" display="inline" font-family="'WDBBangna'" font-size="34">แบบสอบถามเพิ่มเติม</text>
	<rect x="319.3" y="2176.1" display="inline" fill="none" width="727.5" height="41.2"/>
	<text transform="matrix(1 0 0 1 407.7964 2192.876)" display="inline" font-family="'CSPraJad'" font-size="24">กรุณากรอกข้อมูลให้ครบถ้วน เพื่อประโยชน์ของตัวน้องๆนะครับ</text>
	<path display="inline" fill="#2C72FF" d="M777,2270.3c0,5.9-1.3,7.1-7.8,7.1H589c-6.5,0-7.8-1.2-7.8-7.1v-29.2
		c0-5.9,1.3-7.1,7.8-7.1h180.2c6.5,0,7.8,1.2,7.8,7.1L777,2270.3L777,2270.3z"/>
	<rect x="608.5" y="2249" display="inline" fill="none" width="139.1" height="27.2"/>
	
		<text transform="matrix(1 0 0 1 610.6465 2263.0547)" display="inline" fill="#FFFFFF" font-family="'WDBBangna'" font-size="19.1862">กรอกแบบสอบถาม</text>
</g>
<g id="Character">
	
		<image overflow="visible" enable-background="new    " width="1391" height="2988" xlink:href="919C6B28674468B0.png"  transform="matrix(0.1118 0 0 0.1118 918.2422 19.7168)">
	</image>
	
		<image overflow="visible" enable-background="new    " width="2007" height="2614" xlink:href="919C6B28674468BE.png"  transform="matrix(0.1021 0 0 0.1021 791.1914 87.0605)">
	</image>
</g>
<g id="LOGO" display="none">
	
		<image display="inline" overflow="visible" enable-background="new    " width="1681" height="765" xlink:href="919C6B28674468BF.png"  transform="matrix(0.2382 0 0 0.2382 259.2949 90.3271)">
	</image>
</g>
</svg>
