<?xml version="1.0" encoding="utf-8"?>
<!-- Generator: Adobe Illustrator 18.0.0, SVG Export Plug-In . SVG Version: 6.00 Build 0)  -->
<!DOCTYPE svg PUBLIC "-//W3C//DTD SVG 1.1//EN" "http://www.w3.org/Graphics/SVG/1.1/DTD/svg11.dtd">
<svg version="1.1" xmlns="http://www.w3.org/2000/svg" xmlns:xlink="http://www.w3.org/1999/xlink" x="0px" y="0px"
	 viewBox="0 0 800 320" enable-background="new 0 0 800 320" xml:space="preserve">
<g id="Layer_3" display="none">
	<path display="inline" d="M700,120c-55.2,0-100,44.8-100,100s44.8,100,100,100c55.2,0,100-44.8,100-100S755.2,120,700,120z
		 M700,260c-22.1,0-40-17.9-40-40s17.9-40,40-40c22.1,0,40,17.9,40,40S722.1,260,700,260z"/>
</g>
<g id="Layer_1">
</g>
<g id="Layer_4">
	<g>
		<g>
			<linearGradient id="SVGID_1_" gradientUnits="userSpaceOnUse" x1="100" y1="30" x2="160" y2="30">
				<stop  offset="0" style="stop-color:#712678"/>
				<stop  offset="1" style="stop-color:#DC5E74"/>
			</linearGradient>
			<rect x="100" fill="url(#SVGID_1_)" width="60" height="60"/>
			<linearGradient id="SVGID_2_" gradientUnits="userSpaceOnUse" x1="0" y1="170" x2="60" y2="170">
				<stop  offset="0" style="stop-color:#008E8C"/>
				<stop  offset="1" style="stop-color:#007838"/>
			</linearGradient>
			<path fill="url(#SVGID_2_)" d="M0,200h60v-60C27,140,0,166.9,0,200z"/>
			<linearGradient id="SVGID_3_" gradientUnits="userSpaceOnUse" x1="60" y1="130" x2="160" y2="130">
				<stop  offset="0" style="stop-color:#AA171F"/>
				<stop  offset="1" style="stop-color:#E94F0F"/>
			</linearGradient>
			<path fill="url(#SVGID_3_)" d="M100,100c0,22.1-17.9,40-40,40v60c55.2,0,100-44.8,100-100V60h-60V100z"/>
		</g>
		<g>
			<linearGradient id="SVGID_4_" gradientUnits="userSpaceOnUse" x1="444.6661" y1="104.6661" x2="544.6661" y2="4.6661">
				<stop  offset="0" style="stop-color:#008E8C"/>
				<stop  offset="1" style="stop-color:#007838"/>
			</linearGradient>
			<path fill="url(#SVGID_4_)" d="M540,60V0c-55,0-100,44.8-100,100h60C500,77.9,518,60,540,60z"/>
			<linearGradient id="SVGID_5_" gradientUnits="userSpaceOnUse" x1="469.375" y1="170.625" x2="520" y2="120">
				<stop  offset="0" style="stop-color:#712678"/>
				<stop  offset="1" style="stop-color:#DC5E74"/>
			</linearGradient>
			<path fill="url(#SVGID_5_)" d="M540,200v-60c-22,0-40-18-40-40h-60C440,155,485,200,540,200z"/>
			
				<linearGradient id="SVGID_6_" gradientUnits="userSpaceOnUse" x1="540" y1="-90" x2="600" y2="-90" gradientTransform="matrix(1 0 0 -1 0 80)">
				<stop  offset="0" style="stop-color:#008E8C"/>
				<stop  offset="1" style="stop-color:#007838"/>
			</linearGradient>
			<path fill="url(#SVGID_6_)" d="M600,140h-60v60C573,200,600,173,600,140z"/>
			<linearGradient id="SVGID_7_" gradientUnits="userSpaceOnUse" x1="600" y1="30" x2="540" y2="30">
				<stop  offset="0" style="stop-color:#C7A100"/>
				<stop  offset="1" style="stop-color:#677333"/>
			</linearGradient>
			<rect x="540" fill="url(#SVGID_7_)" width="60" height="60"/>
		</g>
		<g>
			<linearGradient id="SVGID_8_" gradientUnits="userSpaceOnUse" x1="680" y1="30" x2="620" y2="30">
				<stop  offset="0" style="stop-color:#712678"/>
				<stop  offset="1" style="stop-color:#DC5E74"/>
			</linearGradient>
			<path fill="url(#SVGID_8_)" d="M620,0c0,33,26.9,60,60,60V0H620z"/>
			<linearGradient id="SVGID_9_" gradientUnits="userSpaceOnUse" x1="739.9999" y1="0" x2="739.9999" y2="0">
				<stop  offset="0" style="stop-color:#008E8C"/>
				<stop  offset="1" style="stop-color:#007838"/>
			</linearGradient>
			<polygon fill="url(#SVGID_9_)" points="740,0 740,0 740,0 			"/>
			<linearGradient id="SVGID_10_" gradientUnits="userSpaceOnUse" x1="710" y1="60" x2="710" y2="-1.346052e-09">
				<stop  offset="0" style="stop-color:#008E8C"/>
				<stop  offset="1" style="stop-color:#007838"/>
			</linearGradient>
			<rect x="680" fill="url(#SVGID_10_)" width="60" height="60"/>
			<linearGradient id="SVGID_11_" gradientUnits="userSpaceOnUse" x1="769.9999" y1="60" x2="769.9999" y2="1.347871e-09">
				<stop  offset="0" style="stop-color:#AA171F"/>
				<stop  offset="1" style="stop-color:#E94F0F"/>
			</linearGradient>
			<path fill="url(#SVGID_11_)" d="M740,0v60h60C800,27,773,0,740,0z"/>
			<linearGradient id="SVGID_12_" gradientUnits="userSpaceOnUse" x1="740" y1="60" x2="740" y2="0">
				<stop  offset="0" style="stop-color:#008E8C"/>
				<stop  offset="1" style="stop-color:#007838"/>
			</linearGradient>
			<rect x="740" fill="url(#SVGID_12_)" width="0" height="60"/>
			<linearGradient id="SVGID_13_" gradientUnits="userSpaceOnUse" x1="740" y1="60" x2="740" y2="0">
				<stop  offset="0" style="stop-color:#AA171F"/>
				<stop  offset="1" style="stop-color:#E94F0F"/>
			</linearGradient>
			<rect x="740" fill="url(#SVGID_13_)" width="0" height="60"/>
			<linearGradient id="SVGID_14_" gradientUnits="userSpaceOnUse" x1="739.9999" y1="170" x2="800" y2="170">
				<stop  offset="0" style="stop-color:#C7A100"/>
				<stop  offset="1" style="stop-color:#677333"/>
			</linearGradient>
			<path fill="url(#SVGID_14_)" d="M740,140c0,33,27,60,60,60v-60H740L740,140z"/>
			<linearGradient id="SVGID_15_" gradientUnits="userSpaceOnUse" x1="740" y1="100" x2="800" y2="100">
				<stop  offset="0" style="stop-color:#AA171F"/>
				<stop  offset="1" style="stop-color:#E94F0F"/>
			</linearGradient>
			<rect x="740" y="60" fill="url(#SVGID_15_)" width="60" height="80"/>
		</g>
		<g>
			<linearGradient id="SVGID_16_" gradientUnits="userSpaceOnUse" x1="197.625" y1="182.375" x2="240" y2="140">
				<stop  offset="0" style="stop-color:#712678"/>
				<stop  offset="1" style="stop-color:#DC5E74"/>
			</linearGradient>
			<path fill="url(#SVGID_16_)" d="M180,140c0,33,27,60,60,60v-60H180z"/>
			<linearGradient id="SVGID_17_" gradientUnits="userSpaceOnUse" x1="300" y1="170" x2="240" y2="170">
				<stop  offset="0" style="stop-color:#AA171F"/>
				<stop  offset="1" style="stop-color:#E94F0F"/>
			</linearGradient>
			<path fill="url(#SVGID_17_)" d="M240,140v60c33,0,60-27,60-60h-30H240z"/>
			<linearGradient id="SVGID_18_" gradientUnits="userSpaceOnUse" x1="330" y1="200" x2="330" y2="140">
				<stop  offset="0" style="stop-color:#008E8C"/>
				<stop  offset="1" style="stop-color:#007838"/>
			</linearGradient>
			<path fill="url(#SVGID_18_)" d="M330,140h-30c0,33,27,60,60,60v-60H330z"/>
			<linearGradient id="SVGID_19_" gradientUnits="userSpaceOnUse" x1="360" y1="170" x2="420" y2="170">
				<stop  offset="0" style="stop-color:#C7A100"/>
				<stop  offset="1" style="stop-color:#677333"/>
			</linearGradient>
			<path fill="url(#SVGID_19_)" d="M360,200c33,0,60-27,60-60h-60V200z"/>
			<linearGradient id="SVGID_20_" gradientUnits="userSpaceOnUse" x1="210" y1="140" x2="210" y2="60">
				<stop  offset="0" style="stop-color:#C7A100"/>
				<stop  offset="1" style="stop-color:#677333"/>
			</linearGradient>
			<rect x="180" y="60" fill="url(#SVGID_20_)" width="60" height="80"/>
			<linearGradient id="SVGID_21_" gradientUnits="userSpaceOnUse" x1="390" y1="140" x2="390" y2="60">
				<stop  offset="0" style="stop-color:#AA171F"/>
				<stop  offset="1" style="stop-color:#E94F0F"/>
			</linearGradient>
			<rect x="360" y="60" fill="url(#SVGID_21_)" width="60" height="80"/>
			<linearGradient id="SVGID_22_" gradientUnits="userSpaceOnUse" x1="269.3934" y1="139.3934" x2="330.6066" y2="78.1802">
				<stop  offset="0" style="stop-color:#712678"/>
				<stop  offset="1" style="stop-color:#DC5E74"/>
			</linearGradient>
			<path fill="url(#SVGID_22_)" d="M330,90c0-16.6-13.4-30-30-30c-16.6,0-30,13.4-30,30v50h30h30V90z"/>
			
				<linearGradient id="SVGID_23_" gradientUnits="userSpaceOnUse" x1="308" y1="-22" x2="308" y2="-82" gradientTransform="matrix(0 1 -1 0 158 -278)">
				<stop  offset="0" style="stop-color:#008E8C"/>
				<stop  offset="1" style="stop-color:#007838"/>
			</linearGradient>
			<path fill="url(#SVGID_23_)" d="M180,0v60h60C240,27,213,0,180,0z"/>
			
				<linearGradient id="SVGID_24_" gradientUnits="userSpaceOnUse" x1="308" y1="698" x2="308" y2="758" gradientTransform="matrix(0 1 1 0 -338 -278)">
				<stop  offset="0" style="stop-color:#712678"/>
				<stop  offset="1" style="stop-color:#DC5E74"/>
			</linearGradient>
			<path fill="url(#SVGID_24_)" d="M360,60h60V0C387,0,360,27,360,60z"/>
		</g>
		<text transform="matrix(1 0 0 1 24.4707 300.2354)" opacity="0.8" font-family="'Roboto-Thin'" font-size="69.2432">Junior Webmaster Camp</text>
	</g>
</g>
</svg>
