<?xml version="1.0" encoding="utf-8"?>
<!-- Generator: Adobe Illustrator 16.0.0, SVG Export Plug-In . SVG Version: 6.00 Build 0)  -->
<!DOCTYPE svg PUBLIC "-//W3C//DTD SVG 1.1//EN" "http://www.w3.org/Graphics/SVG/1.1/DTD/svg11.dtd">
<svg version="1.1" id="Layer_1" xmlns="http://www.w3.org/2000/svg" xmlns:xlink="http://www.w3.org/1999/xlink" x="0px" y="0px"
	 width="400px" height="497.297px" viewBox="0 0 400 497.297" enable-background="new 0 0 400 497.297" xml:space="preserve">
<g>
	<path fill="#E74C25" d="M399.938,464.798c0,17.902-14.518,32.421-32.423,32.421H32.485c-17.907,0-32.422-14.519-32.422-32.421V32.5
		c0-17.904,14.515-32.422,32.422-32.422h335.029c17.905,0,32.423,14.518,32.423,32.422V464.798z"/>
	<g>
		<path fill="#FFFFFF" d="M161.954,250.046l100.914,3.559c0,0,20.634-133.437-47.795-132.239
			C150.239,122.503,159.882,181.504,161.954,250.046z"/>
		
			<linearGradient id="SVGID_1_" gradientUnits="userSpaceOnUse" x1="228.7891" y1="394.5942" x2="284.7695" y2="394.5942" gradientTransform="matrix(1 -0.0026 0.0026 1 -4.0762 0.9557)">
			<stop  offset="0.0032" style="stop-color:#D39C44"/>
			<stop  offset="0.1539" style="stop-color:#DEAB5A"/>
			<stop  offset="0.3298" style="stop-color:#EABA6D"/>
			<stop  offset="0.518" style="stop-color:#F2C47B"/>
			<stop  offset="0.7251" style="stop-color:#F7CB83"/>
			<stop  offset="0.9875" style="stop-color:#F9CD85"/>
		</linearGradient>
		<path fill="url(#SVGID_1_)" d="M254.916,317.681c0,0-0.689,124.616-0.7,126.916c-0.028,6.321,11.841,9.671,16.069,12.039
			c2.91,1.629,6.127,2.357,8.319,5.073c0.582,0.715,4.719,10.57,2.818,10.293c-9.942-1.443-19.88-2.925-29.821-4.363
			c-5.838-0.84-13.665,0.794-17.587-4.695c-4.114-5.761-1.619-14.915-2.164-21.476c-1.029-12.332-1.639-24.776-1.84-37.149
			l-4.446-76.44L254.916,317.681z"/>
		<path fill="#4A443B" d="M281.182,468.917c0,0,4.046,0.721,4.334,2.592c0.287,1.867-0.287,4.347-0.287,4.347l-52.979-2.324
			l0.41-4.989L281.182,468.917z"/>
		
			<linearGradient id="SVGID_2_" gradientUnits="userSpaceOnUse" x1="149.9355" y1="394.0142" x2="203.9346" y2="394.0142" gradientTransform="matrix(1 -0.0026 0.0026 1 -4.0762 0.9557)">
			<stop  offset="0.0032" style="stop-color:#D39C44"/>
			<stop  offset="0.1401" style="stop-color:#D9A550"/>
			<stop  offset="0.5004" style="stop-color:#EABA6D"/>
			<stop  offset="0.7957" style="stop-color:#F5C87F"/>
			<stop  offset="0.9875" style="stop-color:#F9CD85"/>
		</linearGradient>
		<path fill="url(#SVGID_2_)" d="M171.164,317.142c0,0,3.057,124.582,3.112,126.885c0.149,6.318-11.654,9.888-15.837,12.338
			c-2.882,1.686-6.079,2.479-8.223,5.233c-0.564,0.729-4.519,10.657-2.621,10.348c9.913-1.637,19.82-3.301,29.733-4.932
			c5.82-0.952,13.678,0.535,17.494-5.033c4.006-5.834,1.336-14.939,1.757-21.511c0.794-12.351,1.165-24.803,1.132-37.179
			l2.995-76.506L171.164,317.142z"/>
		
			<linearGradient id="SVGID_3_" gradientUnits="userSpaceOnUse" x1="148.4297" y1="309.2192" x2="217.4854" y2="309.2192" gradientTransform="matrix(1 -0.0026 0.0026 1 -4.0762 0.9557)">
			<stop  offset="0" style="stop-color:#A91F24"/>
			<stop  offset="1" style="stop-color:#E83527"/>
		</linearGradient>
		<path fill="url(#SVGID_3_)" d="M161.6,255.767c0,0-33.393,64.377-4.947,95.504c0,0,22.294,28.305,55.308-0.62l2.115-93.606
			L161.6,255.767z"/>
		
			<linearGradient id="SVGID_4_" gradientUnits="userSpaceOnUse" x1="209.5664" y1="311.105" x2="278.626" y2="311.105" gradientTransform="matrix(1 -0.0026 0.0026 1 -4.0762 0.9557)">
			<stop  offset="0" style="stop-color:#A91F24"/>
			<stop  offset="1" style="stop-color:#E83527"/>
		</linearGradient>
		<path fill="url(#SVGID_4_)" d="M258.633,257.401c0,0,33.731,64.197,5.449,95.477c0,0-22.143,28.422-55.309-0.329l-2.611-93.593
			L258.633,257.401z"/>
		<path fill="#EAB862" d="M222.393,124.341c0.016,6.266-6.119,11.363-13.705,11.385l-1.525,0.003
			c-7.583,0.019-13.747-5.046-13.763-11.31l-0.053-19.54c-0.016-6.264,6.122-11.359,13.707-11.381l1.523-0.003
			c7.587-0.021,13.747,5.043,13.764,11.308L222.393,124.341z"/>
		
			<linearGradient id="SVGID_5_" gradientUnits="userSpaceOnUse" x1="159.8105" y1="255.7114" x2="266.6475" y2="255.7114" gradientTransform="matrix(1 -0.0026 0.0026 1 -4.0762 0.9557)">
			<stop  offset="0" style="stop-color:#A91F24"/>
			<stop  offset="1" style="stop-color:#E83527"/>
		</linearGradient>
		<path fill="url(#SVGID_5_)" d="M263.236,255.968c0.014,4.439-3.675,8.047-8.233,8.061l-90.324,0.239
			c-4.561,0.011-8.266-3.578-8.28-8.015l0,0c-0.011-4.439,3.676-8.048,8.238-8.058l90.324-0.239
			C259.519,247.943,263.226,251.531,263.236,255.968L263.236,255.968z"/>
		
			<linearGradient id="SVGID_6_" gradientUnits="userSpaceOnUse" x1="202.3604" y1="312.6704" x2="228.832" y2="312.6704" gradientTransform="matrix(1 -0.0026 0.0026 1 -4.0762 0.9557)">
			<stop  offset="0" style="stop-color:#A91F24"/>
			<stop  offset="1" style="stop-color:#E83527"/>
		</linearGradient>
		<path fill="url(#SVGID_6_)" d="M214.076,257.044l-3.783,0.008c-6.266,0.02-11.329,5.114-11.311,11.378l0.007,2.836
			c0.009,3.839,1.93,7.221,4.857,9.269c-1.408,21.176-3.957,64.47-1.81,71.558c2.861,9.45,8.554,16.997,8.554,16.997
			s9.439-6.642,11.303-17.049l-2.629-70.718c3.686-1.881,6.21-5.706,6.196-10.127l-0.007-2.833
			C225.436,262.093,220.343,257.028,214.076,257.044z"/>
		<path fill="#FFFFFF" d="M190.718,124.741c0,0-3.105,16.396,9.506,19.515c12.617,3.117,23.95-1.326,25.188-10.153l-0.031-11.344
			c0,0,18.293,5.624,20.821,8.137l8.759,117.06l-91.123-0.28l6.734-114.057C170.572,133.619,187.57,124.75,190.718,124.741z"/>
		<path fill="#4A443B" d="M147.777,468.852c0,0-4.029,0.802-4.279,2.672c-0.255,1.873,0.363,4.342,0.363,4.342l52.929-3.33
			l-0.51-4.983L147.777,468.852z"/>
		<path fill="#8F9293" d="M177.596,48.596l0.065,24.786l-5.197,0.013l-0.303-24.339C172.161,49.055,175.927,43.24,177.596,48.596z"
			/>
		<path fill="#8F9293" d="M239.997,48.428l0.066,24.789l-5.201,0.012l-0.3-24.337C234.563,48.892,238.329,43.072,239.997,48.428z"/>
		
			<linearGradient id="SVGID_7_" gradientUnits="userSpaceOnUse" x1="174.6157" y1="70.6528" x2="244.8936" y2="70.6528" gradientTransform="matrix(1 -0.0026 0.0026 1 -4.0762 0.9557)">
			<stop  offset="0.0032" style="stop-color:#D39C44"/>
			<stop  offset="0.1401" style="stop-color:#D9A550"/>
			<stop  offset="0.5004" style="stop-color:#EABA6D"/>
			<stop  offset="0.7957" style="stop-color:#F5C87F"/>
			<stop  offset="0.9875" style="stop-color:#F9CD85"/>
		</linearGradient>
		<path fill="url(#SVGID_7_)" d="M240.989,66.304c-0.007-3.029-1.908-5.64-4.671-6.92c-0.345-6.766-0.718-13.53-1.072-20.286
			c0,0-5.712-14.744-28.877-15.089c-19.464-0.292-27.208,12.108-29.19,16.084c0.015,0.767,0.022,1.528,0.019,2.293l-0.565-1.083
			l0.563,1.241c-0.006,2.068-0.087,4.134-0.309,6.195c0.076,0.606,0.141,1.191,0.153,1.696c0.065,3.202,0.13,6.41,0.209,9.618
			c-3.756,0.823-6.544,3.906-6.535,7.589c0.01,3.842,3.059,7.02,7.062,7.644c0.059,1.276,0.123,2.553,0.193,3.829l0.241,22.391
			l0.284-0.702c0.125,1.01,0.333,1.987,0.688,2.916c2.505,6.552,10.353,9.945,17.229,12.221c6.688,2.217,12.509,2.715,19.555,1.599
			c12.973-2.058,21.863-7.384,21.691-20.766c-0.099-7.94-0.361-15.891-0.697-23.838C239.383,71.56,240.997,69.104,240.989,66.304z"
			/>
		<path fill="#352215" d="M205.376,20.264c0,0,2.152,18.895-1.52,21.005c-3.673,2.11-23.375,2.515-27.559,8.475
			c-4.191,5.959-14.437,4.938-15.259-8.71c0,0,8.418,5.578,11.031,0.32C174.685,36.095,170.421,13.356,205.376,20.264z"/>
		<path fill="#352215" d="M206.427,20.261c0,0-0.997,19.956,2.686,22.043c3.684,2.091,22.012,0.294,26.228,6.231
			c4.221,5.94,14.462,4.863,15.213-8.791c0,0-8.391,5.624-11.029,0.382C236.88,34.881,241.346,13.167,206.427,20.261z"/>
		<path fill="#4A443B" d="M272.567,455.62c0,0,7.881,12.03,5.578,15.845l-4.729,0.079l-3.601-17.909L272.567,455.62z"/>
		<path fill="#4A443B" d="M160.722,455.35c0,0-7.645,12.175-5.271,15.948l4.725-0.011l3.262-17.971L160.722,455.35z"/>
		<g>
			<g>
				<path fill="#FDFEFF" d="M192.062,85.734c1.744,2.332,2.255,5.186,1.14,6.386l-11.064,12.017
					c-1.108,1.218-3.425,0.308-5.172-2.036l-24.662-33.278c-1.768-2.402-2.297-5.319-1.183-6.518l11.12-11.847
					c1.119-1.179,3.458-0.197,5.218,2.188L192.062,85.734z"/>
				<g>
					<path fill-rule="evenodd" clip-rule="evenodd" fill="#8E8E8E" d="M169.352,67.326c-0.117,1.999,1.271,3.937,3.089,3.813
						c0.419,1.085,0.793,2.178,0.798,3.287c0.003,0.538-0.23,0.879-0.619,0.978c-0.72,0.182-1.208,0.626-1.422,1.499
						c-0.139,0.581-0.538,0.788-1.091,0.638c-1.787-0.485-3.347-1.646-4.575-3.66c-1.02-1.67-1.026-3.941,0.621-4.303
						c0.44-0.1,0.666-0.417,0.802-0.909c0.259-0.938,0.802-1.473,1.688-1.461C168.855,67.21,169.084,67.278,169.352,67.326z"/>
					<path fill-rule="evenodd" clip-rule="evenodd" fill="#8E8E8E" d="M166.219,68.762c-0.885-1.062-1.077-2.611-0.446-3.44
						C166.706,66.246,166.951,68.039,166.219,68.762z"/>
				</g>
			</g>
		</g>
		
			<linearGradient id="SVGID_8_" gradientUnits="userSpaceOnUse" x1="-35.7622" y1="57.1499" x2="34.7642" y2="57.1499" gradientTransform="matrix(0.9955 0.0948 -0.0948 0.9955 151.8886 56.8484)">
			<stop  offset="0.0032" style="stop-color:#D39C44"/>
			<stop  offset="0.1401" style="stop-color:#D9A550"/>
			<stop  offset="0.5004" style="stop-color:#EABA6D"/>
			<stop  offset="0.7957" style="stop-color:#F5C87F"/>
			<stop  offset="0.9875" style="stop-color:#F9CD85"/>
		</linearGradient>
		<path fill="url(#SVGID_8_)" d="M181.159,80.352l-4.111-3.139c-3.717-2.838-9.762-1.173-13.496,3.719l-3.761,4.923
			c-1.647,2.156-2.563,4.575-2.762,6.852l-36.335,42.576c0,0-5.735,7.052-1.703,11.234c4.033,4.181,50.349,9.855,50.349,9.855
			s5.584-12.13,1.79-18.823l-28.114-3.942l24.941-29.354c0.151,0.151,0.309,0.298,0.457,0.45c0.107-0.116,0.216-0.231,0.317-0.343
			c2.72-0.19,5.629-1.665,7.896-4.199c0.016,0,0.03,0.003,0.045,0.003c-0.008-0.01-0.018-0.015-0.027-0.026
			c0.246-0.273,0.485-0.56,0.712-0.865l3.759-4.919C184.858,89.458,184.875,83.19,181.159,80.352z"/>
		
			<linearGradient id="SVGID_9_" gradientUnits="userSpaceOnUse" x1="231.7939" y1="201.0171" x2="312.6965" y2="201.0171" gradientTransform="matrix(1 -0.0026 0.0026 1 -4.0762 0.9557)">
			<stop  offset="0.0032" style="stop-color:#D39C44"/>
			<stop  offset="0.1401" style="stop-color:#D9A550"/>
			<stop  offset="0.5004" style="stop-color:#EABA6D"/>
			<stop  offset="0.7957" style="stop-color:#F5C87F"/>
			<stop  offset="0.9875" style="stop-color:#F9CD85"/>
		</linearGradient>
		<path fill="url(#SVGID_9_)" d="M263.699,251.267c6.927-11.047,22.613-56.598,21.002-62.528
			c-1.793-6.613-38.704-57.843-38.704-57.843c-7.571,13.932,0.568,27.689,0.568,27.689l19.645,31.146l-17.568,54.843
			c-0.585-0.186-1.174-0.367-1.762-0.559c-2.069,1.45-3.826,3.798-4.764,6.724l-1.896,5.895c-1.883,5.861,0.198,11.774,4.649,13.205
			l4.925,1.582c4.45,1.433,9.588-2.159,11.471-8.023l1.896-5.899c0.115-0.354,0.214-0.715,0.299-1.071c0.014,0,0.027,0,0.041,0.003
			c-0.013-0.011-0.021-0.021-0.031-0.033C263.894,254.62,263.948,252.874,263.699,251.267z"/>
	</g>
	<g>
		<path fill="#F3AB1D" d="M104.23,238.196c1.978,0.566,3.711,1.485,5.196,2.757c1.484,1.272,2.685,2.793,3.605,4.56
			c0.917,2.051,1.378,4.1,1.378,6.149c0,1.908-0.371,3.711-1.113,5.407s-1.749,3.181-3.022,4.453
			c-1.272,1.272-2.757,2.281-4.453,3.023c-1.695,0.742-3.5,1.112-5.408,1.112h-6.892v6.468h-5.089v-6.468h-7.104v-0.106
			c-1.908,0-3.709-0.354-5.407-1.061c-1.697-0.706-3.181-1.696-4.454-2.969c-1.271-1.272-2.262-2.757-2.969-4.453
			s-1.059-3.499-1.059-5.407h5.089c0,2.477,0.865,4.559,2.597,6.256c1.732,1.696,3.798,2.544,6.203,2.544v0.106h7.104h5.089h6.892
			c2.474,0,4.559-0.864,6.256-2.597c1.696-1.731,2.546-3.833,2.546-6.31c0-2.05-0.62-3.851-1.857-5.407
			c-1.237-1.555-2.774-2.614-4.612-3.181l-0.53-0.106l-1.802-0.424l-21.311-4.984c-0.356-0.069-0.655-0.141-0.903-0.212
			c-0.249-0.071-0.548-0.14-0.901-0.212c-3.888-1.202-6.717-3.641-8.483-7.316c-0.919-1.979-1.377-3.992-1.377-6.043
			c0-1.909,0.352-3.711,1.059-5.408c0.707-1.697,1.698-3.181,2.969-4.453c1.272-1.272,2.757-2.278,4.454-3.022
			c1.698-0.742,3.499-1.113,5.407-1.113h7.104v-6.468h5.089v6.468h6.892c1.908,0,3.712,0.371,5.408,1.113
			c1.696,0.744,3.181,1.75,4.453,3.022c1.273,1.272,2.28,2.756,3.022,4.453c0.742,1.696,1.113,3.499,1.113,5.408h-5.089h-0.105
			c0-1.202-0.232-2.349-0.69-3.446c-0.461-1.094-1.08-2.05-1.855-2.861c-0.778-0.813-1.697-1.449-2.757-1.909
			c-1.061-0.461-2.227-0.69-3.499-0.69h-6.892h-5.089h-7.104c-1.202,0-2.35,0.229-3.446,0.69c-1.097,0.459-2.034,1.096-2.81,1.909
			c-0.777,0.812-1.396,1.748-1.855,2.809c-0.459,1.06-0.688,2.227-0.688,3.499c0,1.979,0.563,3.73,1.695,5.249
			c1.13,1.521,2.58,2.563,4.347,3.128l1.485,0.318l1.272,0.318l21.737,5.195C103.417,237.984,103.807,238.056,104.23,238.196z"/>
	</g>
	<g>
		<path fill="#F3AB1D" d="M347.412,343.199c1.387,0.397,2.6,1.042,3.639,1.934c1.04,0.889,1.882,1.954,2.524,3.191
			c0.644,1.438,0.966,2.874,0.966,4.307c0,1.338-0.259,2.599-0.779,3.787c-0.52,1.19-1.227,2.229-2.115,3.121
			c-0.892,0.892-1.932,1.596-3.12,2.115c-1.188,0.522-2.45,0.78-3.788,0.78h-4.826v4.529h-3.565v-4.529h-4.976v-0.073
			c-1.336,0-2.599-0.247-3.787-0.742c-1.189-0.495-2.228-1.188-3.119-2.08c-0.89-0.892-1.584-1.931-2.079-3.121
			c-0.496-1.188-0.742-2.449-0.742-3.787h3.565c0,1.734,0.604,3.194,1.818,4.383c1.214,1.188,2.66,1.783,4.344,1.783v0.073h4.976
			h3.565h4.826c1.733,0,3.193-0.606,4.383-1.818c1.188-1.213,1.782-2.687,1.782-4.421c0-1.433-0.436-2.694-1.301-3.784
			c-0.865-1.091-1.943-1.833-3.23-2.229l-0.371-0.076l-1.263-0.297l-14.926-3.488c-0.249-0.049-0.458-0.101-0.631-0.149
			c-0.174-0.049-0.385-0.098-0.632-0.149c-2.722-0.84-4.704-2.547-5.94-5.122c-0.645-1.387-0.966-2.795-0.966-4.233
			c0-1.337,0.246-2.599,0.742-3.789c0.495-1.186,1.189-2.228,2.079-3.119c0.892-0.892,1.93-1.596,3.119-2.115
			c1.188-0.521,2.451-0.78,3.787-0.78h4.976v-4.529h3.565v4.529h4.826c1.338,0,2.601,0.259,3.788,0.78
			c1.188,0.52,2.229,1.224,3.12,2.115c0.889,0.892,1.596,1.934,2.115,3.119c0.521,1.19,0.779,2.452,0.779,3.789h-3.563h-0.074
			c0-0.843-0.162-1.647-0.484-2.414s-0.754-1.436-1.298-2.004c-0.545-0.57-1.189-1.014-1.932-1.337
			c-0.742-0.324-1.56-0.484-2.451-0.484h-4.826h-3.565h-4.976c-0.841,0-1.646,0.16-2.412,0.484c-0.769,0.323-1.425,0.767-1.97,1.337
			c-0.543,0.568-0.978,1.224-1.299,1.966c-0.322,0.745-0.481,1.561-0.481,2.452c0,1.385,0.395,2.613,1.186,3.676
			c0.793,1.066,1.809,1.795,3.045,2.191l1.04,0.221l0.892,0.223l15.224,3.641C346.843,343.052,347.114,343.104,347.412,343.199z"/>
	</g>
	<g>
		<path fill="#F3AB1D" d="M103.356,432.173c0.865,0.247,1.623,0.649,2.273,1.207c0.65,0.557,1.177,1.221,1.58,1.995
			c0.401,0.897,0.602,1.795,0.602,2.691c0,0.835-0.162,1.626-0.488,2.365c-0.324,0.745-0.764,1.396-1.321,1.952
			c-0.558,0.558-1.207,0.998-1.949,1.321c-0.743,0.326-1.532,0.489-2.368,0.489h-3.017v2.831H96.44v-2.831h-3.109v-0.046
			c-0.836,0-1.626-0.155-2.368-0.465c-0.743-0.31-1.393-0.742-1.949-1.3c-0.557-0.557-0.99-1.207-1.298-1.952
			c-0.311-0.739-0.465-1.53-0.465-2.365h2.227c0,1.085,0.379,1.998,1.137,2.738c0.76,0.742,1.664,1.114,2.717,1.114v0.046h3.109
			h2.228h3.017c1.083,0,1.996-0.377,2.738-1.136c0.745-0.759,1.115-1.678,1.115-2.763c0-0.896-0.272-1.686-0.812-2.365
			c-0.542-0.683-1.215-1.145-2.02-1.395l-0.231-0.046l-0.79-0.186l-9.33-2.183c-0.155-0.027-0.285-0.06-0.393-0.09
			c-0.11-0.033-0.241-0.063-0.396-0.096c-1.702-0.524-2.94-1.593-3.713-3.202c-0.403-0.864-0.603-1.745-0.603-2.646
			c0-0.835,0.154-1.623,0.465-2.368c0.309-0.742,0.741-1.392,1.298-1.949c0.556-0.555,1.206-0.995,1.949-1.321
			c0.742-0.326,1.532-0.486,2.368-0.486h3.109v-2.833h2.228v2.833h3.017c0.836,0,1.625,0.16,2.368,0.486
			c0.742,0.326,1.392,0.767,1.949,1.321c0.557,0.558,0.998,1.207,1.321,1.949c0.326,0.745,0.488,1.533,0.488,2.368h-2.228h-0.046
			c0-0.524-0.101-1.027-0.302-1.506c-0.201-0.481-0.472-0.9-0.813-1.256c-0.34-0.354-0.742-0.631-1.206-0.835
			c-0.465-0.201-0.975-0.302-1.532-0.302h-3.017H96.44h-3.109c-0.526,0-1.03,0.101-1.509,0.302c-0.48,0.204-0.891,0.481-1.231,0.835
			c-0.339,0.355-0.61,0.767-0.811,1.231c-0.203,0.462-0.303,0.976-0.303,1.53c0,0.867,0.248,1.634,0.743,2.298
			c0.495,0.668,1.131,1.122,1.903,1.37l0.65,0.139l0.559,0.139l9.514,2.275C102.999,432.081,103.169,432.113,103.356,432.173z"/>
	</g>
	<g>
		<path fill="#F3AB1D" d="M349.146,126.179c0.866,0.248,1.623,0.65,2.274,1.207c0.649,0.556,1.176,1.222,1.578,1.996
			c0.401,0.897,0.603,1.796,0.603,2.69c0,0.836-0.162,1.626-0.487,2.368c-0.323,0.743-0.765,1.393-1.321,1.949
			c-0.559,0.559-1.208,0.999-1.95,1.324c-0.742,0.325-1.532,0.487-2.367,0.487h-3.018v2.833h-2.228V138.2h-3.109v-0.046
			c-0.834,0-1.624-0.155-2.366-0.463c-0.744-0.31-1.394-0.742-1.951-1.301c-0.556-0.556-0.989-1.206-1.298-1.949
			c-0.312-0.742-0.465-1.532-0.465-2.368h2.228c0,1.084,0.378,1.998,1.137,2.74s1.664,1.115,2.716,1.115v0.046h3.109h2.228h3.018
			c1.082,0,1.995-0.378,2.738-1.138c0.743-0.759,1.114-1.679,1.114-2.764c0-0.895-0.271-1.683-0.813-2.365
			c-0.542-0.681-1.215-1.145-2.019-1.394l-0.232-0.046l-0.789-0.185l-9.329-2.182c-0.155-0.028-0.287-0.063-0.395-0.092
			c-0.108-0.031-0.24-0.061-0.396-0.092c-1.701-0.526-2.938-1.595-3.714-3.203c-0.402-0.867-0.602-1.747-0.602-2.647
			c0-0.836,0.153-1.625,0.465-2.367c0.309-0.742,0.742-1.393,1.298-1.949c0.558-0.557,1.207-0.997,1.951-1.323
			c0.742-0.325,1.532-0.488,2.366-0.488h3.109v-2.83h2.228v2.83h3.018c0.835,0,1.625,0.163,2.367,0.488
			c0.742,0.326,1.392,0.766,1.95,1.323c0.557,0.556,0.998,1.207,1.321,1.949c0.325,0.742,0.487,1.531,0.487,2.367h-2.227h-0.047
			c0-0.524-0.101-1.026-0.302-1.507c-0.201-0.48-0.472-0.897-0.813-1.253s-0.743-0.633-1.207-0.836
			c-0.464-0.201-0.975-0.302-1.531-0.302h-3.018h-2.228h-3.109c-0.525,0-1.029,0.101-1.509,0.302
			c-0.479,0.203-0.889,0.48-1.23,0.836c-0.34,0.356-0.611,0.767-0.812,1.23c-0.201,0.463-0.302,0.975-0.302,1.53
			c0,0.868,0.248,1.633,0.742,2.297c0.495,0.667,1.13,1.122,1.903,1.369l0.649,0.14l0.558,0.14l9.515,2.276
			C348.791,126.088,348.961,126.12,349.146,126.179z"/>
	</g>
	<g>
		<path fill="#F3AB1D" d="M87.531,50.168c0.866,0.248,1.623,0.65,2.274,1.207c0.65,0.556,1.176,1.222,1.579,1.996
			c0.401,0.897,0.604,1.796,0.604,2.69c0,0.836-0.163,1.625-0.488,2.368c-0.323,0.744-0.765,1.394-1.321,1.95
			c-0.559,0.559-1.208,0.999-1.951,1.324c-0.742,0.325-1.532,0.487-2.367,0.487h-3.018v2.833h-2.228v-2.833h-3.109v-0.046
			c-0.836,0-1.625-0.155-2.367-0.463c-0.744-0.31-1.394-0.742-1.951-1.301c-0.556-0.556-0.99-1.206-1.298-1.95
			c-0.31-0.742-0.465-1.532-0.465-2.368h2.228c0,1.084,0.378,1.998,1.136,2.74c0.759,0.742,1.664,1.115,2.716,1.115v0.046h3.109
			h2.228h3.018c1.082,0,1.994-0.378,2.738-1.138c0.744-0.758,1.115-1.679,1.115-2.763c0-0.895-0.272-1.683-0.813-2.366
			c-0.542-0.681-1.215-1.145-2.019-1.393l-0.231-0.046l-0.79-0.185l-9.329-2.182c-0.155-0.028-0.287-0.063-0.395-0.092
			c-0.109-0.031-0.241-0.061-0.396-0.092c-1.701-0.526-2.939-1.595-3.712-3.204c-0.404-0.866-0.604-1.746-0.604-2.646
			c0-0.836,0.155-1.625,0.465-2.367c0.309-0.742,0.742-1.394,1.298-1.949c0.557-0.558,1.207-0.997,1.951-1.324
			c0.742-0.323,1.531-0.486,2.367-0.486h3.109v-2.831h2.228v2.831h3.018c0.835,0,1.625,0.163,2.367,0.486
			c0.742,0.328,1.392,0.767,1.951,1.324c0.556,0.556,0.998,1.207,1.321,1.949c0.325,0.742,0.488,1.531,0.488,2.367h-2.228h-0.046
			c0-0.525-0.101-1.026-0.302-1.507c-0.201-0.48-0.472-0.897-0.813-1.253c-0.341-0.356-0.744-0.634-1.206-0.836
			c-0.465-0.202-0.976-0.302-1.532-0.302h-3.018h-2.228h-3.109c-0.526,0-1.029,0.101-1.509,0.302
			c-0.479,0.202-0.889,0.479-1.23,0.836c-0.34,0.356-0.612,0.767-0.812,1.23c-0.201,0.464-0.302,0.975-0.302,1.531
			c0,0.867,0.248,1.633,0.742,2.297c0.495,0.667,1.129,1.122,1.902,1.369l0.651,0.14l0.558,0.14l9.514,2.275
			C87.174,50.077,87.343,50.108,87.531,50.168z"/>
	</g>
	<polygon fill="#78297B" points="264.695,111.982 297.58,78.235 317.482,90.349 340.848,60.928 335.655,58.332 348.636,54.003 
		346.906,66.982 344.31,63.521 320.079,98.137 298.446,86.887 269.887,117.176 	"/>
	<polygon fill="#78297B" points="205.995,147.675 201.339,138.359 217.059,138.359 212.4,148.839 221.715,194.251 210.073,213.463 
		200.174,195.417 	"/>
</g>
</svg>
