<?xml version="1.0" encoding="utf-8"?>
<!-- Generator: Adobe Illustrator 16.0.0, SVG Export Plug-In . SVG Version: 6.00 Build 0)  -->
<!DOCTYPE svg PUBLIC "-//W3C//DTD SVG 1.1//EN" "http://www.w3.org/Graphics/SVG/1.1/DTD/svg11.dtd">
<svg version="1.1" id="Layer_1" xmlns="http://www.w3.org/2000/svg" xmlns:xlink="http://www.w3.org/1999/xlink" x="0px" y="0px"
	 width="400px" height="300px" viewBox="0 0 400 300" enable-background="new 0 0 400 300" xml:space="preserve">
<g display="none">
	<g display="inline">
		<path fill="#FFFFFF" d="M117.285,270.046l100.913,3.56c0,0,20.634-133.438-47.795-132.239
			C105.57,142.503,115.213,201.504,117.285,270.046z"/>
		
			<linearGradient id="SVGID_1_" gradientUnits="userSpaceOnUse" x1="-193.4419" y1="490.248" x2="-137.4609" y2="490.248" gradientTransform="matrix(1 -0.0026 -0.0026 -1 375.7853 904.7006)">
			<stop  offset="0.0032" style="stop-color:#D39C44"/>
			<stop  offset="0.1539" style="stop-color:#DEAB5A"/>
			<stop  offset="0.3298" style="stop-color:#EABA6D"/>
			<stop  offset="0.518" style="stop-color:#F2C47B"/>
			<stop  offset="0.7251" style="stop-color:#F7CB83"/>
			<stop  offset="0.9875" style="stop-color:#F9CD85"/>
		</linearGradient>
		<path fill="url(#SVGID_1_)" d="M210.246,337.682c0,0-0.689,124.615-0.7,126.915c-0.028,6.321,11.841,9.671,16.069,12.039
			c2.91,1.629,6.127,2.357,8.318,5.073c0.582,0.715,4.72,10.57,2.818,10.293c-9.941-1.443-19.88-2.925-29.82-4.363
			c-5.838-0.84-13.666,0.794-17.588-4.694c-4.113-5.762-1.619-14.915-2.164-21.477c-1.029-12.332-1.639-24.775-1.84-37.148
			l-4.445-76.44L210.246,337.682z"/>
		<path fill="#4A443B" d="M236.512,488.916c0,0,4.047,0.721,4.334,2.592c0.287,1.867-0.287,4.348-0.287,4.348l-52.979-2.324
			l0.41-4.989L236.512,488.916z"/>
		
			<linearGradient id="SVGID_2_" gradientUnits="userSpaceOnUse" x1="-272.2939" y1="490.8281" x2="-218.2964" y2="490.8281" gradientTransform="matrix(1 -0.0026 -0.0026 -1 375.7853 904.7006)">
			<stop  offset="0.0032" style="stop-color:#D39C44"/>
			<stop  offset="0.1401" style="stop-color:#D9A550"/>
			<stop  offset="0.5004" style="stop-color:#EABA6D"/>
			<stop  offset="0.7957" style="stop-color:#F5C87F"/>
			<stop  offset="0.9875" style="stop-color:#F9CD85"/>
		</linearGradient>
		<path fill="url(#SVGID_2_)" d="M126.495,337.143c0,0,3.057,124.581,3.112,126.885c0.149,6.317-11.654,9.888-15.837,12.338
			c-2.882,1.686-6.079,2.479-8.223,5.232c-0.564,0.729-4.519,10.657-2.621,10.349c9.913-1.638,19.82-3.302,29.733-4.933
			c5.82-0.951,13.678,0.535,17.494-5.032c4.006-5.834,1.336-14.939,1.757-21.512c0.794-12.351,1.165-24.803,1.132-37.179
			l2.995-76.506L126.495,337.143z"/>
		
			<linearGradient id="SVGID_3_" gradientUnits="userSpaceOnUse" x1="-273.8003" y1="575.623" x2="-204.7461" y2="575.623" gradientTransform="matrix(1 -0.0026 -0.0026 -1 375.7853 904.7006)">
			<stop  offset="0" style="stop-color:#A91F24"/>
			<stop  offset="1" style="stop-color:#E83527"/>
		</linearGradient>
		<path fill="url(#SVGID_3_)" d="M116.931,275.768c0,0-33.393,64.377-4.947,95.504c0,0,22.294,28.305,55.307-0.62l2.115-93.606
			L116.931,275.768z"/>
		
			<linearGradient id="SVGID_4_" gradientUnits="userSpaceOnUse" x1="-212.6641" y1="573.7383" x2="-143.604" y2="573.7383" gradientTransform="matrix(1 -0.0026 -0.0026 -1 375.7853 904.7006)">
			<stop  offset="0" style="stop-color:#A91F24"/>
			<stop  offset="1" style="stop-color:#E83527"/>
		</linearGradient>
		<path fill="url(#SVGID_4_)" d="M213.963,277.4c0,0,33.731,64.196,5.449,95.477c0,0-22.143,28.422-55.309-0.329l-2.611-93.593
			L213.963,277.4z"/>
		<path fill="#EAB862" d="M177.723,144.341c0.017,6.267-6.119,11.363-13.705,11.386l-1.524,0.002
			c-7.582,0.02-13.746-5.045-13.762-11.31l-0.053-19.54c-0.016-6.264,6.122-11.359,13.707-11.381l1.522-0.003
			c7.587-0.021,13.747,5.043,13.764,11.308L177.723,144.341z"/>
		
			<linearGradient id="SVGID_5_" gradientUnits="userSpaceOnUse" x1="-262.4199" y1="629.1328" x2="-155.5835" y2="629.1328" gradientTransform="matrix(1 -0.0026 -0.0026 -1 375.7853 904.7006)">
			<stop  offset="0" style="stop-color:#A91F24"/>
			<stop  offset="1" style="stop-color:#E83527"/>
		</linearGradient>
		<path fill="url(#SVGID_5_)" d="M218.566,275.968c0.014,4.439-3.676,8.048-8.233,8.062l-90.323,0.238
			c-4.561,0.012-8.266-3.578-8.28-8.015l0,0c-0.011-4.438,3.676-8.048,8.238-8.058l90.323-0.239
			C214.85,267.941,218.557,271.53,218.566,275.968L218.566,275.968z"/>
		
			<linearGradient id="SVGID_6_" gradientUnits="userSpaceOnUse" x1="-219.8687" y1="572.1719" x2="-193.3989" y2="572.1719" gradientTransform="matrix(1 -0.0026 -0.0026 -1 375.7853 904.7006)">
			<stop  offset="0" style="stop-color:#A91F24"/>
			<stop  offset="1" style="stop-color:#E83527"/>
		</linearGradient>
		<path fill="url(#SVGID_6_)" d="M169.406,277.044l-3.783,0.008c-6.265,0.021-11.328,5.114-11.31,11.378l0.007,2.836
			c0.009,3.84,1.93,7.222,4.856,9.27c-1.408,21.176-3.956,64.47-1.809,71.558c2.86,9.45,8.553,16.997,8.553,16.997
			s9.439-6.642,11.303-17.049l-2.629-70.718c3.687-1.882,6.211-5.706,6.196-10.127l-0.007-2.833
			C180.766,282.093,175.673,277.027,169.406,277.044z"/>
		<path fill="#FFFFFF" d="M146.049,144.741c0,0-3.104,16.396,9.506,19.515c12.616,3.117,23.949-1.326,25.187-10.152l-0.031-11.345
			c0,0,18.293,5.624,20.821,8.138l8.759,117.06l-91.122-0.28l6.734-114.057C125.903,153.619,142.901,144.75,146.049,144.741z"/>
		<path fill="#4A443B" d="M103.108,488.852c0,0-4.029,0.803-4.279,2.673c-0.255,1.872,0.363,4.342,0.363,4.342l52.929-3.33
			l-0.51-4.983L103.108,488.852z"/>
		<path fill="#8F9293" d="M132.927,68.595l0.065,24.786l-5.197,0.013l-0.303-24.339C127.492,69.055,131.258,63.239,132.927,68.595z"
			/>
		<path fill="#8F9293" d="M195.327,68.428l0.065,24.789l-5.201,0.012l-0.299-24.337C189.893,68.892,193.659,63.072,195.327,68.428z"
			/>
		
			<linearGradient id="SVGID_7_" gradientUnits="userSpaceOnUse" x1="-247.6147" y1="814.1895" x2="-177.3374" y2="814.1895" gradientTransform="matrix(1 -0.0026 -0.0026 -1 375.7853 904.7006)">
			<stop  offset="0.0032" style="stop-color:#D39C44"/>
			<stop  offset="0.1401" style="stop-color:#D9A550"/>
			<stop  offset="0.5004" style="stop-color:#EABA6D"/>
			<stop  offset="0.7957" style="stop-color:#F5C87F"/>
			<stop  offset="0.9875" style="stop-color:#F9CD85"/>
		</linearGradient>
		<path fill="url(#SVGID_7_)" d="M196.319,86.304c-0.007-3.029-1.908-5.64-4.671-6.92c-0.346-6.766-0.719-13.53-1.072-20.286
			c0,0-5.712-14.744-28.877-15.089c-19.463-0.292-27.207,12.108-29.189,16.084c0.015,0.767,0.022,1.528,0.02,2.293l-0.565-1.083
			l0.563,1.241c-0.006,2.068-0.087,4.134-0.309,6.195c0.076,0.605,0.141,1.191,0.153,1.696c0.065,3.202,0.13,6.41,0.209,9.618
			c-3.756,0.823-6.544,3.906-6.535,7.589c0.01,3.842,3.059,7.02,7.062,7.644c0.059,1.276,0.123,2.553,0.193,3.829l0.241,22.391
			l0.284-0.702c0.125,1.011,0.333,1.987,0.688,2.916c2.505,6.552,10.353,9.945,17.229,12.222c6.688,2.217,12.508,2.715,19.554,1.599
			c12.974-2.058,21.863-7.384,21.691-20.766c-0.099-7.94-0.361-15.891-0.697-23.838C194.713,91.559,196.327,89.104,196.319,86.304z"
			/>
		<path fill="#352215" d="M160.707,40.263c0,0,2.151,18.896-1.521,21.005c-3.672,2.11-23.374,2.515-27.558,8.475
			c-4.191,5.959-14.437,4.938-15.259-8.71c0,0,8.418,5.578,11.031,0.32C130.016,56.094,125.752,33.356,160.707,40.263z"/>
		<path fill="#352215" d="M161.757,40.26c0,0-0.997,19.956,2.687,22.043c3.684,2.091,22.012,0.294,26.228,6.231
			c4.222,5.94,14.462,4.863,15.214-8.791c0,0-8.392,5.624-11.029,0.382C192.21,54.88,196.676,33.167,161.757,40.26z"/>
		<path fill="#4A443B" d="M227.896,475.619c0,0,7.882,12.03,5.578,15.845l-4.729,0.079l-3.602-17.909L227.896,475.619z"/>
		<path fill="#4A443B" d="M116.053,475.35c0,0-7.645,12.176-5.271,15.948l4.725-0.011l3.262-17.971L116.053,475.35z"/>
		<g>
			<g>
				<path fill="#FDFEFF" d="M147.393,105.734c1.744,2.332,2.255,5.186,1.14,6.386l-11.064,12.017
					c-1.108,1.219-3.425,0.309-5.172-2.035l-24.662-33.278c-1.768-2.402-2.297-5.319-1.183-6.518l11.12-11.847
					c1.119-1.179,3.458-0.197,5.218,2.188L147.393,105.734z"/>
				<g>
					<path fill="#8E8E8E" d="M124.683,87.326c-0.117,1.999,1.271,3.937,3.089,3.813c0.419,1.085,0.793,2.178,0.798,3.287
						c0.003,0.538-0.23,0.879-0.619,0.979c-0.72,0.182-1.208,0.626-1.422,1.499c-0.139,0.581-0.538,0.788-1.091,0.638
						c-1.787-0.485-3.347-1.646-4.575-3.66c-1.02-1.67-1.026-3.941,0.621-4.303c0.44-0.1,0.666-0.417,0.802-0.909
						c0.259-0.938,0.802-1.473,1.688-1.461C124.186,87.21,124.415,87.278,124.683,87.326z"/>
					<path fill="#8E8E8E" d="M121.55,88.762c-0.885-1.062-1.077-2.611-0.446-3.439C122.037,86.245,122.282,88.039,121.55,88.762z"/>
				</g>
			</g>
		</g>
		
			<linearGradient id="SVGID_8_" gradientUnits="userSpaceOnUse" x1="-437.2764" y1="834.5879" x2="-366.7494" y2="834.5879" gradientTransform="matrix(0.9955 0.0948 0.0948 -0.9955 422.3898 1002.637)">
			<stop  offset="0.0032" style="stop-color:#D39C44"/>
			<stop  offset="0.1401" style="stop-color:#D9A550"/>
			<stop  offset="0.5004" style="stop-color:#EABA6D"/>
			<stop  offset="0.7957" style="stop-color:#F5C87F"/>
			<stop  offset="0.9875" style="stop-color:#F9CD85"/>
		</linearGradient>
		<path fill="url(#SVGID_8_)" d="M136.49,100.352l-4.111-3.139c-3.717-2.838-9.762-1.173-13.496,3.719l-3.761,4.923
			c-1.647,2.156-2.563,4.575-2.762,6.852l-36.335,42.576c0,0-5.735,7.052-1.703,11.234c4.033,4.181,50.349,9.854,50.349,9.854
			s5.584-12.13,1.79-18.823l-28.114-3.941l24.941-29.354c0.151,0.151,0.309,0.298,0.457,0.45c0.107-0.116,0.216-0.23,0.317-0.344
			c2.72-0.189,5.629-1.664,7.896-4.198c0.016,0,0.03,0.003,0.045,0.003c-0.008-0.01-0.018-0.015-0.027-0.026
			c0.246-0.272,0.485-0.56,0.712-0.865l3.759-4.919C140.189,109.458,140.206,103.19,136.49,100.352z"/>
		
			<linearGradient id="SVGID_9_" gradientUnits="userSpaceOnUse" x1="-190.4365" y1="683.8262" x2="-109.5331" y2="683.8262" gradientTransform="matrix(1 -0.0026 -0.0026 -1 375.7853 904.7006)">
			<stop  offset="0.0032" style="stop-color:#D39C44"/>
			<stop  offset="0.1401" style="stop-color:#D9A550"/>
			<stop  offset="0.5004" style="stop-color:#EABA6D"/>
			<stop  offset="0.7957" style="stop-color:#F5C87F"/>
			<stop  offset="0.9875" style="stop-color:#F9CD85"/>
		</linearGradient>
		<path fill="url(#SVGID_9_)" d="M219.029,271.268c6.927-11.048,22.613-56.599,21.002-62.528
			c-1.793-6.613-38.704-57.843-38.704-57.843c-7.571,13.932,0.567,27.688,0.567,27.688l19.646,31.146l-17.567,54.844
			c-0.586-0.187-1.175-0.367-1.763-0.559c-2.069,1.449-3.825,3.797-4.764,6.724l-1.896,5.895
			c-1.884,5.861,0.197,11.774,4.648,13.205l4.925,1.582c4.45,1.433,9.588-2.159,11.472-8.022l1.896-5.899
			c0.114-0.354,0.214-0.715,0.299-1.071c0.015,0,0.027,0,0.041,0.003c-0.013-0.011-0.021-0.021-0.03-0.032
			C219.225,274.619,219.278,272.873,219.029,271.268z"/>
	</g>
	<g display="inline">
		<path fill="#F3AB1D" d="M48.222,229.85c1.978,0.565,3.711,1.484,5.196,2.756c1.484,1.272,2.685,2.793,3.605,4.561
			c0.917,2.051,1.378,4.1,1.378,6.148c0,1.908-0.371,3.711-1.113,5.407c-0.742,1.696-1.749,3.181-3.022,4.453
			c-1.272,1.272-2.757,2.281-4.453,3.023c-1.695,0.741-3.5,1.112-5.408,1.112h-6.892v6.467h-5.089v-6.467H25.32v-0.106
			c-1.908,0-3.709-0.354-5.407-1.062c-1.697-0.705-3.181-1.695-4.454-2.969c-1.271-1.271-2.262-2.757-2.969-4.453
			c-0.707-1.695-1.059-3.498-1.059-5.406h5.089c0,2.477,0.865,4.559,2.597,6.256c1.732,1.695,3.798,2.544,6.203,2.544v0.105h7.104
			h5.089h6.892c2.474,0,4.559-0.864,6.256-2.597c1.696-1.73,2.546-3.833,2.546-6.311c0-2.049-0.62-3.851-1.857-5.406
			c-1.237-1.555-2.774-2.614-4.612-3.182l-0.53-0.105l-1.802-0.424l-21.311-4.984c-0.356-0.068-0.655-0.141-0.903-0.212
			c-0.249-0.071-0.548-0.14-0.901-0.212c-3.888-1.202-6.717-3.641-8.483-7.316c-0.919-1.979-1.377-3.992-1.377-6.043
			c0-1.908,0.352-3.711,1.059-5.408c0.707-1.696,1.698-3.181,2.969-4.453c1.272-1.271,2.757-2.277,4.454-3.021
			c1.698-0.742,3.499-1.113,5.407-1.113h7.104v-6.468h5.089v6.468h6.892c1.908,0,3.712,0.371,5.408,1.113
			c1.696,0.744,3.181,1.75,4.453,3.021c1.273,1.272,2.28,2.757,3.022,4.453c0.742,1.696,1.113,3.5,1.113,5.408h-5.089h-0.105
			c0-1.201-0.232-2.349-0.69-3.445c-0.461-1.095-1.08-2.051-1.855-2.861c-0.778-0.813-1.697-1.449-2.757-1.909
			c-1.061-0.461-2.227-0.69-3.499-0.69h-6.892h-5.089h-7.104c-1.202,0-2.35,0.229-3.446,0.69c-1.097,0.459-2.034,1.097-2.81,1.909
			c-0.777,0.813-1.396,1.748-1.855,2.809s-0.688,2.228-0.688,3.499c0,1.979,0.563,3.73,1.695,5.249
			c1.13,1.521,2.58,2.563,4.347,3.129l1.485,0.317l1.272,0.317l21.737,5.195C47.409,229.637,47.798,229.709,48.222,229.85z"/>
	</g>
	<g display="inline">
		<path fill="#F3AB1D" d="M308.412,263.984c1.387,0.396,2.6,1.041,3.639,1.934c1.04,0.889,1.882,1.954,2.524,3.191
			c0.644,1.438,0.966,2.873,0.966,4.306c0,1.338-0.259,2.599-0.779,3.787c-0.52,1.19-1.227,2.229-2.115,3.121
			c-0.892,0.892-1.932,1.596-3.119,2.114c-1.188,0.522-2.45,0.78-3.788,0.78h-4.826v4.529h-3.565v-4.529h-4.976v-0.073
			c-1.336,0-2.599-0.246-3.787-0.742c-1.188-0.494-2.228-1.188-3.119-2.079c-0.89-0.892-1.584-1.931-2.079-3.121
			c-0.496-1.188-0.742-2.449-0.742-3.787h3.565c0,1.733,0.604,3.194,1.818,4.383s2.659,1.783,4.344,1.783v0.073h4.976h3.565h4.826
			c1.732,0,3.192-0.606,4.383-1.818c1.188-1.213,1.782-2.688,1.782-4.421c0-1.433-0.437-2.694-1.301-3.784
			c-0.865-1.09-1.943-1.833-3.23-2.229l-0.371-0.076l-1.263-0.297l-14.927-3.487c-0.248-0.049-0.457-0.101-0.631-0.149
			s-0.385-0.098-0.632-0.148c-2.722-0.84-4.704-2.546-5.939-5.122c-0.646-1.386-0.966-2.794-0.966-4.233
			c0-1.337,0.245-2.599,0.741-3.789c0.495-1.186,1.189-2.228,2.079-3.119c0.893-0.892,1.93-1.596,3.119-2.114
			c1.188-0.521,2.451-0.78,3.787-0.78h4.976v-4.529h3.565v4.529h4.826c1.338,0,2.601,0.26,3.788,0.78
			c1.188,0.52,2.229,1.224,3.12,2.114c0.889,0.893,1.596,1.935,2.114,3.119c0.521,1.19,0.779,2.452,0.779,3.789h-3.563h-0.073
			c0-0.843-0.162-1.646-0.484-2.414c-0.322-0.767-0.754-1.436-1.298-2.004c-0.545-0.57-1.189-1.014-1.932-1.337
			s-1.561-0.483-2.451-0.483h-4.826h-3.565h-4.976c-0.841,0-1.646,0.16-2.412,0.483c-0.77,0.323-1.425,0.767-1.97,1.337
			c-0.543,0.568-0.979,1.225-1.3,1.967c-0.321,0.744-0.48,1.561-0.48,2.451c0,1.385,0.395,2.613,1.186,3.676
			c0.793,1.066,1.81,1.795,3.046,2.191l1.04,0.221l0.892,0.224l15.224,3.64C307.843,263.838,308.114,263.891,308.412,263.984z"/>
	</g>
	<g display="inline">
		<path fill="#F3AB1D" d="M64.356,452.173c0.865,0.247,1.623,0.649,2.273,1.207s1.177,1.221,1.58,1.995
			c0.401,0.896,0.602,1.795,0.602,2.691c0,0.835-0.162,1.626-0.488,2.364c-0.324,0.745-0.764,1.396-1.321,1.952
			c-0.558,0.559-1.207,0.998-1.949,1.321c-0.743,0.326-1.532,0.489-2.368,0.489h-3.017v2.831H57.44v-2.831h-3.109v-0.046
			c-0.836,0-1.626-0.155-2.368-0.466c-0.743-0.31-1.393-0.741-1.949-1.3c-0.557-0.557-0.99-1.207-1.298-1.952
			c-0.311-0.738-0.465-1.529-0.465-2.364h2.227c0,1.085,0.379,1.998,1.137,2.737c0.76,0.742,1.664,1.114,2.717,1.114v0.046h3.109
			h2.228h3.017c1.083,0,1.996-0.377,2.738-1.136c0.745-0.759,1.115-1.678,1.115-2.763c0-0.896-0.272-1.687-0.812-2.365
			c-0.542-0.684-1.215-1.146-2.02-1.396l-0.231-0.046l-0.79-0.186l-9.33-2.184c-0.155-0.026-0.285-0.06-0.393-0.09
			c-0.11-0.033-0.241-0.063-0.396-0.096c-1.702-0.524-2.94-1.593-3.713-3.202c-0.403-0.864-0.603-1.745-0.603-2.646
			c0-0.835,0.154-1.623,0.465-2.368c0.309-0.742,0.741-1.393,1.298-1.949c0.556-0.555,1.206-0.995,1.949-1.321
			c0.742-0.326,1.532-0.485,2.368-0.485h3.109v-2.833h2.228v2.833h3.017c0.836,0,1.625,0.159,2.368,0.485
			c0.742,0.326,1.392,0.768,1.949,1.321c0.557,0.558,0.998,1.207,1.321,1.949c0.326,0.745,0.488,1.533,0.488,2.368h-2.228h-0.046
			c0-0.524-0.101-1.027-0.302-1.506c-0.201-0.481-0.472-0.9-0.813-1.257c-0.34-0.354-0.742-0.631-1.206-0.835
			c-0.465-0.201-0.975-0.302-1.532-0.302h-3.017H57.44h-3.109c-0.526,0-1.03,0.101-1.509,0.302c-0.48,0.204-0.891,0.481-1.231,0.835
			c-0.339,0.355-0.61,0.768-0.811,1.231c-0.203,0.462-0.303,0.976-0.303,1.53c0,0.866,0.248,1.634,0.743,2.298
			c0.495,0.668,1.131,1.122,1.903,1.37l0.65,0.139l0.559,0.139l9.514,2.275C63.999,452.08,64.169,452.112,64.356,452.173z"/>
	</g>
	<g display="inline">
		<path fill="#F3AB1D" d="M310.146,146.179c0.865,0.248,1.622,0.65,2.273,1.207c0.649,0.556,1.176,1.222,1.578,1.996
			c0.401,0.897,0.603,1.796,0.603,2.69c0,0.836-0.161,1.626-0.486,2.367c-0.323,0.744-0.766,1.394-1.321,1.949
			c-0.559,0.56-1.208,0.999-1.95,1.324s-1.532,0.487-2.367,0.487h-3.018v2.833h-2.228V158.2h-3.109v-0.046
			c-0.834,0-1.624-0.155-2.366-0.463c-0.744-0.311-1.394-0.742-1.951-1.301c-0.556-0.557-0.989-1.207-1.298-1.949
			c-0.312-0.742-0.465-1.532-0.465-2.368h2.228c0,1.084,0.378,1.998,1.138,2.739c0.759,0.742,1.664,1.115,2.716,1.115v0.047h3.108
			h2.229h3.018c1.082,0,1.995-0.379,2.738-1.139c0.743-0.759,1.114-1.679,1.114-2.764c0-0.896-0.271-1.684-0.813-2.365
			s-1.215-1.145-2.019-1.395l-0.232-0.045l-0.789-0.186l-9.329-2.182c-0.154-0.028-0.286-0.063-0.395-0.092
			c-0.108-0.031-0.24-0.062-0.396-0.093c-1.7-0.526-2.938-1.595-3.714-3.202c-0.401-0.867-0.602-1.748-0.602-2.647
			c0-0.836,0.153-1.625,0.465-2.367c0.31-0.742,0.742-1.394,1.298-1.949c0.559-0.557,1.207-0.997,1.951-1.323
			c0.742-0.324,1.532-0.487,2.366-0.487h3.108v-2.83h2.229v2.83h3.018c0.835,0,1.625,0.163,2.367,0.487
			c0.742,0.326,1.393,0.767,1.95,1.323c0.557,0.556,0.998,1.207,1.321,1.949c0.325,0.742,0.486,1.531,0.486,2.367h-2.227h-0.047
			c0-0.524-0.102-1.026-0.302-1.507c-0.201-0.48-0.473-0.897-0.813-1.254c-0.341-0.355-0.743-0.633-1.207-0.836
			c-0.464-0.201-0.975-0.302-1.531-0.302h-3.018h-2.229h-3.108c-0.525,0-1.029,0.101-1.509,0.302c-0.479,0.203-0.89,0.48-1.23,0.836
			c-0.34,0.356-0.611,0.768-0.812,1.23c-0.201,0.463-0.303,0.975-0.303,1.53c0,0.868,0.248,1.633,0.742,2.297
			c0.495,0.667,1.13,1.122,1.903,1.369l0.648,0.14l0.559,0.141l9.515,2.275C309.791,146.088,309.961,146.119,310.146,146.179z"/>
	</g>
	<g display="inline">
		<path fill="#F3AB1D" d="M48.531,70.168c0.866,0.248,1.623,0.65,2.274,1.207c0.65,0.556,1.176,1.222,1.579,1.996
			c0.401,0.897,0.604,1.796,0.604,2.69c0,0.836-0.163,1.625-0.488,2.368c-0.323,0.744-0.765,1.395-1.321,1.95
			c-0.559,0.559-1.208,0.999-1.951,1.324c-0.742,0.325-1.532,0.487-2.367,0.487h-3.018v2.833h-2.228V82.19h-3.109v-0.046
			c-0.836,0-1.625-0.155-2.367-0.463c-0.744-0.31-1.394-0.742-1.951-1.301c-0.556-0.556-0.99-1.206-1.298-1.95
			c-0.31-0.742-0.465-1.532-0.465-2.368h2.228c0,1.084,0.378,1.998,1.136,2.74c0.759,0.742,1.664,1.115,2.716,1.115v0.046h3.109
			h2.228h3.018c1.082,0,1.994-0.378,2.738-1.138c0.744-0.758,1.115-1.679,1.115-2.763c0-0.895-0.272-1.683-0.813-2.366
			c-0.542-0.681-1.215-1.146-2.019-1.394l-0.231-0.046l-0.79-0.185l-9.329-2.182c-0.155-0.028-0.287-0.063-0.395-0.092
			c-0.109-0.031-0.241-0.061-0.396-0.092c-1.701-0.526-2.939-1.595-3.712-3.204c-0.404-0.866-0.604-1.746-0.604-2.646
			c0-0.836,0.155-1.625,0.465-2.367c0.309-0.742,0.742-1.395,1.298-1.949c0.557-0.558,1.207-0.997,1.951-1.324
			c0.742-0.323,1.531-0.486,2.367-0.486h3.109v-2.831h2.228v2.831h3.018c0.835,0,1.625,0.163,2.367,0.486
			c0.742,0.328,1.392,0.767,1.951,1.324c0.556,0.556,0.998,1.207,1.321,1.949c0.325,0.742,0.488,1.531,0.488,2.367h-2.228h-0.046
			c0-0.525-0.101-1.026-0.302-1.507c-0.201-0.48-0.472-0.897-0.813-1.253c-0.341-0.355-0.744-0.634-1.206-0.836
			c-0.465-0.202-0.976-0.302-1.532-0.302h-3.018h-2.228h-3.109c-0.526,0-1.029,0.101-1.509,0.302
			c-0.479,0.202-0.889,0.479-1.23,0.836c-0.34,0.356-0.612,0.768-0.812,1.23c-0.201,0.464-0.302,0.975-0.302,1.531
			c0,0.867,0.248,1.633,0.742,2.297c0.495,0.667,1.129,1.122,1.902,1.369l0.651,0.14l0.558,0.14l9.514,2.275
			C48.174,70.077,48.343,70.108,48.531,70.168z"/>
	</g>
	<polygon display="inline" fill="#78297B" points="225.695,131.98 258.58,98.235 278.482,110.348 301.848,80.927 296.655,78.331 
		309.636,74.003 307.906,86.982 305.31,83.521 281.079,118.136 259.446,106.886 230.887,137.176 	"/>
	<polygon display="inline" fill="#78297B" points="161.326,167.675 156.67,158.359 172.389,158.359 167.73,168.838 177.045,214.251 
		165.403,233.463 155.505,215.416 	"/>
</g>
<g>
	<g>
		<path fill="#D2D8D7" d="M75.853,95.088c1.073,0,2.076,0.205,3.01,0.612c0.932,0.407,1.75,0.963,2.449,1.663
			c0.701,0.699,1.254,1.515,1.663,2.449c0.407,0.932,0.612,1.936,0.612,3.008v14.345h-1.679v-9.343h-4.515v-1.678h4.515v-3.324
			c0-0.84-0.159-1.625-0.473-2.363c-0.315-0.734-0.746-1.376-1.295-1.923c-0.548-0.548-1.189-0.981-1.923-1.295
			c-0.737-0.314-1.522-0.473-2.363-0.473c-0.84,0-1.625,0.159-2.361,0.473c-0.735,0.314-1.376,0.748-1.924,1.295
			c-0.548,0.547-0.979,1.189-1.294,1.923c-0.316,0.737-0.473,1.523-0.473,2.363h-1.678c0-1.073,0.202-2.077,0.611-3.008
			c0.407-0.934,0.961-1.75,1.663-2.449c0.698-0.7,1.515-1.256,2.448-1.663C73.778,95.293,74.78,95.088,75.853,95.088z"/>
		<path fill="#D2D8D7" d="M82.606,92.326h-0.245h-0.176h-0.069c-0.117,0-0.268-0.025-0.456-0.07c-0.023,0-0.105-0.024-0.244-0.073
			c-0.63-0.208-1.149-0.581-1.559-1.12c-0.406-0.533-0.611-1.152-0.611-1.854v-1.468h1.679v1.468c0,0.397,0.128,0.725,0.385,0.98
			c0.257,0.258,0.574,0.409,0.945,0.455h0.35h5.179v1.683H82.606z"/>
		<path fill="#D2D8D7" d="M87.785,101.421l0.944-1.889l0.104-0.21c0.631-1.259,1.558-2.279,2.782-3.061
			c1.225-0.782,2.595-1.172,4.112-1.172c1.072,0,2.074,0.205,3.007,0.612c0.935,0.407,1.75,0.963,2.45,1.663
			c0.701,0.699,1.253,1.515,1.663,2.449c0.407,0.932,0.612,1.936,0.612,3.008v14.345h-1.681v-14.345c0-0.84-0.156-1.625-0.472-2.363
			c-0.315-0.734-0.747-1.376-1.294-1.923c-0.549-0.548-1.189-0.981-1.924-1.295c-0.734-0.314-1.522-0.473-2.361-0.473
			c-1.26,0-2.38,0.333-3.36,0.998c-0.979,0.666-1.703,1.535-2.17,2.608l-0.733,1.469l0.21,1.397v13.927h-1.679v-14.345
			L87.785,101.421z"/>
		<path fill="#D2D8D7" d="M109.337,102.051c0.443-0.442,0.735-1.002,0.875-1.679v-1.367c0-0.115-0.012-0.208-0.034-0.281
			c0-0.23-0.059-0.533-0.176-0.907c-0.116-0.375-0.268-0.723-0.456-1.051h-3.988v-1.678h0.77h1.889h0.036h1.294h0.735
			c0.326,0.351,0.618,0.742,0.875,1.172c0.257,0.431,0.443,0.892,0.561,1.382v0.036l0.034,0.069v0.07
			c0.093,0.349,0.141,0.749,0.141,1.188v1.367c-0.072,0.537-0.229,1.054-0.473,1.556c-0.244,0.501-0.565,0.951-0.962,1.346
			l-0.069,0.07c-0.025,0-0.034,0.014-0.034,0.036c-0.607,0.652-0.912,1.435-0.912,2.345v6.334c0,0.465,0.087,0.908,0.263,1.328
			c0.176,0.418,0.421,0.787,0.735,1.103c0.316,0.313,0.684,0.565,1.102,0.752c0.42,0.186,0.875,0.279,1.365,0.279
			c0.49,0,0.944-0.093,1.364-0.279c0.42-0.188,0.787-0.439,1.103-0.752c0.314-0.316,0.56-0.684,0.734-1.103
			c0.175-0.42,0.263-0.863,0.263-1.328V95.088h1.644v16.971c0,1.396-0.501,2.601-1.504,3.601c-0.466,0.49-1.014,0.864-1.644,1.121
			s-1.282,0.385-1.959,0.385s-1.33-0.128-1.959-0.385c-0.631-0.257-1.179-0.631-1.645-1.121c-1.004-1-1.504-2.205-1.504-3.601
			v-6.334c0-0.677,0.127-1.331,0.385-1.961c0.256-0.63,0.628-1.176,1.119-1.642c0-0.024,0.005-0.039,0.018-0.039
			C109.332,102.084,109.337,102.075,109.337,102.051z"/>
		<path fill="#D2D8D7" d="M129.946,95.088c1.074,0,2.076,0.205,3.009,0.612c0.934,0.407,1.75,0.963,2.45,1.663
			c0.701,0.699,1.254,1.515,1.663,2.449c0.407,0.932,0.611,1.936,0.611,3.008v6.614c0,1.073-0.204,2.077-0.611,3.007
			c-0.409,0.934-0.962,1.75-1.663,2.451c-0.7,0.699-1.516,1.252-2.45,1.66c-0.933,0.41-1.935,0.613-3.009,0.613
			c-1.073,0-2.077-0.203-3.009-0.613c-0.932-0.408-1.749-0.961-2.449-1.66c-0.701-0.701-1.254-1.517-1.663-2.451
			c-0.408-0.93-0.613-1.934-0.613-3.007v-1.612v-1.678h4.9v1.678h-3.219v1.612c0,0.839,0.156,1.627,0.472,2.36
			c0.314,0.737,0.746,1.377,1.294,1.926c0.547,0.548,1.189,0.979,1.924,1.292c0.735,0.316,1.522,0.472,2.361,0.472
			c0.84,0,1.626-0.156,2.362-0.472c0.735-0.313,1.376-0.745,1.924-1.292c0.548-0.549,0.98-1.188,1.294-1.926
			c0.316-0.733,0.474-1.521,0.474-2.36v-6.614c0-0.84-0.158-1.625-0.474-2.363c-0.314-0.734-0.746-1.376-1.294-1.923
			c-0.548-0.548-1.189-0.981-1.924-1.295s-1.521-0.473-2.362-0.473c-0.839,0-1.626,0.159-2.361,0.473s-1.377,0.748-1.924,1.295
			c-0.548,0.547-0.98,1.189-1.294,1.923c-0.316,0.737-0.472,1.523-0.472,2.363h-1.681c0-1.073,0.205-2.077,0.613-3.008
			c0.408-0.934,0.962-1.75,1.663-2.449c0.7-0.7,1.517-1.256,2.449-1.663C127.869,95.293,128.873,95.088,129.946,95.088z"/>
		<path fill="#D2D8D7" d="M157.344,110.692c0,1.168-0.247,2.246-0.736,3.238c-0.489,0.993-1.144,1.835-1.96,2.537
			c0,0.023-0.011,0.034-0.034,0.034l-0.036,0.034c-0.141,0.118-0.285,0.228-0.437,0.333c-0.152,0.106-0.297,0.206-0.437,0.298
			l-0.56-1.993l-3.534-12.945l-3.535,12.945l-0.561,1.993c-0.138-0.093-0.284-0.192-0.436-0.298
			c-0.15-0.105-0.297-0.214-0.438-0.333l-0.069-0.034c0-0.023-0.013-0.034-0.036-0.034c-0.815-0.702-1.462-1.551-1.941-2.553
			c-0.478-1.003-0.718-2.078-0.718-3.221v-0.034v-0.802V95.088h1.68v14.768v0.802v0.034c0,1.261,0.361,2.39,1.084,3.395
			l3.674-13.541h2.553l3.709,13.541c0.723-1.004,1.084-2.134,1.084-3.395v-0.034v-0.802V95.088h1.681v14.768v0.802V110.692z"/>
		<path fill="#D2D8D7" d="M165.564,97.064c-0.467,0.199-0.875,0.475-1.224,0.822c-0.351,0.349-0.626,0.759-0.824,1.224
			c-0.196,0.468-0.295,0.958-0.295,1.472c0,0.839,0.239,1.585,0.716,2.239c0.477,0.654,1.09,1.119,1.838,1.398
			c1.795,0.538,3.188,0.946,4.181,1.227c0.992,0.279,1.727,0.489,2.204,0.628c0.479,0.14,0.775,0.23,0.893,0.264
			c0.116,0.034,0.196,0.064,0.244,0.086c1.236,0.397,2.192,1.156,2.87,2.276c0.559,0.838,0.838,1.818,0.838,2.939
			c0,0.769-0.144,1.484-0.436,2.151c-0.292,0.664-0.684,1.248-1.172,1.75c-0.49,0.499-1.068,0.897-1.732,1.188
			c-0.666,0.293-1.38,0.437-2.152,0.437h-2.204c-1.073,0-2.083-0.203-3.027-0.613c-0.943-0.408-1.766-0.961-2.465-1.66
			c-0.701-0.701-1.254-1.517-1.663-2.451c-0.41-0.93-0.611-1.934-0.611-3.007h1.714c0,0.839,0.156,1.627,0.471,2.36
			c0.316,0.737,0.746,1.377,1.295,1.926c0.547,0.548,1.191,0.979,1.924,1.292c0.735,0.316,1.524,0.472,2.362,0.472h2.204
			c0.513,0,1.004-0.103,1.469-0.312c0.467-0.211,0.875-0.491,1.225-0.842c0.35-0.348,0.625-0.751,0.823-1.208
			c0.198-0.453,0.297-0.95,0.297-1.484c0-0.865-0.25-1.627-0.752-2.292c-0.502-0.665-1.138-1.126-1.906-1.383
			c-1.773-0.514-3.149-0.91-4.13-1.188c-0.979-0.282-1.702-0.49-2.168-0.631c-0.468-0.14-0.758-0.227-0.876-0.262
			c-0.117-0.034-0.197-0.065-0.244-0.089c-0.609-0.185-1.15-0.471-1.628-0.857c-0.477-0.384-0.88-0.842-1.206-1.38
			c-0.585-0.909-0.875-1.89-0.875-2.939c0-0.769,0.145-1.493,0.437-2.169c0.292-0.677,0.688-1.259,1.189-1.75
			c0.501-0.491,1.084-0.881,1.749-1.172c0.667-0.292,1.385-0.437,2.155-0.437h2.238h0.036c1.071,0,2.075,0.205,3.008,0.612
			c0.933,0.407,1.75,0.963,2.45,1.663c0.699,0.699,1.252,1.515,1.662,2.449c0.407,0.932,0.611,1.936,0.611,3.008h-1.679
			c0-0.84-0.156-1.625-0.471-2.363c-0.317-0.734-0.754-1.376-1.313-1.923c-0.56-0.548-1.206-0.981-1.941-1.295
			s-1.522-0.473-2.363-0.473h-2.238C166.532,96.767,166.031,96.867,165.564,97.064z"/>
		<path fill="#D2D8D7" d="M184.563,115.485v1.681h-1.608h-1.611h-0.067V95.088h1.679v20.396H184.563z"/>
		<path fill="#D2D8D7" d="M195.796,95.088c1.073,0,2.075,0.205,3.009,0.612c0.933,0.407,1.75,0.963,2.45,1.663
			c0.699,0.699,1.254,1.515,1.661,2.449c0.408,0.932,0.611,1.936,0.611,3.008v14.345h-1.678v-14.345c0-0.84-0.158-1.625-0.475-2.363
			c-0.313-0.734-0.745-1.376-1.294-1.923c-0.548-0.548-1.188-0.981-1.924-1.295c-0.734-0.314-1.523-0.473-2.361-0.473
			c-0.842,0-1.629,0.159-2.363,0.473c-0.736,0.314-1.376,0.748-1.924,1.295c-0.549,0.547-0.978,1.189-1.295,1.923
			c-0.314,0.737-0.471,1.523-0.471,2.363v14.345h-1.679v-14.345v-7.732h1.679v2.939c0.723-0.886,1.603-1.597,2.642-2.135
			C193.421,95.356,194.559,95.088,195.796,95.088z"/>
		<path fill="#D2D8D7" d="M223.192,110.692c0,1.168-0.245,2.246-0.734,3.238c-0.49,0.993-1.144,1.835-1.96,2.537
			c0,0.023-0.015,0.034-0.034,0.034l-0.036,0.034c-0.141,0.118-0.286,0.228-0.438,0.333c-0.151,0.106-0.296,0.206-0.437,0.298
			l-0.561-1.993l-3.534-12.945l-3.533,12.945l-0.56,1.993c-0.142-0.093-0.286-0.192-0.437-0.298
			c-0.154-0.105-0.298-0.214-0.438-0.333l-0.07-0.034c0-0.023-0.013-0.034-0.034-0.034c-0.816-0.702-1.465-1.551-1.943-2.553
			c-0.477-1.003-0.717-2.078-0.717-3.221v-0.034v-0.802V95.088h1.682v14.768v0.802v0.034c0,1.261,0.358,2.39,1.083,3.395
			l3.674-13.541h2.556l3.707,13.541c0.722-1.004,1.084-2.134,1.084-3.395v-0.034v-0.802V95.088h1.681v14.768v0.802V110.692z"/>
		<path fill="#D2D8D7" d="M230.68,115.485v1.681h-1.609h-1.61h-0.068V81.861v-0.804v-0.036c0-0.978-0.211-1.877-0.631-2.693
			c-0.42-0.817-0.979-1.492-1.68-2.029l-3.744,3.745l-3.534-3.535v-2.345V74.13l1.294,1.294l2.24,2.239l2.24-2.239l1.26-1.294
			c0.56,0.303,1.037,0.617,1.435,0.943c0.862,0.725,1.546,1.598,2.047,2.625s0.752,2.136,0.752,3.324v0.036v0.804v33.624H230.68z"/>
		<path fill="#D2D8D7" d="M241.909,95.088c1.071,0,2.076,0.205,3.01,0.612c0.933,0.407,1.751,0.963,2.448,1.663
			c0.701,0.699,1.257,1.515,1.664,2.449c0.406,0.932,0.611,1.936,0.611,3.008v14.345h-1.679v-14.345c0-0.84-0.156-1.625-0.473-2.363
			c-0.313-0.734-0.747-1.376-1.295-1.923c-0.548-0.548-1.188-0.981-1.925-1.295c-0.735-0.314-1.521-0.473-2.362-0.473
			c-0.838,0-1.626,0.159-2.361,0.473c-0.733,0.314-1.376,0.748-1.924,1.295c-0.548,0.547-0.98,1.189-1.293,1.923
			c-0.315,0.737-0.474,1.523-0.474,2.363v14.345h-1.679v-14.345v-7.732h1.679v2.939c0.724-0.886,1.604-1.597,2.641-2.135
			C239.535,95.356,240.673,95.088,241.909,95.088z"/>
		<path fill="#D2D8D7" d="M253.842,90.681v1.68h-6.858v-0.072v-0.875v-0.733v-1.226h-1.712v-1.679h1.712h1.681v1.295v0.384v1.226
			H253.842z"/>
		<path fill="#D2D8D7" d="M268.923,115.485v1.681h-1.61h-1.608h-0.072V95.088h1.681v20.396H268.923z"/>
		<path fill="#D2D8D7" d="M280.154,95.088c1.072,0,2.074,0.205,3.008,0.612c0.933,0.407,1.75,0.963,2.45,1.663
			c0.699,0.699,1.253,1.515,1.66,2.449c0.407,0.932,0.613,1.936,0.613,3.008v14.345h-1.682v-14.345c0-0.84-0.155-1.625-0.47-2.363
			c-0.315-0.734-0.746-1.376-1.295-1.923c-0.548-0.548-1.189-0.981-1.925-1.295c-0.732-0.314-1.521-0.473-2.36-0.473
			c-0.841,0-1.628,0.159-2.364,0.473c-0.734,0.314-1.376,0.748-1.923,1.295c-0.548,0.547-0.98,1.189-1.295,1.923
			c-0.316,0.737-0.471,1.523-0.471,2.363v14.345h-1.682v-14.345v-7.732h1.682v2.939c0.721-0.886,1.601-1.597,2.639-2.135
			C277.778,95.356,278.915,95.088,280.154,95.088z"/>
		<path fill="#D2D8D7" d="M306.185,109.435c0,1.073-0.204,2.077-0.612,3.007c-0.406,0.934-0.96,1.75-1.663,2.451
			c-0.696,0.699-1.515,1.252-2.449,1.66c-0.934,0.41-1.936,0.613-3.007,0.613v-1.681c0.84,0,1.626-0.156,2.362-0.472
			c0.733-0.313,1.374-0.745,1.924-1.292c0.549-0.549,0.979-1.188,1.292-1.926c0.316-0.733,0.475-1.521,0.475-2.36v-6.614
			c0-0.84-0.158-1.625-0.475-2.363c-0.313-0.734-0.743-1.376-1.292-1.923c-0.55-0.548-1.19-0.981-1.924-1.295
			c-0.736-0.314-1.522-0.473-2.362-0.473c-0.842,0-1.627,0.159-2.362,0.473c-0.733,0.314-1.378,0.748-1.926,1.295
			c-0.55,0.547-0.978,1.189-1.292,1.923c-0.317,0.737-0.473,1.523-0.473,2.363h-1.716c0-1.073,0.202-2.077,0.613-3.008
			c0.405-0.934,0.961-1.75,1.66-2.449c0.7-0.7,1.522-1.256,2.469-1.663c0.942-0.407,1.952-0.612,3.026-0.612
			c1.071,0,2.073,0.205,3.007,0.612c0.935,0.407,1.753,0.963,2.449,1.663c0.703,0.699,1.257,1.515,1.663,2.449
			c0.408,0.932,0.612,1.936,0.612,3.008V109.435z"/>
		<path fill="#D2D8D7" d="M323.783,117.166h-1.711v-14.345c0-0.84-0.163-1.625-0.475-2.363c-0.315-0.734-0.746-1.376-1.294-1.923
			c-0.551-0.548-1.191-0.981-1.926-1.295c-0.733-0.314-1.521-0.473-2.361-0.473c-0.839,0-1.628,0.159-2.36,0.473
			c-0.737,0.314-1.376,0.748-1.926,1.295c-0.549,0.547-0.979,1.189-1.296,1.923c-0.314,0.737-0.471,1.523-0.471,2.363h-1.681
			c0-1.073,0.204-2.077,0.614-3.008c0.408-0.934,0.962-1.75,1.659-2.449c0.7-0.7,1.519-1.256,2.45-1.663
			c0.934-0.407,1.936-0.612,3.01-0.612c1.071,0,2.079,0.205,3.026,0.612c0.945,0.407,1.766,0.963,2.465,1.663
			c0.701,0.699,1.255,1.515,1.664,2.449c0.407,0.932,0.611,1.936,0.611,3.008V117.166z"/>
		<path fill="#D2D8D7" d="M57.503,137.074c1.072,0,2.075,0.205,3.008,0.612c0.934,0.41,1.75,0.964,2.45,1.662
			c0.699,0.701,1.253,1.516,1.662,2.451c0.407,0.93,0.611,1.936,0.611,3.009v14.343h-1.677v-14.343c0-0.841-0.157-1.628-0.474-2.363
			c-0.315-0.735-0.746-1.376-1.295-1.925c-0.548-0.547-1.188-0.979-1.924-1.295c-0.734-0.311-1.521-0.469-2.361-0.469
			c-0.841,0-1.629,0.158-2.362,0.469c-0.736,0.316-1.377,0.748-1.925,1.295c-0.548,0.549-0.979,1.19-1.295,1.925
			c-0.314,0.735-0.471,1.522-0.471,2.363v11.02c0.022,0.469,0.191,0.857,0.506,1.174c0.315,0.314,0.706,0.471,1.173,0.471h0.77h0.35
			h1.68c0.209-0.512,0.313-1.051,0.313-1.609h1.68c0,0.7-0.117,1.355-0.35,1.961c-0.094,0.209-0.192,0.42-0.297,0.628
			c-0.105,0.211-0.228,0.408-0.368,0.597c-0.047,0.046-0.07,0.08-0.07,0.103h-2.589h-0.35h-0.77c-0.933,0-1.728-0.326-2.381-0.979
			c-0.652-0.651-0.979-1.445-0.979-2.378v-10.986c0-1.074,0.204-2.08,0.611-3.009c0.41-0.935,0.964-1.75,1.664-2.451
			c0.701-0.698,1.516-1.252,2.449-1.662C55.427,137.278,56.429,137.074,57.503,137.074z"/>
		<path fill="#D2D8D7" d="M84.199,159.151H82.52v-12.176c-0.56,0.562-1.237,0.971-2.029,1.225c-0.047,0.024-0.123,0.054-0.228,0.088
			c-0.105,0.036-0.396,0.121-0.875,0.264c-0.478,0.137-1.202,0.349-2.169,0.628c-0.967,0.279-2.339,0.677-4.111,1.19
			c-0.769,0.257-1.406,0.719-1.905,1.381c-0.502,0.664-0.752,1.429-0.752,2.292c0,0.957,0.326,1.767,0.979,2.431
			c0.651,0.666,1.456,0.998,2.414,0.998h2.449v1.679h-2.449c-0.7,0-1.359-0.132-1.977-0.399c-0.617-0.27-1.16-0.637-1.625-1.104
			c-0.467-0.466-0.836-1.009-1.104-1.629c-0.268-0.616-0.403-1.274-0.403-1.976c0-1.071,0.293-2.053,0.875-2.938
			c0.677-1.118,1.633-1.878,2.868-2.277c0.024-0.02,0.101-0.049,0.228-0.085c0.128-0.036,0.438-0.122,0.927-0.261
			c0.491-0.139,1.23-0.354,2.223-0.648c0.991-0.294,2.372-0.704,4.146-1.241c0.957-0.327,1.68-0.969,2.169-1.924
			c0.047-0.116,0.099-0.328,0.157-0.63c0.059-0.304,0.029-0.666-0.086-1.085c-0.21-0.607-0.503-1.167-0.875-1.682
			c-0.374-0.51-0.811-0.956-1.313-1.328c-0.501-0.374-1.055-0.664-1.662-0.875c-0.606-0.208-1.247-0.313-1.924-0.313
			c-0.84,0-1.628,0.158-2.361,0.469c-0.735,0.316-1.377,0.748-1.925,1.295c-0.548,0.549-0.979,1.19-1.294,1.925
			c-0.315,0.735-0.473,1.522-0.473,2.363h-1.681c0-1.074,0.205-2.08,0.613-3.009c0.41-0.935,0.962-1.75,1.662-2.451
			c0.7-0.698,1.516-1.252,2.451-1.662c0.931-0.408,1.935-0.612,3.008-0.612c0.909,0,1.772,0.147,2.589,0.437
			c0.816,0.292,1.556,0.694,2.222,1.208c0.664,0.515,1.229,1.132,1.697,1.854c0.467,0.724,0.804,1.506,1.015,2.347
			c0.07,0.255,0.122,0.525,0.157,0.804c0.036,0.28,0.052,0.643,0.052,1.085V159.151z"/>
		<path fill="#D2D8D7" d="M91.686,157.473v1.679h-1.609h-1.608h-0.07v-22.078h1.679v20.399H91.686z"/>
		<path fill="#D2D8D7" d="M110.65,152.681c0,1.167-0.246,2.245-0.735,3.235c-0.49,0.99-1.143,1.836-1.96,2.536
			c0,0.025-0.011,0.036-0.034,0.036l-0.035,0.035c-0.141,0.116-0.288,0.229-0.439,0.331c-0.152,0.108-0.296,0.204-0.437,0.297
			l-0.561-1.991l-3.533-12.947l-3.534,12.947l-0.56,1.991c-0.14-0.093-0.285-0.188-0.437-0.297
			c-0.153-0.103-0.298-0.215-0.438-0.331l-0.071-0.035c0-0.023-0.011-0.036-0.034-0.036c-0.817-0.7-1.465-1.552-1.942-2.554
			c-0.479-1.003-0.718-2.075-0.718-3.218v-0.035v-0.806v-14.766h1.68v14.766v0.806v0.035c0,1.258,0.361,2.39,1.084,3.392
			l3.674-13.536h2.553l3.71,13.536c0.722-1.002,1.085-2.134,1.085-3.392v-0.035v-0.806v-14.766h1.679v14.766v0.806V152.681z"/>
		<path fill="#D2D8D7" d="M120.482,137.074c1.073,0,2.075,0.205,3.009,0.612c0.933,0.41,1.75,0.964,2.45,1.662
			c0.7,0.701,1.254,1.516,1.662,2.451c0.408,0.93,0.613,1.936,0.613,3.009v14.343h-1.68v-9.34h-4.515v-1.68h4.515v-3.323
			c0-0.841-0.158-1.628-0.473-2.363c-0.315-0.735-0.746-1.376-1.295-1.925c-0.548-0.547-1.189-0.979-1.923-1.295
			c-0.736-0.311-1.523-0.469-2.362-0.469c-0.84,0-1.627,0.158-2.363,0.469c-0.733,0.316-1.377,0.748-1.923,1.295
			c-0.549,0.549-0.981,1.19-1.295,1.925c-0.314,0.735-0.472,1.522-0.472,2.363h-1.681c0-1.074,0.206-2.08,0.613-3.009
			c0.407-0.935,0.962-1.75,1.662-2.451c0.7-0.698,1.517-1.252,2.45-1.662C118.405,137.278,119.409,137.074,120.482,137.074z"/>
		<path fill="#D2D8D7" d="M134.091,157.473h1.612v1.679h-1.612h-1.608h-0.07v-22.078h1.679V157.473z M139.271,157.473h1.608v1.679
			h-1.608h-1.61h-0.069v-22.078h1.679V157.473z"/>
		<path fill="#D2D8D7" d="M159.145,159.151h-1.679v-12.176c-0.561,0.562-1.238,0.971-2.03,1.225
			c-0.047,0.024-0.123,0.054-0.228,0.088c-0.105,0.036-0.396,0.121-0.874,0.264c-0.479,0.137-1.202,0.349-2.169,0.628
			c-0.97,0.279-2.34,0.677-4.112,1.19c-0.769,0.257-1.405,0.719-1.906,1.381c-0.502,0.664-0.752,1.429-0.752,2.292
			c0,0.957,0.326,1.767,0.979,2.431c0.654,0.666,1.457,0.998,2.414,0.998h2.449v1.679h-2.449c-0.701,0-1.359-0.132-1.977-0.399
			c-0.619-0.27-1.161-0.637-1.627-1.104c-0.466-0.466-0.835-1.009-1.103-1.629c-0.269-0.616-0.401-1.274-0.401-1.976
			c0-1.071,0.291-2.053,0.873-2.938c0.677-1.118,1.633-1.878,2.87-2.277c0.023-0.02,0.099-0.049,0.227-0.085
			c0.128-0.036,0.438-0.122,0.928-0.261c0.49-0.139,1.23-0.354,2.222-0.648c0.992-0.294,2.372-0.704,4.146-1.241
			c0.956-0.327,1.679-0.969,2.17-1.924c0.045-0.116,0.098-0.328,0.157-0.63c0.058-0.304,0.029-0.666-0.087-1.085
			c-0.209-0.607-0.502-1.167-0.875-1.682c-0.373-0.51-0.81-0.956-1.311-1.328c-0.501-0.374-1.056-0.664-1.662-0.875
			c-0.607-0.208-1.249-0.313-1.925-0.313c-0.838,0-1.626,0.158-2.362,0.469c-0.734,0.316-1.377,0.748-1.923,1.295
			c-0.549,0.549-0.98,1.19-1.296,1.925c-0.316,0.735-0.472,1.522-0.472,2.363h-1.678c0-1.074,0.203-2.08,0.611-3.009
			c0.407-0.935,0.962-1.75,1.663-2.451c0.698-0.698,1.515-1.252,2.447-1.662c0.935-0.408,1.938-0.612,3.009-0.612
			c0.911,0,1.773,0.147,2.588,0.437c0.818,0.292,1.558,0.694,2.224,1.208c0.664,0.515,1.229,1.132,1.696,1.854
			c0.466,0.724,0.806,1.506,1.015,2.347c0.069,0.255,0.122,0.525,0.158,0.804c0.034,0.28,0.052,0.643,0.052,1.085V159.151z"/>
		<path fill="#D2D8D7" d="M166.631,157.473v1.679h-1.609h-1.61h-0.069v-22.078h1.679v20.399H166.631z"/>
		<path fill="#D2D8D7" d="M184.231,151.419c0,1.075-0.204,2.078-0.612,3.011c-0.409,0.932-0.963,1.748-1.663,2.447
			c-0.7,0.701-1.516,1.254-2.449,1.666c-0.933,0.404-1.937,0.608-3.01,0.608v-1.679c0.841,0,1.629-0.156,2.363-0.471
			c0.734-0.316,1.376-0.749,1.925-1.296c0.547-0.547,0.979-1.188,1.294-1.925c0.314-0.733,0.472-1.521,0.472-2.362v-6.611
			c0-0.841-0.158-1.628-0.472-2.363c-0.315-0.735-0.747-1.376-1.294-1.925c-0.549-0.547-1.19-0.979-1.925-1.295
			c-0.734-0.311-1.522-0.469-2.363-0.469c-0.838,0-1.626,0.158-2.359,0.469c-0.736,0.316-1.378,0.748-1.925,1.295
			c-0.548,0.549-0.98,1.19-1.293,1.925c-0.316,0.735-0.474,1.522-0.474,2.363h-1.714c0-1.074,0.204-2.08,0.614-3.009
			c0.406-0.935,0.96-1.75,1.66-2.451c0.7-0.698,1.522-1.252,2.466-1.662c0.946-0.408,1.955-0.612,3.026-0.612
			c1.073,0,2.077,0.205,3.01,0.612c0.933,0.41,1.75,0.964,2.449,1.662c0.7,0.701,1.253,1.516,1.663,2.451
			c0.409,0.93,0.612,1.936,0.612,3.009V151.419z"/>
		<path fill="#D2D8D7" d="M178.388,130.252c-0.256,0.256-0.386,0.584-0.386,0.979c0,0.397,0.154,0.746,0.456,1.051l1.818-1.854
			l0.317,0.383l1.364,1.367c0.187-0.189,0.337-0.422,0.455-0.702h1.75c-0.209,0.911-0.664,1.656-1.366,2.237
			c-0.115,0.096-0.237,0.183-0.367,0.266c-0.127,0.083-0.25,0.158-0.366,0.229l-0.281,0.138l-1.54-1.503l-1.503,1.503
			c-0.21,0-0.45-0.084-0.717-0.245c-0.269-0.162-0.53-0.387-0.788-0.663c-0.257-0.281-0.473-0.613-0.648-1
			c-0.176-0.384-0.262-0.787-0.262-1.206c0-0.699,0.205-1.319,0.613-1.854c0.407-0.538,0.926-0.91,1.556-1.123
			c0.141-0.044,0.222-0.068,0.246-0.068c0.186-0.046,0.338-0.068,0.454-0.068h0.071h0.176h0.245h4.547v1.679h-4.547h-0.351
			C178.96,129.844,178.645,129.996,178.388,130.252z"/>
		<path fill="#D2D8D7" d="M196.163,159.151c-1.073,0-2.077-0.198-3.009-0.595c-0.934-0.396-1.75-0.944-2.449-1.643
			c-0.701-0.7-1.253-1.511-1.664-2.432c-0.409-0.923-0.611-1.906-0.611-2.957v-14.452h1.679v14.452c0,0.817,0.157,1.592,0.473,2.328
			c0.314,0.732,0.746,1.368,1.294,1.906c0.547,0.537,1.19,0.963,1.924,1.277c0.736,0.313,1.522,0.474,2.363,0.474
			s1.627-0.161,2.364-0.474c0.732-0.314,1.38-0.74,1.938-1.277c0.563-0.538,0.999-1.174,1.313-1.906
			c0.317-0.736,0.476-1.511,0.476-2.328v-14.452h1.677v14.452c0,1.051-0.204,2.034-0.611,2.957
			c-0.408,0.921-0.961,1.731-1.663,2.432c-0.697,0.698-1.521,1.246-2.466,1.643C198.245,158.953,197.236,159.151,196.163,159.151z"
			/>
		<path fill="#D2D8D7" d="M209.811,144.038c0.439-0.445,0.733-1.004,0.872-1.682v-1.362c0-0.119-0.013-0.211-0.035-0.28
			c0-0.236-0.059-0.538-0.176-0.91c-0.116-0.375-0.268-0.72-0.453-1.048h-3.989v-1.683h0.771h1.89h0.035h1.294h0.734
			c0.325,0.35,0.617,0.742,0.874,1.174c0.256,0.432,0.444,0.893,0.561,1.381v0.037l0.036,0.066v0.073
			c0.092,0.352,0.141,0.745,0.141,1.19v1.362c-0.071,0.538-0.229,1.057-0.476,1.559c-0.242,0.501-0.563,0.95-0.959,1.346
			l-0.074,0.072c-0.02,0-0.034,0.012-0.034,0.034c-0.605,0.654-0.906,1.437-0.906,2.343v6.334c0,0.469,0.085,0.913,0.262,1.331
			c0.174,0.419,0.42,0.787,0.735,1.1c0.313,0.316,0.681,0.566,1.101,0.753c0.42,0.188,0.874,0.283,1.363,0.283
			s0.946-0.095,1.367-0.283c0.419-0.187,0.788-0.437,1.101-0.753c0.314-0.313,0.562-0.681,0.736-1.1
			c0.174-0.418,0.26-0.862,0.26-1.331v-16.97h1.645v16.97c0,1.398-0.501,2.602-1.504,3.604c-0.466,0.491-1.014,0.863-1.645,1.119
			c-0.63,0.258-1.281,0.384-1.96,0.384c-0.677,0-1.327-0.126-1.96-0.384c-0.631-0.256-1.176-0.628-1.642-1.119
			c-1.003-1.003-1.505-2.206-1.505-3.604v-6.334c0-0.676,0.128-1.329,0.384-1.96c0.257-0.628,0.631-1.177,1.121-1.644
			c0-0.022,0.005-0.033,0.018-0.033C209.802,144.073,209.811,144.06,209.811,144.038z"/>
		<path fill="#D2D8D7" d="M222.685,132.666v1.679h-6.857v-0.068V133.4v-0.735v-1.225h-1.716v-1.679h1.716h1.679v1.295v0.384v1.225
			H222.685z"/>
		<path fill="#D2D8D7" d="M236.087,159.151h-1.718v-14.343c0-0.841-0.156-1.628-0.47-2.363c-0.315-0.735-0.748-1.376-1.294-1.925
			c-0.551-0.547-1.191-0.979-1.928-1.295c-0.733-0.311-1.521-0.469-2.36-0.469c-0.841,0-1.626,0.158-2.362,0.469
			c-0.734,0.316-1.377,0.748-1.924,1.295c-0.548,0.549-0.981,1.19-1.294,1.925c-0.316,0.735-0.474,1.522-0.474,2.363h-1.679
			c0-1.074,0.204-2.08,0.61-3.009c0.409-0.935,0.964-1.75,1.666-2.451c0.696-0.698,1.514-1.252,2.447-1.662
			c0.934-0.408,1.936-0.612,3.009-0.612c1.072,0,2.083,0.205,3.026,0.612c0.944,0.41,1.767,0.964,2.467,1.662
			c0.7,0.701,1.253,1.516,1.661,2.451c0.409,0.93,0.615,1.936,0.615,3.009V159.151z"/>
		<path fill="#D2D8D7" d="M256.098,139.054c-0.467,0.197-0.875,0.47-1.225,0.82c-0.349,0.351-0.625,0.758-0.822,1.224
			c-0.199,0.466-0.298,0.957-0.298,1.472c0,0.837,0.239,1.583,0.719,2.238c0.476,0.65,1.089,1.116,1.835,1.396
			c1.798,0.541,3.191,0.946,4.182,1.227c0.993,0.279,1.727,0.491,2.205,0.631c0.479,0.139,0.774,0.227,0.892,0.263
			c0.119,0.035,0.199,0.062,0.247,0.085c1.234,0.399,2.19,1.155,2.865,2.277c0.563,0.839,0.842,1.819,0.842,2.938
			c0,0.769-0.146,1.489-0.438,2.151c-0.291,0.666-0.683,1.247-1.171,1.75c-0.49,0.502-1.069,0.897-1.731,1.189
			c-0.665,0.291-1.384,0.437-2.151,0.437h-2.205c-1.073,0-2.085-0.204-3.025-0.608c-0.946-0.412-1.769-0.965-2.469-1.666
			c-0.7-0.699-1.256-1.516-1.662-2.447c-0.409-0.933-0.612-1.936-0.612-3.011h1.714c0,0.841,0.157,1.629,0.474,2.362
			c0.314,0.736,0.744,1.378,1.295,1.925c0.546,0.547,1.188,0.979,1.923,1.296c0.737,0.314,1.523,0.471,2.363,0.471h2.205
			c0.51,0,0.999-0.104,1.468-0.313c0.467-0.215,0.875-0.491,1.225-0.842c0.35-0.352,0.623-0.752,0.822-1.205
			c0.197-0.457,0.299-0.95,0.299-1.489c0-0.862-0.253-1.628-0.754-2.291c-0.502-0.667-1.138-1.127-1.905-1.382
			c-1.774-0.512-3.149-0.909-4.131-1.191c-0.978-0.278-1.701-0.486-2.169-0.628c-0.467-0.141-0.758-0.226-0.876-0.263
			c-0.116-0.035-0.197-0.066-0.244-0.087c-0.606-0.186-1.147-0.475-1.628-0.858c-0.479-0.384-0.881-0.844-1.207-1.377
			c-0.581-0.916-0.873-1.894-0.873-2.941c0-0.771,0.145-1.492,0.438-2.169c0.291-0.677,0.686-1.262,1.189-1.75
			c0.502-0.492,1.087-0.882,1.749-1.175c0.665-0.29,1.383-0.437,2.151-0.437h2.241h0.034c1.073,0,2.075,0.205,3.009,0.612
			c0.932,0.41,1.752,0.964,2.449,1.662c0.699,0.701,1.254,1.516,1.661,2.451c0.41,0.93,0.614,1.936,0.614,3.009h-1.68
			c0-0.841-0.157-1.628-0.474-2.363c-0.314-0.735-0.752-1.376-1.314-1.925c-0.558-0.547-1.205-0.979-1.938-1.295
			c-0.735-0.311-1.523-0.469-2.361-0.469h-2.241C257.066,138.756,256.564,138.853,256.098,139.054z"/>
		<path fill="#D2D8D7" d="M267.61,161.883v2.1v4.757h-1.681v-4.757v-0.421h-1.611v-1.679h1.611h1.575H267.61z"/>
		<path fill="#D2D8D7" d="M265.93,134.345v-4.616h1.681v4.616H265.93z"/>
		<path fill="#D2D8D7" d="M284.7,154.796c-0.337,0.876-0.815,1.625-1.433,2.241c-0.62,0.616-1.36,1.094-2.223,1.434
			c-0.861,0.338-1.832,0.506-2.905,0.506c-1.072,0-2.072-0.203-3.01-0.611c-0.931-0.41-1.749-0.959-2.448-1.661
			c-0.7-0.702-1.254-1.519-1.662-2.448c-0.407-0.935-0.61-1.938-0.61-3.014h1.679c0,0.843,0.158,1.63,0.473,2.367
			c0.313,0.732,0.745,1.377,1.294,1.923c0.547,0.547,1.19,0.979,1.925,1.294c0.733,0.314,1.521,0.471,2.36,0.471
			c0.841,0,1.594-0.144,2.256-0.434c0.666-0.296,1.231-0.686,1.7-1.175c0.465-0.49,0.821-1.063,1.066-1.714
			c0.245-0.653,0.367-1.353,0.367-2.098v-13.299h-3.673V136.9h4.512h0.842v14.977C285.21,152.948,285.039,153.922,284.7,154.796z"/>
		<path fill="#D2D8D7" d="M303.979,140.731c-0.593,0.759-1.333,1.263-2.221,1.522c0.956,0.7,1.715,1.587,2.273,2.659
			c0.562,1.074,0.841,2.25,0.841,3.533v10.707h-1.679v-10.707c0-0.837-0.156-1.625-0.473-2.36c-0.316-0.735-0.748-1.378-1.295-1.926
			c-0.549-0.547-1.189-0.979-1.927-1.295c-0.733-0.313-1.52-0.473-2.36-0.473s-1.627,0.159-2.361,0.473
			c-0.734,0.316-1.378,0.748-1.923,1.295c-0.55,0.548-0.98,1.191-1.298,1.926c-0.313,0.734-0.471,1.522-0.471,2.36v10.707h-1.68
			v-14.343v-7.734h1.68v6.578c0.723-0.886,1.604-1.596,2.641-2.133c1.037-0.535,2.176-0.803,3.412-0.803h0.035h3.429
			c0.725,0,1.337-0.252,1.838-0.754c0.501-0.5,0.753-1.113,0.753-1.837v-1.05h1.679v1.05
			C304.872,139.104,304.574,139.973,303.979,140.731z"/>
		<path fill="#D2D8D7" d="M322.894,137.074h1.677v14.345c0,1.075-0.204,2.078-0.611,3.011c-0.408,0.932-0.962,1.748-1.662,2.447
			c-0.699,0.701-1.523,1.254-2.468,1.666c-0.944,0.404-1.954,0.608-3.026,0.608c-1.236,0-2.374-0.261-3.411-0.786
			c-1.036-0.525-1.919-1.229-2.641-2.115v2.901h-1.681v-22.078h1.681v14.345c0,0.841,0.156,1.629,0.471,2.362
			c0.316,0.736,0.747,1.378,1.296,1.925c0.547,0.547,1.188,0.979,1.925,1.296c0.735,0.314,1.521,0.471,2.36,0.471
			c0.841,0,1.628-0.156,2.362-0.471c0.733-0.316,1.383-0.749,1.94-1.296c0.562-0.547,0.998-1.188,1.313-1.925
			c0.314-0.733,0.475-1.521,0.475-2.362V137.074z"/>
		<path fill="#D2D8D7" d="M323.591,134.311h-0.243h-0.176H323.1c-0.115,0-0.268-0.024-0.453-0.071c-0.024,0-0.104-0.022-0.244-0.068
			c-0.631-0.211-1.15-0.585-1.559-1.121c-0.408-0.537-0.612-1.153-0.612-1.855v-1.468h1.678v1.468c0,0.396,0.131,0.724,0.388,0.981
			c0.256,0.256,0.57,0.405,0.945,0.455h0.349h5.177v1.678H323.591z"/>
		<path fill="#D2D8D7" d="M328,126.858v1.681h-6.858v-0.071v-0.876v-0.733v-1.225h-1.713v-1.679h1.713h1.68v1.294v0.384v1.225H328z"
			/>
		<path fill="#D2D8D7" d="M339.912,158.381c-1.037,0.517-2.177,0.771-3.408,0.771c-1.075,0-2.078-0.198-3.011-0.595
			c-0.934-0.396-1.75-0.944-2.452-1.643c-0.7-0.7-1.25-1.511-1.659-2.432c-0.409-0.923-0.614-1.906-0.614-2.957v-14.452h1.682
			v14.452c0,0.817,0.156,1.592,0.472,2.328c0.315,0.732,0.745,1.368,1.293,1.906c0.55,0.537,1.194,0.963,1.926,1.277
			c0.733,0.313,1.522,0.474,2.364,0.474c0.838,0,1.625-0.161,2.359-0.474c0.735-0.314,1.376-0.74,1.924-1.277
			c0.548-0.538,0.979-1.174,1.296-1.906c0.315-0.736,0.474-1.511,0.474-2.328v-14.452h1.677v14.452v7.626h-1.677v-2.868
			C341.832,157.17,340.951,157.867,339.912,158.381z"/>
		<path fill="#D2D8D7" d="M43.541,158.102c0.7,0,1.365,0.137,1.995,0.402c0.63,0.27,1.183,0.635,1.662,1.103
			c0.478,0.47,0.856,1.015,1.138,1.645c0.279,0.632,0.418,1.308,0.418,2.031c0,1.004-0.192,1.976-0.576,2.924
			c-0.385,0.939-0.95,1.788-1.698,2.536l-0.034,0.036c-0.584,0.581-1.021,1.243-1.313,1.99c-0.292,0.748-0.437,1.505-0.437,2.276
			v26.414h1.609v1.682h-1.609h-1.61h-0.069v-28.096c0-1.003,0.187-1.979,0.558-2.923c0.375-0.944,0.946-1.789,1.716-2.535
			c0.583-0.608,1.021-1.282,1.312-2.032c0.292-0.745,0.438-1.502,0.438-2.272c0-0.979-0.338-1.808-1.014-2.485
			c-0.677-0.675-1.505-1.014-2.486-1.014c-0.49,0-0.95,0.093-1.381,0.282c-0.432,0.183-0.806,0.437-1.12,0.75
			c-0.316,0.316-0.564,0.689-0.752,1.119c-0.186,0.435-0.28,0.891-0.28,1.38c0,0.841,0.258,1.577,0.77,2.207
			c0.513,0.628,1.167,1.037,1.959,1.224v1.681c-0.629-0.093-1.212-0.291-1.749-0.595c-0.536-0.303-1.004-0.686-1.398-1.139
			c-0.398-0.455-0.706-0.973-0.929-1.557c-0.221-0.581-0.333-1.201-0.333-1.854c0-0.724,0.135-1.399,0.403-2.031
			c0.269-0.63,0.642-1.175,1.12-1.645c0.479-0.468,1.032-0.833,1.662-1.103C42.143,158.238,42.818,158.102,43.541,158.102z"/>
		<path fill="#D2D8D7" d="M50.417,183.786c0.407-0.933,0.961-1.75,1.662-2.45c0.7-0.701,1.516-1.255,2.45-1.662
			c0.932-0.408,1.936-0.614,3.008-0.614c1.073,0,2.076,0.206,3.011,0.614c0.931,0.407,1.749,0.961,2.448,1.662
			c0.698,0.7,1.253,1.518,1.662,2.45c0.408,0.933,0.613,1.936,0.613,3.01v14.345h-1.68v-14.345c0-0.84-0.158-1.628-0.474-2.363
			c-0.314-0.734-0.745-1.375-1.293-1.925c-0.548-0.545-1.19-0.979-1.925-1.294c-0.734-0.315-1.522-0.474-2.362-0.474
			c-0.84,0-1.627,0.158-2.36,0.474c-0.735,0.314-1.378,0.749-1.924,1.294c-0.549,0.55-0.981,1.19-1.295,1.925
			c-0.315,0.735-0.473,1.523-0.473,2.363v3.321h4.899v1.681h-4.899v9.343h-1.68v-14.345
			C49.803,185.722,50.008,184.719,50.417,183.786z"/>
		<path fill="#D2D8D7" d="M73.492,181.039c-0.468,0.198-0.875,0.471-1.225,0.821c-0.35,0.352-0.624,0.762-0.822,1.225
			c-0.199,0.468-0.298,0.958-0.298,1.473c0,0.835,0.24,1.585,0.718,2.238c0.478,0.652,1.089,1.117,1.836,1.396
			c1.797,0.54,3.19,0.947,4.182,1.229c0.991,0.28,1.727,0.487,2.205,0.625c0.478,0.145,0.774,0.23,0.892,0.266
			c0.117,0.036,0.198,0.065,0.244,0.089c1.237,0.396,2.193,1.152,2.871,2.272c0.559,0.838,0.839,1.82,0.839,2.938
			c0,0.771-0.146,1.489-0.437,2.153c-0.293,0.666-0.683,1.248-1.173,1.747c-0.489,0.506-1.066,0.899-1.731,1.192
			c-0.666,0.291-1.383,0.438-2.152,0.438h-2.205c-1.073,0-2.081-0.202-3.026-0.612c-0.944-0.409-1.768-0.964-2.467-1.659
			c-0.7-0.705-1.254-1.519-1.663-2.453c-0.408-0.934-0.612-1.938-0.612-3.01h1.714c0,0.841,0.158,1.628,0.473,2.364
			c0.315,0.731,0.747,1.372,1.293,1.923c0.548,0.549,1.19,0.981,1.925,1.294c0.735,0.314,1.522,0.472,2.361,0.472h2.205
			c0.513,0,1.002-0.104,1.469-0.313c0.468-0.211,0.875-0.491,1.224-0.843c0.351-0.347,0.624-0.752,0.823-1.204
			c0.198-0.458,0.296-0.95,0.296-1.489c0-0.861-0.25-1.626-0.752-2.289c-0.502-0.665-1.137-1.126-1.906-1.382
			c-1.772-0.512-3.148-0.91-4.128-1.193c-0.981-0.277-1.704-0.488-2.17-0.629c-0.466-0.139-0.758-0.226-0.875-0.264
			c-0.117-0.032-0.198-0.061-0.245-0.081c-0.608-0.19-1.149-0.477-1.626-0.86c-0.48-0.385-0.883-0.846-1.208-1.382
			c-0.583-0.911-0.875-1.891-0.875-2.939c0-0.771,0.146-1.495,0.437-2.17c0.293-0.677,0.689-1.262,1.19-1.75
			c0.501-0.491,1.086-0.88,1.75-1.171c0.665-0.29,1.383-0.44,2.151-0.44h2.239h0.036c1.073,0,2.075,0.206,3.009,0.614
			c0.932,0.407,1.75,0.961,2.448,1.662c0.702,0.7,1.256,1.518,1.662,2.45c0.409,0.933,0.613,1.936,0.613,3.01h-1.679
			c0-0.84-0.157-1.628-0.472-2.363c-0.315-0.734-0.752-1.375-1.312-1.925c-0.561-0.545-1.208-0.979-1.941-1.294
			c-0.736-0.315-1.522-0.474-2.363-0.474h-2.239C74.46,180.74,73.958,180.838,73.492,181.039z"/>
		<path fill="#D2D8D7" d="M92.491,199.459v1.682h-1.61h-1.609h-0.07V179.06h1.679v20.399H92.491z"/>
		<path fill="#D2D8D7" d="M110.562,182.716c-0.595,0.761-1.337,1.269-2.221,1.522c0.956,0.703,1.713,1.588,2.273,2.66
			c0.561,1.075,0.839,2.252,0.839,3.536v10.706h-1.677v-10.706c0-0.84-0.159-1.63-0.474-2.365c-0.315-0.734-0.747-1.374-1.295-1.922
			c-0.547-0.548-1.188-0.979-1.923-1.294c-0.736-0.315-1.523-0.475-2.361-0.475c-0.841,0-1.629,0.159-2.362,0.475
			c-0.736,0.314-1.376,0.746-1.925,1.294c-0.548,0.548-0.979,1.188-1.295,1.922c-0.314,0.735-0.472,1.525-0.472,2.365v10.706h-1.68
			v-14.345v-7.736h1.68v6.58c0.722-0.885,1.603-1.597,2.641-2.137c1.038-0.534,2.175-0.804,3.413-0.804h0.034h3.429
			c0.723,0,1.336-0.248,1.838-0.75c0.5-0.499,0.753-1.113,0.753-1.839v-1.051h1.677v1.051
			C111.454,181.091,111.157,181.963,110.562,182.716z"/>
		<path fill="#D2D8D7" d="M105.612,172.242c-0.257,0.255-0.384,0.579-0.384,0.975c0,0.397,0.15,0.748,0.453,1.051l1.82-1.854
			l0.315,0.383l1.364,1.365c0.187-0.187,0.339-0.418,0.455-0.697h1.751c-0.211,0.907-0.665,1.655-1.366,2.236
			c-0.116,0.097-0.239,0.182-0.367,0.264c-0.128,0.083-0.251,0.156-0.367,0.226l-0.28,0.142l-1.541-1.504l-1.505,1.504
			c-0.209,0-0.447-0.08-0.715-0.242c-0.269-0.165-0.53-0.389-0.787-0.668c-0.258-0.28-0.473-0.612-0.647-0.998
			c-0.176-0.382-0.264-0.785-0.264-1.207c0-0.699,0.206-1.316,0.613-1.854c0.409-0.537,0.927-0.907,1.557-1.118
			c0.14-0.046,0.221-0.072,0.243-0.072c0.188-0.044,0.339-0.069,0.457-0.069h0.069h0.175h0.246h4.547v1.682h-4.547h-0.351
			C106.183,171.832,105.869,171.983,105.612,172.242z"/>
		<path fill="#D2D8D7" d="M126.796,200.369c-1.037,0.516-2.174,0.771-3.411,0.771c-1.073,0-2.077-0.198-3.009-0.596
			c-0.934-0.398-1.749-0.943-2.45-1.643c-0.7-0.7-1.254-1.512-1.661-2.436c-0.408-0.919-0.613-1.906-0.613-2.957v-14.45h1.681v14.45
			c0,0.818,0.155,1.594,0.472,2.33c0.314,0.733,0.746,1.369,1.295,1.908c0.546,0.535,1.189,0.959,1.922,1.274
			c0.735,0.315,1.524,0.474,2.363,0.474c0.839,0,1.628-0.158,2.362-0.474c0.735-0.315,1.375-0.739,1.924-1.274
			c0.548-0.539,0.979-1.175,1.295-1.908c0.314-0.736,0.473-1.512,0.473-2.33v-14.45h1.679v14.45v7.631h-1.679v-2.871
			C128.714,199.158,127.834,199.858,126.796,200.369z"/>
		<path fill="#D2D8D7" d="M139.34,181.039c-0.466,0.198-0.875,0.471-1.226,0.821c-0.348,0.352-0.624,0.762-0.821,1.225
			c-0.199,0.468-0.297,0.958-0.297,1.473c0,0.835,0.238,1.585,0.717,2.238c0.478,0.652,1.092,1.117,1.836,1.396
			c1.797,0.54,3.19,0.947,4.182,1.229c0.99,0.28,1.726,0.487,2.204,0.625c0.479,0.145,0.775,0.23,0.893,0.266
			c0.118,0.036,0.198,0.065,0.244,0.089c1.237,0.396,2.193,1.152,2.871,2.272c0.559,0.838,0.839,1.82,0.839,2.938
			c0,0.771-0.146,1.489-0.437,2.153c-0.293,0.666-0.684,1.248-1.172,1.747c-0.489,0.506-1.069,0.899-1.733,1.192
			c-0.665,0.291-1.382,0.438-2.151,0.438h-2.205c-1.072,0-2.081-0.202-3.026-0.612c-0.945-0.409-1.767-0.964-2.466-1.659
			c-0.701-0.705-1.255-1.519-1.662-2.453c-0.41-0.934-0.613-1.938-0.613-3.01h1.714c0,0.841,0.158,1.628,0.473,2.364
			c0.315,0.731,0.746,1.372,1.295,1.923c0.546,0.549,1.188,0.981,1.924,1.294c0.734,0.314,1.522,0.472,2.361,0.472h2.205
			c0.511,0,1.001-0.104,1.469-0.313c0.466-0.211,0.875-0.491,1.224-0.843c0.349-0.347,0.624-0.752,0.823-1.204
			c0.197-0.458,0.296-0.95,0.296-1.489c0-0.861-0.25-1.626-0.753-2.289c-0.501-0.665-1.137-1.126-1.906-1.382
			c-1.773-0.512-3.147-0.91-4.129-1.193c-0.979-0.277-1.702-0.488-2.169-0.629c-0.468-0.139-0.759-0.226-0.875-0.264
			c-0.118-0.032-0.198-0.061-0.245-0.081c-0.608-0.19-1.15-0.477-1.628-0.86c-0.479-0.385-0.88-0.846-1.207-1.382
			c-0.583-0.911-0.875-1.891-0.875-2.939c0-0.771,0.146-1.495,0.437-2.17c0.291-0.677,0.687-1.262,1.189-1.75
			c0.502-0.491,1.085-0.88,1.75-1.171c0.664-0.29,1.383-0.44,2.151-0.44h2.239h0.035c1.074,0,2.074,0.206,3.009,0.614
			c0.934,0.407,1.75,0.961,2.45,1.662c0.699,0.7,1.253,1.518,1.662,2.45c0.407,0.933,0.611,1.936,0.611,3.01h-1.678
			c0-0.84-0.158-1.628-0.472-2.363c-0.316-0.734-0.753-1.375-1.313-1.925c-0.561-0.545-1.208-0.979-1.943-1.294
			c-0.733-0.315-1.521-0.474-2.361-0.474h-2.239C140.308,180.74,139.807,180.838,139.34,181.039z"/>
		<path fill="#D2D8D7" d="M149.871,176.296h-0.245h-0.175h-0.069c-0.116,0-0.267-0.021-0.455-0.068
			c-0.022,0-0.104-0.021-0.245-0.071c-0.629-0.207-1.147-0.58-1.557-1.117c-0.407-0.54-0.611-1.154-0.611-1.855v-1.471h1.679v1.471
			c0,0.396,0.128,0.722,0.384,0.979c0.258,0.258,0.572,0.409,0.945,0.456h0.35h5.18v1.678H149.871z"/>
		<path fill="#D2D8D7" d="M155.051,185.393l0.943-1.89l0.108-0.207c0.628-1.26,1.555-2.282,2.78-3.061
			c1.226-0.781,2.595-1.176,4.111-1.176c1.073,0,2.075,0.206,3.009,0.614c0.933,0.407,1.75,0.961,2.451,1.662
			c0.701,0.7,1.253,1.518,1.662,2.45c0.406,0.933,0.611,1.936,0.611,3.01v14.345h-1.679v-14.345c0-0.84-0.157-1.628-0.471-2.363
			c-0.316-0.734-0.749-1.375-1.296-1.925c-0.549-0.545-1.19-0.979-1.924-1.294c-0.735-0.315-1.521-0.474-2.362-0.474
			c-1.259,0-2.379,0.334-3.359,0.996c-0.979,0.666-1.702,1.535-2.168,2.605l-0.735,1.475l0.21,1.397v13.927h-1.679v-14.345
			L155.051,185.393z"/>
		<path fill="#D2D8D7" d="M178.212,199.459v1.682h-1.608h-1.611h-0.07v-35.306v-0.803v-0.033c0-0.982-0.208-1.878-0.628-2.696
			c-0.419-0.817-0.98-1.494-1.679-2.03l-3.744,3.744l-3.534-3.534v-2.343v-0.038l1.293,1.297l2.241,2.238l2.239-2.238l1.257-1.297
			c0.561,0.304,1.038,0.62,1.435,0.947c0.863,0.724,1.546,1.599,2.047,2.623c0.503,1.029,0.753,2.133,0.753,3.327v0.033v0.803
			v33.624H178.212z"/>
		<path fill="#D2D8D7" d="M196.478,201.141h-1.681v-12.175c-0.559,0.559-1.237,0.966-2.029,1.224
			c-0.047,0.025-0.122,0.053-0.227,0.086c-0.106,0.035-0.396,0.124-0.876,0.265c-0.479,0.139-1.2,0.349-2.169,0.628
			c-0.968,0.281-2.338,0.674-4.111,1.188c-0.769,0.262-1.405,0.718-1.906,1.384c-0.503,0.666-0.753,1.43-0.753,2.291
			c0,0.957,0.326,1.77,0.979,2.434c0.654,0.662,1.458,0.994,2.415,0.994h2.451v1.682h-2.451c-0.7,0-1.359-0.135-1.978-0.402
			c-0.617-0.27-1.159-0.635-1.626-1.101c-0.466-0.47-0.834-1.01-1.101-1.627c-0.27-0.62-0.403-1.28-0.403-1.979
			c0-1.071,0.292-2.052,0.874-2.941c0.676-1.117,1.634-1.875,2.87-2.271c0.024-0.022,0.1-0.053,0.228-0.088
			c0.127-0.037,0.437-0.124,0.928-0.262c0.489-0.142,1.23-0.356,2.221-0.647c0.991-0.292,2.373-0.707,4.146-1.241
			c0.956-0.33,1.68-0.967,2.169-1.929c0.046-0.114,0.099-0.323,0.157-0.627c0.058-0.303,0.028-0.665-0.087-1.083
			c-0.209-0.609-0.501-1.169-0.874-1.683c-0.375-0.51-0.81-0.953-1.313-1.329c-0.501-0.371-1.054-0.663-1.662-0.876
			c-0.606-0.207-1.248-0.313-1.924-0.313c-0.841,0-1.627,0.158-2.361,0.474c-0.736,0.314-1.377,0.749-1.926,1.294
			c-0.547,0.55-0.978,1.19-1.294,1.925c-0.314,0.735-0.473,1.523-0.473,2.363h-1.679c0-1.074,0.204-2.077,0.613-3.01
			c0.408-0.933,0.961-1.75,1.661-2.45c0.701-0.701,1.517-1.255,2.449-1.662c0.933-0.408,1.939-0.614,3.01-0.614
			c0.91,0,1.774,0.15,2.589,0.44c0.815,0.291,1.557,0.694,2.223,1.206c0.664,0.514,1.23,1.13,1.696,1.854
			c0.467,0.725,0.805,1.505,1.015,2.346c0.069,0.258,0.123,0.522,0.158,0.802c0.035,0.281,0.052,0.641,0.052,1.088V201.141z"/>
		<path fill="#D2D8D7" d="M201.288,183.786c0.407-0.933,0.961-1.75,1.661-2.45c0.701-0.701,1.516-1.255,2.451-1.662
			c0.932-0.408,1.936-0.614,3.009-0.614c1.071,0,2.076,0.206,3.007,0.614c0.935,0.407,1.751,0.961,2.449,1.662
			c0.702,0.7,1.257,1.518,1.666,2.45c0.404,0.933,0.611,1.936,0.611,3.01v14.345h-1.681v-14.345c0-0.84-0.159-1.628-0.472-2.363
			c-0.314-0.734-0.747-1.375-1.296-1.925c-0.547-0.545-1.189-0.979-1.925-1.294c-0.734-0.315-1.521-0.474-2.36-0.474
			c-0.84,0-1.628,0.158-2.361,0.474c-0.735,0.314-1.377,0.749-1.926,1.294c-0.548,0.55-0.979,1.19-1.293,1.925
			c-0.316,0.735-0.472,1.523-0.472,2.363v3.321h4.896v1.681h-4.896v9.343h-1.683v-14.345
			C200.675,185.722,200.881,184.719,201.288,183.786z"/>
		<path fill="#D2D8D7" d="M218.941,171.75v1.678h-4.549h-0.352c-0.372,0.048-0.688,0.198-0.944,0.457
			c-0.256,0.257-0.384,0.582-0.384,0.979v1.469h-1.68v-1.469c0-0.701,0.206-1.317,0.613-1.853c0.406-0.54,0.927-0.913,1.557-1.12
			c0.141-0.049,0.222-0.072,0.243-0.072c0.188-0.047,0.339-0.068,0.455-0.068h0.071h0.173h0.247H218.941z"/>
		<path fill="#D2D8D7" d="M235.805,194.669c0,1.165-0.245,2.242-0.735,3.237c-0.487,0.989-1.143,1.835-1.959,2.535
			c0,0.021-0.011,0.033-0.034,0.033l-0.035,0.035c-0.141,0.117-0.287,0.229-0.436,0.33c-0.152,0.104-0.298,0.207-0.439,0.301
			l-0.56-1.994l-3.533-12.95l-3.534,12.95l-0.561,1.994c-0.139-0.094-0.286-0.196-0.436-0.301c-0.152-0.102-0.299-0.213-0.439-0.33
			l-0.069-0.035c0-0.021-0.013-0.033-0.036-0.033c-0.813-0.7-1.463-1.552-1.94-2.555c-0.479-1.004-0.718-2.077-0.718-3.218v-0.036
			v-0.805V179.06h1.682v14.769v0.805v0.036c0,1.259,0.359,2.388,1.082,3.393l3.674-13.542h2.555l3.709,13.542
			c0.723-1.005,1.086-2.134,1.086-3.393v-0.036v-0.805V179.06h1.678v14.769v0.805V194.669z"/>
		<path fill="#D2D8D7" d="M253.406,201.141h-1.717v-14.345c0-0.84-0.156-1.628-0.473-2.363c-0.313-0.734-0.747-1.375-1.295-1.925
			c-0.547-0.545-1.188-0.979-1.923-1.294c-0.737-0.315-1.521-0.474-2.362-0.474c-0.84,0-1.628,0.158-2.36,0.474
			c-0.735,0.314-1.377,0.749-1.924,1.294c-0.55,0.55-0.982,1.19-1.296,1.925c-0.314,0.735-0.474,1.523-0.474,2.363h-1.677
			c0-1.074,0.202-2.077,0.61-3.01c0.409-0.933,0.964-1.75,1.661-2.45c0.699-0.701,1.518-1.255,2.449-1.662
			c0.935-0.408,1.937-0.614,3.01-0.614s2.082,0.206,3.027,0.614c0.943,0.407,1.767,0.961,2.468,1.662
			c0.699,0.7,1.253,1.518,1.661,2.45c0.404,0.933,0.613,1.936,0.613,3.01V201.141z"/>
		<path fill="#D2D8D7" d="M271.073,199.459h1.608v1.682h-1.608h-1.609h-0.069V179.06h1.679V199.459z M276.25,199.459h1.611v1.682
			h-1.611h-1.605h-0.072V179.06h1.678V199.459z"/>
		<path fill="#D2D8D7" d="M283.879,182.699c0-0.232-0.059-0.535-0.174-0.909c-0.118-0.372-0.27-0.724-0.455-1.05h-3.99v-1.681h0.771
			h1.889h0.035h1.295h0.734c0.326,0.354,0.616,0.741,0.875,1.176c0.257,0.429,0.443,0.891,0.56,1.379v0.039l0.034,0.067v0.069
			c0.094,0.352,0.142,0.748,0.142,1.189v1.362c-0.07,0.539-0.229,1.057-0.474,1.561c-0.244,0.503-0.566,0.952-0.961,1.348
			l-0.071,0.068c-0.023,0-0.033,0.015-0.033,0.036c-0.608,0.655-0.91,1.434-0.91,2.346v6.331c0,0.469,0.088,0.91,0.262,1.329
			c0.176,0.421,0.42,0.788,0.735,1.104c0.315,0.314,0.682,0.564,1.102,0.749c0.42,0.189,0.875,0.282,1.365,0.282
			c0.489,0,0.945-0.093,1.363-0.282c0.42-0.185,0.787-0.435,1.104-0.749c0.314-0.316,0.558-0.684,0.733-1.104
			c0.173-0.419,0.264-0.86,0.264-1.329v-9.272c0-0.721-0.258-1.341-0.769-1.853c-0.515-0.515-1.146-0.771-1.891-0.771v-1.678
			c0.745,0,1.376-0.25,1.891-0.752c0.511-0.502,0.769-1.116,0.769-1.839v-0.807h1.646v0.807c0,0.677-0.148,1.306-0.439,1.89
			c-0.293,0.583-0.693,1.073-1.207,1.469c-0.048,0.047-0.082,0.071-0.106,0.071c0.049,0.046,0.082,0.067,0.106,0.067
			c0.514,0.398,0.914,0.895,1.207,1.49c0.291,0.591,0.439,1.232,0.439,1.905v9.272c0,1.401-0.502,2.602-1.505,3.606
			c-0.47,0.488-1.017,0.861-1.646,1.12c-0.63,0.252-1.282,0.383-1.959,0.383c-0.678,0-1.332-0.131-1.96-0.383
			c-0.631-0.259-1.177-0.632-1.644-1.12c-1.004-1.005-1.505-2.205-1.505-3.606V189.7c0-0.68,0.129-1.331,0.384-1.961
			c0.256-0.628,0.63-1.178,1.121-1.647c0-0.021,0.005-0.033,0.016-0.033c0.012,0,0.019-0.012,0.019-0.034
			c0.443-0.441,0.733-0.999,0.874-1.683v-1.362C283.914,182.866,283.901,182.769,283.879,182.699z"/>
		<path fill="#D2D8D7" d="M299.94,181.039c-0.468,0.198-0.877,0.471-1.226,0.821c-0.351,0.352-0.625,0.762-0.823,1.225
			c-0.197,0.468-0.296,0.958-0.296,1.473c0,0.835,0.239,1.585,0.716,2.238c0.479,0.652,1.093,1.117,1.838,1.396
			c1.797,0.54,3.19,0.947,4.18,1.229c0.993,0.28,1.726,0.487,2.205,0.625c0.478,0.145,0.775,0.23,0.893,0.266
			c0.118,0.036,0.197,0.065,0.245,0.089c1.234,0.396,2.191,1.152,2.869,2.272c0.56,0.838,0.841,1.82,0.841,2.938
			c0,0.771-0.147,1.489-0.438,2.153c-0.291,0.666-0.684,1.248-1.173,1.747c-0.489,0.506-1.065,0.899-1.731,1.192
			c-0.665,0.291-1.383,0.438-2.152,0.438h-2.204c-1.07,0-2.083-0.202-3.024-0.612c-0.947-0.409-1.768-0.964-2.468-1.659
			c-0.7-0.705-1.255-1.519-1.662-2.453c-0.409-0.934-0.613-1.938-0.613-3.01h1.715c0,0.841,0.157,1.628,0.475,2.364
			c0.313,0.731,0.744,1.372,1.293,1.923c0.547,0.549,1.188,0.981,1.924,1.294c0.735,0.314,1.521,0.472,2.361,0.472h2.204
			c0.514,0,1.004-0.104,1.469-0.313c0.468-0.211,0.877-0.491,1.226-0.843c0.349-0.347,0.623-0.752,0.823-1.204
			c0.198-0.458,0.298-0.95,0.298-1.489c0-0.861-0.251-1.626-0.753-2.289c-0.5-0.665-1.14-1.126-1.907-1.382
			c-1.773-0.512-3.148-0.91-4.13-1.193c-0.978-0.277-1.702-0.488-2.167-0.629c-0.469-0.139-0.759-0.226-0.876-0.264
			c-0.116-0.032-0.199-0.061-0.244-0.081c-0.608-0.19-1.151-0.477-1.628-0.86c-0.479-0.385-0.882-0.846-1.208-1.382
			c-0.581-0.911-0.874-1.891-0.874-2.939c0-0.771,0.146-1.495,0.439-2.17c0.29-0.677,0.686-1.262,1.188-1.75
			c0.502-0.491,1.085-0.88,1.749-1.171c0.666-0.29,1.381-0.44,2.151-0.44h2.239h0.035c1.073,0,2.076,0.206,3.01,0.614
			c0.932,0.407,1.748,0.961,2.449,1.662c0.7,0.7,1.253,1.518,1.662,2.45c0.407,0.933,0.613,1.936,0.613,3.01h-1.682
			c0-0.84-0.157-1.628-0.471-2.363c-0.316-0.734-0.753-1.375-1.312-1.925c-0.562-0.545-1.21-0.979-1.942-1.294
			c-0.736-0.315-1.522-0.474-2.363-0.474h-2.239C300.908,180.74,300.407,180.838,299.94,181.039z"/>
		<path fill="#D2D8D7" d="M314.249,171.75v1.678h-4.547h-0.352c-0.372,0.048-0.689,0.198-0.943,0.457
			c-0.256,0.257-0.385,0.582-0.385,0.979v1.469h-1.68v-1.469c0-0.701,0.204-1.317,0.61-1.853c0.408-0.54,0.928-0.913,1.559-1.12
			c0.14-0.049,0.222-0.072,0.244-0.072c0.188-0.047,0.336-0.068,0.455-0.068h0.07h0.174h0.247H314.249z"/>
		<path fill="#D2D8D7" d="M315.65,185.393l0.943-1.89l0.105-0.207c0.629-1.26,1.556-2.282,2.78-3.061
			c1.225-0.781,2.595-1.176,4.114-1.176c1.07,0,2.072,0.206,3.008,0.614c0.933,0.407,1.75,0.961,2.448,1.662
			c0.702,0.7,1.255,1.518,1.662,2.45c0.406,0.933,0.611,1.936,0.611,3.01v14.345h-1.677v-14.345c0-0.84-0.16-1.628-0.475-2.363
			c-0.314-0.734-0.745-1.375-1.294-1.925c-0.548-0.545-1.189-0.979-1.924-1.294c-0.736-0.315-1.522-0.474-2.36-0.474
			c-1.262,0-2.384,0.334-3.362,0.996c-0.979,0.666-1.702,1.535-2.168,2.605l-0.735,1.475l0.211,1.397v13.927h-1.679v-14.345
			L315.65,185.393z"/>
		<path fill="#D2D8D7" d="M330.345,176.296H330.1h-0.177h-0.066c-0.117,0-0.27-0.021-0.456-0.068c-0.023,0-0.105-0.021-0.247-0.071
			c-0.627-0.207-1.146-0.58-1.555-1.117c-0.41-0.54-0.612-1.154-0.612-1.855v-1.471h1.678v1.471c0,0.396,0.13,0.722,0.386,0.979
			c0.258,0.258,0.571,0.409,0.944,0.456h0.351h5.178v1.678H330.345z"/>
		<path fill="#D2D8D7" d="M346.666,200.369c-1.036,0.516-2.174,0.771-3.412,0.771c-1.072,0-2.073-0.198-3.007-0.596
			c-0.937-0.398-1.748-0.943-2.449-1.643c-0.701-0.7-1.255-1.512-1.662-2.436c-0.409-0.919-0.613-1.906-0.613-2.957v-14.45h1.681
			v14.45c0,0.818,0.155,1.594,0.473,2.33c0.314,0.733,0.745,1.369,1.293,1.908c0.548,0.535,1.191,0.959,1.925,1.274
			c0.734,0.315,1.521,0.474,2.36,0.474c0.842,0,1.63-0.158,2.362-0.474c0.733-0.315,1.377-0.739,1.926-1.274
			c0.548-0.539,0.979-1.175,1.295-1.908c0.314-0.736,0.471-1.512,0.471-2.33v-14.45h1.681v14.45v7.631h-1.681v-2.871
			C348.585,199.158,347.707,199.858,346.666,200.369z"/>
		<path fill="#D2D8D7" d="M7.398,225.772c0.408-0.934,0.961-1.75,1.662-2.449c0.699-0.699,1.516-1.255,2.449-1.662
			c0.933-0.407,1.937-0.612,3.009-0.612s2.075,0.205,3.01,0.612c0.932,0.407,1.749,0.963,2.448,1.662
			c0.699,0.699,1.254,1.516,1.662,2.449c0.408,0.934,0.612,1.937,0.612,3.008v14.346h-1.677V228.78c0-0.839-0.159-1.625-0.475-2.361
			c-0.314-0.734-0.746-1.376-1.293-1.924c-0.549-0.546-1.19-0.98-1.926-1.296c-0.735-0.313-1.522-0.471-2.361-0.471
			c-0.84,0-1.627,0.158-2.362,0.471c-0.735,0.315-1.376,0.75-1.924,1.296c-0.549,0.548-0.98,1.189-1.294,1.924
			c-0.316,0.736-0.473,1.522-0.473,2.361v3.328h4.898v1.677H8.464v9.341H6.785V228.78C6.785,227.709,6.989,226.706,7.398,225.772z"
			/>
		<path fill="#D2D8D7" d="M37.593,242.358c-1.038,0.513-2.174,0.768-3.412,0.768c-1.073,0-2.076-0.196-3.01-0.596
			c-0.932-0.396-1.747-0.943-2.447-1.646c-0.7-0.696-1.255-1.506-1.663-2.427c-0.408-0.923-0.611-1.906-0.611-2.957v-14.451h1.678
			V235.5c0,0.817,0.158,1.59,0.472,2.324c0.315,0.736,0.745,1.372,1.294,1.908c0.548,0.54,1.191,0.964,1.926,1.276
			c0.734,0.314,1.522,0.472,2.36,0.472c0.841,0,1.627-0.157,2.363-0.472c0.735-0.313,1.375-0.736,1.923-1.276
			c0.549-0.536,0.981-1.172,1.295-1.908c0.315-0.734,0.472-1.507,0.472-2.324v-14.451h1.68V235.5v7.626h-1.68v-2.869
			C39.512,241.146,38.63,241.846,37.593,242.358z"/>
		<path fill="#D2D8D7" d="M57.256,242.358c-1.037,0.513-2.175,0.768-3.41,0.768c-1.075,0-2.076-0.196-3.01-0.596
			c-0.932-0.396-1.749-0.943-2.449-1.646c-0.699-0.696-1.255-1.506-1.662-2.427c-0.408-0.923-0.612-1.906-0.612-2.957v-14.451h1.68
			V235.5c0,0.817,0.157,1.59,0.472,2.324c0.314,0.736,0.746,1.372,1.294,1.908c0.547,0.54,1.189,0.964,1.924,1.276
			c0.735,0.314,1.521,0.472,2.363,0.472c0.839,0,1.627-0.157,2.36-0.472c0.736-0.313,1.377-0.736,1.924-1.276
			c0.549-0.536,0.979-1.172,1.295-1.908c0.315-0.734,0.472-1.507,0.472-2.324v-14.451h1.681V235.5v7.626h-1.681v-2.869
			C59.174,241.146,58.294,241.846,57.256,242.358z"/>
		<path fill="#D2D8D7" d="M49.473,216.641h12.106v1.678H49.473V216.641z"/>
		<path fill="#D2D8D7" d="M81.242,235.396c0,1.072-0.205,2.073-0.612,3.008c-0.409,0.932-0.962,1.75-1.662,2.448
			c-0.7,0.698-1.517,1.255-2.451,1.661c-0.933,0.41-1.936,0.612-3.009,0.612s-2.077-0.202-3.01-0.612
			c-0.932-0.406-1.749-0.963-2.448-1.661c-0.7-0.698-1.253-1.517-1.662-2.448c-0.408-0.935-0.613-1.936-0.613-3.008
			c0-1.262,0.281-2.429,0.841-3.5c0.559-1.075,1.306-1.973,2.239-2.695c-0.887-0.233-1.622-0.711-2.205-1.435
			c-0.583-0.722-0.875-1.574-0.875-2.554c0-0.56,0.099-1.08,0.298-1.559c0.198-0.477,0.472-0.904,0.824-1.274
			c0.349-0.377,0.756-0.673,1.225-0.894c0.465-0.223,0.966-0.357,1.503-0.402v-0.035h3.884v1.68h-3.604
			c-0.675,0-1.252,0.243-1.73,0.734c-0.478,0.487-0.718,1.073-0.718,1.75c0,0.676,0.241,1.257,0.718,1.731
			c0.479,0.479,1.056,0.719,1.73,0.719h3.604v1.679c-0.838,0-1.627,0.158-2.362,0.47c-0.733,0.315-1.376,0.748-1.924,1.294
			c-0.547,0.551-0.98,1.189-1.293,1.928c-0.314,0.732-0.473,1.52-0.473,2.363c0,0.838,0.159,1.624,0.473,2.358
			c0.313,0.736,0.747,1.376,1.293,1.924c0.548,0.549,1.191,0.98,1.924,1.297c0.735,0.316,1.524,0.473,2.362,0.473
			c0.84,0,1.627-0.156,2.362-0.473c0.735-0.316,1.376-0.748,1.924-1.297c0.549-0.548,0.979-1.188,1.295-1.924
			c0.315-0.734,0.474-1.521,0.474-2.358v-14.348h1.679V235.396z"/>
		<path fill="#D2D8D7" d="M99.261,221.049h1.679v14.348c0,1.072-0.204,2.073-0.612,3.008c-0.407,0.932-0.961,1.75-1.662,2.448
			c-0.699,0.698-1.522,1.255-2.467,1.661c-0.943,0.41-1.953,0.612-3.026,0.612c-1.237,0-2.374-0.263-3.413-0.787
			c-1.036-0.522-1.918-1.228-2.641-2.116v2.903H85.44v-22.077h1.679v14.348c0,0.838,0.158,1.624,0.473,2.358
			c0.314,0.736,0.746,1.376,1.295,1.924c0.546,0.549,1.188,0.98,1.923,1.297c0.735,0.316,1.521,0.473,2.362,0.473
			s1.627-0.156,2.361-0.473c0.736-0.316,1.383-0.748,1.943-1.297c0.56-0.548,0.997-1.188,1.312-1.924
			c0.314-0.734,0.472-1.521,0.472-2.358V221.049z"/>
		<path fill="#D2D8D7" d="M112.872,221.049c1.072,0,2.076,0.205,3.009,0.612s1.749,0.963,2.449,1.662
			c0.7,0.699,1.254,1.516,1.662,2.449c0.41,0.934,0.613,1.937,0.613,3.008v14.346h-1.679V228.78c0-0.839-0.157-1.625-0.474-2.361
			c-0.314-0.734-0.746-1.376-1.295-1.924c-0.547-0.546-1.188-0.98-1.923-1.296c-0.735-0.313-1.523-0.471-2.362-0.471
			c-0.84,0-1.627,0.158-2.362,0.471c-0.734,0.315-1.376,0.75-1.925,1.296c-0.547,0.548-0.979,1.189-1.295,1.924
			c-0.314,0.736-0.471,1.522-0.471,2.361v14.346h-1.68V228.78v-7.731h1.68v2.94c0.722-0.887,1.604-1.599,2.643-2.136
			C110.5,221.315,111.636,221.049,112.872,221.049z"/>
		<path fill="#D2D8D7" d="M119.626,218.285h-0.247h-0.175h-0.07c-0.116,0-0.268-0.023-0.456-0.07c-0.022,0-0.104-0.023-0.243-0.07
			c-0.631-0.21-1.149-0.584-1.558-1.121c-0.409-0.535-0.612-1.154-0.612-1.854v-1.468h1.679v1.468c0,0.399,0.128,0.724,0.386,0.98
			c0.257,0.258,0.573,0.407,0.944,0.453h0.352h5.177v1.682H119.626z"/>
		<path fill="#D2D8D7" d="M124.033,210.833v1.681h-6.857v-0.071v-0.876v-0.733v-1.224h-1.715v-1.682h1.715h1.679v1.293v0.389v1.224
			H124.033z"/>
		<path fill="#D2D8D7" d="M137.696,238.773c-0.337,0.873-0.816,1.619-1.434,2.235c-0.618,0.62-1.36,1.099-2.221,1.435
			c-0.865,0.34-1.832,0.511-2.904,0.511c-1.074,0-2.076-0.206-3.009-0.615c-0.933-0.407-1.75-0.962-2.449-1.662
			c-0.701-0.699-1.255-1.516-1.663-2.448c-0.408-0.933-0.613-1.937-0.613-3.01h1.68c0,0.839,0.158,1.627,0.471,2.358
			c0.316,0.738,0.747,1.381,1.296,1.929c0.546,0.55,1.189,0.979,1.922,1.295c0.736,0.316,1.524,0.472,2.364,0.472
			s1.591-0.146,2.257-0.438c0.664-0.291,1.229-0.68,1.697-1.173c0.465-0.489,0.822-1.06,1.066-1.712
			c0.247-0.653,0.369-1.353,0.369-2.103v-13.295h-3.675v-1.678h4.514h0.84v14.973C138.204,236.92,138.034,237.896,137.696,238.773z"
			/>
		<path fill="#D2D8D7" d="M143.015,225.772c0.409-0.934,0.961-1.75,1.663-2.449c0.699-0.699,1.514-1.255,2.449-1.662
			c0.933-0.407,1.936-0.612,3.008-0.612s2.075,0.205,3.01,0.612c0.931,0.407,1.749,0.963,2.449,1.662
			c0.7,0.699,1.254,1.516,1.662,2.449s0.611,1.937,0.611,3.008v14.346h-1.679V228.78c0-0.839-0.157-1.625-0.471-2.361
			c-0.314-0.734-0.747-1.376-1.294-1.924c-0.547-0.546-1.189-0.98-1.925-1.296c-0.734-0.313-1.521-0.471-2.361-0.471
			c-0.84,0-1.625,0.158-2.363,0.471c-0.734,0.315-1.377,0.75-1.923,1.296c-0.549,0.548-0.979,1.189-1.294,1.924
			c-0.315,0.736-0.473,1.522-0.473,2.361v3.328h4.898v1.677h-4.898v9.341h-1.679V228.78
			C142.403,227.709,142.607,226.706,143.015,225.772z"/>
		<path fill="#D2D8D7" d="M156.188,218.318v-4.616h1.679v4.616H156.188z"/>
		<path fill="#D2D8D7" d="M175.468,243.126h-1.714V228.78c0-0.839-0.159-1.625-0.474-2.361c-0.314-0.734-0.746-1.376-1.295-1.924
			c-0.548-0.546-1.188-0.98-1.924-1.296c-0.736-0.313-1.523-0.471-2.361-0.471c-0.84,0-1.626,0.158-2.361,0.471
			c-0.734,0.315-1.376,0.75-1.925,1.296c-0.548,0.548-0.98,1.189-1.293,1.924c-0.315,0.736-0.473,1.522-0.473,2.361h-1.68
			c0-1.071,0.203-2.074,0.613-3.008c0.407-0.934,0.962-1.75,1.662-2.449c0.699-0.699,1.518-1.255,2.449-1.662
			c0.934-0.407,1.936-0.612,3.009-0.612c1.071,0,2.082,0.205,3.028,0.612c0.944,0.407,1.766,0.963,2.466,1.662
			c0.699,0.699,1.253,1.516,1.661,2.449c0.408,0.934,0.613,1.937,0.613,3.008V243.126z"/>
		<path fill="#D2D8D7" d="M195.13,235.396c0,1.072-0.204,2.073-0.611,3.008c-0.41,0.932-0.963,1.75-1.664,2.448
			c-0.697,0.698-1.514,1.255-2.449,1.661c-0.932,0.41-1.935,0.612-3.008,0.612c-1.072,0-2.078-0.202-3.008-0.612
			c-0.936-0.406-1.751-0.963-2.449-1.661c-0.701-0.698-1.256-1.517-1.664-2.448c-0.408-0.935-0.611-1.936-0.611-3.008
			c0-1.262,0.281-2.429,0.839-3.5c0.561-1.075,1.307-1.973,2.24-2.695c-0.889-0.233-1.621-0.711-2.205-1.435
			c-0.583-0.722-0.874-1.574-0.874-2.554c0-0.56,0.099-1.08,0.298-1.559c0.197-0.477,0.472-0.904,0.822-1.274
			c0.35-0.377,0.756-0.673,1.227-0.894c0.463-0.223,0.965-0.357,1.504-0.402v-0.035h3.882v1.68h-3.604
			c-0.676,0-1.253,0.243-1.731,0.734c-0.479,0.487-0.719,1.073-0.719,1.75c0,0.676,0.24,1.257,0.719,1.731
			c0.479,0.479,1.056,0.719,1.731,0.719h3.604v1.679c-0.84,0-1.626,0.158-2.361,0.47c-0.734,0.315-1.377,0.748-1.924,1.294
			c-0.548,0.551-0.979,1.189-1.295,1.928c-0.314,0.732-0.474,1.52-0.474,2.363c0,0.838,0.159,1.624,0.474,2.358
			c0.316,0.736,0.747,1.376,1.295,1.924c0.547,0.549,1.19,0.98,1.924,1.297c0.735,0.316,1.521,0.473,2.361,0.473
			s1.627-0.156,2.362-0.473c0.734-0.316,1.376-0.748,1.923-1.297c0.548-0.548,0.98-1.188,1.294-1.924
			c0.316-0.734,0.473-1.521,0.473-2.358v-14.348h1.679V235.396z"/>
		<path fill="#D2D8D7" d="M210.474,242.358c-1.036,0.513-2.174,0.768-3.408,0.768c-1.076,0-2.08-0.196-3.012-0.596
			c-0.933-0.396-1.748-0.943-2.448-1.646c-0.7-0.696-1.254-1.506-1.662-2.427c-0.41-0.923-0.613-1.906-0.613-2.957v-14.451h1.68
			V235.5c0,0.817,0.158,1.59,0.47,2.324c0.317,0.736,0.747,1.372,1.296,1.908c0.548,0.54,1.189,0.964,1.925,1.276
			c0.735,0.314,1.521,0.472,2.364,0.472c0.838,0,1.624-0.157,2.359-0.472c0.736-0.313,1.377-0.736,1.925-1.276
			c0.549-0.536,0.979-1.172,1.294-1.908c0.316-0.734,0.474-1.507,0.474-2.324v-14.451h1.679V235.5v7.626h-1.679v-2.869
			C212.394,241.146,211.512,241.846,210.474,242.358z"/>
		<path fill="#D2D8D7" d="M213.817,218.285h-0.247h-0.174h-0.069c-0.118,0-0.27-0.023-0.455-0.07c-0.023,0-0.104-0.023-0.245-0.07
			c-0.63-0.21-1.148-0.584-1.557-1.121c-0.41-0.535-0.614-1.154-0.614-1.854v-1.468h1.683v1.468c0,0.399,0.125,0.724,0.384,0.98
			c0.257,0.258,0.57,0.407,0.943,0.453h0.352h5.177v1.682H213.817z"/>
		<path fill="#D2D8D7" d="M218.226,210.833v1.681h-6.858v-0.071v-0.876v-0.733v-1.224h-1.715v-1.682h1.715h1.679v1.293v0.389v1.224
			H218.226z"/>
		<path fill="#D2D8D7" d="M230.138,242.358c-1.036,0.513-2.175,0.768-3.41,0.768c-1.073,0-2.077-0.196-3.01-0.596
			c-0.932-0.396-1.75-0.943-2.449-1.646c-0.7-0.696-1.254-1.506-1.66-2.427c-0.41-0.923-0.614-1.906-0.614-2.957v-14.451h1.68V235.5
			c0,0.817,0.157,1.59,0.472,2.324c0.316,0.736,0.747,1.372,1.296,1.908c0.547,0.54,1.188,0.964,1.925,1.276
			c0.734,0.314,1.523,0.472,2.361,0.472c0.839,0,1.627-0.157,2.359-0.472c0.736-0.313,1.377-0.736,1.926-1.276
			c0.548-0.536,0.981-1.172,1.296-1.908c0.313-0.734,0.472-1.507,0.472-2.324v-14.451h1.679V235.5v7.626h-1.679v-2.869
			C232.056,241.146,231.177,241.846,230.138,242.358z"/>
		<path fill="#D2D8D7" d="M253.738,241.448v1.678h-1.607h-1.612h-0.07v-35.303v-0.807v-0.035c0-0.979-0.209-1.874-0.629-2.692
			c-0.417-0.817-0.979-1.492-1.682-2.03l-3.74,3.743l-3.534-3.532v-2.344v-0.036l1.294,1.295l2.24,2.238l2.237-2.238l1.262-1.295
			c0.559,0.303,1.036,0.62,1.433,0.946c0.862,0.721,1.545,1.596,2.048,2.621c0.503,1.028,0.754,2.137,0.754,3.324v0.035v0.807
			v33.625H253.738z"/>
		<path fill="#D2D8D7" d="M272.09,238.457c-0.409,0.921-0.964,1.73-1.662,2.427c-0.7,0.703-1.515,1.251-2.449,1.646
			c-0.934,0.399-1.937,0.596-3.008,0.596c-1.075,0-2.078-0.196-3.01-0.596c-0.933-0.396-1.75-0.943-2.45-1.646
			c-0.699-0.696-1.254-1.506-1.661-2.427c-0.407-0.923-0.612-1.906-0.612-2.957v-14.451h1.68V235.5c0,0.817,0.158,1.59,0.473,2.324
			c0.315,0.736,0.746,1.372,1.294,1.908c0.547,0.54,1.189,0.964,1.924,1.276c0.733,0.314,1.522,0.472,2.363,0.472
			c0.839,0,1.626-0.157,2.361-0.472c0.734-0.313,1.376-0.736,1.926-1.276c0.547-0.536,0.979-1.172,1.292-1.908
			c0.314-0.734,0.471-1.507,0.471-2.324v-21.798h1.682V235.5C272.702,236.551,272.499,237.534,272.09,238.457z"/>
		<path fill="#D2D8D7" d="M267.524,218.318v-4.616h1.678v4.616H267.524z"/>
		<path fill="#D2D8D7" d="M291.668,243.126h-1.682V230.95c-0.561,0.558-1.235,0.968-2.029,1.225
			c-0.045,0.024-0.119,0.054-0.229,0.086c-0.104,0.034-0.397,0.126-0.873,0.263c-0.48,0.141-1.201,0.352-2.17,0.632
			c-0.968,0.28-2.339,0.677-4.111,1.19c-0.77,0.254-1.406,0.717-1.906,1.379c-0.503,0.666-0.752,1.43-0.752,2.292
			c0,0.958,0.326,1.767,0.978,2.433c0.652,0.668,1.459,0.999,2.415,0.999h2.45v1.678h-2.45c-0.698,0-1.355-0.133-1.976-0.4
			s-1.161-0.638-1.628-1.104c-0.467-0.465-0.833-1.012-1.102-1.629c-0.268-0.615-0.403-1.276-0.403-1.977
			c0-1.071,0.292-2.051,0.875-2.938c0.676-1.122,1.633-1.877,2.87-2.272c0.021-0.024,0.094-0.051,0.209-0.09
			c0.115-0.033,0.413-0.121,0.892-0.263c0.479-0.14,1.22-0.354,2.224-0.647c1.002-0.292,2.401-0.702,4.199-1.242
			c0.957-0.324,1.68-0.969,2.166-1.923c0.049-0.116,0.101-0.327,0.16-0.632c0.06-0.301,0.028-0.663-0.088-1.083
			c-0.21-0.606-0.503-1.164-0.875-1.678c-0.373-0.515-0.811-0.958-1.313-1.33c-0.5-0.374-1.054-0.668-1.66-0.875
			c-0.608-0.211-1.248-0.315-1.925-0.315c-0.84,0-1.627,0.158-2.362,0.471c-0.733,0.315-1.377,0.75-1.924,1.296
			c-0.549,0.548-0.979,1.189-1.295,1.924c-0.314,0.736-0.472,1.522-0.472,2.361H276.2c0-1.071,0.205-2.074,0.613-3.008
			c0.407-0.934,0.963-1.75,1.661-2.449c0.702-0.699,1.518-1.255,2.449-1.662c0.934-0.407,1.936-0.612,3.01-0.612
			c1.097,0,2.123,0.207,3.079,0.629c0.955,0.42,1.782,0.992,2.484,1.715c0.351-0.462,0.524-0.978,0.524-1.539v-0.805h1.646v0.805
			c0,0.351-0.036,0.677-0.107,0.979c-0.163,0.699-0.502,1.345-1.013,1.926c0.209,0.325,0.396,0.677,0.558,1.046
			c0.165,0.377,0.292,0.76,0.386,1.155c0.069,0.261,0.116,0.521,0.141,0.79c0.021,0.266,0.036,0.613,0.036,1.03V243.126z"/>
		<path fill="#D2D8D7" d="M279.561,216.641h12.104v1.678h-12.104V216.641z"/>
		<path fill="#D2D8D7" d="M295.096,210.833v1.681h-6.855v-0.071v-0.876v-0.733v-1.224h-1.719v-1.682h1.719h1.677v1.293v0.389v1.224
			H295.096z"/>
		<path fill="#D2D8D7" d="M307.009,242.358c-1.039,0.513-2.176,0.768-3.412,0.768c-1.073,0-2.074-0.196-3.008-0.596
			c-0.934-0.396-1.751-0.943-2.449-1.646c-0.7-0.696-1.255-1.506-1.661-2.427c-0.408-0.923-0.613-1.906-0.613-2.957v-14.451h1.679
			V235.5c0,0.817,0.157,1.59,0.473,2.324c0.314,0.736,0.747,1.372,1.296,1.908c0.547,0.54,1.188,0.964,1.923,1.276
			c0.736,0.314,1.521,0.472,2.361,0.472c0.84,0,1.626-0.157,2.363-0.472c0.733-0.313,1.375-0.736,1.922-1.276
			c0.548-0.536,0.982-1.172,1.298-1.908c0.314-0.734,0.471-1.507,0.471-2.324v-14.451h1.678V235.5v7.626h-1.678v-2.869
			C308.926,241.146,308.047,241.846,307.009,242.358z"/>
		<path fill="#D2D8D7" d="M316.141,225.772c0.408-0.934,0.963-1.75,1.662-2.449c0.698-0.699,1.515-1.255,2.449-1.662
			c0.932-0.407,1.935-0.612,3.01-0.612c1.071,0,2.074,0.205,3.01,0.612c0.932,0.407,1.748,0.963,2.446,1.662
			c0.702,0.699,1.255,1.516,1.662,2.449c0.409,0.934,0.613,1.937,0.613,3.008v14.346h-1.679V228.78c0-0.839-0.157-1.625-0.474-2.361
			c-0.314-0.734-0.746-1.376-1.294-1.924c-0.549-0.546-1.189-0.98-1.923-1.296c-0.736-0.313-1.523-0.471-2.362-0.471
			c-0.84,0-1.628,0.158-2.362,0.471c-0.733,0.315-1.376,0.75-1.926,1.296c-0.55,0.548-0.979,1.189-1.295,1.924
			c-0.313,0.736-0.47,1.522-0.47,2.361v3.328h4.898v1.677h-4.898v9.341h-1.681V228.78
			C315.528,227.709,315.732,226.706,316.141,225.772z"/>
		<path fill="#D2D8D7" d="M328.543,213.281c0.701,0,1.297,0.244,1.786,0.733c0.49,0.493,0.734,1.087,0.734,1.782
			c0,0.702-0.244,1.295-0.734,1.788c-0.489,0.489-1.085,0.733-1.786,0.733c-0.697,0-1.293-0.244-1.783-0.733
			c-0.488-0.493-0.735-1.086-0.735-1.788c0-0.695,0.247-1.289,0.735-1.782C327.25,213.525,327.846,213.281,328.543,213.281z
			 M328.543,216.604c0.259,0,0.463-0.082,0.614-0.244c0.152-0.163,0.228-0.36,0.228-0.594c0-0.234-0.075-0.431-0.228-0.596
			c-0.151-0.161-0.355-0.245-0.614-0.245c-0.231,0-0.431,0.084-0.593,0.245c-0.165,0.165-0.246,0.361-0.246,0.596
			c0,0.233,0.081,0.431,0.246,0.594C328.112,216.521,328.312,216.604,328.543,216.604z M348.593,243.126h-1.712V228.78
			c0-0.839-0.159-1.625-0.474-2.361c-0.315-0.734-0.747-1.376-1.296-1.924c-0.548-0.546-1.191-0.98-1.924-1.296
			c-0.734-0.313-1.524-0.471-2.362-0.471c-0.839,0-1.626,0.158-2.361,0.471c-0.734,0.315-1.377,0.75-1.924,1.296
			c-0.549,0.548-0.979,1.189-1.296,1.924c-0.315,0.736-0.471,1.522-0.471,2.361h-1.681c0-1.071,0.204-2.074,0.611-3.008
			c0.41-0.934,0.964-1.75,1.665-2.449c0.698-0.699,1.513-1.255,2.448-1.662c0.932-0.407,1.935-0.612,3.008-0.612
			c1.072,0,2.082,0.205,3.027,0.612c0.942,0.407,1.765,0.963,2.467,1.662c0.7,0.699,1.252,1.516,1.661,2.449
			c0.408,0.934,0.612,1.937,0.612,3.008V243.126z"/>
		<path fill="#D2D8D7" d="M367.557,243.126h-1.679V230.95c-0.562,0.558-1.237,0.968-2.029,1.225
			c-0.048,0.024-0.124,0.054-0.228,0.086c-0.107,0.034-0.398,0.126-0.876,0.263c-0.478,0.141-1.201,0.352-2.169,0.632
			s-2.339,0.677-4.112,1.19c-0.769,0.254-1.404,0.717-1.905,1.379c-0.502,0.666-0.753,1.43-0.753,2.292
			c0,0.958,0.326,1.767,0.979,2.433c0.652,0.668,1.459,0.999,2.415,0.999h2.447v1.678H357.2c-0.699,0-1.358-0.133-1.975-0.4
			c-0.621-0.268-1.162-0.638-1.63-1.104c-0.467-0.465-0.833-1.012-1.102-1.629c-0.27-0.615-0.404-1.276-0.404-1.977
			c0-1.071,0.293-2.051,0.878-2.938c0.676-1.122,1.633-1.877,2.868-2.272c0.021-0.024,0.099-0.051,0.228-0.09
			c0.127-0.033,0.438-0.121,0.925-0.263c0.493-0.14,1.23-0.354,2.224-0.647c0.991-0.292,2.374-0.702,4.147-1.242
			c0.956-0.324,1.679-0.969,2.168-1.923c0.045-0.116,0.098-0.327,0.157-0.632c0.059-0.301,0.031-0.663-0.088-1.083
			c-0.21-0.606-0.501-1.164-0.872-1.678c-0.376-0.515-0.812-0.958-1.314-1.33c-0.5-0.374-1.055-0.668-1.662-0.875
			c-0.606-0.211-1.247-0.315-1.922-0.315c-0.841,0-1.628,0.158-2.363,0.471c-0.735,0.315-1.377,0.75-1.925,1.296
			c-0.55,0.548-0.979,1.189-1.295,1.924c-0.315,0.736-0.472,1.522-0.472,2.361h-1.682c0-1.071,0.205-2.074,0.614-3.008
			c0.41-0.934,0.964-1.75,1.659-2.449c0.703-0.699,1.519-1.255,2.452-1.662s1.936-0.612,3.011-0.612c0.908,0,1.77,0.146,2.588,0.438
			c0.815,0.291,1.558,0.693,2.222,1.207c0.665,0.512,1.231,1.132,1.694,1.853c0.469,0.728,0.807,1.506,1.017,2.346
			c0.071,0.258,0.124,0.523,0.158,0.806c0.034,0.28,0.052,0.642,0.052,1.083V243.126z"/>
		<path fill="#D2D8D7" d="M365.877,213.702h1.68v2.938v1.678h-1.68h-1.68h-1.681h-7.066v-1.678h7.066v-2.938h1.681v2.938h1.68
			V213.702z"/>
		<path fill="#D2D8D7" d="M379.487,221.049c1.073,0,2.078,0.205,3.009,0.612c0.933,0.407,1.75,0.963,2.451,1.662
			c0.699,0.699,1.252,1.516,1.66,2.449c0.407,0.934,0.614,1.937,0.614,3.008v6.616c0,1.072-0.207,2.073-0.614,3.008
			c-0.408,0.932-0.961,1.75-1.66,2.448c-0.701,0.698-1.519,1.255-2.451,1.661c-0.931,0.41-1.936,0.612-3.009,0.612
			c-1.071,0-2.075-0.202-3.009-0.612c-0.934-0.406-1.748-0.963-2.449-1.661s-1.252-1.517-1.66-2.448
			c-0.409-0.935-0.614-1.936-0.614-3.008v-1.611v-1.677h4.899v1.677h-3.22v1.611c0,0.838,0.155,1.624,0.473,2.358
			c0.316,0.736,0.746,1.376,1.295,1.924c0.547,0.549,1.188,0.98,1.924,1.297s1.522,0.473,2.361,0.473
			c0.84,0,1.629-0.156,2.362-0.473c0.737-0.316,1.375-0.748,1.926-1.297c0.548-0.548,0.979-1.188,1.295-1.924
			c0.313-0.734,0.471-1.521,0.471-2.358v-6.616c0-0.839-0.157-1.625-0.471-2.361c-0.316-0.734-0.747-1.376-1.295-1.924
			c-0.551-0.546-1.188-0.98-1.926-1.296c-0.733-0.313-1.522-0.471-2.362-0.471c-0.839,0-1.626,0.158-2.361,0.471
			c-0.735,0.315-1.377,0.75-1.924,1.296c-0.549,0.548-0.979,1.189-1.295,1.924c-0.317,0.736-0.473,1.522-0.473,2.361h-1.68
			c0-1.071,0.205-2.074,0.614-3.008c0.408-0.934,0.959-1.75,1.66-2.449s1.516-1.255,2.449-1.662S378.416,221.049,379.487,221.049z"
			/>
	</g>
	<g>
		<linearGradient id="SVGID_10_" gradientUnits="userSpaceOnUse" x1="109.0029" y1="202.6436" x2="218.3867" y2="202.6436">
			<stop  offset="0" style="stop-color:#A91F24"/>
			<stop  offset="1" style="stop-color:#E73527"/>
		</linearGradient>
		<path fill="url(#SVGID_10_)" d="M113.029,266.199h102.183c0,0,21.965-128.082-49.661-127.106
			C97.694,140.016,107.3,201.67,113.029,266.199z"/>
		<path fill="#E9B762" d="M176.241,148.387c0,6.326-6.214,11.458-13.871,11.458h-1.544c-7.661,0-13.872-5.132-13.872-11.458v-19.736
			c0-6.33,6.211-11.464,13.872-11.464h1.544c7.657,0,13.871,5.135,13.871,11.464V148.387z"/>
		<path fill="#352215" d="M130.241,64.117v25.037h-5.25l-0.24-24.586C124.75,64.567,128.572,58.704,130.241,64.117z"/>
		<path fill="#352215" d="M193.27,64.117v25.037h-5.253l-0.238-24.586C187.779,64.567,191.597,58.704,193.27,64.117z"/>
		<linearGradient id="SVGID_11_" gradientUnits="userSpaceOnUse" x1="123.2378" y1="86.8853" x2="194.2231" y2="86.8853">
			<stop  offset="0.0032" style="stop-color:#D29B44"/>
			<stop  offset="0.419" style="stop-color:#E7B567"/>
			<stop  offset="0.7636" style="stop-color:#F3C67C"/>
			<stop  offset="0.9875" style="stop-color:#F8CC84"/>
		</linearGradient>
		<path fill="url(#SVGID_11_)" d="M194.223,82.172c0-3.058-1.912-5.7-4.698-7c-0.33-6.834-0.691-13.667-1.03-20.494
			c0,0-5.729-14.906-29.125-15.319c-19.657-0.349-27.514,12.158-29.527,16.169c0.014,0.771,0.018,1.544,0.014,2.316l-0.569-1.093
			l0.565,1.255c-0.014,2.087-0.101,4.173-0.33,6.256c0.078,0.61,0.143,1.201,0.15,1.712c0.059,3.232,0.115,6.474,0.188,9.716
			c-3.791,0.818-6.622,3.927-6.622,7.644c0,3.884,3.077,7.1,7.114,7.742c0.058,1.292,0.115,2.579,0.186,3.871l0.181,22.614
			l0.292-0.709c0.121,1.024,0.33,2.014,0.685,2.95c2.515,6.625,10.433,10.072,17.369,12.387c6.751,2.256,12.632,2.776,19.752,1.665
			c13.105-2.041,22.099-7.397,21.96-20.915c-0.08-8.022-0.321-16.051-0.642-24.077C192.584,87.477,194.223,85.004,194.223,82.172z"
			/>
		<path fill="#352215" d="M181.972,33.091c0,8.572-9.853,15.522-22.011,15.522c-12.153,0-22.008-6.95-22.008-15.522
			c0-8.566,9.854-15.515,22.008-15.515C172.12,17.576,181.972,24.525,181.972,33.091z"/>
		<linearGradient id="SVGID_12_" gradientUnits="userSpaceOnUse" x1="177.4419" y1="408.873" x2="233.9844" y2="408.873">
			<stop  offset="0.0032" style="stop-color:#D29B44"/>
			<stop  offset="0.0757" style="stop-color:#D8A34F"/>
			<stop  offset="0.2682" style="stop-color:#E6B566"/>
			<stop  offset="0.474" style="stop-color:#F0C277"/>
			<stop  offset="0.7005" style="stop-color:#F6CA81"/>
			<stop  offset="0.9875" style="stop-color:#F8CC84"/>
		</linearGradient>
		<path fill="url(#SVGID_12_)" d="M207.117,330.899c0,0-1.028,125.864-1.049,128.188c-0.043,6.384,11.936,9.795,16.202,12.199
			c2.94,1.654,6.183,2.4,8.39,5.146c0.587,0.729,4.742,10.696,2.82,10.406c-10.039-1.484-20.071-3.008-30.109-4.483
			c-5.893-0.867-13.807,0.762-17.753-4.793c-4.141-5.829-1.595-15.073-2.129-21.696c-1.005-12.459-1.592-25.031-1.76-37.529
			l-4.287-77.221L207.117,330.899z"/>
		<path fill="#49443B" d="M235.153,482.771c0,0,4.083,0.737,4.37,2.624c0.285,1.891-0.297,4.394-0.297,4.394l-53.508-2.492
			l0.427-5.039L235.153,482.771z"/>
		<path fill="#49443B" d="M222.271,471.287c0,0,7.925,12.169,5.591,16.02l-4.776,0.066l-3.589-18.098L222.271,471.287z"/>
		<linearGradient id="SVGID_13_" gradientUnits="userSpaceOnUse" x1="97.7915" y1="408.2803" x2="152.3403" y2="408.2803">
			<stop  offset="0.0032" style="stop-color:#D29B44"/>
			<stop  offset="0.419" style="stop-color:#E7B567"/>
			<stop  offset="0.7636" style="stop-color:#F3C67C"/>
			<stop  offset="0.9875" style="stop-color:#F8CC84"/>
		</linearGradient>
		<path fill="url(#SVGID_13_)" d="M122.527,330.131c0,0,2.755,125.84,2.805,128.164c0.133,6.387-11.799,9.958-16.032,12.42
			c-2.914,1.696-6.146,2.489-8.317,5.266c-0.573,0.732-4.594,10.754-2.676,10.442c10.016-1.624,20.026-3.282,30.042-4.895
			c5.881-0.954,13.818,0.571,17.688-5.039c4.057-5.885,1.386-15.089,1.829-21.722c0.836-12.477,1.247-25.051,1.247-37.551
			l3.229-77.271L122.527,330.131z"/>
		<linearGradient id="SVGID_14_" gradientUnits="userSpaceOnUse" x1="110.9614" y1="197.6035" x2="207.3535" y2="197.6035">
			<stop  offset="0" style="stop-color:#A91F24"/>
			<stop  offset="1" style="stop-color:#E73527"/>
		</linearGradient>
		<path fill="url(#SVGID_14_)" d="M142.792,135.847c0,0-3.182,16.553,9.552,19.738c12.73,3.183,24.19-1.276,25.462-10.188v-11.459
			c0,0,18.463,5.729,21.012,8.276l8.537,118.258l-96.392,0.795l11.457-116.506C122.418,144.762,139.61,135.847,142.792,135.847z"/>
		<path fill="#49443B" d="M101.365,479.48c0,0-4.071,0.795-4.334,2.688c-0.261,1.893,0.359,4.384,0.359,4.384l53.465-3.219
			l-0.5-5.035L101.365,479.48z"/>
		<path fill="#49443B" d="M109.299,470.715c0,0-7.754,12.276-5.367,16.095h4.775l3.34-18.142L109.299,470.715z"/>
		<linearGradient id="SVGID_15_" gradientUnits="userSpaceOnUse" x1="116.3403" y1="347.7617" x2="213.7422" y2="347.7617">
			<stop  offset="0" style="stop-color:#C4882B"/>
			<stop  offset="1" style="stop-color:#F1BA32"/>
			<stop  offset="1" style="stop-color:#687533"/>
		</linearGradient>
		<path fill="url(#SVGID_15_)" d="M116.719,273.224c3.09-3.307-0.379,144.65-0.379,144.65s25.782,16.832,41.539-1.201l4.297-120.223
			l7.16,120.223c0,0,37.245,12.022,44.406-2.406l-6.311-143.753L116.719,273.224z"/>
		<linearGradient id="SVGID_16_" gradientUnits="userSpaceOnUse" x1="110.9888" y1="268.1104" x2="211.7393" y2="268.1104">
			<stop  offset="0" style="stop-color:#A91F24"/>
			<stop  offset="1" style="stop-color:#E73527"/>
		</linearGradient>
		<path fill="url(#SVGID_16_)" d="M211.739,268.107c0,4.486-3.487,8.122-7.787,8.122h-85.179c-4.296,0-7.784-3.636-7.784-8.122l0,0
			c0-4.48,3.488-8.116,7.784-8.116h85.179C208.252,259.991,211.739,263.627,211.739,268.107L211.739,268.107z"/>
		<path fill="#352215" d="M144.276,52.009c0,0,28.658,25.322,44.329,20.959c0,0,7.372-0.732,10.227-11.538
			c0,0-7.263-6.051-14.698-14.006C176.696,39.472,130.787,30.222,144.276,52.009z"/>
		<path fill="#352215" d="M129.86,75.691c0,0-0.729-20.318,17.415-25.411c0,0-7.321-6.366-0.315-9.546
			C146.959,40.734,112.762,47.622,129.86,75.691z"/>
		<linearGradient id="SVGID_17_" gradientUnits="userSpaceOnUse" x1="135.3159" y1="45.5645" x2="183.0479" y2="45.5645">
			<stop  offset="0" style="stop-color:#C4882B"/>
			<stop  offset="1" style="stop-color:#F1BA32"/>
			<stop  offset="1" style="stop-color:#687533"/>
		</linearGradient>
		<path fill="url(#SVGID_17_)" d="M137.409,46.461c0,0,12.733,8.917,45.203,0c0,0,3.181-1.91-7.643-3.184c0,0-33.742,5.731-33.742,0
			C141.227,37.548,131.043,42.643,137.409,46.461z"/>
		<g>
			<path fill="#FFFFFF" d="M196.875,275.748c0,4.923-3.99,8.913-8.911,8.913h-49.022c-4.919,0-8.909-3.99-8.909-8.913v-69.075
				c0-4.923,3.99-8.909,8.909-8.909h49.022c4.921,0,8.911,3.986,8.911,8.909V275.748z"/>
			<g>
				<path fill-rule="evenodd" clip-rule="evenodd" fill="#8E8E8E" d="M171.933,226.037c-2.956,2.175-3.05,6.133,0.478,8.248
					c-0.712,1.777-1.516,3.507-3.024,4.8c-0.732,0.63-1.633,0.734-2.486,0.367c-1.574-0.685-3.083-0.779-4.677-0.033
					c-1.053,0.491-2.068,0.24-2.887-0.619c-2.63-2.787-3.923-6.068-3.44-9.915c0.402-3.195,3.495-5.816,7.031-4.201
					c0.95,0.435,1.804,0.349,2.733-0.055c1.76-0.763,3.494-0.71,5.121,0.397C171.169,225.292,171.5,225.653,171.933,226.037z"/>
				<path fill-rule="evenodd" clip-rule="evenodd" fill="#8E8E8E" d="M164.17,223.824c-0.188-2.32,1.583-4.349,3.882-4.524
					C168.514,221.521,166.513,223.899,164.17,223.824z"/>
			</g>
		</g>
		
			<linearGradient id="SVGID_18_" gradientUnits="userSpaceOnUse" x1="-598.4849" y1="233.0195" x2="-516.7597" y2="233.0195" gradientTransform="matrix(-0.9982 0.0605 0.0605 0.9982 -468.1635 19.147)">
			<stop  offset="0.0032" style="stop-color:#D29B44"/>
			<stop  offset="0.419" style="stop-color:#E7B567"/>
			<stop  offset="0.7636" style="stop-color:#F3C67C"/>
			<stop  offset="0.9875" style="stop-color:#F8CC84"/>
		</linearGradient>
		<path fill="url(#SVGID_18_)" d="M110.777,268.097c-7.688-10.696-26.403-55.609-25.162-61.69
			c1.391-6.781,35.331-60.774,35.331-60.774c8.521,13.561,1.189,27.945,1.189,27.945l-17.811,32.653l21.206,54.158
			c0.577-0.224,1.157-0.447,1.737-0.673c2.178,1.33,4.098,3.582,5.23,6.469l2.289,5.823c2.27,5.79,0.552,11.885-3.848,13.608
			l-4.861,1.909c-4.394,1.729-9.802-1.566-12.073-7.354l-2.289-5.823c-0.138-0.354-0.263-0.71-0.374-1.066
			c-0.009,0.003-0.023,0.003-0.035,0.007c0.008-0.009,0.021-0.023,0.028-0.034C110.795,271.489,110.626,269.731,110.777,268.097z"/>
		
			<linearGradient id="SVGID_19_" gradientUnits="userSpaceOnUse" x1="-420.1719" y1="210.2305" x2="-338.4354" y2="210.2305" gradientTransform="matrix(0.9986 0.0523 -0.0523 0.9986 612.5571 26.9031)">
			<stop  offset="0.0032" style="stop-color:#D29B44"/>
			<stop  offset="0.419" style="stop-color:#E7B567"/>
			<stop  offset="0.7636" style="stop-color:#F3C67C"/>
			<stop  offset="0.9875" style="stop-color:#F8CC84"/>
		</linearGradient>
		<path fill="url(#SVGID_19_)" d="M214.979,267.151c7.6-10.755,25.95-55.824,24.654-61.895
			c-1.443-6.771-35.823-60.481-35.823-60.481c-8.412,13.626-0.963,27.953-0.963,27.953l18.08,32.505l-20.763,54.335
			c-0.582-0.224-1.167-0.438-1.748-0.662c-2.165,1.348-4.068,3.616-5.179,6.513l-2.239,5.843
			c-2.224,5.808-0.453,11.885,3.957,13.578l4.879,1.867c4.409,1.691,9.791-1.646,12.016-7.456l2.239-5.843
			c0.137-0.353,0.26-0.707,0.365-1.065c0.012,0.002,0.022,0.006,0.036,0.008c-0.009-0.011-0.019-0.025-0.029-0.038
			C214.986,270.544,215.139,268.787,214.979,267.151z"/>
		<linearGradient id="SVGID_20_" gradientUnits="userSpaceOnUse" x1="110.9888" y1="147.3877" x2="209.3496" y2="147.3877">
			<stop  offset="0" style="stop-color:#C4882B"/>
			<stop  offset="1" style="stop-color:#F1BA32"/>
			<stop  offset="1" style="stop-color:#687533"/>
		</linearGradient>
		<path fill="url(#SVGID_20_)" d="M144.04,131.98c0,0,2.587,19.203,12.679,18.951c10.089-0.249,18.978,3.722,19.843-17.656
			l-0.887-3.157l33.675,10.591c0,0-10.355,28.807-50.906,23.232c-40.552-5.574-47.455-23.232-47.455-23.232L144.04,131.98z"/>
		<linearGradient id="SVGID_21_" gradientUnits="userSpaceOnUse" x1="115.7642" y1="414.4004" x2="158.7368" y2="414.4004">
			<stop  offset="0" style="stop-color:#A91F24"/>
			<stop  offset="1" style="stop-color:#E73527"/>
		</linearGradient>
		<path fill="url(#SVGID_21_)" d="M116.34,417.874l-0.576-13.305c0,0,23.875,17.667,42.973-0.952l-0.857,13.056
			C157.879,416.673,145.567,434.996,116.34,417.874z"/>
		<linearGradient id="SVGID_22_" gradientUnits="userSpaceOnUse" x1="167.8091" y1="414.4004" x2="213.6484" y2="414.4004">
			<stop  offset="0" style="stop-color:#A91F24"/>
			<stop  offset="1" style="stop-color:#E73527"/>
		</linearGradient>
		<path fill="url(#SVGID_22_)" d="M168.424,417.874l-0.615-13.305c0,0,25.464,17.667,45.839-0.952l-0.912,13.056
			C212.736,416.673,199.599,434.996,168.424,417.874z"/>
	</g>
</g>
</svg>
