<?xml version="1.0" encoding="utf-8"?>
<!-- Generator: Adobe Illustrator 16.0.0, SVG Export Plug-In . SVG Version: 6.00 Build 0)  -->
<!DOCTYPE svg PUBLIC "-//W3C//DTD SVG 1.1//EN" "http://www.w3.org/Graphics/SVG/1.1/DTD/svg11.dtd">
<svg version="1.1" id="Layer_1" xmlns="http://www.w3.org/2000/svg" xmlns:xlink="http://www.w3.org/1999/xlink" x="0px" y="0px"
	 width="400px" height="300px" viewBox="0 0 400 300" enable-background="new 0 0 400 300" xml:space="preserve">
<g>
	<g>
		<path fill="#FFFFFF" d="M117.285,260.046l100.913,3.56c0,0,20.634-133.438-47.795-132.239
			C105.57,132.503,115.213,191.504,117.285,260.046z"/>
		
			<linearGradient id="SVGID_1_" gradientUnits="userSpaceOnUse" x1="-193.416" y1="500.248" x2="-137.4355" y2="500.248" gradientTransform="matrix(1 -0.0026 -0.0026 -1 375.7853 904.7006)">
			<stop  offset="0.0032" style="stop-color:#D39C44"/>
			<stop  offset="0.1539" style="stop-color:#DEAB5A"/>
			<stop  offset="0.3298" style="stop-color:#EABA6D"/>
			<stop  offset="0.518" style="stop-color:#F2C47B"/>
			<stop  offset="0.7251" style="stop-color:#F7CB83"/>
			<stop  offset="0.9875" style="stop-color:#F9CD85"/>
		</linearGradient>
		<path fill="url(#SVGID_1_)" d="M210.246,327.682c0,0-0.689,124.615-0.7,126.915c-0.028,6.321,11.841,9.671,16.069,12.039
			c2.91,1.629,6.127,2.357,8.318,5.073c0.582,0.715,4.72,10.57,2.818,10.293c-9.941-1.443-19.88-2.925-29.82-4.363
			c-5.838-0.84-13.666,0.794-17.588-4.694c-4.113-5.762-1.619-14.915-2.164-21.477c-1.029-12.332-1.639-24.775-1.84-37.148
			l-4.445-76.44L210.246,327.682z"/>
		<path fill="#4A443B" d="M236.512,478.916c0,0,4.047,0.721,4.334,2.592c0.287,1.867-0.287,4.348-0.287,4.348l-52.979-2.324
			l0.41-4.989L236.512,478.916z"/>
		
			<linearGradient id="SVGID_2_" gradientUnits="userSpaceOnUse" x1="-272.2681" y1="500.8281" x2="-218.27" y2="500.8281" gradientTransform="matrix(1 -0.0026 -0.0026 -1 375.7853 904.7006)">
			<stop  offset="0.0032" style="stop-color:#D39C44"/>
			<stop  offset="0.1401" style="stop-color:#D9A550"/>
			<stop  offset="0.5004" style="stop-color:#EABA6D"/>
			<stop  offset="0.7957" style="stop-color:#F5C87F"/>
			<stop  offset="0.9875" style="stop-color:#F9CD85"/>
		</linearGradient>
		<path fill="url(#SVGID_2_)" d="M126.495,327.143c0,0,3.057,124.581,3.112,126.885c0.149,6.317-11.654,9.888-15.837,12.338
			c-2.882,1.686-6.079,2.479-8.223,5.232c-0.564,0.729-4.519,10.657-2.621,10.349c9.913-1.638,19.82-3.302,29.733-4.933
			c5.82-0.951,13.678,0.535,17.494-5.032c4.006-5.834,1.336-14.939,1.757-21.512c0.794-12.351,1.165-24.803,1.132-37.179
			l2.995-76.506L126.495,327.143z"/>
		
			<linearGradient id="SVGID_3_" gradientUnits="userSpaceOnUse" x1="-273.7744" y1="585.623" x2="-204.7202" y2="585.623" gradientTransform="matrix(1 -0.0026 -0.0026 -1 375.7853 904.7006)">
			<stop  offset="0" style="stop-color:#A91F24"/>
			<stop  offset="1" style="stop-color:#E83527"/>
		</linearGradient>
		<path fill="url(#SVGID_3_)" d="M116.931,265.768c0,0-33.393,64.377-4.947,95.504c0,0,22.294,28.305,55.307-0.62l2.115-93.606
			L116.931,265.768z"/>
		
			<linearGradient id="SVGID_4_" gradientUnits="userSpaceOnUse" x1="-212.6382" y1="583.7383" x2="-143.5776" y2="583.7383" gradientTransform="matrix(1 -0.0026 -0.0026 -1 375.7853 904.7006)">
			<stop  offset="0" style="stop-color:#A91F24"/>
			<stop  offset="1" style="stop-color:#E83527"/>
		</linearGradient>
		<path fill="url(#SVGID_4_)" d="M213.963,267.4c0,0,33.731,64.196,5.449,95.477c0,0-22.143,28.422-55.309-0.329l-2.611-93.593
			L213.963,267.4z"/>
		<path fill="#EAB862" d="M177.723,134.341c0.017,6.267-6.119,11.363-13.705,11.386l-1.524,0.002
			c-7.582,0.02-13.746-5.045-13.762-11.31l-0.053-19.54c-0.016-6.264,6.122-11.359,13.707-11.381l1.522-0.003
			c7.587-0.021,13.747,5.043,13.764,11.308L177.723,134.341z"/>
		
			<linearGradient id="SVGID_5_" gradientUnits="userSpaceOnUse" x1="-262.394" y1="639.1328" x2="-155.5571" y2="639.1328" gradientTransform="matrix(1 -0.0026 -0.0026 -1 375.7853 904.7006)">
			<stop  offset="0" style="stop-color:#A91F24"/>
			<stop  offset="1" style="stop-color:#E83527"/>
		</linearGradient>
		<path fill="url(#SVGID_5_)" d="M218.566,265.968c0.014,4.439-3.676,8.048-8.233,8.062l-90.323,0.238
			c-4.561,0.012-8.266-3.578-8.28-8.015l0,0c-0.011-4.438,3.676-8.048,8.238-8.058l90.323-0.239
			C214.85,257.941,218.557,261.53,218.566,265.968L218.566,265.968z"/>
		
			<linearGradient id="SVGID_6_" gradientUnits="userSpaceOnUse" x1="-219.8428" y1="582.1719" x2="-193.3726" y2="582.1719" gradientTransform="matrix(1 -0.0026 -0.0026 -1 375.7853 904.7006)">
			<stop  offset="0" style="stop-color:#A91F24"/>
			<stop  offset="1" style="stop-color:#E83527"/>
		</linearGradient>
		<path fill="url(#SVGID_6_)" d="M169.406,267.044l-3.783,0.008c-6.265,0.021-11.328,5.114-11.31,11.378l0.007,2.836
			c0.009,3.84,1.93,7.222,4.856,9.27c-1.408,21.176-3.956,64.47-1.809,71.558c2.86,9.45,8.553,16.997,8.553,16.997
			s9.439-6.642,11.303-17.049l-2.629-70.718c3.687-1.882,6.211-5.706,6.196-10.127l-0.007-2.833
			C180.766,272.093,175.673,267.027,169.406,267.044z"/>
		<path fill="#FFFFFF" d="M146.049,134.741c0,0-3.104,16.396,9.506,19.515c12.616,3.117,23.949-1.326,25.187-10.152l-0.031-11.345
			c0,0,18.293,5.624,20.821,8.138l8.759,117.06l-91.122-0.28l6.734-114.057C125.903,143.619,142.901,134.75,146.049,134.741z"/>
		<path fill="#4A443B" d="M103.108,478.852c0,0-4.029,0.803-4.279,2.673c-0.255,1.872,0.363,4.342,0.363,4.342l52.929-3.33
			l-0.51-4.983L103.108,478.852z"/>
		<path fill="#8F9293" d="M132.927,58.595l0.065,24.786l-5.197,0.013l-0.303-24.339C127.492,59.055,131.258,53.239,132.927,58.595z"
			/>
		<path fill="#8F9293" d="M195.327,58.428l0.065,24.789l-5.201,0.012l-0.299-24.337C189.893,58.892,193.659,53.072,195.327,58.428z"
			/>
		
			<linearGradient id="SVGID_7_" gradientUnits="userSpaceOnUse" x1="-247.5889" y1="824.1895" x2="-177.311" y2="824.1895" gradientTransform="matrix(1 -0.0026 -0.0026 -1 375.7853 904.7006)">
			<stop  offset="0.0032" style="stop-color:#D39C44"/>
			<stop  offset="0.1401" style="stop-color:#D9A550"/>
			<stop  offset="0.5004" style="stop-color:#EABA6D"/>
			<stop  offset="0.7957" style="stop-color:#F5C87F"/>
			<stop  offset="0.9875" style="stop-color:#F9CD85"/>
		</linearGradient>
		<path fill="url(#SVGID_7_)" d="M196.319,76.304c-0.007-3.029-1.908-5.64-4.671-6.92c-0.346-6.766-0.719-13.53-1.072-20.286
			c0,0-5.712-14.744-28.877-15.089c-19.463-0.292-27.207,12.108-29.189,16.084c0.015,0.767,0.022,1.528,0.02,2.293l-0.565-1.083
			l0.563,1.241c-0.006,2.068-0.087,4.134-0.309,6.195c0.076,0.605,0.141,1.191,0.153,1.696c0.065,3.202,0.13,6.41,0.209,9.618
			c-3.756,0.823-6.544,3.906-6.535,7.589c0.01,3.842,3.059,7.02,7.062,7.644c0.059,1.276,0.123,2.553,0.193,3.829l0.241,22.391
			l0.284-0.702c0.125,1.011,0.333,1.987,0.688,2.916c2.505,6.552,10.353,9.945,17.229,12.222c6.688,2.217,12.508,2.715,19.554,1.599
			c12.974-2.058,21.863-7.384,21.691-20.766c-0.099-7.94-0.361-15.891-0.697-23.838C194.713,81.559,196.327,79.104,196.319,76.304z"
			/>
		<path fill="#352215" d="M160.707,30.263c0,0,2.151,18.896-1.521,21.005c-3.672,2.11-23.374,2.515-27.558,8.475
			c-4.191,5.959-14.437,4.938-15.259-8.71c0,0,8.418,5.578,11.031,0.32C130.016,46.094,125.752,23.356,160.707,30.263z"/>
		<path fill="#352215" d="M161.757,30.26c0,0-0.997,19.956,2.687,22.043c3.684,2.091,22.012,0.294,26.228,6.231
			c4.222,5.94,14.462,4.863,15.214-8.791c0,0-8.392,5.624-11.029,0.382C192.21,44.88,196.676,23.167,161.757,30.26z"/>
		<path fill="#4A443B" d="M227.896,465.619c0,0,7.882,12.03,5.578,15.845l-4.729,0.079l-3.602-17.909L227.896,465.619z"/>
		<path fill="#4A443B" d="M116.053,465.35c0,0-7.645,12.176-5.271,15.948l4.725-0.011l3.262-17.971L116.053,465.35z"/>
		<g>
			<g>
				<path fill="#FDFEFF" d="M147.393,95.734c1.744,2.332,2.255,5.186,1.14,6.386l-11.064,12.017
					c-1.108,1.219-3.425,0.309-5.172-2.035l-24.662-33.278c-1.768-2.402-2.297-5.319-1.183-6.518l11.12-11.847
					c1.119-1.179,3.458-0.197,5.218,2.188L147.393,95.734z"/>
				<g>
					<path fill="#8E8E8E" d="M124.683,77.326c-0.117,1.999,1.271,3.937,3.089,3.813c0.419,1.085,0.793,2.178,0.798,3.287
						c0.003,0.538-0.23,0.879-0.619,0.979c-0.72,0.182-1.208,0.626-1.422,1.499c-0.139,0.581-0.538,0.788-1.091,0.638
						c-1.787-0.485-3.347-1.646-4.575-3.66c-1.02-1.67-1.026-3.941,0.621-4.303c0.44-0.1,0.666-0.417,0.802-0.909
						c0.259-0.938,0.802-1.473,1.688-1.461C124.186,77.21,124.415,77.278,124.683,77.326z"/>
					<path fill="#8E8E8E" d="M121.55,78.762c-0.885-1.062-1.077-2.611-0.446-3.439C122.037,76.245,122.282,78.039,121.55,78.762z"/>
				</g>
			</g>
		</g>
		
			<linearGradient id="SVGID_8_" gradientUnits="userSpaceOnUse" x1="-438.2241" y1="844.543" x2="-367.6971" y2="844.543" gradientTransform="matrix(0.9955 0.0948 0.0948 -0.9955 422.3898 1002.637)">
			<stop  offset="0.0032" style="stop-color:#D39C44"/>
			<stop  offset="0.1401" style="stop-color:#D9A550"/>
			<stop  offset="0.5004" style="stop-color:#EABA6D"/>
			<stop  offset="0.7957" style="stop-color:#F5C87F"/>
			<stop  offset="0.9875" style="stop-color:#F9CD85"/>
		</linearGradient>
		<path fill="url(#SVGID_8_)" d="M136.49,90.352l-4.111-3.139c-3.717-2.838-9.762-1.173-13.496,3.719l-3.761,4.923
			c-1.647,2.156-2.563,4.575-2.762,6.852l-36.335,42.576c0,0-5.735,7.052-1.703,11.234c4.033,4.181,50.349,9.854,50.349,9.854
			s5.584-12.13,1.79-18.823l-28.114-3.941l24.941-29.354c0.151,0.151,0.309,0.298,0.457,0.45c0.107-0.116,0.216-0.23,0.317-0.344
			c2.72-0.189,5.629-1.664,7.896-4.198c0.016,0,0.03,0.003,0.045,0.003c-0.008-0.01-0.018-0.015-0.027-0.026
			c0.246-0.272,0.485-0.56,0.712-0.865l3.759-4.919C140.189,99.458,140.206,93.19,136.49,90.352z"/>
		
			<linearGradient id="SVGID_9_" gradientUnits="userSpaceOnUse" x1="-190.4106" y1="693.8262" x2="-109.508" y2="693.8262" gradientTransform="matrix(1 -0.0026 -0.0026 -1 375.7853 904.7006)">
			<stop  offset="0.0032" style="stop-color:#D39C44"/>
			<stop  offset="0.1401" style="stop-color:#D9A550"/>
			<stop  offset="0.5004" style="stop-color:#EABA6D"/>
			<stop  offset="0.7957" style="stop-color:#F5C87F"/>
			<stop  offset="0.9875" style="stop-color:#F9CD85"/>
		</linearGradient>
		<path fill="url(#SVGID_9_)" d="M219.029,261.268c6.927-11.048,22.613-56.599,21.002-62.528
			c-1.793-6.613-38.704-57.843-38.704-57.843c-7.571,13.932,0.567,27.688,0.567,27.688l19.646,31.146l-17.567,54.844
			c-0.586-0.187-1.175-0.367-1.763-0.559c-2.069,1.449-3.825,3.797-4.764,6.724l-1.896,5.895
			c-1.884,5.861,0.197,11.774,4.648,13.205l4.925,1.582c4.45,1.433,9.588-2.159,11.472-8.022l1.896-5.899
			c0.114-0.354,0.214-0.715,0.299-1.071c0.015,0,0.027,0,0.041,0.003c-0.013-0.011-0.021-0.021-0.03-0.032
			C219.225,264.619,219.278,262.873,219.029,261.268z"/>
	</g>
	<g>
		<path fill="#F3AB1D" d="M48.222,219.85c1.978,0.565,3.711,1.484,5.196,2.756c1.484,1.272,2.685,2.793,3.605,4.561
			c0.917,2.051,1.378,4.1,1.378,6.148c0,1.908-0.371,3.711-1.113,5.407c-0.742,1.696-1.749,3.181-3.022,4.453
			c-1.272,1.272-2.757,2.281-4.453,3.023c-1.695,0.741-3.5,1.112-5.408,1.112h-6.892v6.467h-5.089v-6.467H25.32v-0.106
			c-1.908,0-3.709-0.354-5.407-1.062c-1.697-0.705-3.181-1.695-4.454-2.969c-1.271-1.271-2.262-2.757-2.969-4.453
			c-0.707-1.695-1.059-3.498-1.059-5.406h5.089c0,2.477,0.865,4.559,2.597,6.256c1.732,1.695,3.798,2.544,6.203,2.544v0.105h7.104
			h5.089h6.892c2.474,0,4.559-0.864,6.256-2.597c1.696-1.73,2.546-3.833,2.546-6.311c0-2.049-0.62-3.851-1.857-5.406
			c-1.237-1.555-2.774-2.614-4.612-3.182l-0.53-0.105l-1.802-0.424l-21.311-4.984c-0.356-0.068-0.655-0.141-0.903-0.212
			c-0.249-0.071-0.548-0.14-0.901-0.212c-3.888-1.202-6.717-3.641-8.483-7.316c-0.919-1.979-1.377-3.992-1.377-6.043
			c0-1.908,0.352-3.711,1.059-5.408c0.707-1.696,1.698-3.181,2.969-4.453c1.272-1.271,2.757-2.277,4.454-3.021
			c1.698-0.742,3.499-1.113,5.407-1.113h7.104v-6.468h5.089v6.468h6.892c1.908,0,3.712,0.371,5.408,1.113
			c1.696,0.744,3.181,1.75,4.453,3.021c1.273,1.272,2.28,2.757,3.022,4.453c0.742,1.696,1.113,3.5,1.113,5.408h-5.089h-0.105
			c0-1.201-0.232-2.349-0.69-3.445c-0.461-1.095-1.08-2.051-1.855-2.861c-0.778-0.813-1.697-1.449-2.757-1.909
			c-1.061-0.461-2.227-0.69-3.499-0.69h-6.892h-5.089h-7.104c-1.202,0-2.35,0.229-3.446,0.69c-1.097,0.459-2.034,1.097-2.81,1.909
			c-0.777,0.813-1.396,1.748-1.855,2.809s-0.688,2.228-0.688,3.499c0,1.979,0.563,3.73,1.695,5.249
			c1.13,1.521,2.58,2.563,4.347,3.129l1.485,0.317l1.272,0.317l21.737,5.195C47.409,219.637,47.798,219.709,48.222,219.85z"/>
	</g>
	<g>
		<path fill="#F3AB1D" d="M308.412,253.984c1.387,0.396,2.6,1.041,3.639,1.934c1.04,0.889,1.882,1.954,2.524,3.191
			c0.644,1.438,0.966,2.873,0.966,4.306c0,1.338-0.259,2.599-0.779,3.787c-0.52,1.19-1.227,2.229-2.115,3.121
			c-0.892,0.892-1.932,1.596-3.119,2.114c-1.188,0.522-2.45,0.78-3.788,0.78h-4.826v4.529h-3.565v-4.529h-4.976v-0.073
			c-1.336,0-2.599-0.246-3.787-0.742c-1.188-0.494-2.228-1.188-3.119-2.079c-0.89-0.892-1.584-1.931-2.079-3.121
			c-0.496-1.188-0.742-2.449-0.742-3.787h3.565c0,1.733,0.604,3.194,1.818,4.383s2.659,1.783,4.344,1.783v0.073h4.976h3.565h4.826
			c1.732,0,3.192-0.606,4.383-1.818c1.188-1.213,1.782-2.688,1.782-4.421c0-1.433-0.437-2.694-1.301-3.784
			c-0.865-1.09-1.943-1.833-3.23-2.229l-0.371-0.076l-1.263-0.297l-14.927-3.487c-0.248-0.049-0.457-0.101-0.631-0.149
			s-0.385-0.098-0.632-0.148c-2.722-0.84-4.704-2.546-5.939-5.122c-0.646-1.386-0.966-2.794-0.966-4.233
			c0-1.337,0.245-2.599,0.741-3.789c0.495-1.186,1.189-2.228,2.079-3.119c0.893-0.892,1.93-1.596,3.119-2.114
			c1.188-0.521,2.451-0.78,3.787-0.78h4.976v-4.529h3.565v4.529h4.826c1.338,0,2.601,0.26,3.788,0.78
			c1.188,0.52,2.229,1.224,3.12,2.114c0.889,0.893,1.596,1.935,2.114,3.119c0.521,1.19,0.779,2.452,0.779,3.789h-3.563h-0.073
			c0-0.843-0.162-1.646-0.484-2.414c-0.322-0.767-0.754-1.436-1.298-2.004c-0.545-0.57-1.189-1.014-1.932-1.337
			s-1.561-0.483-2.451-0.483h-4.826h-3.565h-4.976c-0.841,0-1.646,0.16-2.412,0.483c-0.77,0.323-1.425,0.767-1.97,1.337
			c-0.543,0.568-0.979,1.225-1.3,1.967c-0.321,0.744-0.48,1.561-0.48,2.451c0,1.385,0.395,2.613,1.186,3.676
			c0.793,1.066,1.81,1.795,3.046,2.191l1.04,0.221l0.892,0.224l15.224,3.64C307.843,253.838,308.114,253.891,308.412,253.984z"/>
	</g>
	<g>
		<path fill="#F3AB1D" d="M64.356,442.173c0.865,0.247,1.623,0.649,2.273,1.207s1.177,1.221,1.58,1.995
			c0.401,0.896,0.602,1.795,0.602,2.691c0,0.835-0.162,1.626-0.488,2.364c-0.324,0.745-0.764,1.396-1.321,1.952
			c-0.558,0.559-1.207,0.998-1.949,1.321c-0.743,0.326-1.532,0.489-2.368,0.489h-3.017v2.831H57.44v-2.831h-3.109v-0.046
			c-0.836,0-1.626-0.155-2.368-0.466c-0.743-0.31-1.393-0.741-1.949-1.3c-0.557-0.557-0.99-1.207-1.298-1.952
			c-0.311-0.738-0.465-1.529-0.465-2.364h2.227c0,1.085,0.379,1.998,1.137,2.737c0.76,0.742,1.664,1.114,2.717,1.114v0.046h3.109
			h2.228h3.017c1.083,0,1.996-0.377,2.738-1.136c0.745-0.759,1.115-1.678,1.115-2.763c0-0.896-0.272-1.687-0.812-2.365
			c-0.542-0.684-1.215-1.146-2.02-1.396l-0.231-0.046l-0.79-0.186l-9.33-2.184c-0.155-0.026-0.285-0.06-0.393-0.09
			c-0.11-0.033-0.241-0.063-0.396-0.096c-1.702-0.524-2.94-1.593-3.713-3.202c-0.403-0.864-0.603-1.745-0.603-2.646
			c0-0.835,0.154-1.623,0.465-2.368c0.309-0.742,0.741-1.393,1.298-1.949c0.556-0.555,1.206-0.995,1.949-1.321
			c0.742-0.326,1.532-0.485,2.368-0.485h3.109v-2.833h2.228v2.833h3.017c0.836,0,1.625,0.159,2.368,0.485
			c0.742,0.326,1.392,0.768,1.949,1.321c0.557,0.558,0.998,1.207,1.321,1.949c0.326,0.745,0.488,1.533,0.488,2.368h-2.228h-0.046
			c0-0.524-0.101-1.027-0.302-1.506c-0.201-0.481-0.472-0.9-0.813-1.257c-0.34-0.354-0.742-0.631-1.206-0.835
			c-0.465-0.201-0.975-0.302-1.532-0.302h-3.017H57.44h-3.109c-0.526,0-1.03,0.101-1.509,0.302c-0.48,0.204-0.891,0.481-1.231,0.835
			c-0.339,0.355-0.61,0.768-0.811,1.231c-0.203,0.462-0.303,0.976-0.303,1.53c0,0.866,0.248,1.634,0.743,2.298
			c0.495,0.668,1.131,1.122,1.903,1.37l0.65,0.139l0.559,0.139l9.514,2.275C63.999,442.08,64.169,442.112,64.356,442.173z"/>
	</g>
	<g>
		<path fill="#F3AB1D" d="M310.146,136.179c0.865,0.248,1.622,0.65,2.273,1.207c0.649,0.556,1.176,1.222,1.578,1.996
			c0.401,0.897,0.603,1.796,0.603,2.69c0,0.836-0.161,1.626-0.486,2.367c-0.323,0.744-0.766,1.394-1.321,1.949
			c-0.559,0.56-1.208,0.999-1.95,1.324s-1.532,0.487-2.367,0.487h-3.018v2.833h-2.228V148.2h-3.109v-0.046
			c-0.834,0-1.624-0.155-2.366-0.463c-0.744-0.311-1.394-0.742-1.951-1.301c-0.556-0.557-0.989-1.207-1.298-1.949
			c-0.312-0.742-0.465-1.532-0.465-2.368h2.228c0,1.084,0.378,1.998,1.138,2.739c0.759,0.742,1.664,1.115,2.716,1.115v0.047h3.108
			h2.229h3.018c1.082,0,1.995-0.379,2.738-1.139c0.743-0.759,1.114-1.679,1.114-2.764c0-0.896-0.271-1.684-0.813-2.365
			s-1.215-1.145-2.019-1.395l-0.232-0.045l-0.789-0.186l-9.329-2.182c-0.154-0.028-0.286-0.063-0.395-0.092
			c-0.108-0.031-0.24-0.062-0.396-0.093c-1.7-0.526-2.938-1.595-3.714-3.202c-0.401-0.867-0.602-1.748-0.602-2.647
			c0-0.836,0.153-1.625,0.465-2.367c0.31-0.742,0.742-1.394,1.298-1.949c0.559-0.557,1.207-0.997,1.951-1.323
			c0.742-0.324,1.532-0.487,2.366-0.487h3.108v-2.83h2.229v2.83h3.018c0.835,0,1.625,0.163,2.367,0.487
			c0.742,0.326,1.393,0.767,1.95,1.323c0.557,0.556,0.998,1.207,1.321,1.949c0.325,0.742,0.486,1.531,0.486,2.367h-2.227h-0.047
			c0-0.524-0.102-1.026-0.302-1.507c-0.201-0.48-0.473-0.897-0.813-1.254c-0.341-0.355-0.743-0.633-1.207-0.836
			c-0.464-0.201-0.975-0.302-1.531-0.302h-3.018h-2.229h-3.108c-0.525,0-1.029,0.101-1.509,0.302c-0.479,0.203-0.89,0.48-1.23,0.836
			c-0.34,0.356-0.611,0.768-0.812,1.23c-0.201,0.463-0.303,0.975-0.303,1.53c0,0.868,0.248,1.633,0.742,2.297
			c0.495,0.667,1.13,1.122,1.903,1.369l0.648,0.14l0.559,0.141l9.515,2.275C309.791,136.088,309.961,136.119,310.146,136.179z"/>
	</g>
	<g>
		<path fill="#F3AB1D" d="M48.531,60.168c0.866,0.248,1.623,0.65,2.274,1.207c0.65,0.556,1.176,1.222,1.579,1.996
			c0.401,0.897,0.604,1.796,0.604,2.69c0,0.836-0.163,1.625-0.488,2.368c-0.323,0.744-0.765,1.395-1.321,1.95
			c-0.559,0.559-1.208,0.999-1.951,1.324c-0.742,0.325-1.532,0.487-2.367,0.487h-3.018v2.833h-2.228V72.19h-3.109v-0.046
			c-0.836,0-1.625-0.155-2.367-0.463c-0.744-0.31-1.394-0.742-1.951-1.301c-0.556-0.556-0.99-1.206-1.298-1.95
			c-0.31-0.742-0.465-1.532-0.465-2.368h2.228c0,1.084,0.378,1.998,1.136,2.74c0.759,0.742,1.664,1.115,2.716,1.115v0.046h3.109
			h2.228h3.018c1.082,0,1.994-0.378,2.738-1.138c0.744-0.758,1.115-1.679,1.115-2.763c0-0.895-0.272-1.683-0.813-2.366
			c-0.542-0.681-1.215-1.146-2.019-1.394l-0.231-0.046l-0.79-0.185l-9.329-2.182c-0.155-0.028-0.287-0.063-0.395-0.092
			c-0.109-0.031-0.241-0.061-0.396-0.092c-1.701-0.526-2.939-1.595-3.712-3.204c-0.404-0.866-0.604-1.746-0.604-2.646
			c0-0.836,0.155-1.625,0.465-2.367c0.309-0.742,0.742-1.395,1.298-1.949c0.557-0.558,1.207-0.997,1.951-1.324
			c0.742-0.323,1.531-0.486,2.367-0.486h3.109v-2.831h2.228v2.831h3.018c0.835,0,1.625,0.163,2.367,0.486
			c0.742,0.328,1.392,0.767,1.951,1.324c0.556,0.556,0.998,1.207,1.321,1.949c0.325,0.742,0.488,1.531,0.488,2.367h-2.228h-0.046
			c0-0.525-0.101-1.026-0.302-1.507c-0.201-0.48-0.472-0.897-0.813-1.253c-0.341-0.355-0.744-0.634-1.206-0.836
			c-0.465-0.202-0.976-0.302-1.532-0.302h-3.018h-2.228h-3.109c-0.526,0-1.029,0.101-1.509,0.302
			c-0.479,0.202-0.889,0.479-1.23,0.836c-0.34,0.356-0.612,0.768-0.812,1.23c-0.201,0.464-0.302,0.975-0.302,1.531
			c0,0.867,0.248,1.633,0.742,2.297c0.495,0.667,1.129,1.122,1.902,1.369l0.651,0.14l0.558,0.14l9.514,2.275
			C48.174,60.077,48.343,60.108,48.531,60.168z"/>
	</g>
	<polygon fill="#78297B" points="225.695,121.98 258.58,88.235 278.482,100.348 301.848,70.927 296.655,68.331 309.636,64.003 
		307.906,76.982 305.31,73.521 281.079,108.136 259.446,96.886 230.887,127.176 	"/>
	<polygon fill="#78297B" points="161.326,157.675 156.67,148.359 172.389,148.359 167.73,158.838 177.045,204.251 165.403,223.463 
		155.505,205.416 	"/>
</g>
</svg>
