<?xml version="1.0" encoding="utf-8"?>
<!-- Generator: Adobe Illustrator 18.0.0, SVG Export Plug-In . SVG Version: 6.00 Build 0)  -->
<!DOCTYPE svg PUBLIC "-//W3C//DTD SVG 1.1//EN" "http://www.w3.org/Graphics/SVG/1.1/DTD/svg11.dtd">
<svg version="1.1" xmlns="http://www.w3.org/2000/svg" xmlns:xlink="http://www.w3.org/1999/xlink" x="0px" y="0px"
	 viewBox="0 0 906.8 501.6" enable-background="new 0 0 906.8 501.6" xml:space="preserve">
<g id="BG_back">
	
		<radialGradient id="SVGID_1_" cx="275.5514" cy="207.4369" r="551.9601" gradientTransform="matrix(1 0 0 0.5606 0 91.144)" gradientUnits="userSpaceOnUse">
		<stop  offset="0" style="stop-color:#FFFFFF"/>
		<stop  offset="1" style="stop-color:#FAFAFA"/>
	</radialGradient>
	<rect x="0" y="0" opacity="0.8" fill="url(#SVGID_1_)" width="903.1" height="438.9"/>
</g>
<g id="man_and_clock">
	<g id="Layer_3">
		<polyline fill="#F9C491" points="639.3,360.9 631.1,326.4 652,324.4 639.3,360.9 		"/>
		<polygon points="538.6,420.9 538.6,438.6 641.3,438.6 641.3,418.5 592.1,395.8 		"/>
		<path fill="#F9F9F9" d="M521.7,295.5L624.1,285c-4.2,31.1,27.2,116.9,27.2,116.9l-21,23l-38.9-17.3l-29.8,29.4l-23.9-11.2
			C537.7,425.9,533.5,340.6,521.7,295.5z"/>
		<path d="M441.9,195.1c0,0-28.7-100,88.4-122.7c117.1-22.7,127.6,80.8,127.6,80.8L441.9,195.1z"/>
		<path d="M657.9,153.2c-2.6-61.1-17.6-75.3-17.6-75.3c1.1,10.9-9.3,18.1-9.3,18.1c3.8-21.3-5.3-26.4-5.3-26.4
			c3.9,9.9-6.2,16.4-6.2,16.4c2.3-17.3-9.1-22.6-9.1-22.6c4.4,10.3-2.8,15.5-2.8,15.5c4.7-5.8-5.6-16.1-5.6-16.1
			c-0.6,6.9-9,10.5-9,10.5c3.1-9.1-2.5-12.5-2.5-12.5c1.9,4.8-8.8,10-8.8,10c-0.3-8.3-11.1-12.8-11.1-12.8
			c4.6,6.3-3.5,11.3-3.5,11.3c1.2-11.9-8.1-13.4-8.1-13.4c4.6,8.8-6.1,13.6-6.1,13.6c-1.8-14.4-12.1-14.9-12.1-14.9
			c3.4,5.1-2.6,16.3-2.6,16.3c-1.5-10.1-16.6-16.5-16.6-16.5c5.8,4.2,3.2,24.6,3.6,19c0.4-5.6-14.5-14.9-14.5-14.9
			c-8.5,3.6-7,21.3-7,21.3c-6.5-3.5-3.7-19.2-3.7-19.2c-10.2,4.9-7,23.7-7,23.7c-7.7-4.8-3.5-18.2-3.5-18.2
			c-17,7.2-11.7,26.9-11.7,26.9c-8.2-4.8-3.7-19.1-3.7-19.1c-12.2,7.2-8.5,29-8.5,29c-7.3-4.7-5.6-16.7-5.6-16.7
			c-11.6,7.4-3.9,27.6-3.9,27.6c-6.9-3-6.9-13.2-6.9-13.2c-8.5,13.8-0.8,25.8-0.8,25.8c-8-1.4-7-11.2-7-11.2
			c-7,9.1-2.6,21.8-2.6,21.8c-5-0.7-4.9-7.8-4.9-7.8c-5.8,7.4,2.2,23.8,2.2,23.8c-10.3-0.9-12.3-6.7-12.3-6.7
			c1.3,21.6,18.3,48.9,18.3,48.9"/>
		<path fill="#FFDAA9" d="M443.8,201.5c0,0,15.7,117.7,133.4,94.9c117.7-22.8,82.6-136.8,82.6-136.8S551.3,102.9,443.8,201.5z"/>
		<path fill="#FFDAA9" d="M448.8,212.2c0,0-33.8,7.8,13.3,40.5L448.8,212.2z"/>
		<path fill="#FFDAA9" d="M660.9,170.1c0,0,34.3-5.4,2.8,42.6L660.9,170.1z"/>
		<g>
			<path d="M493.9,223.8c0,0-0.1-0.8,0.1-2.2c0.1-1.4,0.5-3.5,1.4-5.8c0.4-1.2,1.1-2.4,1.8-3.7c0.8-1.3,1.8-2.5,3-3.7
				c0.3-0.3,0.6-0.6,1-0.9c0.3-0.3,0.7-0.5,1.1-0.8c0.7-0.5,1.5-1,2.3-1.4c1.6-0.8,3.5-1.2,5.3-1.5c0.9-0.1,1.8-0.1,2.7-0.1
				c0.5,0,0.9,0,1.3,0.1l1.3,0.2c1.7,0.3,3.3,0.9,4.8,1.5c0.8,0.3,1.4,0.7,2.1,1c0.7,0.4,1.3,0.7,1.9,1.1c0.6,0.4,1.2,0.8,1.7,1.2
				c0.5,0.4,1,0.8,1.5,1.2c1,0.8,1.7,1.6,2.4,2.3c0.7,0.7,1.2,1.4,1.7,1.9c0.5,0.5,0.8,1,1,1.3c0.2,0.3,0.3,0.5,0.3,0.5
				s-0.2-0.1-0.6-0.2c-0.3-0.1-0.9-0.3-1.5-0.6c-0.6-0.3-1.4-0.6-2.3-1c-0.9-0.4-1.8-0.8-2.9-1.2c-1.1-0.4-2.2-0.9-3.4-1.3
				c-0.3-0.1-0.6-0.2-0.9-0.3c-0.3-0.1-0.6-0.2-0.9-0.3c-0.6-0.2-1.2-0.4-1.9-0.6c-1.3-0.3-2.6-0.6-3.9-0.8l-1-0.1c-0.3,0-0.6,0-1,0
				c-0.7-0.1-1.3,0-1.9,0.1c-1.2,0.2-2.5,0.4-3.6,0.9c-1.1,0.5-2.3,1-3.3,1.7c-1,0.7-2,1.5-2.8,2.4c-0.9,0.9-1.7,1.7-2.4,2.6
				c-1.4,1.7-2.5,3.3-3.3,4.5c-0.4,0.6-0.7,1-0.9,1.4C494,223.7,493.9,223.8,493.9,223.8z"/>
		</g>
		<g>
			<path d="M581.5,206.8c0,0-0.1-0.8,0.1-2.2c0.1-1.4,0.5-3.5,1.4-5.8c0.4-1.2,1.1-2.4,1.8-3.7c0.8-1.3,1.8-2.5,3-3.7
				c0.3-0.3,0.6-0.6,1-0.9c0.3-0.3,0.7-0.5,1.1-0.8c0.7-0.5,1.5-1,2.3-1.4c1.6-0.8,3.5-1.2,5.3-1.5c0.9-0.1,1.8-0.1,2.7-0.1
				c0.5,0,0.9,0,1.3,0.1l1.3,0.2c1.7,0.3,3.3,0.9,4.8,1.5c0.8,0.3,1.4,0.7,2.1,1c0.7,0.4,1.3,0.7,1.9,1.1c0.6,0.4,1.2,0.8,1.7,1.2
				c0.5,0.4,1,0.8,1.5,1.2c1,0.8,1.7,1.6,2.4,2.3c0.7,0.7,1.2,1.4,1.7,1.9c0.5,0.5,0.8,1,1,1.3c0.2,0.3,0.3,0.5,0.3,0.5
				s-0.2-0.1-0.6-0.2c-0.3-0.1-0.9-0.3-1.5-0.6c-0.6-0.3-1.4-0.6-2.3-1c-0.9-0.4-1.8-0.8-2.9-1.2c-1.1-0.4-2.2-0.9-3.4-1.3
				c-0.3-0.1-0.6-0.2-0.9-0.3c-0.3-0.1-0.6-0.2-0.9-0.3c-0.6-0.2-1.2-0.4-1.9-0.6c-1.3-0.3-2.6-0.6-3.9-0.8l-1-0.1c-0.3,0-0.6,0-1,0
				c-0.7-0.1-1.3,0-1.9,0.1c-1.2,0.2-2.5,0.4-3.6,0.9c-1.1,0.5-2.3,1-3.3,1.7c-1,0.7-2,1.5-2.8,2.4c-0.9,0.9-1.7,1.7-2.4,2.6
				c-1.4,1.7-2.5,3.3-3.3,4.5c-0.4,0.6-0.7,1-0.9,1.4C581.7,206.7,581.5,206.8,581.5,206.8z"/>
		</g>
		<g>
			<path fill="#FFB888" d="M572.4,261.8c0,0,0.5,0.4,1.3,1.1c0.8,0.7,2,1.6,3.3,2.7c0.7,0.5,1.4,1.1,2.1,1.6c0.7,0.5,1.6,1,2.4,1.5
				c0.8,0.4,1.6,0.8,2.5,1.1c0.8,0.2,1.6,0.4,2.4,0.4c0.8,0.1,1.5-0.1,2.3-0.3c0.8-0.3,1.6-0.6,2.4-1.1c0.4-0.2,0.8-0.4,1.2-0.7
				c0.4-0.3,0.8-0.5,1.1-0.8c0.4-0.3,0.7-0.6,1.1-0.8c0.3-0.3,0.7-0.6,1-0.8c0.7-0.5,1.2-1.1,1.8-1.5c0.6-0.5,1-0.9,1.4-1.2
				c0.4-0.4,0.7-0.6,1-0.8c0.2-0.2,0.4-0.3,0.4-0.3s0,0.2-0.1,0.4c-0.1,0.3-0.1,0.7-0.2,1.2c-0.1,0.5-0.3,1.2-0.5,1.9
				c-0.3,0.7-0.5,1.5-1,2.4c-0.2,0.4-0.4,0.9-0.7,1.3c-0.3,0.4-0.6,0.9-0.9,1.3c-0.3,0.5-0.7,0.9-1.1,1.4c-0.4,0.5-0.8,0.9-1.3,1.3
				c-0.9,0.9-2.1,1.6-3.5,2.2c-1.4,0.5-2.9,0.9-4.5,0.9c-1.6-0.1-3.1-0.4-4.4-1c-1.3-0.6-2.4-1.4-3.4-2.2c-1.9-1.7-3.2-3.6-4.1-5.2
				c-0.9-1.7-1.4-3.2-1.6-4.2c-0.1-0.5-0.2-1-0.2-1.2C572.4,261.9,572.4,261.8,572.4,261.8z"/>
		</g>
		<path d="M441.9,195.1l8.1,30.3c0,0-2.6-23,5.7-34.3C464.1,179.9,441.9,195.1,441.9,195.1z"/>
		<path d="M656.1,125.8l6,55.4c0,0-6.2-22.3-18.1-29.6C632,144.2,656.1,125.8,656.1,125.8z"/>
		<path fill="#F9F9F9" d="M618.9,327.3l47.7-1.3c0,0,2-39.9-22.5-43.4C619.7,279,618.5,307.3,618.9,327.3z"/>
		<ellipse fill="#FFDAA9" cx="659.9" cy="349.1" rx="24.2" ry="22.7"/>
		<path fill="#FFDAA9" d="M669.8,333.2c0,0,24-46.5,8.7-48c-15.4-1.5-19.1,37.3-19.1,37.3s-4.1-42.6-17.8-40.3
			c-13.7,2.3,2.8,51,2.8,51S659.3,357.9,669.8,333.2z"/>
		<path fill="#FFCC8F" d="M644.9,333.8c0,0,23.7,9.3,15.9,16.2c-7.8,7-11.2,5.6-21.6-2.7C628.8,339,644.9,333.8,644.9,333.8z"/>
		<path fill="#FFD19F" d="M645.8,332.6c0,0,23.7,9.3,15.9,16.2c-7.8,7-11.2,5.6-21.6-2.7C629.7,337.9,645.8,332.6,645.8,332.6z"/>
		<path fill="#FFCC8F" d="M684.1,333.6c0,0-9.3,23.7-16.3,15.9c-7-7.8-5.6-11.2,2.7-21.6C678.9,317.5,684.1,333.6,684.1,333.6z"/>
		<path fill="#FFD19F" d="M684.1,331.7c0,0-9.3,23.7-16.3,15.9c-7-7.8-5.6-11.2,2.7-21.6C678.9,315.6,684.1,331.7,684.1,331.7z"/>
		<path fill="#FFCC8F" d="M681.8,336.7c0,0-9.4-0.6-14,10.9l2.3,3.4C670.1,351,681.9,340.4,681.8,336.7z"/>
		<path fill="#FFCC8F" d="M689.6,349.7c0,0-15,20.6-19.7,11.3c-4.8-9.3-2.6-12.2,8.1-20.2C688.6,332.8,689.6,349.7,689.6,349.7z"/>
		<path fill="#FFD19F" d="M689.6,347.8c0,0-15,20.6-19.7,11.3c-4.8-9.3-2.6-12.2,8.1-20.2C688.6,330.8,689.6,347.8,689.6,347.8z"/>
		<polygon fill="#FFD19F" points="566.9,294.6 584.7,313.1 602.1,295.2 		"/>
		<polygon fill="#F9F9F9" points="566.9,294.6 550.3,291.4 584.7,313.1 		"/>
		<polygon fill="#F9F9F9" points="602.1,295.2 618.7,292 584.3,313.8 		"/>
		<path fill="#F9F9F9" d="M600,324h22.6c0,0,6.9,25.1-11.3,25.1C593.1,349.1,600,324,600,324z"/>
		<line fill="#F9F9F9" stroke="#F9F9F9" stroke-width="4" stroke-miterlimit="10" x1="584.3" y1="313.8" x2="582.7" y2="408.1"/>
		<path fill="#FFDAA9" d="M500.3,333.1c0,0,3.6,44.3,6.4,49.2c2.8,4.8,58.3,15.2,58.3,15.2l-9.8-24.3l-28.8-4.9l-1.8-38.9
			L500.3,333.1z"/>
		<path fill="#F9F9F9" d="M488,340.9l50.2,0.8c0,0,4.2-41.8-21.3-46.6C491.5,290.3,488.6,319.9,488,340.9z"/>
	</g>
	<g id="Layer_2">
		<rect x="676.4" y="163.8" fill="#EFEFEF" width="26.6" height="27.1"/>
		<rect x="689.7" y="163.8" fill="#D8D8D8" width="13.3" height="27.1"/>
		<path fill="#FFC639" d="M689.6,187.1c-85.2,0-154.2,69-154.2,154.2c0,37,13,71,34.8,97.5H809c21.7-26.6,34.8-60.5,34.8-97.5
			C843.8,256.2,774.7,187.1,689.6,187.1z"/>
		<path fill="#F2B52F" d="M689.6,187.1v251.7H809c21.7-26.6,34.8-60.5,34.8-97.5C843.8,256.2,774.7,187.1,689.6,187.1z"/>
		<path fill="#E29700" d="M796.5,438.9c22-25.2,35.4-58.1,35.4-94.2c0-79.1-64.1-143.2-143.2-143.2c-79.1,0-143.2,64.1-143.2,143.2
			c0,36.1,13.3,69,35.4,94.2H796.5z"/>
		<path fill="#CC870E" d="M689.6,201.5v237.4h107c22-25.2,35.4-58.1,35.4-94.2C831.9,265.9,768.2,202,689.6,201.5z"/>
		<path fill="#FFFFFF" d="M595.5,438.9h188.1c24.5-24.2,39.7-57.9,39.7-95.1c0-73.9-59.9-133.7-133.7-133.7S555.8,270,555.8,343.8
			C555.8,381,571,414.6,595.5,438.9z"/>
		<rect x="658.4" y="141.8" fill="#F4F4F4" width="62.3" height="22"/>
		<rect x="689.6" y="141.8" fill="#E2E2E2" width="31.1" height="22"/>
		<path fill="#F9F9F9" d="M689.6,210.1v228.8h94.1c24.5-24.2,39.7-57.9,39.7-95.1C823.3,270,763.4,210.1,689.6,210.1z"/>
		<circle fill="#2D2D2D" cx="690" cy="339" r="14.6"/>
		<path fill="#2D2D2D" d="M616,295.1c0,0,78.4,50.9,80.5,50.2c2-0.7,5.4-6.1,3.9-8.4C698.9,334.6,623.2,298.1,616,295.1z"/>
		<path fill="#2D2D2D" d="M789.1,281.4c0,0-105.6,54.3-106,57c-0.5,2.7,3.3,9.8,6.8,9.6C693.4,347.7,781.3,287.3,789.1,281.4z"/>
		<path fill="#2D2D2D" d="M692.9,229c0,1.9-1.5,3.4-3.4,3.4l0,0c-1.9,0-3.4-1.5-3.4-3.4v-13.8c0-1.9,1.5-3.4,3.4-3.4l0,0
			c1.9,0,3.4,1.5,3.4,3.4V229z"/>
		<path fill="#2D2D2D" d="M564.9,342.4c-1.9,0-3.4-1.5-3.4-3.4l0,0c0-1.9,1.5-3.4,3.4-3.4h13.8c1.9,0,3.4,1.5,3.4,3.4l0,0
			c0,1.9-1.5,3.4-3.4,3.4H564.9z"/>
		<path fill="#2D2D2D" d="M802.4,342.4c-1.9,0-3.4-1.5-3.4-3.4l0,0c0-1.9,1.5-3.4,3.4-3.4h13.8c1.9,0,3.4,1.5,3.4,3.4l0,0
			c0,1.9-1.5,3.4-3.4,3.4H802.4z"/>
		<path fill="#4C4C4C" d="M782.6,289.5c-1.6,0.9-3.7,0.4-4.6-1.2l0,0c-0.9-1.6-0.4-3.7,1.2-4.6l11.9-6.9c1.6-0.9,3.7-0.4,4.6,1.2
			l0,0c0.9,1.6,0.4,3.7-1.2,4.6L782.6,289.5z"/>
		<path fill="#4C4C4C" d="M580.1,400.2c-1.6,0.9-3.7,0.4-4.6-1.2l0,0c-0.9-1.6-0.4-3.7,1.2-4.6l11.9-6.9c1.6-0.9,3.7-0.4,4.6,1.2
			l0,0c0.9,1.6,0.4,3.7-1.2,4.6L580.1,400.2z"/>
		<path fill="#4C4C4C" d="M747.1,248.6c-0.9,1.6-3,2.2-4.6,1.2l0,0c-1.6-0.9-2.2-3-1.2-4.6l6.9-11.9c0.9-1.6,3-2.2,4.6-1.2l0,0
			c1.6,0.9,2.2,3,1.2,4.6L747.1,248.6z"/>
		<path fill="#4C4C4C" d="M638.7,245.2c0.9,1.6,0.4,3.7-1.2,4.6l0,0c-1.6,0.9-3.7,0.4-4.6-1.2l-6.9-11.9c-0.9-1.6-0.4-3.7,1.2-4.6
			l0,0c1.6-0.9,3.7-0.4,4.6,1.2L638.7,245.2z"/>
		<path fill="#4C4C4C" d="M598.8,283.6c1.6,0.9,2.2,3,1.2,4.6l0,0c-0.9,1.6-3,2.2-4.6,1.2l-11.9-6.9c-1.6-0.9-2.2-3-1.2-4.6l0,0
			c0.9-1.6,3-2.2,4.6-1.2L598.8,283.6z"/>
		<path fill="#4C4C4C" d="M804,394.4c1.6,0.9,2.2,3,1.2,4.6l0,0c-0.9,1.6-3,2.2-4.6,1.2l-11.9-6.9c-1.6-0.9-2.2-3-1.2-4.6l0,0
			c0.9-1.6,3-2.2,4.6-1.2L804,394.4z"/>
		<path fill="#4C4C4C" d="M751,438.9h7.8l-3.6-6.3c-0.9-1.6-3-2.2-4.6-1.2c-1.6,0.9-2.2,3-1.2,4.6L751,438.9z"/>
		<path fill="#4C4C4C" d="M626.3,438.9l2.5-4.3c0.9-1.6,0.4-3.7-1.2-4.6c-1.6-0.9-3.7-0.4-4.6,1.2l-4.4,7.7H626.3z"/>
	</g>
	<g id="Layer_4">
		<path fill="#FFDAA9" d="M536.8,369.3c0,0-1.5-11.8,9.5-13.5c11-1.7,28.1-3.4,28.9,1.1c0.9,4.9,1.8,6.4-10.6,8.6
			c0,0,14.2-2.8,15.6,1c2,5.4-1.3,6.8-12.9,9.5c0,0,11.9-4.4,13.1,2.2c1.1,6.5-2.5,5.7-11.9,7.2c-9.4,1.5,11.6-4.2,12.1,4.5
			c0.5,8.7-26.1,11.4-36.1,11C544.5,400.9,535.1,377.9,536.8,369.3z"/>
		<path fill="#FFDAA9" d="M772.3,203.6c-5.1-6-22.1-14-29.4-8.9c-2.7,3.1-4.1,5.9-7.1,11.8l0,0c0,0-20.9,27.9-14.9,31.4
			c5.3,3.1,10.3,0.2,18.7-14c-1.2,2.6-1,4.1,2.3,5.8c2.9,1.5,5.3-1.1,6.8-3.7c-2.7,6.3-2.5,8.7,1.6,10c2.8,0.9,7.1-6.5,8.7-9.4
			c-4.8,9-6.2,10.4-2.4,12.4c3.7,1.9,15.1-12.5,20-21.2C781.5,209,772.3,203.6,772.3,203.6z"/>
	</g>
</g>
<g id="text">
	<rect x="118.8" y="105.5" fill="none" width="236.8" height="59.7"/>
	<text transform="matrix(1 0 0 1 118.8101 156.8237)" font-family="'WDBBangna'" font-size="70">ประกาศ</text>
	<rect x="49.6" y="203.1" fill="none" width="363.5" height="91.3"/>
	<text transform="matrix(1 0 0 1 99.5689 226.5479)"><tspan x="0" y="0" font-family="'WDBBangna'" font-size="32">ขยายเวลารับสมัครถึง </tspan><tspan x="-4" y="57.6" font-family="'supermarket'" font-size="48">28 มีนาคม 2558</tspan></text>
	<g>
		<rect x="58.3" y="324.9" fill="none" width="346.1" height="48.5"/>
		<text transform="matrix(1 0 0 1 130.3545 341.0713)" fill="#10A1B0" font-family="'WDBBangna'" font-size="22">สมัครเข้าร่วมกันเยอะๆนะ</text>
	</g>
</g>
<g id="BG_front__x2B__text">
	<rect x="3.7" y="437.1" fill="#CB4C35" width="903.1" height="57"/>
	<rect x="25.2" y="458" fill="none" width="870.9" height="43.6"/>
	<text transform="matrix(1 0 0 1 25.2188 474.877)" fill="#FFFFFF" font-family="'supermarket'" font-size="27">ทางทีมงานขอเปลี่ยนแปลงวันจัดค่ายเป็นวันที่ 2-4 พฤษภาคม 2558  ขออภัยในความไม่สะดวกครับ</text>
</g>
</svg>
