<?xml version="1.0" encoding="utf-8"?>
<!-- Generator: Adobe Illustrator 16.0.0, SVG Export Plug-In . SVG Version: 6.00 Build 0)  -->
<!DOCTYPE svg PUBLIC "-//W3C//DTD SVG 1.1//EN" "http://www.w3.org/Graphics/SVG/1.1/DTD/svg11.dtd">
<svg version="1.1" id="Layer_1" xmlns="http://www.w3.org/2000/svg" xmlns:xlink="http://www.w3.org/1999/xlink" x="0px" y="0px"
	 width="1366px" height="1600px" viewBox="0 0 1366 1600" enable-background="new 0 0 1366 1600" xml:space="preserve">
<g>
	<defs>
		<polygon id="SVGID_1_" points="1391.214,1957.625 -8.787,1957.625 -4.229,417.72 1379.962,417.72 		"/>
	</defs>
	<clipPath id="SVGID_2_">
		<use xlink:href="#SVGID_1_"  overflow="visible"/>
	</clipPath>
	<linearGradient id="SVGID_3_" gradientUnits="userSpaceOnUse" x1="656.1289" y1="-119.8696" x2="731.9776" y2="2964.7053">
		<stop  offset="0" style="stop-color:#038E8B"/>
		<stop  offset="0.5742" style="stop-color:#714492"/>
		<stop  offset="1" style="stop-color:#714492"/>
	</linearGradient>
	<path clip-path="url(#SVGID_2_)" fill="url(#SVGID_3_)" d="M1384.296,120.323L0.105,126.475l-18.978,1430.521l-4.013,3.281
		l0.672,105.875l3.341,2.51v25.792h13.835l0.736,5.425l0.415,0.259c-0.293,1.767-0.587,3.536-0.881,5.304
		c-0.797,4.797-1.971,9.385-3.471,13.712c-0.146,59.812-0.206,119.624-0.225,179.437c12.074-15.729,29.015-38.754,37.607-54.813
		c0,0-39.062-67.56-13.521-90.605c7.393-6.63,11.907-13.228,14.606-19.263l30.547-0.352c2.882,6.641,7.962,14.146,16.764,21.682
		c26.013,22.405-1.584,91.695-1.584,91.695l55.237,78.661l51.325-72.382l-14.972-79.139c0,0,10.819-22.803,16.612-41.942l11.8-0.138
		c1.364,0.953,2.691,1.974,3.972,3.076l30.28-0.347c6.354,18.101,16.328,37.833,16.328,37.833l-14.198,79.568l53.515,71.156
		l55.402-80.018c0,0-29.231-68.652-2.868-91.619c7.29-6.345,12.025-12.604,15.074-18.346l41.083-0.476
		c2.847,5.972,7.559,12.462,15.214,18.923c26.467,22.41-12.581,90.889-12.581,90.889c14.945,26.27,53.525,71.131,53.525,71.131
		l55.431-72.357c0,0-35.795-67.653-9.467-90.609c7.747-6.757,12.57-13.365,15.539-19.334l40.2-0.468
		c2.788,6.234,7.582,13.077,15.639,19.88c26.448,22.369-8.871,91.708-8.871,91.708l53.53,73.073l52.532-68.613
		c0,0-40.245-67.484-13.894-90.502c11.116-9.683,16.231-19.166,18.442-26.902l52.616-0.605c2.271,7.678,7.402,17.03,18.389,26.445
		c26.016,22.42-12.339,90.878-12.339,90.878l52.238,67.355l51.304-74.21c0,0-35.454-68.611-9.918-91.543
		c7.795-7,12.393-13.956,15.033-20.254l39.292-0.453c2.984,5.893,7.778,12.37,15.413,18.928c26.03,22.395-8.015,90.787-8.015,90.787
		l55.123,71.131c0,0,37.13-45.721,51.358-72.308c0,0-39.063-67.56-13.521-90.604c7.392-6.632,11.906-13.229,14.605-19.264
		l30.546-0.352c2.883,6.641,7.962,14.146,16.763,21.684c26.015,22.403-1.581,91.691-1.581,91.691l55.235,78.663l51.325-72.382
		l-14.97-79.139c0,0,10.818-22.803,16.611-41.942l40.109-0.466c2.121-1.067,4.299-1.863,6.503-2.362l6.684,0.079
		c5.791,19.139,16.611,41.943,16.611,41.943l-14.972,79.137l51.326,72.383l55.235-78.664c0,0-27.597-69.287-1.582-91.692
		c8.801-7.536,13.881-15.044,16.763-21.682l30.545,0.353c2.701,6.035,7.216,12.631,14.607,19.262
		c25.543,23.043-13.52,90.605-13.52,90.605c8.591,16.061,25.532,39.082,37.607,54.813c-0.02-59.813-0.08-119.621-0.226-179.436
		c-1.5-4.327-2.675-8.918-3.472-13.712c-0.015-0.087-0.029-0.17-0.042-0.254h3.739L1384.296,120.323z"/>
</g>
<path fill="#3B2262" d="M1200.316,300.275l-2.214,17.846l-2.69,2.932l-7.592,10.707v3.186h-4.901c0,0-1.582-1.402-1.582-2.42
	c0-1.02-1.265,2.549-0.95,2.932c0.317,0.383-0.395-0.318-0.395-0.318l0.395,0.318h-6.801c0,0-1.898-1.531-1.105-3.188
	c0.79-1.658-4.904,4.207-3.48,4.971v7.139h-2.688v26.131l-2.368,4.334l73.562,15.705l-3.184-20.039v-26.131h-2.69v-7.139
	c1.425-0.764-4.271-6.629-3.479-4.971c0.791,1.656-1.106,3.188-1.106,3.188h-6.802l0.396-0.318c0,0-0.713,0.701-0.396,0.318
	s-0.948-3.951-0.948-2.932c0,1.018-1.582,2.42-1.582,2.42h-4.902v-3.186l-7.592-10.707l-2.689-2.932L1200.316,300.275"/>
<g>
	<linearGradient id="SVGID_4_" gradientUnits="userSpaceOnUse" x1="436.4175" y1="408.6855" x2="438.5611" y2="301.5067">
		<stop  offset="0" style="stop-color:#712878"/>
		<stop  offset="1" style="stop-color:#DC5F75"/>
	</linearGradient>
	<polygon opacity="0.5" fill="url(#SVGID_4_)" points="849.105,351.092 834.031,331.531 834.031,305.445 808.907,305.445 
		808.907,338.051 783.789,338.051 783.789,305.445 768.716,305.445 768.716,280.955 753.646,281.758 753.646,357.611 
		738.568,357.611 738.568,318.486 738.572,306.873 721.824,289.486 708.425,306.873 708.425,311.969 683.995,325.938 
		663.752,298.627 634.952,331.527 592.866,315.229 592.866,296.217 567.744,309.066 567.744,357.611 542.624,357.611 
		542.624,331.531 487.356,331.531 487.356,351.092 455.536,351.092 455.536,265.598 437.113,265.598 437.113,240.236 
		417.571,240.236 417.571,268.498 406.968,268.498 406.968,357.611 381.845,357.611 381.845,315.229 319.041,315.229 
		286.383,357.611 286.383,325.01 261.261,325.01 261.261,285.883 226.093,285.883 226.093,351.092 185.898,351.092 185.898,292.4 
		170.825,292.4 170.825,265.596 155.753,239.514 140.682,265.596 140.682,311.969 100.484,311.969 100.484,338.051 89.321,338.051 
		89.321,253.279 65.316,253.279 65.316,338.051 50.243,338.051 50.243,266.322 20.096,266.322 20.096,325.01 0,325.01 0,422.82 
		874.227,422.82 874.227,311.969 849.105,311.969 	"/>
	
		<linearGradient id="SVGID_5_" gradientUnits="userSpaceOnUse" x1="1004.7676" y1="409.0786" x2="1007.2133" y2="286.7947" gradientTransform="matrix(-1 0 0 1 2133.2227 0)">
		<stop  offset="0" style="stop-color:#712878"/>
		<stop  offset="1" style="stop-color:#DC5F75"/>
	</linearGradient>
	<polygon opacity="0.5" fill="url(#SVGID_5_)" points="1381.079,315.229 1367.216,315.229 1367.216,357.611 1342.061,357.611 
		1342.061,268.498 1331.445,268.498 1331.445,240.236 1311.881,240.236 1311.881,265.598 1293.436,265.598 1293.436,351.092 
		1261.576,351.092 1261.576,331.531 1206.238,331.531 1206.238,357.611 1181.087,357.611 1181.087,272.842 1155.935,272.842 
		1155.935,315.229 1115.691,315.229 1085.506,279.365 1065.384,311.969 1040.232,311.969 1040.232,292.4 1026.817,275.016 
		1010.051,292.4 1010.051,357.611 994.957,357.611 994.957,253.871 979.868,253.871 979.868,305.445 964.775,305.445 
		964.775,338.051 939.625,338.051 939.625,305.445 914.47,305.445 914.47,331.531 899.377,351.092 899.377,311.969 874.227,311.969 
		874.227,422.82 1381.079,422.82 	"/>
</g>
<path fill="#69428C" d="M1087.628,289.486c0,0-3.848,0.795-4.301,5.207c0,0-0.906,15.963-0.792,17.322c0,0-1.585,0-1.359,5.885
	l-0.021,2.604c0,0-1.338-0.563-1.338,0.68c0,1.244,0,8.945,0,8.945v3.732c0,0-2.375,2.152,0,4.871l-1.055,2.264c0,0-2.529,0,0,2.602
	v0.906h-1.888l0.679,2.604h-1.357c0,0-0.793,3.508,1.02,3.396v1.021h-2.378v2.602v3.055c0,0-1.584,1.02-1.697,2.379
	c0,0-2.386,4.527-2.386,9.51v50.957l33.75,0.551V369.07c0-4.982-2.385-9.51-2.385-9.51c-0.113-1.359-1.697-2.379-1.697-2.379v-3.055
	v-2.602h-2.377v-1.021c1.81,0.111,1.019-3.396,1.019-3.396h-1.359l0.679-2.604h-1.887v-0.906c2.529-2.602,0-2.602,0-2.602
	l-1.056-2.264c2.377-2.719,0-4.871,0-4.871v-3.732c0,0,0-7.701,0-8.945c0-1.242-1.337-0.68-1.337-0.68l-0.022-2.604
	c0.226-5.885-1.356-5.885-1.356-5.885c0.112-1.359-0.793-17.322-0.793-17.322C1091.478,290.281,1087.628,289.486,1087.628,289.486"
	/>
<path fill="#523373" d="M1268.188,365.012h-1.176c0.982,0,1.516-1.117,0.933-1.908c-1.591-2.16-3.72-2.693-3.72-2.693l0.31-1.383
	h-0.86c-0.652,0-1.181-0.529-1.181-1.18v-2.021c0-0.301-0.074-0.619-0.284-0.837c-1.2-1.261,0.709-3.407,0.709-3.407
	c-0.865-0.131-1.459,0.252-1.86,0.779c-0.519,0.686-1.604,0.508-1.967-0.27l-6.913-14.857c0,0,0.698,0.311,0.698,0s0-2.482,0-2.482
	h-1.44v-5.883l-0.033-2.299c-0.09-0.539-0.504-1.197-1.197-1.141c-0.929,0.078-0.819,0.984-0.819,0.984v2.455h-1.473v-2.609
	c-0.279-0.859-0.735-0.814-1.048-0.816c-0.756-0.002-0.814,0.816-0.814,0.816v2.609h-1.707l0.078-2.299
	c0-0.078-0.067-1.088-0.766-1.072c-1.096,0.023-1.055,1.148-1.055,1.148l0.017,1.025c0.012,0.658-0.521,1.197-1.18,1.197h-0.024
	c-0.652,0-1.182-0.527-1.182-1.18v-2.775c0-0.371,0.241-0.666,0.553-0.869c1.06-0.684,0.585-3.137,0.585-3.137
	c0-0.412-1.456-0.869-2.438-1.131c-0.516-0.139-0.871-0.605-0.871-1.139v-4.758c-0.066-1.07-1.444-1.582-2.4-1.809
	c-0.533-0.127-0.908-0.6-0.908-1.148v-2.426c0-0.725-4.344-1.447-3.206-1.447c1.137,0,1.447-1.76,1.137-3.828
	c-0.18-1.207-0.785-1.709-1.256-1.918c-0.447-0.199-0.705-0.678-0.689-1.166c0.011-0.357,0.037-0.83,0.084-1.465
	c0.208-2.793-4.757-2.691-3.104-2.793c1.656-0.104,1.036-2.172,1.036-3.723c0-0.879-0.283-1.291-0.53-1.486
	c-0.253-0.199-0.398-0.498-0.42-0.822c-0.036-0.535-0.057-1.338,0.054-2.137c0.188-1.396-2.283-2.094-2.283-2.094l1.163-1.166
	c0.73-0.729,0.822-1.588,0.746-2.24c-0.067-0.584-0.581-1.016-1.172-1.016h-0.659c4.274-3.875,1.186-8.439,0.245-9.631
	c-0.164-0.209-0.245-0.459-0.245-0.723v-10.186c0-0.164-0.036-0.324-0.1-0.475l-1.975-4.512c-0.065-0.148-0.098-0.309-0.098-0.473
	v-5.086c0-0.064-0.007-0.127-0.017-0.188l-0.709-4.404c-0.207-2.07-1.861-6.621-1.861-10.551s-0.412-7.443-2.688-7.238
	c-2.276,0.207-1.242,9.102-1.242,9.102h-1.24v-6.586c0-0.406-0.211-0.787-0.555-1l-0.563-0.352
	c-0.334-0.211-0.543-0.574-0.556-0.969c-0.12-4.504-0.861-31.74-1.43-39.699c-0.619-8.686-8.895-12.615-8.895-12.615
	s-8.271,3.93-8.893,12.615c-0.569,7.959-1.311,35.195-1.431,39.699c-0.011,0.395-0.219,0.758-0.554,0.969l-0.563,0.352
	c-0.345,0.213-0.554,0.594-0.554,1v6.586h-1.242c0,0,1.034-8.895-1.24-9.102c-2.274-0.205-2.688,3.309-2.688,7.238
	s-1.654,8.48-1.861,10.551l-0.709,4.404c-0.012,0.061-0.016,0.123-0.016,0.188v5.086c0,0.164-0.033,0.324-0.099,0.473l-1.974,4.512
	c-0.065,0.15-0.1,0.311-0.1,0.475v10.186c0,0.264-0.082,0.514-0.246,0.723c-0.938,1.191-4.029,5.756,0.246,9.631h-0.66
	c-0.591,0-1.104,0.432-1.172,1.016c-0.077,0.652,0.016,1.512,0.745,2.24l1.166,1.166c0,0-2.474,0.697-2.284,2.094
	c0.107,0.799,0.087,1.602,0.053,2.137c-0.021,0.324-0.166,0.623-0.42,0.822c-0.246,0.195-0.531,0.607-0.531,1.486
	c0,1.551-0.618,3.619,1.035,3.723c1.655,0.102-3.309,0-3.102,2.793c0.046,0.635,0.074,1.107,0.084,1.465
	c0.016,0.488-0.241,0.967-0.689,1.166c-0.472,0.209-1.075,0.711-1.256,1.918c-0.311,2.068,0,3.828,1.137,3.828
	c1.139,0-3.205,0.723-3.205,1.447v2.426c0,0.549-0.376,1.021-0.91,1.148c-0.957,0.227-2.332,0.738-2.399,1.809v4.758
	c0,0.533-0.356,1-0.873,1.139c-0.981,0.262-2.436,0.719-2.436,1.131c0,0-0.475,2.453,0.583,3.137
	c0.313,0.203,0.554,0.498,0.554,0.869v2.775c0,0.652-0.528,1.18-1.181,1.18h-0.024c-0.659,0-1.19-0.539-1.18-1.197l0.016-1.025
	c0,0,0.043-1.125-1.054-1.148c-0.698-0.016-0.766,0.994-0.766,1.072l0.077,2.299h-1.705v-2.609c0,0-0.06-0.818-0.815-0.816
	c-0.313,0.002-0.77-0.043-1.047,0.816v2.609h-1.473v-2.455c0,0,0.109-0.906-0.823-0.984c-0.689-0.057-1.105,0.602-1.193,1.141
	l-0.034,2.299v5.883h-1.439c0,0,0,2.172,0,2.482s0.697,0,0.697,0l-6.914,14.857c-0.361,0.777-1.446,0.955-1.966,0.27
	c-0.401-0.527-0.993-0.91-1.861-0.779c0,0,1.908,2.146,0.71,3.407c-0.21,0.218-0.283,0.536-0.283,0.837v2.021
	c0,0.65-0.528,1.18-1.181,1.18h-0.862l0.312,1.383c0,0-2.132,0.533-3.722,2.693c-0.58,0.791-0.048,1.908,0.934,1.908
	c0,0-15.104,19.699-15.518,33.145v21.871h158.775v-21.871C1283.291,384.711,1268.188,365.012,1268.188,365.012z"/>
<path fill="#523373" d="M1046.066,261.586c0,0-6.829,1.406-7.63,9.236c0,0-1.607,28.314-1.406,30.727c0,0-2.813,0-2.41,10.44
	l-0.039,4.62c0,0-2.371-1.002-2.371,1.207c0,2.207,0,15.859,0,15.859v6.629c0,0-4.218,3.816,0,8.637l-1.873,4.016
	c0,0-4.484,0,0,4.617v1.609h-3.348l1.205,4.615h-2.409c0,0-1.406,6.227,1.808,6.025v1.809h-4.218v4.617v5.424
	c0,0-2.812,1.805-3.012,4.215c0,0-4.231,8.033-4.231,16.869v17.27h59.869v-17.27c0-8.836-4.23-16.869-4.23-16.869
	c-0.2-2.41-3.013-4.215-3.013-4.215v-5.424v-4.617h-4.216v-1.809c3.213,0.201,1.806-6.025,1.806-6.025h-2.408l1.205-4.615h-3.347
	v-1.609c4.485-4.617,0-4.617,0-4.617l-1.875-4.016c4.216-4.82,0-8.637,0-8.637v-6.629c0,0,0-13.652,0-15.859
	c0-2.209-2.37-1.207-2.37-1.207l-0.039-4.62c0.401-10.44-2.409-10.44-2.409-10.44c0.198-2.412-1.405-30.727-1.405-30.727
	C1052.895,262.992,1046.066,261.586,1046.066,261.586"/>
<path fill="#3B2262" d="M1144.892,343.115l-2.214,18.404l-2.69,3.025l-7.591,11.045v3.287h-4.903c0,0-1.581-1.445-1.581-2.498
	s-1.265,2.629-0.95,3.021c0.317,0.396-0.394-0.326-0.394-0.326l0.394,0.326h-6.801c0,0-1.897-1.576-1.105-3.285
	c0.791-1.709-4.904,4.34-3.479,5.127v7.363h-2.689v26.951l-2.366,4.471h72.293l-1.918-4.471v-26.951h-2.689v-7.363
	c1.425-0.787-4.271-6.836-3.48-5.127c0.794,1.709-1.106,3.285-1.106,3.285h-6.8l0.396-0.326c0,0-0.713,0.723-0.396,0.326
	c0.315-0.393-0.948-4.074-0.948-3.021s-1.582,2.498-1.582,2.498h-4.902v-3.287l-7.592-11.045l-2.689-3.025L1144.892,343.115"/>
<path fill="#1C122D" d="M1289.854,420.578c2.386-0.881-0.897-3.188,0.734-5.137c1.632-1.952,1.983-5.223,0.048-6.875
	c-1.032-0.883-2.453-1.121-3.802-1.283c-5.002-0.602-10.076-0.609-15.081-0.025c1.403-0.26,2.311-1.998,1.721-3.299
	c-0.59-1.303-2.497-1.766-3.616-0.879c5.229-2.6,9.033-7.887,9.84-13.674c0.233-1.689,0.178-3.564-0.896-4.891
	c-1.069-1.326-3.451-1.623-4.384-0.195c2.672-3.051,2.232-8.295-0.908-10.861c-2.559-3.488-8.038-4.363-11.556-1.848
	c-1.233-3.627-5.716-5.758-9.306-4.422c-3.591,1.334-5.592,5.877-4.154,9.428c-4.484,1.754-7.665,6.41-7.665,11.225
	c-2.162-1.041-4.623,2.441-2.916,4.133c-0.744-3.557-5.713-5.365-8.567-3.119c3.135-1.906,5.379-5.215,5.992-8.832
	c-1.402-0.57-2.804-1.139-4.205-1.707c1.048-0.693,1.801-1.814,2.041-3.043c-0.684-2.715-3.164-4.873-5.943-5.178
	c0.301-4.088-2.307-8.223-6.125-9.713c-3.818-1.492-8.538-0.213-11.083,2.998c-3.905-3.689-11.494-1.58-12.932,3.596
	c1.722-3.707,3.483-7.652,3.043-11.717c-0.442-4.063-4.028-8.08-8.06-7.408c-3.211-3.031-8.68-3.27-12.142-0.529
	c-3.463,2.742-4.485,8.119-2.27,11.938c-5.773,0.016-10.265,7.021-7.872,12.275c-5.66-0.082-9.901,7.213-7.025,12.09
	c-6.311-1.057-12.133,6.725-9.336,12.482c-3.461-1.9-7.459,1.871-8.663,5.632c-0.306-2.636-0.688-5.45-2.438-7.446
	c-1.749-1.994-5.383-2.531-6.901-0.355c-2.769-1.857-5.536-3.715-8.303-5.574c-4.551,1.225-6.664,7.662-3.724,11.344
	c-5.046,0.916-8.538,6.82-6.911,11.684c-4.27-1.651-8.056,5.523-5.307,9.188"/>
<linearGradient id="SVGID_6_" gradientUnits="userSpaceOnUse" x1="493.2485" y1="306.3418" x2="430.1806" y2="306.3418">
	<stop  offset="0" style="stop-color:#8E191F"/>
	<stop  offset="1" style="stop-color:#E74A25"/>
	<stop  offset="1" style="stop-color:#E44925"/>
</linearGradient>
<path opacity="0.7" fill="url(#SVGID_6_)" d="M487.412,410.643l-10.455-183.77l15.101-32.779l-11.616,9.934h-27.879l-8.13-9.934
	l-8.131,6.953h-25.555l-11.617-8.939l16.263,33.775L403.777,409.65h-18.586v10.926h118.482v-9.934H487.412z M422.363,211.975h45.302
	v8.939h-45.302V211.975z M422.69,408.934l0.833-182.061h42.979l2.15,182.678L422.69,408.934z"/>
<linearGradient id="SVGID_7_" gradientUnits="userSpaceOnUse" x1="580.2402" y1="329.4072" x2="781.9502" y2="329.4072">
	<stop  offset="0" style="stop-color:#C6892B"/>
	<stop  offset="1" style="stop-color:#F3BC36"/>
	<stop  offset="1" style="stop-color:#687333"/>
</linearGradient>
<path opacity="0.81" fill="url(#SVGID_7_)" d="M986.129,419.965l-9.243-32.775c0,0,1.68-47.908-6.725-47.908
	c-8.405,0-7.566,50.43-7.566,50.43l-5.042,15.127l-3.359-15.127c0,0,0.839-45.385-6.726-45.385c-7.563,0-6.724,42.021-6.724,42.021
	h-11.768l-5.882-26.055l-8.405,1.684l-2.102-5.887h6.305v-2.939h-7.564l-0.839-3.783h6.303v-2.941h-7.146l-1.259-4.625h2.521v-3.779
	h-3.364l-1.681-5.039l-4.201-39.084H896.2v-40.764c0,0-2.94-14.707-9.666-14.707c0,0-6.723,5.041-6.723,14.285v40.762h-9.664v38.242
	l-1.263,3.783h-4.203v3.361h4.624l-2.103,5.883h-7.564v4.201h6.727l-2.522,4.623h-7.563v3.781h5.883l-3.363,5.045l-8.824-2.102
	l-7.984,26.055h-9.666l-2.52-31.516c0,0-0.422-10.93-5.044-10.93c0,0-3.781,2.523-3.781,11.35v31.516l-5.884,17.229l-5.043-17.229
	l-2.521-34.457c0,0,0-11.35-5.043-11.35s-5.043,12.607-5.043,12.607l-2.521,33.621l-10.505,33.197L986.129,419.965z"/>
<g>
	<polygon fill="none" stroke="#010101" stroke-width="0.7002" stroke-linecap="round" stroke-linejoin="round" points="
		878.64,368.666 873.505,368.707 873.398,356.471 878.532,356.428 	"/>
	<path fill="#FFFFFF" d="M848.602,376.67l3.502-0.033L848.602,376.67c0,0,0.835-1.695-1.732-3.359
		c-2.564-1.67,1.221-6.768,1.221-6.768c-1.45-1.955-5.188-5.297-5.188-5.297l-5.371,5.387c0,0,3.469,5.037,0.917,6.748
		c-2.558,1.713-1.844,3.303-1.844,3.303"/>
	<path fill="#FFFFFF" d="M884.457,412.918l-0.185-21.092l2.278-0.863l-0.022-1.971l2.269-1.426l-0.064-7.885l-1.438-0.828
		l-0.299-1.682l-1.722-0.83l0.274-1.408l-0.048-5.348l-1.437-1.109l-1.019-2.387l0.073-8.016l1.695-1.422l-0.053-6.188l-2.011-1.672
		l-0.873-1.678l-1.441-1.113l-0.867-1.68l-0.302-1.684l-1.15-1.119l-0.903-5.334l-1.143,0.01l-1.089,5.633l-1.42,0.861l0.01,1.127
		l-1.133,0.85l0.011,1.404l-1.701,1.141l0.016,1.689l-2.555,1.713l0.05,5.906l1.724,1.391l0.074,8.158l-0.833,2.256l-0.848,0.854
		l0.063,7.225l-3.692,0.031c0.275-1.127-2.06-4.672-2.06-4.672l1.377-5.926l-5.186-5.297l-5.371,5.955c0,0,2.835,5.113,0.279,6.824
		c-2.556,1.709-1.884,3.338-1.884,3.338"/>
	<polygon fill="none" stroke="#010101" stroke-width="0.6922" stroke-linecap="round" stroke-linejoin="round" points="
		760.806,369.711 765.821,369.664 765.715,357.426 760.694,357.477 	"/>
	<path fill="#FFFFFF" d="M805.279,376.982l-3.422,0.031L805.279,376.982c0,0-0.847-1.682,1.634-3.393
		c2.475-1.705-0.962-6.814-0.962-6.814l4.972-5.525l5.062,5.016c0,0-3.715,5.096-1.194,6.766c2.524,1.664,1.863,3.303,1.863,3.303
		l4.958-0.043c0,0-0.708-1.629,1.848-3.34c2.551-1.711-1.345-6.736-1.345-6.736l5.088-5.107l5.188,5.441c0,0-3.424,5.16-0.86,6.826
		c2.565,1.662,1.729,3.361,1.729,3.361l3.5-0.035l-3.5,0.035"/>
	<path fill="#FFFFFF" d="M790.291,377.186l-3.421,0.037L790.291,377.186c0,0-0.847-1.678,1.63-3.387
		c2.477-1.717-1.311-6.746-1.311-6.746c1.381-1.98,4.979-5.385,4.979-5.385l5.343,5.297c0,0-3.301,5.092-0.78,6.76
		c2.526,1.666,1.863,3.27,1.863,3.27"/>
	<path fill="#FFFFFF" d="M755.896,414.066l-0.189-21.098l-2.236-0.824l0.155-1.586l-2.417-1.768l-0.07-7.881l1.386-0.855
		l0.266-1.693l1.666-0.857l0.402-0.988l-0.029-5.908l0.96-1.414l0.556-1.975l-0.077-8.436l-1.582-1.537l-0.181-5.619l2.543-1.717
		l0.215-1.688l1.387-1.141l0.815-1.689l0.266-1.693l1.106-1.133l0.791-5.352l1.113-0.01l1.168,5.615l1.401,0.832l0.009,1.125
		l1.126,0.832l0.011,1.408l1.686,1.111l0.012,1.686l2.526,1.668l0.049,5.904l-1.656,1.422l0.072,8.156l0.857,2.246l0.842,0.836
		l0.062,7.227l3.61-0.037c-0.29-1.121,1.928-4.711,1.928-4.711l-1.451-5.893l4.974-5.389l5.354,5.855c0,0-2.676,5.16-0.153,6.83
		c2.527,1.66,1.897,3.305,1.897,3.305"/>
	<polygon fill="#FFFFFF" points="885.017,419.123 755.495,419.123 755.838,376.76 885.273,376.342 	"/>
	
		<rect x="760.371" y="352.401" transform="matrix(1 -0.0094 0.0094 1 -3.35 7.2192)" fill="#E66881" width="4.342" height="11.692"/>
	
		<rect x="874.478" y="350.751" transform="matrix(1 -0.0086 0.0086 1 -3.0198 7.5156)" fill="#E66881" width="4.336" height="11.694"/>
</g>
<g>
	<polygon fill="#E6E7E8" stroke="#010101" stroke-width="0.7002" stroke-linecap="round" stroke-linejoin="round" points="
		1020.658,369.123 1015.521,369.164 1015.416,356.93 1020.547,356.889 	"/>
	<path fill="#E6E7E8" d="M990.619,377.127l3.5-0.031L990.619,377.127c0,0,0.837-1.695-1.731-3.359
		c-2.565-1.67,1.218-6.766,1.218-6.766c-1.447-1.959-5.187-5.299-5.187-5.299l-5.371,5.389c0,0,3.468,5.037,0.918,6.744
		c-2.56,1.717-1.844,3.305-1.844,3.305"/>
	<path fill="#E6E7E8" d="M1026.475,413.377l-0.186-21.094l2.278-0.863l-0.021-1.973l2.268-1.422l-0.063-7.885l-1.438-0.832
		l-0.298-1.68l-1.723-0.828l0.274-1.408l-0.048-5.346l-1.438-1.113l-1.018-2.383l0.075-8.02l1.694-1.42l-0.055-6.188l-2.011-1.674
		l-0.873-1.676l-1.44-1.113l-0.865-1.682l-0.305-1.682l-1.148-1.117l-0.903-5.338l-1.142,0.01l-1.091,5.637l-1.418,0.855
		l0.008,1.125l-1.129,0.854l0.007,1.406l-1.702,1.141l0.017,1.688l-2.555,1.713l0.05,5.906l1.726,1.391l0.074,8.16l-0.835,2.254
		l-0.85,0.854l0.067,7.225l-3.694,0.031c0.276-1.125-2.059-4.672-2.059-4.672l1.376-5.924l-5.187-5.299l-5.368,5.957
		c0,0,2.831,5.113,0.278,6.822c-2.559,1.707-1.884,3.338-1.884,3.338"/>
	<polygon fill="#E6E7E8" stroke="#010101" stroke-width="0.6922" stroke-linecap="round" stroke-linejoin="round" points="
		902.82,370.17 907.84,370.123 907.731,357.883 902.713,357.934 	"/>
	<path fill="#E6E7E8" d="M947.296,377.441l-3.424,0.029L947.296,377.441c0,0-0.847-1.682,1.634-3.393
		c2.473-1.707-0.96-6.814-0.96-6.814l4.97-5.525l5.063,5.014c0,0-3.717,5.098-1.195,6.767c2.525,1.663,1.863,3.302,1.863,3.302
		l4.959-0.043c0,0-0.706-1.629,1.847-3.336c2.554-1.715-1.347-6.738-1.347-6.738l5.091-5.109l5.188,5.439
		c0,0-3.422,5.164-0.862,6.828c2.566,1.662,1.733,3.363,1.733,3.363l3.498-0.035l-3.498,0.035"/>
	<path fill="#E6E7E8" d="M932.308,377.645l-3.421,0.035L932.308,377.645c0,0-0.847-1.682,1.632-3.389
		c2.476-1.715-1.312-6.746-1.312-6.746c1.381-1.979,4.979-5.385,4.979-5.385l5.342,5.297c0,0-3.301,5.092-0.778,6.76
		c2.524,1.668,1.861,3.27,1.861,3.27"/>
	<path fill="#E6E7E8" d="M897.912,414.52l-0.188-21.092l-2.235-0.824l0.154-1.586l-2.418-1.771l-0.069-7.877l1.385-0.857
		l0.268-1.691l1.664-0.857l0.402-0.988l-0.03-5.908l0.961-1.414l0.556-1.977l-0.073-8.436l-1.587-1.537l-0.18-5.621l2.541-1.713
		l0.217-1.691l1.388-1.135l0.815-1.693l0.266-1.691l1.107-1.133l0.79-5.354l1.114-0.01l1.166,5.613l1.4,0.836l0.01,1.125l1.126,0.83
		l0.011,1.408l1.685,1.111l0.015,1.689l2.525,1.662l0.049,5.908l-1.657,1.42l0.073,8.156l0.856,2.246l0.842,0.836l0.062,7.229
		l3.61-0.039c-0.288-1.119,1.928-4.709,1.928-4.709l-1.449-5.893l4.973-5.391l5.354,5.855c0,0-2.675,5.162-0.153,6.828
		c2.527,1.664,1.897,3.307,1.897,3.307"/>
	<polygon fill="#E6E7E8" points="1027.033,419.58 897.513,419.58 897.854,377.219 1027.291,376.801 	"/>
	
		<rect x="902.388" y="352.862" transform="matrix(1 -0.0088 0.0088 1 -3.1123 7.95)" fill="#EA70A2" width="4.341" height="11.688"/>
	
		<rect x="1016.495" y="351.21" transform="matrix(1 -0.0095 0.0095 1 -3.3311 9.6494)" fill="#EA70A2" width="4.337" height="11.692"/>
</g>
<g opacity="0.5">
	
		<linearGradient id="SVGID_8_" gradientUnits="userSpaceOnUse" x1="436.4175" y1="10062.2949" x2="438.5611" y2="9955.1162" gradientTransform="matrix(1 0 0 -1 0 10494.6641)">
		<stop  offset="0" style="stop-color:#712878"/>
		<stop  offset="1" style="stop-color:#DC5F75"/>
	</linearGradient>
	<polygon opacity="0.5" fill="url(#SVGID_8_)" points="849.105,489.963 834.031,509.525 834.031,535.609 808.907,535.609 
		808.907,503.004 783.789,503.004 783.789,535.609 768.716,535.609 768.716,560.1 753.646,559.297 753.646,483.443 738.568,483.443 
		738.568,522.568 738.572,534.184 721.824,551.568 708.425,534.184 708.425,529.086 683.995,515.119 663.752,542.428 
		634.952,509.527 592.866,525.828 592.866,544.838 567.744,531.989 567.744,483.443 542.623,483.443 542.623,509.525 
		487.355,509.525 487.355,489.963 455.537,489.963 455.537,575.457 437.112,575.457 437.112,600.818 417.571,600.818 
		417.571,572.557 406.967,572.557 406.967,483.443 381.845,483.443 381.845,525.828 319.041,525.828 286.383,483.443 
		286.383,516.045 261.262,516.045 261.262,555.172 226.093,555.172 226.093,489.963 185.898,489.963 185.898,548.655 
		170.825,548.655 170.825,575.459 155.753,601.543 140.682,575.459 140.682,529.086 100.484,529.086 100.484,503.004 
		89.321,503.004 89.321,587.775 65.317,587.775 65.317,503.004 50.243,503.004 50.243,574.732 20.096,574.732 20.096,516.045 
		0,516.045 0,418.234 874.227,418.234 874.227,529.086 849.105,529.086 	"/>
	
		<linearGradient id="SVGID_9_" gradientUnits="userSpaceOnUse" x1="1004.7676" y1="10062.6875" x2="1007.2133" y2="9940.4043" gradientTransform="matrix(-1 0 0 -1 2133.2227 10494.6641)">
		<stop  offset="0" style="stop-color:#712878"/>
		<stop  offset="1" style="stop-color:#DC5F75"/>
	</linearGradient>
	<polygon opacity="0.5" fill="url(#SVGID_9_)" points="1381.079,525.828 1367.216,525.828 1367.216,483.443 1342.061,483.443 
		1342.061,572.557 1331.445,572.557 1331.445,600.818 1311.881,600.818 1311.881,575.457 1293.436,575.457 1293.436,489.963 
		1261.576,489.963 1261.576,509.525 1206.238,509.525 1206.238,483.443 1181.087,483.443 1181.087,568.213 1155.935,568.213 
		1155.935,525.828 1115.691,525.828 1085.506,561.691 1065.384,529.086 1040.232,529.086 1040.232,548.655 1026.817,566.039 
		1010.051,548.655 1010.051,483.443 994.957,483.443 994.957,587.186 979.868,587.186 979.868,535.609 964.775,535.609 
		964.775,503.004 939.625,503.004 939.625,535.609 914.47,535.609 914.47,509.525 899.377,489.963 899.377,529.086 874.227,529.086 
		874.227,418.234 1381.079,418.234 	"/>
</g>
<path opacity="0.5" fill="#69428C" d="M1087.628,551.568c0,0-3.848-0.793-4.301-5.207c0,0-0.906-15.963-0.792-17.32
	c0,0-1.585,0-1.359-5.886l-0.021-2.604c0,0-1.338,0.564-1.338-0.68s0-8.943,0-8.943v-3.734c0,0-2.375-2.152,0-4.871l-1.055-2.262
	c0,0-2.529,0,0-2.604v-0.904h-1.888l0.679-2.604h-1.357c0,0-0.793-3.508,1.02-3.398v-1.02h-2.378v-2.602v-3.057
	c0,0-1.584-1.02-1.697-2.377c0,0-2.386-4.529-2.386-9.512v-50.957l33.75-0.549v51.506c0,4.982-2.385,9.512-2.385,9.512
	c-0.113,1.357-1.697,2.377-1.697,2.377v3.057v2.602h-2.377v1.02c1.81-0.109,1.019,3.398,1.019,3.398h-1.359l0.679,2.604h-1.887
	v0.904c2.529,2.604,0,2.604,0,2.604l-1.056,2.262c2.377,2.719,0,4.871,0,4.871v3.734c0,0,0,7.699,0,8.943s-1.337,0.68-1.337,0.68
	l-0.022,2.604c0.226,5.886-1.356,5.886-1.356,5.886c0.112,1.357-0.793,17.32-0.793,17.32
	C1091.478,550.775,1087.628,551.568,1087.628,551.568"/>
<path opacity="0.5" fill="#523373" d="M1262.001,485.948h-1.522c1.271,0,1.963,1.447,1.208,2.473
	c-2.06,2.795-4.815,3.486-4.815,3.486l0.4,1.789h-1.114c-0.845,0-1.528,0.684-1.528,1.527v2.615c0,0.393-0.096,0.803-0.367,1.086
	c-1.554,1.631,0.918,4.41,0.918,4.41c-1.121,0.17-1.889-0.326-2.409-1.01c-0.671-0.887-2.077-0.658-2.546,0.35l-8.95,19.234
	c0,0,0.904-0.402,0.904,0s0,3.213,0,3.213h-1.864v7.617l-0.043,2.975c-0.116,0.697-0.653,1.551-1.55,1.477
	c-1.203-0.102-1.062-1.273-1.062-1.273v-3.178h-1.906v3.379c-0.361,1.109-0.951,1.053-1.356,1.055
	c-0.979,0.002-1.054-1.055-1.054-1.055v-3.379h-2.211l0.102,2.975c0,0.102-0.087,1.408-0.991,1.389
	c-1.419-0.031-1.365-1.486-1.365-1.486l0.021-1.328c0.015-0.852-0.674-1.549-1.527-1.549h-0.031c-0.845,0-1.529,0.682-1.529,1.527
	v3.592c0,0.482,0.312,0.865,0.715,1.125c1.372,0.885,0.757,4.061,0.757,4.061c0,0.535-1.885,1.125-3.155,1.465
	c-0.667,0.178-1.128,0.783-1.128,1.475v6.158c-0.086,1.387-1.87,2.049-3.107,2.342c-0.689,0.164-1.176,0.775-1.176,1.486v3.143
	c0,0.938-5.623,1.873-4.149,1.873c1.471,0,1.873,2.277,1.471,4.953c-0.232,1.564-1.016,2.213-1.625,2.484
	c-0.579,0.26-0.914,0.877-0.893,1.51c0.014,0.461,0.047,1.074,0.107,1.896c0.27,3.615-6.157,3.482-4.017,3.615
	c2.144,0.135,1.341,2.811,1.341,4.82c0,1.137-0.366,1.67-0.687,1.922c-0.327,0.26-0.516,0.646-0.544,1.066
	c-0.047,0.693-0.072,1.73,0.07,2.766c0.244,1.807-2.956,2.711-2.956,2.711l1.506,1.508c0.945,0.945,1.064,2.057,0.966,2.902
	c-0.088,0.756-0.752,1.314-1.517,1.314h-0.854c5.534,5.018,1.535,10.926,0.318,12.469c-0.213,0.27-0.318,0.594-0.318,0.934v13.188
	c0,0.211-0.046,0.42-0.129,0.613l-2.556,5.84c-0.085,0.193-0.127,0.4-0.127,0.613v6.584c0,0.082-0.009,0.164-0.021,0.242
	l-0.917,5.703c-0.269,2.68-2.41,8.57-2.41,13.658c0,5.086-0.534,9.637-3.479,9.369c-2.947-0.266-1.608-11.779-1.608-11.779h-1.605
	v8.523c0,0.525-0.273,1.02-0.719,1.295l-0.728,0.457c-0.434,0.271-0.704,0.742-0.72,1.252c-0.155,5.83-1.115,41.09-1.851,51.395
	c-0.802,11.246-11.515,16.33-11.515,16.33s-10.709-5.084-11.513-16.33c-0.736-10.305-1.696-45.564-1.852-51.395
	c-0.015-0.51-0.283-0.98-0.718-1.252l-0.729-0.457c-0.446-0.275-0.718-0.77-0.718-1.295v-8.523h-1.607
	c0,0,1.339,11.514-1.605,11.779c-2.944,0.268-3.481-4.283-3.481-9.369c0-5.088-2.142-10.979-2.409-13.658l-0.917-5.703
	c-0.016-0.078-0.021-0.16-0.021-0.242v-6.584c0-0.213-0.044-0.42-0.128-0.613l-2.556-5.84c-0.084-0.193-0.128-0.402-0.128-0.613
	v-13.188c0-0.34-0.107-0.664-0.319-0.934c-1.215-1.543-5.216-7.451,0.319-12.469h-0.855c-0.765,0-1.428-0.559-1.517-1.314
	c-0.1-0.846,0.021-1.957,0.965-2.902l1.509-1.508c0,0-3.202-0.904-2.957-2.711c0.14-1.035,0.113-2.072,0.068-2.766
	c-0.027-0.42-0.215-0.807-0.543-1.066c-0.318-0.252-0.688-0.785-0.688-1.922c0-2.01-0.801-4.686,1.34-4.82
	c2.143-0.133-4.284,0-4.016-3.615c0.06-0.822,0.096-1.436,0.108-1.896c0.021-0.633-0.313-1.25-0.893-1.51
	c-0.61-0.271-1.392-0.92-1.626-2.484c-0.401-2.676,0-4.953,1.472-4.953c1.475,0-4.148-0.936-4.148-1.873v-3.143
	c0-0.711-0.487-1.322-1.179-1.486c-1.238-0.293-3.02-0.955-3.106-2.342v-6.158c0-0.691-0.461-1.297-1.13-1.475
	c-1.271-0.34-3.153-0.93-3.153-1.465c0,0-0.614-3.176,0.755-4.061c0.406-0.26,0.717-0.643,0.717-1.125v-3.592
	c0-0.846-0.684-1.527-1.528-1.527h-0.031c-0.854,0-1.541,0.697-1.527,1.549l0.02,1.328c0,0,0.056,1.455-1.363,1.486
	c-0.904,0.02-0.991-1.287-0.991-1.389l0.1-2.975h-2.208v3.379c0,0-0.077,1.057-1.056,1.055c-0.404-0.002-0.996,0.055-1.355-1.055
	v-3.379h-1.906v3.178c0,0,0.142,1.172-1.065,1.273c-0.893,0.074-1.431-0.779-1.545-1.477l-0.044-2.975v-7.617h-1.864
	c0,0,0-2.811,0-3.213s0.903,0,0.903,0l-8.951-19.234c-0.468-1.008-1.872-1.236-2.545-0.35c-0.52,0.684-1.285,1.18-2.409,1.01
	c0,0,2.47-2.779,0.919-4.41c-0.271-0.283-0.367-0.693-0.367-1.086v-2.615c0-0.844-0.684-1.527-1.528-1.527h-1.116l0.403-1.789
	c0,0-2.759-0.691-4.818-3.486c-0.751-1.025-0.062-2.473,1.209-2.473c0,0-19.553-25.502-20.088-42.906v-28.316h205.548v28.316
	C1281.554,460.446,1262.001,485.948,1262.001,485.948z"/>
<path opacity="0.5" fill="#523373" d="M1046.066,579.469c0,0-6.829-1.404-7.63-9.236c0,0-1.607-28.314-1.406-30.727
	c0,0-2.813,0-2.41-10.439l-0.039-4.621c0,0-2.371,1.004-2.371-1.205c0-2.207,0-15.861,0-15.861v-6.627c0,0-4.218-3.816,0-8.637
	l-1.873-4.016c0,0-4.484,0,0-4.617v-1.609h-3.348l1.205-4.617h-2.409c0,0-1.406-6.226,1.808-6.023v-1.809h-4.218v-4.619v-5.422
	c0,0-2.812-1.807-3.012-4.217c0,0-4.231-8.033-4.231-16.869v-17.27h59.869v17.27c0,8.836-4.23,16.869-4.23,16.869
	c-0.2,2.41-3.013,4.217-3.013,4.217v5.422v4.619h-4.216v1.809c3.213-0.202,1.806,6.023,1.806,6.023h-2.408l1.205,4.617h-3.347v1.609
	c4.485,4.617,0,4.617,0,4.617l-1.875,4.016c4.216,4.82,0,8.637,0,8.637v6.627c0,0,0,13.654,0,15.861c0,2.209-2.37,1.205-2.37,1.205
	l-0.039,4.621c0.401,10.439-2.409,10.439-2.409,10.439c0.198,2.412-1.405,30.727-1.405,30.727
	C1052.895,578.064,1046.066,579.469,1046.066,579.469"/>
<path opacity="0.5" fill="#3B2262" d="M1200.316,540.78l-2.214-17.845l-2.69-2.932l-7.592-10.709v-3.186h-4.901
	c0,0-1.582,1.402-1.582,2.422s-1.265-2.549-0.95-2.934c0.317-0.383-0.395,0.318-0.395,0.318l0.395-0.318h-6.801
	c0,0-1.898,1.531-1.105,3.188c0.79,1.658-4.904-4.207-3.48-4.969v-7.141h-2.688v-26.131l-2.368-4.334l73.562-15.705l-3.184,20.039
	v26.131h-2.69v7.141c1.425,0.762-4.271,6.627-3.479,4.969c0.791-1.656-1.106-3.188-1.106-3.188h-6.802l0.396,0.318
	c0,0-0.713-0.701-0.396-0.318c0.317,0.385-0.948,3.953-0.948,2.934s-1.582-2.422-1.582-2.422h-4.902v3.186l-7.592,10.709
	l-2.689,2.932L1200.316,540.78"/>
<path opacity="0.5" fill="#3B2262" d="M1144.892,497.941l-2.214-18.406l-2.69-3.025l-7.591-11.045v-3.285h-4.903
	c0,0-1.581,1.443-1.581,2.496s-1.265-2.629-0.95-3.021c0.317-0.396-0.394,0.327-0.394,0.327l0.394-0.327h-6.801
	c0,0-1.897,1.577-1.105,3.286c0.791,1.707-4.904-4.342-3.479-5.127v-7.363h-2.689v-26.953l-2.366-4.471h72.293l-1.918,4.471v26.953
	h-2.689v7.363c1.425,0.785-4.271,6.834-3.48,5.127c0.794-1.709-1.106-3.286-1.106-3.286h-6.8l0.396,0.327
	c0,0-0.713-0.723-0.396-0.327c0.315,0.392-0.948,4.073-0.948,3.021s-1.582-2.496-1.582-2.496h-4.902v3.285l-7.592,11.045
	l-2.689,3.025L1144.892,497.941"/>
<path opacity="0.5" fill="#1C122D" d="M1289.854,420.479c2.386,0.879-0.897,3.188,0.734,5.135c1.632,1.953,1.983,5.225,0.048,6.877
	c-1.032,0.881-2.453,1.119-3.802,1.283c-5.002,0.6-10.076,0.607-15.081,0.023c1.403,0.26,2.311,2,1.721,3.301
	s-2.497,1.764-3.616,0.877c5.229,2.602,9.033,7.887,9.84,13.674c0.233,1.691,0.178,3.564-0.896,4.891
	c-1.069,1.328-3.451,1.623-4.384,0.195c2.672,3.051,2.232,8.297-0.908,10.861c-2.559,3.488-8.038,4.365-11.556,1.848
	c-1.233,3.627-5.716,5.76-9.306,4.424c-3.591-1.334-5.592-5.878-4.154-9.428c-4.484-1.754-7.665-6.412-7.665-11.227
	c-2.162,1.041-4.623-2.439-2.916-4.131c-0.744,3.555-5.713,5.363-8.567,3.119c3.135,1.906,5.379,5.215,5.992,8.832
	c-1.402,0.568-2.804,1.139-4.205,1.706c1.048,0.692,1.801,1.815,2.041,3.044c-0.684,2.713-3.164,4.872-5.943,5.176
	c0.301,4.088-2.307,8.223-6.125,9.715c-3.818,1.49-8.538,0.213-11.083-3c-3.905,3.691-11.494,1.58-12.932-3.596
	c1.722,3.707,3.483,7.654,3.043,11.717c-0.442,4.063-4.028,8.08-8.06,7.408c-3.211,3.033-8.68,3.27-12.142,0.529
	c-3.463-2.74-4.485-8.117-2.27-11.938c-5.773-0.015-10.265-7.02-7.872-12.275c-5.66,0.082-9.901-7.211-7.025-12.09
	c-6.311,1.06-12.133-6.725-9.336-12.48c-3.461,1.898-7.459-1.873-8.663-5.633c-0.306,2.635-0.688,5.451-2.438,7.445
	s-5.383,2.531-6.901,0.357c-2.769,1.855-5.536,3.715-8.303,5.572c-4.551-1.225-6.664-7.66-3.724-11.344
	c-5.046-0.916-8.538-6.817-6.911-11.682c-4.27,1.65-8.056-5.525-5.307-9.188"/>
<linearGradient id="SVGID_10_" gradientUnits="userSpaceOnUse" x1="493.25" y1="9959.9492" x2="430.182" y2="9959.9492" gradientTransform="matrix(1 0 0 -1 0 10494.6641)">
	<stop  offset="0" style="stop-color:#8E191F"/>
	<stop  offset="1" style="stop-color:#E74A25"/>
	<stop  offset="1" style="stop-color:#E44925"/>
</linearGradient>
<path opacity="0.5" fill="url(#SVGID_10_)" d="M503.674,430.412v-9.932H385.191v10.925h18.586l11.615,183.767l-16.262,33.775
	l11.616-8.939h25.555l8.131,6.953l8.13-9.934h27.88l11.616,9.934l-15.102-32.779l10.455-183.77H503.674z M422.363,620.141h45.302
	v8.939h-45.302V620.141z M468.653,431.506l-2.15,182.676h-42.979l-0.833-182.061L468.653,431.506z"/>
<linearGradient id="SVGID_11_" gradientUnits="userSpaceOnUse" x1="580.2397" y1="10012.4824" x2="781.9491" y2="10012.4824" gradientTransform="matrix(1 0 0 -1 0 10494.6641)">
	<stop  offset="0" style="stop-color:#C6892B"/>
	<stop  offset="1" style="stop-color:#F3BC36"/>
	<stop  offset="1" style="stop-color:#687333"/>
</linearGradient>
<path opacity="0.5" fill="url(#SVGID_11_)" d="M795.704,464.269l1.741,23.218c0,0,0,12.607,5.043,12.607s5.043-11.348,5.043-11.348
	l1.786-24.405C804.784,464.384,800.246,464.362,795.704,464.269z"/>
<linearGradient id="SVGID_12_" gradientUnits="userSpaceOnUse" x1="580.2402" y1="10012.7949" x2="781.9504" y2="10012.7949" gradientTransform="matrix(1 0 0 -1 0 10494.6641)">
	<stop  offset="0" style="stop-color:#C6892B"/>
	<stop  offset="1" style="stop-color:#F3BC36"/>
	<stop  offset="1" style="stop-color:#687333"/>
</linearGradient>
<path opacity="0.5" fill="url(#SVGID_12_)" d="M820.979,466.587v19.216c0,8.826,3.781,11.35,3.781,11.35
	c4.622,0,5.044-10.928,5.044-10.928l1.31-16.376C827.715,468.872,824.336,467.792,820.979,466.587z"/>
<linearGradient id="SVGID_13_" gradientUnits="userSpaceOnUse" x1="580.2402" y1="10004.8281" x2="781.9497" y2="10004.8281" gradientTransform="matrix(1 0 0 -1 0 10494.6641)">
	<stop  offset="0" style="stop-color:#C6892B"/>
	<stop  offset="1" style="stop-color:#F3BC36"/>
	<stop  offset="1" style="stop-color:#687333"/>
</linearGradient>
<path opacity="0.5" fill="url(#SVGID_13_)" d="M975.334,478.225c-2.513-0.083-5.024-0.165-7.537-0.247
	c-1.49-0.033-2.983-0.058-4.478-0.078c0.885,12.146,2.788,23.876,6.842,23.876c4.176,0,5.862-11.829,6.502-23.731
	C976.219,478.103,975.782,478.178,975.334,478.225z"/>
<linearGradient id="SVGID_14_" gradientUnits="userSpaceOnUse" x1="580.2402" y1="9956.4492" x2="781.9504" y2="9956.4492" gradientTransform="matrix(1 0 0 -1 0 10494.6641)">
	<stop  offset="0" style="stop-color:#C6892B"/>
	<stop  offset="1" style="stop-color:#F3BC36"/>
	<stop  offset="1" style="stop-color:#687333"/>
</linearGradient>
<path opacity="0.5" fill="url(#SVGID_14_)" d="M923.095,480.764l0.578-2.56c-25.505,0.354-51.084,0.273-75.832-4.402l2.134,6.962
	l8.824-2.102l3.363,5.043h-5.883v3.781h7.563l2.522,4.623h-6.727v4.203h7.564l2.103,5.881h-4.624v3.363h4.203l1.263,3.781v38.242
	h9.664v40.762c0,9.244,6.723,14.287,6.723,14.287c6.726,0,9.666-14.709,9.666-14.709v-40.762h5.463l4.201-39.084l1.681-5.039h3.364
	v-3.779h-2.521l1.259-4.627h7.146v-2.939h-6.303l0.839-3.784h7.564v-2.94h-6.305l2.102-5.885L923.095,480.764z"/>
<linearGradient id="SVGID_15_" gradientUnits="userSpaceOnUse" x1="580.2397" y1="10007.375" x2="781.9495" y2="10007.375" gradientTransform="matrix(1 0 0 -1 0 10494.6641)">
	<stop  offset="0" style="stop-color:#C6892B"/>
	<stop  offset="1" style="stop-color:#F3BC36"/>
	<stop  offset="1" style="stop-color:#687333"/>
</linearGradient>
<path opacity="0.5" fill="url(#SVGID_15_)" d="M941.441,477.942c0.813,9.714,2.513,18.786,6.026,18.786
	c3.357,0,5.059-8.938,5.914-18.882C949.411,477.854,945.43,477.892,941.441,477.942z"/>
<g opacity="0.5">
	<polygon fill="none" stroke="#010101" stroke-width="0.7002" stroke-linecap="round" stroke-linejoin="round" points="
		878.64,472.389 873.505,472.35 873.398,484.584 878.532,484.627 	"/>
	<path fill="#FFFFFF" d="M848.602,464.385l3.502,0.033L848.602,464.385c0,0,0.835,1.697-1.732,3.359
		c-2.564,1.672,1.221,6.77,1.221,6.77c-1.45,1.953-5.188,5.295-5.188,5.295l-5.371-5.387c0,0,3.469-5.037,0.917-6.748
		c-2.558-1.713-1.844-3.301-1.844-3.301"/>
	<path fill="#FFFFFF" d="M884.457,428.137l-0.185,21.092l2.278,0.863l-0.022,1.973l2.269,1.426l-0.064,7.883l-1.438,0.83
		l-0.299,1.68l-1.722,0.832l0.274,1.406l-0.048,5.348l-1.437,1.109l-1.019,2.387l0.073,8.018l1.695,1.42l-0.053,6.189l-2.011,1.67
		l-0.873,1.68l-1.441,1.111l-0.867,1.68l-0.302,1.684l-1.15,1.119l-0.903,5.334l-1.143-0.01l-1.089-5.633l-1.42-0.859l0.01-1.127
		l-1.133-0.852l0.011-1.404l-1.701-1.141l0.016-1.688l-2.555-1.714l0.05-5.906l1.724-1.389l0.074-8.16l-0.833-2.254l-0.848-0.855
		l0.063-7.222l-3.692-0.034c0.275,1.127-2.06,4.674-2.06,4.674l1.377,5.924l-5.186,5.297l-5.371-5.953c0,0,2.835-5.113,0.279-6.826
		c-2.556-1.709-1.884-3.336-1.884-3.336"/>
	<polygon fill="none" stroke="#010101" stroke-width="0.6922" stroke-linecap="round" stroke-linejoin="round" points="
		760.806,471.344 765.821,471.391 765.715,483.629 760.694,483.578 	"/>
	<path fill="#FFFFFF" d="M805.279,464.072l-3.422-0.031L805.279,464.072c0,0-0.847,1.682,1.634,3.393
		c2.475,1.707-0.962,6.816-0.962,6.816l4.972,5.523l5.062-5.016c0,0-3.715-5.096-1.194-6.764c2.524-1.666,1.863-3.303,1.863-3.303
		l4.958,0.041c0,0-0.708,1.629,1.848,3.34c2.551,1.713-1.345,6.736-1.345,6.736l5.088,5.109l5.188-5.441c0,0-3.424-5.162-0.86-6.828
		c2.565-1.662,1.729-3.361,1.729-3.361l3.5,0.035l-3.5-0.035"/>
	<path fill="#FFFFFF" d="M790.291,463.869l-3.421-0.035L790.291,463.869c0,0-0.847,1.68,1.63,3.387
		c2.477,1.719-1.311,6.748-1.311,6.748c1.381,1.979,4.979,5.383,4.979,5.383l5.343-5.295c0,0-3.301-5.094-0.78-6.76
		c2.526-1.666,1.863-3.271,1.863-3.271"/>
	<path fill="#FFFFFF" d="M755.896,426.99l-0.189,21.096l-2.236,0.824l0.155,1.586l-2.417,1.77l-0.07,7.881l1.386,0.854l0.266,1.693
		l1.666,0.857l0.402,0.988l-0.029,5.908l0.96,1.414l0.556,1.975l-0.077,8.438l-1.582,1.535l-0.181,5.619l2.543,1.717l0.215,1.688
		l1.387,1.141l0.815,1.691l0.266,1.693l1.106,1.132l0.791,5.351l1.113,0.01l1.168-5.613l1.401-0.834l0.009-1.125l1.126-0.832
		l0.011-1.408l1.686-1.111l0.012-1.684l2.526-1.668l0.049-5.906l-1.656-1.422l0.072-8.154l0.857-2.248l0.842-0.836l0.062-7.225
		l3.61,0.035c-0.29,1.123,1.928,4.712,1.928,4.712l-1.451,5.892l4.974,5.391l5.354-5.857c0,0-2.676-5.16-0.153-6.828
		c2.527-1.662,1.897-3.305,1.897-3.305"/>
	<polygon fill="#FFFFFF" points="885.017,421.932 755.495,421.932 755.838,464.295 885.273,464.715 	"/>
	<polygon fill="#E66881" points="764.766,476.984 760.424,476.941 760.318,488.633 764.663,488.676 	"/>
	
		<rect x="874.478" y="478.611" transform="matrix(1 0.009 -0.009 1 4.3999 -7.8777)" fill="#E66881" width="4.336" height="11.694"/>
</g>
<g opacity="0.5">
	<polygon fill="#E6E7E8" stroke="#010101" stroke-width="0.7002" stroke-linecap="round" stroke-linejoin="round" points="
		1020.658,471.932 1015.521,471.891 1015.416,484.125 1020.547,484.168 	"/>
	<path fill="#E6E7E8" d="M990.619,463.928l3.5,0.033L990.619,463.928c0,0,0.837,1.695-1.731,3.359
		c-2.565,1.67,1.218,6.768,1.218,6.768c-1.447,1.957-5.187,5.297-5.187,5.297l-5.371-5.389c0,0,3.468-5.037,0.918-6.744
		c-2.56-1.717-1.844-3.305-1.844-3.305"/>
	<path fill="#E6E7E8" d="M1026.475,427.678l-0.186,21.096l2.278,0.861l-0.021,1.973l2.268,1.424l-0.063,7.883l-1.438,0.832
		l-0.298,1.68l-1.723,0.828l0.274,1.408l-0.048,5.348l-1.438,1.111l-1.018,2.385l0.075,8.02l1.694,1.418l-0.055,6.189l-2.011,1.672
		l-0.873,1.678l-1.44,1.111l-0.865,1.682l-0.305,1.684l-1.148,1.117l-0.903,5.336l-1.142-0.007l-1.091-5.64l-1.418-0.855
		l0.008-1.125l-1.129-0.854l0.007-1.404l-1.702-1.141l0.017-1.689l-2.555-1.713l0.05-5.906l1.726-1.389l0.074-8.162l-0.835-2.252
		l-0.85-0.855l0.067-7.225l-3.694-0.031c0.276,1.127-2.059,4.672-2.059,4.672l1.376,5.926l-5.187,5.297l-5.368-5.957
		c0,0,2.831-5.111,0.278-6.82c-2.559-1.709-1.884-3.34-1.884-3.34"/>
	<polygon fill="#E6E7E8" stroke="#010101" stroke-width="0.6922" stroke-linecap="round" stroke-linejoin="round" points="
		902.82,470.885 907.84,470.932 907.731,483.172 902.713,483.121 	"/>
	<path fill="#E6E7E8" d="M947.296,463.615l-3.424-0.031L947.296,463.615c0,0-0.847,1.68,1.634,3.393
		c2.473,1.705-0.96,6.813-0.96,6.813l4.97,5.525l5.063-5.014c0,0-3.717-5.096-1.195-6.766c2.525-1.664,1.863-3.303,1.863-3.303
		l4.959,0.043c0,0-0.706,1.629,1.847,3.338c2.554,1.715-1.347,6.738-1.347,6.738l5.091,5.109l5.188-5.441
		c0,0-3.422-5.164-0.862-6.828c2.566-1.662,1.733-3.363,1.733-3.363l3.498,0.037l-3.498-0.037"/>
	<path fill="#E6E7E8" d="M932.308,463.41l-3.421-0.035L932.308,463.41c0,0-0.847,1.682,1.632,3.389
		c2.476,1.715-1.312,6.746-1.312,6.746c1.381,1.98,4.979,5.385,4.979,5.385l5.342-5.297c0,0-3.301-5.092-0.778-6.76
		c2.524-1.668,1.861-3.27,1.861-3.27"/>
	<path fill="#E6E7E8" d="M897.912,426.535l-0.188,21.094l-2.235,0.824l0.154,1.584l-2.418,1.773l-0.069,7.875l1.385,0.857
		l0.268,1.693l1.664,0.855l0.402,0.988l-0.03,5.91l0.961,1.412l0.556,1.977l-0.073,8.438l-1.587,1.535l-0.18,5.621l2.541,1.713
		l0.217,1.691l1.388,1.137l0.815,1.691l0.266,1.693l1.107,1.133l0.79,5.352l1.114,0.01l1.166-5.612l1.4-0.835l0.01-1.127
		l1.126-0.828l0.011-1.41l1.685-1.111l0.015-1.688l2.525-1.662l0.049-5.908l-1.657-1.422l0.073-8.156l0.856-2.244l0.842-0.838
		l0.062-7.227l3.61,0.037c-0.288,1.121,1.928,4.709,1.928,4.709l-1.449,5.893l4.973,5.391l5.354-5.855c0,0-2.675-5.16-0.153-6.828
		c2.527-1.664,1.897-3.307,1.897-3.307"/>
	<polygon fill="#E6E7E8" points="1027.033,421.477 897.513,421.477 897.854,463.836 1027.291,464.254 	"/>
	<rect x="902.388" y="476.506" transform="matrix(1 0.009 -0.009 1 4.3771 -8.1201)" fill="#EA70A2" width="4.341" height="11.69"/>
	
		<rect x="1016.495" y="478.153" transform="matrix(1 0.0095 -0.0095 1 4.6227 -9.6118)" fill="#EA70A2" width="4.337" height="11.694"/>
</g>
<g opacity="0.9">
	<g id="XMLID_12_">
		<g>
			<path fill="#992E22" d="M143.93,372.184v3.918h-0.476v-0.468h-0.063c0.301-1.063,0.484-2.229,0.523-3.45H143.93z"/>
			<linearGradient id="SVGID_16_" gradientUnits="userSpaceOnUse" x1="131.4604" y1="360.5508" x2="143.9302" y2="360.5508">
				<stop  offset="0" style="stop-color:#722A79"/>
				<stop  offset="1" style="stop-color:#DC5F76"/>
			</linearGradient>
			<path fill="url(#SVGID_16_)" d="M143.93,345.468v26.716h-0.016c-0.04,1.221-0.222,2.388-0.523,3.45H132
				c-0.301-1.063-0.484-2.229-0.523-3.45h-0.016v-26.716H143.93z"/>
			<linearGradient id="SVGID_17_" gradientUnits="userSpaceOnUse" x1="131.4604" y1="343.9365" x2="143.9302" y2="343.9365">
				<stop  offset="0" style="stop-color:#722A79"/>
				<stop  offset="1" style="stop-color:#DC5F76"/>
			</linearGradient>
			<rect x="131.46" y="342.406" fill="url(#SVGID_17_)" width="12.47" height="3.062"/>
			<path fill="#FFC630" d="M143.455,376.103l0.143,44.397l-71.566,0.396l0.127-43.596c1.126,2.522,2.991,4.165,5.101,4.165
				c2.427,0,4.529-2.182,5.553-5.362h4.006c1.023,3.181,3.125,5.362,5.553,5.362s4.529-2.182,5.553-5.362h4.006
				c1.023,3.181,3.125,5.362,5.552,5.362c2.428,0,4.53-2.182,5.545-5.362h4.014c1.016,3.181,3.118,5.362,5.545,5.362
				s4.537-2.182,5.553-5.362h4.006c1.023,3.181,3.125,5.362,5.552,5.362s4.53-2.182,5.553-5.362H143.455z M137.132,398.694V388.35
				h-4.537v10.344H137.132z M128.438,406.341v-4.974h-2.642v-13.779H89.538v13.779h-3.022v4.974H128.438z M82.359,398.694V388.35
				h-4.537v10.344H82.359z"/>
			<path fill="#992E22" d="M143.455,375.634v0.468h-0.207c0.056-0.151,0.103-0.31,0.143-0.468H143.455z"/>
			<linearGradient id="SVGID_18_" gradientUnits="userSpaceOnUse" x1="132" y1="375.8682" x2="143.3911" y2="375.8682">
				<stop  offset="0" style="stop-color:#722A79"/>
				<stop  offset="1" style="stop-color:#DC5F76"/>
			</linearGradient>
			<path fill="url(#SVGID_18_)" d="M132,375.634h11.391c-0.04,0.159-0.087,0.317-0.143,0.468h-11.105
				C132.087,375.952,132.04,375.793,132,375.634z"/>
			<linearGradient id="SVGID_19_" gradientUnits="userSpaceOnUse" x1="132.1431" y1="378.7837" x2="143.248" y2="378.7837">
				<stop  offset="0" style="stop-color:#722A79"/>
				<stop  offset="1" style="stop-color:#DC5F76"/>
			</linearGradient>
			<path fill="url(#SVGID_19_)" d="M132.143,376.103h11.105c-1.023,3.181-3.125,5.362-5.553,5.362S133.166,379.283,132.143,376.103z
				"/>
			<rect x="132.595" y="388.35" fill="#FFFFFF" width="4.537" height="10.344"/>
			<path fill="#992E22" d="M132.143,376.103h-4.006c0.055-0.151,0.103-0.31,0.143-0.468H132
				C132.04,375.793,132.087,375.952,132.143,376.103z"/>
			<path fill="#992E22" d="M132,375.634h-3.72c0.301-1.063,0.484-2.229,0.523-3.45h0.016v-26.716h2.641v26.716h0.016
				C131.516,373.405,131.699,374.572,132,375.634z"/>
			<path fill="#FFFFFF" d="M128.819,345.468v26.716h-0.016c-0.04,1.221-0.222,2.388-0.523,3.45h-11.383
				c-0.302-1.063-0.484-2.229-0.523-3.45h-0.016v-26.716H128.819z"/>
			<rect x="116.357" y="342.406" fill="#FFFFFF" width="12.462" height="3.062"/>
			<polygon fill="#E45E26" points="128.438,401.367 128.438,406.341 86.516,406.341 86.516,401.367 89.538,401.367 89.538,404.817 
				125.797,404.817 125.797,401.367 			"/>
			<path fill="#FFFFFF" d="M116.897,375.634h11.383c-0.04,0.159-0.087,0.317-0.143,0.468H117.04
				C116.984,375.952,116.937,375.793,116.897,375.634z"/>
			<path fill="#FFFFFF" d="M117.04,376.103h11.098c-1.016,3.181-3.125,5.362-5.553,5.362S118.055,379.283,117.04,376.103z"/>
			<rect x="89.538" y="401.367" fill="#E45E26" width="36.259" height="3.45"/>
			<rect x="89.538" y="387.588" fill="#A81F24" width="36.259" height="13.779"/>
			<path fill="#992E22" d="M117.04,376.103h-4.014c0.056-0.151,0.103-0.31,0.143-0.468h3.729
				C116.937,375.793,116.984,375.952,117.04,376.103z"/>
			<path fill="#992E22" d="M116.897,375.634h-3.729c0.302-1.063,0.484-2.229,0.524-3.45h0.016v-26.716h2.649v26.716h0.016
				C116.413,373.405,116.595,374.572,116.897,375.634z"/>
			<linearGradient id="SVGID_20_" gradientUnits="userSpaceOnUse" x1="101.2461" y1="360.5508" x2="113.708" y2="360.5508">
				<stop  offset="0" style="stop-color:#722A79"/>
				<stop  offset="1" style="stop-color:#DC5F76"/>
			</linearGradient>
			<path fill="url(#SVGID_20_)" d="M113.708,345.468v26.716h-0.016c-0.04,1.221-0.222,2.388-0.524,3.45h-11.383
				c-0.301-1.063-0.484-2.229-0.523-3.45h-0.016v-26.716H113.708z"/>
			<linearGradient id="SVGID_21_" gradientUnits="userSpaceOnUse" x1="101.2461" y1="343.9365" x2="113.708" y2="343.9365">
				<stop  offset="0" style="stop-color:#722A79"/>
				<stop  offset="1" style="stop-color:#DC5F76"/>
			</linearGradient>
			<rect x="101.246" y="342.406" fill="url(#SVGID_21_)" width="12.462" height="3.062"/>
			<linearGradient id="SVGID_22_" gradientUnits="userSpaceOnUse" x1="101.7856" y1="375.8682" x2="113.1685" y2="375.8682">
				<stop  offset="0" style="stop-color:#722A79"/>
				<stop  offset="1" style="stop-color:#DC5F76"/>
			</linearGradient>
			<path fill="url(#SVGID_22_)" d="M101.786,375.634h11.383c-0.04,0.159-0.087,0.317-0.143,0.468h-11.097
				C101.873,375.952,101.825,375.793,101.786,375.634z"/>
			<linearGradient id="SVGID_23_" gradientUnits="userSpaceOnUse" x1="101.9287" y1="378.7837" x2="113.0259" y2="378.7837">
				<stop  offset="0" style="stop-color:#722A79"/>
				<stop  offset="1" style="stop-color:#DC5F76"/>
			</linearGradient>
			<path fill="url(#SVGID_23_)" d="M101.929,376.103h11.097c-1.015,3.181-3.117,5.362-5.545,5.362
				C105.054,381.465,102.952,379.283,101.929,376.103z"/>
			<path fill="#FFC630" d="M101.929,376.103h-4.006c0.055-0.151,0.103-0.31,0.143-0.468h3.72
				C101.825,375.793,101.873,375.952,101.929,376.103z"/>
			<path fill="#992E22" d="M101.786,375.634h-3.72c0.301-1.063,0.484-2.229,0.523-3.45h0.016v-26.716h2.641v26.716h0.016
				C101.302,373.405,101.484,374.572,101.786,375.634z"/>
			<path fill="#FFFFFF" d="M98.605,345.468v26.716h-0.016c-0.04,1.221-0.222,2.388-0.523,3.45H86.675
				c-0.302-1.063-0.484-2.229-0.524-3.45h-0.016v-26.716H98.605z"/>
			<rect x="86.135" y="342.406" fill="#FFFFFF" width="12.47" height="3.062"/>
			<path fill="#FFFFFF" d="M86.675,375.634h11.391c-0.04,0.159-0.087,0.317-0.143,0.468H86.817
				C86.762,375.952,86.714,375.793,86.675,375.634z"/>
			<path fill="#FFFFFF" d="M86.817,376.103h11.105c-1.023,3.181-3.125,5.362-5.553,5.362S87.841,379.283,86.817,376.103z"/>
			<path fill="#FFC630" d="M86.817,376.103h-4.006c0.056-0.151,0.103-0.31,0.143-0.468h3.721
				C86.714,375.793,86.762,375.952,86.817,376.103z"/>
			<path fill="#992E22" d="M86.675,375.634h-3.721c0.302-1.063,0.484-2.229,0.524-3.45h0.016v-26.716h2.642v26.716h0.016
				C86.191,373.405,86.373,374.572,86.675,375.634z"/>
			<linearGradient id="SVGID_24_" gradientUnits="userSpaceOnUse" x1="71.4048" y1="360.7852" x2="83.4937" y2="360.7852">
				<stop  offset="0" style="stop-color:#722A79"/>
				<stop  offset="1" style="stop-color:#DC5F76"/>
			</linearGradient>
			<path fill="url(#SVGID_24_)" d="M83.494,345.468v26.716h-0.016c-0.04,1.221-0.222,2.388-0.524,3.45H72.167v0.468h-0.46
				c-0.119-0.349-0.214-0.714-0.301-1.087v-29.548H83.494z"/>
			<linearGradient id="SVGID_25_" gradientUnits="userSpaceOnUse" x1="71.0239" y1="358.7109" x2="83.4937" y2="358.7109">
				<stop  offset="0" style="stop-color:#722A79"/>
				<stop  offset="1" style="stop-color:#DC5F76"/>
			</linearGradient>
			<path fill="url(#SVGID_25_)" d="M83.494,342.406v3.062H71.405v29.548c-0.206-0.888-0.333-1.84-0.365-2.832h-0.016v-29.778H83.494
				z"/>
			<linearGradient id="SVGID_26_" gradientUnits="userSpaceOnUse" x1="72.1665" y1="375.8682" x2="82.9541" y2="375.8682">
				<stop  offset="0" style="stop-color:#722A79"/>
				<stop  offset="1" style="stop-color:#DC5F76"/>
			</linearGradient>
			<path fill="url(#SVGID_26_)" d="M72.167,375.634h10.788c-0.04,0.159-0.087,0.317-0.143,0.468H72.167V375.634z"/>
			<linearGradient id="SVGID_27_" gradientUnits="userSpaceOnUse" x1="72.1582" y1="378.7837" x2="82.8115" y2="378.7837">
				<stop  offset="0" style="stop-color:#722A79"/>
				<stop  offset="1" style="stop-color:#DC5F76"/>
			</linearGradient>
			<path fill="url(#SVGID_27_)" d="M72.167,376.103h10.645c-1.023,3.181-3.125,5.362-5.553,5.362c-2.11,0-3.974-1.642-5.101-4.165
				L72.167,376.103z"/>
			<rect x="77.822" y="388.35" fill="#FFFFFF" width="4.537" height="10.344"/>
			<linearGradient id="SVGID_28_" gradientUnits="userSpaceOnUse" x1="71.7061" y1="376.7012" x2="72.1665" y2="376.7012">
				<stop  offset="0" style="stop-color:#722A79"/>
				<stop  offset="1" style="stop-color:#DC5F76"/>
			</linearGradient>
			<path fill="url(#SVGID_28_)" d="M72.167,376.103l-0.008,1.198c-0.167-0.381-0.317-0.777-0.452-1.198H72.167z"/>
			<path fill="#992E22" d="M71.706,376.103h-0.301v-1.087C71.492,375.389,71.587,375.753,71.706,376.103z"/>
		</g>
		<g>
		</g>
	</g>
</g>
<g opacity="0.9">
	<g id="XMLID_11_">
		<g>
			<path fill="#C5A22E" d="M257.217,329.836c-0.494,21.121,6.659,30.013,18.426,47.382c-6.565-0.882-13.243-1.201-19.971-1.244
				l-0.15-5.008l-92.814-0.913l-0.05,4.996c-6.891-0.212-13.775-0.45-20.653-0.744c7.628-7.41,15.219-15.157,19.896-25.055
				c3.17-6.721,4.039-14.043,5.596-20.953c2.069,4.04,6.884,9.773,11.58,12.824c-0.319-0.056-0.638-0.112-0.951-0.175l2.076,0.856
				c1.007,0.557,1.995,0.976,2.939,1.207l-2.939-1.207c-0.369-0.206-0.75-0.431-1.125-0.682c14.875,2.732,33.045,2.213,47.982,0.726
				C239.94,340.559,247.844,338.302,257.217,329.836z"/>
			<path fill="#FFFFFF" d="M255.672,375.974l1.325,44.706l-94.79,0.319l0.45-45.951c15.269,0.469,30.575,0.844,45.888,1.513
				C224.134,377.237,240.053,375.868,255.672,375.974z M250.333,404.711l0.2-20.677l-11.117-0.113l-0.2,20.684L250.333,404.711z
				 M232.888,404.542l0.2-20.678l-11.111-0.112l-0.206,20.677L232.888,404.542z M215.443,404.367l0.2-20.677l-11.117-0.106
				l-0.207,20.684L215.443,404.367z M196.391,404.18l0.206-20.678l-11.117-0.106l-0.206,20.684L196.391,404.18z M178.946,404.011
				l0.206-20.677l-11.111-0.106l-0.212,20.677L178.946,404.011z"/>
			<path fill="#C5A22E" d="M255.522,370.966l0.15,5.008c-15.619-0.106-31.539,1.263-47.126,0.587
				c-15.313-0.669-30.619-1.044-45.888-1.513l0.05-4.996L255.522,370.966z"/>
			<polygon fill="#A81F24" points="250.533,384.034 250.333,404.711 239.215,404.605 239.416,383.921 			"/>
			<polygon fill="#A81F24" points="233.088,383.865 232.888,404.542 221.771,404.43 221.977,383.752 			"/>
			<polygon fill="#A81F24" points="215.643,383.69 215.443,404.367 204.319,404.267 204.526,383.583 			"/>
			<polygon fill="#A81F24" points="196.597,383.502 196.391,404.18 185.274,404.08 185.48,383.396 			"/>
			<path fill="#C5A22E" d="M180.203,341.803l-2.076-0.856c0.313,0.063,0.631,0.119,0.951,0.175
				C179.453,341.372,179.834,341.597,180.203,341.803z"/>
			<polygon fill="#A81F24" points="179.152,383.333 178.946,404.011 167.829,403.904 168.042,383.227 			"/>
			<path fill="#C5A22E" d="M167.379,328.06c0.144-0.182,0.2-0.182,0.175-0.006c-0.019,0.082-0.038,0.163-0.056,0.244
				C167.454,328.216,167.416,328.135,167.379,328.06z"/>
		</g>
		<g>
			<path fill="none" stroke="#DBE8AA" stroke-width="2.0179" stroke-linecap="round" stroke-miterlimit="10" d="M156.162,368.477
				c6.584-7.928,12.167-15.119,12.968-25.548c14.244,8.635,31.107,9.185,47.232,8.498c10.754-0.463,28.318-3.539,37.247-9.686
				c-2.07,9.123,3.927,21.153,11.017,26.286"/>
		</g>
	</g>
</g>
<g opacity="0.5">
	<g id="XMLID_14_">
		<g>
			<path fill="#992E22" d="M143.929,471.773v-3.919h-0.476v0.468h-0.063c0.301,1.063,0.484,2.229,0.523,3.451H143.929z"/>
			<linearGradient id="SVGID_29_" gradientUnits="userSpaceOnUse" x1="131.4595" y1="483.4053" x2="143.9292" y2="483.4053">
				<stop  offset="0" style="stop-color:#722A79"/>
				<stop  offset="1" style="stop-color:#DC5F76"/>
			</linearGradient>
			<path fill="url(#SVGID_29_)" d="M143.929,498.489v-26.716h-0.016c-0.04-1.222-0.222-2.388-0.523-3.451h-11.391
				c-0.301,1.063-0.484,2.229-0.523,3.451h-0.016v26.716H143.929z"/>
			<linearGradient id="SVGID_30_" gradientUnits="userSpaceOnUse" x1="131.4595" y1="500.0195" x2="143.9292" y2="500.0195">
				<stop  offset="0" style="stop-color:#722A79"/>
				<stop  offset="1" style="stop-color:#DC5F76"/>
			</linearGradient>
			<rect x="131.459" y="498.489" fill="url(#SVGID_30_)" width="12.47" height="3.062"/>
			<path fill="#FFC630" d="M143.454,467.854l0.143-44.397L72.03,423.06l0.127,43.596c1.126-2.522,2.991-4.164,5.101-4.164
				c2.427,0,4.529,2.181,5.553,5.362h4.006c1.023-3.181,3.125-5.362,5.553-5.362s4.529,2.181,5.553,5.362h4.006
				c1.023-3.181,3.125-5.362,5.552-5.362c2.428,0,4.53,2.181,5.545,5.362h4.014c1.016-3.181,3.118-5.362,5.545-5.362
				s4.537,2.181,5.553,5.362h4.006c1.023-3.181,3.125-5.362,5.552-5.362s4.53,2.181,5.553,5.362H143.454z M137.131,445.263v10.344
				h-4.537v-10.344H137.131z M128.438,437.616v4.974h-2.642v13.778H89.537V442.59h-3.022v-4.974H128.438z M82.358,445.263v10.344
				h-4.537v-10.344H82.358z"/>
			<path fill="#992E22" d="M143.454,468.322v-0.468h-0.207c0.056,0.151,0.103,0.31,0.143,0.468H143.454z"/>
			<linearGradient id="SVGID_31_" gradientUnits="userSpaceOnUse" x1="131.999" y1="468.0879" x2="143.3901" y2="468.0879">
				<stop  offset="0" style="stop-color:#722A79"/>
				<stop  offset="1" style="stop-color:#DC5F76"/>
			</linearGradient>
			<path fill="url(#SVGID_31_)" d="M131.999,468.322h11.391c-0.04-0.159-0.087-0.317-0.143-0.468h-11.105
				C132.086,468.005,132.039,468.164,131.999,468.322z"/>
			<linearGradient id="SVGID_32_" gradientUnits="userSpaceOnUse" x1="132.1421" y1="465.1729" x2="143.2471" y2="465.1729">
				<stop  offset="0" style="stop-color:#722A79"/>
				<stop  offset="1" style="stop-color:#DC5F76"/>
			</linearGradient>
			<path fill="url(#SVGID_32_)" d="M132.142,467.854h11.105c-1.023-3.181-3.125-5.362-5.553-5.362S133.165,464.673,132.142,467.854z
				"/>
			<rect x="132.594" y="445.263" fill="#FFFFFF" width="4.537" height="10.344"/>
			<path fill="#992E22" d="M132.142,467.854h-4.006c0.055,0.151,0.103,0.31,0.143,0.468h3.72
				C132.039,468.164,132.086,468.005,132.142,467.854z"/>
			<path fill="#992E22" d="M131.999,468.322h-3.72c0.301,1.063,0.484,2.229,0.523,3.451h0.016v26.716h2.641v-26.716h0.016
				C131.515,470.551,131.698,469.385,131.999,468.322z"/>
			<path fill="#FFFFFF" d="M128.818,498.489v-26.716h-0.016c-0.04-1.222-0.222-2.388-0.523-3.451h-11.383
				c-0.302,1.063-0.484,2.229-0.523,3.451h-0.016v26.716H128.818z"/>
			<rect x="116.356" y="498.489" fill="#FFFFFF" width="12.462" height="3.062"/>
			<polygon fill="#E45E26" points="128.438,442.59 128.438,437.616 86.515,437.616 86.515,442.59 89.537,442.59 89.537,439.139 
				125.796,439.139 125.796,442.59 			"/>
			<path fill="#FFFFFF" d="M116.896,468.322h11.383c-0.04-0.159-0.087-0.317-0.143-0.468h-11.098
				C116.983,468.005,116.936,468.164,116.896,468.322z"/>
			<path fill="#FFFFFF" d="M117.039,467.854h11.098c-1.016-3.181-3.125-5.362-5.553-5.362S118.054,464.673,117.039,467.854z"/>
			<rect x="89.537" y="439.139" fill="#E45E26" width="36.259" height="3.451"/>
			<rect x="89.537" y="442.59" fill="#A81F24" width="36.259" height="13.778"/>
			<path fill="#992E22" d="M117.039,467.854h-4.014c0.056,0.151,0.103,0.31,0.143,0.468h3.729
				C116.936,468.164,116.983,468.005,117.039,467.854z"/>
			<path fill="#992E22" d="M116.896,468.322h-3.729c0.302,1.063,0.484,2.229,0.524,3.451h0.016v26.716h2.649v-26.716h0.016
				C116.412,470.551,116.594,469.385,116.896,468.322z"/>
			<linearGradient id="SVGID_33_" gradientUnits="userSpaceOnUse" x1="101.2451" y1="483.4053" x2="113.707" y2="483.4053">
				<stop  offset="0" style="stop-color:#722A79"/>
				<stop  offset="1" style="stop-color:#DC5F76"/>
			</linearGradient>
			<path fill="url(#SVGID_33_)" d="M113.707,498.489v-26.716h-0.016c-0.04-1.222-0.222-2.388-0.524-3.451h-11.383
				c-0.301,1.063-0.484,2.229-0.523,3.451h-0.016v26.716H113.707z"/>
			<linearGradient id="SVGID_34_" gradientUnits="userSpaceOnUse" x1="101.2451" y1="500.0195" x2="113.707" y2="500.0195">
				<stop  offset="0" style="stop-color:#722A79"/>
				<stop  offset="1" style="stop-color:#DC5F76"/>
			</linearGradient>
			<rect x="101.245" y="498.489" fill="url(#SVGID_34_)" width="12.462" height="3.062"/>
			<linearGradient id="SVGID_35_" gradientUnits="userSpaceOnUse" x1="101.7847" y1="468.0879" x2="113.1675" y2="468.0879">
				<stop  offset="0" style="stop-color:#722A79"/>
				<stop  offset="1" style="stop-color:#DC5F76"/>
			</linearGradient>
			<path fill="url(#SVGID_35_)" d="M101.785,468.322h11.383c-0.04-0.159-0.087-0.317-0.143-0.468h-11.097
				C101.872,468.005,101.824,468.164,101.785,468.322z"/>
			<linearGradient id="SVGID_36_" gradientUnits="userSpaceOnUse" x1="101.9277" y1="465.1729" x2="113.0249" y2="465.1729">
				<stop  offset="0" style="stop-color:#722A79"/>
				<stop  offset="1" style="stop-color:#DC5F76"/>
			</linearGradient>
			<path fill="url(#SVGID_36_)" d="M101.928,467.854h11.097c-1.015-3.181-3.117-5.362-5.545-5.362
				C105.053,462.492,102.951,464.673,101.928,467.854z"/>
			<path fill="#FFC630" d="M101.928,467.854h-4.006c0.055,0.151,0.103,0.31,0.143,0.468h3.72
				C101.824,468.164,101.872,468.005,101.928,467.854z"/>
			<path fill="#992E22" d="M101.785,468.322h-3.72c0.301,1.063,0.484,2.229,0.523,3.451h0.016v26.716h2.641v-26.716h0.016
				C101.301,470.551,101.483,469.385,101.785,468.322z"/>
			<path fill="#FFFFFF" d="M98.604,498.489v-26.716h-0.016c-0.04-1.222-0.222-2.388-0.523-3.451H86.674
				c-0.302,1.063-0.484,2.229-0.524,3.451h-0.016v26.716H98.604z"/>
			<rect x="86.134" y="498.489" fill="#FFFFFF" width="12.47" height="3.062"/>
			<path fill="#FFFFFF" d="M86.674,468.322h11.391c-0.04-0.159-0.087-0.317-0.143-0.468H86.816
				C86.761,468.005,86.713,468.164,86.674,468.322z"/>
			<path fill="#FFFFFF" d="M86.816,467.854h11.105c-1.023-3.181-3.125-5.362-5.553-5.362S87.84,464.673,86.816,467.854z"/>
			<path fill="#FFC630" d="M86.816,467.854h-4.006c0.056,0.151,0.103,0.31,0.143,0.468h3.721
				C86.713,468.164,86.761,468.005,86.816,467.854z"/>
			<path fill="#992E22" d="M86.674,468.322h-3.721c0.302,1.063,0.484,2.229,0.524,3.451h0.016v26.716h2.642v-26.716h0.016
				C86.19,470.551,86.372,469.385,86.674,468.322z"/>
			<linearGradient id="SVGID_37_" gradientUnits="userSpaceOnUse" x1="71.4038" y1="483.1714" x2="83.4927" y2="483.1714">
				<stop  offset="0" style="stop-color:#722A79"/>
				<stop  offset="1" style="stop-color:#DC5F76"/>
			</linearGradient>
			<path fill="url(#SVGID_37_)" d="M83.493,498.489v-26.716h-0.016c-0.04-1.222-0.222-2.388-0.524-3.451H72.166v-0.468h-0.46
				c-0.119,0.349-0.214,0.714-0.301,1.087v29.548H83.493z"/>
			<linearGradient id="SVGID_38_" gradientUnits="userSpaceOnUse" x1="71.0229" y1="485.2461" x2="83.4927" y2="485.2461">
				<stop  offset="0" style="stop-color:#722A79"/>
				<stop  offset="1" style="stop-color:#DC5F76"/>
			</linearGradient>
			<path fill="url(#SVGID_38_)" d="M83.493,501.551v-3.062H71.404v-29.548c-0.206,0.889-0.333,1.84-0.365,2.832h-0.016v29.778
				H83.493z"/>
			<linearGradient id="SVGID_39_" gradientUnits="userSpaceOnUse" x1="72.1655" y1="468.0879" x2="82.9531" y2="468.0879">
				<stop  offset="0" style="stop-color:#722A79"/>
				<stop  offset="1" style="stop-color:#DC5F76"/>
			</linearGradient>
			<path fill="url(#SVGID_39_)" d="M72.166,468.322h10.788c-0.04-0.159-0.087-0.317-0.143-0.468H72.166V468.322z"/>
			<linearGradient id="SVGID_40_" gradientUnits="userSpaceOnUse" x1="72.1572" y1="465.1729" x2="82.8105" y2="465.1729">
				<stop  offset="0" style="stop-color:#722A79"/>
				<stop  offset="1" style="stop-color:#DC5F76"/>
			</linearGradient>
			<path fill="url(#SVGID_40_)" d="M72.166,467.854h10.645c-1.023-3.181-3.125-5.362-5.553-5.362c-2.11,0-3.974,1.642-5.101,4.164
				L72.166,467.854z"/>
			<rect x="77.821" y="445.263" fill="#FFFFFF" width="4.537" height="10.344"/>
			<linearGradient id="SVGID_41_" gradientUnits="userSpaceOnUse" x1="71.7051" y1="467.2549" x2="72.1655" y2="467.2549">
				<stop  offset="0" style="stop-color:#722A79"/>
				<stop  offset="1" style="stop-color:#DC5F76"/>
			</linearGradient>
			<path fill="url(#SVGID_41_)" d="M72.166,467.854l-0.008-1.198c-0.167,0.381-0.317,0.777-0.452,1.198H72.166z"/>
			<path fill="#992E22" d="M71.705,467.854h-0.301v1.087C71.491,468.568,71.586,468.203,71.705,467.854z"/>
		</g>
		<g>
		</g>
	</g>
</g>
<g opacity="0.5">
	<g id="XMLID_13_">
		<g>
			<path fill="#C5A22E" d="M257.216,514.117c-0.494-21.121,6.659-30.013,18.426-47.382c-6.565,0.881-13.243,1.201-19.971,1.244
				l-0.15,5.008l-92.814,0.913l-0.05-4.996c-6.891,0.213-13.775,0.45-20.653,0.744c7.628,7.41,15.219,15.157,19.896,25.054
				c3.17,6.722,4.039,14.043,5.596,20.953c2.069-4.039,6.884-9.772,11.58-12.824c-0.319,0.056-0.638,0.112-0.951,0.175l2.076-0.856
				c1.007-0.557,1.995-0.976,2.939-1.207l-2.939,1.207c-0.369,0.206-0.75,0.431-1.125,0.682c14.875-2.732,33.045-2.214,47.982-0.726
				C239.939,503.394,247.843,505.651,257.216,514.117z"/>
			<path fill="#FFFFFF" d="M255.671,467.979l1.325-44.706l-94.79-0.319l0.45,45.951c15.269-0.469,30.575-0.844,45.888-1.513
				C224.133,466.716,240.052,468.085,255.671,467.979z M250.332,439.242l0.2,20.677l-11.117,0.113l-0.2-20.684L250.332,439.242z
				 M232.887,439.411l0.2,20.678l-11.111,0.112l-0.206-20.677L232.887,439.411z M215.442,439.586l0.2,20.677l-11.117,0.106
				l-0.207-20.684L215.442,439.586z M196.39,439.773l0.206,20.677l-11.117,0.106l-0.206-20.684L196.39,439.773z M178.945,439.942
				l0.206,20.677l-11.111,0.106l-0.212-20.678L178.945,439.942z"/>
			<path fill="#C5A22E" d="M255.521,472.987l0.15-5.008c-15.619,0.106-31.539-1.263-47.126-0.588
				c-15.313,0.669-30.619,1.044-45.888,1.513l0.05,4.996L255.521,472.987z"/>
			<polygon fill="#A81F24" points="250.532,459.919 250.332,439.242 239.214,439.348 239.415,460.032 			"/>
			<polygon fill="#A81F24" points="233.087,460.088 232.887,439.411 221.77,439.523 221.976,460.201 			"/>
			<polygon fill="#A81F24" points="215.642,460.263 215.442,439.586 204.318,439.686 204.525,460.37 			"/>
			<polygon fill="#A81F24" points="196.596,460.451 196.39,439.773 185.273,439.874 185.479,460.557 			"/>
			<path fill="#C5A22E" d="M180.202,502.15l-2.076,0.856c0.313-0.063,0.631-0.119,0.951-0.175
				C179.452,502.581,179.833,502.356,180.202,502.15z"/>
			<polygon fill="#A81F24" points="179.151,460.62 178.945,439.942 167.828,440.048 168.041,460.726 			"/>
			<path fill="#C5A22E" d="M167.378,515.893c0.144,0.181,0.2,0.181,0.175,0.006c-0.019-0.082-0.038-0.163-0.056-0.244
				C167.453,515.737,167.415,515.818,167.378,515.893z"/>
		</g>
		<g>
			<path fill="none" stroke="#DBE8AA" stroke-width="2.0179" stroke-linecap="round" stroke-miterlimit="10" d="M156.161,475.476
				c6.584,7.928,12.167,15.119,12.968,25.548c14.244-8.635,31.107-9.185,47.232-8.498c10.754,0.463,28.318,3.539,37.247,9.686
				c-2.07-9.123,3.927-21.153,11.017-26.286"/>
		</g>
	</g>
</g>
<g opacity="0.9">
	<linearGradient id="SVGID_42_" gradientUnits="userSpaceOnUse" x1="317.9531" y1="327.5293" x2="350.3379" y2="327.5293">
		<stop  offset="0" style="stop-color:#C4892B"/>
		<stop  offset="1" style="stop-color:#F1BB33"/>
		<stop  offset="1" style="stop-color:#687333"/>
	</linearGradient>
	<path fill="url(#SVGID_42_)" d="M350.204,371.275l-0.247,4.191C352.67,342,340.008,342,340.008,342v-30.752
		c0-23.514-6.332-31.656-6.332-31.656c-8.141,0-8.141,31.656-8.141,31.656V342c-11.758,4.523-6.332,33.467-6.332,33.467l0.161-4.191
		H350.204z"/>
	<linearGradient id="SVGID_43_" gradientUnits="userSpaceOnUse" x1="292.9756" y1="395.8174" x2="371.4678" y2="395.8174">
		<stop  offset="0" style="stop-color:#C4892B"/>
		<stop  offset="1" style="stop-color:#F1BB33"/>
		<stop  offset="1" style="stop-color:#687333"/>
	</linearGradient>
	<polygon fill="url(#SVGID_43_)" points="371.468,411.043 349.957,375.467 319.203,375.467 292.976,416.168 297.451,411.043 	"/>
	<linearGradient id="SVGID_44_" gradientUnits="userSpaceOnUse" x1="285.7393" y1="420.0459" x2="379.8037" y2="420.0459">
		<stop  offset="0" style="stop-color:#C4892B"/>
		<stop  offset="1" style="stop-color:#F1BB33"/>
		<stop  offset="1" style="stop-color:#687333"/>
	</linearGradient>
	<polygon fill="url(#SVGID_44_)" points="373.473,414.359 373.239,413.975 373.473,416.168 292.976,416.168 285.739,416.168 
		285.739,424.309 379.804,426.117 379.804,414.359 	"/>
	<linearGradient id="SVGID_45_" gradientUnits="userSpaceOnUse" x1="371.4678" y1="412.5088" x2="373.2393" y2="412.5088">
		<stop  offset="0" style="stop-color:#C4892B"/>
		<stop  offset="1" style="stop-color:#F1BB33"/>
		<stop  offset="1" style="stop-color:#687333"/>
	</linearGradient>
	<polygon fill="url(#SVGID_45_)" points="372.929,411.043 371.468,411.043 373.239,413.975 	"/>
</g>
<g opacity="0.5">
	
		<linearGradient id="SVGID_46_" gradientUnits="userSpaceOnUse" x1="833.4766" y1="9701.3906" x2="865.8613" y2="9701.3906" gradientTransform="matrix(-1 0 0 -1 1181.7266 10226.7969)">
		<stop  offset="0" style="stop-color:#C4892B"/>
		<stop  offset="1" style="stop-color:#F1BB33"/>
		<stop  offset="1" style="stop-color:#687333"/>
	</linearGradient>
	<path fill="url(#SVGID_46_)" d="M315.999,481.66l0.247-4.191c-2.713,33.467,9.949,33.467,9.949,33.467v30.752
		c0,23.514,6.332,31.656,6.332,31.656c8.141,0,8.141-31.656,8.141-31.656v-30.752c11.758-4.523,6.332-33.467,6.332-33.467
		l-0.161,4.191H315.999z"/>
	
		<linearGradient id="SVGID_47_" gradientUnits="userSpaceOnUse" x1="808.499" y1="9769.6797" x2="886.9912" y2="9769.6797" gradientTransform="matrix(-1 0 0 -1 1181.7266 10226.7969)">
		<stop  offset="0" style="stop-color:#C4892B"/>
		<stop  offset="1" style="stop-color:#F1BB33"/>
		<stop  offset="1" style="stop-color:#687333"/>
	</linearGradient>
	<polygon fill="url(#SVGID_47_)" points="294.735,441.893 316.246,477.469 347,477.469 373.228,436.768 368.752,441.893 	"/>
	
		<linearGradient id="SVGID_48_" gradientUnits="userSpaceOnUse" x1="801.2627" y1="9793.9063" x2="895.3271" y2="9793.9063" gradientTransform="matrix(-1 0 0 -1 1181.7266 10226.7969)">
		<stop  offset="0" style="stop-color:#C4892B"/>
		<stop  offset="1" style="stop-color:#F1BB33"/>
		<stop  offset="1" style="stop-color:#687333"/>
	</linearGradient>
	<polygon fill="url(#SVGID_48_)" points="292.73,438.576 292.964,438.961 292.73,436.768 373.228,436.768 380.464,436.768 
		380.464,428.627 286.399,426.818 286.399,438.576 	"/>
	
		<linearGradient id="SVGID_49_" gradientUnits="userSpaceOnUse" x1="886.9912" y1="9786.3711" x2="888.7627" y2="9786.3711" gradientTransform="matrix(-1 0 0 -1 1181.7266 10226.7969)">
		<stop  offset="0" style="stop-color:#C4892B"/>
		<stop  offset="1" style="stop-color:#F1BB33"/>
		<stop  offset="1" style="stop-color:#687333"/>
	</linearGradient>
	<polygon fill="url(#SVGID_49_)" points="293.274,441.893 294.735,441.893 292.964,438.961 	"/>
</g>
</svg>
