<?xml version="1.0" encoding="utf-8"?>
<!-- Generator: Adobe Illustrator 16.0.0, SVG Export Plug-In . SVG Version: 6.00 Build 0)  -->
<!DOCTYPE svg PUBLIC "-//W3C//DTD SVG 1.1//EN" "http://www.w3.org/Graphics/SVG/1.1/DTD/svg11.dtd">
<svg version="1.1" xmlns="http://www.w3.org/2000/svg" xmlns:xlink="http://www.w3.org/1999/xlink" x="0px" y="0px" width="1366px"
	 height="300px" viewBox="0 0 1366 300" enable-background="new 0 0 1366 300" xml:space="preserve">
<g id="Layer_2" display="none">
	<linearGradient id="SVGID_1_" gradientUnits="userSpaceOnUse" x1="683.2729" y1="281.6064" x2="683.2729" y2="-474.9975">
		<stop  offset="0" style="stop-color:#712878"/>
		<stop  offset="1" style="stop-color:#DC5F75"/>
	</linearGradient>
	<rect x="-3.091" y="-54.758" display="inline" fill="url(#SVGID_1_)" width="1372.728" height="359.091"/>
</g>
<g id="Layer_1">
	<g>
		<linearGradient id="SVGID_2_" gradientUnits="userSpaceOnUse" x1="430.2793" y1="291.4111" x2="432.1659" y2="197.0836">
			<stop  offset="0" style="stop-color:#8B528E"/>
			<stop  offset="1" style="stop-color:#EB828E"/>
		</linearGradient>
		<polygon opacity="0.5" fill="url(#SVGID_2_)" points="843.644,240.078 828.543,222.978 828.543,200.171 803.373,200.171 
			803.373,228.677 778.21,228.677 778.21,200.171 763.109,200.171 763.109,178.761 748.012,179.462 748.012,245.778 
			732.907,245.778 732.907,211.572 732.911,201.42 716.133,186.219 702.709,201.42 702.709,205.875 678.235,218.087 657.955,194.21 
			629.104,222.974 586.942,208.725 586.942,192.104 561.774,203.337 561.774,245.778 536.608,245.778 536.608,222.978 
			481.241,222.978 481.241,240.078 449.364,240.078 449.364,165.334 430.907,165.334 430.907,143.16 411.331,143.16 411.331,167.87 
			400.708,167.87 400.708,245.778 375.54,245.778 375.54,208.725 312.623,208.725 279.906,245.778 279.906,217.275 254.738,217.275 
			254.738,183.068 219.507,183.068 219.507,240.078 179.239,240.078 179.239,188.767 164.139,188.767 164.139,165.332 
			149.04,142.528 133.941,165.332 133.941,205.875 93.671,205.875 93.671,228.677 82.487,228.677 82.487,154.564 58.439,154.564 
			58.439,228.677 43.339,228.677 43.339,165.968 13.138,165.968 13.138,217.275 -6.995,217.275 -6.995,302.787 868.81,302.787 
			868.81,205.875 843.644,205.875 		"/>
		
			<linearGradient id="SVGID_3_" gradientUnits="userSpaceOnUse" x1="1009.8896" y1="291.4033" x2="1012.0302" y2="184.3775" gradientTransform="matrix(-1 0 0 1 2133.2227 0)">
			<stop  offset="0" style="stop-color:#8B528E"/>
			<stop  offset="1" style="stop-color:#EB828E"/>
		</linearGradient>
		<polygon opacity="0.5" fill="url(#SVGID_3_)" points="1376.578,216.16 1362.689,216.16 1362.689,245.778 1337.49,245.778 
			1337.49,167.87 1326.855,167.87 1326.855,143.16 1307.256,143.16 1307.256,165.334 1288.776,165.334 1288.776,240.078 
			1256.858,240.078 1256.858,222.978 1201.422,222.978 1201.422,245.778 1176.226,245.778 1176.226,171.667 1151.027,171.667 
			1151.027,208.725 1110.711,208.725 1080.472,177.37 1060.313,205.875 1035.116,205.875 1035.116,188.767 1021.678,173.568 
			1004.88,188.767 1004.88,245.778 989.759,245.778 989.759,155.082 974.644,155.082 974.644,200.171 959.522,200.171 
			959.522,228.677 934.326,228.677 934.326,200.171 909.127,200.171 909.127,222.978 894.006,240.078 894.006,205.875 
			868.81,205.875 868.81,302.787 1376.578,302.787 		"/>
	</g>
	<path fill="#69428C" d="M1110.57,186.219c0,0-3.364,0.695-3.76,4.553c0,0-0.792,13.955-0.692,15.144c0,0-1.386,0-1.188,5.146
		l-0.019,2.276c0,0-1.17-0.492-1.17,0.594c0,1.088,0,7.82,0,7.82v3.264c0,0-2.076,1.882,0,4.258l-0.922,1.979c0,0-2.211,0,0,2.274
		v0.792h-1.65l0.594,2.276h-1.188c0,0-0.693,3.066,0.892,2.97v0.893h-2.079v2.274v2.671c0,0-1.385,0.892-1.483,2.08
		c0,0-2.086,3.958-2.086,8.313v44.55l29.506,0.481v-45.031c0-4.355-2.085-8.313-2.085-8.313c-0.099-1.188-1.483-2.08-1.483-2.08
		v-2.671v-2.274h-2.078v-0.893c1.582,0.097,0.891-2.97,0.891-2.97h-1.188l0.593-2.276h-1.649v-0.792c2.212-2.274,0-2.274,0-2.274
		l-0.923-1.979c2.078-2.376,0-4.258,0-4.258v-3.264c0,0,0-6.732,0-7.82c0-1.086-1.169-0.594-1.169-0.594l-0.02-2.276
		c0.197-5.146-1.186-5.146-1.186-5.146c0.098-1.188-0.693-15.144-0.693-15.144C1113.937,186.914,1110.57,186.219,1110.57,186.219"/>
	<path fill="#523373" d="M1268.427,252.248h-1.028c0.859,0,1.325-0.977,0.815-1.668c-1.391-1.889-3.252-2.355-3.252-2.355
		l0.271-1.209h-0.752c-0.57,0-1.032-0.463-1.032-1.031v-1.768c0-0.263-0.064-0.541-0.248-0.731c-1.05-1.102,0.619-2.979,0.619-2.979
		c-0.756-0.114-1.275,0.221-1.626,0.682c-0.454,0.599-1.403,0.443-1.72-0.236l-6.044-12.989c0,0,0.61,0.271,0.61,0s0-2.17,0-2.17
		h-1.259v-5.144l-0.029-2.01c-0.079-0.471-0.44-1.046-1.047-0.997c-0.812,0.068-0.716,0.861-0.716,0.861v2.146h-1.288v-2.281
		c-0.244-0.751-0.643-0.712-0.916-0.713c-0.661-0.002-0.712,0.713-0.712,0.713v2.281h-1.492l0.068-2.01
		c0-0.067-0.06-0.95-0.67-0.937c-0.958,0.02-0.922,1.004-0.922,1.004l0.015,0.896c0.011,0.575-0.455,1.046-1.031,1.046h-0.021
		c-0.57,0-1.033-0.461-1.033-1.031v-2.426c0-0.325,0.211-0.583,0.483-0.76c0.926-0.598,0.512-2.743,0.512-2.743
		c0-0.359-1.273-0.76-2.131-0.988c-0.451-0.121-0.762-0.529-0.762-0.995v-4.16c-0.059-0.936-1.263-1.383-2.099-1.581
		c-0.467-0.11-0.794-0.524-0.794-1.004v-2.121c0-0.633-3.798-1.265-2.803-1.265c0.993,0,1.265-1.539,0.993-3.347
		c-0.157-1.056-0.687-1.494-1.098-1.677c-0.392-0.175-0.616-0.593-0.603-1.02c0.009-0.313,0.032-0.726,0.073-1.281
		c0.182-2.441-4.159-2.353-2.714-2.441c1.448-0.091,0.906-1.898,0.906-3.255c0-0.769-0.248-1.129-0.464-1.299
		c-0.221-0.175-0.349-0.436-0.367-0.719c-0.031-0.469-0.049-1.17,0.047-1.868c0.165-1.222-1.996-1.831-1.996-1.831l1.018-1.02
		c0.639-0.637,0.719-1.388,0.651-1.958c-0.059-0.511-0.508-0.888-1.023-0.888h-0.577c3.737-3.389,1.037-7.379,0.215-8.42
		c-0.144-0.183-0.215-0.401-0.215-0.632v-8.905c0-0.144-0.031-0.283-0.087-0.415l-1.727-3.944c-0.057-0.13-0.085-0.27-0.085-0.413
		v-4.446c0-0.057-0.006-0.111-0.015-0.164l-0.62-3.852c-0.181-1.811-1.627-5.789-1.627-9.225s-0.36-6.507-2.35-6.328
		c-1.99,0.182-1.086,7.957-1.086,7.957h-1.084v-5.758c0-0.354-0.185-0.688-0.485-0.874l-0.491-0.308
		c-0.292-0.184-0.476-0.502-0.486-0.847c-0.104-3.938-0.753-27.749-1.25-34.708c-0.541-7.593-7.776-11.029-7.776-11.029
		s-7.23,3.436-7.774,11.029c-0.497,6.958-1.146,30.77-1.25,34.708c-0.01,0.345-0.191,0.663-0.484,0.847l-0.493,0.308
		c-0.301,0.187-0.483,0.52-0.483,0.874v5.758h-1.086c0,0,0.903-7.775-1.085-7.957c-1.988-0.179-2.35,2.893-2.35,6.328
		s-1.447,7.414-1.628,9.225l-0.62,3.852c-0.01,0.053-0.014,0.107-0.014,0.164v4.446c0,0.144-0.028,0.283-0.086,0.413l-1.726,3.944
		c-0.057,0.132-0.087,0.271-0.087,0.415v8.905c0,0.23-0.071,0.449-0.215,0.632c-0.82,1.041-3.522,5.031,0.215,8.42h-0.577
		c-0.517,0-0.965,0.377-1.024,0.888c-0.067,0.57,0.014,1.321,0.651,1.958l1.02,1.02c0,0-2.163,0.609-1.997,1.831
		c0.094,0.698,0.076,1.399,0.046,1.868c-0.019,0.283-0.145,0.544-0.367,0.719c-0.215,0.17-0.464,0.53-0.464,1.299
		c0,1.356-0.541,3.164,0.904,3.255c1.447,0.089-2.893,0-2.711,2.441c0.04,0.556,0.064,0.969,0.073,1.281
		c0.014,0.427-0.211,0.845-0.603,1.02c-0.412,0.183-0.94,0.621-1.098,1.677c-0.271,1.808,0,3.347,0.993,3.347
		c0.995,0-2.802,0.632-2.802,1.265v2.121c0,0.479-0.329,0.894-0.796,1.004c-0.837,0.198-2.039,0.646-2.098,1.581v4.16
		c0,0.466-0.312,0.874-0.764,0.995c-0.857,0.229-2.129,0.629-2.129,0.988c0,0-0.415,2.146,0.51,2.743
		c0.274,0.177,0.484,0.435,0.484,0.76v2.426c0,0.57-0.462,1.031-1.032,1.031h-0.021c-0.576,0-1.041-0.471-1.031-1.046l0.014-0.896
		c0,0,0.037-0.984-0.922-1.004c-0.61-0.014-0.669,0.869-0.669,0.937l0.067,2.01h-1.49v-2.281c0,0-0.053-0.715-0.713-0.713
		c-0.273,0.001-0.674-0.038-0.916,0.713v2.281h-1.287v-2.146c0,0,0.096-0.793-0.72-0.861c-0.603-0.049-0.967,0.526-1.044,0.997
		l-0.029,2.01v5.144h-1.259c0,0,0,1.898,0,2.17s0.61,0,0.61,0l-6.045,12.989c-0.316,0.68-1.265,0.835-1.719,0.236
		c-0.352-0.461-0.868-0.796-1.627-0.682c0,0,1.668,1.877,0.62,2.979c-0.184,0.19-0.247,0.469-0.247,0.731v1.768
		c0,0.568-0.462,1.031-1.032,1.031h-0.754l0.272,1.209c0,0-1.864,0.467-3.254,2.355c-0.508,0.691-0.042,1.668,0.816,1.668
		c0,0-13.205,17.222-13.566,28.977v19.121h138.811v-19.121C1281.631,269.47,1268.427,252.248,1268.427,252.248z"/>
	<path fill="#523373" d="M1074.235,161.827c0,0-5.971,1.229-6.671,8.074c0,0-1.405,24.755-1.229,26.863c0,0-2.459,0-2.107,9.128
		l-0.034,4.039c0,0-2.072-0.876-2.072,1.056c0,1.929,0,13.865,0,13.865v5.795c0,0-3.688,3.337,0,7.551l-1.638,3.511
		c0,0-3.921,0,0,4.036v1.407h-2.927l1.054,4.035h-2.106c0,0-1.229,5.443,1.58,5.268v1.581h-3.688v4.037v4.741
		c0,0-2.458,1.578-2.633,3.686c0,0-3.699,7.022-3.699,14.748v15.098h52.341v-15.098c0-7.726-3.698-14.748-3.698-14.748
		c-0.175-2.107-2.634-3.686-2.634-3.686v-4.741v-4.037h-3.686v-1.581c2.809,0.176,1.578-5.268,1.578-5.268h-2.105l1.054-4.035
		h-2.926v-1.407c3.921-4.036,0-4.036,0-4.036l-1.64-3.511c3.686-4.214,0-7.551,0-7.551v-5.795c0,0,0-11.937,0-13.865
		c0-1.932-2.072-1.056-2.072-1.056l-0.033-4.039c0.351-9.128-2.106-9.128-2.106-9.128c0.173-2.108-1.229-26.863-1.229-26.863
		C1080.204,163.057,1074.235,161.827,1074.235,161.827"/>
	<path fill="#3B2262" d="M1160.634,233.104l-1.936,16.09l-2.352,2.646l-6.637,9.656v2.874h-4.287c0,0-1.382-1.264-1.382-2.185
		c0-0.92-1.105,2.299-0.831,2.642c0.277,0.347-0.344-0.285-0.344-0.285l0.344,0.285h-5.945c0,0-1.659-1.378-0.967-2.872
		c0.691-1.494-4.287,3.794-3.042,4.482v6.438h-2.351v23.563l-2.069,3.908h63.203l-1.677-3.908v-23.563h-2.352v-6.438
		c1.246-0.688-3.733-5.977-3.043-4.482c0.694,1.494-0.967,2.872-0.967,2.872h-5.945l0.346-0.285c0,0-0.623,0.632-0.346,0.285
		c0.275-0.343-0.829-3.562-0.829-2.642c0,0.921-1.383,2.185-1.383,2.185h-4.286v-2.874l-6.637-9.656l-2.352-2.646L1160.634,233.104"
		/>
	<path fill="#1C122D" d="M1287.369,300.827c2.086-0.77-0.784-2.786,0.642-4.49c1.427-1.707,1.734-4.566,0.042-6.011
		c-0.902-0.772-2.145-0.98-3.323-1.122c-4.373-0.526-8.81-0.532-13.186-0.022c1.228-0.227,2.021-1.746,1.505-2.884
		c-0.516-1.139-2.183-1.544-3.161-0.769c4.571-2.272,7.896-6.895,8.603-11.954c0.204-1.478,0.155-3.116-0.784-4.275
		c-0.935-1.16-3.018-1.419-3.832-0.171c2.336-2.668,1.951-7.252-0.795-9.496c-2.236-3.05-7.027-3.814-10.103-1.615
		c-1.078-3.171-4.997-5.034-8.136-3.866c-3.139,1.167-4.889,5.139-3.632,8.243c-3.92,1.533-6.701,5.604-6.701,9.813
		c-1.89-0.91-4.041,2.135-2.549,3.613c-0.65-3.109-4.995-4.69-7.49-2.727c2.74-1.667,4.702-4.56,5.238-7.722
		c-1.226-0.499-2.451-0.995-3.676-1.492c0.916-0.606,1.574-1.587,1.784-2.66c-0.598-2.374-2.767-4.261-5.196-4.527
		c0.263-3.573-2.017-7.188-5.354-8.491c-3.338-1.305-7.465-0.187-9.689,2.621c-3.414-3.226-10.049-1.382-11.306,3.144
		c1.505-3.241,3.046-6.69,2.66-10.244c-0.387-3.551-3.521-7.063-7.046-6.477c-2.808-2.649-7.588-2.858-10.615-0.463
		c-3.027,2.397-3.921,7.099-1.984,10.437c-5.047,0.014-8.974,6.139-6.882,10.732c-4.948-0.072-8.656,6.306-6.142,10.569
		c-5.518-0.924-10.607,5.879-8.162,10.913c-3.026-1.661-6.521,1.636-7.574,4.924c-0.268-2.305-0.602-4.765-2.131-6.51
		c-1.529-1.744-4.706-2.213-6.033-0.312c-2.421-1.623-4.841-3.247-7.259-4.873c-3.979,1.07-5.826,6.699-3.256,9.918
		c-4.411,0.801-7.465,5.962-6.042,10.214c-3.732-1.443-7.043,4.829-4.64,8.032"/>
	<linearGradient id="SVGID_4_" gradientUnits="userSpaceOnUse" x1="449.1953" y1="200.9541" x2="394.0573" y2="200.9541">
		<stop  offset="0" style="stop-color:#8E191F"/>
		<stop  offset="1" style="stop-color:#E74A25"/>
		<stop  offset="1" style="stop-color:#E44925"/>
	</linearGradient>
	<path opacity="0.7" fill="url(#SVGID_4_)" d="M444.092,292.141l-9.14-160.663l13.202-28.658l-10.155,8.685h-24.374l-7.108-8.685
		l-7.108,6.079h-22.341l-10.156-7.815l14.218,29.528l-10.155,160.662h-16.249v9.552H458.31v-8.685H444.092z M387.222,118.452h39.606
		v7.815h-39.606V118.452z M387.509,290.647l0.729-159.17h37.575l1.88,159.709L387.509,290.647z"/>
	<linearGradient id="SVGID_5_" gradientUnits="userSpaceOnUse" x1="666.9819" y1="221.1191" x2="843.3286" y2="221.1191">
		<stop  offset="0" style="stop-color:#C6892B"/>
		<stop  offset="1" style="stop-color:#F3BC36"/>
		<stop  offset="1" style="stop-color:#687333"/>
	</linearGradient>
	<path opacity="0.81" fill="url(#SVGID_5_)" d="M1021.834,300.291l-8.081-28.654c0,0,1.469-41.884-5.879-41.884
		c-7.349,0-6.615,44.089-6.615,44.089l-4.408,13.225l-2.937-13.225c0,0,0.733-39.679-5.88-39.679
		c-6.611,0-5.878,36.738-5.878,36.738h-10.288l-5.143-22.779l-7.349,1.473l-1.837-5.146h5.512v-2.57h-6.613l-0.733-3.308h5.511
		v-2.571h-6.247l-1.101-4.044h2.204v-3.304h-2.941l-1.469-4.405l-3.673-34.17h-4.776v-35.638c0,0-2.57-12.859-8.45-12.859
		c0,0-5.878,4.407-5.878,12.49v35.637h-8.449v33.434l-1.104,3.308h-3.675v2.938h4.043l-1.838,5.143h-6.613v3.673h5.88l-2.205,4.042
		h-6.612v3.306h5.144l-2.94,4.411l-7.715-1.838l-6.98,22.779h-8.451l-2.202-27.553c0,0-0.369-9.556-4.41-9.556
		c0,0-3.306,2.206-3.306,9.922v27.554l-5.144,15.062l-4.409-15.062l-2.204-30.125c0,0,0-9.922-4.409-9.922
		s-4.409,11.021-4.409,11.021l-2.204,29.394l-9.184,29.023L1021.834,300.291z"/>
	<g>
		
			<rect x="923.325" y="244.763" transform="matrix(1 -0.008 0.008 1 -1.983 7.4575)" fill="none" stroke="#010101" stroke-width="0.7002" stroke-linecap="round" stroke-linejoin="round" width="4.489" height="10.698"/>
		<path fill="#FFFFFF" d="M901.6,262.44l3.062-0.029L901.6,262.44c0,0,0.729-1.482-1.515-2.938c-2.242-1.46,1.066-5.916,1.066-5.916
			c-1.268-1.71-4.535-4.631-4.535-4.631l-4.696,4.709c0,0,3.032,4.404,0.802,5.899c-2.236,1.498-1.611,2.888-1.611,2.888"/>
		<path fill="#FFFFFF" d="M932.946,294.131l-0.161-18.44l1.991-0.755l-0.02-1.723l1.983-1.246l-0.056-6.894l-1.258-0.724
			l-0.262-1.471l-1.505-0.726l0.239-1.231l-0.041-4.675l-1.256-0.97l-0.891-2.087l0.063-7.008l1.482-1.243l-0.046-5.409
			l-1.758-1.462l-0.764-1.467l-1.26-0.974l-0.759-1.468l-0.264-1.473l-1.006-0.978l-0.789-4.664l-0.999,0.009l-0.952,4.925
			l-1.241,0.753l0.009,0.985l-0.991,0.743l0.01,1.228l-1.487,0.997l0.014,1.477l-2.233,1.498l0.044,5.163l1.507,1.216l0.064,7.133
			l-0.729,1.972l-0.74,0.746l0.055,6.316l-3.228,0.027c0.24-0.985-1.801-4.084-1.801-4.084l1.204-5.181l-4.534-4.631l-4.695,5.206
			c0,0,2.479,4.471,0.244,5.966c-2.234,1.494-1.647,2.918-1.647,2.918"/>
		<polygon fill="none" stroke="#010101" stroke-width="0.6922" stroke-linecap="round" stroke-linejoin="round" points="
			824.843,256.356 829.228,256.315 829.135,245.616 824.745,245.66 		"/>
		<path fill="#FFFFFF" d="M863.725,262.713l-2.992,0.027L863.725,262.713c0,0-0.74-1.47,1.428-2.966
			c2.164-1.49-0.841-5.957-0.841-5.957l4.347-4.831l4.425,4.385c0,0-3.247,4.455-1.044,5.915c2.207,1.455,1.629,2.888,1.629,2.888
			l4.335-0.037c0,0-0.619-1.425,1.615-2.92c2.23-1.496-1.176-5.89-1.176-5.89l4.448-4.466l4.536,4.758c0,0-2.993,4.512-0.752,5.968
			c2.242,1.453,1.512,2.938,1.512,2.938l3.06-0.03l-3.06,0.03"/>
		<path fill="#FFFFFF" d="M850.621,262.891l-2.991,0.033L850.621,262.891c0,0-0.74-1.467,1.425-2.961
			c2.165-1.501-1.146-5.897-1.146-5.897c1.208-1.731,4.354-4.708,4.354-4.708l4.671,4.631c0,0-2.886,4.452-0.682,5.91
			c2.209,1.456,1.629,2.858,1.629,2.858"/>
		<path fill="#FFFFFF" d="M820.55,295.135l-0.165-18.445l-1.955-0.721l0.136-1.387l-2.113-1.545l-0.062-6.89l1.211-0.748l0.232-1.48
			l1.457-0.75l0.352-0.863l-0.025-5.166l0.839-1.236l0.486-1.726l-0.068-7.375l-1.383-1.344l-0.158-4.913l2.224-1.501l0.188-1.475
			l1.213-0.998l0.713-1.477l0.232-1.48l0.967-0.99l0.691-4.679l0.974-0.009l1.021,4.909l1.225,0.728l0.008,0.983l0.984,0.728
			l0.01,1.231l1.474,0.972l0.01,1.474l2.209,1.458l0.042,5.162l-1.447,1.242l0.063,7.131l0.75,1.964l0.736,0.731l0.054,6.317
			l3.156-0.032c-0.254-0.98,1.686-4.119,1.686-4.119l-1.269-5.151l4.348-4.711l4.681,5.119c0,0-2.34,4.512-0.134,5.972
			c2.209,1.451,1.658,2.889,1.658,2.889"/>
		<polygon fill="#FFFFFF" points="933.436,299.556 820.2,299.556 820.5,262.519 933.66,262.153 		"/>
		
			<rect x="824.463" y="241.223" transform="matrix(1 -0.0095 0.0095 1 -2.3073 7.8768)" fill="#E66881" width="3.796" height="10.222"/>
		
			<rect x="924.222" y="239.781" transform="matrix(1 -0.0085 0.0085 1 -2.0483 7.8813)" fill="#E66881" width="3.791" height="10.223"/>
	</g>
	<g>
		<polygon fill="#E6E7E8" stroke="#010101" stroke-width="0.7002" stroke-linecap="round" stroke-linejoin="round" points="
			1052.021,255.842 1047.53,255.878 1047.438,245.182 1051.924,245.146 		"/>
		<path fill="#E6E7E8" d="M1025.76,262.84l3.06-0.027L1025.76,262.84c0,0,0.731-1.482-1.514-2.938
			c-2.243-1.46,1.064-5.914,1.064-5.914c-1.266-1.713-4.534-4.633-4.534-4.633l-4.696,4.711c0,0,3.032,4.403,0.803,5.896
			c-2.237,1.501-1.612,2.889-1.612,2.889"/>
		<path fill="#E6E7E8" d="M1057.106,294.531l-0.162-18.441l1.992-0.754l-0.02-1.725l1.982-1.243l-0.055-6.894l-1.258-0.728
			l-0.261-1.469l-1.506-0.724l0.24-1.231l-0.042-4.673l-1.258-0.974l-0.89-2.083l0.065-7.012l1.481-1.241l-0.048-5.409l-1.758-1.464
			l-0.764-1.465l-1.259-0.974l-0.757-1.47l-0.266-1.471l-1.004-0.977l-0.79-4.666l-0.998,0.008l-0.954,4.929l-1.239,0.747
			l0.007,0.984l-0.987,0.746l0.006,1.229l-1.487,0.997l0.014,1.475l-2.233,1.498l0.044,5.163l1.509,1.216l0.064,7.135l-0.729,1.97
			l-0.743,0.747l0.059,6.315l-3.229,0.027c0.242-0.983-1.8-4.084-1.8-4.084l1.203-5.179l-4.534-4.633l-4.693,5.208
			c0,0,2.475,4.47,0.243,5.964c-2.237,1.493-1.646,2.919-1.646,2.919"/>
		<polygon fill="#E6E7E8" stroke="#010101" stroke-width="0.6922" stroke-linecap="round" stroke-linejoin="round" points="
			949.001,256.758 953.389,256.717 953.294,246.016 948.906,246.06 		"/>
		<path fill="#E6E7E8" d="M987.884,263.114l-2.993,0.026L987.884,263.114c0,0-0.74-1.47,1.429-2.966
			c2.161-1.492-0.84-5.957-0.84-5.957l4.345-4.831l4.426,4.384c0,0-3.249,4.456-1.045,5.915c2.208,1.454,1.629,2.887,1.629,2.887
			l4.336-0.037c0,0-0.617-1.425,1.614-2.917c2.232-1.499-1.177-5.891-1.177-5.891l4.45-4.467l4.536,4.755
			c0,0-2.991,4.515-0.754,5.97c2.244,1.453,1.516,2.94,1.516,2.94l3.059-0.03l-3.059,0.03"/>
		<path fill="#E6E7E8" d="M974.78,263.292l-2.991,0.031L974.78,263.292c0,0-0.74-1.47,1.427-2.962
			c2.164-1.5-1.146-5.898-1.146-5.898c1.207-1.73,4.353-4.707,4.353-4.707l4.671,4.631c0,0-2.886,4.451-0.681,5.909
			c2.207,1.458,1.627,2.858,1.627,2.858"/>
		<path fill="#E6E7E8" d="M944.71,295.53l-0.165-18.439l-1.954-0.721l0.135-1.387l-2.114-1.549l-0.061-6.886l1.211-0.75l0.233-1.479
			l1.455-0.75l0.352-0.863l-0.026-5.166l0.84-1.236l0.486-1.728l-0.064-7.375l-1.387-1.344l-0.157-4.914l2.221-1.498l0.19-1.479
			l1.213-0.992l0.713-1.48l0.232-1.479l0.968-0.99l0.69-4.681l0.975-0.009l1.02,4.908l1.224,0.73l0.009,0.983l0.984,0.726
			l0.01,1.231l1.473,0.972l0.013,1.477l2.208,1.453l0.043,5.165l-1.449,1.242l0.064,7.131l0.748,1.963l0.736,0.731l0.054,6.319
			l3.156-0.034c-0.252-0.979,1.686-4.117,1.686-4.117l-1.267-5.151l4.347-4.713l4.681,5.119c0,0-2.339,4.513-0.134,5.97
			c2.209,1.455,1.658,2.891,1.658,2.891"/>
		<polygon fill="#E6E7E8" points="1057.595,299.955 944.36,299.955 944.659,262.92 1057.82,262.555 		"/>
		
			<rect x="948.622" y="241.626" transform="matrix(1 -0.0087 0.0087 1 -2.1223 8.3256)" fill="#EA70A2" width="3.795" height="10.218"/>
		
			<rect x="1048.382" y="240.181" transform="matrix(1 -0.0095 0.0095 1 -2.2894 10.0185)" fill="#EA70A2" width="3.792" height="10.222"/>
	</g>
	<g opacity="0.9">
		<g id="XMLID_4_">
			<g>
				<path fill="#992E22" d="M143.8,258.515v3.426h-0.416v-0.409h-0.056c0.264-0.929,0.423-1.948,0.458-3.017H143.8z"/>
				<linearGradient id="SVGID_6_" gradientUnits="userSpaceOnUse" x1="132.8979" y1="248.3447" x2="143.7998" y2="248.3447">
					<stop  offset="0" style="stop-color:#722A79"/>
					<stop  offset="1" style="stop-color:#DC5F76"/>
				</linearGradient>
				<path fill="url(#SVGID_6_)" d="M143.8,235.158v23.356h-0.014c-0.035,1.068-0.194,2.088-0.458,3.017h-9.958
					c-0.264-0.929-0.423-1.948-0.458-3.017h-0.014v-23.356H143.8z"/>
				<linearGradient id="SVGID_7_" gradientUnits="userSpaceOnUse" x1="132.8979" y1="233.8203" x2="143.7998" y2="233.8203">
					<stop  offset="0" style="stop-color:#722A79"/>
					<stop  offset="1" style="stop-color:#DC5F76"/>
				</linearGradient>
				<rect x="132.898" y="232.481" fill="url(#SVGID_7_)" width="10.902" height="2.677"/>
				<path fill="#FFC630" d="M143.384,261.94l0.125,38.815l-62.567,0.347l0.111-38.114c0.984,2.205,2.614,3.641,4.459,3.641
					c2.122,0,3.96-1.907,4.854-4.688h3.502c0.895,2.781,2.732,4.688,4.854,4.688s3.96-1.907,4.854-4.688h3.502
					c0.895,2.781,2.732,4.688,4.854,4.688c2.123,0,3.96-1.907,4.848-4.688h3.509c0.888,2.781,2.725,4.688,4.848,4.688
					c2.122,0,3.966-1.907,4.854-4.688h3.502c0.895,2.781,2.732,4.688,4.854,4.688s3.96-1.907,4.854-4.688H143.384z M137.856,281.691
					v-9.043h-3.967v9.043H137.856z M130.256,288.377v-4.349h-2.309v-12.046h-31.7v12.046h-2.642v4.349H130.256z M89.971,281.691
					v-9.043h-3.967v9.043H89.971z"/>
				<path fill="#992E22" d="M143.384,261.531v0.409h-0.18c0.048-0.131,0.09-0.271,0.125-0.409H143.384z"/>
				<linearGradient id="SVGID_8_" gradientUnits="userSpaceOnUse" x1="133.3696" y1="261.7363" x2="143.3281" y2="261.7363">
					<stop  offset="0" style="stop-color:#722A79"/>
					<stop  offset="1" style="stop-color:#DC5F76"/>
				</linearGradient>
				<path fill="url(#SVGID_8_)" d="M133.37,261.531h9.958c-0.035,0.139-0.076,0.278-0.125,0.409h-9.709
					C133.446,261.81,133.404,261.67,133.37,261.531z"/>
				<linearGradient id="SVGID_9_" gradientUnits="userSpaceOnUse" x1="133.4946" y1="264.2852" x2="143.2036" y2="264.2852">
					<stop  offset="0" style="stop-color:#722A79"/>
					<stop  offset="1" style="stop-color:#DC5F76"/>
				</linearGradient>
				<path fill="url(#SVGID_9_)" d="M133.495,261.94h9.709c-0.895,2.781-2.732,4.688-4.854,4.688S134.389,264.722,133.495,261.94z"/>
				<rect x="133.89" y="272.648" fill="#FFFFFF" width="3.967" height="9.043"/>
				<path fill="#992E22" d="M133.495,261.94h-3.502c0.049-0.131,0.09-0.271,0.125-0.409h3.252
					C133.404,261.67,133.446,261.81,133.495,261.94z"/>
				<path fill="#992E22" d="M133.37,261.531h-3.252c0.264-0.929,0.423-1.948,0.458-3.017h0.014v-23.356h2.309v23.356h0.014
					C132.947,259.583,133.106,260.603,133.37,261.531z"/>
				<path fill="#FFFFFF" d="M130.589,235.158v23.356h-0.014c-0.035,1.068-0.194,2.088-0.458,3.017h-9.952
					c-0.264-0.929-0.423-1.948-0.458-3.017h-0.014v-23.356H130.589z"/>
				<rect x="119.694" y="232.481" fill="#FFFFFF" width="10.895" height="2.677"/>
				<polygon fill="#E45E26" points="130.256,284.028 130.256,288.377 93.605,288.377 93.605,284.028 96.247,284.028 96.247,287.045 
					127.947,287.045 127.947,284.028 				"/>
				<path fill="#FFFFFF" d="M120.166,261.531h9.952c-0.035,0.139-0.076,0.278-0.125,0.409h-9.702
					C120.242,261.81,120.2,261.67,120.166,261.531z"/>
				<path fill="#FFFFFF" d="M120.291,261.94h9.702c-0.888,2.781-2.732,4.688-4.854,4.688
					C123.016,266.629,121.178,264.722,120.291,261.94z"/>
				<rect x="96.247" y="284.028" fill="#E45E26" width="31.7" height="3.017"/>
				<rect x="96.247" y="271.982" fill="#A81F24" width="31.7" height="12.046"/>
				<path fill="#992E22" d="M120.291,261.94h-3.509c0.049-0.131,0.09-0.271,0.125-0.409h3.259
					C120.2,261.67,120.242,261.81,120.291,261.94z"/>
				<path fill="#992E22" d="M120.166,261.531h-3.259c0.264-0.929,0.423-1.948,0.458-3.017h0.014v-23.356h2.316v23.356h0.014
					C119.743,259.583,119.902,260.603,120.166,261.531z"/>
				<linearGradient id="SVGID_10_" gradientUnits="userSpaceOnUse" x1="106.4829" y1="248.3447" x2="117.3779" y2="248.3447">
					<stop  offset="0" style="stop-color:#722A79"/>
					<stop  offset="1" style="stop-color:#DC5F76"/>
				</linearGradient>
				<path fill="url(#SVGID_10_)" d="M117.378,235.158v23.356h-0.014c-0.035,1.068-0.194,2.088-0.458,3.017h-9.952
					c-0.264-0.929-0.423-1.948-0.458-3.017h-0.014v-23.356H117.378z"/>
				<linearGradient id="SVGID_11_" gradientUnits="userSpaceOnUse" x1="106.4829" y1="233.8203" x2="117.3779" y2="233.8203">
					<stop  offset="0" style="stop-color:#722A79"/>
					<stop  offset="1" style="stop-color:#DC5F76"/>
				</linearGradient>
				<rect x="106.483" y="232.481" fill="url(#SVGID_11_)" width="10.895" height="2.677"/>
				<linearGradient id="SVGID_12_" gradientUnits="userSpaceOnUse" x1="106.9546" y1="261.7363" x2="116.9063" y2="261.7363">
					<stop  offset="0" style="stop-color:#722A79"/>
					<stop  offset="1" style="stop-color:#DC5F76"/>
				</linearGradient>
				<path fill="url(#SVGID_12_)" d="M106.955,261.531h9.952c-0.035,0.139-0.076,0.278-0.125,0.409h-9.702
					C107.031,261.81,106.989,261.67,106.955,261.531z"/>
				<linearGradient id="SVGID_13_" gradientUnits="userSpaceOnUse" x1="107.0796" y1="264.2852" x2="116.7813" y2="264.2852">
					<stop  offset="0" style="stop-color:#722A79"/>
					<stop  offset="1" style="stop-color:#DC5F76"/>
				</linearGradient>
				<path fill="url(#SVGID_13_)" d="M107.08,261.94h9.702c-0.888,2.781-2.725,4.688-4.848,4.688
					C109.812,266.629,107.974,264.722,107.08,261.94z"/>
				<path fill="#FFC630" d="M107.08,261.94h-3.502c0.049-0.131,0.09-0.271,0.125-0.409h3.252
					C106.989,261.67,107.031,261.81,107.08,261.94z"/>
				<path fill="#992E22" d="M106.955,261.531h-3.252c0.264-0.929,0.423-1.948,0.458-3.017h0.014v-23.356h2.309v23.356h0.014
					C106.532,259.583,106.691,260.603,106.955,261.531z"/>
				<path fill="#FFFFFF" d="M104.174,235.158v23.356h-0.014c-0.035,1.068-0.194,2.088-0.458,3.017h-9.958
					c-0.264-0.929-0.423-1.948-0.458-3.017h-0.014v-23.356H104.174z"/>
				<rect x="93.272" y="232.481" fill="#FFFFFF" width="10.902" height="2.677"/>
				<path fill="#FFFFFF" d="M93.744,261.531h9.958c-0.035,0.139-0.076,0.278-0.125,0.409h-9.709
					C93.82,261.81,93.778,261.67,93.744,261.531z"/>
				<path fill="#FFFFFF" d="M93.868,261.94h9.709c-0.895,2.781-2.732,4.688-4.854,4.688S94.763,264.722,93.868,261.94z"/>
				<path fill="#FFC630" d="M93.868,261.94h-3.502c0.048-0.131,0.09-0.271,0.125-0.409h3.252
					C93.778,261.67,93.82,261.81,93.868,261.94z"/>
				<path fill="#992E22" d="M93.744,261.531h-3.252c0.263-0.929,0.423-1.948,0.458-3.017h0.014v-23.356h2.31v23.356h0.014
					C93.32,259.583,93.48,260.603,93.744,261.531z"/>
				<linearGradient id="SVGID_14_" gradientUnits="userSpaceOnUse" x1="80.3936" y1="248.5488" x2="90.9624" y2="248.5488">
					<stop  offset="0" style="stop-color:#722A79"/>
					<stop  offset="1" style="stop-color:#DC5F76"/>
				</linearGradient>
				<path fill="url(#SVGID_14_)" d="M90.962,235.158v23.356h-0.014c-0.035,1.068-0.194,2.088-0.458,3.017H81.06v0.409h-0.402
					c-0.104-0.305-0.194-0.624-0.264-0.949v-25.833H90.962z"/>
				<linearGradient id="SVGID_15_" gradientUnits="userSpaceOnUse" x1="80.061" y1="246.7363" x2="90.9624" y2="246.7363">
					<stop  offset="0" style="stop-color:#722A79"/>
					<stop  offset="1" style="stop-color:#DC5F76"/>
				</linearGradient>
				<path fill="url(#SVGID_15_)" d="M90.962,232.481v2.677H80.394v25.833c-0.18-0.777-0.291-1.609-0.319-2.477h-0.014v-26.033
					H90.962z"/>
				<linearGradient id="SVGID_16_" gradientUnits="userSpaceOnUse" x1="81.0596" y1="261.7363" x2="90.4912" y2="261.7363">
					<stop  offset="0" style="stop-color:#722A79"/>
					<stop  offset="1" style="stop-color:#DC5F76"/>
				</linearGradient>
				<path fill="url(#SVGID_16_)" d="M81.06,261.531h9.432c-0.035,0.139-0.077,0.278-0.125,0.409H81.06V261.531z"/>
				<linearGradient id="SVGID_17_" gradientUnits="userSpaceOnUse" x1="81.0527" y1="264.2852" x2="90.3662" y2="264.2852">
					<stop  offset="0" style="stop-color:#722A79"/>
					<stop  offset="1" style="stop-color:#DC5F76"/>
				</linearGradient>
				<path fill="url(#SVGID_17_)" d="M81.06,261.94h9.307c-0.895,2.781-2.732,4.688-4.854,4.688c-1.845,0-3.475-1.436-4.459-3.641
					L81.06,261.94z"/>
				<rect x="86.004" y="272.648" fill="#FFFFFF" width="3.967" height="9.043"/>
				<linearGradient id="SVGID_18_" gradientUnits="userSpaceOnUse" x1="80.6572" y1="262.4648" x2="81.0596" y2="262.4648">
					<stop  offset="0" style="stop-color:#722A79"/>
					<stop  offset="1" style="stop-color:#DC5F76"/>
				</linearGradient>
				<path fill="url(#SVGID_18_)" d="M81.06,261.94l-0.007,1.048c-0.146-0.333-0.285-0.68-0.396-1.048H81.06z"/>
				<path fill="#992E22" d="M80.657,261.94h-0.264v-0.949C80.463,261.316,80.553,261.636,80.657,261.94z"/>
			</g>
			<g>
			</g>
		</g>
	</g>
	<g opacity="0.9">
		<g id="XMLID_3_">
			<g>
				<path fill="#C5A22E" d="M242.842,221.495c-0.432,18.466,5.821,26.239,16.109,41.425c-5.74-0.771-11.578-1.05-17.46-1.088
					l-0.131-4.379l-81.144-0.798l-0.043,4.362c-6.024-0.186-12.042-0.388-18.056-0.645c6.669-6.479,13.305-13.251,17.394-21.904
					c2.771-5.877,3.531-12.277,4.893-18.318c1.809,3.531,6.019,8.544,10.124,11.212c-0.279-0.049-0.557-0.099-0.831-0.153
					l1.815,0.749c0.88,0.486,1.744,0.853,2.569,1.055l-2.569-1.055c-0.323-0.181-0.656-0.383-0.984-0.596
					c13.005,2.389,28.89,1.936,41.95,0.634C227.738,230.87,234.647,228.896,242.842,221.495z"/>
				<path fill="#FFFFFF" d="M241.491,261.832l1.159,39.085l-82.871,0.279l0.394-40.179c13.354,0.416,26.73,0.743,40.118,1.328
					C213.918,262.937,227.836,261.739,241.491,261.832z M236.823,286.956l0.175-18.078l-9.719-0.098l-0.175,18.083L236.823,286.956z
					 M221.572,286.809l0.175-18.078l-9.714-0.098l-0.18,18.077L221.572,286.809z M206.32,286.655l0.175-18.077l-9.719-0.094
					l-0.18,18.083L206.32,286.655z M189.664,286.491l0.181-18.077l-9.72-0.093l-0.18,18.082L189.664,286.491z M174.413,286.344
					l0.181-18.077l-9.714-0.094l-0.186,18.078L174.413,286.344z"/>
				<path fill="#C5A22E" d="M241.36,257.453l0.131,4.379c-13.655-0.093-27.573,1.104-41.2,0.514
					c-13.388-0.585-26.764-0.912-40.118-1.328l0.043-4.362L241.36,257.453z"/>
				
					<rect x="223.011" y="273.011" transform="matrix(0.0097 -1 1 0.0097 -48.0505 507.2238)" fill="#A81F24" width="18.079" height="9.72"/>
				<polygon fill="#A81F24" points="221.747,268.73 221.572,286.809 211.853,286.71 212.033,268.633 				"/>
				<polygon fill="#A81F24" points="206.495,268.578 206.32,286.655 196.596,286.567 196.776,268.484 				"/>
				<polygon fill="#A81F24" points="189.845,268.414 189.664,286.491 179.945,286.403 180.125,268.321 				"/>
				<path fill="#C5A22E" d="M175.512,231.958l-1.815-0.749c0.273,0.055,0.552,0.104,0.831,0.153
					C174.855,231.575,175.189,231.777,175.512,231.958z"/>
				<polygon fill="#A81F24" points="174.593,268.267 174.413,286.344 164.693,286.251 164.879,268.173 				"/>
				<path fill="#C5A22E" d="M164.3,219.943c0.126-0.159,0.175-0.159,0.153-0.006c-0.017,0.071-0.033,0.142-0.049,0.213
					C164.365,220.079,164.333,220.009,164.3,219.943z"/>
			</g>
			<g>
				<path fill="none" stroke="#DBE8AA" stroke-width="2.0179" stroke-linecap="round" stroke-miterlimit="10" d="M154.493,255.278
					c5.756-6.932,10.638-13.218,11.337-22.336c12.453,7.549,27.195,8.03,41.293,7.429c9.402-0.404,24.757-3.094,32.563-8.468
					c-1.81,7.976,3.433,18.493,9.632,22.981"/>
			</g>
		</g>
	</g>
	<g opacity="0.9">
		<linearGradient id="SVGID_19_" gradientUnits="userSpaceOnUse" x1="295.9414" y1="219.4785" x2="324.2539" y2="219.4785">
			<stop  offset="0" style="stop-color:#C4892B"/>
			<stop  offset="1" style="stop-color:#F1BB33"/>
			<stop  offset="1" style="stop-color:#687333"/>
		</linearGradient>
		<path fill="url(#SVGID_19_)" d="M324.137,257.724l-0.216,3.665c2.372-29.259-8.698-29.259-8.698-29.259v-26.886
			c0-20.557-5.536-27.676-5.536-27.676c-7.117,0-7.117,27.676-7.117,27.676v26.886c-10.279,3.954-5.536,29.259-5.536,29.259
			l0.141-3.665H324.137z"/>
		<linearGradient id="SVGID_20_" gradientUnits="userSpaceOnUse" x1="274.1045" y1="279.1797" x2="342.7271" y2="279.1797">
			<stop  offset="0" style="stop-color:#C4892B"/>
			<stop  offset="1" style="stop-color:#F1BB33"/>
			<stop  offset="1" style="stop-color:#687333"/>
		</linearGradient>
		<polygon fill="url(#SVGID_20_)" points="342.727,292.491 323.921,261.389 297.034,261.389 274.104,296.972 278.017,292.491 		"/>
		<linearGradient id="SVGID_21_" gradientUnits="userSpaceOnUse" x1="267.7778" y1="300.3613" x2="350.0146" y2="300.3613">
			<stop  offset="0" style="stop-color:#C4892B"/>
			<stop  offset="1" style="stop-color:#F1BB33"/>
			<stop  offset="1" style="stop-color:#687333"/>
		</linearGradient>
		<polygon fill="url(#SVGID_21_)" points="344.479,295.391 344.275,295.054 344.479,296.972 274.104,296.972 267.778,296.972 
			267.778,304.089 350.015,305.67 350.015,295.391 		"/>
		<linearGradient id="SVGID_22_" gradientUnits="userSpaceOnUse" x1="342.7271" y1="293.7725" x2="344.2754" y2="293.7725">
			<stop  offset="0" style="stop-color:#C4892B"/>
			<stop  offset="1" style="stop-color:#F1BB33"/>
			<stop  offset="1" style="stop-color:#687333"/>
		</linearGradient>
		<polygon fill="url(#SVGID_22_)" points="344.004,292.491 342.727,292.491 344.275,295.054 		"/>
	</g>
</g>
</svg>
