<?xml version="1.0" encoding="utf-8"?>
<!-- Generator: Adobe Illustrator 16.0.0, SVG Export Plug-In . SVG Version: 6.00 Build 0)  -->
<!DOCTYPE svg PUBLIC "-//W3C//DTD SVG 1.1//EN" "http://www.w3.org/Graphics/SVG/1.1/DTD/svg11.dtd">
<svg version="1.1" id="Layer_1" xmlns="http://www.w3.org/2000/svg" xmlns:xlink="http://www.w3.org/1999/xlink" x="0px" y="0px"
	 width="480px" height="200px" viewBox="0 0 480 200" enable-background="new 0 0 480 200" xml:space="preserve">
<g>
	
		<linearGradient id="SVGID_1_" gradientUnits="userSpaceOnUse" x1="459.8047" y1="-53.0864" x2="518.3454" y2="5.4543" gradientTransform="matrix(1 0 0 -1 -196 20)">
		<stop  offset="0" style="stop-color:#008F8D"/>
		<stop  offset="1" style="stop-color:#03793E"/>
	</linearGradient>
	<path fill="url(#SVGID_1_)" d="M297.699,69.999c0-12,10.301-22.025,21.301-22.025V11.201c-32,0-58.283,25.798-58.283,58.798
		H297.699z"/>
	
		<linearGradient id="SVGID_2_" gradientUnits="userSpaceOnUse" x1="456.7168" y1="-79.4346" x2="515" y2="-79.4346" gradientTransform="matrix(1 0 0 -1 -196 20)">
		<stop  offset="0" style="stop-color:#712878"/>
		<stop  offset="1" style="stop-color:#DC5F75"/>
	</linearGradient>
	<path fill="url(#SVGID_2_)" d="M297.699,69.999c0,12,10.301,22.101,21.301,22.101v36.771c-32,0-58.283-25.873-58.283-58.873
		L297.699,69.999L297.699,69.999z"/>
	
		<linearGradient id="SVGID_3_" gradientUnits="userSpaceOnUse" x1="514.9844" y1="-90.4863" x2="551.9668" y2="-90.4863" gradientTransform="matrix(1 0 0 -1 -196 20)">
		<stop  offset="0" style="stop-color:#008F8D"/>
		<stop  offset="1" style="stop-color:#03793E"/>
	</linearGradient>
	<path fill="url(#SVGID_3_)" d="M318.984,128.872c21.305,0,36.982-16.767,36.982-36.771h-36.982V128.872z"/>
	
		<linearGradient id="SVGID_4_" gradientUnits="userSpaceOnUse" x1="301.3906" y1="-9.5879" x2="338.374" y2="-9.5879" gradientTransform="matrix(1 0 0 -1 -196 20)">
		<stop  offset="0" style="stop-color:#008F8D"/>
		<stop  offset="1" style="stop-color:#03793E"/>
	</linearGradient>
	<path fill="url(#SVGID_4_)" d="M142.374,47.974c0-21.181-16.864-36.772-36.983-36.772v36.772H142.374z"/>
	
		<linearGradient id="SVGID_5_" gradientUnits="userSpaceOnUse" x1="319.8828" y1="-72.1001" x2="319.8828" y2="-27.9741" gradientTransform="matrix(1 0 0 -1 -196 20)">
		<stop  offset="0" style="stop-color:#C6A22D"/>
		<stop  offset="1" style="stop-color:#687333"/>
	</linearGradient>
	<rect x="105.391" y="47.974" fill="url(#SVGID_5_)" width="36.983" height="44.126"/>
	
		<linearGradient id="SVGID_6_" gradientUnits="userSpaceOnUse" x1="301.3906" y1="-90.4863" x2="338.374" y2="-90.4863" gradientTransform="matrix(1 0 0 -1 -196 20)">
		<stop  offset="0" style="stop-color:#712878"/>
		<stop  offset="1" style="stop-color:#DC5F75"/>
	</linearGradient>
	<path fill="url(#SVGID_6_)" d="M142.374,128.872c-21.302,0-36.983-16.767-36.983-36.771h36.983V128.872z"/>
	
		<linearGradient id="SVGID_7_" gradientUnits="userSpaceOnUse" x1="412.3379" y1="-9.5879" x2="449.3203" y2="-9.5879" gradientTransform="matrix(1 0 0 -1 -196 20)">
		<stop  offset="0" style="stop-color:#712878"/>
		<stop  offset="1" style="stop-color:#DC5F75"/>
	</linearGradient>
	<path fill="url(#SVGID_7_)" d="M216.338,47.974c0-21.181,16.864-36.772,36.982-36.772v36.772H216.338z"/>
	
		<linearGradient id="SVGID_8_" gradientUnits="userSpaceOnUse" x1="430.8301" y1="-72.1001" x2="430.8301" y2="-27.9741" gradientTransform="matrix(1 0 0 -1 -196 20)">
		<stop  offset="0" style="stop-color:#AA1F23"/>
		<stop  offset="1" style="stop-color:#E75225"/>
	</linearGradient>
	<rect x="216.338" y="47.974" fill="url(#SVGID_8_)" width="36.982" height="44.126"/>
	
		<linearGradient id="SVGID_9_" gradientUnits="userSpaceOnUse" x1="412.3379" y1="-90.4863" x2="449.3203" y2="-90.4863" gradientTransform="matrix(1 0 0 -1 -196 20)">
		<stop  offset="0" style="stop-color:#C6A22D"/>
		<stop  offset="1" style="stop-color:#687333"/>
	</linearGradient>
	<path fill="url(#SVGID_9_)" d="M216.338,128.872c21.303,0,36.982-16.767,36.982-36.771h-36.982V128.872z"/>
	
		<linearGradient id="SVGID_10_" gradientUnits="userSpaceOnUse" x1="199.0239" y1="-90.8535" x2="236.0059" y2="-90.8535" gradientTransform="matrix(1 0 0 -1 -196 20)">
		<stop  offset="0" style="stop-color:#008F8D"/>
		<stop  offset="1" style="stop-color:#03793E"/>
	</linearGradient>
	<path fill="url(#SVGID_10_)" d="M40.006,92.468c-21.302,0-36.982,16.769-36.982,36.771h36.982V92.468z"/>
	
		<linearGradient id="SVGID_11_" gradientUnits="userSpaceOnUse" x1="552.0752" y1="-9.5859" x2="514.8838" y2="-9.5859" gradientTransform="matrix(1 0 0 -1 -196 20)">
		<stop  offset="0" style="stop-color:#C6A22D"/>
		<stop  offset="1" style="stop-color:#687333"/>
	</linearGradient>
	<rect x="318.885" y="11.201" fill="url(#SVGID_11_)" width="37.191" height="36.772"/>
	
		<linearGradient id="SVGID_12_" gradientUnits="userSpaceOnUse" x1="375.3545" y1="-90.4858" x2="338.373" y2="-90.4858" gradientTransform="matrix(1 0 0 -1 -196 20)">
		<stop  offset="0" style="stop-color:#AA1F23"/>
		<stop  offset="1" style="stop-color:#E75225"/>
	</linearGradient>
	<path fill="url(#SVGID_12_)" d="M142.374,128.872c21.302,0,36.982-16.767,36.982-36.771h-36.982V128.872z"/>
	
		<linearGradient id="SVGID_13_" gradientUnits="userSpaceOnUse" x1="393.8477" y1="-108.8716" x2="393.8477" y2="-72.1011" gradientTransform="matrix(1 0 0 -1 -196 20)">
		<stop  offset="0" style="stop-color:#008F8D"/>
		<stop  offset="1" style="stop-color:#03793E"/>
	</linearGradient>
	<path fill="url(#SVGID_13_)" d="M216.338,128.872c-21.302,0-36.982-16.767-36.982-36.771h36.982V128.872z"/>
	
		<linearGradient id="SVGID_14_" gradientUnits="userSpaceOnUse" x1="227.0552" y1="-100.293" x2="297.6747" y2="-29.6734" gradientTransform="matrix(1 0 0 -1 -196 20)">
		<stop  offset="0" style="stop-color:#AA1F23"/>
		<stop  offset="1" style="stop-color:#E75225"/>
	</linearGradient>
	<path fill="url(#SVGID_14_)" d="M62,70.037c0,12.186-10,22.431-22,22.431v36.771c33,0,59-26.708,59-59.203V46.999H62V70.037z"/>
	
		<linearGradient id="SVGID_15_" gradientUnits="userSpaceOnUse" x1="258.0352" y1="-9.7119" x2="295.0039" y2="-9.7119" gradientTransform="matrix(1 0 0 -1 -196 20)">
		<stop  offset="0" style="stop-color:#712878"/>
		<stop  offset="1" style="stop-color:#DC5F75"/>
	</linearGradient>
	<rect x="62.035" y="11.326" fill="url(#SVGID_15_)" width="36.969" height="36.772"/>
	
		<linearGradient id="SVGID_16_" gradientUnits="userSpaceOnUse" x1="653.6133" y1="-27.9741" x2="653.6133" y2="8.7979" gradientTransform="matrix(1 0 0 -1 -196 20)">
		<stop  offset="0" style="stop-color:#AA1F23"/>
		<stop  offset="1" style="stop-color:#E75225"/>
	</linearGradient>
	<path fill="url(#SVGID_16_)" d="M476.104,47.974c0-21.181-16.862-36.772-36.981-36.772v36.772H476.104z"/>
	
		<linearGradient id="SVGID_17_" gradientUnits="userSpaceOnUse" x1="598.1367" y1="-9.5859" x2="561.1553" y2="-9.5859" gradientTransform="matrix(1 0 0 -1 -196 20)">
		<stop  offset="0" style="stop-color:#712878"/>
		<stop  offset="1" style="stop-color:#DC5F75"/>
	</linearGradient>
	<path fill="url(#SVGID_17_)" d="M365.156,11.201c0,21.181,16.863,36.772,36.981,36.772V11.201H365.156z"/>
	
		<linearGradient id="SVGID_18_" gradientUnits="userSpaceOnUse" x1="616.6309" y1="-27.9731" x2="616.6309" y2="8.7988" gradientTransform="matrix(1 0 0 -1 -196 20)">
		<stop  offset="0" style="stop-color:#008F8D"/>
		<stop  offset="1" style="stop-color:#03793E"/>
	</linearGradient>
	<rect x="402.139" y="11.201" fill="url(#SVGID_18_)" width="36.982" height="36.772"/>
	
		<linearGradient id="SVGID_19_" gradientUnits="userSpaceOnUse" x1="635.1211" y1="-90.4854" x2="672.1025" y2="-90.4854" gradientTransform="matrix(1 0 0 -1 -196 20)">
		<stop  offset="0" style="stop-color:#C6A22D"/>
		<stop  offset="1" style="stop-color:#687333"/>
	</linearGradient>
	<path fill="url(#SVGID_19_)" d="M439.121,92.1c0,21.181,16.864,36.771,36.981,36.771V92.1H439.121z"/>
	
		<linearGradient id="SVGID_20_" gradientUnits="userSpaceOnUse" x1="635.1211" y1="-50.0371" x2="672.1025" y2="-50.0371" gradientTransform="matrix(1 0 0 -1 -196 20)">
		<stop  offset="0" style="stop-color:#AA1F23"/>
		<stop  offset="1" style="stop-color:#E75225"/>
	</linearGradient>
	<rect x="439.121" y="47.974" fill="url(#SVGID_20_)" width="36.981" height="44.126"/>
	
		<linearGradient id="SVGID_21_" gradientUnits="userSpaceOnUse" x1="356.875" y1="-50.1113" x2="394.875" y2="-50.1113" gradientTransform="matrix(1 0 0 -1 -196 20)">
		<stop  offset="0" style="stop-color:#712878"/>
		<stop  offset="1" style="stop-color:#DC5F75"/>
	</linearGradient>
	<path fill="url(#SVGID_21_)" d="M198.875,92.124v-25.64c0-10.154-8.787-18.386-19-18.386c-10.212,0-19,8.231-19,18.386v25.64
		H198.875z"/>
</g>
<g opacity="0.8">
	<path fill="#010101" d="M42.299,159.266h1.061v19.81c0,1.458-0.212,2.751-0.638,3.877c-0.426,1.126-1.009,2.069-1.749,2.832
		c-0.74,0.762-1.611,1.339-2.613,1.729c-1.001,0.391-2.085,0.586-3.251,0.586c-1.257,0-2.396-0.166-3.418-0.498
		c-1.021-0.332-1.889-0.842-2.604-1.523c-0.713-0.686-1.264-1.539-1.65-2.569c-0.386-1.026-0.58-2.239-0.58-3.633h1.061
		c0,2.317,0.599,4.092,1.797,5.323c1.199,1.229,2.997,1.846,5.393,1.846c0.982,0,1.909-0.17,2.78-0.508
		c0.871-0.338,1.633-0.84,2.289-1.505c0.655-0.664,1.172-1.493,1.552-2.49c0.38-0.996,0.57-2.151,0.57-3.467V159.266L42.299,159.266
		z"/>
	<path fill="#010101" d="M64.815,187.708v-3.419c-0.628,1.173-1.545,2.102-2.75,2.783c-1.205,0.685-2.73,1.025-4.578,1.025
		c-1.048,0-2.001-0.146-2.858-0.438c-0.858-0.292-1.592-0.763-2.201-1.405c-0.609-0.646-1.084-1.482-1.424-2.512
		c-0.34-1.028-0.511-2.279-0.511-3.751V166.57h1.061v13.461c0,1.289,0.147,2.38,0.441,3.271c0.295,0.891,0.704,1.614,1.229,2.168
		c0.524,0.555,1.146,0.954,1.866,1.201c0.72,0.247,1.506,0.371,2.358,0.371c1.179,0,2.201-0.15,3.064-0.449
		c0.865-0.301,1.592-0.703,2.181-1.211c0.589-0.509,1.054-1.101,1.395-1.777c0.34-0.678,0.583-1.4,0.727-2.168V166.57h1.081v21.138
		H64.815z"/>
	<path fill="#010101" d="M74.864,169.402c0.491-0.649,1.058-1.213,1.699-1.688c0.642-0.475,1.353-0.85,2.132-1.124
		c0.779-0.271,1.614-0.41,2.505-0.41c1.074,0,2.03,0.147,2.868,0.439c0.838,0.293,1.545,0.756,2.122,1.389
		c0.576,0.631,1.015,1.44,1.316,2.432c0.301,0.99,0.452,2.188,0.452,3.595v13.675h-1.061v-13.675c0-1.343-0.142-2.451-0.423-3.33
		c-0.282-0.88-0.678-1.576-1.189-2.091c-0.511-0.514-1.12-0.877-1.827-1.084c-0.708-0.209-1.48-0.313-2.319-0.313
		c-0.772,0-1.48,0.107-2.122,0.322c-0.642,0.216-1.221,0.506-1.739,0.871c-0.517,0.362-0.979,0.78-1.385,1.25
		c-0.406,0.468-0.756,0.963-1.051,1.483c-0.295,0.521-0.541,1.043-0.737,1.563c-0.197,0.521-0.348,1.009-0.452,1.465v13.538h-1.061
		v-21.137h1.061v4.922C73.97,170.751,74.373,170.057,74.864,169.402z"/>
	<path fill="#010101" d="M94.325,159.969c0-0.3,0.105-0.558,0.314-0.771c0.209-0.215,0.465-0.322,0.767-0.322
		c0.3,0,0.56,0.107,0.775,0.322c0.216,0.215,0.325,0.473,0.325,0.771s-0.108,0.553-0.325,0.762
		c-0.216,0.209-0.475,0.313-0.775,0.313c-0.302,0-0.558-0.104-0.767-0.313S94.325,160.268,94.325,159.969z M95.936,187.708h-1.061
		V166.57h1.061V187.708z"/>
	<path fill="#010101" d="M101.299,176.729c0-1.549,0.226-2.969,0.678-4.256c0.452-1.291,1.087-2.402,1.906-3.334
		c0.818-0.93,1.797-1.656,2.937-2.177c1.14-0.521,2.397-0.782,3.772-0.782c1.388,0,2.656,0.262,3.801,0.782
		c1.146,0.521,2.125,1.247,2.938,2.177c0.812,0.932,1.445,2.043,1.896,3.334c0.452,1.287,0.677,2.707,0.677,4.256v0.822
		c0,1.549-0.223,2.969-0.668,4.258c-0.446,1.289-1.077,2.4-1.896,3.332c-0.819,0.93-1.797,1.655-2.938,2.176
		c-1.14,0.521-2.396,0.783-3.772,0.783c-1.388,0-2.656-0.262-3.801-0.783c-1.146-0.521-2.128-1.246-2.947-2.176
		c-0.819-0.932-1.454-2.043-1.906-3.332s-0.678-2.709-0.678-4.258L101.299,176.729L101.299,176.729z M102.36,177.551
		c0,1.264,0.187,2.469,0.56,3.614c0.374,1.144,0.914,2.153,1.621,3.026s1.572,1.565,2.593,2.08c1.022,0.517,2.188,0.771,3.497,0.771
		c1.297,0,2.453-0.256,3.468-0.771c1.015-0.515,1.873-1.207,2.574-2.08c0.701-0.873,1.237-1.883,1.611-3.026
		c0.373-1.146,0.56-2.353,0.56-3.614v-0.822c0-1.236-0.187-2.424-0.56-3.563c-0.374-1.143-0.914-2.15-1.621-3.027
		c-0.708-0.88-1.572-1.582-2.594-2.111c-1.021-0.526-2.181-0.791-3.478-0.791c-1.297,0-2.456,0.265-3.477,0.791
		c-1.022,0.529-1.884,1.231-2.583,2.111c-0.701,0.877-1.238,1.887-1.612,3.027c-0.373,1.139-0.56,2.326-0.56,3.563L102.36,177.551
		L102.36,177.551z"/>
	<path fill="#010101" d="M134.424,167.332c-0.21-0.023-0.429-0.051-0.658-0.078c-0.23-0.025-0.468-0.039-0.717-0.039
		c-0.983,0-1.867,0.171-2.653,0.51c-0.786,0.338-1.466,0.803-2.043,1.396c-0.576,0.593-1.051,1.292-1.424,2.1
		c-0.374,0.807-0.646,1.688-0.815,2.637v13.852h-1.061v-21.137h1.061v4.395c0.576-1.471,1.441-2.636,2.594-3.496
		c1.152-0.859,2.6-1.289,4.342-1.289c0.328,0,0.615,0.02,0.865,0.06c0.249,0.038,0.458,0.091,0.628,0.155L134.424,167.332z"/>
	<path fill="#010101" d="M153.069,181.262l1.297,4.688l1.297-4.688l6.758-21.996h1.179l6.72,21.996l1.277,4.688l1.336-4.688
		l5.894-21.996h1.159l-7.701,28.442h-1.199l-7.093-23.716l-1.001-3.01l-0.963,3.01l-7.151,23.716h-1.198l-7.721-28.442h1.179
		L153.069,181.262z"/>
	<path fill="#010101" d="M191.616,188.1c-1.296,0-2.508-0.262-3.635-0.783c-1.126-0.521-2.112-1.246-2.956-2.176
		c-0.845-0.932-1.51-2.039-1.994-3.322c-0.485-1.282-0.727-2.692-0.727-4.229v-0.86c0-1.535,0.235-2.951,0.707-4.248
		c0.472-1.295,1.11-2.41,1.915-3.342c0.806-0.93,1.749-1.656,2.829-2.177c1.082-0.521,2.237-0.782,3.468-0.782
		c1.179,0,2.263,0.219,3.252,0.654c0.988,0.438,1.84,1.053,2.554,1.848c0.714,0.793,1.271,1.745,1.67,2.852
		c0.399,1.107,0.6,2.332,0.6,3.673v1.231h-15.935v0.291v0.86c0,1.315,0.209,2.55,0.629,3.702c0.419,1.15,0.999,2.156,1.739,3.009
		c0.74,0.853,1.614,1.526,2.623,2.021c1.008,0.494,2.095,0.742,3.261,0.742c0.603,0,1.189-0.045,1.759-0.137
		c0.569-0.091,1.117-0.246,1.641-0.469s1.027-0.518,1.513-0.891c0.484-0.369,0.949-0.842,1.395-1.414l0.747,0.525
		c-0.354,0.51-0.76,0.973-1.219,1.389c-0.458,0.416-0.979,0.774-1.562,1.074c-0.583,0.299-1.228,0.533-1.935,0.703
		C193.247,188.016,192.468,188.1,191.616,188.1z M191.223,167.234c-1.074,0-2.06,0.209-2.957,0.625
		c-0.897,0.418-1.687,0.994-2.367,1.729c-0.682,0.735-1.235,1.599-1.66,2.588c-0.426,0.989-0.698,2.058-0.815,3.204h14.814v-0.255
		c0-1.056-0.167-2.062-0.502-3.019c-0.333-0.957-0.805-1.797-1.415-2.52c-0.608-0.725-1.345-1.297-2.21-1.721
		C193.247,167.445,192.285,167.234,191.223,167.234z"/>
	<path fill="#010101" d="M220.497,177.336c0,1.614-0.18,3.083-0.54,4.402c-0.36,1.324-0.881,2.455-1.562,3.4
		c-0.681,0.943-1.516,1.674-2.505,2.188c-0.989,0.514-2.112,0.771-3.37,0.771c-0.877,0-1.686-0.094-2.426-0.283
		c-0.74-0.188-1.412-0.447-2.014-0.78c-0.603-0.332-1.14-0.726-1.611-1.183c-0.471-0.455-0.872-0.951-1.198-1.484v3.341h-1.062
		v-30.007h1.062v12.718c0.34-0.638,0.743-1.217,1.208-1.737c0.465-0.521,0.999-0.968,1.602-1.339c0.602-0.37,1.27-0.657,2.004-0.86
		c0.734-0.199,1.532-0.303,2.397-0.303c1.257,0,2.384,0.249,3.379,0.742c0.995,0.496,1.837,1.205,2.524,2.129
		c0.688,0.928,1.211,2.053,1.572,3.381c0.36,1.328,0.54,2.826,0.54,4.494V177.336L220.497,177.336z M219.397,176.926
		c0-1.408-0.141-2.703-0.423-3.89c-0.281-1.185-0.707-2.207-1.276-3.065c-0.57-0.859-1.287-1.531-2.151-2.014
		c-0.864-0.48-1.88-0.723-3.045-0.723c-1.14,0-2.122,0.166-2.947,0.498c-0.826,0.332-1.523,0.762-2.092,1.289
		c-0.57,0.527-1.028,1.111-1.376,1.75c-0.347,0.638-0.619,1.27-0.815,1.895v9.689c0.249,0.664,0.583,1.281,1.001,1.854
		c0.419,0.573,0.927,1.071,1.523,1.494c0.596,0.425,1.29,0.753,2.083,0.985c0.792,0.235,1.68,0.354,2.663,0.354
		c1.152,0,2.161-0.241,3.025-0.723c0.865-0.482,1.578-1.155,2.141-2.021c0.564-0.867,0.986-1.893,1.267-3.076
		c0.282-1.188,0.423-2.481,0.423-3.888L219.397,176.926L219.397,176.926z"/>
	<path fill="#010101" d="M241.48,187.708h-1.062v-14.063c0-1.266-0.145-2.309-0.433-3.137c-0.288-0.826-0.69-1.484-1.208-1.974
		s-1.134-0.83-1.847-1.025c-0.714-0.196-1.49-0.294-2.328-0.294c-1.179,0-2.208,0.241-3.084,0.723
		c-0.878,0.483-1.618,1.086-2.22,1.81c-0.603,0.724-1.081,1.496-1.434,2.323c-0.354,0.828-0.596,1.587-0.727,2.277v13.36h-1.081
		V166.57h1.081v5c0.314-0.754,0.71-1.459,1.188-2.118c0.478-0.657,1.039-1.228,1.68-1.709c0.641-0.481,1.352-0.863,2.131-1.144
		c0.779-0.279,1.621-0.42,2.525-0.42c1.781,0,3.237,0.391,4.372,1.172c1.132,0.781,1.875,2.059,2.229,3.83
		c0.285-0.703,0.676-1.358,1.168-1.965c0.491-0.605,1.07-1.133,1.739-1.582c0.666-0.449,1.413-0.805,2.238-1.064
		c0.823-0.26,1.716-0.391,2.673-0.391c1.072,0,2.033,0.146,2.879,0.438c0.844,0.293,1.559,0.756,2.143,1.389
		c0.582,0.63,1.027,1.44,1.336,2.433c0.308,0.988,0.461,2.188,0.461,3.594v13.675h-1.063v-13.675c0-1.342-0.145-2.455-0.434-3.34
		c-0.287-0.887-0.689-1.588-1.207-2.102c-0.518-0.515-1.133-0.875-1.846-1.084c-0.715-0.209-1.492-0.307-2.328-0.294
		c-0.84,0.015-1.604,0.128-2.289,0.343c-0.688,0.215-1.308,0.498-1.857,0.852c-0.551,0.351-1.027,0.751-1.436,1.199
		c-0.405,0.449-0.748,0.908-1.029,1.379c-0.281,0.468-0.501,0.934-0.659,1.396c-0.155,0.462-0.248,0.882-0.274,1.261v14.065H241.48z
		"/>
	<path fill="#010101" d="M276.078,187.708c-0.145-0.495-0.245-1.091-0.305-1.787c-0.061-0.696-0.088-1.392-0.088-2.081
		c-0.354,0.573-0.793,1.117-1.317,1.631c-0.522,0.516-1.132,0.969-1.827,1.357c-0.693,0.393-1.473,0.701-2.338,0.929
		c-0.863,0.228-1.827,0.343-2.889,0.343c-0.994,0-1.896-0.141-2.701-0.42c-0.805-0.279-1.492-0.675-2.063-1.183
		c-0.569-0.509-1.009-1.113-1.315-1.817c-0.308-0.703-0.463-1.478-0.463-2.322c0-0.939,0.225-1.805,0.67-2.601
		c0.443-0.794,1.09-1.476,1.935-2.041s1.877-1.01,3.095-1.329c1.219-0.318,2.594-0.479,4.127-0.479h5.088v-3.088
		c0-1.77-0.562-3.144-1.68-4.119c-1.121-0.979-2.723-1.467-4.805-1.467c-0.969,0-1.865,0.131-2.689,0.391
		c-0.828,0.262-1.544,0.623-2.154,1.085c-0.606,0.462-1.086,1.009-1.433,1.642c-0.348,0.633-0.521,1.313-0.521,2.043l-1.061-0.041
		c0-0.82,0.192-1.604,0.579-2.354c0.386-0.75,0.931-1.407,1.632-1.975c0.699-0.566,1.531-1.016,2.493-1.348
		c0.964-0.333,2.015-0.498,3.153-0.498c1.102,0,2.111,0.141,3.035,0.42s1.719,0.696,2.388,1.252
		c0.668,0.551,1.188,1.248,1.563,2.088c0.371,0.842,0.56,1.813,0.56,2.922v10.589c0,0.377,0.013,0.765,0.039,1.161
		s0.063,0.775,0.108,1.134c0.045,0.356,0.101,0.692,0.166,1.005c0.064,0.313,0.145,0.574,0.234,0.782v0.176H276.078L276.078,187.708
		z M267.314,187.063c1.022,0,1.969-0.117,2.84-0.352c0.869-0.234,1.656-0.572,2.356-1.016c0.701-0.442,1.316-0.975,1.849-1.594
		c0.529-0.617,0.972-1.317,1.326-2.1v-5.021h-5.031c-1.375,0-2.605,0.133-3.692,0.4c-1.088,0.268-2.01,0.643-2.771,1.123
		c-0.76,0.48-1.344,1.059-1.75,1.729c-0.404,0.672-0.607,1.404-0.607,2.199c0,0.639,0.135,1.236,0.402,1.797
		c0.269,0.561,0.646,1.051,1.13,1.475c0.485,0.425,1.063,0.756,1.729,0.997S266.503,187.063,267.314,187.063z"/>
	<path fill="#010101" d="M296.688,182.531c0-0.481-0.092-0.971-0.273-1.465c-0.184-0.496-0.52-0.976-1.002-1.437
		c-0.485-0.463-1.146-0.894-1.985-1.29c-0.838-0.396-1.911-0.738-3.221-1.025c-1.192-0.246-2.237-0.527-3.136-0.84
		c-0.896-0.313-1.646-0.692-2.248-1.144c-0.604-0.449-1.055-0.981-1.355-1.603c-0.301-0.617-0.451-1.356-0.451-2.217
		c0-0.742,0.164-1.436,0.49-2.08c0.328-0.646,0.796-1.209,1.405-1.689c0.608-0.48,1.353-0.863,2.229-1.143
		c0.877-0.281,1.873-0.422,2.985-0.422c1.192,0,2.256,0.147,3.192,0.439c0.937,0.293,1.73,0.703,2.388,1.232
		c0.655,0.525,1.155,1.16,1.502,1.902c0.349,0.742,0.521,1.563,0.521,2.462h-1.08c0-0.651-0.146-1.276-0.433-1.876
		c-0.289-0.6-0.709-1.129-1.258-1.592c-0.55-0.462-1.231-0.83-2.043-1.104c-0.812-0.272-1.742-0.41-2.79-0.41
		c-1.075,0-1.994,0.127-2.76,0.379c-0.768,0.255-1.393,0.588-1.879,0.998c-0.482,0.41-0.84,0.865-1.069,1.367s-0.345,1-0.345,1.494
		c0,0.547,0.076,1.053,0.228,1.514c0.149,0.464,0.458,0.894,0.923,1.291c0.465,0.396,1.12,0.771,1.965,1.121
		c0.847,0.353,1.955,0.686,3.33,0.996c1.271,0.287,2.36,0.612,3.271,0.979c0.91,0.363,1.658,0.791,2.249,1.279
		c0.59,0.488,1.022,1.051,1.297,1.688c0.274,0.64,0.413,1.374,0.413,2.208c0,0.82-0.176,1.569-0.521,2.247
		c-0.348,0.677-0.846,1.259-1.494,1.747c-0.646,0.488-1.434,0.87-2.355,1.145c-0.924,0.272-1.956,0.409-3.096,0.409
		c-1.282,0-2.418-0.151-3.408-0.459c-0.989-0.306-1.821-0.723-2.494-1.25c-0.676-0.526-1.188-1.14-1.533-1.837
		c-0.348-0.695-0.521-1.436-0.521-2.217h1.063c0.063,0.912,0.315,1.671,0.756,2.275c0.438,0.604,0.981,1.088,1.631,1.444
		c0.647,0.358,1.367,0.612,2.16,0.765c0.793,0.148,1.574,0.224,2.348,0.224c1.049,0,1.972-0.13,2.771-0.392
		c0.799-0.26,1.467-0.604,2.004-1.035c0.537-0.43,0.943-0.916,1.219-1.454C296.55,183.622,296.688,183.077,296.688,182.531z"/>
	<path fill="#010101" d="M305.98,160.866v5.704h4.832v1.074h-4.832v15.004c0,0.925,0.086,1.674,0.256,2.246
		c0.17,0.573,0.402,1.02,0.697,1.338c0.295,0.319,0.635,0.535,1.021,0.646c0.385,0.11,0.795,0.166,1.229,0.166
		c0.404,0,0.767-0.017,1.08-0.049c0.313-0.033,0.654-0.075,1.021-0.127l0.178,0.995c-0.146,0.053-0.315,0.092-0.511,0.117
		c-0.196,0.025-0.398,0.049-0.61,0.068c-0.209,0.021-0.411,0.033-0.608,0.039c-0.195,0.008-0.359,0.01-0.49,0.01
		c-0.682,0-1.29-0.084-1.828-0.252c-0.536-0.171-0.991-0.464-1.365-0.881c-0.373-0.417-0.658-0.979-0.854-1.681
		c-0.196-0.702-0.295-1.582-0.295-2.638v-15.002h-3.93v-1.074h3.93v-5.705L305.98,160.866L305.98,160.866z"/>
	<path fill="#010101" d="M323.979,188.1c-1.297,0-2.508-0.262-3.635-0.783c-1.128-0.521-2.111-1.246-2.957-2.176
		c-0.845-0.932-1.511-2.039-1.994-3.322c-0.484-1.282-0.728-2.692-0.728-4.229v-0.86c0-1.535,0.235-2.951,0.708-4.248
		c0.471-1.295,1.109-2.41,1.916-3.342c0.804-0.93,1.748-1.656,2.829-2.177c1.08-0.521,2.235-0.782,3.468-0.782
		c1.178,0,2.262,0.219,3.251,0.654c0.988,0.438,1.84,1.053,2.554,1.848c0.715,0.793,1.271,1.745,1.67,2.852
		c0.399,1.107,0.601,2.332,0.601,3.673v1.231h-15.935v0.291v0.86c0,1.315,0.209,2.55,0.629,3.702c0.42,1.15,0.998,2.156,1.737,3.009
		c0.741,0.853,1.615,1.526,2.624,2.021c1.008,0.494,2.096,0.742,3.262,0.742c0.603,0,1.188-0.045,1.758-0.137
		c0.57-0.091,1.117-0.246,1.642-0.469s1.026-0.518,1.513-0.891c0.484-0.369,0.949-0.842,1.396-1.414l0.745,0.525
		c-0.353,0.51-0.761,0.973-1.218,1.389s-0.979,0.774-1.562,1.074c-0.584,0.299-1.229,0.533-1.937,0.703
		C325.607,188.016,324.828,188.1,323.979,188.1z M323.586,167.234c-1.075,0-2.061,0.209-2.957,0.625
		c-0.896,0.418-1.688,0.994-2.368,1.729c-0.682,0.735-1.235,1.599-1.659,2.588c-0.426,0.989-0.697,2.058-0.815,3.204H330.6v-0.255
		c0-1.056-0.166-2.062-0.5-3.019s-0.808-1.797-1.414-2.52c-0.61-0.725-1.348-1.297-2.213-1.721
		C325.607,167.445,324.646,167.234,323.586,167.234z"/>
	<path fill="#010101" d="M345.98,167.332c-0.207-0.023-0.428-0.051-0.657-0.078c-0.229-0.025-0.468-0.039-0.718-0.039
		c-0.98,0-1.865,0.171-2.65,0.51c-0.786,0.338-1.467,0.803-2.044,1.396c-0.577,0.593-1.05,1.292-1.425,2.1
		c-0.373,0.807-0.646,1.688-0.814,2.637v13.852h-1.063v-21.137h1.063v4.395c0.577-1.471,1.439-2.636,2.594-3.496
		c1.152-0.859,2.6-1.289,4.342-1.289c0.326,0,0.615,0.02,0.865,0.06c0.247,0.038,0.459,0.091,0.629,0.155L345.98,167.332z"/>
	<path fill="#010101" d="M379.695,178.996c-0.145,1.536-0.487,2.874-1.031,4.014c-0.544,1.141-1.253,2.088-2.131,2.844
		c-0.879,0.756-1.913,1.316-3.104,1.688c-1.193,0.373-2.503,0.559-3.931,0.559c-1.571,0-2.995-0.305-4.272-0.908
		c-1.276-0.605-2.365-1.457-3.263-2.549c-0.897-1.096-1.591-2.406-2.082-3.938c-0.489-1.529-0.735-3.228-0.735-5.089v-4.258
		c0-1.851,0.246-3.543,0.735-5.08c0.491-1.536,1.185-2.853,2.082-3.945s1.985-1.943,3.263-2.549
		c1.277-0.607,2.701-0.909,4.272-0.909c1.428,0,2.737,0.188,3.931,0.565c1.19,0.379,2.227,0.941,3.104,1.689
		c0.878,0.749,1.587,1.689,2.131,2.823c0.544,1.133,0.888,2.462,1.031,3.983h-1.061c-0.303-2.617-1.22-4.604-2.751-5.968
		c-1.532-1.36-3.661-2.04-6.386-2.04c-1.389,0-2.65,0.271-3.792,0.812c-1.14,0.538-2.118,1.308-2.938,2.305
		c-0.817,0.995-1.451,2.194-1.896,3.595c-0.444,1.398-0.668,2.961-0.668,4.68v4.297c0,1.721,0.224,3.281,0.668,4.688
		c0.444,1.407,1.077,2.609,1.896,3.604c0.819,0.997,1.799,1.769,2.938,2.315c1.142,0.547,2.403,0.819,3.792,0.819
		c1.322,0,2.516-0.16,3.575-0.479c1.061-0.318,1.981-0.808,2.761-1.465c0.779-0.658,1.405-1.49,1.877-2.502
		c0.473-1.008,0.779-2.209,0.924-3.603h1.061V178.996z"/>
	<path fill="#010101" d="M399.501,187.708c-0.144-0.495-0.245-1.091-0.305-1.787c-0.061-0.696-0.088-1.392-0.088-2.081
		c-0.354,0.573-0.793,1.117-1.317,1.631c-0.523,0.516-1.132,0.969-1.827,1.357c-0.692,0.393-1.473,0.701-2.338,0.929
		c-0.862,0.228-1.827,0.343-2.888,0.343c-0.996,0-1.896-0.141-2.702-0.42s-1.492-0.675-2.062-1.183
		c-0.57-0.509-1.011-1.113-1.316-1.817c-0.309-0.703-0.463-1.478-0.463-2.322c0-0.939,0.224-1.805,0.668-2.601
		c0.445-0.794,1.091-1.476,1.936-2.041c0.846-0.565,1.877-1.01,3.094-1.329c1.219-0.318,2.596-0.479,4.129-0.479h5.088v-3.088
		c0-1.77-0.563-3.144-1.681-4.119c-1.121-0.979-2.723-1.467-4.805-1.467c-0.97,0-1.865,0.131-2.69,0.391
		c-0.826,0.262-1.543,0.623-2.151,1.085c-0.609,0.462-1.089,1.009-1.435,1.642c-0.348,0.633-0.521,1.313-0.521,2.043l-1.062-0.041
		c0-0.82,0.192-1.604,0.578-2.354c0.387-0.75,0.932-1.407,1.633-1.975c0.699-0.566,1.53-1.016,2.493-1.348
		c0.964-0.333,2.015-0.498,3.153-0.498c1.102,0,2.111,0.141,3.036,0.42c0.923,0.279,1.718,0.696,2.387,1.252
		c0.668,0.551,1.188,1.248,1.563,2.088c0.373,0.842,0.56,1.813,0.56,2.922v10.589c0,0.377,0.013,0.765,0.038,1.161
		c0.027,0.396,0.063,0.775,0.109,1.134c0.045,0.356,0.101,0.692,0.167,1.005c0.063,0.313,0.144,0.574,0.233,0.782v0.176H399.501
		L399.501,187.708z M390.738,187.063c1.021,0,1.968-0.117,2.84-0.352c0.869-0.234,1.656-0.572,2.355-1.016
		c0.701-0.442,1.316-0.975,1.848-1.594c0.53-0.617,0.973-1.317,1.327-2.1v-5.021h-5.03c-1.375,0-2.605,0.133-3.693,0.4
		s-2.011,0.643-2.771,1.123c-0.76,0.48-1.342,1.059-1.748,1.729c-0.405,0.672-0.609,1.404-0.609,2.199
		c0,0.639,0.135,1.236,0.404,1.797c0.268,0.561,0.646,1.051,1.129,1.475c0.484,0.425,1.063,0.756,1.729,0.997
		C389.186,186.943,389.926,187.063,390.738,187.063z"/>
	<path fill="#010101" d="M422.213,187.708h-1.061v-14.063c0-1.266-0.146-2.309-0.434-3.137c-0.288-0.826-0.69-1.484-1.208-1.974
		c-0.518-0.488-1.133-0.83-1.847-1.025c-0.715-0.196-1.49-0.294-2.329-0.294c-1.178,0-2.207,0.241-3.084,0.723
		c-0.879,0.483-1.618,1.086-2.22,1.81c-0.604,0.724-1.081,1.496-1.436,2.323c-0.354,0.828-0.598,1.587-0.727,2.277v13.36h-1.08
		V166.57h1.08v5c0.313-0.754,0.711-1.459,1.188-2.118c0.478-0.657,1.037-1.228,1.679-1.709c0.643-0.481,1.353-0.863,2.133-1.144
		c0.779-0.279,1.62-0.42,2.523-0.42c1.781,0,3.238,0.391,4.371,1.172s1.876,2.059,2.23,3.83c0.288-0.703,0.678-1.358,1.169-1.965
		c0.49-0.605,1.071-1.133,1.738-1.582c0.668-0.449,1.415-0.805,2.238-1.064c0.825-0.26,1.717-0.391,2.674-0.391
		c1.073,0,2.033,0.146,2.879,0.438c0.843,0.293,1.558,0.756,2.142,1.389c0.582,0.63,1.027,1.44,1.335,2.433
		c0.308,0.988,0.463,2.188,0.463,3.594v13.675h-1.063v-13.675c0-1.342-0.145-2.455-0.434-3.34c-0.288-0.887-0.689-1.588-1.207-2.102
		c-0.519-0.515-1.134-0.875-1.848-1.084c-0.713-0.209-1.49-0.307-2.327-0.294c-0.839,0.015-1.602,0.128-2.289,0.343
		s-1.307,0.498-1.855,0.852c-0.552,0.351-1.029,0.751-1.436,1.199c-0.406,0.449-0.751,0.908-1.031,1.379
		c-0.28,0.468-0.502,0.934-0.657,1.396c-0.157,0.462-0.249,0.882-0.275,1.261v14.065H422.213z"/>
	<path fill="#010101" d="M459.326,177.336c0,1.614-0.182,3.083-0.541,4.402c-0.36,1.324-0.881,2.455-1.563,3.4
		c-0.682,0.943-1.516,1.674-2.505,2.188c-0.989,0.514-2.111,0.771-3.37,0.771c-0.862,0-1.666-0.092-2.405-0.272
		c-0.74-0.183-1.412-0.437-2.015-0.763s-1.143-0.713-1.621-1.162c-0.478-0.448-0.88-0.939-1.208-1.475v11.407h-1.061V166.57h1.061
		v3.77c0.342-0.625,0.747-1.191,1.22-1.699c0.472-0.508,1.008-0.943,1.609-1.31c0.603-0.364,1.268-0.647,1.993-0.851
		c0.729-0.199,1.522-0.303,2.389-0.303c1.258,0,2.384,0.249,3.378,0.742c0.996,0.496,1.839,1.205,2.525,2.129
		c0.688,0.928,1.211,2.053,1.571,3.381c0.359,1.328,0.541,2.826,0.541,4.494L459.326,177.336L459.326,177.336z M458.245,176.926
		c0-1.408-0.142-2.703-0.422-3.89c-0.282-1.185-0.708-2.207-1.278-3.065c-0.569-0.859-1.289-1.531-2.16-2.014
		c-0.871-0.48-1.89-0.723-3.055-0.723c-1.128,0-2.1,0.164-2.917,0.488c-0.82,0.325-1.514,0.745-2.084,1.26
		c-0.569,0.517-1.035,1.088-1.396,1.721c-0.358,0.633-0.638,1.253-0.834,1.863v9.887c0.248,0.665,0.587,1.277,1.013,1.836
		c0.425,0.561,0.938,1.046,1.543,1.456c0.603,0.409,1.296,0.729,2.082,0.957c0.784,0.228,1.662,0.342,2.633,0.342
		c1.151,0,2.16-0.241,3.024-0.724c0.864-0.481,1.581-1.154,2.15-2.021c0.57-0.866,0.996-1.893,1.278-3.077
		c0.28-1.187,0.422-2.48,0.422-3.887L458.245,176.926L458.245,176.926z"/>
</g>
</svg>
