<?xml version="1.0" encoding="utf-8"?>
<!-- Generator: Adobe Illustrator 16.0.0, SVG Export Plug-In . SVG Version: 6.00 Build 0)  -->
<!DOCTYPE svg PUBLIC "-//W3C//DTD SVG 1.1//EN" "http://www.w3.org/Graphics/SVG/1.1/DTD/svg11.dtd">
<svg version="1.1" id="Layer_1" xmlns="http://www.w3.org/2000/svg" xmlns:xlink="http://www.w3.org/1999/xlink" x="0px" y="0px"
	 width="30px" height="30px" viewBox="0 0 30 30" enable-background="new 0 0 30 30" xml:space="preserve">
<g>
	<path fill-rule="evenodd" clip-rule="evenodd" fill="#3C5C9E" d="M0.001,15.42c0-0.28,0-0.561,0-0.841
		c0.024-0.155,0.059-0.311,0.074-0.467c0.05-0.476,0.065-0.957,0.142-1.428c0.423-2.615,1.432-4.982,3.117-7.031
		c2.807-3.419,6.424-5.298,10.855-5.58C14.384,0.06,14.579,0.025,14.775,0c0.159,0,0.32,0,0.479,0
		c0.105,0.021,0.211,0.057,0.316,0.06c1.859,0.053,3.655,0.423,5.341,1.195c5.048,2.313,8.055,6.202,8.927,11.703
		c0.269,1.704,0.196,3.404-0.164,5.086c-0.835,3.884-2.892,6.977-6.146,9.255c-2.292,1.606-4.854,2.478-7.658,2.628
		c-0.206,0.012-0.411,0.048-0.617,0.073c-0.16,0-0.32,0-0.479,0c-0.105-0.021-0.211-0.049-0.317-0.06
		c-0.832-0.099-1.676-0.126-2.491-0.301c-3.897-0.831-6.997-2.895-9.279-6.155c-1.442-2.059-2.288-4.349-2.551-6.852
		C0.095,16.228,0.046,15.825,0.001,15.42z M19.225,6.053c-0.116-0.007-0.207-0.016-0.294-0.016c-0.96,0-1.923-0.019-2.883,0.006
		c-1.988,0.05-3.233,1.339-3.392,3.292c-0.061,0.746-0.042,1.497-0.044,2.247c0,0.218-0.073,0.303-0.295,0.296
		c-0.391-0.013-0.781-0.004-1.171-0.003c-0.403,0.001-0.409,0.007-0.41,0.396c0,0.801,0,1.601,0,2.401
		c0.001,0.404,0.001,0.406,0.393,0.407c0.341,0,0.681,0,1.021,0c0.444,0,0.445,0,0.445,0.458c0,2.72,0,5.44,0,8.159
		c0,0.388,0.001,0.388,0.398,0.388c1.021,0.002,2.042,0.002,3.063,0.002c0.419-0.002,0.421-0.002,0.421-0.424
		c0-2.749,0.003-5.499-0.006-8.25c-0.002-0.267,0.077-0.343,0.34-0.334c0.608,0.018,1.221-0.001,1.831,0.009
		c0.216,0.004,0.291-0.064,0.306-0.287c0.033-0.516,0.106-1.03,0.155-1.545c0.043-0.451,0.076-0.904,0.117-1.397
		c-0.144,0-0.252,0-0.36,0c-0.699,0-1.399-0.015-2.101,0.007c-0.29,0.009-0.361-0.091-0.347-0.359
		c0.021-0.369,0.005-0.74,0.006-1.109c0.003-0.873,0.387-1.251,1.268-1.251c0.508-0.001,1.014,0,1.539,0
		C19.225,8.098,19.225,7.093,19.225,6.053z"/>
	<path fill-rule="evenodd" clip-rule="evenodd" fill="#FFFFFF" d="M19.225,6.053c0,1.04,0,2.045,0,3.092
		c-0.525,0-1.031-0.001-1.539,0c-0.881,0-1.265,0.378-1.268,1.251c-0.001,0.369,0.015,0.74-0.006,1.109
		c-0.015,0.268,0.057,0.368,0.347,0.359c0.701-0.022,1.401-0.007,2.101-0.007c0.108,0,0.217,0,0.36,0
		c-0.041,0.494-0.074,0.946-0.117,1.397c-0.049,0.516-0.122,1.03-0.155,1.545c-0.015,0.223-0.09,0.292-0.306,0.287
		c-0.61-0.01-1.223,0.009-1.831-0.009c-0.263-0.009-0.342,0.067-0.34,0.334c0.009,2.75,0.006,5.5,0.006,8.25
		c0,0.422-0.002,0.422-0.421,0.424c-1.021,0-2.041,0-3.063-0.002c-0.397,0-0.398,0-0.398-0.388c0-2.719,0-5.439,0-8.159
		c0-0.458,0-0.458-0.445-0.458c-0.341,0-0.681,0-1.021,0c-0.392-0.001-0.392-0.003-0.393-0.407c0-0.8,0-1.6,0-2.401
		c0.001-0.388,0.007-0.394,0.41-0.396c0.39-0.001,0.781-0.01,1.171,0.003c0.222,0.007,0.294-0.078,0.295-0.296
		c0.003-0.75-0.016-1.501,0.044-2.247c0.158-1.953,1.403-3.242,3.392-3.292c0.96-0.025,1.923-0.006,2.883-0.006
		C19.018,6.037,19.108,6.045,19.225,6.053z"/>
</g>
</svg>
