<?xml version="1.0" encoding="utf-8"?>
<!-- Generator: Adobe Illustrator 16.0.0, SVG Export Plug-In . SVG Version: 6.00 Build 0)  -->
<!DOCTYPE svg PUBLIC "-//W3C//DTD SVG 1.1//EN" "http://www.w3.org/Graphics/SVG/1.1/DTD/svg11.dtd">
<svg version="1.1" id="Layer_1" xmlns="http://www.w3.org/2000/svg" xmlns:xlink="http://www.w3.org/1999/xlink" x="0px" y="0px"
	 width="30px" height="30px" viewBox="0 0 30 30" enable-background="new 0 0 30 30" xml:space="preserve">
<g>
	<path fill="#CB2027" d="M15.32,18.814c-0.185,0-0.37,0-0.556,0c-0.139-0.02-0.279-0.015-0.418-0.034
		c-0.319-0.046-0.619-0.157-0.908-0.294c-0.436-0.205-0.819-0.486-1.147-0.84c-0.468-0.506-0.78-1.096-0.927-1.77
		c-0.033-0.15-0.03-0.307-0.042-0.461c-0.001-0.017,0.005-0.035-0.007-0.05c0-0.2,0-0.4,0-0.601
		c0.018-0.138,0.014-0.278,0.033-0.416c0.037-0.263,0.123-0.514,0.226-0.757c0.253-0.596,0.634-1.095,1.141-1.498
		c0.413-0.328,0.875-0.555,1.382-0.696c0.203-0.057,0.411-0.062,0.618-0.077c0.022-0.001,0.045,0.007,0.065-0.007
		c0.19,0,0.38,0,0.57,0c0.141,0.019,0.285,0.016,0.425,0.034c0.271,0.035,0.525,0.125,0.775,0.23
		c0.483,0.204,0.904,0.499,1.265,0.88c0.48,0.51,0.8,1.107,0.95,1.792c0.034,0.155,0.031,0.314,0.042,0.472
		c0.001,0.02-0.007,0.04,0.007,0.058c0,0.195,0,0.39,0,0.585c-0.021,0.134-0.016,0.269-0.033,0.402
		c-0.04,0.316-0.148,0.61-0.28,0.896c-0.204,0.444-0.489,0.835-0.848,1.168c-0.507,0.472-1.099,0.785-1.774,0.934
		c-0.157,0.035-0.318,0.031-0.479,0.043C15.374,18.81,15.346,18.8,15.32,18.814z"/>
</g>
<g>
	<path fill="#FFFFFF" d="M14.11,13.711c0.902,0.471,1.798,0.938,2.704,1.41c-0.905,0.47-1.802,0.934-2.704,1.401
		C14.11,15.584,14.11,14.653,14.11,13.711z"/>
</g>
<g>
	<path fill-rule="evenodd" clip-rule="evenodd" fill="#2DAAE0" d="M16.2,30c-0.82,0-1.64,0-2.46,0
		c-0.04-0.084-0.119-0.058-0.184-0.064c-0.615-0.07-1.226-0.166-1.833-0.295c-5.8-1.23-10.515-6.16-11.495-12.008
		C0.148,17.156,0.147,16.666,0,16.2c0-0.82,0-1.64,0-2.459c0.083-0.039,0.058-0.119,0.065-0.184c0.07-0.616,0.165-1.228,0.294-1.833
		c1.245-5.816,6.152-10.51,12.01-11.495C12.826,0.152,13.295,0.148,13.74,0c0.82,0,1.64,0,2.46,0
		c0.031,0.072,0.098,0.055,0.154,0.06c0.646,0.061,1.286,0.165,1.923,0.299c5.795,1.227,10.514,6.16,11.492,12.006
		c0.084,0.498,0.098,1.005,0.23,1.494c0,0.78,0,1.561,0,2.34c-0.067,0.034-0.055,0.099-0.061,0.156
		c-0.061,0.657-0.166,1.308-0.305,1.952c-1.244,5.789-6.164,10.482-12.004,11.463C17.154,29.852,16.666,29.854,16.2,30z
		 M6.115,20.943c-0.003-0.01-0.007-0.021-0.011-0.031c-0.001,0.006-0.005,0.015-0.003,0.017c0.005,0.005,0.013,0.007,0.021,0.011
		c0.038,0.093,0.132,0.116,0.207,0.158c3.015,1.715,6.166,1.957,9.38,0.705c3.951-1.539,6.535-5.554,6.503-9.941
		c-0.002-0.247,0.068-0.397,0.265-0.545c0.598-0.453,1.099-1.002,1.574-1.699c-0.686,0.253-1.292,0.466-2.019,0.537
		c0.38-0.304,0.694-0.563,0.938-0.891c0.243-0.326,0.446-0.671,0.579-1.124c-0.684,0.379-1.336,0.649-2.028,0.822
		c-0.204,0.051-0.345,0.03-0.508-0.12C19.83,7.759,18.15,7.55,16.752,8.296c-1.376,0.734-2.148,2.26-1.912,3.824
		c0.039,0.256-0.006,0.304-0.256,0.28c-2.871-0.274-5.257-1.49-7.151-3.664C7.272,8.552,7.222,8.579,7.122,8.782
		c-0.741,1.506-0.347,3.375,0.951,4.47c0.076,0.064,0.187,0.104,0.224,0.251c-0.24-0.043-0.458-0.069-0.669-0.124
		c-0.211-0.056-0.419-0.132-0.622-0.215c-0.3-0.123-0.301-0.127-0.275,0.211c0.112,1.482,1.132,2.772,2.562,3.239
		c0.087,0.028,0.174,0.059,0.325,0.109c-0.561,0.149-1.056,0.143-1.609,0.057c0.623,1.586,1.741,2.424,3.372,2.594
		c-0.012,0.035-0.013,0.058-0.025,0.068c-0.036,0.035-0.076,0.066-0.116,0.095c-1.028,0.735-2.169,1.18-3.422,1.351
		C7.25,20.963,6.682,20.91,6.115,20.943z"/>
	<path fill-rule="evenodd" clip-rule="evenodd" fill="#FDFEFE" d="M6.115,20.943c0.566-0.033,1.134,0.02,1.702-0.057
		c1.253-0.171,2.394-0.615,3.422-1.351c0.04-0.028,0.08-0.06,0.116-0.095c0.012-0.011,0.013-0.033,0.025-0.068
		c-1.631-0.17-2.749-1.008-3.372-2.594c0.554,0.086,1.049,0.093,1.609-0.057c-0.151-0.051-0.238-0.081-0.325-0.109
		c-1.43-0.467-2.449-1.756-2.562-3.239c-0.025-0.338-0.024-0.334,0.275-0.211c0.203,0.083,0.41,0.159,0.622,0.215
		c0.211,0.055,0.429,0.081,0.669,0.124c-0.037-0.147-0.147-0.187-0.224-0.251c-1.298-1.095-1.692-2.963-0.951-4.47
		c0.1-0.203,0.151-0.23,0.312-0.046c1.894,2.174,4.28,3.39,7.151,3.664c0.25,0.024,0.294-0.023,0.256-0.28
		c-0.236-1.563,0.536-3.09,1.912-3.824c1.398-0.747,3.078-0.538,4.262,0.546c0.163,0.15,0.304,0.171,0.508,0.12
		C22.214,8.79,22.866,8.52,23.55,8.14c-0.133,0.453-0.336,0.798-0.579,1.124c-0.244,0.328-0.559,0.587-0.938,0.891
		c0.727-0.07,1.333-0.283,2.019-0.537c-0.476,0.696-0.977,1.246-1.574,1.699c-0.196,0.148-0.267,0.299-0.265,0.545
		c0.032,4.387-2.552,8.402-6.503,9.941c-3.214,1.252-6.365,1.01-9.38-0.705c-0.075-0.042-0.169-0.065-0.207-0.158L6.115,20.943z"/>
	<path fill-rule="evenodd" clip-rule="evenodd" fill="#FDFEFE" d="M6.122,20.939c-0.007-0.004-0.015-0.006-0.021-0.011
		c-0.002-0.002,0.002-0.011,0.003-0.017c0.004,0.011,0.007,0.021,0.011,0.031L6.122,20.939z"/>
</g>
</svg>
