<?xml version="1.0" encoding="utf-8"?>
<!-- Generator: Adobe Illustrator 16.0.0, SVG Export Plug-In . SVG Version: 6.00 Build 0)  -->
<!DOCTYPE svg PUBLIC "-//W3C//DTD SVG 1.1//EN" "http://www.w3.org/Graphics/SVG/1.1/DTD/svg11.dtd">
<svg version="1.1" id="Layer_1" xmlns="http://www.w3.org/2000/svg" xmlns:xlink="http://www.w3.org/1999/xlink" x="0px" y="0px"
	 width="407.521px" height="77.408px" viewBox="0 0 407.521 77.408" enable-background="new 0 0 407.521 77.408"
	 xml:space="preserve">
<g>
	<path fill="#A81F24" d="M300.208,6.416h107.313L401.688,0H54.082l-2.335,6.416h90.985v29.451h-41.991V20.705H71.576v15.162h-1.164
		L48.249,49.865v11.67L33.086,76.697c0,0,29.162,0,187.801,0c158.637,0,172.641-57.158,172.641-57.158
		c-21.41,17.688-73.242,21.256-93.319,21.977V6.416z M209.24,6.416l6.795,29.451h-20.811V6.416H209.24z M146.233,6.416h45.489
		v29.451h-45.489V6.416z M278.369,35.867l4.746-28.643l-3.449-0.572l-4.842,29.215h-55.191l-6.797-29.451h83.871v35.209
		c-2.955,0.078-4.665,0.078-4.665,0.078v-5.836H278.369z"/>
	<rect x="142.732" y="48.703" fill="#F8F8E5" width="114.314" height="10.494"/>
</g>
<linearGradient id="SVGID_1_" gradientUnits="userSpaceOnUse" x1="255.2275" y1="22.627" x2="273.5625" y2="22.627">
	<stop  offset="0" style="stop-color:#C4892B"/>
	<stop  offset="0.9875" style="stop-color:#F9CD85"/>
</linearGradient>
<path fill="url(#SVGID_1_)" d="M273.497,31.1c-0.058-6.326-0.393-12.666-0.683-18.986c0,0-1.709-4.859-8.684-4.994
	c-5.861-0.113-8.204,3.963-8.805,5.27c0.002,0.252,0.005,0.502,0.002,0.756l-0.101-0.227c0,0.014,0.003,0.021,0.003,0.031
	l0.098,0.248c0,0.182-0.007,0.363-0.014,0.543c0.352,3.385,0.358,6.816,0.053,10.209c0.039,0.008,0.078,0.02,0.115,0.023
	c0.012,0.422,0.031,0.842,0.051,1.26l0.057,7.371l0.086-0.23c0.036,0.332,0.096,0.656,0.201,0.961
	c0.75,2.16,3.115,3.281,5.184,4.037c2.012,0.734,4.047,0.959,6.172,0.596c1.715-0.295,4.025-1.297,5.299-2.514
	C273.914,34.121,273.512,32.787,273.497,31.1z"/>
<path fill="#8F9293" d="M255.482,26.041c0,0,5.528,9.73,10.728-0.869l-0.079-8.457c0,0-1.77-8.344-6.047-6.793
	s-4.59,6.58-4.662,11.045L255.482,26.041z"/>
<circle fill="#EAB862" cx="264.693" cy="24.922" r="2.185"/>
<path fill="#352215" d="M273.1,12.117c0,0-2.805,2.496-3.393,3.869s-3.332,4.121-6.668,4.512
	c-3.334,0.393-11.379,1.176-11.964-3.924c0,0,3.923,1.375,4.118-0.195l-0.164-3.977c0,0,2.518-4.85,6.637-5.439
	C265.785,6.375,271.588,8.443,273.1,12.117z"/>
<polygon fill="#8F9293" points="255.439,29.193 260.563,30.049 255.482,26.041 "/>
<linearGradient id="SVGID_2_" gradientUnits="userSpaceOnUse" x1="171.9355" y1="22.627" x2="190.2705" y2="22.627">
	<stop  offset="0" style="stop-color:#C4892B"/>
	<stop  offset="0.9875" style="stop-color:#F9CD85"/>
</linearGradient>
<path fill="url(#SVGID_2_)" d="M190.204,31.1c-0.055-6.326-0.388-12.666-0.677-18.986c0,0-1.713-4.859-8.688-4.994
	c-5.86-0.113-8.203,3.963-8.805,5.27c0.003,0.252,0.006,0.502,0.003,0.756l-0.103-0.227c0,0.014,0.002,0.021,0.002,0.031
	l0.101,0.248c0,0.182-0.009,0.363-0.009,0.543c0.349,3.385,0.349,6.816,0.048,10.209c0.038,0.008,0.073,0.02,0.11,0.023
	c0.019,0.422,0.033,0.842,0.057,1.26l0.051,7.371l0.088-0.23c0.035,0.332,0.099,0.656,0.203,0.961
	c0.753,2.16,3.111,3.281,5.18,4.037c2.014,0.734,4.053,0.959,6.176,0.596c1.718-0.295,4.029-1.297,5.299-2.514
	C190.621,34.121,190.221,32.787,190.204,31.1z"/>
<path fill="#8F9293" d="M172.191,26.041c0,0,5.529,9.73,10.73-0.869l-0.079-8.457c0,0-1.774-8.344-6.05-6.793
	c-4.277,1.551-4.587,6.58-4.66,11.045L172.191,26.041z"/>
<circle fill="#EAB862" cx="181.4" cy="24.922" r="2.182"/>
<path fill="#352215" d="M189.807,12.117c0,0-2.801,2.496-3.391,3.869c-0.587,1.373-3.336,4.121-6.668,4.512
	c-3.338,0.393-11.379,1.176-11.968-3.924c0,0,3.927,1.375,4.122-0.195l-0.166-3.977c0,0,2.518-4.85,6.641-5.439
	C182.494,6.375,188.297,8.443,189.807,12.117z"/>
<polygon fill="#8F9293" points="172.148,29.193 177.273,30.049 172.191,26.041 "/>
<linearGradient id="SVGID_3_" gradientUnits="userSpaceOnUse" x1="112.3213" y1="24.0957" x2="131.7725" y2="24.0957" gradientTransform="matrix(1 -0.003 0.003 1 -1.899 -3.3618)">
	<stop  offset="0.0032" style="stop-color:#D39C44"/>
	<stop  offset="0.1401" style="stop-color:#D9A550"/>
	<stop  offset="0.5004" style="stop-color:#EABA6D"/>
	<stop  offset="0.7957" style="stop-color:#F5C87F"/>
	<stop  offset="0.9875" style="stop-color:#F9CD85"/>
</linearGradient>
<path fill="url(#SVGID_3_)" d="M129.906,29.326c-0.088-6.711-0.459-13.436-0.781-20.143c0,0-1.832-5.146-9.236-5.27
	c-6.213-0.102-8.688,4.23-9.322,5.619c0.008,0.268,0.01,0.535,0.008,0.801l-0.111-0.24c0,0.012,0,0.023,0,0.033l0.111,0.264
	c0,0.191-0.008,0.385-0.013,0.576c0.383,3.592,0.394,7.23,0.085,10.83c0.039,0.012,0.076,0.02,0.117,0.027
	c0.021,0.445,0.04,0.893,0.064,1.338l0.078,7.818L111,30.736c0.038,0.352,0.102,0.693,0.223,1.02
	c0.797,2.289,3.307,3.471,5.505,4.268c2.138,0.773,4.3,1.002,6.552,0.611c1.824-0.316,4.271-1.389,5.611-2.686
	C130.357,32.535,129.92,31.119,129.906,29.326z"/>
<path fill="#787B7B" d="M110.764,23.986c0,0,5.867,10.33,11.381-0.918l-0.084-8.977c0,0-1.873-8.852-6.415-7.203
	c-4.535,1.643-4.866,6.979-4.948,11.717L110.764,23.986z"/>
<circle fill="#EAB862" cx="120.535" cy="22.803" r="2.316"/>
<path fill="#352215" d="M129.456,9.219c0,0-2.976,2.645-3.601,4.104c-0.623,1.457-3.533,4.369-7.075,4.789
	c-3.538,0.416-12.067,1.246-12.696-4.166c0,0,4.166,1.459,4.371-0.207l-0.172-4.221c0,0,2.671-5.146,7.041-5.77
	C121.695,3.123,127.852,5.318,129.456,9.219z"/>
<g>
	<path fill="#FDFEFF" d="M128.225,29.24c0.788,0.686,1.051,1.68,0.577,2.223l-4.669,5.402c-0.471,0.543-1.49,0.424-2.285-0.258
		l-11.098-9.604c-0.792-0.686-1.053-1.682-0.584-2.223l4.677-5.402c0.468-0.543,1.491-0.426,2.28,0.258L128.225,29.24z"/>
	<g>
		<path fill-rule="evenodd" clip-rule="evenodd" fill="#8E8E8E" d="M118.273,24.598c-0.066,0.777,0.557,1.344,1.389,1.07
			c0.186,0.361,0.355,0.732,0.349,1.154c0,0.205-0.105,0.363-0.284,0.449c-0.329,0.158-0.553,0.387-0.654,0.748
			c-0.067,0.236-0.25,0.365-0.504,0.375c-0.812,0.035-1.518-0.211-2.07-0.824c-0.457-0.51-0.448-1.371,0.303-1.715
			c0.201-0.092,0.306-0.24,0.373-0.445c0.119-0.389,0.37-0.66,0.773-0.77C118.047,24.615,118.15,24.613,118.273,24.598z"/>
		<path fill-rule="evenodd" clip-rule="evenodd" fill="#8E8E8E" d="M116.838,25.539c-0.4-0.293-0.48-0.859-0.186-1.254
			C117.07,24.518,117.174,25.172,116.838,25.539z"/>
	</g>
</g>
<g>
	<linearGradient id="SVGID_4_" gradientUnits="userSpaceOnUse" x1="44.1777" y1="63.5645" x2="91.2168" y2="63.5645">
		<stop  offset="0" style="stop-color:#038E8B"/>
		<stop  offset="0.5742" style="stop-color:#714492"/>
		<stop  offset="1" style="stop-color:#714492"/>
	</linearGradient>
	<path fill="url(#SVGID_4_)" d="M44.178,76.217c0,0,21.526-8.857,21.802-25.305c0,0,11.345,24.547,25.237,24.777L44.178,76.217z"/>
	<linearGradient id="SVGID_5_" gradientUnits="userSpaceOnUse" x1="0" y1="64.7559" x2="47.0254" y2="64.7559">
		<stop  offset="0" style="stop-color:#038E8B"/>
		<stop  offset="0.5742" style="stop-color:#714492"/>
		<stop  offset="1" style="stop-color:#714492"/>
	</linearGradient>
	<path fill="url(#SVGID_5_)" d="M0,77.408c0,0,21.518-8.854,21.795-25.305c0,0,11.346,24.543,25.23,24.777L0,77.408z"/>
</g>
</svg>
