<?xml version="1.0" encoding="utf-8"?>
<!-- Generator: Adobe Illustrator 16.0.0, SVG Export Plug-In . SVG Version: 6.00 Build 0)  -->
<!DOCTYPE svg PUBLIC "-//W3C//DTD SVG 1.1//EN" "http://www.w3.org/Graphics/SVG/1.1/DTD/svg11.dtd">
<svg version="1.1" id="Layer_1" xmlns="http://www.w3.org/2000/svg" xmlns:xlink="http://www.w3.org/1999/xlink" x="0px" y="0px"
	 width="511.261px" height="174.024px" viewBox="0 0 511.261 174.024" enable-background="new 0 0 511.261 174.024"
	 xml:space="preserve">
<g>
	<g id="XMLID_33_">
		<g>
			<linearGradient id="SVGID_1_" gradientUnits="userSpaceOnUse" x1="1.7485" y1="145.4146" x2="509.1685" y2="145.4146">
				<stop  offset="0" style="stop-color:#722A79"/>
				<stop  offset="1" style="stop-color:#DC5F76"/>
			</linearGradient>
			<rect x="1.749" y="120.566" fill="url(#SVGID_1_)" width="507.42" height="49.697"/>
		</g>
		<g>
		</g>
	</g>
	<g>
		<g>
			<path fill="#FFFFFF" d="M361.638,74.45l32.512,1.232c0,0,6.762-42.979-15.285-42.654C357.972,33.34,361.029,52.362,361.638,74.45
				z"/>
			<linearGradient id="SVGID_2_" gradientUnits="userSpaceOnUse" x1="382.0698" y1="121.1978" x2="400.1025" y2="121.1978">
				<stop  offset="0.0032" style="stop-color:#D39C44"/>
				<stop  offset="0.1539" style="stop-color:#DEAB5A"/>
				<stop  offset="0.3298" style="stop-color:#EABA6D"/>
				<stop  offset="0.518" style="stop-color:#F2C47B"/>
				<stop  offset="0.7251" style="stop-color:#F7CB83"/>
				<stop  offset="0.9875" style="stop-color:#F9CD85"/>
			</linearGradient>
			<path fill="url(#SVGID_2_)" d="M391.533,96.323c0,0-0.324,40.152-0.334,40.895c-0.016,2.037,3.807,3.127,5.17,3.893
				c0.938,0.529,1.969,0.764,2.674,1.641c0.188,0.234,1.514,3.412,0.898,3.32c-3.199-0.473-6.404-0.959-9.6-1.43
				c-1.883-0.277-4.406,0.244-5.664-1.527c-1.322-1.861-0.514-4.811-0.684-6.924c-0.32-3.977-0.504-7.984-0.559-11.973
				l-1.365-24.633L391.533,96.323z"/>
			<path fill="#4A443B" d="M399.871,145.077c0,0,1.299,0.236,1.391,0.838c0.09,0.604-0.094,1.402-0.094,1.402l-17.07-0.797
				l0.135-1.605L399.871,145.077z"/>
			<linearGradient id="SVGID_3_" gradientUnits="userSpaceOnUse" x1="356.6577" y1="121.0093" x2="374.0601" y2="121.0093">
				<stop  offset="0.0032" style="stop-color:#D39C44"/>
				<stop  offset="0.1401" style="stop-color:#D9A550"/>
				<stop  offset="0.5004" style="stop-color:#EABA6D"/>
				<stop  offset="0.7957" style="stop-color:#F5C87F"/>
				<stop  offset="0.9875" style="stop-color:#F9CD85"/>
			</linearGradient>
			<path fill="url(#SVGID_3_)" d="M364.546,96.079c0,0,0.879,40.143,0.895,40.889c0.041,2.035-3.762,3.176-5.113,3.959
				c-0.93,0.541-1.961,0.793-2.654,1.68c-0.184,0.236-1.463,3.432-0.852,3.332c3.195-0.518,6.385-1.047,9.582-1.561
				c1.875-0.305,4.41,0.182,5.643-1.609c1.297-1.877,0.445-4.812,0.586-6.93c0.268-3.979,0.396-7.99,0.396-11.979l1.031-24.65
				L364.546,96.079z"/>
			<linearGradient id="SVGID_4_" gradientUnits="userSpaceOnUse" x1="356.1733" y1="93.686" x2="378.4272" y2="93.686">
				<stop  offset="0" style="stop-color:#A91F24"/>
				<stop  offset="1" style="stop-color:#E83527"/>
			</linearGradient>
			<path fill="url(#SVGID_4_)" d="M361.517,76.292c0,0-10.814,20.717-1.674,30.771c0,0,7.158,9.139,17.82-0.152l0.764-30.164
				L361.517,76.292z"/>
			<linearGradient id="SVGID_5_" gradientUnits="userSpaceOnUse" x1="375.8745" y1="94.2935" x2="398.126" y2="94.2935">
				<stop  offset="0" style="stop-color:#A91F24"/>
				<stop  offset="1" style="stop-color:#E83527"/>
			</linearGradient>
			<path fill="url(#SVGID_5_)" d="M392.781,76.901c0,0,10.816,20.715,1.676,30.768c0,0-7.154,9.141-17.82-0.15l-0.762-30.16
				L392.781,76.901z"/>
			<path fill="#EAB862" d="M381.214,33.997c0,2.018-1.977,3.654-4.42,3.654h-0.488c-2.447,0-4.432-1.637-4.432-3.654V27.7
				c0-2.02,1.984-3.656,4.432-3.656h0.488c2.443,0,4.42,1.637,4.42,3.656V33.997z"/>
			<linearGradient id="SVGID_6_" gradientUnits="userSpaceOnUse" x1="359.8433" y1="76.4448" x2="394.269" y2="76.4448">
				<stop  offset="0" style="stop-color:#A91F24"/>
				<stop  offset="1" style="stop-color:#E83527"/>
			</linearGradient>
			<path fill="url(#SVGID_6_)" d="M394.269,76.442c0,1.434-1.193,2.594-2.662,2.594h-29.102c-1.471,0-2.662-1.16-2.662-2.594l0,0
				c0-1.43,1.191-2.588,2.662-2.588h29.102C393.076,73.854,394.269,75.012,394.269,76.442L394.269,76.442z"/>
			<linearGradient id="SVGID_7_" gradientUnits="userSpaceOnUse" x1="373.5503" y1="94.7983" x2="382.0815" y2="94.7983">
				<stop  offset="0" style="stop-color:#A91F24"/>
				<stop  offset="1" style="stop-color:#E83527"/>
			</linearGradient>
			<path fill="url(#SVGID_7_)" d="M378.427,76.747h-1.223c-2.014,0-3.654,1.641-3.654,3.658v0.914c0,1.236,0.619,2.328,1.559,2.99
				c-0.473,6.824-1.324,20.77-0.643,23.057c0.916,3.047,2.738,5.484,2.738,5.484s3.051-2.133,3.66-5.484l-0.787-22.789
				c1.188-0.602,2.004-1.836,2.004-3.258v-0.914C382.082,78.387,380.445,76.747,378.427,76.747z"/>
			<path fill="#74C9C4" d="M371.015,34.098c0,0-1.016,5.279,3.045,6.295s7.717-0.408,8.121-3.25v-3.652c0,0,5.895,1.824,6.701,2.637
				l2.725,37.727l-29.361-0.166l2.266-36.748C364.511,36.94,370,34.098,371.015,34.098z"/>
			<path fill="#4A443B" d="M356.88,144.942c0,0-1.297,0.256-1.379,0.855c-0.088,0.605,0.113,1.4,0.113,1.4l17.061-1.027
				l-0.168-1.607L356.88,144.942z"/>
			<path fill="#8F9293" d="M366.851,9.549v7.986h-1.678l-0.078-7.84C365.095,9.696,366.314,7.821,366.851,9.549z"/>
			<path fill="#8F9293" d="M386.957,9.549v7.986h-1.678l-0.074-7.84C385.205,9.696,386.421,7.821,386.957,9.549z"/>
			<linearGradient id="SVGID_8_" gradientUnits="userSpaceOnUse" x1="364.6167" y1="16.814" x2="387.2632" y2="16.814">
				<stop  offset="0.0032" style="stop-color:#D39C44"/>
				<stop  offset="0.1401" style="stop-color:#D9A550"/>
				<stop  offset="0.5004" style="stop-color:#EABA6D"/>
				<stop  offset="0.7957" style="stop-color:#F5C87F"/>
				<stop  offset="0.9875" style="stop-color:#F9CD85"/>
			</linearGradient>
			<path fill="url(#SVGID_8_)" d="M387.263,15.311c0-0.975-0.613-1.818-1.5-2.232c-0.107-2.182-0.223-4.361-0.332-6.539
				c0,0-1.828-4.756-9.289-4.887c-6.273-0.111-8.777,3.879-9.418,5.156c0.002,0.248,0.002,0.494,0.002,0.74l-0.182-0.352l0.182,0.4
				c-0.008,0.67-0.031,1.334-0.107,1.998c0.027,0.195,0.045,0.383,0.051,0.547c0.018,1.031,0.033,2.064,0.057,3.1
				c-1.207,0.26-2.109,1.252-2.109,2.438c0,1.238,0.979,2.266,2.268,2.471c0.018,0.412,0.033,0.824,0.059,1.234l0.059,7.217
				l0.094-0.229c0.039,0.324,0.1,0.641,0.219,0.941c0.801,2.115,3.326,3.213,5.541,3.951c2.152,0.719,4.025,0.887,6.299,0.531
				c4.184-0.65,7.055-2.359,7.006-6.672c-0.027-2.559-0.102-5.121-0.203-7.682C386.74,17.004,387.263,16.215,387.263,15.311z"/>
			<path fill="#352215" d="M375.824,0.444c0,0,0.678,6.09-0.508,6.768c-1.184,0.676-7.531,0.789-8.889,2.709
				c-1.355,1.914-4.652,1.578-4.906-2.82c0,0,2.709,1.803,3.551,0.111C365.921,5.518,364.568-1.812,375.824,0.444z"/>
			<path fill="#352215" d="M376.166,0.444c0,0-0.342,6.432,0.846,7.105c1.184,0.678,7.092,0.113,8.443,2.031
				c1.355,1.918,4.656,1.58,4.912-2.818c0,0-2.709,1.803-3.557,0.113C385.964,5.18,387.421-1.812,376.166,0.444z"/>
			<path fill="#4A443B" d="M361.064,140.602c0,0-2.471,3.916-1.711,5.137h1.523l1.062-5.789L361.064,140.602z"/>
			<g>
				<g>
					<path fill="#FDFEFF" d="M371.482,21.532c0.565,0.752,0.725,1.672,0.363,2.057l-3.576,3.859
						c-0.358,0.389-1.106,0.094-1.668-0.665l-7.923-10.74c-0.567-0.774-0.735-1.715-0.375-2.101l3.592-3.802
						c0.367-0.376,1.121-0.058,1.683,0.71L371.482,21.532z"/>
					<g>
						<path fill-rule="evenodd" clip-rule="evenodd" fill="#8E8E8E" d="M364.175,15.582c-0.038,0.642,0.406,1.268,0.994,1.23
							c0.133,0.349,0.254,0.701,0.254,1.06c0.001,0.173-0.076,0.283-0.201,0.313c-0.232,0.058-0.388,0.199-0.461,0.481
							c-0.043,0.186-0.17,0.253-0.35,0.204c-0.575-0.16-1.078-0.535-1.471-1.183c-0.332-0.539-0.328-1.271,0.199-1.389
							c0.147-0.028,0.218-0.13,0.263-0.289c0.084-0.301,0.258-0.472,0.543-0.467C364.016,15.543,364.091,15.566,364.175,15.582z"/>
						<path fill-rule="evenodd" clip-rule="evenodd" fill="#8E8E8E" d="M363.165,16.041c-0.285-0.345-0.346-0.844-0.144-1.111
							C363.322,15.231,363.399,15.807,363.165,16.041z"/>
					</g>
				</g>
			</g>
			
				<linearGradient id="SVGID_9_" gradientUnits="userSpaceOnUse" x1="196.1104" y1="-21.9614" x2="218.8346" y2="-21.9614" gradientTransform="matrix(0.9952 0.0974 -0.0974 0.9952 147.9886 32.1482)">
				<stop  offset="0.0032" style="stop-color:#D39C44"/>
				<stop  offset="0.1401" style="stop-color:#D9A550"/>
				<stop  offset="0.5004" style="stop-color:#EABA6D"/>
				<stop  offset="0.7957" style="stop-color:#F5C87F"/>
				<stop  offset="0.9875" style="stop-color:#F9CD85"/>
			</linearGradient>
			<path fill="url(#SVGID_9_)" d="M367.97,19.788l-1.318-1.016c-1.203-0.92-3.15-0.387-4.357,1.186l-1.217,1.584
				c-0.531,0.693-0.828,1.473-0.895,2.205l-11.744,13.688c0,0-1.85,2.268-0.559,3.617c1.295,1.352,16.219,3.221,16.219,3.221
				s1.807-3.904,0.59-6.066l-9.057-1.293l8.064-9.436c0.049,0.049,0.096,0.096,0.146,0.145c0.033-0.039,0.066-0.074,0.1-0.109
				c0.875-0.059,1.816-0.533,2.549-1.348c0.004,0,0.012,0,0.016,0.002c-0.004-0.004-0.004-0.006-0.012-0.01
				c0.084-0.09,0.158-0.18,0.23-0.277l1.219-1.582C369.152,22.723,369.164,20.704,367.97,19.788z"/>
			<linearGradient id="SVGID_10_" gradientUnits="userSpaceOnUse" x1="383.0356" y1="58.8208" x2="409.1093" y2="58.8208">
				<stop  offset="0.0032" style="stop-color:#D39C44"/>
				<stop  offset="0.1401" style="stop-color:#D9A550"/>
				<stop  offset="0.5004" style="stop-color:#EABA6D"/>
				<stop  offset="0.7957" style="stop-color:#F5C87F"/>
				<stop  offset="0.9875" style="stop-color:#F9CD85"/>
			</linearGradient>
			<path fill="url(#SVGID_10_)" d="M394.423,74.928c2.236-3.551,7.334-18.219,6.818-20.129
				c-0.576-2.133-12.422-18.672-12.422-18.672c-2.453,4.484,0.158,8.924,0.158,8.924l6.305,10.053l-5.709,17.656
				c-0.191-0.061-0.375-0.121-0.564-0.182c-0.674,0.467-1.24,1.221-1.545,2.164l-0.615,1.896c-0.609,1.887,0.053,3.795,1.486,4.26
				l1.584,0.514c1.434,0.463,3.094-0.691,3.707-2.576l0.617-1.898c0.035-0.115,0.072-0.232,0.096-0.346c0.006,0,0.012,0,0.012,0
				c0-0.002-0.006-0.006-0.01-0.01C394.478,76.008,394.498,75.448,394.423,74.928z"/>
		</g>
		<g>
			<linearGradient id="SVGID_11_" gradientUnits="userSpaceOnUse" x1="44.1777" y1="160.1792" x2="91.2168" y2="160.1792">
				<stop  offset="0" style="stop-color:#038E8B"/>
				<stop  offset="0.5742" style="stop-color:#714492"/>
				<stop  offset="1" style="stop-color:#714492"/>
			</linearGradient>
			<path fill="url(#SVGID_11_)" d="M44.178,172.831c0,0,21.526-8.855,21.802-25.303c0,0,11.345,24.547,25.237,24.777L44.178,172.831
				z"/>
			<linearGradient id="SVGID_12_" gradientUnits="userSpaceOnUse" x1="0" y1="161.3706" x2="47.0254" y2="161.3706">
				<stop  offset="0" style="stop-color:#038E8B"/>
				<stop  offset="0.5742" style="stop-color:#714492"/>
				<stop  offset="1" style="stop-color:#714492"/>
			</linearGradient>
			<path fill="url(#SVGID_12_)" d="M0,174.024c0,0,21.518-8.855,21.795-25.307c0,0,11.346,24.545,25.23,24.777L0,174.024z"/>
		</g>
		<g>
			<linearGradient id="SVGID_13_" gradientUnits="userSpaceOnUse" x1="128.1865" y1="160.1792" x2="175.2261" y2="160.1792">
				<stop  offset="0" style="stop-color:#038E8B"/>
				<stop  offset="0.5742" style="stop-color:#714492"/>
				<stop  offset="1" style="stop-color:#714492"/>
			</linearGradient>
			<path fill="url(#SVGID_13_)" d="M128.187,172.831c0,0,21.526-8.855,21.802-25.303c0,0,11.345,24.547,25.238,24.777
				L128.187,172.831z"/>
			<linearGradient id="SVGID_14_" gradientUnits="userSpaceOnUse" x1="84.0088" y1="161.3706" x2="131.0342" y2="161.3706">
				<stop  offset="0" style="stop-color:#038E8B"/>
				<stop  offset="0.5742" style="stop-color:#714492"/>
				<stop  offset="1" style="stop-color:#714492"/>
			</linearGradient>
			<path fill="url(#SVGID_14_)" d="M84.009,174.024c0,0,21.518-8.855,21.795-25.307c0,0,11.346,24.545,25.23,24.777L84.009,174.024z
				"/>
		</g>
		<g>
			<linearGradient id="SVGID_15_" gradientUnits="userSpaceOnUse" x1="212.1948" y1="160.1792" x2="259.2339" y2="160.1792">
				<stop  offset="0" style="stop-color:#038E8B"/>
				<stop  offset="0.5742" style="stop-color:#714492"/>
				<stop  offset="1" style="stop-color:#714492"/>
			</linearGradient>
			<path fill="url(#SVGID_15_)" d="M212.195,172.831c0,0,21.527-8.855,21.803-25.303c0,0,11.344,24.547,25.236,24.777
				L212.195,172.831z"/>
			<linearGradient id="SVGID_16_" gradientUnits="userSpaceOnUse" x1="168.0171" y1="161.3706" x2="215.0425" y2="161.3706">
				<stop  offset="0" style="stop-color:#038E8B"/>
				<stop  offset="0.5742" style="stop-color:#714492"/>
				<stop  offset="1" style="stop-color:#714492"/>
			</linearGradient>
			<path fill="url(#SVGID_16_)" d="M168.017,174.024c0,0,21.518-8.855,21.795-25.307c0,0,11.346,24.545,25.23,24.777
				L168.017,174.024z"/>
		</g>
		<g>
			<linearGradient id="SVGID_17_" gradientUnits="userSpaceOnUse" x1="296.2046" y1="160.1792" x2="343.2437" y2="160.1792">
				<stop  offset="0" style="stop-color:#038E8B"/>
				<stop  offset="0.5742" style="stop-color:#714492"/>
				<stop  offset="1" style="stop-color:#714492"/>
			</linearGradient>
			<path fill="url(#SVGID_17_)" d="M296.205,172.831c0,0,21.525-8.855,21.801-25.303c0,0,11.346,24.547,25.238,24.777
				L296.205,172.831z"/>
			<linearGradient id="SVGID_18_" gradientUnits="userSpaceOnUse" x1="252.0269" y1="161.3706" x2="299.0522" y2="161.3706">
				<stop  offset="0" style="stop-color:#038E8B"/>
				<stop  offset="0.5742" style="stop-color:#714492"/>
				<stop  offset="1" style="stop-color:#714492"/>
			</linearGradient>
			<path fill="url(#SVGID_18_)" d="M252.027,174.024c0,0,21.518-8.855,21.795-25.307c0,0,11.346,24.545,25.23,24.777
				L252.027,174.024z"/>
		</g>
		<g>
			<linearGradient id="SVGID_19_" gradientUnits="userSpaceOnUse" x1="380.2124" y1="160.1792" x2="427.2524" y2="160.1792">
				<stop  offset="0" style="stop-color:#038E8B"/>
				<stop  offset="0.5742" style="stop-color:#714492"/>
				<stop  offset="1" style="stop-color:#714492"/>
			</linearGradient>
			<path fill="url(#SVGID_19_)" d="M380.212,172.831c0,0,21.527-8.855,21.803-25.303c0,0,11.345,24.547,25.237,24.777
				L380.212,172.831z"/>
			<linearGradient id="SVGID_20_" gradientUnits="userSpaceOnUse" x1="336.0347" y1="161.3706" x2="383.0601" y2="161.3706">
				<stop  offset="0" style="stop-color:#038E8B"/>
				<stop  offset="0.5742" style="stop-color:#714492"/>
				<stop  offset="1" style="stop-color:#714492"/>
			</linearGradient>
			<path fill="url(#SVGID_20_)" d="M336.035,174.024c0,0,21.518-8.855,21.795-25.307c0,0,11.346,24.545,25.23,24.777
				L336.035,174.024z"/>
		</g>
		<g>
			<linearGradient id="SVGID_21_" gradientUnits="userSpaceOnUse" x1="464.2212" y1="160.1792" x2="511.2612" y2="160.1792">
				<stop  offset="0" style="stop-color:#038E8B"/>
				<stop  offset="0.5742" style="stop-color:#714492"/>
				<stop  offset="1" style="stop-color:#714492"/>
			</linearGradient>
			<path fill="url(#SVGID_21_)" d="M464.221,172.831c0,0,21.528-8.855,21.804-25.303c0,0,11.344,24.547,25.236,24.777
				L464.221,172.831z"/>
			<linearGradient id="SVGID_22_" gradientUnits="userSpaceOnUse" x1="420.0435" y1="161.3706" x2="467.0688" y2="161.3706">
				<stop  offset="0" style="stop-color:#038E8B"/>
				<stop  offset="0.5742" style="stop-color:#714492"/>
				<stop  offset="1" style="stop-color:#714492"/>
			</linearGradient>
			<path fill="url(#SVGID_22_)" d="M420.043,174.024c0,0,21.518-8.855,21.795-25.307c0,0,11.346,24.545,25.23,24.777
				L420.043,174.024z"/>
		</g>
	</g>
</g>
</svg>
