<?xml version="1.0" encoding="utf-8"?>
<!-- Generator: Adobe Illustrator 18.0.0, SVG Export Plug-In . SVG Version: 6.00 Build 0)  -->
<!DOCTYPE svg PUBLIC "-//W3C//DTD SVG 1.1//EN" "http://www.w3.org/Graphics/SVG/1.1/DTD/svg11.dtd">
<svg version="1.1" id="Layer_1" xmlns="http://www.w3.org/2000/svg" xmlns:xlink="http://www.w3.org/1999/xlink" x="0px" y="0px"
	 viewBox="0 0 48 37.7" enable-background="new 0 0 48 37.7" xml:space="preserve">
<g id="Layer_1_1_">
	<path fill="#F7941E" d="M31.2,14.5c0.4-1.8,0.9-3.6,1.9-5.1s2.6-2.8,4.4-3c1.2-0.2,2.6,0.3,2.8,1.5c-0.4-2.5-2.1-4.7-4.2-6
		c-0.3-0.2-0.6-0.3-0.9-0.3c-2.2-0.3-4.5,1.1-6.5,2.1c-0.2,0.1-0.5-0.1-0.3-0.3c0.5-1,1.4-2,2.4-2.7c0.2-0.2,0.1-0.5-0.1-0.6
		c-1-0.1-2-0.1-3.1,0c-1.3,0.1-2.6,0.3-3.9,0.7C22,1.4,20.4,2.3,19,3.5c-0.5,0.4-0.9,0.8-1.2,1.3c-0.4,0.6-0.6,1.3-0.8,2
		c-0.4,1.6-0.6,3.3,0,4.8c1,2.6,4.1,3.8,5.7,6.1c0.5,0.7,0.9,1.6,1.8,2c0.5,0.2,1,0.2,1.5,0.2c1,0,2-0.1,2.8-0.6
		C30.4,18.5,30.8,16.3,31.2,14.5"/>
	<path fill="#939598" d="M0.8,36.9l-0.1-0.1c-0.9-0.9-0.9-2.4,0-3.4l17.2-18.1c1-1,2.6-1,3.5,0l1.8,1.9c1,1,0.9,2.6-0.2,3.5
		L4.1,37.1C3.2,37.9,1.7,37.8,0.8,36.9"/>
	<path fill="#D1D3D4" d="M38.2,35.3c1.2-0.8,2.5-1.5,3.9-1.8c1.4-0.3,2.9-0.1,4.1,0.8c0.7,0.6,1.3,1.6,0.7,2.4
		c1.2-1.6,1.4-3.7,1-5.6c-0.1-0.2-0.2-0.5-0.3-0.7c-1.1-1.4-3.1-1.9-4.7-2.4c-0.2,0-0.2-0.3,0-0.4c0.8-0.3,1.8-0.3,2.8-0.1
		c0.2,0,0.4-0.2,0.2-0.4c-0.5-0.6-1.1-1.2-1.7-1.7c-0.8-0.7-1.6-1.3-2.6-1.7c-1.3-0.6-2.7-1-4.1-1.1c-0.5,0-0.9,0-1.4,0.1
		c-0.5,0.1-1.1,0.4-1.6,0.6c-1.1,0.6-2.2,1.5-2.7,2.6c-0.9,2,0.2,4.3-0.2,6.5c-0.1,0.7-0.4,1.4-0.1,2.1c0.1,0.4,0.4,0.7,0.7,0.9
		c0.5,0.5,1.1,1,1.9,1.2C35.5,37,36.9,36.1,38.2,35.3"/>
	<path fill="#939598" d="M9.1,30.9l0-0.1c0-1,0.8-1.8,1.8-1.8l19.4-0.5c1.1,0,2,0.9,1.9,1.9l0,2c0,1.1-1,1.9-2,1.8l-19.3-1.4
		C9.9,32.7,9.1,31.9,9.1,30.9"/>
</g>
<g id="Layer_2">
</g>
</svg>
