<?xml version="1.0" encoding="utf-8"?>
<!-- Generator: Adobe Illustrator 16.0.0, SVG Export Plug-In . SVG Version: 6.00 Build 0)  -->
<!DOCTYPE svg PUBLIC "-//W3C//DTD SVG 1.1//EN" "http://www.w3.org/Graphics/SVG/1.1/DTD/svg11.dtd">
<svg version="1.1" id="Layer_1" xmlns="http://www.w3.org/2000/svg" xmlns:xlink="http://www.w3.org/1999/xlink" x="0px" y="0px"
	 width="373.278px" height="101.667px" viewBox="0 0 373.278 101.667" enable-background="new 0 0 373.278 101.667"
	 xml:space="preserve">
<g>
	<path fill="#A26E29" d="M373.261,94.342c0,4.045-7.427,7.325-16.588,7.325H16.587C7.427,101.667,0,98.387,0,94.342V11.926
		c0-4.045,7.427-7.325,16.587-7.325h340.085c9.161,0,16.588,3.279,16.588,7.325V94.342z"/>
	<path fill="#F9C675" d="M373.261,87.613c0,3.949-7.427,7.151-16.588,7.151H16.587C7.427,94.765,0,91.562,0,87.613V7.151
		C0,3.202,7.427,0,16.587,0h340.085c9.161,0,16.588,3.202,16.588,7.151V87.613z"/>
	<path fill="#F3AB1D" d="M373.278,87.789c0,3.676-7.426,6.655-16.586,6.655H16.606c-9.161,0-16.587-2.979-16.587-6.655V12.908
		c0-3.675,7.426-6.655,16.587-6.655h340.086c9.16,0,16.586,2.979,16.586,6.655V87.789z"/>
</g>
</svg>
