<?xml version="1.0" encoding="utf-8"?>
<!-- Generator: Adobe Illustrator 15.0.0, SVG Export Plug-In . SVG Version: 6.00 Build 0)  -->
<!DOCTYPE svg PUBLIC "-//W3C//DTD SVG 1.1//EN" "http://www.w3.org/Graphics/SVG/1.1/DTD/svg11.dtd">
<svg version="1.1" id="Layer_1" xmlns="http://www.w3.org/2000/svg" xmlns:xlink="http://www.w3.org/1999/xlink" x="0px" y="0px"
	 width="101.508px" height="276.063px" viewBox="0 0 101.508 276.063" enable-background="new 0 0 101.508 276.063"
	 xml:space="preserve">
<path fill="#E64E25" d="M-16.521-18.047c0,10.812-8.771,19.582-19.586,19.582h-202.375c-10.816,0-19.586-8.77-19.586-19.582
	v-261.135c0-10.815,8.769-19.585,19.586-19.585h202.377c10.814,0,19.585,8.77,19.585,19.585L-16.521-18.047L-16.521-18.047z"/>
<path fill="#FFFFFF" d="M26.819,139.656l60.958,2.15c0,0,12.465-80.604-28.869-79.88C19.743,62.614,25.568,98.252,26.819,139.656"/>
<g>
	<g>
		<defs>
			<path id="SVGID_1_" d="M65.244,186.671l2.687,46.174c0.121,7.475,0.489,14.992,1.111,22.441c0.328,3.963-1.18,9.492,1.307,12.973
				c2.368,3.316,7.098,2.328,10.624,2.836c6.005,0.869,12.008,1.764,18.013,2.635c1.148,0.17-1.351-5.783-1.7-6.217
				c-1.326-1.643-3.269-2.082-5.026-3.064c-2.554-1.432-9.724-3.453-9.706-7.271c0.006-1.391,0.423-76.666,0.423-76.666
				L65.244,186.671z"/>
		</defs>
		<clipPath id="SVGID_2_">
			<use xlink:href="#SVGID_1_"  overflow="visible"/>
		</clipPath>
		
			<linearGradient id="SVGID_3_" gradientUnits="userSpaceOnUse" x1="-305.2456" y1="90.5845" x2="-304.2456" y2="90.5845" gradientTransform="matrix(33.8115 -0.0895 0.0895 33.8115 10378.0684 -2862.8657)">
			<stop  offset="0" style="stop-color:#D29C43"/>
			<stop  offset="0.0032" style="stop-color:#D29C43"/>
			<stop  offset="0.1539" style="stop-color:#DFAC5A"/>
			<stop  offset="0.3313" style="stop-color:#E9B96D"/>
			<stop  offset="0.5205" style="stop-color:#F2C47B"/>
			<stop  offset="0.7279" style="stop-color:#F7CB84"/>
			<stop  offset="0.9875" style="stop-color:#F9CD87"/>
			<stop  offset="1" style="stop-color:#F9CD87"/>
		</linearGradient>
		<polygon clip-path="url(#SVGID_2_)" fill="url(#SVGID_3_)" points="64.997,180.511 100.133,180.419 100.381,273.898 
			65.245,273.992 		"/>
	</g>
</g>
<path fill="#4A443B" d="M98.841,271.867c0,0,2.443,0.436,2.618,1.564c0.173,1.129-0.174,2.625-0.174,2.625l-32.003-1.402
	l0.247-3.014L98.841,271.867z"/>
<g>
	<g>
		<defs>
			<path id="SVGID_4_" d="M34.263,256.832c0.09,3.818-7.04,5.973-9.566,7.453c-1.74,1.02-3.672,1.496-4.967,3.16
				c-0.341,0.441-2.729,6.438-1.584,6.252c5.989-0.988,11.974-1.996,17.961-2.98c3.517-0.574,8.263,0.322,10.567-3.039
				c2.42-3.525,0.807-9.025,1.062-12.994c0.479-7.461,0.703-14.984,0.685-22.459l1.81-46.213l-17.847-5.826
				C32.383,180.185,34.23,255.441,34.263,256.832"/>
		</defs>
		<clipPath id="SVGID_5_">
			<use xlink:href="#SVGID_4_"  overflow="visible"/>
		</clipPath>
		
			<linearGradient id="SVGID_6_" gradientUnits="userSpaceOnUse" x1="-305.7954" y1="90.895" x2="-304.7954" y2="90.895" gradientTransform="matrix(32.6221 -0.0864 0.0864 32.6221 9985.54 -2764.5132)">
			<stop  offset="0" style="stop-color:#D29C43"/>
			<stop  offset="0.0032" style="stop-color:#D29C43"/>
			<stop  offset="0.1453" style="stop-color:#DAA651"/>
			<stop  offset="0.5029" style="stop-color:#EABA6E"/>
			<stop  offset="0.7964" style="stop-color:#F5C880"/>
			<stop  offset="0.9875" style="stop-color:#F9CD87"/>
			<stop  offset="1" style="stop-color:#F9CD87"/>
		</linearGradient>
		<polygon clip-path="url(#SVGID_5_)" fill="url(#SVGID_6_)" points="16.751,180.187 50.229,180.099 50.478,273.882 17,273.972 		
			"/>
	</g>
</g>
<g>
	<g>
		<defs>
			<path id="SVGID_7_" d="M23.618,200.8c0,0,13.468,17.1,33.408-0.373l1.278-56.543l-31.699-0.771
				C26.606,143.111,6.435,182,23.618,200.8"/>
		</defs>
		<clipPath id="SVGID_8_">
			<use xlink:href="#SVGID_7_"  overflow="visible"/>
		</clipPath>
		
			<linearGradient id="SVGID_9_" gradientUnits="userSpaceOnUse" x1="-302.3877" y1="89.0942" x2="-301.3877" y2="89.0942" gradientTransform="matrix(41.7148 -0.1105 0.1105 41.7148 12620.8721 -3569.4302)">
			<stop  offset="0" style="stop-color:#A91F25"/>
			<stop  offset="1" style="stop-color:#E83729"/>
		</linearGradient>
		<polygon clip-path="url(#SVGID_8_)" fill="url(#SVGID_9_)" points="6.236,143.113 58.305,142.974 58.504,217.9 6.435,218.037 		
			"/>
	</g>
</g>
<g>
	<g>
		<defs>
			<path id="SVGID_10_" d="M53.524,145.037l1.577,56.537c20.034,17.367,33.41,0.197,33.41,0.197
				c17.083-18.893-3.293-57.674-3.293-57.674L53.524,145.037z"/>
		</defs>
		<clipPath id="SVGID_11_">
			<use xlink:href="#SVGID_10_"  overflow="visible"/>
		</clipPath>
		
			<linearGradient id="SVGID_12_" gradientUnits="userSpaceOnUse" x1="-302.3877" y1="89.0933" x2="-301.3877" y2="89.0933" gradientTransform="matrix(41.7148 -0.1105 0.1105 41.7148 12657.8096 -3568.3677)">
			<stop  offset="0" style="stop-color:#A91F25"/>
			<stop  offset="1" style="stop-color:#E83729"/>
		</linearGradient>
		<polygon clip-path="url(#SVGID_11_)" fill="url(#SVGID_12_)" points="53.326,144.099 105.594,143.96 105.793,218.941 
			53.524,219.08 		"/>
	</g>
</g>
<path fill="#EAB862" d="M63.329,63.723c0.009,3.785-3.697,6.864-8.279,6.877l-0.922,0.001c-4.58,0.012-8.305-3.047-8.313-6.832
	l-0.031-11.803c-0.011-3.784,3.697-6.861,8.278-6.874l0.921-0.002c4.582-0.013,8.306,3.047,8.314,6.831L63.329,63.723z"/>
<g>
	<g>
		<defs>
			<path id="SVGID_13_" d="M83.001,138.392l-54.562,0.146c-2.756,0.006-4.981,2.185-4.976,4.868c0.009,2.68,2.246,4.846,5.002,4.84
				l54.561-0.145c2.753-0.008,4.981-2.186,4.975-4.867c-0.007-2.678-2.236-4.842-4.982-4.842
				C83.013,138.392,83.007,138.392,83.001,138.392"/>
		</defs>
		<clipPath id="SVGID_14_">
			<use xlink:href="#SVGID_13_"  overflow="visible"/>
		</clipPath>
		
			<linearGradient id="SVGID_15_" gradientUnits="userSpaceOnUse" x1="-298.0659" y1="86.5552" x2="-297.0654" y2="86.5552" gradientTransform="matrix(64.5352 -0.1709 0.1709 64.5352 19244.3594 -5493.3765)">
			<stop  offset="0" style="stop-color:#A91F25"/>
			<stop  offset="1" style="stop-color:#E83729"/>
		</linearGradient>
		<polygon clip-path="url(#SVGID_14_)" fill="url(#SVGID_15_)" points="23.433,138.392 88.008,138.222 88.034,148.251 
			23.459,148.423 		"/>
	</g>
</g>
<g>
	<g>
		<defs>
			<path id="SVGID_16_" d="M58.306,143.882l-2.286,0.006c-3.784,0.012-6.844,3.088-6.832,6.873l0.003,1.711
				c0.006,2.32,1.166,4.363,2.937,5.602c-0.853,12.791-2.393,38.941-1.095,43.225c1.729,5.709,5.168,10.27,5.168,10.27
				s5.7-4.016,6.826-10.299l-1.588-42.719c2.226-1.139,3.751-3.449,3.743-6.119l-0.005-1.711c-0.01-3.781-3.076-6.836-6.854-6.836
				C58.317,143.882,58.312,143.882,58.306,143.882"/>
		</defs>
		<clipPath id="SVGID_17_">
			<use xlink:href="#SVGID_16_"  overflow="visible"/>
		</clipPath>
		
			<linearGradient id="SVGID_18_" gradientUnits="userSpaceOnUse" x1="-322.0562" y1="100.0107" x2="-321.0562" y2="100.0107" gradientTransform="matrix(15.9902 -0.0423 0.0423 15.9902 5194.7979 -1435.0566)">
			<stop  offset="0" style="stop-color:#A91F25"/>
			<stop  offset="1" style="stop-color:#E83729"/>
		</linearGradient>
		<polygon clip-path="url(#SVGID_17_)" fill="url(#SVGID_18_)" points="48.996,143.884 65.189,143.841 65.368,211.566 
			49.176,211.609 		"/>
	</g>
</g>
<path fill="#FFFFFF" d="M44.195,63.965c0,0-1.876,9.904,5.742,11.788c7.621,1.883,14.468-0.801,15.216-6.133l-0.02-6.852
	c0,0,11.05,3.397,12.578,4.915l5.289,70.711l-55.043-0.17l4.067-68.896C32.026,69.327,42.293,63.97,44.195,63.965"/>
<path fill="#4A443B" d="M18.256,271.828c0,0-2.435,0.484-2.585,1.613c-0.153,1.133,0.22,2.623,0.22,2.623l31.972-2.012l-0.308-3.012
	L18.256,271.828z"/>
<path fill="#8F9293" d="M36.269,17.968l0.04,14.972l-3.14,0.008l-0.184-14.703C32.986,18.245,35.261,14.733,36.269,17.968"/>
<path fill="#8F9293" d="M73.962,17.867l0.041,14.974l-3.144,0.007l-0.181-14.701C70.68,18.146,72.954,14.632,73.962,17.867"/>
<g>
	<g>
		<defs>
			<path id="SVGID_19_" d="M36.017,12.832c0.009,0.463,0.014,0.922,0.011,1.385l-0.341-0.654l0.34,0.75
				c-0.003,1.249-0.053,2.497-0.187,3.742c0.046,0.366,0.086,0.719,0.093,1.025c0.039,1.933,0.079,3.871,0.128,5.809
				c-2.269,0.497-3.955,2.359-3.948,4.585c0.006,2.32,1.849,4.24,4.267,4.617c0.034,0.771,0.074,1.541,0.115,2.313l0.146,13.525
				l0.172-0.424c0.076,0.61,0.2,1.202,0.415,1.762c1.514,3.957,6.254,6.007,10.408,7.382c4.04,1.339,7.556,1.64,11.812,0.966
				c7.836-1.243,13.207-4.462,13.104-12.545c-0.061-4.796-0.22-9.599-0.421-14.399c1.463-0.832,2.438-2.315,2.434-4.006
				c-0.004-1.83-1.151-3.407-2.82-4.181c-0.208-4.087-0.434-8.173-0.647-12.253c0,0-3.451-8.907-17.443-9.116
				c-0.136-0.002-0.271-0.003-0.404-0.003C41.783,3.112,37.198,10.457,36.017,12.832"/>
		</defs>
		<clipPath id="SVGID_20_">
			<use xlink:href="#SVGID_19_"  overflow="visible"/>
		</clipPath>
		
			<linearGradient id="SVGID_21_" gradientUnits="userSpaceOnUse" x1="-302.1753" y1="88.8652" x2="-301.1753" y2="88.8652" gradientTransform="matrix(42.4512 -0.1124 0.1124 42.4512 12849.8242 -3774.6274)">
			<stop  offset="0" style="stop-color:#D29C43"/>
			<stop  offset="0.0032" style="stop-color:#D29C43"/>
			<stop  offset="0.1453" style="stop-color:#DAA651"/>
			<stop  offset="0.5029" style="stop-color:#EABA6E"/>
			<stop  offset="0.7964" style="stop-color:#F5C880"/>
			<stop  offset="0.9875" style="stop-color:#F9CD87"/>
			<stop  offset="1" style="stop-color:#F9CD87"/>
		</linearGradient>
		<polygon clip-path="url(#SVGID_20_)" fill="url(#SVGID_21_)" points="31.954,3.113 74.567,3 74.719,60.289 32.105,60.402 		"/>
	</g>
</g>
<path fill="#352215" d="M53.049,0.854c0,0,1.301,11.414-0.917,12.688c-2.219,1.274-14.119,1.52-16.647,5.119
	c-2.531,3.6-8.721,2.983-9.218-5.261c0,0,5.086,3.37,6.664,0.193C34.51,10.417,31.935-3.318,53.049,0.854"/>
<path fill="#352215" d="M53.685,0.852c0,0-0.604,12.055,1.621,13.316c2.227,1.263,13.297,0.177,15.844,3.764
	c2.549,3.588,8.735,2.938,9.189-5.31c0,0-5.069,3.397-6.663,0.23C72.079,9.684,74.777-3.433,53.685,0.852"/>
<path fill="#4A443B" d="M93.637,263.833c0,0,4.761,7.268,3.37,9.572l-2.857,0.047l-2.174-10.816L93.637,263.833z"/>
<path fill="#4A443B" d="M26.075,263.671c0,0-4.618,7.355-3.185,9.635l2.854-0.008l1.971-10.854L26.075,263.671z"/>
<path fill="#FDFEFF" d="M45.007,40.402c1.054,1.408,1.362,3.132,0.687,3.857l-6.682,7.259c-0.67,0.736-2.069,0.185-3.124-1.23
	L20.989,30.186c-1.066-1.451-1.386-3.213-0.714-3.937l6.718-7.156c0.676-0.713,2.088-0.12,3.151,1.322L45.007,40.402z"/>
<path fill="#9EA0A3" d="M31.289,29.283c-0.071,1.207,0.767,2.377,1.866,2.304c0.252,0.654,0.479,1.315,0.48,1.985
	c0.002,0.324-0.14,0.531-0.373,0.59c-0.436,0.11-0.729,0.378-0.859,0.906c-0.085,0.35-0.324,0.475-0.658,0.385
	c-1.08-0.294-2.022-0.995-2.765-2.211c-0.615-1.009-0.62-2.38,0.374-2.599c0.267-0.06,0.402-0.252,0.485-0.549
	c0.156-0.566,0.484-0.889,1.021-0.882C30.989,29.212,31.126,29.253,31.289,29.283"/>
<path fill="#9EA0A3" d="M29.396,30.15c-0.535-0.642-0.649-1.578-0.271-2.078C29.69,28.629,29.839,29.712,29.396,30.15"/>
<g>
	<g>
		<defs>
			<path id="SVGID_22_" d="M27.786,37.5l-2.272,2.974c-0.995,1.303-1.548,2.763-1.669,4.138L1.896,70.332
				c0,0-3.465,4.26-1.027,6.786c2.437,2.525,30.413,5.952,30.413,5.952s3.373-7.325,1.08-11.369l-16.981-2.382l15.065-17.731
				c0.091,0.091,0.188,0.18,0.276,0.271c0.063-0.07,0.13-0.139,0.189-0.207c1.645-0.115,3.4-1.006,4.771-2.536
				c0.01,0,0.019,0.002,0.027,0.002c-0.005-0.005-0.01-0.01-0.018-0.016c0.15-0.165,0.293-0.339,0.431-0.522l2.271-2.972
				c2.261-2.957,2.272-6.743,0.026-8.457l-2.483-1.897c-0.742-0.566-1.638-0.836-2.586-0.836
				C31.431,34.417,29.297,35.522,27.786,37.5"/>
		</defs>
		<clipPath id="SVGID_23_">
			<use xlink:href="#SVGID_22_"  overflow="visible"/>
		</clipPath>
		
			<linearGradient id="SVGID_24_" gradientUnits="userSpaceOnUse" x1="-301.4219" y1="89.9995" x2="-300.4214" y2="89.9995" gradientTransform="matrix(42.4117 4.0375 -4.0375 42.4117 13143.0273 -2543.564)">
			<stop  offset="0" style="stop-color:#D29C43"/>
			<stop  offset="0.0032" style="stop-color:#D29C43"/>
			<stop  offset="0.1453" style="stop-color:#DAA651"/>
			<stop  offset="0.5029" style="stop-color:#EABA6E"/>
			<stop  offset="0.7964" style="stop-color:#F5C880"/>
			<stop  offset="0.9875" style="stop-color:#F9CD87"/>
			<stop  offset="1" style="stop-color:#F9CD87"/>
		</linearGradient>
		<polygon clip-path="url(#SVGID_23_)" fill="url(#SVGID_24_)" points="-1.189,30.434 45.257,34.854 40.287,87.055 -6.158,82.634 		
			"/>
	</g>
</g>
<g>
	<g>
		<defs>
			<path id="SVGID_25_" d="M77.93,84.409l11.867,18.814l-10.612,33.128c-0.354-0.112-0.709-0.223-1.064-0.338
				c-1.249,0.877-2.312,2.295-2.877,4.062l-1.146,3.561c-1.138,3.541,0.119,7.113,2.808,7.977l2.977,0.957
				c2.688,0.863,5.791-1.305,6.929-4.848l1.145-3.564c0.07-0.213,0.132-0.432,0.183-0.646c0.008,0,0.016,0,0.023,0.002
				c-0.009-0.006-0.013-0.012-0.019-0.02c0.255-1.074,0.289-2.129,0.139-3.1c4.186-6.672,13.659-34.188,12.688-37.77
				c-1.084-3.995-23.38-34.941-23.38-34.941C73.014,76.098,77.93,84.409,77.93,84.409"/>
		</defs>
		<clipPath id="SVGID_26_">
			<use xlink:href="#SVGID_25_"  overflow="visible"/>
		</clipPath>
		
			<linearGradient id="SVGID_27_" gradientUnits="userSpaceOnUse" x1="-300.5967" y1="87.9819" x2="-299.5967" y2="87.9819" gradientTransform="matrix(48.874 -0.1294 0.1294 48.874 14746.8311 -4228.3433)">
			<stop  offset="0" style="stop-color:#D29C43"/>
			<stop  offset="0.0032" style="stop-color:#D29C43"/>
			<stop  offset="0.1453" style="stop-color:#DAA651"/>
			<stop  offset="0.5029" style="stop-color:#EABA6E"/>
			<stop  offset="0.7964" style="stop-color:#F5C880"/>
			<stop  offset="0.9875" style="stop-color:#F9CD87"/>
			<stop  offset="1" style="stop-color:#F9CD87"/>
		</linearGradient>
		<polygon clip-path="url(#SVGID_26_)" fill="url(#SVGID_27_)" points="72.732,67.683 101.939,67.605 102.167,153.431 
			72.96,153.509 		"/>
	</g>
</g>
<path fill="#F2AB1F" d="M-8.048,132.498c1.193,0.341,2.24,0.896,3.138,1.665c0.896,0.769,1.622,1.688,2.178,2.754
	c0.556,1.239,0.833,2.478,0.833,3.716c0,1.152-0.225,2.242-0.673,3.266c-0.448,1.025-1.057,1.922-1.825,2.691
	c-0.77,0.768-1.665,1.377-2.689,1.824c-1.022,0.449-2.113,0.674-3.268,0.674h-4.163v3.906h-3.073v-3.906h-4.292v-0.066
	c-1.152,0-2.24-0.213-3.267-0.639c-1.023-0.428-1.922-1.025-2.689-1.793c-0.769-0.77-1.366-1.666-1.793-2.691
	c-0.428-1.023-0.641-2.113-0.641-3.266h3.074c0,1.494,0.521,2.754,1.568,3.779c1.047,1.023,2.295,1.537,3.745,1.537v0.062h4.292
	h3.074h4.163c1.495,0,2.755-0.521,3.779-1.568c1.024-1.045,1.538-2.316,1.538-3.811c0-1.238-0.374-2.326-1.122-3.268
	c-0.747-0.939-1.676-1.579-2.785-1.921l-0.32-0.064l-1.09-0.256l-12.872-3.011c-0.216-0.042-0.396-0.085-0.546-0.128
	c-0.15-0.042-0.331-0.084-0.544-0.128c-2.35-0.727-4.058-2.199-5.125-4.42c-0.555-1.195-0.831-2.411-0.831-3.65
	c0-1.152,0.213-2.242,0.64-3.266c0.428-1.025,1.025-1.922,1.793-2.69c0.77-0.769,1.666-1.377,2.69-1.826
	c1.025-0.448,2.113-0.673,3.266-0.673h4.292v-3.906h3.074v3.906h4.163c1.153,0,2.244,0.225,3.268,0.673
	c1.024,0.449,1.921,1.058,2.689,1.826c0.77,0.769,1.377,1.665,1.825,2.69c0.448,1.023,0.673,2.113,0.673,3.266h-3.075h-0.062
	c0-0.727-0.142-1.419-0.417-2.081c-0.278-0.662-0.652-1.239-1.121-1.729c-0.47-0.49-1.024-0.875-1.665-1.152
	c-0.642-0.278-1.345-0.417-2.114-0.417h-4.163h-3.073h-4.293c-0.726,0-1.419,0.139-2.08,0.417c-0.663,0.277-1.229,0.662-1.697,1.152
	c-0.47,0.49-0.843,1.057-1.121,1.696c-0.277,0.642-0.415,1.347-0.415,2.114c0,1.195,0.341,2.253,1.024,3.171
	c0.682,0.918,1.558,1.547,2.625,1.89l0.896,0.191l0.768,0.191l13.132,3.14C-8.539,132.37-8.305,132.414-8.048,132.498"/>
<path fill="#F2AB1F" d="M138.848,195.925c0.837,0.24,1.569,0.631,2.198,1.168c0.628,0.537,1.137,1.182,1.523,1.93
	c0.39,0.867,0.583,1.734,0.583,2.602c0,0.807-0.155,1.57-0.47,2.287c-0.313,0.719-0.741,1.348-1.277,1.885
	c-0.537,0.539-1.168,0.965-1.885,1.279c-0.719,0.312-1.48,0.471-2.29,0.471h-2.914v2.736h-2.153v-2.736h-3.004v-0.045
	c-0.81,0-1.571-0.148-2.289-0.447c-0.72-0.301-1.347-0.719-1.886-1.258c-0.536-0.537-0.956-1.166-1.256-1.885
	c-0.299-0.717-0.447-1.48-0.447-2.287h2.154c0,1.047,0.364,1.93,1.099,2.646c0.732,0.719,1.605,1.076,2.625,1.076v0.045h3.004h2.154
	h2.913c1.049,0,1.931-0.365,2.648-1.098c0.717-0.734,1.076-1.625,1.076-2.672c0-0.865-0.263-1.627-0.785-2.287
	c-0.522-0.658-1.174-1.105-1.951-1.346l-0.225-0.045l-0.765-0.18l-9.016-2.107c-0.15-0.029-0.275-0.061-0.381-0.09
	s-0.232-0.061-0.382-0.092c-1.646-0.508-2.841-1.539-3.589-3.094c-0.39-0.838-0.583-1.688-0.583-2.559
	c0-0.809,0.148-1.568,0.447-2.287c0.301-0.715,0.72-1.346,1.257-1.883c0.539-0.541,1.166-0.967,1.885-1.279
	c0.718-0.314,1.479-0.471,2.289-0.471h3.004v-2.736h2.154v2.736h2.914c0.809,0,1.57,0.154,2.289,0.471
	c0.718,0.312,1.348,0.738,1.885,1.279c0.537,0.537,0.964,1.168,1.277,1.883c0.313,0.719,0.471,1.479,0.471,2.287h-2.152h-0.045
	c0-0.508-0.098-0.992-0.292-1.457c-0.195-0.463-0.456-0.865-0.784-1.211c-0.329-0.344-0.719-0.611-1.168-0.809
	c-0.447-0.193-0.941-0.291-1.48-0.291h-2.913h-2.154h-3.004c-0.511,0-0.996,0.098-1.459,0.291c-0.464,0.195-0.86,0.465-1.189,0.809
	c-0.328,0.346-0.591,0.738-0.785,1.188c-0.193,0.451-0.289,0.943-0.289,1.48c0,0.838,0.237,1.58,0.716,2.221
	c0.479,0.645,1.093,1.086,1.84,1.324l0.628,0.135l0.54,0.133l9.193,2.201C138.503,195.837,138.668,195.869,138.848,195.925"/>
<path fill="#F2AB1F" d="M-8.577,249.671c0.521,0.15,0.98,0.393,1.373,0.73c0.394,0.336,0.712,0.736,0.954,1.203
	c0.243,0.543,0.364,1.084,0.364,1.627c0,0.506-0.098,0.98-0.296,1.43c-0.194,0.449-0.461,0.842-0.798,1.18
	c-0.337,0.336-0.729,0.602-1.178,0.797c-0.448,0.199-0.925,0.297-1.43,0.297h-1.822v1.709h-1.346v-1.709h-1.879v-0.027
	c-0.506,0-0.981-0.096-1.432-0.281c-0.448-0.188-0.841-0.447-1.176-0.785c-0.338-0.336-0.6-0.729-0.785-1.178
	c-0.188-0.449-0.28-0.926-0.28-1.432h1.346c0,0.656,0.229,1.207,0.687,1.654c0.458,0.449,1.005,0.674,1.643,0.674v0.027h1.878h1.346
	h1.822c0.654,0,1.205-0.227,1.652-0.686c0.449-0.457,0.675-1.016,0.675-1.67c0-0.543-0.164-1.018-0.491-1.43
	c-0.327-0.41-0.733-0.689-1.221-0.842l-0.14-0.027l-0.477-0.111l-5.637-1.318c-0.094-0.018-0.172-0.037-0.236-0.055
	c-0.066-0.02-0.146-0.037-0.239-0.057c-1.027-0.316-1.775-0.963-2.243-1.936c-0.243-0.523-0.363-1.055-0.363-1.598
	c0-0.508,0.093-0.982,0.28-1.432s0.447-0.842,0.785-1.178c0.335-0.336,0.728-0.602,1.176-0.799c0.449-0.197,0.927-0.295,1.433-0.295
	h1.878v-1.711h1.346v1.711h1.822c0.505,0,0.98,0.098,1.43,0.295c0.448,0.197,0.841,0.463,1.178,0.799s0.604,0.729,0.798,1.178
	c0.198,0.449,0.297,0.924,0.297,1.432H-7.23h-0.027c0-0.318-0.062-0.621-0.185-0.912c-0.12-0.289-0.284-0.541-0.49-0.758
	c-0.205-0.215-0.447-0.383-0.729-0.504c-0.281-0.123-0.589-0.182-0.925-0.182h-1.822h-1.346h-1.878
	c-0.318,0-0.622,0.059-0.912,0.182c-0.29,0.121-0.538,0.289-0.744,0.504c-0.204,0.217-0.368,0.465-0.489,0.744
	c-0.122,0.279-0.183,0.588-0.183,0.926c0,0.521,0.147,0.984,0.447,1.387c0.299,0.404,0.684,0.678,1.149,0.826l0.393,0.086
	l0.339,0.084l5.745,1.375C-8.792,249.617-8.69,249.634-8.577,249.671"/>
<path fill="#F2AB1F" d="M139.896,64.833c0.521,0.149,0.979,0.393,1.374,0.729c0.393,0.336,0.71,0.738,0.952,1.206
	c0.243,0.541,0.363,1.085,0.363,1.624c0,0.505-0.098,0.983-0.293,1.431c-0.195,0.449-0.462,0.842-0.798,1.177
	c-0.337,0.337-0.73,0.604-1.18,0.8c-0.447,0.197-0.926,0.294-1.43,0.294h-1.823v1.712h-1.346v-1.712h-1.877v-0.028
	c-0.505,0-0.981-0.093-1.43-0.28c-0.45-0.187-0.843-0.449-1.18-0.786c-0.336-0.335-0.599-0.728-0.784-1.177
	c-0.188-0.448-0.279-0.926-0.279-1.431h1.346c0,0.656,0.228,1.208,0.686,1.656c0.458,0.448,1.007,0.673,1.643,0.673v0.029h1.877
	h1.346h1.823c0.654,0,1.205-0.229,1.654-0.688c0.448-0.458,0.673-1.014,0.673-1.67c0-0.539-0.164-1.016-0.491-1.429
	c-0.327-0.411-0.734-0.691-1.221-0.841l-0.14-0.028l-0.477-0.112l-5.637-1.317c-0.093-0.018-0.173-0.039-0.236-0.056
	c-0.066-0.02-0.146-0.038-0.239-0.056c-1.026-0.318-1.774-0.963-2.243-1.935c-0.243-0.524-0.362-1.055-0.362-1.598
	c0-0.505,0.092-0.982,0.279-1.431c0.187-0.447,0.448-0.841,0.784-1.176c0.337-0.337,0.729-0.602,1.18-0.8
	c0.447-0.196,0.925-0.294,1.43-0.294h1.877v-1.71h1.346v1.71h1.823c0.504,0,0.981,0.098,1.43,0.294
	c0.448,0.198,0.842,0.463,1.18,0.8c0.336,0.335,0.603,0.729,0.798,1.176c0.195,0.449,0.293,0.926,0.293,1.431h-1.344h-0.028
	c0-0.317-0.062-0.621-0.182-0.912c-0.122-0.289-0.285-0.541-0.491-0.756c-0.208-0.215-0.449-0.383-0.729-0.505
	c-0.281-0.122-0.59-0.182-0.926-0.182h-1.823h-1.346h-1.877c-0.318,0-0.622,0.06-0.912,0.182s-0.537,0.29-0.743,0.505
	c-0.205,0.215-0.369,0.463-0.49,0.743c-0.122,0.28-0.182,0.589-0.182,0.925c0,0.523,0.149,0.985,0.447,1.387
	c0.3,0.403,0.683,0.677,1.149,0.827l0.392,0.084l0.339,0.085l5.745,1.375C139.68,64.778,139.782,64.796,139.896,64.833"/>
<path fill="#F2AB1F" d="M-18.136,18.917c0.523,0.149,0.98,0.393,1.373,0.729c0.394,0.336,0.711,0.738,0.954,1.205
	c0.241,0.542,0.364,1.086,0.364,1.626c0,0.505-0.099,0.982-0.295,1.43c-0.195,0.449-0.463,0.842-0.798,1.177
	c-0.338,0.338-0.729,0.604-1.179,0.8c-0.448,0.197-0.927,0.294-1.431,0.294h-1.821v1.712h-1.348v-1.712h-1.878v-0.028
	c-0.504,0-0.98-0.093-1.429-0.28c-0.45-0.187-0.843-0.448-1.18-0.786c-0.336-0.335-0.598-0.728-0.783-1.177
	c-0.188-0.448-0.28-0.925-0.28-1.43h1.345c0,0.655,0.229,1.207,0.688,1.655c0.458,0.448,1.004,0.673,1.64,0.673v0.029h1.878h1.347
	h1.822c0.654,0,1.205-0.229,1.654-0.688c0.449-0.458,0.673-1.014,0.673-1.669c0-0.54-0.164-1.017-0.491-1.43
	c-0.327-0.411-0.733-0.691-1.219-0.841l-0.141-0.028l-0.478-0.112l-5.637-1.317c-0.092-0.018-0.172-0.039-0.237-0.056
	c-0.063-0.019-0.145-0.038-0.238-0.056c-1.026-0.318-1.773-0.963-2.242-1.936c-0.243-0.523-0.363-1.054-0.363-1.597
	c0-0.505,0.093-0.982,0.28-1.431c0.187-0.447,0.447-0.841,0.784-1.176c0.336-0.337,0.729-0.602,1.179-0.801
	c0.447-0.195,0.925-0.294,1.429-0.294h1.878V9.694h1.347v1.709h1.822c0.504,0,0.981,0.099,1.431,0.294
	c0.448,0.199,0.841,0.464,1.179,0.801c0.335,0.335,0.603,0.729,0.798,1.176c0.196,0.449,0.295,0.926,0.295,1.431h-1.346h-0.028
	c0-0.317-0.062-0.621-0.182-0.912c-0.122-0.289-0.285-0.541-0.491-0.756c-0.207-0.215-0.449-0.383-0.729-0.505
	s-0.59-0.182-0.926-0.182h-1.822h-1.347h-1.878c-0.317,0-0.621,0.06-0.911,0.182s-0.537,0.29-0.742,0.505
	c-0.206,0.215-0.37,0.463-0.491,0.743s-0.183,0.589-0.183,0.925c0,0.523,0.15,0.985,0.448,1.387c0.3,0.403,0.684,0.677,1.148,0.827
	l0.395,0.085l0.336,0.084l5.748,1.375C-18.352,18.863-18.249,18.882-18.136,18.917"/>
<polygon fill="#792A7B" points="163.339,40.615 183.203,20.23 195.227,27.548 209.34,9.776 206.204,8.208 214.044,5.593 213,13.433 
	211.432,11.343 196.795,32.252 183.727,25.456 166.477,43.753 "/>
<polygon fill="#792A7B" points="53.423,77.818 50.61,72.191 60.106,72.191 57.292,78.521 62.919,105.953 55.887,117.558 
	49.907,106.656 "/>
</svg>
