<?xml version="1.0" encoding="utf-8"?>
<!-- Generator: Adobe Illustrator 18.0.0, SVG Export Plug-In . SVG Version: 6.00 Build 0)  -->
<!DOCTYPE svg PUBLIC "-//W3C//DTD SVG 1.1//EN" "http://www.w3.org/Graphics/SVG/1.1/DTD/svg11.dtd">
<svg version="1.1" id="Layer_1" xmlns="http://www.w3.org/2000/svg" xmlns:xlink="http://www.w3.org/1999/xlink" x="0px" y="0px"
	 viewBox="70.8 17.3 100 273.9" enable-background="new 70.8 17.3 100 273.9" xml:space="preserve">
<g id="Layer_1_1_">
	<g>
		<g>
			<g>
				<defs>
					<polyline id="SVGID_1_" points="966.9,461.1 -33.1,461.1 -33.1,-134.2 966.9,-134.2 					"/>
				</defs>
				<clipPath id="SVGID_2_">
					<use xlink:href="#SVGID_1_"  overflow="visible"/>
				</clipPath>
			</g>
		</g>
		<g>
			<g>
				<defs>
					<polyline id="SVGID_3_" points="966.9,461.1 -33.1,461.1 -33.1,-134.2 966.9,-134.2 					"/>
				</defs>
				<clipPath id="SVGID_4_">
					<use xlink:href="#SVGID_3_"  overflow="visible"/>
				</clipPath>
			</g>
		</g>
		<g>
			<g>
				<defs>
					<polyline id="SVGID_5_" points="966.9,461.1 -33.1,461.1 -33.1,-134.2 966.9,-134.2 					"/>
				</defs>
				<clipPath id="SVGID_6_">
					<use xlink:href="#SVGID_5_"  overflow="visible"/>
				</clipPath>
			</g>
		</g>
		<g>
			<g>
				<defs>
					<polyline id="SVGID_7_" points="966.9,461.1 -33.1,461.1 -33.1,-134.2 966.9,-134.2 					"/>
				</defs>
				<clipPath id="SVGID_8_">
					<use xlink:href="#SVGID_7_"  overflow="visible"/>
				</clipPath>
			</g>
		</g>
		<g>
			<g>
				<defs>
					<polyline id="SVGID_9_" points="966.9,461.1 -33.1,461.1 -33.1,-134.2 966.9,-134.2 					"/>
				</defs>
				<clipPath id="SVGID_10_">
					<use xlink:href="#SVGID_9_"  overflow="visible"/>
				</clipPath>
			</g>
		</g>
		<g>
			<g>
				<defs>
					<polyline id="SVGID_11_" points="966.9,461.1 -33.1,461.1 -33.1,-134.2 966.9,-134.2 					"/>
				</defs>
				<clipPath id="SVGID_12_">
					<use xlink:href="#SVGID_11_"  overflow="visible"/>
				</clipPath>
			</g>
		</g>
		<g>
			<g>
				<defs>
					<polyline id="SVGID_13_" points="966.9,461.1 -33.1,461.1 -33.1,-134.2 966.9,-134.2 					"/>
				</defs>
				<clipPath id="SVGID_14_">
					<use xlink:href="#SVGID_13_"  overflow="visible"/>
				</clipPath>
			</g>
		</g>
		<g>
			<g>
				<defs>
					<polyline id="SVGID_15_" points="966.9,461.1 -33.1,461.1 -33.1,-134.2 966.9,-134.2 					"/>
				</defs>
				<clipPath id="SVGID_16_">
					<use xlink:href="#SVGID_15_"  overflow="visible"/>
				</clipPath>
			</g>
		</g>
		<g>
			<g>
				<defs>
					<polyline id="SVGID_17_" points="966.9,461.1 -33.1,461.1 -33.1,-134.2 966.9,-134.2 					"/>
				</defs>
				<clipPath id="SVGID_18_">
					<use xlink:href="#SVGID_17_"  overflow="visible"/>
				</clipPath>
			</g>
		</g>
		<g>
			<g>
				<defs>
					<polyline id="SVGID_19_" points="966.9,461.1 -33.1,461.1 -33.1,-134.2 966.9,-134.2 					"/>
				</defs>
				<clipPath id="SVGID_20_">
					<use xlink:href="#SVGID_19_"  overflow="visible"/>
				</clipPath>
			</g>
		</g>
		<g>
			<g>
				<defs>
					<polyline id="SVGID_21_" points="966.9,461.1 -33.1,461.1 -33.1,-134.2 966.9,-134.2 					"/>
				</defs>
				<clipPath id="SVGID_22_">
					<use xlink:href="#SVGID_21_"  overflow="visible"/>
				</clipPath>
			</g>
		</g>
		<g>
			<g>
				<defs>
					<polyline id="SVGID_23_" points="966.9,461.1 -33.1,461.1 -33.1,-134.2 966.9,-134.2 					"/>
				</defs>
				<clipPath id="SVGID_24_">
					<use xlink:href="#SVGID_23_"  overflow="visible"/>
				</clipPath>
			</g>
		</g>
		<g>
			<g>
				<defs>
					<polyline id="SVGID_25_" points="966.9,461.1 -33.1,461.1 -33.1,-134.2 966.9,-134.2 					"/>
				</defs>
				<clipPath id="SVGID_26_">
					<use xlink:href="#SVGID_25_"  overflow="visible"/>
				</clipPath>
			</g>
		</g>
		<g>
			<g>
				<defs>
					<polyline id="SVGID_27_" points="966.9,461.1 -33.1,461.1 -33.1,-134.2 966.9,-134.2 					"/>
				</defs>
				<clipPath id="SVGID_28_">
					<use xlink:href="#SVGID_27_"  overflow="visible"/>
				</clipPath>
			</g>
		</g>
		<g>
			<g>
				<defs>
					<polyline id="SVGID_29_" points="966.9,461.1 -33.1,461.1 -33.1,-134.2 966.9,-134.2 					"/>
				</defs>
				<clipPath id="SVGID_30_">
					<use xlink:href="#SVGID_29_"  overflow="visible"/>
				</clipPath>
			</g>
		</g>
		<g>
			<g>
				<defs>
					<polyline id="SVGID_31_" points="966.9,461.1 -33.1,461.1 -33.1,-134.2 966.9,-134.2 					"/>
				</defs>
				<clipPath id="SVGID_32_">
					<use xlink:href="#SVGID_31_"  overflow="visible"/>
				</clipPath>
			</g>
		</g>
		<g>
			<g>
				<defs>
					<polyline id="SVGID_33_" points="966.9,461.1 -33.1,461.1 -33.1,-134.2 966.9,-134.2 					"/>
				</defs>
				<clipPath id="SVGID_34_">
					<use xlink:href="#SVGID_33_"  overflow="visible"/>
				</clipPath>
			</g>
		</g>
		<g>
			<g>
				<defs>
					<polyline id="SVGID_35_" points="966.9,461.1 -33.1,461.1 -33.1,-134.2 966.9,-134.2 					"/>
				</defs>
				<clipPath id="SVGID_36_">
					<use xlink:href="#SVGID_35_"  overflow="visible"/>
				</clipPath>
			</g>
		</g>
		<g>
			<g>
				<defs>
					<polyline id="SVGID_37_" points="966.9,461.1 -33.1,461.1 -33.1,-134.2 966.9,-134.2 					"/>
				</defs>
				<clipPath id="SVGID_38_">
					<use xlink:href="#SVGID_37_"  overflow="visible"/>
				</clipPath>
			</g>
		</g>
		<g>
			<g>
				<defs>
					<polyline id="SVGID_39_" points="966.9,461.1 -33.1,461.1 -33.1,-134.2 966.9,-134.2 					"/>
				</defs>
				<clipPath id="SVGID_40_">
					<use xlink:href="#SVGID_39_"  overflow="visible"/>
				</clipPath>
			</g>
		</g>
		<g>
			<g>
				<defs>
					<polyline id="SVGID_41_" points="966.9,461.1 -33.1,461.1 -33.1,-134.2 966.9,-134.2 					"/>
				</defs>
				<clipPath id="SVGID_42_">
					<use xlink:href="#SVGID_41_"  overflow="visible"/>
				</clipPath>
			</g>
		</g>
		<g>
			<g>
				<defs>
					<polyline id="SVGID_43_" points="966.9,461.1 -33.1,461.1 -33.1,-134.2 966.9,-134.2 					"/>
				</defs>
				<clipPath id="SVGID_44_">
					<use xlink:href="#SVGID_43_"  overflow="visible"/>
				</clipPath>
			</g>
		</g>
		<g>
			<g>
				<defs>
					<polyline id="SVGID_45_" points="966.9,461.1 -33.1,461.1 -33.1,-134.2 966.9,-134.2 					"/>
				</defs>
				<clipPath id="SVGID_46_">
					<use xlink:href="#SVGID_45_"  overflow="visible"/>
				</clipPath>
			</g>
		</g>
		<g>
			<g>
				<defs>
					<polyline id="SVGID_47_" points="966.9,461.1 -33.1,461.1 -33.1,-134.2 966.9,-134.2 					"/>
				</defs>
				<clipPath id="SVGID_48_">
					<use xlink:href="#SVGID_47_"  overflow="visible"/>
				</clipPath>
			</g>
		</g>
		<g>
			<g>
				<defs>
					<polyline id="SVGID_49_" points="966.9,461.1 -33.1,461.1 -33.1,-134.2 966.9,-134.2 					"/>
				</defs>
				<clipPath id="SVGID_50_">
					<use xlink:href="#SVGID_49_"  overflow="visible"/>
				</clipPath>
			</g>
		</g>
		<g>
			<g>
				<defs>
					<polyline id="SVGID_51_" points="966.9,461.1 -33.1,461.1 -33.1,-134.2 966.9,-134.2 					"/>
				</defs>
				<clipPath id="SVGID_52_">
					<use xlink:href="#SVGID_51_"  overflow="visible"/>
				</clipPath>
			</g>
		</g>
		<g>
			<g>
				<defs>
					<polyline id="SVGID_53_" points="966.9,461.1 -33.1,461.1 -33.1,-134.2 966.9,-134.2 					"/>
				</defs>
				<clipPath id="SVGID_54_">
					<use xlink:href="#SVGID_53_"  overflow="visible"/>
				</clipPath>
			</g>
		</g>
		<g>
			<g>
				<defs>
					<polyline id="SVGID_55_" points="966.9,461.1 -33.1,461.1 -33.1,-134.2 966.9,-134.2 					"/>
				</defs>
				<clipPath id="SVGID_56_">
					<use xlink:href="#SVGID_55_"  overflow="visible"/>
				</clipPath>
			</g>
		</g>
		<g>
			<g>
				<defs>
					<polyline id="SVGID_57_" points="966.9,461.1 -33.1,461.1 -33.1,-134.2 966.9,-134.2 					"/>
				</defs>
				<clipPath id="SVGID_58_">
					<use xlink:href="#SVGID_57_"  overflow="visible"/>
				</clipPath>
			</g>
		</g>
		<g>
			<g>
				<defs>
					<polyline id="SVGID_59_" points="966.9,461.1 -33.1,461.1 -33.1,-134.2 966.9,-134.2 					"/>
				</defs>
				<clipPath id="SVGID_60_">
					<use xlink:href="#SVGID_59_"  overflow="visible"/>
				</clipPath>
			</g>
		</g>
		<g>
			<g>
				<defs>
					<polyline id="SVGID_61_" points="966.9,461.1 -33.1,461.1 -33.1,-134.2 966.9,-134.2 					"/>
				</defs>
				<clipPath id="SVGID_62_">
					<use xlink:href="#SVGID_61_"  overflow="visible"/>
				</clipPath>
			</g>
		</g>
		<g>
			<g>
				<defs>
					<polyline id="SVGID_63_" points="966.9,461.1 -33.1,461.1 -33.1,-134.2 966.9,-134.2 					"/>
				</defs>
				<clipPath id="SVGID_64_">
					<use xlink:href="#SVGID_63_"  overflow="visible"/>
				</clipPath>
			</g>
		</g>
		<g>
			<g>
				<defs>
					<polyline id="SVGID_65_" points="966.9,461.1 -33.1,461.1 -33.1,-134.2 966.9,-134.2 					"/>
				</defs>
				<clipPath id="SVGID_66_">
					<use xlink:href="#SVGID_65_"  overflow="visible"/>
				</clipPath>
			</g>
		</g>
		<g>
			<g>
				<defs>
					<polyline id="SVGID_67_" points="966.9,461.1 -33.1,461.1 -33.1,-134.2 966.9,-134.2 					"/>
				</defs>
				<clipPath id="SVGID_68_">
					<use xlink:href="#SVGID_67_"  overflow="visible"/>
				</clipPath>
			</g>
		</g>
		<g>
			<g>
				<defs>
					<polyline id="SVGID_69_" points="966.9,461.1 -33.1,461.1 -33.1,-134.2 966.9,-134.2 					"/>
				</defs>
				<clipPath id="SVGID_70_">
					<use xlink:href="#SVGID_69_"  overflow="visible"/>
				</clipPath>
			</g>
		</g>
		<g>
			<g>
				<defs>
					<polyline id="SVGID_71_" points="966.9,461.1 -33.1,461.1 -33.1,-134.2 966.9,-134.2 					"/>
				</defs>
				<clipPath id="SVGID_72_">
					<use xlink:href="#SVGID_71_"  overflow="visible"/>
				</clipPath>
			</g>
		</g>
		<g>
			<g>
				<defs>
					<polyline id="SVGID_73_" points="966.9,461.1 -33.1,461.1 -33.1,-134.2 966.9,-134.2 					"/>
				</defs>
				<clipPath id="SVGID_74_">
					<use xlink:href="#SVGID_73_"  overflow="visible"/>
				</clipPath>
			</g>
		</g>
		<g>
			<g>
				<defs>
					<polyline id="SVGID_75_" points="966.9,461.1 -33.1,461.1 -33.1,-134.2 966.9,-134.2 					"/>
				</defs>
				<clipPath id="SVGID_76_">
					<use xlink:href="#SVGID_75_"  overflow="visible"/>
				</clipPath>
			</g>
		</g>
		<g>
			<g>
				<defs>
					<polyline id="SVGID_77_" points="966.9,461.1 -33.1,461.1 -33.1,-134.2 966.9,-134.2 					"/>
				</defs>
				<clipPath id="SVGID_78_">
					<use xlink:href="#SVGID_77_"  overflow="visible"/>
				</clipPath>
			</g>
		</g>
		<g>
			<g>
				<defs>
					<polyline id="SVGID_79_" points="966.9,461.1 -33.1,461.1 -33.1,-134.2 966.9,-134.2 					"/>
				</defs>
				<clipPath id="SVGID_80_">
					<use xlink:href="#SVGID_79_"  overflow="visible"/>
				</clipPath>
			</g>
		</g>
		<g>
			<g>
				<defs>
					<polyline id="SVGID_81_" points="966.9,461.1 -33.1,461.1 -33.1,-134.2 966.9,-134.2 					"/>
				</defs>
				<clipPath id="SVGID_82_">
					<use xlink:href="#SVGID_81_"  overflow="visible"/>
				</clipPath>
			</g>
		</g>
		<g>
			<g>
				<defs>
					<polyline id="SVGID_83_" points="966.9,461.1 -33.1,461.1 -33.1,-134.2 966.9,-134.2 					"/>
				</defs>
				<clipPath id="SVGID_84_">
					<use xlink:href="#SVGID_83_"  overflow="visible"/>
				</clipPath>
			</g>
		</g>
		<g>
			<g>
				<defs>
					<polyline id="SVGID_85_" points="966.9,461.1 -33.1,461.1 -33.1,-134.2 966.9,-134.2 					"/>
				</defs>
				<clipPath id="SVGID_86_">
					<use xlink:href="#SVGID_85_"  overflow="visible"/>
				</clipPath>
			</g>
		</g>
		<g>
			<g>
				<defs>
					<polyline id="SVGID_87_" points="966.9,461.1 -33.1,461.1 -33.1,-134.2 966.9,-134.2 					"/>
				</defs>
				<clipPath id="SVGID_88_">
					<use xlink:href="#SVGID_87_"  overflow="visible"/>
				</clipPath>
			</g>
		</g>
		<g>
			<g>
				<defs>
					<polyline id="SVGID_89_" points="966.9,461.1 -33.1,461.1 -33.1,-134.2 966.9,-134.2 					"/>
				</defs>
				<clipPath id="SVGID_90_">
					<use xlink:href="#SVGID_89_"  overflow="visible"/>
				</clipPath>
			</g>
		</g>
		<g>
			<g>
				<defs>
					<polyline id="SVGID_91_" points="966.9,461.1 -33.1,461.1 -33.1,-134.2 966.9,-134.2 					"/>
				</defs>
				<clipPath id="SVGID_92_">
					<use xlink:href="#SVGID_91_"  overflow="visible"/>
				</clipPath>
			</g>
		</g>
		<g>
			<g>
				<defs>
					<polyline id="SVGID_93_" points="966.9,461.1 -33.1,461.1 -33.1,-134.2 966.9,-134.2 					"/>
				</defs>
				<clipPath id="SVGID_94_">
					<use xlink:href="#SVGID_93_"  overflow="visible"/>
				</clipPath>
			</g>
		</g>
		<g>
			<g>
				<defs>
					<polyline id="SVGID_95_" points="966.9,461.1 -33.1,461.1 -33.1,-134.2 966.9,-134.2 					"/>
				</defs>
				<clipPath id="SVGID_96_">
					<use xlink:href="#SVGID_95_"  overflow="visible"/>
				</clipPath>
			</g>
		</g>
		<g>
			<g>
				<defs>
					<polyline id="SVGID_97_" points="966.9,461.1 -33.1,461.1 -33.1,-134.2 966.9,-134.2 					"/>
				</defs>
				<clipPath id="SVGID_98_">
					<use xlink:href="#SVGID_97_"  overflow="visible"/>
				</clipPath>
			</g>
		</g>
		<g>
			<g>
				<defs>
					<polyline id="SVGID_99_" points="966.9,461.1 -33.1,461.1 -33.1,-134.2 966.9,-134.2 					"/>
				</defs>
				<clipPath id="SVGID_100_">
					<use xlink:href="#SVGID_99_"  overflow="visible"/>
				</clipPath>
			</g>
		</g>
		<g>
			<g>
				<defs>
					<polyline id="SVGID_101_" points="966.9,461.1 -33.1,461.1 -33.1,-134.2 966.9,-134.2 					"/>
				</defs>
				<clipPath id="SVGID_102_">
					<use xlink:href="#SVGID_101_"  overflow="visible"/>
				</clipPath>
			</g>
		</g>
		<g>
			<g>
				<defs>
					<polyline id="SVGID_103_" points="966.9,461.1 -33.1,461.1 -33.1,-134.2 966.9,-134.2 					"/>
				</defs>
				<clipPath id="SVGID_104_">
					<use xlink:href="#SVGID_103_"  overflow="visible"/>
				</clipPath>
			</g>
		</g>
		<g>
			<g>
				<defs>
					<polyline id="SVGID_105_" points="966.9,461.1 -33.1,461.1 -33.1,-134.2 966.9,-134.2 					"/>
				</defs>
				<clipPath id="SVGID_106_">
					<use xlink:href="#SVGID_105_"  overflow="visible"/>
				</clipPath>
			</g>
		</g>
		<g>
			<g>
				<defs>
					<polyline id="SVGID_107_" points="966.9,461.1 -33.1,461.1 -33.1,-134.2 966.9,-134.2 					"/>
				</defs>
				<clipPath id="SVGID_108_">
					<use xlink:href="#SVGID_107_"  overflow="visible"/>
				</clipPath>
			</g>
		</g>
		<g>
			<g>
				<defs>
					<polyline id="SVGID_109_" points="966.9,461.1 -33.1,461.1 -33.1,-134.2 966.9,-134.2 					"/>
				</defs>
				<clipPath id="SVGID_110_">
					<use xlink:href="#SVGID_109_"  overflow="visible"/>
				</clipPath>
			</g>
		</g>
		<g>
			<g>
				<defs>
					<polyline id="SVGID_111_" points="966.9,461.1 -33.1,461.1 -33.1,-134.2 966.9,-134.2 					"/>
				</defs>
				<clipPath id="SVGID_112_">
					<use xlink:href="#SVGID_111_"  overflow="visible"/>
				</clipPath>
			</g>
		</g>
		<g>
			<g>
				<defs>
					<polyline id="SVGID_113_" points="966.9,461.1 -33.1,461.1 -33.1,-134.2 966.9,-134.2 					"/>
				</defs>
				<clipPath id="SVGID_114_">
					<use xlink:href="#SVGID_113_"  overflow="visible"/>
				</clipPath>
			</g>
		</g>
		<g>
			<g>
				<defs>
					<polyline id="SVGID_115_" points="966.9,461.1 -33.1,461.1 -33.1,-134.2 966.9,-134.2 					"/>
				</defs>
				<clipPath id="SVGID_116_">
					<use xlink:href="#SVGID_115_"  overflow="visible"/>
				</clipPath>
			</g>
		</g>
		<g>
			<g>
				<defs>
					<polyline id="SVGID_117_" points="966.9,461.1 -33.1,461.1 -33.1,-134.2 966.9,-134.2 					"/>
				</defs>
				<clipPath id="SVGID_118_">
					<use xlink:href="#SVGID_117_"  overflow="visible"/>
				</clipPath>
			</g>
		</g>
		<g>
			<g>
				<defs>
					<polyline id="SVGID_119_" points="966.9,461.1 -33.1,461.1 -33.1,-134.2 966.9,-134.2 					"/>
				</defs>
				<clipPath id="SVGID_120_">
					<use xlink:href="#SVGID_119_"  overflow="visible"/>
				</clipPath>
			</g>
		</g>
		<g>
			<g>
				<defs>
					<polyline id="SVGID_121_" points="966.9,461.1 -33.1,461.1 -33.1,-134.2 966.9,-134.2 					"/>
				</defs>
				<clipPath id="SVGID_122_">
					<use xlink:href="#SVGID_121_"  overflow="visible"/>
				</clipPath>
			</g>
		</g>
		<g>
			<g>
				<defs>
					<polyline id="SVGID_123_" points="966.9,461.1 -33.1,461.1 -33.1,-134.2 966.9,-134.2 					"/>
				</defs>
				<clipPath id="SVGID_124_">
					<use xlink:href="#SVGID_123_"  overflow="visible"/>
				</clipPath>
			</g>
		</g>
		<g>
			<g>
				<defs>
					<polyline id="SVGID_125_" points="966.9,461.1 -33.1,461.1 -33.1,-134.2 966.9,-134.2 					"/>
				</defs>
				<clipPath id="SVGID_126_">
					<use xlink:href="#SVGID_125_"  overflow="visible"/>
				</clipPath>
			</g>
		</g>
		<g>
			<g>
				<defs>
					<polyline id="SVGID_127_" points="966.9,461.1 -33.1,461.1 -33.1,-134.2 966.9,-134.2 					"/>
				</defs>
				<clipPath id="SVGID_128_">
					<use xlink:href="#SVGID_127_"  overflow="visible"/>
				</clipPath>
			</g>
		</g>
		<g>
			<g>
				<defs>
					<polyline id="SVGID_129_" points="966.9,461.1 -33.1,461.1 -33.1,-134.2 966.9,-134.2 					"/>
				</defs>
				<clipPath id="SVGID_130_">
					<use xlink:href="#SVGID_129_"  overflow="visible"/>
				</clipPath>
			</g>
		</g>
		<g>
			<g>
				<defs>
					<polyline id="SVGID_131_" points="966.9,461.1 -33.1,461.1 -33.1,-134.2 966.9,-134.2 					"/>
				</defs>
				<clipPath id="SVGID_132_">
					<use xlink:href="#SVGID_131_"  overflow="visible"/>
				</clipPath>
			</g>
		</g>
		<g>
			<g>
				<defs>
					<polyline id="SVGID_133_" points="966.9,461.1 -33.1,461.1 -33.1,-134.2 966.9,-134.2 					"/>
				</defs>
				<clipPath id="SVGID_134_">
					<use xlink:href="#SVGID_133_"  overflow="visible"/>
				</clipPath>
			</g>
		</g>
		<g>
			<g>
				<defs>
					<polyline id="SVGID_135_" points="966.9,461.1 -33.1,461.1 -33.1,-134.2 966.9,-134.2 					"/>
				</defs>
				<clipPath id="SVGID_136_">
					<use xlink:href="#SVGID_135_"  overflow="visible"/>
				</clipPath>
			</g>
		</g>
		<g>
			<g>
				<defs>
					<polyline id="SVGID_137_" points="966.9,461.1 -33.1,461.1 -33.1,-134.2 966.9,-134.2 					"/>
				</defs>
				<clipPath id="SVGID_138_">
					<use xlink:href="#SVGID_137_"  overflow="visible"/>
				</clipPath>
			</g>
		</g>
		<g>
			<g>
				<defs>
					<polyline id="SVGID_139_" points="966.9,461.1 -33.1,461.1 -33.1,-134.2 966.9,-134.2 					"/>
				</defs>
				<clipPath id="SVGID_140_">
					<use xlink:href="#SVGID_139_"  overflow="visible"/>
				</clipPath>
			</g>
		</g>
		<g>
			<g>
				<defs>
					<polyline id="SVGID_141_" points="966.9,461.1 -33.1,461.1 -33.1,-134.2 966.9,-134.2 					"/>
				</defs>
				<clipPath id="SVGID_142_">
					<use xlink:href="#SVGID_141_"  overflow="visible"/>
				</clipPath>
			</g>
		</g>
		<g>
			<g>
				<defs>
					<polyline id="SVGID_143_" points="966.9,461.1 -33.1,461.1 -33.1,-134.2 966.9,-134.2 					"/>
				</defs>
				<clipPath id="SVGID_144_">
					<use xlink:href="#SVGID_143_"  overflow="visible"/>
				</clipPath>
			</g>
		</g>
		<g>
			<g>
				<defs>
					<polyline id="SVGID_145_" points="966.9,461.1 -33.1,461.1 -33.1,-134.2 966.9,-134.2 					"/>
				</defs>
				<clipPath id="SVGID_146_">
					<use xlink:href="#SVGID_145_"  overflow="visible"/>
				</clipPath>
			</g>
		</g>
		<g>
			<g>
				<defs>
					<polyline id="SVGID_147_" points="966.9,461.1 -33.1,461.1 -33.1,-134.2 966.9,-134.2 					"/>
				</defs>
				<clipPath id="SVGID_148_">
					<use xlink:href="#SVGID_147_"  overflow="visible"/>
				</clipPath>
			</g>
		</g>
		<g>
			<g>
				<defs>
					<polyline id="SVGID_149_" points="966.9,461.1 -33.1,461.1 -33.1,-134.2 966.9,-134.2 					"/>
				</defs>
				<clipPath id="SVGID_150_">
					<use xlink:href="#SVGID_149_"  overflow="visible"/>
				</clipPath>
			</g>
		</g>
		<g>
			<g>
				<defs>
					<polyline id="SVGID_151_" points="966.9,461.1 -33.1,461.1 -33.1,-134.2 966.9,-134.2 					"/>
				</defs>
				<clipPath id="SVGID_152_">
					<use xlink:href="#SVGID_151_"  overflow="visible"/>
				</clipPath>
			</g>
		</g>
		<g>
			<g>
				<defs>
					<polyline id="SVGID_153_" points="966.9,461.1 -33.1,461.1 -33.1,-134.2 966.9,-134.2 					"/>
				</defs>
				<clipPath id="SVGID_154_">
					<use xlink:href="#SVGID_153_"  overflow="visible"/>
				</clipPath>
			</g>
		</g>
		<g>
			<g>
				<defs>
					<polyline id="SVGID_155_" points="966.9,461.1 -33.1,461.1 -33.1,-134.2 966.9,-134.2 					"/>
				</defs>
				<clipPath id="SVGID_156_">
					<use xlink:href="#SVGID_155_"  overflow="visible"/>
				</clipPath>
			</g>
		</g>
		<g>
			<g>
				<defs>
					<polyline id="SVGID_157_" points="966.9,461.1 -33.1,461.1 -33.1,-134.2 966.9,-134.2 					"/>
				</defs>
				<clipPath id="SVGID_158_">
					<use xlink:href="#SVGID_157_"  overflow="visible"/>
				</clipPath>
			</g>
		</g>
		<g>
			<g>
				<defs>
					<polyline id="SVGID_159_" points="966.9,461.1 -33.1,461.1 -33.1,-134.2 966.9,-134.2 					"/>
				</defs>
				<clipPath id="SVGID_160_">
					<use xlink:href="#SVGID_159_"  overflow="visible"/>
				</clipPath>
			</g>
		</g>
		<g>
			<g>
				<defs>
					<polyline id="SVGID_161_" points="966.9,461.1 -33.1,461.1 -33.1,-134.2 966.9,-134.2 					"/>
				</defs>
				<clipPath id="SVGID_162_">
					<use xlink:href="#SVGID_161_"  overflow="visible"/>
				</clipPath>
			</g>
		</g>
		<g>
			<g>
				<defs>
					<polyline id="SVGID_163_" points="966.9,461.1 -33.1,461.1 -33.1,-134.2 966.9,-134.2 					"/>
				</defs>
				<clipPath id="SVGID_164_">
					<use xlink:href="#SVGID_163_"  overflow="visible"/>
				</clipPath>
			</g>
		</g>
		<g>
			<g>
				<defs>
					<polyline id="SVGID_165_" points="966.9,461.1 -33.1,461.1 -33.1,-134.2 966.9,-134.2 					"/>
				</defs>
				<clipPath id="SVGID_166_">
					<use xlink:href="#SVGID_165_"  overflow="visible"/>
				</clipPath>
			</g>
		</g>
		<g>
			<g>
				<defs>
					<polyline id="SVGID_167_" points="966.9,461.1 -33.1,461.1 -33.1,-134.2 966.9,-134.2 					"/>
				</defs>
				<clipPath id="SVGID_168_">
					<use xlink:href="#SVGID_167_"  overflow="visible"/>
				</clipPath>
			</g>
		</g>
		<g>
			<g>
				<defs>
					<polyline id="SVGID_169_" points="966.9,461.1 -33.1,461.1 -33.1,-134.2 966.9,-134.2 					"/>
				</defs>
				<clipPath id="SVGID_170_">
					<use xlink:href="#SVGID_169_"  overflow="visible"/>
				</clipPath>
			</g>
		</g>
		<g>
			<g>
				<defs>
					<polyline id="SVGID_171_" points="966.9,461.1 -33.1,461.1 -33.1,-134.2 966.9,-134.2 					"/>
				</defs>
				<clipPath id="SVGID_172_">
					<use xlink:href="#SVGID_171_"  overflow="visible"/>
				</clipPath>
			</g>
		</g>
		<g>
			<g>
				<defs>
					<polyline id="SVGID_173_" points="966.9,461.1 -33.1,461.1 -33.1,-134.2 966.9,-134.2 					"/>
				</defs>
				<clipPath id="SVGID_174_">
					<use xlink:href="#SVGID_173_"  overflow="visible"/>
				</clipPath>
			</g>
		</g>
		<g>
			<g>
				<defs>
					<polyline id="SVGID_175_" points="966.9,461.1 -33.1,461.1 -33.1,-134.2 966.9,-134.2 					"/>
				</defs>
				<clipPath id="SVGID_176_">
					<use xlink:href="#SVGID_175_"  overflow="visible"/>
				</clipPath>
			</g>
		</g>
		<g>
			<g>
				<defs>
					<polyline id="SVGID_177_" points="966.9,461.1 -33.1,461.1 -33.1,-134.2 966.9,-134.2 					"/>
				</defs>
				<clipPath id="SVGID_178_">
					<use xlink:href="#SVGID_177_"  overflow="visible"/>
				</clipPath>
			</g>
		</g>
		<g>
			<g>
				<defs>
					<polyline id="SVGID_179_" points="966.9,461.1 -33.1,461.1 -33.1,-134.2 966.9,-134.2 					"/>
				</defs>
				<clipPath id="SVGID_180_">
					<use xlink:href="#SVGID_179_"  overflow="visible"/>
				</clipPath>
			</g>
		</g>
		<g>
			<g>
				<defs>
					<polyline id="SVGID_181_" points="966.9,461.1 -33.1,461.1 -33.1,-134.2 966.9,-134.2 					"/>
				</defs>
				<clipPath id="SVGID_182_">
					<use xlink:href="#SVGID_181_"  overflow="visible"/>
				</clipPath>
			</g>
		</g>
		<g>
			<g>
				<defs>
					<polyline id="SVGID_183_" points="966.9,461.1 -33.1,461.1 -33.1,-134.2 966.9,-134.2 					"/>
				</defs>
				<clipPath id="SVGID_184_">
					<use xlink:href="#SVGID_183_"  overflow="visible"/>
				</clipPath>
			</g>
		</g>
		<g>
			<g>
				<defs>
					<polyline id="SVGID_185_" points="966.9,461.1 -33.1,461.1 -33.1,-134.2 966.9,-134.2 					"/>
				</defs>
				<clipPath id="SVGID_186_">
					<use xlink:href="#SVGID_185_"  overflow="visible"/>
				</clipPath>
			</g>
		</g>
		<g>
			<g>
				<defs>
					<polyline id="SVGID_187_" points="966.9,461.1 -33.1,461.1 -33.1,-134.2 966.9,-134.2 					"/>
				</defs>
				<clipPath id="SVGID_188_">
					<use xlink:href="#SVGID_187_"  overflow="visible"/>
				</clipPath>
			</g>
		</g>
	</g>
	<g>
		<g>
			<g>
				<defs>
					<polyline id="SVGID_189_" points="966.9,461.1 -33.1,461.1 -33.1,-134.2 966.9,-134.2 					"/>
				</defs>
				<clipPath id="SVGID_190_">
					<use xlink:href="#SVGID_189_"  overflow="visible"/>
				</clipPath>
			</g>
		</g>
		<g>
			<g>
				<defs>
					<polyline id="SVGID_191_" points="966.9,461.1 -33.1,461.1 -33.1,-134.2 966.9,-134.2 					"/>
				</defs>
				<clipPath id="SVGID_192_">
					<use xlink:href="#SVGID_191_"  overflow="visible"/>
				</clipPath>
			</g>
		</g>
		<g>
			<g>
				<defs>
					<polyline id="SVGID_193_" points="966.9,461.1 -33.1,461.1 -33.1,-134.2 966.9,-134.2 					"/>
				</defs>
				<clipPath id="SVGID_194_">
					<use xlink:href="#SVGID_193_"  overflow="visible"/>
				</clipPath>
			</g>
		</g>
	</g>
	<g>
		<g>
			<g>
				<defs>
					<polyline id="SVGID_195_" points="966.9,461.1 -33.1,461.1 -33.1,-134.2 966.9,-134.2 					"/>
				</defs>
				<clipPath id="SVGID_196_">
					<use xlink:href="#SVGID_195_"  overflow="visible"/>
				</clipPath>
			</g>
		</g>
	</g>
	<g>
		<g>
			<g>
				<defs>
					<polyline id="SVGID_197_" points="966.9,461.1 -33.1,461.1 -33.1,-134.2 966.9,-134.2 					"/>
				</defs>
				<clipPath id="SVGID_198_">
					<use xlink:href="#SVGID_197_"  overflow="visible"/>
				</clipPath>
			</g>
		</g>
		<g>
			<g>
				<defs>
					<polyline id="SVGID_199_" points="966.9,461.1 -33.1,461.1 -33.1,-134.2 966.9,-134.2 					"/>
				</defs>
				<clipPath id="SVGID_200_">
					<use xlink:href="#SVGID_199_"  overflow="visible"/>
				</clipPath>
			</g>
		</g>
	</g>
	<g>
		<g>
			<g>
				<defs>
					<polyline id="SVGID_201_" points="966.9,461.1 -33.1,461.1 -33.1,-134.2 966.9,-134.2 					"/>
				</defs>
				<clipPath id="SVGID_202_">
					<use xlink:href="#SVGID_201_"  overflow="visible"/>
				</clipPath>
			</g>
		</g>
		<g>
			<g>
				<defs>
					<polyline id="SVGID_203_" points="966.9,461.1 -33.1,461.1 -33.1,-134.2 966.9,-134.2 					"/>
				</defs>
				<clipPath id="SVGID_204_">
					<use xlink:href="#SVGID_203_"  overflow="visible"/>
				</clipPath>
			</g>
		</g>
	</g>
	<g>
		<g>
			<g>
				<defs>
					<polyline id="SVGID_205_" points="966.9,461.1 -33.1,461.1 -33.1,-134.2 966.9,-134.2 					"/>
				</defs>
				<clipPath id="SVGID_206_">
					<use xlink:href="#SVGID_205_"  overflow="visible"/>
				</clipPath>
			</g>
		</g>
		<g>
			<g>
				<defs>
					<polyline id="SVGID_207_" points="966.9,461.1 -33.1,461.1 -33.1,-134.2 966.9,-134.2 					"/>
				</defs>
				<clipPath id="SVGID_208_">
					<use xlink:href="#SVGID_207_"  overflow="visible"/>
				</clipPath>
			</g>
		</g>
	</g>
	<g>
		<g>
			<g>
				<defs>
					<polyline id="SVGID_209_" points="966.9,461.1 -33.1,461.1 -33.1,-134.2 966.9,-134.2 					"/>
				</defs>
				<clipPath id="SVGID_210_">
					<use xlink:href="#SVGID_209_"  overflow="visible"/>
				</clipPath>
			</g>
		</g>
		<g>
			<g>
				<defs>
					<polyline id="SVGID_211_" points="966.9,461.1 -33.1,461.1 -33.1,-134.2 966.9,-134.2 					"/>
				</defs>
				<clipPath id="SVGID_212_">
					<use xlink:href="#SVGID_211_"  overflow="visible"/>
				</clipPath>
			</g>
		</g>
		<g>
			<g>
				<defs>
					<polyline id="SVGID_213_" points="966.9,461.1 -33.1,461.1 -33.1,-134.2 966.9,-134.2 					"/>
				</defs>
				<clipPath id="SVGID_214_">
					<use xlink:href="#SVGID_213_"  overflow="visible"/>
				</clipPath>
			</g>
		</g>
	</g>
	<g>
		<g>
			<g>
				<defs>
					<polyline id="SVGID_215_" points="966.9,461.1 -33.1,461.1 -33.1,-134.2 966.9,-134.2 					"/>
				</defs>
				<clipPath id="SVGID_216_">
					<use xlink:href="#SVGID_215_"  overflow="visible"/>
				</clipPath>
			</g>
		</g>
		<g>
			<g>
				<defs>
					<polyline id="SVGID_217_" points="966.9,461.1 -33.1,461.1 -33.1,-134.2 966.9,-134.2 					"/>
				</defs>
				<clipPath id="SVGID_218_">
					<use xlink:href="#SVGID_217_"  overflow="visible"/>
				</clipPath>
			</g>
		</g>
	</g>
	<g>
		<g>
			<g>
				<defs>
					<polyline id="SVGID_219_" points="966.9,461.1 -33.1,461.1 -33.1,-134.2 966.9,-134.2 					"/>
				</defs>
				<clipPath id="SVGID_220_">
					<use xlink:href="#SVGID_219_"  overflow="visible"/>
				</clipPath>
			</g>
		</g>
	</g>
	<g>
		<g>
			<g>
				<defs>
					<polyline id="SVGID_221_" points="966.9,461.1 -33.1,461.1 -33.1,-134.2 966.9,-134.2 					"/>
				</defs>
				<clipPath id="SVGID_222_">
					<use xlink:href="#SVGID_221_"  overflow="visible"/>
				</clipPath>
			</g>
		</g>
	</g>
	<g>
		<g>
			<g>
				<defs>
					<polyline id="SVGID_223_" points="966.9,461.1 -33.1,461.1 -33.1,-134.2 966.9,-134.2 					"/>
				</defs>
				<clipPath id="SVGID_224_">
					<use xlink:href="#SVGID_223_"  overflow="visible"/>
				</clipPath>
			</g>
		</g>
		<g>
			<g>
				<defs>
					<polyline id="SVGID_225_" points="966.9,461.1 -33.1,461.1 -33.1,-134.2 966.9,-134.2 					"/>
				</defs>
				<clipPath id="SVGID_226_">
					<use xlink:href="#SVGID_225_"  overflow="visible"/>
				</clipPath>
			</g>
		</g>
		<g>
			<g>
				<defs>
					<polyline id="SVGID_227_" points="966.9,461.1 -33.1,461.1 -33.1,-134.2 966.9,-134.2 					"/>
				</defs>
				<clipPath id="SVGID_228_">
					<use xlink:href="#SVGID_227_"  overflow="visible"/>
				</clipPath>
			</g>
		</g>
		<g>
			<g>
				<defs>
					<polyline id="SVGID_229_" points="966.9,461.1 -33.1,461.1 -33.1,-134.2 966.9,-134.2 					"/>
				</defs>
				<clipPath id="SVGID_230_">
					<use xlink:href="#SVGID_229_"  overflow="visible"/>
				</clipPath>
			</g>
		</g>
	</g>
	<g>
		<g>
			<g>
				<defs>
					<polyline id="SVGID_231_" points="966.9,461.1 -33.1,461.1 -33.1,-134.2 966.9,-134.2 					"/>
				</defs>
				<clipPath id="SVGID_232_">
					<use xlink:href="#SVGID_231_"  overflow="visible"/>
				</clipPath>
			</g>
		</g>
		<g>
			<g>
				<defs>
					<polyline id="SVGID_233_" points="966.9,461.1 -33.1,461.1 -33.1,-134.2 966.9,-134.2 					"/>
				</defs>
				<clipPath id="SVGID_234_">
					<use xlink:href="#SVGID_233_"  overflow="visible"/>
				</clipPath>
			</g>
		</g>
		<g>
			<g>
				<defs>
					<polyline id="SVGID_235_" points="966.9,461.1 -33.1,461.1 -33.1,-134.2 966.9,-134.2 					"/>
				</defs>
				<clipPath id="SVGID_236_">
					<use xlink:href="#SVGID_235_"  overflow="visible"/>
				</clipPath>
			</g>
		</g>
		<g>
			<g>
				<defs>
					<polyline id="SVGID_237_" points="966.9,461.1 -33.1,461.1 -33.1,-134.2 966.9,-134.2 					"/>
				</defs>
				<clipPath id="SVGID_238_">
					<use xlink:href="#SVGID_237_"  overflow="visible"/>
				</clipPath>
			</g>
		</g>
		<g>
			<g>
				<defs>
					<polyline id="SVGID_239_" points="966.9,461.1 -33.1,461.1 -33.1,-134.2 966.9,-134.2 					"/>
				</defs>
				<clipPath id="SVGID_240_">
					<use xlink:href="#SVGID_239_"  overflow="visible"/>
				</clipPath>
			</g>
		</g>
		<g>
			<g>
				<defs>
					<polyline id="SVGID_241_" points="966.9,461.1 -33.1,461.1 -33.1,-134.2 966.9,-134.2 					"/>
				</defs>
				<clipPath id="SVGID_242_">
					<use xlink:href="#SVGID_241_"  overflow="visible"/>
				</clipPath>
			</g>
		</g>
		<g>
			<g>
				<defs>
					<polyline id="SVGID_243_" points="966.9,461.1 -33.1,461.1 -33.1,-134.2 966.9,-134.2 					"/>
				</defs>
				<clipPath id="SVGID_244_">
					<use xlink:href="#SVGID_243_"  overflow="visible"/>
				</clipPath>
			</g>
		</g>
	</g>
	<g>
		<g>
			<g>
				<defs>
					<polyline id="SVGID_245_" points="966.9,461.1 -33.1,461.1 -33.1,-134.2 966.9,-134.2 					"/>
				</defs>
				<clipPath id="SVGID_246_">
					<use xlink:href="#SVGID_245_"  overflow="visible"/>
				</clipPath>
			</g>
		</g>
		<g>
			<g>
				<defs>
					<polyline id="SVGID_247_" points="966.9,461.1 -33.1,461.1 -33.1,-134.2 966.9,-134.2 					"/>
				</defs>
				<clipPath id="SVGID_248_">
					<use xlink:href="#SVGID_247_"  overflow="visible"/>
				</clipPath>
			</g>
		</g>
		<g>
			<g>
				<defs>
					<polyline id="SVGID_249_" points="966.9,461.1 -33.1,461.1 -33.1,-134.2 966.9,-134.2 					"/>
				</defs>
				<clipPath id="SVGID_250_">
					<use xlink:href="#SVGID_249_"  overflow="visible"/>
				</clipPath>
			</g>
		</g>
		<g>
			<g>
				<defs>
					<polyline id="SVGID_251_" points="966.9,461.1 -33.1,461.1 -33.1,-134.2 966.9,-134.2 					"/>
				</defs>
				<clipPath id="SVGID_252_">
					<use xlink:href="#SVGID_251_"  overflow="visible"/>
				</clipPath>
			</g>
		</g>
		<g>
			<g>
				<defs>
					<polyline id="SVGID_253_" points="966.9,461.1 -33.1,461.1 -33.1,-134.2 966.9,-134.2 					"/>
				</defs>
				<clipPath id="SVGID_254_">
					<use xlink:href="#SVGID_253_"  overflow="visible"/>
				</clipPath>
			</g>
		</g>
		<g>
			<g>
				<defs>
					<polyline id="SVGID_255_" points="966.9,461.1 -33.1,461.1 -33.1,-134.2 966.9,-134.2 					"/>
				</defs>
				<clipPath id="SVGID_256_">
					<use xlink:href="#SVGID_255_"  overflow="visible"/>
				</clipPath>
			</g>
		</g>
		<g>
			<g>
				<defs>
					<polyline id="SVGID_257_" points="966.9,461.1 -33.1,461.1 -33.1,-134.2 966.9,-134.2 					"/>
				</defs>
				<clipPath id="SVGID_258_">
					<use xlink:href="#SVGID_257_"  overflow="visible"/>
				</clipPath>
			</g>
		</g>
	</g>
</g>
<g id="Layer_2" display="none">
	<path display="inline" fill="#6D6E71" d="M202.8,93.1c-0.4-0.8-1.4-1.1-2.2-0.7c-2.8,1.3-5.8,2.3-8.5,0.8c-2.8-1.5-4.6-4.7-6-7.6
		c-0.3-0.7-1.2-1.1-1.9-0.9c-7.8,1.8-13.5,9.1-12.9,17.6c0.6,8.2,7.3,14.9,15.5,15.5c9.7,0.7,17.9-6.8,18-16.4
		C204.8,98.3,204.1,95.5,202.8,93.1"/>
	<path display="inline" fill="#ED1C24" d="M183.7,92.7c0,1.5-1.3,2.8-2.9,2.7c-1.5,0-2.8-1.3-2.7-2.9c0-1.5,1.3-2.8,2.9-2.7
		C182.5,89.9,183.7,91.1,183.7,92.7"/>
	<path display="inline" fill="#2E3192" d="M180.2,100.7c0,1.5-1.3,2.8-2.9,2.7c-1.5,0-2.8-1.3-2.7-2.9c0-1.5,1.3-2.8,2.9-2.7
		C179,97.9,180.2,99.1,180.2,100.7"/>
	<path display="inline" fill="#FBB040" d="M182.8,109c0,1.5-1.3,2.8-2.9,2.7s-2.8-1.3-2.7-2.9c0-1.5,1.3-2.8,2.9-2.7
		C181.6,106.2,182.9,107.5,182.8,109"/>
	<path display="inline" fill="#27AAE1" d="M191.5,112c0,1.5-1.3,2.8-2.9,2.7c-1.5,0-2.8-1.3-2.7-2.9c0-1.5,1.3-2.8,2.9-2.7
		C190.3,109.2,191.5,110.4,191.5,112"/>
	<path display="inline" fill="#39B54A" d="M202,99.5c0,1.5-1.3,2.8-2.9,2.7c-1.5,0-2.8-1.3-2.7-2.9c0-1.5,1.3-2.8,2.9-2.7
		C200.8,96.7,202,98,202,99.5"/>
	<path display="inline" fill="#FFFFFF" d="M199,107.9c0,1.5-1.3,2.8-2.9,2.7c-1.5,0-2.8-1.3-2.7-2.9s1.3-2.8,2.9-2.7
		C197.8,105,199,106.3,199,107.9"/>
	<g display="inline">
		<g>
			<g>
				<defs>
					<polygon id="SVGID_259_" points="177,36.8 159.4,36.8 173.6,47.2 168.2,63.9 182.4,53.5 196.6,63.9 191.2,47.2 205.4,36.8 
						187.8,36.8 182.4,20.1 					"/>
				</defs>
				<clipPath id="SVGID_260_">
					<use xlink:href="#SVGID_259_"  overflow="visible"/>
				</clipPath>
				
					<linearGradient id="SVGID_261_" gradientUnits="userSpaceOnUse" x1="-385.931" y1="426.3543" x2="-384.931" y2="426.3543" gradientTransform="matrix(46.0283 0 0 -46.0283 17923.1309 19666.3535)">
					<stop  offset="0" style="stop-color:#C4882B"/>
					<stop  offset="1" style="stop-color:#F1BA33"/>
					<stop  offset="1" style="stop-color:#687533"/>
				</linearGradient>
				<rect x="159.4" y="20.1" clip-path="url(#SVGID_260_)" fill="url(#SVGID_261_)" width="46" height="43.8"/>
			</g>
		</g>
	</g>
</g>
<g id="Layer_3" display="none">
	<path display="inline" fill="#F7941E" d="M62.3,52.9c0.4-1.7,0.9-3.4,1.8-4.8s2.4-2.6,4.2-2.8c1.1-0.1,2.5,0.3,2.7,1.4
		c-0.4-2.4-1.9-4.4-4-5.7c-0.3-0.2-0.6-0.3-0.9-0.3c-2.1-0.2-4.3,1-6.1,2c-0.2,0.1-0.4-0.1-0.3-0.3c0.5-0.9,1.3-1.8,2.3-2.6
		c0.2-0.2,0.1-0.5-0.1-0.5c-1-0.1-1.9-0.1-2.9,0c-1.2,0.1-2.5,0.3-3.7,0.7c-1.6,0.5-3.2,1.4-4.5,2.6c-0.4,0.4-0.8,0.8-1.1,1.3
		c-0.4,0.6-0.6,1.2-0.8,1.9c-0.4,1.5-0.6,3.1,0,4.5c1,2.4,3.8,3.6,5.4,5.7c0.5,0.7,0.9,1.5,1.7,1.9c0.4,0.2,0.9,0.2,1.4,0.2
		c0.9,0,1.9-0.1,2.7-0.5C61.5,56.7,61.9,54.6,62.3,52.9"/>
	<path display="inline" fill="#939598" d="M33.6,74l-0.1-0.1c-0.8-0.9-0.8-2.3,0-3.2l16.2-17c0.9-1,2.4-1,3.3,0l1.7,1.8
		c0.9,1,0.8,2.5-0.2,3.3L36.7,74.2C35.8,75,34.4,74.9,33.6,74"/>
	<path display="inline" fill="#D1D3D4" d="M68.8,72.5c1.1-0.7,2.3-1.4,3.6-1.7c1.3-0.3,2.8-0.1,3.8,0.7c0.7,0.5,1.2,1.5,0.7,2.3
		c1.1-1.5,1.4-3.5,0.9-5.3c-0.1-0.2-0.2-0.5-0.3-0.6c-1-1.3-2.9-1.8-4.5-2.2c-0.2,0-0.2-0.3,0-0.3c0.8-0.3,1.7-0.3,2.7-0.1
		c0.2,0,0.4-0.2,0.2-0.4c-0.5-0.6-1-1.1-1.6-1.6c-0.7-0.6-1.5-1.2-2.4-1.6c-1.2-0.6-2.5-1-3.9-1c-0.4,0-0.9,0-1.3,0.1
		c-0.5,0.1-1,0.3-1.5,0.6c-1,0.6-2,1.4-2.5,2.5c-0.8,1.9,0.2,4.1-0.2,6.1c-0.1,0.7-0.4,1.3-0.1,2c0.1,0.3,0.4,0.6,0.6,0.9
		c0.5,0.5,1.1,1,1.8,1.2C66.3,74.1,67.6,73.3,68.8,72.5"/>
	<path display="inline" fill="#939598" d="M41.4,68.4l0-0.1c0-0.9,0.8-1.7,1.7-1.7L61.4,66c1,0,1.8,0.8,1.8,1.8l0,1.9
		c0,1-0.9,1.8-1.9,1.7l-18.2-1.3C42.1,70.1,41.4,69.3,41.4,68.4"/>
</g>
<g>
	<g>
		<defs>
			<path id="SVGID_262_" d="M98.5,239.4c-3.7,6.1-7.3,12.3-10.6,18.6c-1.8,3.3-5.8,7-5.6,11.1c0.2,3.9,4.5,5.5,7.1,7.7
				c4.4,3.8,8.7,7.6,13.1,11.4c0.8,0.7,1.9-5.3,1.8-5.9c-0.2-2-1.6-3.3-2.5-5c-1.3-2.5-6-7.8-4.1-10.8c0.7-1.1,39.7-61.3,39.7-61.3
				l-17.4-4.2L98.5,239.4z"/>
		</defs>
		<clipPath id="SVGID_263_">
			<use xlink:href="#SVGID_262_"  overflow="visible"/>
		</clipPath>
		
			<linearGradient id="SVGID_264_" gradientUnits="userSpaceOnUse" x1="-543.7031" y1="98.8871" x2="-542.7031" y2="98.8871" gradientTransform="matrix(26.4357 16.32 -16.32 26.4357 16084.6064 6496.4624)">
			<stop  offset="0" style="stop-color:#D19B44"/>
			<stop  offset="3.200000e-03" style="stop-color:#D19B44"/>
			<stop  offset="1.260000e-02" style="stop-color:#D29C45"/>
			<stop  offset="0.4266" style="stop-color:#E6B668"/>
			<stop  offset="0.7663" style="stop-color:#F3C67D"/>
			<stop  offset="0.9875" style="stop-color:#F8CC85"/>
			<stop  offset="1" style="stop-color:#F8CC85"/>
		</linearGradient>
		<polygon clip-path="url(#SVGID_263_)" fill="url(#SVGID_264_)" points="97.4,176.2 176.8,225.2 122.2,313.6 42.8,264.6 		"/>
	</g>
</g>
<path fill="#4A443A" d="M103.3,286.6c0,0,1.7,1.6,1.3,2.6c-0.4,1-1.5,2-1.5,2l-24.9-17.6l1.7-2.3L103.3,286.6z"/>
<path fill="#4A443A" d="M101.8,277.2c0,0,0.1,8.3-2.2,9.4l-2.3-1.4l3.8-9.8L101.8,277.2z"/>
<g>
	<g>
		<defs>
			<path id="SVGID_265_" d="M115.2,205.3l2.4,44c0.1,7.1,0.4,14.3,1,21.4c0.3,3.8-1.1,9,1.2,12.4c2.2,3.2,6.8,2.2,10.1,2.7
				c5.7,0.8,11.4,1.7,17.1,2.6c1.1,0.2-1.3-5.5-1.6-5.9c-1.3-1.6-3.1-2-4.8-2.9c-2.4-1.4-9.3-3.3-9.2-6.9c0-1.3,0.6-73,0.6-73
				L115.2,205.3z"/>
		</defs>
		<clipPath id="SVGID_266_">
			<use xlink:href="#SVGID_265_"  overflow="visible"/>
		</clipPath>
		
			<linearGradient id="SVGID_267_" gradientUnits="userSpaceOnUse" x1="-546.3044" y1="108.6897" x2="-545.3044" y2="108.6897" gradientTransform="matrix(32.2017 0 0 32.2017 17707.1191 -3256.0535)">
			<stop  offset="0" style="stop-color:#D19B44"/>
			<stop  offset="3.200000e-03" style="stop-color:#D19B44"/>
			<stop  offset="1.260000e-02" style="stop-color:#D29C45"/>
			<stop  offset="0.4266" style="stop-color:#E6B668"/>
			<stop  offset="0.7663" style="stop-color:#F3C67D"/>
			<stop  offset="0.9875" style="stop-color:#F8CC85"/>
			<stop  offset="1" style="stop-color:#F8CC85"/>
		</linearGradient>
		<rect x="115.2" y="199.4" clip-path="url(#SVGID_266_)" fill="url(#SVGID_267_)" width="33" height="89"/>
	</g>
</g>
<path fill="#4A443A" d="M147,286.5c0,0,2.3,0.4,2.5,1.5c0.2,1.1-0.2,2.5-0.2,2.5l-30.5-1.4l0.2-2.9L147,286.5z"/>
<path fill="#4A443A" d="M140.7,279.4c0,0,4.5,6.9,3.2,9.1l-2.7,0l-2-10.3L140.7,279.4z"/>
<g>
	<g>
		<defs>
			<path id="SVGID_268_" d="M115.8,62.4c-4.4,0-7.9,3.3-7.9,7.3v12.6c0,4,3.5,7.3,7.9,7.3h0.9c4.4,0,7.9-3.3,7.9-7.3V69.7
				c0-4-3.5-7.3-7.9-7.3H115.8z"/>
		</defs>
		<clipPath id="SVGID_269_">
			<use xlink:href="#SVGID_268_"  overflow="visible"/>
		</clipPath>
		
			<linearGradient id="SVGID_270_" gradientUnits="userSpaceOnUse" x1="-531.0222" y1="116.4457" x2="-530.0222" y2="116.4457" gradientTransform="matrix(16.6787 0 0 16.6787 8964.6318 -1866.2052)">
			<stop  offset="0" style="stop-color:#D19B44"/>
			<stop  offset="3.200000e-03" style="stop-color:#D19B44"/>
			<stop  offset="1.260000e-02" style="stop-color:#D29C45"/>
			<stop  offset="0.4266" style="stop-color:#E6B668"/>
			<stop  offset="0.7663" style="stop-color:#F3C67D"/>
			<stop  offset="0.9875" style="stop-color:#F8CC85"/>
			<stop  offset="1" style="stop-color:#F8CC85"/>
		</linearGradient>
		<rect x="107.9" y="62.4" clip-path="url(#SVGID_269_)" fill="url(#SVGID_270_)" width="16.7" height="27.2"/>
	</g>
</g>
<g>
	<g>
		<defs>
			<path id="SVGID_271_" d="M117.5,82.8c-31.4,0.6-27,37.5-24.3,76.1h47.4c0,0,10.1-76.1-22.6-76.1
				C117.7,82.8,117.6,82.8,117.5,82.8"/>
		</defs>
		<clipPath id="SVGID_272_">
			<use xlink:href="#SVGID_271_"  overflow="visible"/>
		</clipPath>
		
			<linearGradient id="SVGID_273_" gradientUnits="userSpaceOnUse" x1="-552.2953" y1="105.6452" x2="-551.2953" y2="105.6452" gradientTransform="matrix(50.6958 0 0 50.6958 28090.3203 -5234.9429)">
			<stop  offset="0" style="stop-color:#C7C7C7"/>
			<stop  offset="0.8949" style="stop-color:#FFFFFF"/>
			<stop  offset="1" style="stop-color:#FFFFFF"/>
		</linearGradient>
		<rect x="86" y="82.8" clip-path="url(#SVGID_272_)" fill="url(#SVGID_273_)" width="64.6" height="76.1"/>
	</g>
</g>
<g>
	<g>
		<defs>
			<path id="SVGID_274_" d="M98.6,27.9c0,0.5,0,1,0,1.4l-0.2-0.4c0,0,0,0,0,0.1l0.2,0.5c0,0.3,0,0.7,0,1c0.7,6.5,0.7,13,0.2,19.5
				c0.1,0,0.1,0,0.2,0c0,0.8,0.1,1.6,0.1,2.4l0.1,14.1l0.2-0.4c0.1,0.6,0.2,1.2,0.4,1.8c1.4,4.1,6,6.2,9.9,7.7
				c3.8,1.4,7.7,1.8,11.8,1.1c3.3-0.6,7.7-2.5,10.1-4.8c2.6-2.6,1.9-5.1,1.8-8.3c-0.1-12.1-0.8-24.2-1.4-36.3c0,0-3.3-9.3-16.6-9.5
				c-0.1,0-0.3,0-0.4,0C104.1,17.8,99.7,25.4,98.6,27.9"/>
		</defs>
		<clipPath id="SVGID_275_">
			<use xlink:href="#SVGID_274_"  overflow="visible"/>
		</clipPath>
		
			<linearGradient id="SVGID_276_" gradientUnits="userSpaceOnUse" x1="-547.6526" y1="108.0637" x2="-546.6522" y2="108.0637" gradientTransform="matrix(35.0264 -0.1051 0.1051 35.0264 19269.3965 -3795.0281)">
			<stop  offset="0" style="stop-color:#D19B44"/>
			<stop  offset="3.200000e-03" style="stop-color:#D19B44"/>
			<stop  offset="1.260000e-02" style="stop-color:#D29C45"/>
			<stop  offset="0.4266" style="stop-color:#E6B668"/>
			<stop  offset="0.7663" style="stop-color:#F3C67D"/>
			<stop  offset="0.9875" style="stop-color:#F8CC85"/>
			<stop  offset="1" style="stop-color:#F8CC85"/>
		</linearGradient>
		<polygon clip-path="url(#SVGID_275_)" fill="url(#SVGID_276_)" points="98.2,17.8 134.2,17.6 134.4,77.4 98.4,77.5 		"/>
	</g>
</g>
<path fill="#352115" d="M110.8,17.5c-7.9,1.1-12.7,10.4-12.7,10.4l0.3,7.6c0,0.3-0.2,0.6-0.3,0.8c0.3,2.4,0.6,4.7,0.7,7.1
	c0,0,0,0,0.1,0c0,0.3,0,0.6,0,0.9l0.1,9.7l-0.1,6l7.9,1.3c3.7,1.4,8.3,0.1,12.7-9l-0.1-11c3.5-2,6-4.8,6.8-6.6
	c1.1-2.6,6.5-7.4,6.5-7.4C129.7,20.3,118.6,16.3,110.8,17.5"/>
<path fill="#E74C24" d="M143,230c0,2.7-2.7,4.9-5.9,4.9H98.6c-3.3,0-5.9-2.2-5.9-4.9v-70.3c0-2.7,2.7-4.9,5.9-4.9h38.5
	c3.3,0,5.9,2.2,5.9,4.9V230z"/>
<path fill="#EAB862" d="M120.7,51.8c0,2.3-1.9,4.2-4.2,4.2c-2.3,0-4.2-1.9-4.2-4.2c0-2.3,1.9-4.2,4.2-4.2
	C118.9,47.6,120.7,49.5,120.7,51.8"/>
<path fill="#352115" d="M98.9,59.9c0,0,0,6.7,0.9,8c0.9,1.3,13.4-4.7,16-11.4L98.9,59.9z"/>
<path fill="#E74C24" d="M147.8,157.6c0,2.6-2,4.6-4.5,4.6h-49c-2.5,0-4.5-2.1-4.5-4.6c0-2.6,2-4.6,4.5-4.6h49
	C145.8,153,147.8,155,147.8,157.6"/>
<g>
	<g>
		<defs>
			<path id="SVGID_277_" d="M117.7,51c-1.3,0-2.3,1-2.3,2.3s1,2.3,2.3,2.3h0.7c1.3,0,2.3-1,2.3-2.3s-1-2.3-2.3-2.3H117.7z"/>
		</defs>
		<clipPath id="SVGID_278_">
			<use xlink:href="#SVGID_277_"  overflow="visible"/>
		</clipPath>
		
			<linearGradient id="SVGID_279_" gradientUnits="userSpaceOnUse" x1="-463.2981" y1="150.834" x2="-462.2982" y2="150.834" gradientTransform="matrix(5.3184 0 0 5.3184 2579.4126 -748.8569)">
			<stop  offset="0" style="stop-color:#C7C7C7"/>
			<stop  offset="0.8949" style="stop-color:#FFFFFF"/>
			<stop  offset="1" style="stop-color:#FFFFFF"/>
		</linearGradient>
		<rect x="115.4" y="51" clip-path="url(#SVGID_278_)" fill="url(#SVGID_279_)" width="5.3" height="4.7"/>
	</g>
</g>
<linearGradient id="SVGID_280_" gradientUnits="userSpaceOnUse" x1="-546.631" y1="108.5168" x2="-545.631" y2="108.5168" gradientTransform="matrix(32.855 0 0 32.855 18078.7109 -3464.55)">
	<stop  offset="0" style="stop-color:#FFFFFF"/>
	<stop  offset="0.1051" style="stop-color:#FFFFFF"/>
	<stop  offset="1" style="stop-color:#C7C7C7"/>
</linearGradient>
<path fill="url(#SVGID_280_)" d="M119.6,53.8c0,0,8.9,13.5,12,18.1c3.1,4.6,6.5,13,8.4,18.3c2.2,6.1,3.3,12.5,4.7,18.8
	c2.3,10.1,4.2,20.3,4.7,30.7c0.1,2.1-0.1,7.2,2.4,8.1l0,0c-2.5-1-2.3-6-2.4-8.1c-0.5-10.4-2.4-20.6-4.7-30.7
	c-1.4-6.3-2.5-12.7-4.7-18.8c-2-5.3-5.3-13.7-8.4-18.3C128.5,67.2,119.6,53.8,119.6,53.8L119.6,53.8z"/>
<linearGradient id="SVGID_281_" gradientUnits="userSpaceOnUse" x1="-537.9508" y1="112.9354" x2="-536.9508" y2="112.9354" gradientTransform="matrix(21.3433 0 0 21.3433 11609.5771 -2298.8259)">
	<stop  offset="0" style="stop-color:#FFFFFF"/>
	<stop  offset="0.1051" style="stop-color:#FFFFFF"/>
	<stop  offset="1" style="stop-color:#C7C7C7"/>
</linearGradient>
<path fill="url(#SVGID_281_)" d="M128.4,72.6c0,0,15.1,20.9,20.3,78l0,0C143.5,93.5,128.4,72.6,128.4,72.6L128.4,72.6z"/>
<path fill="#FCFDFF" d="M155.2,170.5c-1.1,1.6-2.8,2.3-3.9,1.6l-10.9-7.2c-1.1-0.7-1.1-2.6-0.1-4.2l14.8-22.3
	c1.1-1.6,2.8-2.3,3.9-1.6l10.9,7.2c1.1,0.7,1.1,2.6,0.1,4.2L155.2,170.5z"/>
<path fill="#9EA0A3" d="M161.3,151.4c-1.4,0.1-2.3,1.3-1.6,2.8c-0.6,0.4-1.2,0.8-2,0.9c-0.4,0-0.7-0.1-0.9-0.4
	c-0.4-0.6-0.8-0.9-1.5-1c-0.4-0.1-0.7-0.4-0.8-0.8c-0.3-1.5,0-2.8,1-3.9c0.8-0.9,2.4-1.1,3.2,0.1c0.2,0.3,0.5,0.5,0.9,0.6
	c0.7,0.1,1.3,0.5,1.6,1.2C161.2,151,161.2,151.2,161.3,151.4"/>
<path fill="#9EA0A3" d="M159.3,149c0.4-0.8,1.4-1.1,2.2-0.6C161.2,149.2,160,149.5,159.3,149"/>
<polygon fill="#01908C" points="83.9,111.8 131.9,103.8 137.2,138.5 83.9,147.4 "/>
<g>
	<g>
		<defs>
			<path id="SVGID_282_" d="M109.4,98.4v2.4c0,0,0,0,0,0c-0.2,10.4-0.6,33,0.4,35.9c1.2,3.4,24,20.5,31.1,23.7
				c0.4,0.9,1,1.7,1.8,2.4c0,0,0,0,0,0c0,0,0,0,0,0c0.2,0.1,0.3,0.3,0.5,0.4l2.9,2.3c2.9,2.2,6.6,2.3,8.3,0.1l1.9-2.4
				c1.7-2.2,0.8-5.8-2.1-8l-2.9-2.3c-1.4-1.1-3.1-1.7-4.6-1.7c-0.2,0.3-0.5,0.6-0.7,0.9l-26.7-20.9V98.4c0-3.4-2.2-6.2-4.9-6.2
				C111.6,92.2,109.4,95,109.4,98.4"/>
		</defs>
		<clipPath id="SVGID_283_">
			<use xlink:href="#SVGID_282_"  overflow="visible"/>
		</clipPath>
		
			<linearGradient id="SVGID_284_" gradientUnits="userSpaceOnUse" x1="-556.5299" y1="103.498" x2="-555.5299" y2="103.498" gradientTransform="matrix(85.3389 0 0 85.3389 47590.9258 -8702.3887)">
			<stop  offset="0" style="stop-color:#D19B44"/>
			<stop  offset="3.200000e-03" style="stop-color:#D19B44"/>
			<stop  offset="1.260000e-02" style="stop-color:#D29C45"/>
			<stop  offset="0.4266" style="stop-color:#E6B668"/>
			<stop  offset="0.7663" style="stop-color:#F3C67D"/>
			<stop  offset="0.9875" style="stop-color:#F8CC85"/>
			<stop  offset="1" style="stop-color:#F8CC85"/>
		</linearGradient>
		<rect x="108.7" y="92.2" clip-path="url(#SVGID_283_)" fill="url(#SVGID_284_)" width="49.2" height="75.7"/>
	</g>
</g>
<path fill="#352115" d="M99,26.4c-0.2-6.5-9.2-7.2-14-3.6c-5.6,4.2-4.6,13.3-14.2,9.7c12.6,11.7,21.2-0.2,30.9-3.5"/>
<path fill="#01908C" d="M145.1,150.3c-4.3,1.5-7.5,6.2-8.8,10.7c5.5,2.8,10.7-3.8,11.4-8.8c-1.9-0.6-2.8,0.1-4.3,0.8"/>
<polygon fill="#742877" points="108.2,167.9 102.5,177.7 96.9,167.9 "/>
<polygon fill="#742877" points="125.1,167.9 119.4,177.7 113.8,167.9 "/>
<polygon fill="#742877" points="116.2,184.8 110.5,194.6 104.9,184.8 "/>
</svg>
