<?xml version="1.0" encoding="utf-8"?>
<!-- Generator: Adobe Illustrator 15.0.0, SVG Export Plug-In . SVG Version: 6.00 Build 0)  -->
<!DOCTYPE svg PUBLIC "-//W3C//DTD SVG 1.1//EN" "http://www.w3.org/Graphics/SVG/1.1/DTD/svg11.dtd">
<svg version="1.1" id="Layer_1" xmlns="http://www.w3.org/2000/svg" xmlns:xlink="http://www.w3.org/1999/xlink" x="0px" y="0px"
	 width="91.637px" height="280.727px" viewBox="419.304 5.278 91.637 280.727"
	 enable-background="new 419.304 5.278 91.637 280.727" xml:space="preserve">
<g id="Layer_1_1_">
	<g>
		<g>
			<defs>
				<path id="SVGID_1_" d="M466.861,77.519c-40.341,0.549-34.63,37.203-31.225,75.563h60.745c0,0,12.951-75.559-29.038-75.566
					C467.18,77.515,467.024,77.517,466.861,77.519"/>
			</defs>
			<clipPath id="SVGID_2_">
				<use xlink:href="#SVGID_1_"  overflow="visible"/>
			</clipPath>
			
				<linearGradient id="SVGID_3_" gradientUnits="userSpaceOnUse" x1="-207.1035" y1="113.7119" x2="-206.1039" y2="113.7119" gradientTransform="matrix(65.0264 0 0 65.0264 13900.4473 -7279.0327)">
				<stop  offset="0" style="stop-color:#A91F24"/>
				<stop  offset="1" style="stop-color:#E83527"/>
			</linearGradient>
			<rect x="426.52" y="77.516" clip-path="url(#SVGID_2_)" fill="url(#SVGID_3_)" width="82.812" height="75.566"/>
		</g>
	</g>
	<g>
		<g>
			<defs>
				<rect id="SVGID_4_" x="-33.093" y="-134.17" width="1000" height="595.28"/>
			</defs>
			<clipPath id="SVGID_5_">
				<use xlink:href="#SVGID_4_"  overflow="visible"/>
			</clipPath>
			<path clip-path="url(#SVGID_5_)" fill="#EAB862" d="M473.214,83.043c0,3.762-3.694,6.813-8.246,6.813h-0.918
				c-4.555,0-8.246-3.051-8.246-6.813V71.311c0-3.761,3.691-6.814,8.246-6.814h0.918c4.552,0,8.246,3.053,8.246,6.814V83.043z"/>
		</g>
		<g>
			<defs>
				<rect id="SVGID_6_" x="-33.093" y="-134.17" width="1000" height="595.28"/>
			</defs>
			<clipPath id="SVGID_7_">
				<use xlink:href="#SVGID_6_"  overflow="visible"/>
			</clipPath>
			<path clip-path="url(#SVGID_7_)" fill="#352215" d="M445.868,32.946V47.83h-3.121l-0.142-14.616
				C442.605,33.214,444.876,29.729,445.868,32.946"/>
		</g>
		<g>
			<defs>
				<rect id="SVGID_8_" x="-33.093" y="-134.17" width="1000" height="595.28"/>
			</defs>
			<clipPath id="SVGID_9_">
				<use xlink:href="#SVGID_8_"  overflow="visible"/>
			</clipPath>
			<path clip-path="url(#SVGID_9_)" fill="#352215" d="M483.337,32.946V47.83h-3.122l-0.142-14.616
				C480.075,33.214,482.344,29.729,483.337,32.946"/>
		</g>
	</g>
	<g>
		<g>
			<defs>
				<path id="SVGID_10_" d="M445.631,27.84c0.008,0.458,0.011,0.918,0.008,1.377l-0.338-0.65l0.337,0.747
					c-0.008,1.241-0.062,2.481-0.197,3.719c0.046,0.363,0.086,0.715,0.09,1.018c0.036,1.922,0.069,3.849,0.111,5.776
					c-2.253,0.486-3.937,2.335-3.937,4.544c0,2.31,1.829,4.221,4.229,4.604c0.035,0.768,0.069,1.533,0.11,2.301l0.106,13.444
					l0.175-0.422c0.071,0.609,0.195,1.196,0.406,1.753c1.495,3.94,6.202,5.989,10.326,7.365c4.013,1.341,7.508,1.651,11.743,0.99
					c7.79-1.214,13.137-4.398,13.055-12.433c-0.047-4.769-0.19-9.543-0.381-14.314c1.456-0.825,2.43-2.295,2.43-3.978
					c0-1.818-1.137-3.388-2.792-4.161c-0.196-4.064-0.411-8.126-0.613-12.184c0,0-3.404-8.862-17.314-9.107
					c-0.16-0.003-0.319-0.004-0.477-0.004C451.371,18.223,446.813,25.488,445.631,27.84"/>
			</defs>
			<clipPath id="SVGID_11_">
				<use xlink:href="#SVGID_10_"  overflow="visible"/>
			</clipPath>
			
				<linearGradient id="SVGID_12_" gradientUnits="userSpaceOnUse" x1="-205.6343" y1="115.9741" x2="-204.6343" y2="115.9741" gradientTransform="matrix(42.1997 0 0 42.1997 9119.4355 -4847.394)">
				<stop  offset="0" style="stop-color:#D29C44"/>
				<stop  offset="0.0032" style="stop-color:#D29C44"/>
				<stop  offset="0.1453" style="stop-color:#D9A551"/>
				<stop  offset="0.5029" style="stop-color:#EABA6E"/>
				<stop  offset="0.7964" style="stop-color:#F5C87F"/>
				<stop  offset="0.9875" style="stop-color:#F9CD86"/>
				<stop  offset="1" style="stop-color:#F9CD86"/>
			</linearGradient>
			<rect x="441.706" y="18.224" clip-path="url(#SVGID_11_)" fill="url(#SVGID_12_)" width="42.199" height="56.843"/>
		</g>
	</g>
	<g>
		<g>
			<defs>
				<rect id="SVGID_13_" x="-33.093" y="-134.17" width="1000" height="595.28"/>
			</defs>
			<clipPath id="SVGID_14_">
				<use xlink:href="#SVGID_13_"  overflow="visible"/>
			</clipPath>
			<path clip-path="url(#SVGID_14_)" fill="#352215" d="M476.623,14.502c0,5.096-5.857,9.228-13.085,9.228
				c-7.226,0-13.084-4.132-13.084-9.228c0-5.093,5.858-9.224,13.084-9.224C470.764,5.278,476.623,9.409,476.623,14.502"/>
		</g>
	</g>
	<g>
		<g>
			<defs>
				<path id="SVGID_15_" d="M473.929,197.622l2.548,45.905c0.102,7.429,0.448,14.904,1.047,22.312
					c0.317,3.938-1.195,9.435,1.265,12.898c2.348,3.303,7.053,2.334,10.555,2.848c5.969,0.879,11.931,1.785,17.899,2.668
					c1.142,0.172-1.328-5.754-1.677-6.188c-1.312-1.632-3.24-2.076-4.988-3.062c-2.536-1.426-9.657-3.455-9.631-7.25
					c0.013-1.383,0.623-76.207,0.623-76.207L473.929,197.622z"/>
			</defs>
			<clipPath id="SVGID_16_">
				<use xlink:href="#SVGID_15_"  overflow="visible"/>
			</clipPath>
			
				<linearGradient id="SVGID_17_" gradientUnits="userSpaceOnUse" x1="-204.5659" y1="117.6138" x2="-203.5654" y2="117.6138" gradientTransform="matrix(33.6123 0 0 33.6123 7349.8501 -3715.3003)">
				<stop  offset="0" style="stop-color:#D29C44"/>
				<stop  offset="0.0032" style="stop-color:#D29C44"/>
				<stop  offset="0.1539" style="stop-color:#DEAB5A"/>
				<stop  offset="0.3313" style="stop-color:#E9B96D"/>
				<stop  offset="0.5205" style="stop-color:#F2C47B"/>
				<stop  offset="0.7279" style="stop-color:#F7CB83"/>
				<stop  offset="0.9875" style="stop-color:#F9CD86"/>
				<stop  offset="1" style="stop-color:#F9CD86"/>
			</linearGradient>
			<rect x="473.928" y="191.545" clip-path="url(#SVGID_16_)" fill="url(#SVGID_17_)" width="34.455" height="92.879"/>
		</g>
	</g>
	<g>
		<g>
			<defs>
				<rect id="SVGID_18_" x="-33.093" y="-134.17" width="1000" height="595.28"/>
			</defs>
			<clipPath id="SVGID_19_">
				<use xlink:href="#SVGID_18_"  overflow="visible"/>
			</clipPath>
			<path clip-path="url(#SVGID_19_)" fill="#4A443B" d="M508.237,281.833c0,0,2.427,0.438,2.599,1.561
				c0.17,1.123-0.178,2.611-0.178,2.611l-31.808-1.48l0.253-2.996L508.237,281.833z"/>
		</g>
		<g>
			<defs>
				<rect id="SVGID_20_" x="-33.093" y="-134.17" width="1000" height="595.28"/>
			</defs>
			<clipPath id="SVGID_21_">
				<use xlink:href="#SVGID_20_"  overflow="visible"/>
			</clipPath>
			<path clip-path="url(#SVGID_21_)" fill="#4A443B" d="M500.578,275.004c0,0,4.711,7.236,3.324,9.524l-2.84,0.038l-2.134-10.757
				L500.578,275.004z"/>
		</g>
	</g>
	<g>
		<g>
			<defs>
				<path id="SVGID_22_" d="M442.95,267.282c0.079,3.797-7.014,5.92-9.53,7.385c-1.731,1.01-3.654,1.479-4.944,3.129
					c-0.342,0.437-2.732,6.395-1.591,6.209c5.954-0.967,11.904-1.951,17.859-2.909c3.495-0.567,8.214,0.339,10.516-2.996
					c2.411-3.498,0.823-8.972,1.087-12.913c0.498-7.416,0.742-14.895,0.742-22.324l1.918-45.936l-17.724-5.838
					C441.283,191.088,442.921,265.901,442.95,267.282"/>
			</defs>
			<clipPath id="SVGID_23_">
				<use xlink:href="#SVGID_22_"  overflow="visible"/>
			</clipPath>
			
				<linearGradient id="SVGID_24_" gradientUnits="userSpaceOnUse" x1="-204.3735" y1="117.9092" x2="-203.3735" y2="117.9092" gradientTransform="matrix(32.4282 0 0 32.4282 7054.0571 -3585.937)">
				<stop  offset="0" style="stop-color:#D29C44"/>
				<stop  offset="0.0032" style="stop-color:#D29C44"/>
				<stop  offset="0.1453" style="stop-color:#D9A551"/>
				<stop  offset="0.5029" style="stop-color:#EABA6E"/>
				<stop  offset="0.7964" style="stop-color:#F5C87F"/>
				<stop  offset="0.9875" style="stop-color:#F9CD86"/>
				<stop  offset="1" style="stop-color:#F9CD86"/>
			</linearGradient>
			<rect x="425.743" y="191.088" clip-path="url(#SVGID_23_)" fill="url(#SVGID_24_)" width="33.264" height="93.102"/>
		</g>
	</g>
	<g>
		<g>
			<defs>
				<path id="SVGID_25_" d="M474.145,81.268c-0.756,5.297-7.569,7.949-15.137,6.057c-7.57-1.894-5.679-11.734-5.679-11.734
					c-1.892,0-12.11,5.3-12.11,5.3l-6.812,69.26l57.304-0.472l-5.074-70.303c-1.515-1.514-12.49-4.92-12.49-4.92L474.145,81.268
					L474.145,81.268z"/>
			</defs>
			<clipPath id="SVGID_26_">
				<use xlink:href="#SVGID_25_"  overflow="visible"/>
			</clipPath>
			
				<linearGradient id="SVGID_27_" gradientUnits="userSpaceOnUse" x1="-206.7373" y1="114.2749" x2="-205.7373" y2="114.2749" gradientTransform="matrix(57.3027 0 0 57.3027 12281.0293 -6435.9351)">
				<stop  offset="0" style="stop-color:#A91F24"/>
				<stop  offset="1" style="stop-color:#E83527"/>
			</linearGradient>
			<rect x="434.407" y="74.456" clip-path="url(#SVGID_26_)" fill="url(#SVGID_27_)" width="57.304" height="75.695"/>
		</g>
	</g>
	<g>
		<g>
			<defs>
				<rect id="SVGID_28_" x="-33.093" y="-134.17" width="1000" height="595.28"/>
			</defs>
			<clipPath id="SVGID_29_">
				<use xlink:href="#SVGID_28_"  overflow="visible"/>
			</clipPath>
			<path clip-path="url(#SVGID_29_)" fill="#4A443B" d="M428.702,279.877c0,0-2.42,0.473-2.575,1.598
				c-0.156,1.125,0.213,2.605,0.213,2.605l31.784-1.914l-0.297-2.992L428.702,279.877z"/>
		</g>
		<g>
			<defs>
				<rect id="SVGID_30_" x="-33.093" y="-134.17" width="1000" height="595.28"/>
			</defs>
			<clipPath id="SVGID_31_">
				<use xlink:href="#SVGID_30_"  overflow="visible"/>
			</clipPath>
			<path clip-path="url(#SVGID_31_)" fill="#4A443B" d="M433.419,274.667c0,0-4.609,7.297-3.19,9.566h2.838l1.986-10.783
				L433.419,274.667z"/>
		</g>
	</g>
	<g>
		<g>
			<defs>
				<path id="SVGID_32_" d="M437.829,157.258l0.114-0.004c-0.018-0.019-0.036-0.028-0.054-0.028
					C437.869,157.227,437.85,157.237,437.829,157.258 M437.943,157.254c1.636,1.787-0.339,85.998-0.339,85.998
					s15.328,10.006,24.695-0.715l2.555-71.471l4.257,71.471c0,0,22.14,7.148,26.396-1.431l-3.751-85.46L437.943,157.254z"/>
			</defs>
			<clipPath id="SVGID_33_">
				<use xlink:href="#SVGID_32_"  overflow="visible"/>
			</clipPath>
			
				<linearGradient id="SVGID_34_" gradientUnits="userSpaceOnUse" x1="-206.77" y1="114.2754" x2="-205.77" y2="114.2754" gradientTransform="matrix(57.9028 0 0 57.9028 12410.1465 -6412.4155)">
				<stop  offset="0" style="stop-color:#C4882B"/>
				<stop  offset="1" style="stop-color:#F1BA33"/>
				<stop  offset="1" style="stop-color:#687533"/>
			</linearGradient>
			<rect x="437.604" y="155.647" clip-path="url(#SVGID_33_)" fill="url(#SVGID_34_)" width="57.904" height="97.611"/>
		</g>
	</g>
	<g>
		<g>
			<defs>
				<path id="SVGID_35_" d="M439.052,149.393c-2.557,0-4.629,2.16-4.629,4.824c0,2.668,2.072,4.828,4.629,4.828h50.638
					c2.555,0,4.629-2.16,4.629-4.828c0-2.664-2.074-4.824-4.629-4.824H439.052z"/>
			</defs>
			<clipPath id="SVGID_36_">
				<use xlink:href="#SVGID_35_"  overflow="visible"/>
			</clipPath>
			
				<linearGradient id="SVGID_37_" gradientUnits="userSpaceOnUse" x1="-206.8711" y1="114.0703" x2="-205.8711" y2="114.0703" gradientTransform="matrix(59.896 0 0 59.896 12825.1777 -6678.146)">
				<stop  offset="0" style="stop-color:#A91F24"/>
				<stop  offset="1" style="stop-color:#E83527"/>
			</linearGradient>
			<rect x="434.423" y="149.393" clip-path="url(#SVGID_36_)" fill="url(#SVGID_37_)" width="59.896" height="9.652"/>
		</g>
	</g>
	<g>
		<g>
			<defs>
				<rect id="SVGID_38_" x="-33.093" y="-134.17" width="1000" height="595.28"/>
			</defs>
			<clipPath id="SVGID_39_">
				<use xlink:href="#SVGID_38_"  overflow="visible"/>
			</clipPath>
			<path clip-path="url(#SVGID_39_)" fill="#352215" d="M454.211,25.748c0,0,17.036,15.054,26.354,12.46c0,0,4.382-0.435,6.08-6.858
				c0,0-4.318-3.598-8.737-8.327C473.486,18.295,446.193,12.796,454.211,25.748"/>
		</g>
		<g>
			<defs>
				<rect id="SVGID_40_" x="-33.093" y="-134.17" width="1000" height="595.28"/>
			</defs>
			<clipPath id="SVGID_41_">
				<use xlink:href="#SVGID_40_"  overflow="visible"/>
			</clipPath>
			<path clip-path="url(#SVGID_41_)" fill="#352215" d="M445.642,39.828c0,0-0.433-12.079,10.354-15.107
				c0,0-4.353-3.785-0.188-5.675C455.808,19.046,435.477,23.141,445.642,39.828"/>
		</g>
	</g>
	<g>
		<g>
			<defs>
				<path id="SVGID_42_" d="M450.13,22.45c0,0,7.569,5.301,26.873,0c0,0,1.892-1.136-4.544-1.892c0,0-20.06,3.407-20.06,0
					c0-1.1-0.631-1.529-1.359-1.529C449.516,19.029,447.568,20.914,450.13,22.45"/>
			</defs>
			<clipPath id="SVGID_43_">
				<use xlink:href="#SVGID_42_"  overflow="visible"/>
			</clipPath>
			
				<linearGradient id="SVGID_44_" gradientUnits="userSpaceOnUse" x1="-203.5967" y1="119.1533" x2="-202.5967" y2="119.1533" gradientTransform="matrix(28.376 0 0 28.376 6226.1309 -3357.7007)">
				<stop  offset="0" style="stop-color:#C4882B"/>
				<stop  offset="1" style="stop-color:#F1BA33"/>
				<stop  offset="1" style="stop-color:#687533"/>
			</linearGradient>
			<rect x="447.568" y="19.029" clip-path="url(#SVGID_43_)" fill="url(#SVGID_44_)" width="31.326" height="8.722"/>
		</g>
	</g>
	<g>
		<g>
			<defs>
				<rect id="SVGID_45_" x="-33.093" y="-134.17" width="1000" height="595.28"/>
			</defs>
			<clipPath id="SVGID_46_">
				<use xlink:href="#SVGID_45_"  overflow="visible"/>
			</clipPath>
			<path clip-path="url(#SVGID_46_)" fill="#FDFEFF" d="M485.481,158.758c0,2.927-2.372,5.3-5.297,5.3h-29.144
				c-2.925,0-5.296-2.373-5.296-5.3v-41.063c0-2.927,2.371-5.297,5.296-5.297h29.144c2.925,0,5.297,2.37,5.297,5.297V158.758z"/>
		</g>
		<g>
			<defs>
				<rect id="SVGID_47_" x="-33.093" y="-134.17" width="1000" height="595.28"/>
			</defs>
			<clipPath id="SVGID_48_">
				<use xlink:href="#SVGID_47_"  overflow="visible"/>
			</clipPath>
			<path clip-path="url(#SVGID_48_)" fill="#9FA1A4" d="M470.654,129.207c-1.757,1.293-1.812,3.646,0.285,4.904
				c-0.425,1.056-0.901,2.084-1.799,2.852c-0.437,0.374-0.971,0.437-1.479,0.219c-0.936-0.407-1.833-0.464-2.778-0.019
				c-0.626,0.292-1.231,0.143-1.718-0.369c-1.563-1.656-2.332-3.608-2.045-5.894c0.239-1.9,2.077-3.459,4.181-2.498
				c0.564,0.258,1.071,0.207,1.624-0.033c1.046-0.453,2.076-0.422,3.046,0.237C470.201,128.764,470.397,128.979,470.654,129.207"/>
		</g>
		<g>
			<defs>
				<rect id="SVGID_49_" x="-33.093" y="-134.17" width="1000" height="595.28"/>
			</defs>
			<clipPath id="SVGID_50_">
				<use xlink:href="#SVGID_49_"  overflow="visible"/>
			</clipPath>
			<path clip-path="url(#SVGID_50_)" fill="#9FA1A4" d="M466.039,127.892c-0.11-1.379,0.941-2.585,2.309-2.691
				C468.622,126.521,467.432,127.936,466.039,127.892"/>
		</g>
	</g>
	<g>
		<g>
			<defs>
				<path id="SVGID_51_" d="M419.339,117.536c-0.738,3.615,10.388,30.316,14.959,36.675c-0.089,0.972,0.01,2.017,0.332,3.064
					c-0.007,0.008-0.013,0.016-0.018,0.02c0.007,0,0.017,0,0.021-0.002c0.065,0.211,0.142,0.422,0.223,0.633l1.361,3.463
					c1.35,3.441,4.565,5.398,7.177,4.374l2.891-1.136c2.614-1.024,3.638-4.648,2.287-8.09l-1.36-3.463
					c-0.674-1.716-1.814-3.054-3.111-3.846c-0.343,0.135-0.689,0.268-1.032,0.401l-12.606-32.197L441.05,98.02
					c0,0,4.357-8.55-0.707-16.613C440.343,81.406,420.165,113.504,419.339,117.536"/>
			</defs>
			<clipPath id="SVGID_52_">
				<use xlink:href="#SVGID_51_"  overflow="visible"/>
			</clipPath>
			
				<linearGradient id="SVGID_53_" gradientUnits="userSpaceOnUse" x1="-213.1094" y1="115.3325" x2="-212.1087" y2="115.3325" gradientTransform="matrix(-48.4982 2.9394 2.9394 48.4982 -10220.7441 -4844.1089)">
				<stop  offset="0" style="stop-color:#D29C44"/>
				<stop  offset="0.0032" style="stop-color:#D29C44"/>
				<stop  offset="0.1453" style="stop-color:#D9A551"/>
				<stop  offset="0.5029" style="stop-color:#EABA6E"/>
				<stop  offset="0.7964" style="stop-color:#F5C87F"/>
				<stop  offset="0.9875" style="stop-color:#F9CD86"/>
				<stop  offset="1" style="stop-color:#F9CD86"/>
			</linearGradient>
			<polygon clip-path="url(#SVGID_52_)" fill="url(#SVGID_53_)" points="449.807,79.515 413.445,81.719 418.715,168.68 
				455.078,166.476 			"/>
		</g>
	</g>
	<g>
		<g>
			<defs>
				<path id="SVGID_54_" d="M489.032,97.515l10.748,19.323l-12.343,32.302c-0.347-0.132-0.693-0.26-1.039-0.393
					c-1.287,0.801-2.418,2.149-3.078,3.871l-1.331,3.475c-1.321,3.451-0.27,7.066,2.353,8.072l2.9,1.11
					c2.62,1.007,5.819-0.979,7.143-4.433l1.331-3.475c0.081-0.209,0.152-0.42,0.218-0.633c0.006,0.001,0.014,0.004,0.021,0.004
					c-0.005-0.005-0.01-0.013-0.017-0.021c0.311-1.053,0.4-2.098,0.307-3.068c4.521-6.393,15.428-33.188,14.658-36.795
					c-0.858-4.026-21.296-35.957-21.296-35.957C484.605,89,489.032,97.515,489.032,97.515"/>
			</defs>
			<clipPath id="SVGID_55_">
				<use xlink:href="#SVGID_54_"  overflow="visible"/>
			</clipPath>
			
				<linearGradient id="SVGID_56_" gradientUnits="userSpaceOnUse" x1="-205.8979" y1="114.9253" x2="-204.8973" y2="114.9253" gradientTransform="matrix(48.5193 2.5411 -2.5411 48.5193 10758.668 -4930.3511)">
				<stop  offset="0" style="stop-color:#D29C44"/>
				<stop  offset="0.0032" style="stop-color:#D29C44"/>
				<stop  offset="0.1453" style="stop-color:#D9A551"/>
				<stop  offset="0.5029" style="stop-color:#EABA6E"/>
				<stop  offset="0.7964" style="stop-color:#F5C87F"/>
				<stop  offset="0.9875" style="stop-color:#F9CD86"/>
				<stop  offset="1" style="stop-color:#F9CD86"/>
			</linearGradient>
			<polygon clip-path="url(#SVGID_55_)" fill="url(#SVGID_56_)" points="480.751,79.278 516.129,81.131 511.584,167.9 
				476.208,166.047 			"/>
		</g>
	</g>
	<g>
		<g>
			<defs>
				<path id="SVGID_57_" d="M473.406,74.062c-0.441,10.896-4.389,10.715-9.286,10.534c-0.813-0.03-1.654-0.06-2.51-0.04
					c-6,0.15-7.538-11.265-7.538-11.265l-19.648,5.19c0,0,4.104,10.496,28.211,13.811s30.264-13.811,30.264-13.811l-20.02-6.297
					L473.406,74.062z"/>
			</defs>
			<clipPath id="SVGID_58_">
				<use xlink:href="#SVGID_57_"  overflow="visible"/>
			</clipPath>
			
				<linearGradient id="SVGID_59_" gradientUnits="userSpaceOnUse" x1="-206.8003" y1="114.2046" x2="-205.8003" y2="114.2046" gradientTransform="matrix(58.4751 0 0 58.4751 12527.0684 -6594.2476)">
				<stop  offset="0" style="stop-color:#C4882B"/>
				<stop  offset="1" style="stop-color:#F1BA33"/>
				<stop  offset="1" style="stop-color:#687533"/>
			</linearGradient>
			<rect x="434.423" y="72.184" clip-path="url(#SVGID_58_)" fill="url(#SVGID_59_)" width="58.475" height="23.423"/>
		</g>
	</g>
	<g>
		<g>
			<defs>
				<path id="SVGID_60_" d="M437.262,235.342l0.342,7.91c17.376,10.18,24.695-0.715,24.695-0.715l0.511-7.762
					C451.456,245.846,437.262,235.342,437.262,235.342"/>
			</defs>
			<clipPath id="SVGID_61_">
				<use xlink:href="#SVGID_60_"  overflow="visible"/>
			</clipPath>
			
				<linearGradient id="SVGID_62_" gradientUnits="userSpaceOnUse" x1="-202.9067" y1="120.2749" x2="-201.9067" y2="120.2749" gradientTransform="matrix(25.5469 0 0 25.5469 5620.9053 -2828.5376)">
				<stop  offset="0" style="stop-color:#A91F24"/>
				<stop  offset="1" style="stop-color:#E83527"/>
			</linearGradient>
			<rect x="437.262" y="234.776" clip-path="url(#SVGID_61_)" fill="url(#SVGID_62_)" width="25.548" height="18.655"/>
		</g>
	</g>
	<g>
		<g>
			<defs>
				<path id="SVGID_63_" d="M468.204,235.342l0.365,7.91c18.533,10.18,26.341-0.715,26.341-0.715l0.542-7.762
					C483.34,245.846,468.204,235.342,468.204,235.342"/>
			</defs>
			<clipPath id="SVGID_64_">
				<use xlink:href="#SVGID_63_"  overflow="visible"/>
			</clipPath>
			
				<linearGradient id="SVGID_65_" gradientUnits="userSpaceOnUse" x1="-203.3389" y1="119.6035" x2="-202.3389" y2="119.6035" gradientTransform="matrix(27.248 0 0 27.248 6008.7842 -3014.8501)">
				<stop  offset="0" style="stop-color:#A91F24"/>
				<stop  offset="1" style="stop-color:#E83527"/>
			</linearGradient>
			<rect x="468.204" y="234.776" clip-path="url(#SVGID_64_)" fill="url(#SVGID_65_)" width="27.248" height="18.655"/>
		</g>
	</g>
	<g>
		<g>
			<defs>
				<rect id="SVGID_66_" x="-33.093" y="-134.17" width="1000" height="595.28"/>
			</defs>
			<clipPath id="SVGID_67_">
				<use xlink:href="#SVGID_66_"  overflow="visible"/>
			</clipPath>
			<path clip-path="url(#SVGID_67_)" fill="#E74C25" d="M936.752,280.719c0,10.812-8.771,19.582-19.586,19.582H714.792
				c-10.816,0-19.586-8.77-19.586-19.582V19.585C695.206,8.77,703.974,0,714.792,0h202.377c10.814,0,19.585,8.77,19.585,19.585
				L936.752,280.719L936.752,280.719z"/>
		</g>
		<g>
			<defs>
				<rect id="SVGID_68_" x="-33.093" y="-134.17" width="1000" height="595.28"/>
			</defs>
			<clipPath id="SVGID_69_">
				<use xlink:href="#SVGID_68_"  overflow="visible"/>
			</clipPath>
			<path clip-path="url(#SVGID_69_)" fill="#FFFFFF" d="M792.997,150.995l60.958,2.15c0,0,12.465-80.604-28.869-79.88
				C785.92,73.953,791.746,109.592,792.997,150.995"/>
		</g>
	</g>
	<g>
		<g>
			<defs>
				<path id="SVGID_70_" d="M831.421,198.01l2.687,46.175c0.121,7.474,0.489,14.991,1.111,22.44
					c0.328,3.963-1.18,9.492,1.307,12.973c2.368,3.316,7.098,2.328,10.624,2.836c6.005,0.869,12.008,1.764,18.013,2.635
					c1.148,0.17-1.351-5.783-1.7-6.216c-1.326-1.644-3.269-2.082-5.026-3.065c-2.554-1.432-9.724-3.453-9.706-7.271
					c0.006-1.391,0.423-76.665,0.423-76.665L831.421,198.01z"/>
			</defs>
			<clipPath id="SVGID_71_">
				<use xlink:href="#SVGID_70_"  overflow="visible"/>
			</clipPath>
			
				<linearGradient id="SVGID_72_" gradientUnits="userSpaceOnUse" x1="-204.6182" y1="117.5806" x2="-203.6182" y2="117.5806" gradientTransform="matrix(33.8115 -0.0895 0.0895 33.8115 7739.4805 -3755.2593)">
				<stop  offset="0" style="stop-color:#D29C44"/>
				<stop  offset="0.0032" style="stop-color:#D29C44"/>
				<stop  offset="0.1539" style="stop-color:#DEAB5A"/>
				<stop  offset="0.3313" style="stop-color:#E9B96D"/>
				<stop  offset="0.5205" style="stop-color:#F2C47B"/>
				<stop  offset="0.7279" style="stop-color:#F7CB83"/>
				<stop  offset="0.9875" style="stop-color:#F9CD86"/>
				<stop  offset="1" style="stop-color:#F9CD86"/>
			</linearGradient>
			<polygon clip-path="url(#SVGID_71_)" fill="url(#SVGID_72_)" points="831.174,191.851 866.31,191.758 866.558,285.237 
				831.422,285.331 			"/>
		</g>
	</g>
	<g>
		<g>
			<defs>
				<rect id="SVGID_73_" x="-33.093" y="-134.17" width="1000" height="595.28"/>
			</defs>
			<clipPath id="SVGID_74_">
				<use xlink:href="#SVGID_73_"  overflow="visible"/>
			</clipPath>
			<path clip-path="url(#SVGID_74_)" fill="#4A443B" d="M865.018,283.206c0,0,2.443,0.436,2.618,1.565
				c0.173,1.128-0.174,2.625-0.174,2.625l-32.003-1.403l0.247-3.014L865.018,283.206z"/>
		</g>
	</g>
	<g>
		<g>
			<defs>
				<path id="SVGID_75_" d="M800.44,268.17c0.09,3.818-7.04,5.974-9.566,7.453c-1.74,1.02-3.672,1.496-4.967,3.16
					c-0.341,0.441-2.729,6.438-1.584,6.252c5.989-0.988,11.974-1.996,17.961-2.979c3.517-0.575,8.263,0.321,10.567-3.039
					c2.42-3.526,0.807-9.026,1.062-12.995c0.479-7.461,0.703-14.984,0.685-22.459l1.81-46.213l-17.847-5.825
					C798.56,191.525,800.408,266.78,800.44,268.17"/>
			</defs>
			<clipPath id="SVGID_76_">
				<use xlink:href="#SVGID_75_"  overflow="visible"/>
			</clipPath>
			
				<linearGradient id="SVGID_77_" gradientUnits="userSpaceOnUse" x1="-204.4287" y1="117.8755" x2="-203.4282" y2="117.8755" gradientTransform="matrix(32.6221 -0.0864 0.0864 32.6221 7442.583 -3624.5737)">
				<stop  offset="0" style="stop-color:#D29C44"/>
				<stop  offset="0.0032" style="stop-color:#D29C44"/>
				<stop  offset="0.1453" style="stop-color:#D9A551"/>
				<stop  offset="0.5029" style="stop-color:#EABA6E"/>
				<stop  offset="0.7964" style="stop-color:#F5C87F"/>
				<stop  offset="0.9875" style="stop-color:#F9CD86"/>
				<stop  offset="1" style="stop-color:#F9CD86"/>
			</linearGradient>
			<polygon clip-path="url(#SVGID_76_)" fill="url(#SVGID_77_)" points="782.928,191.526 816.407,191.438 816.655,285.222 
				783.177,285.311 			"/>
		</g>
	</g>
	<g>
		<g>
			<defs>
				<path id="SVGID_78_" d="M789.795,212.14c0,0,13.468,17.099,33.408-0.373l1.278-56.544l-31.699-0.771
					C792.784,154.45,772.612,193.338,789.795,212.14"/>
			</defs>
			<clipPath id="SVGID_79_">
				<use xlink:href="#SVGID_78_"  overflow="visible"/>
			</clipPath>
			
				<linearGradient id="SVGID_80_" gradientUnits="userSpaceOnUse" x1="-205.603" y1="116.1704" x2="-204.6034" y2="116.1704" gradientTransform="matrix(41.7148 -0.1105 0.1105 41.7148 9346.7168 -4676.8394)">
				<stop  offset="0" style="stop-color:#A91F24"/>
				<stop  offset="1" style="stop-color:#E83527"/>
			</linearGradient>
			<polygon clip-path="url(#SVGID_79_)" fill="url(#SVGID_80_)" points="772.414,154.452 824.482,154.313 824.681,229.239 
				772.612,229.375 			"/>
		</g>
	</g>
	<g>
		<g>
			<defs>
				<path id="SVGID_81_" d="M819.702,156.375l1.577,56.537c20.034,17.367,33.41,0.198,33.41,0.198
					c17.083-18.894-3.293-57.674-3.293-57.674L819.702,156.375z"/>
			</defs>
			<clipPath id="SVGID_82_">
				<use xlink:href="#SVGID_81_"  overflow="visible"/>
			</clipPath>
			
				<linearGradient id="SVGID_83_" gradientUnits="userSpaceOnUse" x1="-205.6035" y1="116.1694" x2="-204.6035" y2="116.1694" gradientTransform="matrix(41.7148 -0.1105 0.1105 41.7148 9383.6543 -4675.7769)">
				<stop  offset="0" style="stop-color:#A91F24"/>
				<stop  offset="1" style="stop-color:#E83527"/>
			</linearGradient>
			<polygon clip-path="url(#SVGID_82_)" fill="url(#SVGID_83_)" points="819.503,155.438 871.771,155.299 871.97,230.28 
				819.702,230.418 			"/>
		</g>
	</g>
	<g>
		<g>
			<defs>
				<rect id="SVGID_84_" x="-33.093" y="-134.17" width="1000" height="595.28"/>
			</defs>
			<clipPath id="SVGID_85_">
				<use xlink:href="#SVGID_84_"  overflow="visible"/>
			</clipPath>
			<path clip-path="url(#SVGID_85_)" fill="#EAB862" d="M829.506,75.062c0.009,3.785-3.697,6.864-8.279,6.877l-0.922,0.001
				c-4.58,0.012-8.305-3.047-8.313-6.832l-0.031-11.803c-0.011-3.784,3.697-6.861,8.278-6.874l0.921-0.002
				c4.582-0.013,8.306,3.047,8.314,6.831L829.506,75.062z"/>
		</g>
	</g>
	<g>
		<g>
			<defs>
				<path id="SVGID_86_" d="M849.178,149.732l-54.562,0.145c-2.756,0.006-4.981,2.185-4.976,4.868
					c0.009,2.68,2.246,4.846,5.002,4.84l54.561-0.145c2.753-0.007,4.981-2.186,4.975-4.867c-0.007-2.677-2.236-4.841-4.982-4.841
					C849.19,149.732,849.184,149.732,849.178,149.732"/>
			</defs>
			<clipPath id="SVGID_87_">
				<use xlink:href="#SVGID_86_"  overflow="visible"/>
			</clipPath>
			
				<linearGradient id="SVGID_88_" gradientUnits="userSpaceOnUse" x1="-207.0957" y1="113.7524" x2="-206.0952" y2="113.7524" gradientTransform="matrix(64.5352 -0.1709 0.1709 64.5352 14135.084 -7221.6226)">
				<stop  offset="0" style="stop-color:#A91F24"/>
				<stop  offset="1" style="stop-color:#E83527"/>
			</linearGradient>
			<polygon clip-path="url(#SVGID_87_)" fill="url(#SVGID_88_)" points="789.61,149.732 854.185,149.562 854.211,159.59 
				789.636,159.762 			"/>
		</g>
	</g>
	<g>
		<g>
			<defs>
				<path id="SVGID_89_" d="M824.483,155.222l-2.286,0.005c-3.784,0.012-6.844,3.089-6.832,6.873l0.003,1.712
					c0.006,2.319,1.166,4.362,2.937,5.601c-0.853,12.791-2.393,38.942-1.095,43.225c1.729,5.71,5.168,10.27,5.168,10.27
					s5.7-4.015,6.826-10.299l-1.588-42.719c2.226-1.139,3.751-3.448,3.743-6.118l-0.005-1.712c-0.01-3.78-3.076-6.836-6.854-6.836
					C824.495,155.222,824.489,155.222,824.483,155.222"/>
			</defs>
			<clipPath id="SVGID_90_">
				<use xlink:href="#SVGID_89_"  overflow="visible"/>
			</clipPath>
			
				<linearGradient id="SVGID_91_" gradientUnits="userSpaceOnUse" x1="-198.8208" y1="126.5366" x2="-197.8208" y2="126.5366" gradientTransform="matrix(15.9902 -0.0423 0.0423 15.9902 3989.2944 -1842.6538)">
				<stop  offset="0" style="stop-color:#A91F24"/>
				<stop  offset="1" style="stop-color:#E83527"/>
			</linearGradient>
			<polygon clip-path="url(#SVGID_90_)" fill="url(#SVGID_91_)" points="815.173,155.223 831.367,155.18 831.545,222.905 
				815.353,222.948 			"/>
		</g>
	</g>
	<g>
		<g>
			<defs>
				<rect id="SVGID_92_" x="-33.093" y="-134.17" width="1000" height="595.28"/>
			</defs>
			<clipPath id="SVGID_93_">
				<use xlink:href="#SVGID_92_"  overflow="visible"/>
			</clipPath>
			<path clip-path="url(#SVGID_93_)" fill="#FFFFFF" d="M810.373,75.304c0,0-1.876,9.904,5.742,11.788
				c7.621,1.883,14.468-0.801,15.216-6.133l-0.02-6.852c0,0,11.05,3.397,12.578,4.915l5.289,70.711l-55.043-0.17l4.067-68.896
				C798.204,80.666,808.47,75.309,810.373,75.304"/>
		</g>
		<g>
			<defs>
				<rect id="SVGID_94_" x="-33.093" y="-134.17" width="1000" height="595.28"/>
			</defs>
			<clipPath id="SVGID_95_">
				<use xlink:href="#SVGID_94_"  overflow="visible"/>
			</clipPath>
			<path clip-path="url(#SVGID_95_)" fill="#4A443B" d="M784.433,283.167c0,0-2.435,0.484-2.585,1.613
				c-0.153,1.133,0.22,2.623,0.22,2.623l31.972-2.012l-0.308-3.012L784.433,283.167z"/>
		</g>
		<g>
			<defs>
				<rect id="SVGID_96_" x="-33.093" y="-134.17" width="1000" height="595.28"/>
			</defs>
			<clipPath id="SVGID_97_">
				<use xlink:href="#SVGID_96_"  overflow="visible"/>
			</clipPath>
			<path clip-path="url(#SVGID_97_)" fill="#8F9293" d="M802.446,29.307l0.04,14.972l-3.14,0.008l-0.184-14.703
				C799.164,29.584,801.438,26.072,802.446,29.307"/>
		</g>
		<g>
			<defs>
				<rect id="SVGID_98_" x="-33.093" y="-134.17" width="1000" height="595.28"/>
			</defs>
			<clipPath id="SVGID_99_">
				<use xlink:href="#SVGID_98_"  overflow="visible"/>
			</clipPath>
			<path clip-path="url(#SVGID_99_)" fill="#8F9293" d="M840.139,29.206l0.041,14.974l-3.144,0.007l-0.181-14.701
				C836.857,29.486,839.131,25.971,840.139,29.206"/>
		</g>
	</g>
	<g>
		<g>
			<defs>
				<path id="SVGID_100_" d="M802.194,24.171c0.009,0.463,0.014,0.922,0.011,1.385l-0.341-0.654l0.34,0.75
					c-0.003,1.249-0.053,2.497-0.187,3.742c0.046,0.366,0.086,0.719,0.093,1.025c0.039,1.933,0.079,3.871,0.128,5.809
					c-2.269,0.497-3.955,2.359-3.948,4.585c0.006,2.32,1.849,4.24,4.267,4.617c0.034,0.771,0.074,1.541,0.115,2.313l0.146,13.525
					l0.172-0.424c0.076,0.61,0.2,1.202,0.415,1.762c1.514,3.957,6.254,6.007,10.408,7.382c4.04,1.339,7.556,1.64,11.812,0.966
					c7.836-1.243,13.207-4.462,13.104-12.545c-0.061-4.796-0.22-9.599-0.421-14.399c1.463-0.832,2.438-2.315,2.434-4.006
					c-0.004-1.83-1.151-3.407-2.82-4.181c-0.208-4.087-0.434-8.173-0.647-12.253c0,0-3.451-8.907-17.443-9.116
					c-0.136-0.002-0.271-0.003-0.404-0.003C807.96,14.451,803.375,21.796,802.194,24.171"/>
			</defs>
			<clipPath id="SVGID_101_">
				<use xlink:href="#SVGID_100_"  overflow="visible"/>
			</clipPath>
			
				<linearGradient id="SVGID_102_" gradientUnits="userSpaceOnUse" x1="-205.6763" y1="115.9473" x2="-204.6763" y2="115.9473" gradientTransform="matrix(42.4512 -0.1124 0.1124 42.4512 9516.4609 -4902.0894)">
				<stop  offset="0" style="stop-color:#D29C44"/>
				<stop  offset="0.0032" style="stop-color:#D29C44"/>
				<stop  offset="0.1453" style="stop-color:#D9A551"/>
				<stop  offset="0.5029" style="stop-color:#EABA6E"/>
				<stop  offset="0.7964" style="stop-color:#F5C87F"/>
				<stop  offset="0.9875" style="stop-color:#F9CD86"/>
				<stop  offset="1" style="stop-color:#F9CD86"/>
			</linearGradient>
			<polygon clip-path="url(#SVGID_101_)" fill="url(#SVGID_102_)" points="798.131,14.452 840.745,14.339 840.896,71.628 
				798.283,71.741 			"/>
		</g>
	</g>
	<g>
		<g>
			<defs>
				<rect id="SVGID_103_" x="-33.093" y="-134.17" width="1000" height="595.28"/>
			</defs>
			<clipPath id="SVGID_104_">
				<use xlink:href="#SVGID_103_"  overflow="visible"/>
			</clipPath>
			<path clip-path="url(#SVGID_104_)" fill="#352215" d="M819.226,12.193c0,0,1.301,11.414-0.917,12.688
				c-2.219,1.274-14.119,1.52-16.647,5.119c-2.531,3.6-8.721,2.983-9.218-5.261c0,0,5.086,3.37,6.664,0.193
				C800.687,21.756,798.112,8.021,819.226,12.193"/>
		</g>
		<g>
			<defs>
				<rect id="SVGID_105_" x="-33.093" y="-134.17" width="1000" height="595.28"/>
			</defs>
			<clipPath id="SVGID_106_">
				<use xlink:href="#SVGID_105_"  overflow="visible"/>
			</clipPath>
			<path clip-path="url(#SVGID_106_)" fill="#352215" d="M819.862,12.191c0,0-0.604,12.055,1.621,13.316
				c2.227,1.263,13.297,0.177,15.844,3.764c2.549,3.588,8.735,2.938,9.189-5.31c0,0-5.069,3.397-6.663,0.23
				C838.256,21.023,840.955,7.906,819.862,12.191"/>
		</g>
		<g>
			<defs>
				<rect id="SVGID_107_" x="-33.093" y="-134.17" width="1000" height="595.28"/>
			</defs>
			<clipPath id="SVGID_108_">
				<use xlink:href="#SVGID_107_"  overflow="visible"/>
			</clipPath>
			<path clip-path="url(#SVGID_108_)" fill="#4A443B" d="M859.814,275.172c0,0,4.761,7.269,3.37,9.572l-2.857,0.047l-2.174-10.816
				L859.814,275.172z"/>
		</g>
		<g>
			<defs>
				<rect id="SVGID_109_" x="-33.093" y="-134.17" width="1000" height="595.28"/>
			</defs>
			<clipPath id="SVGID_110_">
				<use xlink:href="#SVGID_109_"  overflow="visible"/>
			</clipPath>
			<path clip-path="url(#SVGID_110_)" fill="#4A443B" d="M792.252,275.01c0,0-4.618,7.355-3.185,9.635l2.854-0.007l1.971-10.854
				L792.252,275.01z"/>
		</g>
		<g>
			<defs>
				<rect id="SVGID_111_" x="-33.093" y="-134.17" width="1000" height="595.28"/>
			</defs>
			<clipPath id="SVGID_112_">
				<use xlink:href="#SVGID_111_"  overflow="visible"/>
			</clipPath>
			<path clip-path="url(#SVGID_112_)" fill="#FDFEFF" d="M811.184,51.741c1.054,1.408,1.362,3.132,0.687,3.857l-6.682,7.259
				c-0.67,0.736-2.069,0.185-3.124-1.23l-14.898-20.102c-1.066-1.451-1.386-3.213-0.714-3.937l6.718-7.156
				c0.676-0.713,2.088-0.12,3.151,1.322L811.184,51.741z"/>
		</g>
		<g>
			<defs>
				<rect id="SVGID_113_" x="-33.093" y="-134.17" width="1000" height="595.28"/>
			</defs>
			<clipPath id="SVGID_114_">
				<use xlink:href="#SVGID_113_"  overflow="visible"/>
			</clipPath>
			<path clip-path="url(#SVGID_114_)" fill="#9FA1A4" d="M797.466,40.622c-0.071,1.207,0.767,2.377,1.866,2.304
				c0.252,0.654,0.479,1.315,0.48,1.985c0.002,0.324-0.14,0.531-0.373,0.59c-0.436,0.11-0.729,0.378-0.859,0.906
				c-0.085,0.35-0.324,0.475-0.658,0.385c-1.08-0.294-2.022-0.995-2.765-2.211c-0.615-1.009-0.62-2.38,0.374-2.599
				c0.267-0.06,0.402-0.252,0.485-0.549c0.156-0.566,0.484-0.889,1.021-0.882C797.167,40.552,797.303,40.593,797.466,40.622"/>
		</g>
		<g>
			<defs>
				<rect id="SVGID_115_" x="-33.093" y="-134.17" width="1000" height="595.28"/>
			</defs>
			<clipPath id="SVGID_116_">
				<use xlink:href="#SVGID_115_"  overflow="visible"/>
			</clipPath>
			<path clip-path="url(#SVGID_116_)" fill="#9FA1A4" d="M795.574,41.489c-0.535-0.642-0.649-1.578-0.271-2.078
				C795.868,39.969,796.016,41.052,795.574,41.489"/>
		</g>
	</g>
	<g>
		<g>
			<defs>
				<path id="SVGID_117_" d="M793.963,48.84l-2.272,2.974c-0.995,1.303-1.548,2.763-1.669,4.138l-21.948,25.719
					c0,0-3.465,4.26-1.027,6.786c2.437,2.525,30.413,5.952,30.413,5.952s3.373-7.325,1.08-11.369l-16.981-2.382l15.065-17.731
					c0.091,0.091,0.188,0.18,0.276,0.271c0.063-0.07,0.13-0.139,0.189-0.207c1.645-0.115,3.4-1.006,4.771-2.536
					c0.01,0,0.019,0.002,0.027,0.002c-0.005-0.005-0.01-0.01-0.018-0.016c0.15-0.165,0.293-0.339,0.431-0.522l2.271-2.972
					c2.261-2.957,2.272-6.743,0.026-8.457l-2.483-1.897c-0.742-0.566-1.638-0.836-2.586-0.836
					C797.608,45.757,795.474,46.862,793.963,48.84"/>
			</defs>
			<clipPath id="SVGID_118_">
				<use xlink:href="#SVGID_117_"  overflow="visible"/>
			</clipPath>
			
				<linearGradient id="SVGID_119_" gradientUnits="userSpaceOnUse" x1="-205.0898" y1="115.5161" x2="-204.0894" y2="115.5161" gradientTransform="matrix(42.4117 4.0375 -4.0375 42.4117 9926.623 -4003.3745)">
				<stop  offset="0" style="stop-color:#D29C44"/>
				<stop  offset="0.0032" style="stop-color:#D29C44"/>
				<stop  offset="0.1453" style="stop-color:#D9A551"/>
				<stop  offset="0.5029" style="stop-color:#EABA6E"/>
				<stop  offset="0.7964" style="stop-color:#F5C87F"/>
				<stop  offset="0.9875" style="stop-color:#F9CD86"/>
				<stop  offset="1" style="stop-color:#F9CD86"/>
			</linearGradient>
			<polygon clip-path="url(#SVGID_118_)" fill="url(#SVGID_119_)" points="764.988,41.773 811.434,46.194 806.464,98.394 
				760.019,93.973 			"/>
		</g>
	</g>
	<g>
		<g>
			<defs>
				<path id="SVGID_120_" d="M844.107,95.748l11.867,18.814l-10.612,33.128c-0.354-0.112-0.709-0.222-1.064-0.337
					c-1.249,0.877-2.312,2.294-2.877,4.062l-1.146,3.561c-1.138,3.542,0.119,7.113,2.808,7.977l2.977,0.957
					c2.688,0.863,5.791-1.305,6.929-4.847l1.145-3.565c0.07-0.213,0.132-0.431,0.183-0.646c0.008,0,0.016,0,0.023,0.002
					c-0.009-0.007-0.013-0.013-0.019-0.021c0.255-1.074,0.289-2.129,0.139-3.1c4.186-6.672,13.659-34.188,12.688-37.769
					c-1.084-3.995-23.38-34.941-23.38-34.941C839.191,87.437,844.107,95.748,844.107,95.748"/>
			</defs>
			<clipPath id="SVGID_121_">
				<use xlink:href="#SVGID_120_"  overflow="visible"/>
			</clipPath>
			
				<linearGradient id="SVGID_122_" gradientUnits="userSpaceOnUse" x1="-206.2207" y1="115.1079" x2="-205.2207" y2="115.1079" gradientTransform="matrix(48.874 -0.1294 0.1294 48.874 10896.9922 -5530.5229)">
				<stop  offset="0" style="stop-color:#D29C44"/>
				<stop  offset="0.0032" style="stop-color:#D29C44"/>
				<stop  offset="0.1453" style="stop-color:#D9A551"/>
				<stop  offset="0.5029" style="stop-color:#EABA6E"/>
				<stop  offset="0.7964" style="stop-color:#F5C87F"/>
				<stop  offset="0.9875" style="stop-color:#F9CD86"/>
				<stop  offset="1" style="stop-color:#F9CD86"/>
			</linearGradient>
			<polygon clip-path="url(#SVGID_121_)" fill="url(#SVGID_122_)" points="838.91,79.022 868.117,78.945 868.344,164.771 
				839.137,164.848 			"/>
		</g>
	</g>
	<g>
		<g>
			<defs>
				<rect id="SVGID_123_" x="-33.093" y="-134.17" width="1000" height="595.28"/>
			</defs>
			<clipPath id="SVGID_124_">
				<use xlink:href="#SVGID_123_"  overflow="visible"/>
			</clipPath>
			<path clip-path="url(#SVGID_124_)" fill="#F3AB1D" d="M758.129,143.837c1.193,0.341,2.24,0.896,3.138,1.665
				c0.896,0.769,1.622,1.688,2.178,2.754c0.556,1.239,0.833,2.477,0.833,3.715c0,1.152-0.225,2.242-0.673,3.266
				c-0.448,1.025-1.057,1.922-1.825,2.691c-0.77,0.768-1.665,1.377-2.689,1.824c-1.022,0.449-2.113,0.674-3.268,0.674h-4.163v3.906
				h-3.073v-3.906h-4.292v-0.065c-1.152,0-2.24-0.213-3.267-0.64c-1.023-0.428-1.922-1.025-2.689-1.793
				c-0.769-0.77-1.366-1.666-1.793-2.691c-0.428-1.023-0.641-2.113-0.641-3.266h3.074c0,1.494,0.521,2.754,1.568,3.779
				c1.047,1.024,2.295,1.537,3.745,1.537v0.063h4.292h3.074h4.163c1.495,0,2.755-0.522,3.779-1.569
				c1.024-1.045,1.538-2.316,1.538-3.811c0-1.238-0.374-2.326-1.122-3.267c-0.747-0.939-1.676-1.579-2.785-1.921l-0.32-0.064
				l-1.09-0.256l-12.872-3.011c-0.216-0.042-0.396-0.085-0.546-0.128c-0.15-0.042-0.331-0.084-0.544-0.128
				c-2.35-0.726-4.058-2.199-5.125-4.419c-0.555-1.196-0.831-2.412-0.831-3.651c0-1.153,0.213-2.242,0.64-3.266
				c0.428-1.025,1.025-1.921,1.793-2.69c0.77-0.769,1.666-1.377,2.69-1.826c1.025-0.448,2.113-0.673,3.266-0.673h4.292v-3.906h3.074
				v3.906h4.163c1.153,0,2.244,0.225,3.268,0.673c1.024,0.449,1.921,1.057,2.689,1.826c0.77,0.769,1.377,1.665,1.825,2.69
				c0.448,1.024,0.673,2.113,0.673,3.266h-3.075h-0.062c0-0.726-0.142-1.419-0.417-2.081c-0.278-0.662-0.652-1.239-1.121-1.729
				c-0.47-0.491-1.024-0.875-1.665-1.153c-0.642-0.278-1.345-0.417-2.114-0.417h-4.163h-3.073h-4.293
				c-0.726,0-1.419,0.139-2.08,0.417c-0.663,0.278-1.229,0.662-1.697,1.153c-0.47,0.49-0.843,1.056-1.121,1.696
				c-0.277,0.641-0.415,1.346-0.415,2.114c0,1.196,0.341,2.253,1.024,3.171c0.682,0.918,1.558,1.547,2.625,1.889l0.896,0.192
				l0.768,0.192l13.132,3.139C757.638,143.709,757.873,143.753,758.129,143.837"/>
		</g>
		<g>
			<defs>
				<rect id="SVGID_125_" x="-33.093" y="-134.17" width="1000" height="595.28"/>
			</defs>
			<clipPath id="SVGID_126_">
				<use xlink:href="#SVGID_125_"  overflow="visible"/>
			</clipPath>
			<path clip-path="url(#SVGID_126_)" fill="#F3AB1D" d="M905.025,207.265c0.837,0.239,1.569,0.63,2.198,1.168
				c0.628,0.536,1.137,1.181,1.523,1.929c0.39,0.867,0.583,1.734,0.583,2.602c0,0.808-0.155,1.57-0.47,2.287
				c-0.313,0.719-0.741,1.348-1.277,1.885c-0.537,0.539-1.168,0.966-1.885,1.279c-0.719,0.313-1.48,0.471-2.29,0.471h-2.914v2.736
				h-2.153v-2.736h-3.004v-0.045c-0.81,0-1.571-0.148-2.289-0.447c-0.72-0.301-1.347-0.719-1.886-1.258
				c-0.536-0.537-0.956-1.166-1.256-1.885c-0.299-0.717-0.447-1.479-0.447-2.287h2.154c0,1.047,0.364,1.931,1.099,2.646
				c0.732,0.719,1.605,1.076,2.625,1.076v0.045h3.004h2.154h2.913c1.049,0,1.931-0.365,2.648-1.098
				c0.717-0.733,1.076-1.625,1.076-2.672c0-0.865-0.263-1.627-0.785-2.287c-0.522-0.657-1.174-1.105-1.951-1.346l-0.225-0.045
				l-0.765-0.18l-9.016-2.107c-0.15-0.029-0.275-0.061-0.381-0.09s-0.232-0.06-0.382-0.091c-1.646-0.508-2.841-1.539-3.589-3.095
				c-0.39-0.838-0.583-1.688-0.583-2.559c0-0.808,0.148-1.568,0.447-2.287c0.301-0.715,0.72-1.346,1.257-1.883
				c0.539-0.541,1.166-0.966,1.885-1.279c0.718-0.314,1.479-0.471,2.289-0.471h3.004v-2.736h2.154v2.736h2.914
				c0.809,0,1.57,0.155,2.289,0.471c0.718,0.313,1.348,0.738,1.885,1.279c0.537,0.537,0.964,1.168,1.277,1.883
				c0.313,0.719,0.471,1.479,0.471,2.287h-2.152h-0.045c0-0.507-0.098-0.992-0.292-1.457c-0.195-0.463-0.456-0.865-0.784-1.211
				c-0.329-0.344-0.719-0.611-1.168-0.809c-0.447-0.193-0.941-0.291-1.48-0.291h-2.913h-2.154h-3.004
				c-0.511,0-0.996,0.098-1.459,0.291c-0.464,0.195-0.86,0.465-1.189,0.809c-0.328,0.346-0.591,0.739-0.785,1.188
				c-0.193,0.45-0.289,0.942-0.289,1.479c0,0.838,0.237,1.58,0.716,2.221c0.479,0.646,1.093,1.086,1.84,1.324l0.628,0.135
				l0.54,0.134l9.193,2.2C904.68,207.176,904.845,207.208,905.025,207.265"/>
		</g>
		<g>
			<defs>
				<rect id="SVGID_127_" x="-33.093" y="-134.17" width="1000" height="595.28"/>
			</defs>
			<clipPath id="SVGID_128_">
				<use xlink:href="#SVGID_127_"  overflow="visible"/>
			</clipPath>
			<path clip-path="url(#SVGID_128_)" fill="#F3AB1D" d="M757.6,261.01c0.521,0.15,0.98,0.394,1.373,0.73
				c0.394,0.336,0.712,0.737,0.954,1.204c0.243,0.542,0.364,1.084,0.364,1.626c0,0.506-0.098,0.98-0.296,1.43
				c-0.194,0.449-0.461,0.842-0.798,1.18c-0.337,0.337-0.729,0.602-1.178,0.798c-0.448,0.198-0.925,0.296-1.43,0.296h-1.822v1.71
				h-1.346v-1.71h-1.879v-0.027c-0.506,0-0.981-0.095-1.432-0.281c-0.448-0.188-0.841-0.447-1.176-0.785
				c-0.338-0.336-0.6-0.729-0.785-1.178c-0.188-0.449-0.28-0.926-0.28-1.431h1.346c0,0.655,0.229,1.207,0.687,1.654
				c0.458,0.448,1.005,0.673,1.643,0.673v0.027h1.878h1.346h1.822c0.654,0,1.205-0.227,1.652-0.686
				c0.449-0.457,0.675-1.015,0.675-1.67c0-0.542-0.164-1.018-0.491-1.43c-0.327-0.41-0.733-0.689-1.221-0.842l-0.14-0.026
				l-0.477-0.112l-5.637-1.318c-0.094-0.018-0.172-0.036-0.236-0.055c-0.066-0.02-0.146-0.037-0.239-0.057
				c-1.027-0.316-1.775-0.963-2.243-1.936c-0.243-0.523-0.363-1.055-0.363-1.598c0-0.507,0.093-0.982,0.28-1.432
				c0.188-0.448,0.447-0.842,0.785-1.178c0.335-0.336,0.728-0.601,1.176-0.799c0.449-0.197,0.927-0.295,1.433-0.295h1.878v-1.711
				h1.346v1.711h1.822c0.505,0,0.98,0.098,1.43,0.295c0.448,0.198,0.841,0.463,1.178,0.799s0.604,0.729,0.798,1.178
				c0.198,0.449,0.297,0.925,0.297,1.432h-1.347h-0.027c0-0.318-0.062-0.621-0.185-0.912c-0.12-0.289-0.284-0.541-0.49-0.758
				c-0.205-0.214-0.447-0.382-0.729-0.504s-0.589-0.182-0.925-0.182h-1.822h-1.346h-1.878c-0.318,0-0.622,0.06-0.912,0.182
				s-0.538,0.29-0.744,0.504c-0.204,0.217-0.368,0.465-0.489,0.744c-0.122,0.279-0.183,0.589-0.183,0.926
				c0,0.521,0.147,0.985,0.447,1.387c0.299,0.404,0.684,0.678,1.149,0.826l0.393,0.086l0.339,0.084l5.745,1.375
				C757.385,260.956,757.487,260.974,757.6,261.01"/>
		</g>
		<g>
			<defs>
				<rect id="SVGID_129_" x="-33.093" y="-134.17" width="1000" height="595.28"/>
			</defs>
			<clipPath id="SVGID_130_">
				<use xlink:href="#SVGID_129_"  overflow="visible"/>
			</clipPath>
			<path clip-path="url(#SVGID_130_)" fill="#F3AB1D" d="M906.073,76.172c0.521,0.149,0.979,0.393,1.374,0.729
				c0.393,0.336,0.71,0.738,0.952,1.206c0.243,0.541,0.363,1.085,0.363,1.624c0,0.505-0.098,0.983-0.293,1.431
				c-0.195,0.449-0.462,0.842-0.798,1.177c-0.337,0.337-0.73,0.604-1.18,0.8c-0.447,0.197-0.926,0.294-1.43,0.294h-1.823v1.712
				h-1.346v-1.712h-1.877v-0.028c-0.505,0-0.981-0.093-1.43-0.28c-0.45-0.187-0.843-0.449-1.18-0.786
				c-0.336-0.335-0.599-0.728-0.784-1.177c-0.188-0.448-0.279-0.926-0.279-1.431h1.346c0,0.656,0.228,1.208,0.686,1.656
				c0.458,0.448,1.007,0.673,1.643,0.673v0.029h1.877h1.346h1.823c0.654,0,1.205-0.229,1.654-0.688
				c0.448-0.458,0.673-1.014,0.673-1.67c0-0.539-0.164-1.016-0.491-1.429c-0.327-0.411-0.734-0.691-1.221-0.841l-0.14-0.028
				l-0.477-0.112l-5.637-1.317c-0.093-0.018-0.173-0.039-0.236-0.056c-0.066-0.02-0.146-0.038-0.239-0.056
				c-1.026-0.318-1.774-0.963-2.243-1.935c-0.243-0.524-0.362-1.055-0.362-1.598c0-0.505,0.092-0.982,0.279-1.431
				c0.187-0.447,0.448-0.841,0.784-1.176c0.337-0.337,0.729-0.602,1.18-0.8c0.447-0.196,0.925-0.294,1.43-0.294h1.877v-1.71h1.346
				v1.71h1.823c0.504,0,0.981,0.098,1.43,0.294c0.448,0.198,0.842,0.463,1.18,0.8c0.336,0.335,0.603,0.729,0.798,1.176
				c0.195,0.449,0.293,0.926,0.293,1.431h-1.344h-0.028c0-0.317-0.062-0.621-0.182-0.912c-0.122-0.289-0.285-0.541-0.491-0.756
				c-0.208-0.215-0.449-0.383-0.729-0.505c-0.281-0.122-0.59-0.182-0.926-0.182h-1.823h-1.346h-1.877
				c-0.318,0-0.622,0.06-0.912,0.182s-0.537,0.29-0.743,0.505c-0.205,0.215-0.369,0.463-0.49,0.743
				c-0.122,0.28-0.182,0.589-0.182,0.925c0,0.523,0.149,0.985,0.447,1.387c0.3,0.403,0.683,0.677,1.149,0.827l0.392,0.084
				l0.339,0.085l5.745,1.375C905.857,76.117,905.959,76.136,906.073,76.172"/>
		</g>
		<g>
			<defs>
				<rect id="SVGID_131_" x="-33.093" y="-134.17" width="1000" height="595.28"/>
			</defs>
			<clipPath id="SVGID_132_">
				<use xlink:href="#SVGID_131_"  overflow="visible"/>
			</clipPath>
			<path clip-path="url(#SVGID_132_)" fill="#F3AB1D" d="M748.042,30.257c0.523,0.149,0.98,0.393,1.373,0.729
				c0.394,0.336,0.711,0.738,0.954,1.205c0.241,0.542,0.364,1.086,0.364,1.626c0,0.505-0.099,0.982-0.295,1.43
				c-0.195,0.449-0.463,0.842-0.798,1.177c-0.338,0.338-0.729,0.604-1.179,0.8c-0.448,0.197-0.927,0.294-1.431,0.294h-1.821v1.712
				h-1.348v-1.712h-1.878V37.49c-0.504,0-0.98-0.093-1.429-0.28c-0.45-0.187-0.843-0.448-1.18-0.786
				c-0.336-0.335-0.598-0.728-0.783-1.177c-0.188-0.448-0.28-0.925-0.28-1.43h1.345c0,0.655,0.229,1.207,0.688,1.655
				c0.458,0.448,1.004,0.673,1.64,0.673v0.029h1.878h1.347h1.822c0.654,0,1.205-0.229,1.654-0.688
				c0.449-0.458,0.673-1.014,0.673-1.669c0-0.54-0.164-1.017-0.491-1.43c-0.327-0.411-0.733-0.691-1.219-0.841l-0.141-0.028
				l-0.478-0.112l-5.637-1.317c-0.092-0.018-0.172-0.039-0.237-0.056c-0.063-0.019-0.145-0.038-0.238-0.056
				c-1.026-0.318-1.773-0.963-2.242-1.936c-0.243-0.523-0.363-1.054-0.363-1.597c0-0.505,0.093-0.982,0.28-1.431
				c0.187-0.447,0.447-0.841,0.784-1.176c0.336-0.337,0.729-0.602,1.179-0.801c0.447-0.195,0.925-0.294,1.429-0.294h1.878v-1.709
				h1.347v1.709h1.822c0.504,0,0.981,0.099,1.431,0.294c0.448,0.199,0.841,0.464,1.179,0.801c0.335,0.335,0.603,0.729,0.798,1.176
				c0.196,0.449,0.295,0.926,0.295,1.431h-1.346h-0.028c0-0.317-0.062-0.621-0.182-0.912c-0.122-0.289-0.285-0.541-0.491-0.756
				c-0.207-0.215-0.449-0.383-0.729-0.505s-0.59-0.182-0.926-0.182h-1.822h-1.347h-1.878c-0.317,0-0.621,0.06-0.911,0.182
				s-0.537,0.29-0.742,0.505c-0.206,0.215-0.37,0.463-0.491,0.743s-0.183,0.589-0.183,0.925c0,0.523,0.15,0.985,0.448,1.387
				c0.3,0.403,0.684,0.677,1.148,0.827l0.395,0.085l0.336,0.084l5.748,1.375C747.826,30.202,747.928,30.221,748.042,30.257"/>
		</g>
		<g>
			<defs>
				<rect id="SVGID_133_" x="-33.093" y="-134.17" width="1000" height="595.28"/>
			</defs>
			<clipPath id="SVGID_134_">
				<use xlink:href="#SVGID_133_"  overflow="visible"/>
			</clipPath>
			<polygon clip-path="url(#SVGID_134_)" fill="#78297B" points="855.058,67.596 874.922,47.211 886.946,54.529 901.059,36.757 
				897.923,35.189 905.763,32.574 904.719,40.414 903.151,38.324 888.514,59.233 875.446,52.437 858.196,70.734 			"/>
		</g>
		<g>
			<defs>
				<rect id="SVGID_135_" x="-33.093" y="-134.17" width="1000" height="595.28"/>
			</defs>
			<clipPath id="SVGID_136_">
				<use xlink:href="#SVGID_135_"  overflow="visible"/>
			</clipPath>
			<polygon clip-path="url(#SVGID_136_)" fill="#78297B" points="819.6,89.157 816.788,83.53 826.284,83.53 823.469,89.86 
				829.096,117.292 822.064,128.897 816.084,117.995 			"/>
		</g>
		<g>
			<defs>
				<rect id="SVGID_137_" x="-33.093" y="-134.17" width="1000" height="595.28"/>
			</defs>
			<clipPath id="SVGID_138_">
				<use xlink:href="#SVGID_137_"  overflow="visible"/>
			</clipPath>
			<path clip-path="url(#SVGID_138_)" fill="#732877" d="M241.547,280.719c0,10.812-8.769,19.582-19.584,19.582H19.586
				C8.769,300.301,0,291.532,0,280.719V19.585C0,8.77,8.769,0,19.586,0h202.377c10.815,0,19.584,8.77,19.584,19.585V280.719z"/>
		</g>
	</g>
</g>
<g id="Layer_2" display="none">
	<path display="inline" fill="#6D6E71" d="M202.804,93.083c-0.429-0.799-1.423-1.099-2.241-0.706
		c-2.773,1.327-5.826,2.303-8.529,0.842c-2.755-1.485-4.594-4.704-5.99-7.634c-0.346-0.722-1.152-1.102-1.93-0.916
		c-7.759,1.84-13.473,9.06-12.855,17.58c0.595,8.2,7.287,14.873,15.486,15.474c9.68,0.713,17.853-6.835,18.039-16.413
		C204.84,98.336,204.116,95.531,202.804,93.083"/>
	<path display="inline" fill="#ED1C24" d="M183.711,92.695c-0.03,1.546-1.31,2.777-2.855,2.745
		c-1.546-0.028-2.775-1.306-2.746-2.854c0.03-1.546,1.307-2.775,2.855-2.746C182.512,89.87,183.741,91.148,183.711,92.695"/>
	<path display="inline" fill="#2E3192" d="M180.193,100.681c-0.03,1.547-1.31,2.777-2.854,2.747
		c-1.547-0.03-2.776-1.309-2.746-2.854c0.029-1.547,1.308-2.776,2.854-2.746C178.993,97.855,180.222,99.136,180.193,100.681"/>
	<path display="inline" fill="#FBB040" d="M182.833,109.026c-0.029,1.546-1.309,2.776-2.854,2.746s-2.776-1.307-2.746-2.855
		c0.03-1.546,1.308-2.775,2.854-2.745C181.633,106.201,182.862,107.48,182.833,109.026"/>
	<path display="inline" fill="#27AAE1" d="M191.481,111.996c-0.029,1.547-1.309,2.777-2.855,2.746
		c-1.547-0.03-2.776-1.308-2.746-2.854c0.031-1.547,1.309-2.776,2.854-2.747C190.281,109.171,191.51,110.449,191.481,111.996"/>
	<path display="inline" fill="#39B54A" d="M201.956,99.538c-0.031,1.545-1.31,2.775-2.854,2.745
		c-1.545-0.03-2.776-1.309-2.746-2.855c0.028-1.547,1.308-2.775,2.854-2.746C200.754,96.712,201.985,97.991,201.956,99.538"/>
	<path display="inline" fill="#FFFFFF" d="M198.993,107.854c-0.029,1.546-1.309,2.776-2.855,2.746
		c-1.547-0.029-2.777-1.309-2.747-2.855s1.308-2.776,2.856-2.745C197.792,105.03,199.022,106.309,198.993,107.854"/>
	<g display="inline">
		<g>
			<defs>
				<polygon id="SVGID_139_" points="176.963,36.822 159.383,36.822 173.607,47.156 168.174,63.877 182.396,53.543 196.62,63.877 
					191.188,47.156 205.411,36.822 187.831,36.822 182.396,20.103 				"/>
			</defs>
			<clipPath id="SVGID_140_">
				<use xlink:href="#SVGID_139_"  overflow="visible"/>
			</clipPath>
			
				<linearGradient id="SVGID_141_" gradientUnits="userSpaceOnUse" x1="-205.9282" y1="115.3228" x2="-204.9287" y2="115.3228" gradientTransform="matrix(46.0283 0 0 46.0283 9637.9238 -5266.1265)">
				<stop  offset="0" style="stop-color:#C4882B"/>
				<stop  offset="1" style="stop-color:#F1BA33"/>
				<stop  offset="1" style="stop-color:#687533"/>
			</linearGradient>
			<rect x="159.383" y="20.103" clip-path="url(#SVGID_140_)" fill="url(#SVGID_141_)" width="46.027" height="43.775"/>
		</g>
	</g>
</g>
<g id="Layer_3" display="none">
	<path display="inline" fill="#F7941E" d="M62.255,52.863c0.367-1.689,0.857-3.385,1.812-4.825s2.441-2.606,4.155-2.829
		c1.11-0.143,2.478,0.329,2.684,1.43c-0.363-2.355-1.943-4.407-3.969-5.677c-0.262-0.164-0.562-0.26-0.869-0.295
		c-2.095-0.242-4.282,0.994-6.101,2.026c-0.192,0.107-0.428-0.089-0.324-0.295c0.47-0.934,1.315-1.85,2.309-2.554
		c0.223-0.156,0.136-0.504-0.136-0.531c-0.961-0.098-1.933-0.103-2.894-0.031c-1.25,0.094-2.495,0.309-3.685,0.702
		c-1.649,0.544-3.184,1.432-4.479,2.589c-0.426,0.38-0.828,0.793-1.139,1.271c-0.372,0.573-0.602,1.227-0.787,1.885
		c-0.418,1.485-0.61,3.113-0.033,4.546c0.987,2.447,3.847,3.57,5.371,5.726c0.492,0.696,0.887,1.539,1.658,1.903
		c0.425,0.201,0.911,0.224,1.382,0.225c0.921,0.003,1.881-0.078,2.676-0.543C61.454,56.668,61.87,54.639,62.255,52.863"/>
	<path display="inline" fill="#939598" d="M33.557,74.028l-0.113-0.119c-0.845-0.886-0.845-2.28,0-3.167l16.245-17.047
		c0.905-0.95,2.419-0.95,3.324,0l1.684,1.768c0.905,0.95,0.831,2.463-0.161,3.32L36.72,74.181
		C35.794,74.982,34.402,74.915,33.557,74.028"/>
	<path display="inline" fill="#D1D3D4" d="M68.788,72.492c1.129-0.727,2.329-1.389,3.645-1.655c1.315-0.266,2.772-0.091,3.835,0.728
		c0.689,0.531,1.181,1.542,0.689,2.26c1.095-1.492,1.354-3.487,0.938-5.296c-0.054-0.234-0.166-0.452-0.315-0.641
		c-1.018-1.284-2.897-1.806-4.463-2.237c-0.165-0.047-0.186-0.283-0.016-0.341c0.77-0.254,1.737-0.293,2.67-0.133
		c0.209,0.035,0.352-0.203,0.217-0.368c-0.474-0.58-1.005-1.118-1.572-1.605c-0.738-0.635-1.54-1.201-2.409-1.64
		c-1.205-0.605-2.535-0.962-3.882-1.036c-0.442-0.025-0.89-0.021-1.324,0.072c-0.519,0.11-1.004,0.342-1.467,0.603
		c-1.045,0.587-2.045,1.375-2.515,2.479c-0.802,1.886,0.152,4.073-0.195,6.095c-0.112,0.652-0.358,1.331-0.134,1.954
		c0.123,0.346,0.377,0.624,0.635,0.884c0.505,0.508,1.076,0.989,1.768,1.171C66.259,74.142,67.601,73.256,68.788,72.492"/>
	<path display="inline" fill="#939598" d="M41.404,68.354l0.003-0.127c0.023-0.95,0.789-1.716,1.739-1.738l18.285-0.441
		c1.018-0.025,1.85,0.807,1.825,1.825l-0.046,1.896c-0.025,1.02-0.896,1.81-1.912,1.735l-18.241-1.328
		C42.107,70.106,41.381,69.306,41.404,68.354"/>
</g>
<g>
	<defs>
		<path id="SVGID_142_" d="M98.547,239.383c-3.738,6.057-7.303,12.276-10.629,18.57c-1.769,3.348-5.818,7.009-5.609,11.078
			c0.195,3.874,4.494,5.512,7.061,7.728c4.37,3.779,8.729,7.579,13.098,11.363c0.836,0.725,1.885-5.334,1.828-5.863
			c-0.223-1.993-1.554-3.345-2.457-5.04c-1.316-2.459-6.028-7.762-4.057-10.813c0.721-1.109,39.706-61.278,39.706-61.278
			l-17.384-4.161L98.547,239.383z"/>
	</defs>
	<clipPath id="SVGID_143_">
		<use xlink:href="#SVGID_142_"  overflow="visible"/>
	</clipPath>
	
		<linearGradient id="SVGID_144_" gradientUnits="userSpaceOnUse" x1="-368.8853" y1="451.7124" x2="-367.8853" y2="451.7124" gradientTransform="matrix(26.4357 16.32 16.32 -26.4357 2477.3979 18198.9102)">
		<stop  offset="0" style="stop-color:#D19B44"/>
		<stop  offset="0.0032" style="stop-color:#D19B44"/>
		<stop  offset="0.0126" style="stop-color:#D29C45"/>
		<stop  offset="0.4266" style="stop-color:#E6B668"/>
		<stop  offset="0.7663" style="stop-color:#F3C67D"/>
		<stop  offset="0.9875" style="stop-color:#F8CC85"/>
		<stop  offset="1" style="stop-color:#F8CC85"/>
	</linearGradient>
	<polygon clip-path="url(#SVGID_143_)" fill="url(#SVGID_144_)" points="97.384,176.208 176.77,225.217 122.204,313.605 
		42.818,264.597 	"/>
</g>
<path fill="#4A443A" d="M103.306,286.555c0,0,1.737,1.601,1.297,2.597c-0.438,0.994-1.489,2.02-1.489,2.02l-24.943-17.56l1.744-2.29
	L103.306,286.555z"/>
<path fill="#4A443A" d="M101.838,277.219c0,0,0.084,8.273-2.215,9.409l-2.312-1.43l3.809-9.792L101.838,277.219z"/>
<g>
	<defs>
		<path id="SVGID_145_" d="M115.187,205.272l2.442,43.978c0.094,7.118,0.428,14.276,1,21.378c0.305,3.773-1.145,9.034,1.213,12.355
			c2.248,3.166,6.754,2.236,10.11,2.73c5.72,0.841,11.431,1.708,17.149,2.553c1.095,0.164-1.271-5.512-1.604-5.924
			c-1.261-1.566-3.106-1.992-4.781-2.933c-2.428-1.368-9.252-3.313-9.227-6.949c0.012-1.324,0.596-73.013,0.596-73.013
			L115.187,205.272z"/>
	</defs>
	<clipPath id="SVGID_146_">
		<use xlink:href="#SVGID_145_"  overflow="visible"/>
	</clipPath>
	
		<linearGradient id="SVGID_147_" gradientUnits="userSpaceOnUse" x1="-368.0186" y1="445.9185" x2="-367.0186" y2="445.9185" gradientTransform="matrix(32.2017 0 0 -32.2017 11966.0059 14603.2754)">
		<stop  offset="0" style="stop-color:#D19B44"/>
		<stop  offset="0.0032" style="stop-color:#D19B44"/>
		<stop  offset="0.0126" style="stop-color:#D29C45"/>
		<stop  offset="0.4266" style="stop-color:#E6B668"/>
		<stop  offset="0.7663" style="stop-color:#F3C67D"/>
		<stop  offset="0.9875" style="stop-color:#F8CC85"/>
		<stop  offset="1" style="stop-color:#F8CC85"/>
	</linearGradient>
	<rect x="115.187" y="199.448" clip-path="url(#SVGID_146_)" fill="url(#SVGID_147_)" width="33.01" height="88.982"/>
</g>
<path fill="#4A443A" d="M146.969,286.492c0,0,2.324,0.424,2.485,1.495c0.165,1.076-0.168,2.502-0.168,2.502l-30.474-1.419
	l0.242-2.869L146.969,286.492z"/>
<path fill="#4A443A" d="M140.717,279.41c0,0,4.515,6.929,3.185,9.123l-2.718,0.037l-2.047-10.307L140.717,279.41z"/>
<g>
	<defs>
		<path id="SVGID_148_" d="M115.771,62.356c-4.361,0-7.899,3.272-7.899,7.312v12.583c0,4.037,3.538,7.31,7.899,7.31h0.878
			c4.363,0,7.9-3.273,7.9-7.31V69.668c0-4.04-3.537-7.312-7.9-7.312H115.771z"/>
	</defs>
	<clipPath id="SVGID_149_">
		<use xlink:href="#SVGID_148_"  overflow="visible"/>
	</clipPath>
	
		<linearGradient id="SVGID_150_" gradientUnits="userSpaceOnUse" x1="-358.0542" y1="445.2437" x2="-357.0542" y2="445.2437" gradientTransform="matrix(16.6787 0 0 -16.6787 6079.751 7502.0435)">
		<stop  offset="0" style="stop-color:#D19B44"/>
		<stop  offset="0.0032" style="stop-color:#D19B44"/>
		<stop  offset="0.0126" style="stop-color:#D29C45"/>
		<stop  offset="0.4266" style="stop-color:#E6B668"/>
		<stop  offset="0.7663" style="stop-color:#F3C67D"/>
		<stop  offset="0.9875" style="stop-color:#F8CC85"/>
		<stop  offset="1" style="stop-color:#F8CC85"/>
	</linearGradient>
	<rect x="107.872" y="62.356" clip-path="url(#SVGID_149_)" fill="url(#SVGID_150_)" width="16.678" height="27.205"/>
</g>
<g>
	<defs>
		<path id="SVGID_151_" d="M117.463,82.753c-31.449,0.553-26.998,37.487-24.344,76.146h47.36c0,0,10.098-76.144-22.64-76.148
			C117.713,82.75,117.59,82.751,117.463,82.753"/>
	</defs>
	<clipPath id="SVGID_152_">
		<use xlink:href="#SVGID_151_"  overflow="visible"/>
	</clipPath>
	
		<linearGradient id="SVGID_153_" gradientUnits="userSpaceOnUse" x1="-371.9248" y1="446.188" x2="-370.9248" y2="446.188" gradientTransform="matrix(50.6958 0 0 -50.6958 18946.293 22740.6602)">
		<stop  offset="0" style="stop-color:#C7C7C7"/>
		<stop  offset="0.8949" style="stop-color:#FFFFFF"/>
		<stop  offset="1" style="stop-color:#FFFFFF"/>
	</linearGradient>
	<rect x="86.014" y="82.75" clip-path="url(#SVGID_152_)" fill="url(#SVGID_153_)" width="64.563" height="76.148"/>
</g>
<g>
	<defs>
		<path id="SVGID_154_" d="M98.612,27.872c0.008,0.48,0.014,0.961,0.009,1.442l-0.202-0.429c0,0.018,0.004,0.038,0.008,0.058
			l0.194,0.474c-0.001,0.345-0.015,0.691-0.022,1.037c0.688,6.467,0.715,13.019,0.156,19.497c0.07,0.018,0.141,0.036,0.213,0.05
			c0.033,0.802,0.07,1.607,0.11,2.408l0.146,14.078l0.166-0.441c0.07,0.632,0.191,1.249,0.396,1.833
			c1.444,4.119,5.959,6.249,9.917,7.683c3.848,1.392,7.741,1.805,11.792,1.102c3.286-0.571,7.694-2.502,10.109-4.834
			c2.635-2.55,1.86-5.093,1.819-8.324c-0.146-12.08-0.818-24.185-1.406-36.259c0,0-3.293-9.271-16.617-9.489
			c-0.129-0.002-0.257-0.003-0.385-0.003C104.098,17.753,99.735,25.4,98.612,27.872"/>
	</defs>
	<clipPath id="SVGID_155_">
		<use xlink:href="#SVGID_154_"  overflow="visible"/>
	</clipPath>
	
		<linearGradient id="SVGID_156_" gradientUnits="userSpaceOnUse" x1="-368.8848" y1="445.9468" x2="-367.8843" y2="445.9468" gradientTransform="matrix(35.0264 -0.1051 -0.1051 -35.0264 13066.0273 15628.752)">
		<stop  offset="0" style="stop-color:#D19B44"/>
		<stop  offset="0.0032" style="stop-color:#D19B44"/>
		<stop  offset="0.0126" style="stop-color:#D29C45"/>
		<stop  offset="0.4266" style="stop-color:#E6B668"/>
		<stop  offset="0.7663" style="stop-color:#F3C67D"/>
		<stop  offset="0.9875" style="stop-color:#F8CC85"/>
		<stop  offset="1" style="stop-color:#F8CC85"/>
	</linearGradient>
	<polygon clip-path="url(#SVGID_155_)" fill="url(#SVGID_156_)" points="98.241,17.754 134.237,17.646 134.417,77.366 
		98.418,77.474 	"/>
</g>
<path fill="#352115" d="M110.776,17.456c-7.869,1.125-12.678,10.39-12.678,10.39l0.312,7.595c-0.039,0.314-0.158,0.561-0.334,0.761
	c0.349,2.354,0.584,4.71,0.738,7.076c0.017,0.003,0.035,0.005,0.053,0.008c-0.006,0.309-0.014,0.614-0.02,0.921l0.118,9.687
	l-0.086,6.023l7.854,1.312c3.696,1.357,8.272,0.086,12.726-8.988l-0.106-10.962c3.485-1.969,6.043-4.849,6.786-6.586
	c1.123-2.627,6.478-7.391,6.478-7.391C129.729,20.285,118.645,16.332,110.776,17.456"/>
<path fill="#E74C24" d="M143.036,229.963c0,2.69-2.651,4.874-5.924,4.874H98.595c-3.274,0-5.927-2.184-5.927-4.874v-70.277
	c0-2.691,2.652-4.873,5.927-4.873h38.517c3.272,0,5.924,2.182,5.924,4.873V229.963z"/>
<path fill="#EAB862" d="M120.727,51.762c0,2.301-1.865,4.167-4.17,4.167c-2.303,0-4.168-1.866-4.168-4.167
	c0-2.304,1.865-4.174,4.168-4.174C118.862,47.588,120.727,49.458,120.727,51.762"/>
<path fill="#352115" d="M98.881,59.917c0,0,0.004,6.69,0.903,7.96c0.9,1.272,13.401-4.697,16.011-11.412L98.881,59.917z"/>
<path fill="#E74C24" d="M147.846,157.586c0,2.555-2.002,4.621-4.476,4.621H94.383c-2.47,0-4.476-2.066-4.476-4.621
	c0-2.551,2.006-4.623,4.476-4.623h48.987C145.844,152.963,147.846,155.036,147.846,157.586"/>
<g>
	<defs>
		<path id="SVGID_157_" d="M117.749,51.011c-1.285,0-2.328,1.042-2.328,2.327s1.043,2.328,2.328,2.328h0.663
			c1.284,0,2.327-1.043,2.327-2.328s-1.043-2.327-2.327-2.327H117.749z"/>
	</defs>
	<clipPath id="SVGID_158_">
		<use xlink:href="#SVGID_157_"  overflow="visible"/>
	</clipPath>
	
		<linearGradient id="SVGID_159_" gradientUnits="userSpaceOnUse" x1="-313.895" y1="442.2358" x2="-312.895" y2="442.2358" gradientTransform="matrix(5.3184 0 0 -5.3184 1784.8269 2405.3079)">
		<stop  offset="0" style="stop-color:#C7C7C7"/>
		<stop  offset="0.8949" style="stop-color:#FFFFFF"/>
		<stop  offset="1" style="stop-color:#FFFFFF"/>
	</linearGradient>
	<rect x="115.42" y="51.011" clip-path="url(#SVGID_158_)" fill="url(#SVGID_159_)" width="5.318" height="4.655"/>
</g>
<linearGradient id="SVGID_160_" gradientUnits="userSpaceOnUse" x1="-368.2314" y1="445.9399" x2="-367.2314" y2="445.9399" gradientTransform="matrix(32.855 0 0 -32.855 12217.3906 14752.1348)">
	<stop  offset="0" style="stop-color:#FFFFFF"/>
	<stop  offset="0.1051" style="stop-color:#FFFFFF"/>
	<stop  offset="1" style="stop-color:#C7C7C7"/>
</linearGradient>
<path fill="url(#SVGID_160_)" d="M119.619,53.758c0,0,8.858,13.478,11.985,18.071c3.125,4.596,6.483,12.989,8.443,18.307
	c2.238,6.078,3.286,12.497,4.696,18.797c2.263,10.116,4.188,20.341,4.67,30.716c0.099,2.133-0.067,7.151,2.386,8.13l0,0
	c-2.453-0.979-2.287-5.997-2.386-8.13c-0.481-10.375-2.407-20.6-4.67-30.716c-1.41-6.3-2.458-12.719-4.696-18.797
	c-1.96-5.318-5.318-13.711-8.443-18.307C128.477,67.236,119.619,53.758,119.619,53.758L119.619,53.758z"/>
<linearGradient id="SVGID_161_" gradientUnits="userSpaceOnUse" x1="-362.5718" y1="445.5435" x2="-361.5718" y2="445.5435" gradientTransform="matrix(21.3433 0 0 -21.3433 7866.4102 9620.959)">
	<stop  offset="0" style="stop-color:#FFFFFF"/>
	<stop  offset="0.1051" style="stop-color:#FFFFFF"/>
	<stop  offset="1" style="stop-color:#C7C7C7"/>
</linearGradient>
<path fill="url(#SVGID_161_)" d="M128.387,72.599c0,0,15.109,20.895,20.334,77.978l0,0
	C143.497,93.494,128.387,72.599,128.387,72.599L128.387,72.599z"/>
<path fill="#FCFDFF" d="M155.213,170.458c-1.054,1.59-2.791,2.293-3.881,1.569l-10.852-7.192c-1.092-0.721-1.121-2.596-0.066-4.185
	l14.777-22.301c1.052-1.589,2.79-2.292,3.881-1.57l10.854,7.192c1.09,0.72,1.117,2.596,0.064,4.185L155.213,170.458z"/>
<path fill-rule="evenodd" clip-rule="evenodd" fill="#9EA0A3" d="M161.289,151.386c-1.418,0.071-2.296,1.329-1.608,2.767
	c-0.611,0.42-1.242,0.808-2.005,0.902c-0.37,0.045-0.683-0.111-0.881-0.416c-0.36-0.557-0.828-0.908-1.502-1.01
	c-0.444-0.064-0.72-0.363-0.8-0.818c-0.253-1.462,0.031-2.797,1.01-3.934c0.814-0.947,2.373-1.132,3.169,0.147
	c0.216,0.342,0.509,0.498,0.894,0.565c0.73,0.13,1.281,0.521,1.57,1.226C161.205,150.985,161.231,151.171,161.289,151.386"/>
<path fill-rule="evenodd" clip-rule="evenodd" fill="#9EA0A3" d="M159.257,149.012c0.435-0.789,1.438-1.064,2.222-0.63
	C161.153,149.197,159.997,149.536,159.257,149.012"/>
<polygon fill="#01908C" points="83.86,111.824 131.896,103.818 137.234,138.511 83.86,147.407 "/>
<g>
	<defs>
		<path id="SVGID_162_" d="M109.358,98.417v2.433c-0.016,0.001-0.029,0.006-0.043,0.006c-0.239,10.45-0.62,32.968,0.387,35.9
			c1.182,3.44,23.998,20.544,31.062,23.654c0.412,0.869,1.021,1.707,1.816,2.438c0,0.01-0.002,0.018-0.002,0.026
			c0.006-0.004,0.012-0.009,0.018-0.015c0.16,0.147,0.328,0.289,0.504,0.426l2.888,2.261c2.87,2.246,6.581,2.3,8.285,0.12
			l1.888-2.413c1.705-2.179,0.76-5.767-2.109-8.013l-2.89-2.26c-1.43-1.121-3.069-1.688-4.567-1.709
			c-0.225,0.285-0.451,0.57-0.678,0.858l-26.671-20.911V98.417c0-3.442-2.214-6.23-4.942-6.23
			C111.572,92.188,109.358,94.975,109.358,98.417"/>
	</defs>
	<clipPath id="SVGID_163_">
		<use xlink:href="#SVGID_162_"  overflow="visible"/>
	</clipPath>
	
		<linearGradient id="SVGID_164_" gradientUnits="userSpaceOnUse" x1="-374.686" y1="446.3726" x2="-373.686" y2="446.3726" gradientTransform="matrix(85.3389 0 0 -85.3389 32072.5684 38222.9883)">
		<stop  offset="0" style="stop-color:#D19B44"/>
		<stop  offset="0.0032" style="stop-color:#D19B44"/>
		<stop  offset="0.0126" style="stop-color:#D29C45"/>
		<stop  offset="0.4266" style="stop-color:#E6B668"/>
		<stop  offset="0.7663" style="stop-color:#F3C67D"/>
		<stop  offset="0.9875" style="stop-color:#F8CC85"/>
		<stop  offset="1" style="stop-color:#F8CC85"/>
	</linearGradient>
	<rect x="108.695" y="92.188" clip-path="url(#SVGID_163_)" fill="url(#SVGID_164_)" width="49.171" height="75.659"/>
</g>
<path fill="#352115" d="M98.983,26.427c-0.188-6.476-9.246-7.159-14.037-3.555c-5.553,4.177-4.588,13.296-14.161,9.721
	c12.598,11.707,21.221-0.159,30.866-3.498"/>
<path fill="#01908C" d="M145.15,150.294c-4.274,1.501-7.496,6.183-8.804,10.738c5.47,2.779,10.667-3.81,11.357-8.824
	c-1.865-0.623-2.781,0.135-4.332,0.756"/>
<polygon fill="#742877" points="108.19,167.867 102.54,177.651 96.891,167.867 "/>
<polygon fill="#742877" points="125.091,167.867 119.442,177.651 113.792,167.867 "/>
<polygon fill="#742877" points="116.196,184.768 110.545,194.552 104.897,184.768 "/>
</svg>
