<?xml version="1.0" encoding="utf-8"?>
<!-- Generator: Adobe Illustrator 18.0.0, SVG Export Plug-In . SVG Version: 6.00 Build 0)  -->
<!DOCTYPE svg PUBLIC "-//W3C//DTD SVG 1.1//EN" "http://www.w3.org/Graphics/SVG/1.1/DTD/svg11.dtd">
<svg version="1.1" id="Layer_1" xmlns="http://www.w3.org/2000/svg" xmlns:xlink="http://www.w3.org/1999/xlink" x="0px" y="0px"
	 viewBox="0 0 41 40.5" enable-background="new 0 0 41 40.5" xml:space="preserve">
<g id="Layer_1_1_">
	<path fill="#6D6E71" d="M38.6,10.3c-0.5-1-1.7-1.3-2.7-0.9c-3.4,1.6-7.1,2.8-10.4,1c-3.4-1.8-5.6-5.7-7.3-9.3
		c-0.4-0.9-1.4-1.3-2.4-1.1C6.3,2.3-0.7,11.1,0.1,21.5C0.8,31.5,9,39.7,19,40.4c11.8,0.9,21.8-8.3,22-20
		C41.1,16.7,40.2,13.3,38.6,10.3"/>
	<path fill="#ED1C24" d="M15.3,9.9c0,1.9-1.6,3.4-3.5,3.4c-1.9,0-3.4-1.6-3.4-3.5c0-1.9,1.6-3.4,3.5-3.4C13.8,6.4,15.3,8,15.3,9.9"
		/>
	<path fill="#2E3192" d="M11,19.6c0,1.9-1.6,3.4-3.5,3.4c-1.9,0-3.4-1.6-3.4-3.5c0-1.9,1.6-3.4,3.5-3.4C9.5,16.2,11,17.7,11,19.6"/>
	<path fill="#FBB040" d="M14.2,29.8c0,1.9-1.6,3.4-3.5,3.4c-1.9,0-3.4-1.6-3.4-3.5c0-1.9,1.6-3.4,3.5-3.4
		C12.7,26.3,14.2,27.9,14.2,29.8"/>
	<path fill="#27AAE1" d="M24.7,33.4c0,1.9-1.6,3.4-3.5,3.4c-1.9,0-3.4-1.6-3.4-3.5c0-1.9,1.6-3.4,3.5-3.4
		C23.3,30,24.8,31.5,24.7,33.4"/>
	<path fill="#39B54A" d="M37.5,18.2c0,1.9-1.6,3.4-3.5,3.4c-1.9,0-3.4-1.6-3.4-3.5c0-1.9,1.6-3.4,3.5-3.4
		C36.1,14.8,37.6,16.3,37.5,18.2"/>
	<path fill="#FFFFFF" d="M33.9,28.4c0,1.9-1.6,3.4-3.5,3.4s-3.4-1.6-3.4-3.5c0-1.9,1.6-3.4,3.5-3.4C32.5,24.9,34,26.5,33.9,28.4"/>
</g>
<g id="Layer_2">
</g>
</svg>
