<?xml version="1.0" encoding="utf-8"?>
<!-- Generator: Adobe Illustrator 17.1.0, SVG Export Plug-In . SVG Version: 6.00 Build 0)  -->
<!DOCTYPE svg PUBLIC "-//W3C//DTD SVG 1.1//EN" "http://www.w3.org/Graphics/SVG/1.1/DTD/svg11.dtd">
<svg version="1.1" xmlns="http://www.w3.org/2000/svg" xmlns:xlink="http://www.w3.org/1999/xlink" x="0px" y="0px"
	 viewBox="0 0 170.626 206.587" enable-background="new 0 0 170.626 206.587" xml:space="preserve">
<g id="Layer_1" display="none">
	<rect x="-960.403" y="-222.119" display="inline" fill="#00A79D" width="1366" height="768"/>
</g>
<g id="Layer_3">
	<polygon fill="#FFFFFF" points="-596.304,59.039 -730.054,59.039 -732.054,20.303 -594.054,20.303 	"/>
	<polygon fill="#D1D3D4" points="-594.054,92.934 -732.054,92.934 -730.054,59.039 -596.304,59.039 	"/>
	<polygon fill="#FFFFFF" points="-596.304,131.671 -730.054,131.671 -732.054,92.934 -594.054,92.934 	"/>
	<polygon fill="#D1D3D4" points="-594.054,165.566 -732.054,165.566 -730.054,131.039 -596.304,131.039 	"/>
	<polygon fill="#FFFFFF" points="-596.304,204.303 -730.054,204.303 -732.054,165.566 -594.054,165.566 	"/>
	<path fill="#FFFFFF" d="M-568.32,71.354l0.815-2.785c1.514-5.175-0.661-10.365-4.859-11.593l-0.153-0.045
		c-4.197-1.228-8.827,1.971-10.341,7.146l-0.815,2.785L-568.32,71.354z"/>
	
		<rect x="-647.54" y="114.718" transform="matrix(-0.2808 0.9598 -0.9598 -0.2808 -640.0616 725.0521)" fill="#D1D3D4" width="111.715" height="15.997"/>
	<polygon points="-613.413,187.265 -612.638,191.201 -609.864,188.304 	"/>
	<polygon fill="#C49A6C" points="-615.046,174.081 -615.046,174.082 -612.788,187.448 -608.799,188.615 -599.692,178.574 
		-599.692,178.573 	"/>
	<polygon fill="#939598" points="-594.054,102.339 -615.422,175.369 -594.054,87.636 	"/>
	<rect x="-729.501" y="244.141" fill="none" width="132.894" height="37.498"/>
	<text transform="matrix(1 0 0 1 -719.4979 269.3393)" fill="#FFFFFF" font-family="'CSPraJad'" font-size="36">รับสมัคร</text>
	<rect x="-757.687" y="294.275" fill="none" width="203.486" height="20.773"/>
	<text transform="matrix(1 0 0 1 -755.4747 310.3747)" fill="#FFFFFF" font-family="'CSPraJad'" font-size="23">วันนี้-14 มีนาคม 2558</text>
</g>
<g id="Layer_2">
	<polygon fill="#FFFFFF" points="-219.658,209.171 -363.367,197.7 -342.454,28.442 -222.937,28.442 	"/>
	<polygon fill="#D1D3D4" points="-222.937,28.442 -199.367,190.352 -210.48,199.969 -219.658,209.171 	"/>
	<path fill="#A7A9AC" d="M-316.657,31.675h-1.238c-1.254,0-2.27-1.016-2.27-2.27v-1.926c0-1.254,1.016-2.27,2.27-2.27h1.238
		c1.254,0,2.27,1.016,2.27,2.27v1.926C-314.387,30.658-315.403,31.675-316.657,31.675z"/>
	<path fill="#A7A9AC" d="M-310.535,31.675h-1.238c-1.254,0-2.27-1.016-2.27-2.27v-1.926c0-1.254,1.016-2.27,2.27-2.27h1.238
		c1.254,0,2.27,1.016,2.27,2.27v1.926C-308.264,30.658-309.281,31.675-310.535,31.675z"/>
	<path fill="#A7A9AC" d="M-304.275,31.675h-1.238c-1.254,0-2.27-1.016-2.27-2.27v-1.926c0-1.254,1.016-2.27,2.27-2.27h1.238
		c1.254,0,2.27,1.016,2.27,2.27v1.926C-302.004,30.658-303.021,31.675-304.275,31.675z"/>
	<path fill="#A7A9AC" d="M-263.366,31.675h-1.238c-1.254,0-2.27-1.016-2.27-2.27v-1.926c0-1.254,1.016-2.27,2.27-2.27h1.238
		c1.254,0,2.27,1.016,2.27,2.27v1.926C-261.096,30.658-262.113,31.675-263.366,31.675z"/>
	<path fill="#A7A9AC" d="M-256.762,31.675h-1.238c-1.254,0-2.27-1.016-2.27-2.27v-1.926c0-1.254,1.016-2.27,2.27-2.27h1.238
		c1.254,0,2.27,1.016,2.27,2.27v1.926C-254.492,30.658-255.509,31.675-256.762,31.675z"/>
	<path fill="#A7A9AC" d="M-249.975,31.675h-1.238c-1.254,0-2.27-1.016-2.27-2.27v-1.926c0-1.254,1.016-2.27,2.27-2.27h1.238
		c1.254,0,2.27,1.016,2.27,2.27v1.926C-247.705,30.658-248.721,31.675-249.975,31.675z"/>
	<polygon fill="#A7A9AC" points="-199.367,190.352 -219.976,191.65 -219.658,209.171 	"/>
	<line fill="none" stroke="#BCBEC0" stroke-miterlimit="10" x1="-342.454" y1="79.477" x2="-231.287" y2="82.412"/>
	<line fill="none" stroke="#BCBEC0" stroke-miterlimit="10" x1="-344.655" y1="96.078" x2="-233.483" y2="100.389"/>
	<line fill="none" stroke="#BCBEC0" stroke-miterlimit="10" x1="-346.49" y1="111.029" x2="-233.483" y2="115.799"/>
	<line fill="none" stroke="#BCBEC0" stroke-miterlimit="10" x1="-348.312" y1="125.809" x2="-233.483" y2="131.208"/>
	<line fill="none" stroke="#BCBEC0" stroke-miterlimit="10" x1="-350.525" y1="140.747" x2="-233.483" y2="147.351"/>
	<line fill="none" stroke="#BCBEC0" stroke-miterlimit="10" x1="-351.778" y1="156.247" x2="-233.483" y2="164.595"/>
	<line fill="none" stroke="#BCBEC0" stroke-miterlimit="10" x1="-353.094" y1="169.731" x2="-231.287" y2="178.903"/>
	<line fill="none" stroke="#BCBEC0" stroke-miterlimit="10" x1="-322.825" y1="69.937" x2="-334.933" y2="180.189"/>
	<rect x="-394.115" y="248.407" fill="none" width="214.489" height="28.499"/>
	<text transform="matrix(1 0 0 1 -351.2191 273.6064)" fill="#FFFFFF" font-family="'CSPraJad'" font-size="36">วันจัดค่าย</text>
	<rect x="-387.263" y="298.542" fill="none" width="189.266" height="20.773"/>
	<text transform="matrix(1 0 0 1 -378.3609 314.6412)" fill="#FFFFFF" font-family="'CSPraJad'" font-size="23">3-5 เมษายน 2558</text>
</g>
<g id="Layer_4">
	<polygon fill="#FFFFFF" points="84.078,27.273 25.316,94.617 32.243,206.587 84.078,206.587 	"/>
	<polygon fill="#E6E7E8" points="84.319,25.858 84.078,26.13 84.078,206.587 138.126,206.587 145.31,94.617 	"/>
	<g>
		<polygon fill="#D1D3D4" points="84.078,21.246 0,114.421 11.111,114.421 84.078,32.867 		"/>
		<path fill="#D1D3D4" d="M95.611,0c2.5,12.5-9.75,19.27-9.75,19.27l-0.785,0.87v11.611l6.58-7.354
			C106.199,12.295,95.611,0,95.611,0z"/>
		<polygon fill="#A7A9AC" points="84.078,18.847 84.078,30.105 159.516,114.421 170.626,114.421 		"/>
		<path fill="#A7A9AC" d="M84.078,18.847C81.536,17.196,72.876,10.699,75.016,0c0,0-10.589,12.295,3.956,24.398l5.382,6.016
			L84.078,18.847z"/>
	</g>
	<rect x="37.243" y="100.613" fill="#E6E7E8" width="46.834" height="2.808"/>
	<rect x="84.078" y="100.613" fill="#C7C8C9" width="46.916" height="2.808"/>
	<rect x="47.263" y="128.624" fill="#D1D3D4" width="36.815" height="77.963"/>
	<rect x="83.991" y="128.624" fill="#A7A9AC" width="36.969" height="77.963"/>
	<rect x="-23.254" y="247.867" fill="none" width="214.489" height="28.499"/>
	<text transform="matrix(1 0 0 1 36.2768 273.0668)" fill="#FFFFFF" font-family="'CSPraJad'" font-size="36">สถานที่</text>
	<rect x="-59.709" y="295.958" fill="none" width="287.4" height="20.773"/>
	<text transform="matrix(1 0 0 1 -45.8125 312.0573)" fill="#FFFFFF" font-family="'CSPraJad'" font-size="23">มหาวิทยาลัยราชภัฏจันทรเกษม</text>
</g>
</svg>
