<?xml version="1.0" encoding="utf-8"?>
<!-- Generator: Adobe Illustrator 17.1.0, SVG Export Plug-In . SVG Version: 6.00 Build 0)  -->
<!DOCTYPE svg PUBLIC "-//W3C//DTD SVG 1.1//EN" "http://www.w3.org/Graphics/SVG/1.1/DTD/svg11.dtd">
<svg version="1.1" xmlns="http://www.w3.org/2000/svg" xmlns:xlink="http://www.w3.org/1999/xlink" x="0px" y="0px"
	 viewBox="0 0 163.999 183.963" enable-background="new 0 0 163.999 183.963" xml:space="preserve">
<g id="Layer_1" display="none">
	<rect x="-597.037" y="-247.328" display="inline" fill="#00A79D" width="1366" height="768"/>
</g>
<g id="Layer_3">
	<polygon fill="#FFFFFF" points="-232.937,33.831 -366.688,33.831 -368.688,-4.906 -230.688,-4.906 	"/>
	<polygon fill="#D1D3D4" points="-230.688,67.726 -368.688,67.726 -366.688,33.831 -232.937,33.831 	"/>
	<polygon fill="#FFFFFF" points="-232.937,106.463 -366.688,106.463 -368.688,67.726 -230.688,67.726 	"/>
	<polygon fill="#D1D3D4" points="-230.688,140.357 -368.688,140.357 -366.688,105.831 -232.937,105.831 	"/>
	<polygon fill="#FFFFFF" points="-232.937,179.094 -366.688,179.094 -368.688,140.357 -230.688,140.357 	"/>
	<path fill="#FFFFFF" d="M-204.954,46.145l0.815-2.785c1.514-5.175-0.661-10.365-4.859-11.593l-0.153-0.045
		c-4.197-1.228-8.827,1.971-10.341,7.146l-0.815,2.785L-204.954,46.145z"/>
	
		<rect x="-284.174" y="89.51" transform="matrix(-0.2808 0.9598 -0.9598 -0.2808 -198.8476 344.02)" fill="#D1D3D4" width="111.715" height="15.997"/>
	<polygon points="-250.047,162.057 -249.272,165.993 -246.497,163.096 	"/>
	<polygon fill="#C49A6C" points="-251.679,148.872 -251.679,148.873 -249.422,162.24 -245.433,163.407 -236.326,153.366 
		-236.325,153.365 	"/>
	<polygon fill="#939598" points="-230.688,77.13 -252.056,150.16 -230.688,62.428 	"/>
	<rect x="-366.134" y="218.932" fill="none" width="132.894" height="37.498"/>
	<text transform="matrix(1 0 0 1 -356.1313 244.1309)" fill="#FFFFFF" font-family="'CSPraJad'" font-size="36">รับสมัคร</text>
	<rect x="-394.32" y="269.067" fill="none" width="203.486" height="20.773"/>
	<text transform="matrix(1 0 0 1 -392.1081 285.1664)" fill="#FFFFFF" font-family="'CSPraJad'" font-size="23">วันนี้-14 มีนาคม 2558</text>
</g>
<g id="Layer_2">
	<polygon fill="#FFFFFF" points="143.708,183.963 0,172.491 20.913,3.233 140.43,3.233 	"/>
	<polygon fill="#D1D3D4" points="140.43,3.233 163.999,165.144 152.887,174.761 143.708,183.963 	"/>
	<path fill="#A7A9AC" d="M46.71,6.466h-1.238c-1.254,0-2.27-1.016-2.27-2.27V2.27c0-1.254,1.016-2.27,2.27-2.27h1.238
		c1.254,0,2.27,1.016,2.27,2.27v1.926C48.98,5.45,47.963,6.466,46.71,6.466z"/>
	<path fill="#A7A9AC" d="M52.832,6.466h-1.238c-1.254,0-2.27-1.016-2.27-2.27V2.27c0-1.254,1.016-2.27,2.27-2.27h1.238
		c1.254,0,2.27,1.016,2.27,2.27v1.926C55.102,5.45,54.086,6.466,52.832,6.466z"/>
	<path fill="#A7A9AC" d="M59.092,6.466h-1.238c-1.254,0-2.27-1.016-2.27-2.27V2.27c0-1.254,1.016-2.27,2.27-2.27h1.238
		c1.254,0,2.27,1.016,2.27,2.27v1.926C61.362,5.45,60.346,6.466,59.092,6.466z"/>
	<path fill="#A7A9AC" d="M100,6.466h-1.238c-1.254,0-2.27-1.016-2.27-2.27V2.27c0-1.254,1.016-2.27,2.27-2.27H100
		c1.254,0,2.27,1.016,2.27,2.27v1.926C102.27,5.45,101.254,6.466,100,6.466z"/>
	<path fill="#A7A9AC" d="M106.604,6.466h-1.238c-1.254,0-2.27-1.016-2.27-2.27V2.27c0-1.254,1.016-2.27,2.27-2.27h1.238
		c1.254,0,2.27,1.016,2.27,2.27v1.926C108.874,5.45,107.858,6.466,106.604,6.466z"/>
	<path fill="#A7A9AC" d="M113.392,6.466h-1.238c-1.254,0-2.27-1.016-2.27-2.27V2.27c0-1.254,1.016-2.27,2.27-2.27h1.238
		c1.254,0,2.27,1.016,2.27,2.27v1.926C115.662,5.45,114.645,6.466,113.392,6.466z"/>
	<polygon fill="#A7A9AC" points="163.999,165.144 143.39,166.441 143.708,183.963 	"/>
	<line fill="none" stroke="#BCBEC0" stroke-miterlimit="10" x1="20.913" y1="54.268" x2="132.08" y2="57.203"/>
	<line fill="none" stroke="#BCBEC0" stroke-miterlimit="10" x1="18.711" y1="70.87" x2="129.884" y2="75.181"/>
	<line fill="none" stroke="#BCBEC0" stroke-miterlimit="10" x1="16.877" y1="85.821" x2="129.884" y2="90.59"/>
	<line fill="none" stroke="#BCBEC0" stroke-miterlimit="10" x1="15.055" y1="100.6" x2="129.884" y2="105.999"/>
	<line fill="none" stroke="#BCBEC0" stroke-miterlimit="10" x1="12.841" y1="115.539" x2="129.884" y2="122.143"/>
	<line fill="none" stroke="#BCBEC0" stroke-miterlimit="10" x1="11.589" y1="131.039" x2="129.884" y2="139.386"/>
	<line fill="none" stroke="#BCBEC0" stroke-miterlimit="10" x1="10.273" y1="144.523" x2="132.08" y2="153.695"/>
	<line fill="none" stroke="#BCBEC0" stroke-miterlimit="10" x1="40.541" y1="44.729" x2="28.434" y2="154.98"/>
	<rect x="-30.748" y="223.199" fill="none" width="214.489" height="28.499"/>
	<text transform="matrix(1 0 0 1 12.1475 248.3981)" fill="#FFFFFF" font-family="'CSPraJad'" font-size="36">วันจัดค่าย</text>
	<rect x="-23.897" y="273.333" fill="none" width="189.266" height="20.773"/>
	<text transform="matrix(1 0 0 1 -14.9943 289.4329)" fill="#FFFFFF" font-family="'CSPraJad'" font-size="23">3-5 เมษายน 2558</text>
</g>
<g id="Layer_4">
	<polygon fill="#FFFFFF" points="447.444,2.065 388.683,69.408 395.61,181.379 447.444,181.379 	"/>
	<polygon fill="#E6E7E8" points="447.686,0.649 447.444,0.922 447.444,181.379 501.493,181.379 508.677,69.408 	"/>
	<g>
		<polygon fill="#D1D3D4" points="447.444,-3.963 363.367,89.213 374.477,89.213 447.444,7.658 		"/>
		<path fill="#D1D3D4" d="M458.977-25.208c2.5,12.5-9.75,19.27-9.75,19.27l-0.785,0.87V6.543l6.58-7.354
			C469.566-12.913,458.977-25.208,458.977-25.208z"/>
		<polygon fill="#A7A9AC" points="447.444,-6.362 447.444,4.897 522.882,89.213 533.993,89.213 		"/>
		<path fill="#A7A9AC" d="M447.444-6.362c-2.542-1.651-11.202-8.148-9.062-18.847c0,0-10.589,12.295,3.956,24.398l5.382,6.016
			L447.444-6.362z"/>
	</g>
	<rect x="400.61" y="75.405" fill="#E6E7E8" width="46.834" height="2.808"/>
	<rect x="447.444" y="75.405" fill="#C7C8C9" width="46.916" height="2.808"/>
	<rect x="410.629" y="103.415" fill="#D1D3D4" width="36.815" height="77.963"/>
	<rect x="447.357" y="103.415" fill="#A7A9AC" width="36.969" height="77.963"/>
	<rect x="340.113" y="222.659" fill="none" width="214.489" height="28.499"/>
	<text transform="matrix(1 0 0 1 399.6434 247.8584)" fill="#FFFFFF" font-family="'CSPraJad'" font-size="36">สถานที่</text>
	<rect x="303.657" y="270.749" fill="none" width="287.4" height="20.773"/>
	<text transform="matrix(1 0 0 1 317.5541 286.8489)" fill="#FFFFFF" font-family="'CSPraJad'" font-size="23">มหาวิทยาลัยราชภัฏจันทรเกษม</text>
</g>
</svg>
