<?xml version="1.0" encoding="utf-8"?>
<!-- Generator: Adobe Illustrator 17.1.0, SVG Export Plug-In . SVG Version: 6.00 Build 0)  -->
<!DOCTYPE svg PUBLIC "-//W3C//DTD SVG 1.1//EN" "http://www.w3.org/Graphics/SVG/1.1/DTD/svg11.dtd">
<svg version="1.1" xmlns="http://www.w3.org/2000/svg" xmlns:xlink="http://www.w3.org/1999/xlink" x="0px" y="0px"
	 viewBox="0 0 165.031 184" enable-background="new 0 0 165.031 184" xml:space="preserve">
<g id="Layer_1" display="none">
	<rect x="-228.349" y="-242.422" display="inline" fill="#00A79D" width="1366" height="768"/>
</g>
<g id="Layer_3">
	<polygon fill="#FFFFFF" points="135.75,38.737 2,38.737 0,0 138,0 	"/>
	<polygon fill="#D1D3D4" points="138,72.632 0,72.632 2,38.737 135.75,38.737 	"/>
	<polygon fill="#FFFFFF" points="135.75,111.368 2,111.368 0,72.632 138,72.632 	"/>
	<polygon fill="#D1D3D4" points="138,145.263 0,145.263 2,110.737 135.75,110.737 	"/>
	<polygon fill="#FFFFFF" points="135.75,184 2,184 0,145.263 138,145.263 	"/>
	<path fill="#FFFFFF" d="M163.734,51.051l0.815-2.785c1.514-5.175-0.661-10.365-4.859-11.593l-0.153-0.045
		c-4.197-1.228-8.827,1.971-10.341,7.146l-0.815,2.785L163.734,51.051z"/>
	
		<rect x="84.514" y="94.416" transform="matrix(-0.2808 0.9598 -0.9598 -0.2808 278.0839 -3.548)" fill="#D1D3D4" width="111.715" height="15.997"/>
	<polygon points="118.641,166.963 119.416,170.899 122.19,168.001 	"/>
	<polygon fill="#C49A6C" points="117.009,153.778 117.008,153.779 119.266,167.146 123.255,168.313 132.362,158.271 132.362,158.27 
			"/>
	<polygon fill="#939598" points="138,82.036 116.632,155.066 138,67.333 	"/>
	<rect x="2.553" y="223.838" fill="none" width="132.894" height="37.498"/>
	<text transform="matrix(1 0 0 1 12.5562 249.0366)" fill="#FFFFFF" font-family="'CSPraJad'" font-size="36">รับสมัคร</text>
	<rect x="-25.633" y="273.972" fill="none" width="203.486" height="20.773"/>
	<text transform="matrix(1 0 0 1 -23.4206 290.0721)" fill="#FFFFFF" font-family="'CSPraJad'" font-size="23">วันนี้-14 มีนาคม 2558</text>
</g>
<g id="Layer_2">
	<polygon fill="#FFFFFF" points="512.396,188.869 368.688,177.397 389.6,8.139 509.117,8.139 	"/>
	<polygon fill="#D1D3D4" points="509.117,8.139 532.687,170.05 521.574,179.667 512.396,188.869 	"/>
	<path fill="#A7A9AC" d="M415.397,11.372h-1.238c-1.254,0-2.27-1.016-2.27-2.27V7.176c0-1.254,1.016-2.27,2.27-2.27h1.238
		c1.254,0,2.27,1.016,2.27,2.27v1.926C417.667,10.356,416.651,11.372,415.397,11.372z"/>
	<path fill="#A7A9AC" d="M421.519,11.372h-1.238c-1.254,0-2.27-1.016-2.27-2.27V7.176c0-1.254,1.016-2.27,2.27-2.27h1.238
		c1.254,0,2.27,1.016,2.27,2.27v1.926C423.79,10.356,422.773,11.372,421.519,11.372z"/>
	<path fill="#A7A9AC" d="M427.78,11.372h-1.238c-1.254,0-2.27-1.016-2.27-2.27V7.176c0-1.254,1.016-2.27,2.27-2.27h1.238
		c1.254,0,2.27,1.016,2.27,2.27v1.926C430.05,10.356,429.033,11.372,427.78,11.372z"/>
	<path fill="#A7A9AC" d="M468.688,11.372h-1.238c-1.254,0-2.27-1.016-2.27-2.27V7.176c0-1.254,1.016-2.27,2.27-2.27h1.238
		c1.254,0,2.27,1.016,2.27,2.27v1.926C470.958,10.356,469.941,11.372,468.688,11.372z"/>
	<path fill="#A7A9AC" d="M475.292,11.372h-1.238c-1.254,0-2.27-1.016-2.27-2.27V7.176c0-1.254,1.016-2.27,2.27-2.27h1.238
		c1.254,0,2.27,1.016,2.27,2.27v1.926C477.562,10.356,476.545,11.372,475.292,11.372z"/>
	<path fill="#A7A9AC" d="M482.079,11.372h-1.238c-1.254,0-2.27-1.016-2.27-2.27V7.176c0-1.254,1.016-2.27,2.27-2.27h1.238
		c1.254,0,2.27,1.016,2.27,2.27v1.926C484.349,10.356,483.333,11.372,482.079,11.372z"/>
	<polygon fill="#A7A9AC" points="532.687,170.05 512.078,171.347 512.396,188.869 	"/>
	<line fill="none" stroke="#BCBEC0" stroke-miterlimit="10" x1="389.6" y1="59.174" x2="500.767" y2="62.109"/>
	<line fill="none" stroke="#BCBEC0" stroke-miterlimit="10" x1="387.399" y1="75.776" x2="498.571" y2="80.087"/>
	<line fill="none" stroke="#BCBEC0" stroke-miterlimit="10" x1="385.564" y1="90.726" x2="498.571" y2="95.496"/>
	<line fill="none" stroke="#BCBEC0" stroke-miterlimit="10" x1="383.742" y1="105.506" x2="498.571" y2="110.905"/>
	<line fill="none" stroke="#BCBEC0" stroke-miterlimit="10" x1="381.529" y1="120.444" x2="498.571" y2="127.048"/>
	<line fill="none" stroke="#BCBEC0" stroke-miterlimit="10" x1="380.276" y1="135.945" x2="498.571" y2="144.292"/>
	<line fill="none" stroke="#BCBEC0" stroke-miterlimit="10" x1="378.96" y1="149.428" x2="500.767" y2="158.601"/>
	<line fill="none" stroke="#BCBEC0" stroke-miterlimit="10" x1="409.229" y1="49.635" x2="397.121" y2="159.886"/>
	<rect x="337.939" y="228.104" fill="none" width="214.489" height="28.499"/>
	<text transform="matrix(1 0 0 1 380.835 253.3038)" fill="#FFFFFF" font-family="'CSPraJad'" font-size="36">วันจัดค่าย</text>
	<rect x="344.791" y="278.239" fill="none" width="189.266" height="20.773"/>
	<text transform="matrix(1 0 0 1 353.6932 294.3386)" fill="#FFFFFF" font-family="'CSPraJad'" font-size="23">3-5 เมษายน 2558</text>
</g>
<g id="Layer_4">
	<polygon fill="#FFFFFF" points="816.132,6.971 757.37,74.314 764.297,186.285 816.132,186.285 	"/>
	<polygon fill="#E6E7E8" points="816.374,5.555 816.132,5.827 816.132,186.285 870.18,186.285 877.364,74.314 	"/>
	<g>
		<polygon fill="#D1D3D4" points="816.132,0.943 732.054,94.118 743.165,94.118 816.132,12.564 		"/>
		<path fill="#D1D3D4" d="M827.665-20.303c2.5,12.5-9.75,19.27-9.75,19.27l-0.785,0.87v11.611l6.58-7.354
			C838.253-8.007,827.665-20.303,827.665-20.303z"/>
		<polygon fill="#A7A9AC" points="816.132,-1.456 816.132,9.802 891.57,94.118 902.68,94.118 		"/>
		<path fill="#A7A9AC" d="M816.132-1.456c-2.542-1.651-11.202-8.148-9.062-18.847c0,0-10.589,12.295,3.956,24.398l5.382,6.016
			L816.132-1.456z"/>
	</g>
	<rect x="769.297" y="80.311" fill="#E6E7E8" width="46.834" height="2.808"/>
	<rect x="816.132" y="80.311" fill="#C7C8C9" width="46.916" height="2.808"/>
	<rect x="779.317" y="108.321" fill="#D1D3D4" width="36.815" height="77.963"/>
	<rect x="816.045" y="108.321" fill="#A7A9AC" width="36.969" height="77.963"/>
	<rect x="708.8" y="227.565" fill="none" width="214.489" height="28.499"/>
	<text transform="matrix(1 0 0 1 768.3309 252.7641)" fill="#FFFFFF" font-family="'CSPraJad'" font-size="36">สถานที่</text>
	<rect x="672.345" y="275.655" fill="none" width="287.4" height="20.773"/>
	<text transform="matrix(1 0 0 1 686.2416 291.7546)" fill="#FFFFFF" font-family="'CSPraJad'" font-size="23">มหาวิทยาลัยราชภัฏจันทรเกษม</text>
</g>
</svg>
