<?xml version="1.0" encoding="utf-8"?>
<!-- Generator: Adobe Illustrator 15.0.0, SVG Export Plug-In . SVG Version: 6.00 Build 0)  -->
<!DOCTYPE svg PUBLIC "-//W3C//DTD SVG 1.1//EN" "http://www.w3.org/Graphics/SVG/1.1/DTD/svg11.dtd">
<svg version="1.1" id="Layer_1" xmlns="http://www.w3.org/2000/svg" xmlns:xlink="http://www.w3.org/1999/xlink" x="0px" y="0px"
	 width="50.705px" height="38.16px" viewBox="0 0 50.705 38.16" enable-background="new 0 0 50.705 38.16" xml:space="preserve">
<path fill="#E64E25" d="M-179.86-23.641c0,10.812-8.771,19.582-19.586,19.582h-202.375c-10.816,0-19.586-8.77-19.586-19.582
	v-261.135c0-10.815,8.769-19.585,19.586-19.585h202.377c10.814,0,19.585,8.77,19.585,19.585L-179.86-23.641L-179.86-23.641z"/>
<path fill="#FFFFFF" d="M-136.52,134.062l60.958,2.15c0,0,12.465-80.604-28.869-79.88
	C-143.596,57.021-137.771,92.659-136.52,134.062"/>
<g>
	<g>
		<defs>
			<path id="SVGID_1_" d="M-98.095,181.078l2.687,46.174c0.121,7.475,0.489,14.992,1.111,22.441
				c0.328,3.963-1.18,9.492,1.307,12.973c2.368,3.316,7.098,2.328,10.624,2.836c6.005,0.869,12.008,1.764,18.013,2.635
				c1.148,0.17-1.351-5.783-1.7-6.217c-1.326-1.643-3.269-2.082-5.026-3.064c-2.554-1.432-9.724-3.453-9.706-7.271
				c0.006-1.391,0.423-76.666,0.423-76.666L-98.095,181.078z"/>
		</defs>
		<clipPath id="SVGID_2_">
			<use xlink:href="#SVGID_1_"  overflow="visible"/>
		</clipPath>
		
			<linearGradient id="SVGID_3_" gradientUnits="userSpaceOnUse" x1="-468.5845" y1="84.9912" x2="-467.5845" y2="84.9912" gradientTransform="matrix(33.8115 -0.0895 0.0895 33.8115 15737.9629 -2693.9619)">
			<stop  offset="0" style="stop-color:#D29C43"/>
			<stop  offset="0.0032" style="stop-color:#D29C43"/>
			<stop  offset="0.1539" style="stop-color:#DFAC5A"/>
			<stop  offset="0.3313" style="stop-color:#E9B96D"/>
			<stop  offset="0.5205" style="stop-color:#F2C47B"/>
			<stop  offset="0.7279" style="stop-color:#F7CB84"/>
			<stop  offset="0.9875" style="stop-color:#F9CD87"/>
			<stop  offset="1" style="stop-color:#F9CD87"/>
		</linearGradient>
		<polygon clip-path="url(#SVGID_2_)" fill="url(#SVGID_3_)" points="-98.342,174.918 -63.206,174.826 -62.958,268.305 
			-98.094,268.398 		"/>
	</g>
</g>
<path fill="#4A443B" d="M-64.498,266.273c0,0,2.443,0.436,2.618,1.564c0.173,1.129-0.174,2.625-0.174,2.625l-32.003-1.402
	l0.247-3.014L-64.498,266.273z"/>
<g>
	<g>
		<defs>
			<path id="SVGID_4_" d="M-129.076,251.238c0.09,3.818-7.04,5.973-9.566,7.453c-1.74,1.02-3.672,1.496-4.967,3.16
				c-0.341,0.441-2.729,6.438-1.584,6.252c5.989-0.988,11.974-1.996,17.961-2.98c3.517-0.574,8.263,0.322,10.567-3.039
				c2.42-3.525,0.807-9.025,1.062-12.994c0.479-7.461,0.703-14.984,0.685-22.459l1.81-46.213l-17.847-5.826
				C-130.956,174.592-129.108,249.848-129.076,251.238"/>
		</defs>
		<clipPath id="SVGID_5_">
			<use xlink:href="#SVGID_4_"  overflow="visible"/>
		</clipPath>
		
			<linearGradient id="SVGID_6_" gradientUnits="userSpaceOnUse" x1="-469.1343" y1="85.3018" x2="-468.1343" y2="85.3018" gradientTransform="matrix(32.6221 -0.0864 0.0864 32.6221 15151.1416 -2601.7549)">
			<stop  offset="0" style="stop-color:#D29C43"/>
			<stop  offset="0.0032" style="stop-color:#D29C43"/>
			<stop  offset="0.1453" style="stop-color:#DAA651"/>
			<stop  offset="0.5029" style="stop-color:#EABA6E"/>
			<stop  offset="0.7964" style="stop-color:#F5C880"/>
			<stop  offset="0.9875" style="stop-color:#F9CD87"/>
			<stop  offset="1" style="stop-color:#F9CD87"/>
		</linearGradient>
		<polygon clip-path="url(#SVGID_5_)" fill="url(#SVGID_6_)" points="-146.588,174.594 -113.109,174.506 -112.861,268.289 
			-146.339,268.379 		"/>
	</g>
</g>
<g>
	<g>
		<defs>
			<path id="SVGID_7_" d="M-139.721,195.207c0,0,13.468,17.1,33.408-0.373l1.278-56.543l-31.699-0.771
				C-136.732,137.518-156.904,176.406-139.721,195.207"/>
		</defs>
		<clipPath id="SVGID_8_">
			<use xlink:href="#SVGID_7_"  overflow="visible"/>
		</clipPath>
		
			<linearGradient id="SVGID_9_" gradientUnits="userSpaceOnUse" x1="-465.7266" y1="83.501" x2="-464.7266" y2="83.501" gradientTransform="matrix(41.7148 -0.1105 0.1105 41.7148 19271.7969 -3359.75)">
			<stop  offset="0" style="stop-color:#A91F25"/>
			<stop  offset="1" style="stop-color:#E83729"/>
		</linearGradient>
		<polygon clip-path="url(#SVGID_8_)" fill="url(#SVGID_9_)" points="-157.103,137.52 -105.034,137.381 -104.835,212.307 
			-156.904,212.443 		"/>
	</g>
</g>
<g>
	<g>
		<defs>
			<path id="SVGID_10_" d="M-109.814,139.443l1.577,56.537c20.034,17.367,33.41,0.197,33.41,0.197
				c17.083-18.893-3.293-57.674-3.293-57.674L-109.814,139.443z"/>
		</defs>
		<clipPath id="SVGID_11_">
			<use xlink:href="#SVGID_10_"  overflow="visible"/>
		</clipPath>
		
			<linearGradient id="SVGID_12_" gradientUnits="userSpaceOnUse" x1="-465.7266" y1="83.5" x2="-464.7266" y2="83.5" gradientTransform="matrix(41.7148 -0.1105 0.1105 41.7148 19308.7344 -3358.6875)">
			<stop  offset="0" style="stop-color:#A91F25"/>
			<stop  offset="1" style="stop-color:#E83729"/>
		</linearGradient>
		<polygon clip-path="url(#SVGID_11_)" fill="url(#SVGID_12_)" points="-110.013,138.506 -57.745,138.367 -57.546,213.348 
			-109.814,213.486 		"/>
	</g>
</g>
<path fill="#EAB862" d="M-100.01,58.129c0.009,3.785-3.697,6.864-8.279,6.877l-0.922,0.001c-4.58,0.012-8.305-3.047-8.313-6.832
	l-0.031-11.803c-0.011-3.784,3.697-6.861,8.278-6.874l0.921-0.002c4.582-0.013,8.306,3.047,8.314,6.831L-100.01,58.129z"/>
<g>
	<g>
		<defs>
			<path id="SVGID_13_" d="M-80.338,132.799l-54.562,0.146c-2.756,0.006-4.981,2.185-4.976,4.868c0.009,2.68,2.246,4.846,5.002,4.84
				l54.561-0.145c2.753-0.008,4.981-2.186,4.975-4.867c-0.007-2.678-2.236-4.842-4.982-4.842
				C-80.326,132.799-80.332,132.799-80.338,132.799"/>
		</defs>
		<clipPath id="SVGID_14_">
			<use xlink:href="#SVGID_13_"  overflow="visible"/>
		</clipPath>
		
			<linearGradient id="SVGID_15_" gradientUnits="userSpaceOnUse" x1="-461.4048" y1="80.9619" x2="-460.4043" y2="80.9619" gradientTransform="matrix(64.5352 -0.1709 0.1709 64.5352 29623.082 -5165.9209)">
			<stop  offset="0" style="stop-color:#A91F25"/>
			<stop  offset="1" style="stop-color:#E83729"/>
		</linearGradient>
		<polygon clip-path="url(#SVGID_14_)" fill="url(#SVGID_15_)" points="-139.906,132.799 -75.331,132.629 -75.305,142.658 
			-139.88,142.83 		"/>
	</g>
</g>
<g>
	<g>
		<defs>
			<path id="SVGID_16_" d="M-105.033,138.289l-2.286,0.006c-3.784,0.012-6.844,3.088-6.832,6.873l0.003,1.711
				c0.006,2.32,1.166,4.363,2.937,5.602c-0.853,12.791-2.393,38.941-1.095,43.225c1.729,5.709,5.168,10.27,5.168,10.27
				s5.7-4.016,6.826-10.299l-1.588-42.719c2.226-1.139,3.751-3.449,3.743-6.119l-0.005-1.711c-0.01-3.781-3.076-6.836-6.854-6.836
				C-105.021,138.289-105.027,138.289-105.033,138.289"/>
		</defs>
		<clipPath id="SVGID_17_">
			<use xlink:href="#SVGID_16_"  overflow="visible"/>
		</clipPath>
		
			<linearGradient id="SVGID_18_" gradientUnits="userSpaceOnUse" x1="-485.395" y1="94.4175" x2="-484.395" y2="94.4175" gradientTransform="matrix(15.9902 -0.0423 0.0423 15.9902 7643.5171 -1358.1221)">
			<stop  offset="0" style="stop-color:#A91F25"/>
			<stop  offset="1" style="stop-color:#E83729"/>
		</linearGradient>
		<polygon clip-path="url(#SVGID_17_)" fill="url(#SVGID_18_)" points="-114.343,138.291 -98.149,138.248 -97.971,205.973 
			-114.163,206.016 		"/>
	</g>
</g>
<path fill="#FFFFFF" d="M-119.144,58.372c0,0-1.876,9.904,5.742,11.788c7.621,1.883,14.468-0.801,15.216-6.133l-0.02-6.852
	c0,0,11.05,3.397,12.578,4.915l5.289,70.711l-55.043-0.17l4.067-68.896C-131.312,63.733-121.046,58.376-119.144,58.372"/>
<path fill="#4A443B" d="M-145.083,266.234c0,0-2.435,0.484-2.585,1.613c-0.153,1.133,0.22,2.623,0.22,2.623l31.972-2.012
	l-0.308-3.012L-145.083,266.234z"/>
<path fill="#8F9293" d="M-127.07,12.375l0.04,14.972l-3.14,0.008l-0.184-14.703C-130.353,12.651-128.078,9.14-127.07,12.375"/>
<path fill="#8F9293" d="M-89.377,12.273l0.041,14.974l-3.144,0.007l-0.181-14.701C-92.659,12.553-90.385,9.039-89.377,12.273"/>
<g>
	<g>
		<defs>
			<path id="SVGID_19_" d="M-127.322,7.238c0.009,0.463,0.014,0.922,0.011,1.385l-0.341-0.654l0.34,0.75
				c-0.003,1.249-0.053,2.497-0.187,3.742c0.046,0.366,0.086,0.719,0.093,1.025c0.039,1.933,0.079,3.871,0.128,5.809
				c-2.269,0.497-3.955,2.359-3.948,4.585c0.006,2.32,1.849,4.24,4.267,4.617c0.034,0.771,0.074,1.541,0.115,2.313l0.146,13.525
				l0.172-0.424c0.076,0.61,0.2,1.202,0.415,1.762c1.514,3.957,6.254,6.007,10.408,7.382c4.04,1.339,7.556,1.64,11.812,0.966
				c7.836-1.243,13.207-4.462,13.104-12.545c-0.061-4.796-0.22-9.599-0.421-14.399c1.463-0.832,2.438-2.315,2.434-4.006
				c-0.004-1.83-1.151-3.407-2.82-4.181c-0.208-4.087-0.434-8.173-0.647-12.253c0,0-3.451-8.907-17.443-9.116
				c-0.136-0.002-0.271-0.003-0.404-0.003C-121.556-2.481-126.141,4.863-127.322,7.238"/>
		</defs>
		<clipPath id="SVGID_20_">
			<use xlink:href="#SVGID_19_"  overflow="visible"/>
		</clipPath>
		
			<linearGradient id="SVGID_21_" gradientUnits="userSpaceOnUse" x1="-465.5142" y1="83.272" x2="-464.5142" y2="83.272" gradientTransform="matrix(42.4512 -0.1124 0.1124 42.4512 19621.0469 -3561.1396)">
			<stop  offset="0" style="stop-color:#D29C43"/>
			<stop  offset="0.0032" style="stop-color:#D29C43"/>
			<stop  offset="0.1453" style="stop-color:#DAA651"/>
			<stop  offset="0.5029" style="stop-color:#EABA6E"/>
			<stop  offset="0.7964" style="stop-color:#F5C880"/>
			<stop  offset="0.9875" style="stop-color:#F9CD87"/>
			<stop  offset="1" style="stop-color:#F9CD87"/>
		</linearGradient>
		<polygon clip-path="url(#SVGID_20_)" fill="url(#SVGID_21_)" points="-131.385,-2.48 -88.771,-2.594 -88.62,54.695 
			-131.233,54.809 		"/>
	</g>
</g>
<path fill="#352215" d="M-110.29-4.74c0,0,1.301,11.414-0.917,12.688c-2.219,1.274-14.119,1.52-16.647,5.119
	c-2.531,3.6-8.721,2.983-9.218-5.261c0,0,5.086,3.37,6.664,0.193C-128.829,4.823-131.404-8.912-110.29-4.74"/>
<path fill="#352215" d="M-109.654-4.742c0,0-0.604,12.055,1.621,13.316c2.227,1.263,13.297,0.177,15.844,3.764
	c2.549,3.588,8.735,2.938,9.189-5.31c0,0-5.069,3.397-6.663,0.23C-91.26,4.09-88.562-9.026-109.654-4.742"/>
<path fill="#4A443B" d="M-69.702,258.24c0,0,4.761,7.268,3.37,9.572l-2.857,0.047l-2.174-10.816L-69.702,258.24z"/>
<path fill="#4A443B" d="M-137.264,258.078c0,0-4.618,7.355-3.185,9.635l2.854-0.008l1.971-10.854L-137.264,258.078z"/>
<path fill="#FDFEFF" d="M-118.332,34.809c1.054,1.408,1.362,3.132,0.687,3.857l-6.682,7.259c-0.67,0.736-2.069,0.185-3.124-1.23
	l-14.898-20.102c-1.066-1.451-1.386-3.213-0.714-3.937l6.718-7.156c0.676-0.713,2.088-0.12,3.151,1.322L-118.332,34.809z"/>
<path fill="#9EA0A3" d="M-132.05,23.689c-0.071,1.207,0.767,2.377,1.866,2.304c0.252,0.654,0.479,1.315,0.48,1.985
	c0.002,0.324-0.14,0.531-0.373,0.59c-0.436,0.11-0.729,0.378-0.859,0.906c-0.085,0.35-0.324,0.475-0.658,0.385
	c-1.08-0.294-2.022-0.995-2.765-2.211c-0.615-1.009-0.62-2.38,0.374-2.599c0.267-0.06,0.402-0.252,0.485-0.549
	c0.156-0.566,0.484-0.889,1.021-0.882C-132.35,23.619-132.213,23.66-132.05,23.689"/>
<path fill="#9EA0A3" d="M-133.942,24.557c-0.535-0.642-0.649-1.578-0.271-2.078C-133.648,23.036-133.5,24.119-133.942,24.557"/>
<g>
	<g>
		<defs>
			<path id="SVGID_22_" d="M-135.553,31.907l-2.272,2.974c-0.995,1.303-1.548,2.763-1.669,4.138l-21.948,25.719
				c0,0-3.465,4.26-1.027,6.786c2.437,2.525,30.413,5.952,30.413,5.952s3.373-7.325,1.08-11.369l-16.981-2.382l15.065-17.731
				c0.091,0.091,0.188,0.18,0.276,0.271c0.063-0.07,0.13-0.139,0.189-0.207c1.645-0.115,3.4-1.006,4.771-2.536
				c0.01,0,0.019,0.002,0.027,0.002c-0.005-0.005-0.01-0.01-0.018-0.016c0.15-0.165,0.293-0.339,0.431-0.522l2.271-2.972
				c2.261-2.957,2.272-6.743,0.026-8.457l-2.483-1.897c-0.742-0.566-1.638-0.836-2.586-0.836
				C-131.908,28.824-134.042,29.929-135.553,31.907"/>
		</defs>
		<clipPath id="SVGID_23_">
			<use xlink:href="#SVGID_22_"  overflow="visible"/>
		</clipPath>
		
			<linearGradient id="SVGID_24_" gradientUnits="userSpaceOnUse" x1="-464.7607" y1="84.4062" x2="-463.7603" y2="84.4062" gradientTransform="matrix(42.4117 4.0375 -4.0375 42.4117 19884.5859 -1652.457)">
			<stop  offset="0" style="stop-color:#D29C43"/>
			<stop  offset="0.0032" style="stop-color:#D29C43"/>
			<stop  offset="0.1453" style="stop-color:#DAA651"/>
			<stop  offset="0.5029" style="stop-color:#EABA6E"/>
			<stop  offset="0.7964" style="stop-color:#F5C880"/>
			<stop  offset="0.9875" style="stop-color:#F9CD87"/>
			<stop  offset="1" style="stop-color:#F9CD87"/>
		</linearGradient>
		<polygon clip-path="url(#SVGID_23_)" fill="url(#SVGID_24_)" points="-164.528,24.84 -118.082,29.261 -123.052,81.461 
			-169.497,77.041 		"/>
	</g>
</g>
<g>
	<g>
		<defs>
			<path id="SVGID_25_" d="M-85.409,78.815l11.867,18.814l-10.612,33.128c-0.354-0.112-0.709-0.223-1.064-0.338
				c-1.249,0.877-2.312,2.295-2.877,4.062l-1.146,3.561c-1.138,3.541,0.119,7.113,2.808,7.977l2.977,0.957
				c2.688,0.863,5.791-1.305,6.929-4.848l1.145-3.564c0.07-0.213,0.132-0.432,0.183-0.646c0.008,0,0.016,0,0.023,0.002
				c-0.009-0.006-0.013-0.012-0.019-0.02c0.255-1.074,0.289-2.129,0.139-3.1c4.186-6.672,13.659-34.188,12.688-37.77
				c-1.084-3.995-23.38-34.941-23.38-34.941C-90.325,70.504-85.409,78.815-85.409,78.815"/>
		</defs>
		<clipPath id="SVGID_26_">
			<use xlink:href="#SVGID_25_"  overflow="visible"/>
		</clipPath>
		
			<linearGradient id="SVGID_27_" gradientUnits="userSpaceOnUse" x1="-463.9355" y1="82.3887" x2="-462.9355" y2="82.3887" gradientTransform="matrix(48.874 -0.1294 0.1294 48.874 22567.2422 -3981.708)">
			<stop  offset="0" style="stop-color:#D29C43"/>
			<stop  offset="0.0032" style="stop-color:#D29C43"/>
			<stop  offset="0.1453" style="stop-color:#DAA651"/>
			<stop  offset="0.5029" style="stop-color:#EABA6E"/>
			<stop  offset="0.7964" style="stop-color:#F5C880"/>
			<stop  offset="0.9875" style="stop-color:#F9CD87"/>
			<stop  offset="1" style="stop-color:#F9CD87"/>
		</linearGradient>
		<polygon clip-path="url(#SVGID_26_)" fill="url(#SVGID_27_)" points="-90.606,62.089 -61.399,62.012 -61.172,147.838 
			-90.379,147.916 		"/>
	</g>
</g>
<path fill="#F2AB1F" d="M-171.387,126.904c1.193,0.341,2.24,0.896,3.138,1.665c0.896,0.769,1.622,1.688,2.178,2.754
	c0.556,1.239,0.833,2.478,0.833,3.716c0,1.152-0.225,2.242-0.673,3.266c-0.448,1.025-1.057,1.922-1.825,2.691
	c-0.77,0.768-1.665,1.377-2.689,1.824c-1.022,0.449-2.113,0.674-3.268,0.674h-4.163v3.906h-3.073v-3.906h-4.292v-0.066
	c-1.152,0-2.24-0.213-3.267-0.639c-1.023-0.428-1.922-1.025-2.689-1.793c-0.769-0.77-1.366-1.666-1.793-2.691
	c-0.428-1.023-0.641-2.113-0.641-3.266h3.074c0,1.494,0.521,2.754,1.568,3.779c1.047,1.023,2.295,1.537,3.745,1.537v0.062h4.292
	h3.074h4.163c1.495,0,2.755-0.521,3.779-1.568c1.024-1.045,1.538-2.316,1.538-3.811c0-1.238-0.374-2.326-1.122-3.268
	c-0.747-0.939-1.676-1.579-2.785-1.921l-0.32-0.064l-1.09-0.256l-12.872-3.011c-0.216-0.042-0.396-0.085-0.546-0.128
	c-0.15-0.042-0.331-0.084-0.544-0.128c-2.35-0.727-4.058-2.199-5.125-4.42c-0.555-1.195-0.831-2.411-0.831-3.65
	c0-1.152,0.213-2.242,0.64-3.266c0.428-1.025,1.025-1.922,1.793-2.69c0.77-0.769,1.666-1.377,2.69-1.826
	c1.025-0.448,2.113-0.673,3.266-0.673h4.292v-3.906h3.074v3.906h4.163c1.153,0,2.244,0.225,3.268,0.673
	c1.024,0.449,1.921,1.058,2.689,1.826c0.77,0.769,1.377,1.665,1.825,2.69c0.448,1.023,0.673,2.113,0.673,3.266h-3.075h-0.062
	c0-0.727-0.142-1.419-0.417-2.081c-0.278-0.662-0.652-1.239-1.121-1.729c-0.47-0.49-1.024-0.875-1.665-1.152
	c-0.642-0.278-1.345-0.417-2.114-0.417h-4.163h-3.073h-4.293c-0.726,0-1.419,0.139-2.08,0.417c-0.663,0.277-1.229,0.662-1.697,1.152
	c-0.47,0.49-0.843,1.057-1.121,1.696c-0.277,0.642-0.415,1.347-0.415,2.114c0,1.195,0.341,2.253,1.024,3.171
	c0.682,0.918,1.558,1.547,2.625,1.89l0.896,0.191l0.768,0.191l13.132,3.14C-171.878,126.776-171.644,126.82-171.387,126.904"/>
<path fill="#F2AB1F" d="M-24.491,190.332c0.837,0.24,1.569,0.631,2.198,1.168c0.628,0.537,1.137,1.182,1.523,1.93
	c0.39,0.867,0.583,1.734,0.583,2.602c0,0.807-0.155,1.57-0.47,2.287c-0.313,0.719-0.741,1.348-1.277,1.885
	c-0.537,0.539-1.168,0.965-1.885,1.279c-0.719,0.312-1.48,0.471-2.29,0.471h-2.914v2.736h-2.153v-2.736h-3.004v-0.045
	c-0.81,0-1.571-0.148-2.289-0.447c-0.72-0.301-1.347-0.719-1.886-1.258c-0.536-0.537-0.956-1.166-1.256-1.885
	c-0.299-0.717-0.447-1.48-0.447-2.287h2.154c0,1.047,0.364,1.93,1.099,2.646c0.732,0.719,1.605,1.076,2.625,1.076v0.045h3.004h2.154
	h2.913c1.049,0,1.931-0.365,2.648-1.098c0.717-0.734,1.076-1.625,1.076-2.672c0-0.865-0.263-1.627-0.785-2.287
	c-0.522-0.658-1.174-1.105-1.951-1.346l-0.225-0.045l-0.765-0.18l-9.016-2.107c-0.15-0.029-0.275-0.061-0.381-0.09
	s-0.232-0.061-0.382-0.092c-1.646-0.508-2.841-1.539-3.589-3.094c-0.39-0.838-0.583-1.688-0.583-2.559
	c0-0.809,0.148-1.568,0.447-2.287c0.301-0.715,0.72-1.346,1.257-1.883c0.539-0.541,1.166-0.967,1.885-1.279
	c0.718-0.314,1.479-0.471,2.289-0.471h3.004v-2.736h2.154v2.736h2.914c0.809,0,1.57,0.154,2.289,0.471
	c0.718,0.312,1.348,0.738,1.885,1.279c0.537,0.537,0.964,1.168,1.277,1.883c0.313,0.719,0.471,1.479,0.471,2.287h-2.152h-0.045
	c0-0.508-0.098-0.992-0.292-1.457c-0.195-0.463-0.456-0.865-0.784-1.211c-0.329-0.344-0.719-0.611-1.168-0.809
	c-0.447-0.193-0.941-0.291-1.48-0.291h-2.913h-2.154h-3.004c-0.511,0-0.996,0.098-1.459,0.291c-0.464,0.195-0.86,0.465-1.189,0.809
	c-0.328,0.346-0.591,0.738-0.785,1.188c-0.193,0.451-0.289,0.943-0.289,1.48c0,0.838,0.237,1.58,0.716,2.221
	c0.479,0.645,1.093,1.086,1.84,1.324l0.628,0.135l0.54,0.133l9.193,2.201C-24.836,190.244-24.671,190.275-24.491,190.332"/>
<path fill="#F2AB1F" d="M-171.916,244.078c0.521,0.15,0.98,0.393,1.373,0.73c0.394,0.336,0.712,0.736,0.954,1.203
	c0.243,0.543,0.364,1.084,0.364,1.627c0,0.506-0.098,0.98-0.296,1.43c-0.194,0.449-0.461,0.842-0.798,1.18
	c-0.337,0.336-0.729,0.602-1.178,0.797c-0.448,0.199-0.925,0.297-1.43,0.297h-1.822v1.709h-1.346v-1.709h-1.879v-0.027
	c-0.506,0-0.981-0.096-1.432-0.281c-0.448-0.188-0.841-0.447-1.176-0.785c-0.338-0.336-0.6-0.729-0.785-1.178
	c-0.188-0.449-0.28-0.926-0.28-1.432h1.346c0,0.656,0.229,1.207,0.687,1.654c0.458,0.449,1.005,0.674,1.643,0.674v0.027h1.878h1.346
	h1.822c0.654,0,1.205-0.227,1.652-0.686c0.449-0.457,0.675-1.016,0.675-1.67c0-0.543-0.164-1.018-0.491-1.43
	c-0.327-0.41-0.733-0.689-1.221-0.842l-0.14-0.027l-0.477-0.111l-5.637-1.318c-0.094-0.018-0.172-0.037-0.236-0.055
	c-0.066-0.02-0.146-0.037-0.239-0.057c-1.027-0.316-1.775-0.963-2.243-1.936c-0.243-0.523-0.363-1.055-0.363-1.598
	c0-0.508,0.093-0.982,0.28-1.432s0.447-0.842,0.785-1.178c0.335-0.336,0.728-0.602,1.176-0.799c0.449-0.197,0.927-0.295,1.433-0.295
	h1.878v-1.711h1.346v1.711h1.822c0.505,0,0.98,0.098,1.43,0.295c0.448,0.197,0.841,0.463,1.178,0.799s0.604,0.729,0.798,1.178
	c0.198,0.449,0.297,0.924,0.297,1.432h-1.347h-0.027c0-0.318-0.062-0.621-0.185-0.912c-0.12-0.289-0.284-0.541-0.49-0.758
	c-0.205-0.215-0.447-0.383-0.729-0.504c-0.281-0.123-0.589-0.182-0.925-0.182h-1.822h-1.346h-1.878
	c-0.318,0-0.622,0.059-0.912,0.182c-0.29,0.121-0.538,0.289-0.744,0.504c-0.204,0.217-0.368,0.465-0.489,0.744
	c-0.122,0.279-0.183,0.588-0.183,0.926c0,0.521,0.147,0.984,0.447,1.387c0.299,0.404,0.684,0.678,1.149,0.826l0.393,0.086
	l0.339,0.084l5.745,1.375C-172.131,244.023-172.029,244.041-171.916,244.078"/>
<path fill="#F2AB1F" d="M-23.443,59.239c0.521,0.149,0.979,0.393,1.374,0.729c0.393,0.336,0.71,0.738,0.952,1.206
	c0.243,0.541,0.363,1.085,0.363,1.624c0,0.505-0.098,0.983-0.293,1.431c-0.195,0.449-0.462,0.842-0.798,1.177
	c-0.337,0.337-0.73,0.604-1.18,0.8c-0.447,0.197-0.926,0.294-1.43,0.294h-1.823v1.712h-1.346V66.5H-29.5v-0.028
	c-0.505,0-0.981-0.093-1.43-0.28c-0.45-0.187-0.843-0.449-1.18-0.786c-0.336-0.335-0.599-0.728-0.784-1.177
	c-0.188-0.448-0.279-0.926-0.279-1.431h1.346c0,0.656,0.228,1.208,0.686,1.656c0.458,0.448,1.007,0.673,1.643,0.673v0.029h1.877
	h1.346h1.823c0.654,0,1.205-0.229,1.654-0.688c0.448-0.458,0.673-1.014,0.673-1.67c0-0.539-0.164-1.016-0.491-1.429
	c-0.327-0.411-0.734-0.691-1.221-0.841l-0.14-0.028l-0.477-0.112l-5.637-1.317c-0.093-0.018-0.173-0.039-0.236-0.056
	c-0.066-0.02-0.146-0.038-0.239-0.056c-1.026-0.318-1.774-0.963-2.243-1.935c-0.243-0.524-0.362-1.055-0.362-1.598
	c0-0.505,0.092-0.982,0.279-1.431c0.187-0.447,0.448-0.841,0.784-1.176c0.337-0.337,0.729-0.602,1.18-0.8
	c0.447-0.196,0.925-0.294,1.43-0.294h1.877v-1.71h1.346v1.71h1.823c0.504,0,0.981,0.098,1.43,0.294
	c0.448,0.198,0.842,0.463,1.18,0.8c0.336,0.335,0.603,0.729,0.798,1.176c0.195,0.449,0.293,0.926,0.293,1.431h-1.344h-0.028
	c0-0.317-0.062-0.621-0.182-0.912c-0.122-0.289-0.285-0.541-0.491-0.756c-0.208-0.215-0.449-0.383-0.729-0.505
	c-0.281-0.122-0.59-0.182-0.926-0.182h-1.823h-1.346h-1.877c-0.318,0-0.622,0.06-0.912,0.182s-0.537,0.29-0.743,0.505
	c-0.205,0.215-0.369,0.463-0.49,0.743c-0.122,0.28-0.182,0.589-0.182,0.925c0,0.523,0.149,0.985,0.447,1.387
	c0.3,0.403,0.683,0.677,1.149,0.827l0.392,0.084l0.339,0.085l5.745,1.375C-23.659,59.185-23.557,59.203-23.443,59.239"/>
<path fill="#F2AB1F" d="M-181.475,13.324c0.523,0.149,0.98,0.393,1.373,0.729c0.394,0.336,0.711,0.738,0.954,1.205
	c0.241,0.542,0.364,1.086,0.364,1.626c0,0.505-0.099,0.982-0.295,1.43c-0.195,0.449-0.463,0.842-0.798,1.177
	c-0.338,0.338-0.729,0.604-1.179,0.8c-0.448,0.197-0.927,0.294-1.431,0.294h-1.821v1.712h-1.348v-1.712h-1.878v-0.028
	c-0.504,0-0.98-0.093-1.429-0.28c-0.45-0.187-0.843-0.448-1.18-0.786c-0.336-0.335-0.598-0.728-0.783-1.177
	c-0.188-0.448-0.28-0.925-0.28-1.43h1.345c0,0.655,0.229,1.207,0.688,1.655c0.458,0.448,1.004,0.673,1.64,0.673v0.029h1.878h1.347
	h1.822c0.654,0,1.205-0.229,1.654-0.688c0.449-0.458,0.673-1.014,0.673-1.669c0-0.54-0.164-1.017-0.491-1.43
	c-0.327-0.411-0.733-0.691-1.219-0.841l-0.141-0.028l-0.478-0.112l-5.637-1.317c-0.092-0.018-0.172-0.039-0.237-0.056
	c-0.063-0.019-0.145-0.038-0.238-0.056c-1.026-0.318-1.773-0.963-2.242-1.936c-0.243-0.523-0.363-1.054-0.363-1.597
	c0-0.505,0.093-0.982,0.28-1.431c0.187-0.447,0.447-0.841,0.784-1.176c0.336-0.337,0.729-0.602,1.179-0.801
	c0.447-0.195,0.925-0.294,1.429-0.294h1.878V4.101h1.347V5.81h1.822c0.504,0,0.981,0.099,1.431,0.294
	c0.448,0.199,0.841,0.464,1.179,0.801c0.335,0.335,0.603,0.729,0.798,1.176c0.196,0.449,0.295,0.926,0.295,1.431h-1.346h-0.028
	c0-0.317-0.062-0.621-0.182-0.912c-0.122-0.289-0.285-0.541-0.491-0.756c-0.207-0.215-0.449-0.383-0.729-0.505
	s-0.59-0.182-0.926-0.182h-1.822h-1.347h-1.878c-0.317,0-0.621,0.06-0.911,0.182s-0.537,0.29-0.742,0.505
	c-0.206,0.215-0.37,0.463-0.491,0.743s-0.183,0.589-0.183,0.925c0,0.523,0.15,0.985,0.448,1.387c0.3,0.403,0.684,0.677,1.148,0.827
	l0.395,0.085l0.336,0.084l5.748,1.375C-181.69,13.27-181.588,13.289-181.475,13.324"/>
<polygon fill="#792A7B" points="0,35.022 19.864,14.637 31.888,21.955 46.001,4.183 42.865,2.615 50.705,0 49.661,7.84 48.093,5.75 
	33.456,26.659 20.388,19.863 3.138,38.16 "/>
<polygon fill="#792A7B" points="-109.916,72.225 -112.729,66.598 -103.232,66.598 -106.047,72.927 -100.42,100.359 
	-107.452,111.965 -113.432,101.062 "/>
</svg>
