<?xml version="1.0" encoding="utf-8"?>
<!-- Generator: Adobe Illustrator 18.0.0, SVG Export Plug-In . SVG Version: 6.00 Build 0)  -->
<!DOCTYPE svg PUBLIC "-//W3C//DTD SVG 1.1//EN" "http://www.w3.org/Graphics/SVG/1.1/DTD/svg11.dtd">
<svg version="1.1" xmlns="http://www.w3.org/2000/svg" xmlns:xlink="http://www.w3.org/1999/xlink" x="0px" y="0px"
	 viewBox="0 0 800 314.3" enable-background="new 0 0 800 314.3" xml:space="preserve">
<g id="Layer_3" display="none">
	<path display="inline" d="M705,119c-55.2,0-100,44.8-100,100s44.8,100,100,100c55.2,0,100-44.8,100-100S760.2,119,705,119z
		 M705,259c-22.1,0-40-17.9-40-40s17.9-40,40-40c22.1,0,40,17.9,40,40S727.1,259,705,259z"/>
</g>
<g id="Layer_1">
</g>
<g id="Layer_4">
	<g>
		<g>
			<linearGradient id="SVGID_1_" gradientUnits="userSpaceOnUse" x1="100" y1="30" x2="160" y2="30">
				<stop  offset="0" style="stop-color:#712678"/>
				<stop  offset="1" style="stop-color:#DC5E74"/>
			</linearGradient>
			<rect x="100" fill="url(#SVGID_1_)" width="60" height="60"/>
			<linearGradient id="SVGID_2_" gradientUnits="userSpaceOnUse" x1="0" y1="170" x2="60" y2="170">
				<stop  offset="0" style="stop-color:#008E8C"/>
				<stop  offset="1" style="stop-color:#007838"/>
			</linearGradient>
			<path fill="url(#SVGID_2_)" d="M0,200h60v-60C27,140,0,166.9,0,200z"/>
			<linearGradient id="SVGID_3_" gradientUnits="userSpaceOnUse" x1="60" y1="130" x2="160" y2="130">
				<stop  offset="0" style="stop-color:#AA171F"/>
				<stop  offset="1" style="stop-color:#E94F0F"/>
			</linearGradient>
			<path fill="url(#SVGID_3_)" d="M100,100c0,22.1-17.9,40-40,40v60c55.2,0,100-44.8,100-100V60h-60V100z"/>
		</g>
		<g>
			<linearGradient id="SVGID_4_" gradientUnits="userSpaceOnUse" x1="444.6661" y1="104.6661" x2="544.6661" y2="4.6661">
				<stop  offset="0" style="stop-color:#008E8C"/>
				<stop  offset="1" style="stop-color:#007838"/>
			</linearGradient>
			<path fill="url(#SVGID_4_)" d="M540,60V0c-55,0-100,44.8-100,100h60C500,77.9,518,60,540,60z"/>
			<linearGradient id="SVGID_5_" gradientUnits="userSpaceOnUse" x1="469.375" y1="170.625" x2="520" y2="120">
				<stop  offset="0" style="stop-color:#712678"/>
				<stop  offset="1" style="stop-color:#DC5E74"/>
			</linearGradient>
			<path fill="url(#SVGID_5_)" d="M540,200v-60c-22,0-40-18-40-40h-60C440,155,485,200,540,200z"/>
			
				<linearGradient id="SVGID_6_" gradientUnits="userSpaceOnUse" x1="540" y1="-92" x2="600" y2="-92" gradientTransform="matrix(1 0 0 -1 0 78)">
				<stop  offset="0" style="stop-color:#008E8C"/>
				<stop  offset="1" style="stop-color:#007838"/>
			</linearGradient>
			<path fill="url(#SVGID_6_)" d="M600,140h-60v60C573,200,600,173,600,140z"/>
			<linearGradient id="SVGID_7_" gradientUnits="userSpaceOnUse" x1="600" y1="30" x2="540" y2="30">
				<stop  offset="0" style="stop-color:#C7A100"/>
				<stop  offset="1" style="stop-color:#677333"/>
			</linearGradient>
			<rect x="540" fill="url(#SVGID_7_)" width="60" height="60"/>
		</g>
		<g>
			<linearGradient id="SVGID_8_" gradientUnits="userSpaceOnUse" x1="680" y1="30" x2="620" y2="30">
				<stop  offset="0" style="stop-color:#712678"/>
				<stop  offset="1" style="stop-color:#DC5E74"/>
			</linearGradient>
			<path fill="url(#SVGID_8_)" d="M620,0c0,33,26.9,60,60,60V0H620z"/>
			<linearGradient id="SVGID_9_" gradientUnits="userSpaceOnUse" x1="739.9999" y1="0" x2="739.9999" y2="0">
				<stop  offset="0" style="stop-color:#008E8C"/>
				<stop  offset="1" style="stop-color:#007838"/>
			</linearGradient>
			<polygon fill="url(#SVGID_9_)" points="740,0 740,0 740,0 			"/>
			<linearGradient id="SVGID_10_" gradientUnits="userSpaceOnUse" x1="710" y1="60" x2="710" y2="-1.347871e-09">
				<stop  offset="0" style="stop-color:#008E8C"/>
				<stop  offset="1" style="stop-color:#007838"/>
			</linearGradient>
			<rect x="680" fill="url(#SVGID_10_)" width="60" height="60"/>
			<linearGradient id="SVGID_11_" gradientUnits="userSpaceOnUse" x1="769.9999" y1="60" x2="769.9999" y2="1.346052e-09">
				<stop  offset="0" style="stop-color:#AA171F"/>
				<stop  offset="1" style="stop-color:#E94F0F"/>
			</linearGradient>
			<path fill="url(#SVGID_11_)" d="M740,0v60h60C800,27,773,0,740,0z"/>
			<linearGradient id="SVGID_12_" gradientUnits="userSpaceOnUse" x1="740" y1="60" x2="740" y2="0">
				<stop  offset="0" style="stop-color:#008E8C"/>
				<stop  offset="1" style="stop-color:#007838"/>
			</linearGradient>
			<rect x="740" fill="url(#SVGID_12_)" width="0" height="60"/>
			<linearGradient id="SVGID_13_" gradientUnits="userSpaceOnUse" x1="740" y1="60" x2="740" y2="0">
				<stop  offset="0" style="stop-color:#AA171F"/>
				<stop  offset="1" style="stop-color:#E94F0F"/>
			</linearGradient>
			<rect x="740" fill="url(#SVGID_13_)" width="0" height="60"/>
			<linearGradient id="SVGID_14_" gradientUnits="userSpaceOnUse" x1="739.9999" y1="170" x2="800" y2="170">
				<stop  offset="0" style="stop-color:#C7A100"/>
				<stop  offset="1" style="stop-color:#677333"/>
			</linearGradient>
			<path fill="url(#SVGID_14_)" d="M740,140c0,33,27,60,60,60v-60H740L740,140z"/>
			<linearGradient id="SVGID_15_" gradientUnits="userSpaceOnUse" x1="740" y1="100" x2="800" y2="100">
				<stop  offset="0" style="stop-color:#AA171F"/>
				<stop  offset="1" style="stop-color:#E94F0F"/>
			</linearGradient>
			<rect x="740" y="60" fill="url(#SVGID_15_)" width="60" height="80"/>
		</g>
		<g>
			<linearGradient id="SVGID_16_" gradientUnits="userSpaceOnUse" x1="197.625" y1="182.375" x2="240" y2="140">
				<stop  offset="0" style="stop-color:#712678"/>
				<stop  offset="1" style="stop-color:#DC5E74"/>
			</linearGradient>
			<path fill="url(#SVGID_16_)" d="M180,140c0,33,27,60,60,60v-60H180z"/>
			<linearGradient id="SVGID_17_" gradientUnits="userSpaceOnUse" x1="300" y1="170" x2="240" y2="170">
				<stop  offset="0" style="stop-color:#AA171F"/>
				<stop  offset="1" style="stop-color:#E94F0F"/>
			</linearGradient>
			<path fill="url(#SVGID_17_)" d="M240,140v60c33,0,60-27,60-60h-30H240z"/>
			<linearGradient id="SVGID_18_" gradientUnits="userSpaceOnUse" x1="330" y1="200" x2="330" y2="140">
				<stop  offset="0" style="stop-color:#008E8C"/>
				<stop  offset="1" style="stop-color:#007838"/>
			</linearGradient>
			<path fill="url(#SVGID_18_)" d="M330,140h-30c0,33,27,60,60,60v-60H330z"/>
			<linearGradient id="SVGID_19_" gradientUnits="userSpaceOnUse" x1="360" y1="170" x2="420" y2="170">
				<stop  offset="0" style="stop-color:#C7A100"/>
				<stop  offset="1" style="stop-color:#677333"/>
			</linearGradient>
			<path fill="url(#SVGID_19_)" d="M360,200c33,0,60-27,60-60h-60V200z"/>
			<linearGradient id="SVGID_20_" gradientUnits="userSpaceOnUse" x1="210" y1="140" x2="210" y2="60">
				<stop  offset="0" style="stop-color:#C7A100"/>
				<stop  offset="1" style="stop-color:#677333"/>
			</linearGradient>
			<rect x="180" y="60" fill="url(#SVGID_20_)" width="60" height="80"/>
			<linearGradient id="SVGID_21_" gradientUnits="userSpaceOnUse" x1="390" y1="140" x2="390" y2="60">
				<stop  offset="0" style="stop-color:#AA171F"/>
				<stop  offset="1" style="stop-color:#E94F0F"/>
			</linearGradient>
			<rect x="360" y="60" fill="url(#SVGID_21_)" width="60" height="80"/>
			<linearGradient id="SVGID_22_" gradientUnits="userSpaceOnUse" x1="269.3934" y1="139.3934" x2="330.6066" y2="78.1802">
				<stop  offset="0" style="stop-color:#712678"/>
				<stop  offset="1" style="stop-color:#DC5E74"/>
			</linearGradient>
			<path fill="url(#SVGID_22_)" d="M330,90c0-16.6-13.4-30-30-30c-16.6,0-30,13.4-30,30v50h30h30V90z"/>
			
				<linearGradient id="SVGID_23_" gradientUnits="userSpaceOnUse" x1="314" y1="-18" x2="314" y2="-78" gradientTransform="matrix(0 1 -1 0 162 -284)">
				<stop  offset="0" style="stop-color:#008E8C"/>
				<stop  offset="1" style="stop-color:#007838"/>
			</linearGradient>
			<path fill="url(#SVGID_23_)" d="M180,0v60h60C240,27,213,0,180,0z"/>
			
				<linearGradient id="SVGID_24_" gradientUnits="userSpaceOnUse" x1="314" y1="692" x2="314" y2="752" gradientTransform="matrix(0 1 1 0 -332 -284)">
				<stop  offset="0" style="stop-color:#712678"/>
				<stop  offset="1" style="stop-color:#DC5E74"/>
			</linearGradient>
			<path fill="url(#SVGID_24_)" d="M360,60h60V0C387,0,360,27,360,60z"/>
		</g>
		<g>
			<path opacity="0.8" d="M54.1,251h1.8v35c0,4.6-1.3,8.2-3.9,10.9c-2.6,2.7-5.9,4.1-10,4.1c-4.5,0-8.1-1.2-10.7-3.6
				c-2.6-2.4-3.8-5.9-3.7-10.5l0.1-0.2h1.6c0,4,1.1,7.1,3.3,9.2c2.2,2.1,5.3,3.2,9.5,3.2c3.4,0,6.3-1.2,8.6-3.5
				c2.3-2.4,3.4-5.6,3.4-9.6V251z"/>
			<path opacity="0.8" d="M92.9,293.7c-1.1,2.3-2.8,4.1-4.9,5.4c-2.1,1.3-4.7,1.9-7.8,1.9c-3.8,0-6.7-1.3-8.8-4
				c-2.1-2.7-3.2-6.8-3.2-12.4v-20.9H70v20.9c0,5,0.9,8.6,2.7,11c1.8,2.4,4.3,3.5,7.4,3.5c3.8,0,6.7-0.9,8.8-2.8
				c2-1.9,3.3-4.3,3.9-7.4v-25.2h1.9v36.6h-1.5L92.9,293.7z"/>
			<path opacity="0.8" d="M107.8,263.7l0.2,7.5c1.1-2.6,2.7-4.6,4.8-6.1c2.1-1.4,4.7-2.1,7.8-2.1c4,0,7,1.3,9,3.8c2,2.5,3,6.5,3,12
				v21.5h-1.8v-21.6c0-5.1-0.9-8.6-2.7-10.7c-1.8-2.1-4.3-3.1-7.4-3.1c-3.9,0-6.9,1.2-8.9,3.5c-2,2.4-3.3,5.4-3.8,9v22.9h-1.8v-36.6
				H107.8z"/>
			<path opacity="0.8" d="M146.4,252.2h-1.8v-4.7h1.8V252.2z M146.4,300.2h-1.8v-36.6h1.8V300.2z"/>
			<path opacity="0.8" d="M155.5,281.2c0-5.4,1.5-9.7,4.4-13.2c3-3.4,6.8-5.1,11.5-5.1c4.8,0,8.6,1.7,11.6,5.1
				c3,3.4,4.4,7.8,4.4,13.2v1.4c0,5.4-1.5,9.8-4.4,13.2c-3,3.4-6.8,5.1-11.5,5.1c-4.8,0-8.6-1.7-11.6-5.1c-3-3.4-4.5-7.8-4.5-13.2
				V281.2z M157.3,282.7c0,4.6,1.3,8.5,3.9,11.7s6,4.8,10.4,4.8c4.3,0,7.7-1.6,10.3-4.8c2.6-3.2,3.9-7.1,3.9-11.7v-1.4
				c0-4.5-1.3-8.3-3.9-11.6c-2.6-3.2-6-4.9-10.3-4.9c-4.3,0-7.7,1.6-10.3,4.9s-3.9,7.1-3.9,11.6V282.7z"/>
			<path opacity="0.8" d="M212.4,265l-2.4-0.2c-3.3,0-5.9,1.1-8,3.2c-2,2.1-3.4,4.9-4,8.3v24h-1.8v-36.6h1.5l0.3,6.4v1.3
				c1-2.6,2.5-4.6,4.5-6.1c2-1.5,4.5-2.2,7.4-2.2c0.5,0,1,0,1.4,0.1c0.4,0.1,0.8,0.2,1.1,0.3L212.4,265z"/>
			<path opacity="0.8" d="M244.3,289.1l2.1,7.7h0.2l2.1-7.7l11.6-38.1h2l11.6,38.1l2.1,7.7h0.2l2.2-7.7l10.1-38.1h2l-13.3,49.2h-2.1
				l-12.2-41l-1.6-4.9h-0.2l-1.6,4.9l-12.3,41h-2.1L232.1,251h2L244.3,289.1z"/>
			<path opacity="0.8" d="M310,300.9c-4.2,0-7.8-1.7-10.8-5.1c-3-3.4-4.5-7.6-4.5-12.6v-2.2c0-5.3,1.5-9.6,4.4-13
				c2.9-3.4,6.5-5.2,10.9-5.2c4.1,0,7.5,1.4,10.1,4.1c2.6,2.7,3.9,6.3,3.9,10.9v2.8h-27.4v0.4v2.2c0,4.4,1.3,8.2,3.9,11.2
				c2.6,3.1,5.8,4.6,9.6,4.6c2.7,0,5-0.4,6.8-1.1c1.8-0.7,3.4-1.9,4.7-3.3l1,1.4c-1.4,1.6-3.2,2.8-5.3,3.6
				C315.2,300.5,312.8,300.9,310,300.9z M309.9,264.8c-3.6,0-6.6,1.3-9.1,4c-2.4,2.6-3.8,6-4.1,9.9l0.1,0.2h25.2v-1.1
				c0-3.7-1.1-6.8-3.4-9.3C316.4,266,313.5,264.8,309.9,264.8z"/>
			<path opacity="0.8" d="M360.4,282.6c0,5.6-1.2,10.1-3.7,13.4c-2.4,3.3-5.8,4.9-10.1,4.9c-2.9,0-5.4-0.6-7.5-1.7
				c-2.1-1.2-3.8-2.7-5-4.7l-0.2,5.7h-1.5v-52.7h1.8v22.7c1.2-2.2,2.9-4,5-5.3c2.1-1.3,4.6-1.9,7.4-1.9c4.3,0,7.7,1.7,10.1,5.1
				c2.4,3.4,3.7,8,3.7,13.8V282.6z M358.5,281.9c0-5.1-1-9.2-3-12.4c-2-3.2-5-4.8-8.8-4.8c-3.5,0-6.3,0.9-8.2,2.7s-3.4,4-4.2,6.6
				v17.1c0.9,2.4,2.4,4.3,4.5,5.8c2.1,1.4,4.8,2.2,8,2.2c3.9,0,6.8-1.5,8.8-4.5c2-3,3-7,3-12V281.9z"/>
			<path opacity="0.8" d="M371.5,263.7l0.2,7.5c1.1-2.6,2.7-4.6,4.8-6.1c2.1-1.4,4.6-2.2,7.6-2.2c3.2,0,5.7,0.8,7.7,2.4
				c2,1.6,3.3,4.1,4.1,7.5c1-3.1,2.6-5.5,4.8-7.3c2.2-1.7,4.9-2.6,8.2-2.6c4,0,7.1,1.3,9.2,4c2.1,2.6,3.1,6.8,3.1,12.4v20.9h-1.9
				v-20.9c0-5.3-0.9-9-2.8-11.2c-1.9-2.2-4.4-3.3-7.6-3.3c-3.9,0-6.8,1.2-8.8,3.5s-3.2,5.3-3.7,9c0,0.5,0,0.8,0,1.2c0,0.3,0,0.6,0,1
				v20.8h-1.9v-20.9c0-5.3-0.9-9.1-2.8-11.2c-1.9-2.2-4.4-3.3-7.6-3.3c-3.8,0-6.7,1.1-8.6,3.3c-2,2.2-3.2,5.1-3.8,8.6v23.5h-1.9
				v-36.6H371.5z"/>
			<path opacity="0.8" d="M455.3,293.5c-1.3,2.2-3.1,4-5.6,5.4c-2.5,1.4-5.5,2.1-9.1,2.1c-3.4,0-6.1-0.9-8-2.8
				c-1.9-1.9-2.9-4.4-2.9-7.5c0-3.1,1.4-5.6,4.3-7.7s6.5-3.1,10.9-3.1h10.4v-5.3c0-3-1-5.4-2.9-7.1c-1.9-1.7-4.7-2.6-8.2-2.6
				c-3.3,0-6,0.8-8,2.4c-2,1.6-3,3.7-3,6.2l-1.5-0.1l-0.1-0.2c-0.1-2.8,1-5.2,3.3-7.2c2.3-2,5.4-3,9.3-3c3.9,0,7.1,1,9.4,3
				c2.4,2,3.6,4.8,3.6,8.6v18.3c0,1.3,0.1,2.5,0.2,3.8c0.1,1.2,0.4,2.4,0.7,3.6h-2c-0.3-1.6-0.5-2.8-0.6-3.6s-0.2-1.7-0.2-2.6V293.5
				z M440.6,299.2c3.6,0,6.7-0.8,9.2-2.4s4.4-3.9,5.5-6.9v-8.2H445c-3.8,0-7,0.9-9.6,2.6c-2.6,1.7-3.9,3.9-3.9,6.5
				c0,2.5,0.8,4.5,2.5,6C435.7,298.4,437.9,299.2,440.6,299.2z"/>
			<path opacity="0.8" d="M491.4,291.3c0-1.9-0.8-3.7-2.5-5.3c-1.7-1.6-4.5-2.8-8.7-3.7c-4.4-0.9-7.5-2.1-9.5-3.6
				c-2-1.5-2.9-3.6-2.9-6.5c0-2.6,1.1-4.8,3.3-6.6s5.2-2.7,8.9-2.7c4,0,7.2,0.9,9.5,2.8c2.3,1.9,3.4,4.4,3.3,7.4l-0.1,0.2h-1.6
				c0-2.4-1-4.4-3-6.1c-2-1.7-4.8-2.5-8.2-2.5c-3.4,0-6,0.7-7.8,2.2c-1.8,1.5-2.6,3.2-2.6,5.1c0,1.9,0.7,3.6,2.2,4.9
				c1.5,1.4,4.4,2.5,8.9,3.5c4.1,0.9,7.2,2.2,9.3,3.9c2.1,1.6,3.2,3.9,3.2,6.8c0,2.9-1.2,5.2-3.5,7c-2.3,1.8-5.5,2.7-9.3,2.7
				c-4.3,0-7.6-1-10-2.9c-2.4-1.9-3.6-4.2-3.4-6.9l0.1-0.2h1.5c0.2,2.9,1.4,5,3.7,6.3c2.3,1.3,5,1.9,8.1,1.9c3.4,0,6.1-0.8,8-2.4
				C490.4,295.2,491.4,293.3,491.4,291.3z"/>
			<path opacity="0.8" d="M507.2,253.8v9.9h9v1.9h-9v25.3c0,3,0.5,5.1,1.5,6.4c1,1.3,2.4,1.9,4,1.9c0.6,0,1.2,0,1.6-0.1
				c0.5,0,1.1-0.1,2-0.2l0.3,1.7c-0.6,0.2-1.2,0.3-1.8,0.4s-1.3,0.1-2.1,0.1c-2.5,0-4.3-0.8-5.6-2.4s-1.9-4.2-1.9-7.7v-25.3h-6.8
				v-1.9h6.8v-9.9H507.2z"/>
			<path opacity="0.8" d="M537.3,300.9c-4.2,0-7.8-1.7-10.8-5.1c-3-3.4-4.5-7.6-4.5-12.6v-2.2c0-5.3,1.5-9.6,4.4-13
				c2.9-3.4,6.5-5.2,10.9-5.2c4.1,0,7.5,1.4,10.1,4.1c2.6,2.7,3.9,6.3,3.9,10.9v2.8h-27.4v0.4v2.2c0,4.4,1.3,8.2,3.9,11.2
				c2.6,3.1,5.8,4.6,9.6,4.6c2.7,0,5-0.4,6.8-1.1s3.4-1.9,4.7-3.3l1,1.4c-1.4,1.6-3.2,2.8-5.3,3.6
				C542.5,300.5,540.1,300.9,537.3,300.9z M537.2,264.8c-3.6,0-6.6,1.3-9.1,4c-2.4,2.6-3.8,6-4.1,9.9l0.1,0.2h25.2v-1.1
				c0-3.7-1.1-6.8-3.4-9.3C543.7,266,540.8,264.8,537.2,264.8z"/>
			<path opacity="0.8" d="M575.8,265l-2.4-0.2c-3.3,0-5.9,1.1-8,3.2c-2,2.1-3.4,4.9-4,8.3v24h-1.8v-36.6h1.5l0.3,6.4v1.3
				c1-2.6,2.5-4.6,4.5-6.1c2-1.5,4.5-2.2,7.4-2.2c0.5,0,1,0,1.4,0.1c0.4,0.1,0.8,0.2,1.1,0.3L575.8,265z"/>
			<path opacity="0.8" d="M633.1,285.2l0.1,0.2c0.1,5-1.4,8.9-4.6,11.6c-3.1,2.7-7.3,4-12.4,4c-5.4,0-9.7-2-12.9-6
				c-3.2-4-4.9-9.2-4.9-15.7v-7.4c0-6.4,1.6-11.7,4.9-15.7s7.6-6,12.9-6c5.1,0,9.3,1.3,12.4,4c3.1,2.7,4.7,6.5,4.6,11.5l-0.1,0.2
				h-1.6c0-4.4-1.4-7.9-4.1-10.3c-2.8-2.4-6.5-3.6-11.2-3.6c-4.8,0-8.7,1.8-11.6,5.4c-2.9,3.6-4.4,8.4-4.4,14.3v7.4
				c0,6,1.5,10.8,4.4,14.4c2.9,3.6,6.8,5.4,11.6,5.4c4.7,0,8.5-1.2,11.2-3.5c2.8-2.3,4.1-5.8,4.1-10.5H633.1z"/>
			<path opacity="0.8" d="M667.1,293.5c-1.3,2.2-3.1,4-5.6,5.4c-2.5,1.4-5.5,2.1-9.1,2.1c-3.4,0-6.1-0.9-8-2.8
				c-1.9-1.9-2.9-4.4-2.9-7.5c0-3.1,1.4-5.6,4.3-7.7s6.5-3.1,10.9-3.1h10.4v-5.3c0-3-1-5.4-2.9-7.1c-1.9-1.7-4.7-2.6-8.2-2.6
				c-3.3,0-6,0.8-8,2.4c-2,1.6-3,3.7-3,6.2l-1.5-0.1l-0.1-0.2c-0.1-2.8,1-5.2,3.3-7.2c2.3-2,5.4-3,9.3-3c3.9,0,7.1,1,9.4,3
				c2.4,2,3.6,4.8,3.6,8.6v18.3c0,1.3,0.1,2.5,0.2,3.8c0.1,1.2,0.4,2.4,0.7,3.6h-2c-0.3-1.6-0.5-2.8-0.6-3.6s-0.2-1.7-0.2-2.6V293.5
				z M652.3,299.2c3.6,0,6.7-0.8,9.2-2.4s4.4-3.9,5.5-6.9v-8.2h-10.3c-3.8,0-7,0.9-9.6,2.6c-2.6,1.7-3.9,3.9-3.9,6.5
				c0,2.5,0.8,4.5,2.5,6C647.4,298.4,649.6,299.2,652.3,299.2z"/>
			<path opacity="0.8" d="M681.9,263.7l0.2,7.5c1.1-2.6,2.7-4.6,4.8-6.1s4.6-2.2,7.6-2.2c3.2,0,5.7,0.8,7.7,2.4
				c2,1.6,3.3,4.1,4.1,7.5c1-3.1,2.6-5.5,4.8-7.3c2.2-1.7,4.9-2.6,8.2-2.6c4,0,7.1,1.3,9.2,4c2.1,2.6,3.1,6.8,3.1,12.4v20.9h-1.9
				v-20.9c0-5.3-0.9-9-2.8-11.2c-1.9-2.2-4.4-3.3-7.6-3.3c-3.9,0-6.8,1.2-8.8,3.5s-3.2,5.3-3.7,9c0,0.5,0,0.8,0,1.2c0,0.3,0,0.6,0,1
				v20.8H705v-20.9c0-5.3-0.9-9.1-2.8-11.2c-1.9-2.2-4.4-3.3-7.6-3.3c-3.8,0-6.7,1.1-8.6,3.3s-3.2,5.1-3.8,8.6v23.5h-1.9v-36.6
				H681.9z"/>
			<path opacity="0.8" d="M770.7,282.6c0,5.6-1.2,10.1-3.7,13.4c-2.4,3.3-5.8,4.9-10.1,4.9c-2.9,0-5.4-0.6-7.5-1.7s-3.8-2.7-5-4.7
				v19.7h-1.8v-50.6h1.4l0.4,6.6c1.2-2.3,2.9-4,5-5.3c2.1-1.3,4.6-1.9,7.5-1.9c4.3,0,7.7,1.7,10.1,5.1c2.4,3.4,3.7,8,3.7,13.8V282.6
				z M768.8,281.9c0-5.1-1-9.2-3.1-12.4c-2-3.2-5-4.8-8.8-4.8c-3.5,0-6.3,0.9-8.2,2.7s-3.4,4-4.2,6.6v17.1c0.9,2.4,2.4,4.4,4.5,5.8
				c2.1,1.4,4.8,2.2,8,2.2c3.9,0,6.8-1.5,8.8-4.5c2-3,3-7,3-12V281.9z"/>
		</g>
	</g>
</g>
</svg>
