<?xml version="1.0" encoding="utf-8"?>
<!-- Generator: Adobe Illustrator 16.0.0, SVG Export Plug-In . SVG Version: 6.00 Build 0)  -->
<!DOCTYPE svg PUBLIC "-//W3C//DTD SVG 1.1//EN" "http://www.w3.org/Graphics/SVG/1.1/DTD/svg11.dtd">
<svg version="1.1" id="Layer_1" xmlns="http://www.w3.org/2000/svg" xmlns:xlink="http://www.w3.org/1999/xlink" x="0px" y="0px"
	 width="1862.252px" height="103.171px" viewBox="0 0 1862.252 103.171" enable-background="new 0 0 1862.252 103.171"
	 xml:space="preserve">
<g>
	<path fill="#FFFFFF" d="M1317.96,33.074c0,1.693-1.225,3.066-2.732,3.066h-35.459c-1.504,0-2.725-1.373-2.725-3.066l0,0
		c0-1.693,1.221-3.068,2.725-3.068h35.459C1316.735,30.006,1317.96,31.381,1317.96,33.074L1317.96,33.074z"/>
	<path fill="#FFFFFF" d="M1439.331,33.074c0,1.693-1.221,3.066-2.729,3.066h-35.451c-1.51,0-2.732-1.373-2.732-3.066l0,0
		c0-1.693,1.223-3.068,2.732-3.068h35.451C1438.11,30.006,1439.331,31.381,1439.331,33.074L1439.331,33.074z"/>
	<path fill="#FFFFFF" d="M1529.341,8.525c0,1.691-1.221,3.068-2.729,3.068h-35.457c-1.504,0-2.727-1.377-2.727-3.068l0,0
		c0-1.693,1.223-3.07,2.727-3.07h35.457C1528.12,5.455,1529.341,6.832,1529.341,8.525L1529.341,8.525z"/>
	<path fill="#FFFFFF" d="M1714.813,19.434c0,1.695-1.223,3.07-2.729,3.07h-35.455c-1.506,0-2.729-1.375-2.729-3.07l0,0
		c0-1.691,1.223-3.066,2.729-3.066h35.455C1713.591,16.367,1714.813,17.742,1714.813,19.434L1714.813,19.434z"/>
	<path fill="#FFFFFF" d="M1605.712,35.801c0,1.695-1.223,3.07-2.727,3.07h-35.455c-1.506,0-2.73-1.375-2.73-3.07l0,0
		c0-1.693,1.225-3.066,2.73-3.066h35.455C1604.489,32.734,1605.712,34.107,1605.712,35.801L1605.712,35.801z"/>
	<path fill="#FFFFFF" d="M1368.419,3.072c0,1.693-1.223,3.066-2.729,3.066h-35.457c-1.51,0-2.729-1.373-2.729-3.066l0,0
		c0-1.695,1.219-3.072,2.729-3.072h35.457C1367.196,0,1368.419,1.377,1368.419,3.072L1368.419,3.072z"/>
	<path fill="#FFFFFF" d="M1025.777,95.002c0,2.512-1.812,4.553-4.049,4.553h-52.579c-2.234,0-4.047-2.041-4.047-4.553l0,0
		c0-2.516,1.812-4.551,4.047-4.551h52.579C1023.964,90.452,1025.777,92.487,1025.777,95.002L1025.777,95.002z"/>
	<path fill="#FFFFFF" d="M1163.79,95.002c0,2.512-1.812,4.553-4.049,4.553h-52.578c-2.234,0-4.047-2.041-4.047-4.553l0,0
		c0-2.516,1.812-4.551,4.047-4.551h52.578C1161.978,90.452,1163.79,92.487,1163.79,95.002L1163.79,95.002z"/>
	<path fill="#FFFFFF" d="M1301.804,95.002c0,2.512-1.812,4.553-4.049,4.553h-52.578c-2.234,0-4.047-2.041-4.047-4.553l0,0
		c0-2.516,1.812-4.551,4.047-4.551h52.578C1299.991,90.452,1301.804,92.487,1301.804,95.002L1301.804,95.002z"/>
	<path fill="#FFFFFF" d="M1439.817,95.002c0,2.512-1.812,4.553-4.049,4.553h-52.578c-2.234,0-4.047-2.041-4.047-4.553l0,0
		c0-2.516,1.812-4.551,4.047-4.551h52.578C1438.005,90.452,1439.817,92.487,1439.817,95.002L1439.817,95.002z"/>
	<path fill="#FFFFFF" d="M1577.831,95.002c0,2.512-1.812,4.553-4.049,4.553h-52.578c-2.234,0-4.047-2.041-4.047-4.553l0,0
		c0-2.516,1.812-4.551,4.047-4.551h52.578C1576.019,90.452,1577.831,92.487,1577.831,95.002L1577.831,95.002z"/>
	<path fill="#FFFFFF" d="M1715.845,95.002c0,2.512-1.812,4.553-4.049,4.553h-52.578c-2.234,0-4.047-2.041-4.047-4.553l0,0
		c0-2.516,1.812-4.551,4.047-4.551h52.578C1714.032,90.452,1715.845,92.487,1715.845,95.002L1715.845,95.002z"/>
	<path fill="#FFFFFF" d="M1853.858,95.002c0,2.512-1.812,4.553-4.049,4.553h-52.578c-2.234,0-4.047-2.041-4.047-4.553l0,0
		c0-2.516,1.812-4.551,4.047-4.551h52.578C1852.046,90.452,1853.858,92.487,1853.858,95.002L1853.858,95.002z"/>
	<path fill="#FFFFFF" d="M587.732,92.002c0,2.512-1.812,4.553-4.049,4.553h-52.578c-2.234,0-4.047-2.041-4.047-4.553l0,0
		c0-2.516,1.812-4.551,4.047-4.551h52.578C585.921,87.452,587.732,89.487,587.732,92.002L587.732,92.002z"/>
	<path fill="#FFFFFF" d="M458.719,92.002c0,2.512-1.812,4.553-4.049,4.553h-52.578c-2.234,0-4.047-2.041-4.047-4.553l0,0
		c0-2.516,1.812-4.551,4.047-4.551h52.578C456.908,87.452,458.719,89.487,458.719,92.002L458.719,92.002z"/>
	<path fill="#FFFFFF" d="M338.707,92.002c0,2.512-1.812,4.553-4.049,4.553H282.08c-2.234,0-4.047-2.041-4.047-4.553l0,0
		c0-2.516,1.812-4.551,4.047-4.551h52.578C336.896,87.452,338.707,89.487,338.707,92.002L338.707,92.002z"/>
	<path fill="#FFFFFF" d="M218.695,92.002c0,2.512-1.812,4.553-4.049,4.553h-52.578c-2.234,0-4.047-2.041-4.047-4.553l0,0
		c0-2.516,1.812-4.551,4.047-4.551h52.578C216.883,87.452,218.695,89.487,218.695,92.002L218.695,92.002z"/>
	<path fill="#FFFFFF" d="M98.683,92.002c0,2.512-1.812,4.553-4.049,4.553H42.056c-2.234,0-4.047-2.041-4.047-4.553l0,0
		c0-2.516,1.812-4.551,4.047-4.551h52.578C96.871,87.452,98.683,89.487,98.683,92.002L98.683,92.002z"/>
	<path fill="#FFFFFF" d="M867.791,98.618c0,2.512-1.811,4.553-4.047,4.553h-52.578c-2.234,0-4.05-2.041-4.05-4.553l0,0
		c0-2.516,1.815-4.551,4.05-4.551h52.578C865.98,94.067,867.791,96.102,867.791,98.618L867.791,98.618z"/>
	<path fill="#FFFFFF" d="M707.332,97.618c0,2.512-1.812,4.553-4.05,4.553h-52.575c-2.234,0-4.051-2.041-4.051-4.553l0,0
		c0-2.516,1.816-4.551,4.051-4.551h52.575C705.52,93.067,707.332,95.102,707.332,97.618L707.332,97.618z"/>
	<path fill="#FFFFFF" d="M930.24,33.074c0,1.693-1.227,3.066-2.732,3.066h-35.455c-1.504,0-2.729-1.373-2.729-3.066l0,0
		c0-1.693,1.225-3.068,2.729-3.068h35.455C929.014,30.006,930.24,31.381,930.24,33.074L930.24,33.074z"/>
	<path fill="#FFFFFF" d="M1051.615,33.074c0,1.693-1.225,3.066-2.729,3.066h-35.457c-1.508,0-2.729-1.373-2.729-3.066l0,0
		c0-1.693,1.221-3.068,2.729-3.068h35.457C1050.39,30.006,1051.615,31.381,1051.615,33.074L1051.615,33.074z"/>
	<path fill="#FFFFFF" d="M1141.623,8.525c0,1.691-1.225,3.068-2.732,3.068h-35.455c-1.504,0-2.729-1.377-2.729-3.068l0,0
		c0-1.693,1.225-3.07,2.729-3.07h35.455C1140.398,5.455,1141.623,6.832,1141.623,8.525L1141.623,8.525z"/>
	<path fill="#FFFFFF" d="M754.913,10.273c0,1.691-1.225,3.066-2.732,3.066h-35.455c-1.504,0-2.729-1.375-2.729-3.066l0,0
		c0-1.695,1.225-3.07,2.729-3.07h35.455C753.688,7.203,754.913,8.578,754.913,10.273L754.913,10.273z"/>
	<path fill="#FFFFFF" d="M444.913,40.273c0,1.691-1.225,3.066-2.732,3.066h-35.455c-1.504,0-2.729-1.375-2.729-3.066l0,0
		c0-1.695,1.225-3.07,2.729-3.07h35.455C443.688,37.203,444.913,38.578,444.913,40.273L444.913,40.273z"/>
	<path fill="#FFFFFF" d="M1217.993,35.801c0,1.695-1.223,3.07-2.725,3.07h-35.461c-1.506,0-2.729-1.375-2.729-3.07l0,0
		c0-1.693,1.223-3.066,2.729-3.066h35.461C1216.771,32.734,1217.993,34.107,1217.993,35.801L1217.993,35.801z"/>
	<path fill="#FFFFFF" d="M980.699,3.072c0,1.693-1.225,3.066-2.729,3.066h-35.459c-1.51,0-2.726-1.373-2.726-3.066l0,0
		c0-1.695,1.216-3.072,2.726-3.072h35.459C979.475,0,980.699,1.377,980.699,3.072L980.699,3.072z"/>
	<path fill="#FFFFFF" d="M569.309,33.074c0,1.693-1.221,3.066-2.729,3.066h-35.454c-1.509,0-2.728-1.373-2.728-3.066l0,0
		c0-1.693,1.219-3.068,2.728-3.068h35.454C568.088,30.006,569.309,31.381,569.309,33.074L569.309,33.074z"/>
	<path fill="#FFFFFF" d="M325.825,33.074c0,1.693-1.221,3.066-2.729,3.066h-35.454c-1.509,0-2.728-1.373-2.728-3.066l0,0
		c0-1.693,1.219-3.068,2.728-3.068h35.454C324.604,30.006,325.825,31.381,325.825,33.074L325.825,33.074z"/>
	<path fill="#FFFFFF" d="M208.813,33.074c0,1.693-1.221,3.066-2.729,3.066H170.63c-1.509,0-2.728-1.373-2.728-3.066l0,0
		c0-1.693,1.219-3.068,2.728-3.068h35.454C207.592,30.006,208.813,31.381,208.813,33.074L208.813,33.074z"/>
	<path fill="#FFFFFF" d="M114.91,4.271c0,1.695-1.221,3.068-2.729,3.068H76.728C75.219,7.34,74,5.967,74,4.271l0,0
		c0-1.693,1.219-3.068,2.728-3.068h35.454C113.689,1.203,114.91,2.578,114.91,4.271L114.91,4.271z"/>
	<path fill="#FFFFFF" d="M40.91,28.271c0,1.695-1.221,3.068-2.729,3.068H2.728C1.219,31.34,0,29.967,0,28.271l0,0
		c0-1.693,1.219-3.068,2.728-3.068h35.454C39.689,25.203,40.91,26.578,40.91,28.271L40.91,28.271z"/>
	<path fill="#FFFFFF" d="M682.454,33.875c0,1.695-1.219,3.068-2.726,3.068h-35.456c-1.509,0-2.731-1.373-2.731-3.068l0,0
		c0-1.693,1.223-3.068,2.731-3.068h35.456C681.235,30.807,682.454,32.182,682.454,33.875L682.454,33.875z"/>
	<path fill="#FFFFFF" d="M821.605,35.801c0,1.695-1.217,3.07-2.725,3.07h-35.459c-1.504,0-2.723-1.375-2.723-3.07l0,0
		c0-1.693,1.219-3.066,2.723-3.066h35.459C820.389,32.734,821.605,34.107,821.605,35.801L821.605,35.801z"/>
	<path fill="#FFFFFF" d="M1774.817,52.168c0,1.689-1.217,3.064-2.727,3.064h-35.457c-1.504,0-2.725-1.375-2.725-3.064l0,0
		c0-1.697,1.221-3.072,2.725-3.072h35.457C1773.601,49.096,1774.817,50.471,1774.817,52.168L1774.817,52.168z"/>
	<path fill="#FFFFFF" d="M1862.251,20.068c0,1.689-1.217,3.064-2.727,3.064h-35.457c-1.504,0-2.725-1.375-2.725-3.064l0,0
		c0-1.697,1.221-3.072,2.725-3.072h35.457C1861.034,16.996,1862.251,18.371,1862.251,20.068L1862.251,20.068z"/>
</g>
</svg>
