<?xml version="1.0" encoding="utf-8"?>
<!-- Generator: Adobe Illustrator 18.0.0, SVG Export Plug-In . SVG Version: 6.00 Build 0)  -->
<!DOCTYPE svg PUBLIC "-//W3C//DTD SVG 1.1//EN" "http://www.w3.org/Graphics/SVG/1.1/DTD/svg11.dtd">
<svg version="1.1" id="Layer_1" xmlns="http://www.w3.org/2000/svg" xmlns:xlink="http://www.w3.org/1999/xlink" x="0px" y="0px"
	 viewBox="2.9 729.8 612.1 60.2" enable-background="new 2.9 729.8 612.1 60.2" xml:space="preserve">
<g>
	<g>
		
			<linearGradient id="SVGID_1_" gradientUnits="userSpaceOnUse" x1="66.9266" y1="203.2257" x2="128.2248" y2="203.2257" gradientTransform="matrix(0.3202 -7.364722e-04 7.364722e-04 -0.3634 -0.2173 811.0803)">
			<stop  offset="0" style="stop-color:#008D8B"/>
			<stop  offset="0.5742" style="stop-color:#724391"/>
			<stop  offset="1" style="stop-color:#724391"/>
		</linearGradient>
		<path fill="url(#SVGID_1_)" d="M21.3,743.2c0,0,9-4.2,9.2-12c0,0,4.7,11.6,10.5,11.7L21.3,743.2z"/>
		
			<linearGradient id="SVGID_2_" gradientUnits="userSpaceOnUse" x1="9.3105" y1="201.6781" x2="70.609" y2="201.6781" gradientTransform="matrix(0.3202 -7.364722e-04 7.364722e-04 -0.3634 -0.2173 811.0803)">
			<stop  offset="0" style="stop-color:#008D8B"/>
			<stop  offset="0.5742" style="stop-color:#724391"/>
			<stop  offset="1" style="stop-color:#724391"/>
		</linearGradient>
		<path fill="url(#SVGID_2_)" d="M2.9,743.8c0,0,9-4.2,9.2-12c0,0,4.7,11.6,10.5,11.7L2.9,743.8z"/>
	</g>
	<g>
		
			<linearGradient id="SVGID_3_" gradientUnits="userSpaceOnUse" x1="180.9063" y1="203.2721" x2="242.2048" y2="203.2721" gradientTransform="matrix(0.3202 -7.364722e-04 7.364722e-04 -0.3634 -0.2173 811.0803)">
			<stop  offset="0" style="stop-color:#008D8B"/>
			<stop  offset="0.5742" style="stop-color:#724391"/>
			<stop  offset="1" style="stop-color:#724391"/>
		</linearGradient>
		<path fill="url(#SVGID_3_)" d="M57.8,743.1c0,0,9-4.2,9.2-12c0,0,4.7,11.6,10.5,11.7L57.8,743.1z"/>
		
			<linearGradient id="SVGID_4_" gradientUnits="userSpaceOnUse" x1="123.4087" y1="201.7245" x2="184.7071" y2="201.7245" gradientTransform="matrix(0.3202 -7.364722e-04 7.364722e-04 -0.3634 -0.2173 811.0803)">
			<stop  offset="0" style="stop-color:#008D8B"/>
			<stop  offset="0.5742" style="stop-color:#724391"/>
			<stop  offset="1" style="stop-color:#724391"/>
		</linearGradient>
		<path fill="url(#SVGID_4_)" d="M39.4,743.7c0,0,9-4.2,9.2-12c0,0,4.7,11.6,10.5,11.7L39.4,743.7z"/>
	</g>
	<g>
		
			<linearGradient id="SVGID_5_" gradientUnits="userSpaceOnUse" x1="295.005" y1="203.3178" x2="356.3035" y2="203.3178" gradientTransform="matrix(0.3202 -7.364722e-04 7.364722e-04 -0.3634 -0.2173 811.0803)">
			<stop  offset="0" style="stop-color:#008D8B"/>
			<stop  offset="0.5742" style="stop-color:#724391"/>
			<stop  offset="1" style="stop-color:#724391"/>
		</linearGradient>
		<path fill="url(#SVGID_5_)" d="M94.4,743c0,0,9-4.2,9.2-12c0,0,4.7,11.6,10.5,11.7L94.4,743z"/>
		
			<linearGradient id="SVGID_6_" gradientUnits="userSpaceOnUse" x1="237.4086" y1="201.7703" x2="298.707" y2="201.7703" gradientTransform="matrix(0.3202 -7.364722e-04 7.364722e-04 -0.3634 -0.2173 811.0803)">
			<stop  offset="0" style="stop-color:#008D8B"/>
			<stop  offset="0.5742" style="stop-color:#724391"/>
			<stop  offset="1" style="stop-color:#724391"/>
		</linearGradient>
		<path fill="url(#SVGID_6_)" d="M76,743.6c0,0,9-4.2,9.2-12c0,0,4.7,11.6,10.5,11.7L76,743.6z"/>
	</g>
	<g>
		
			<linearGradient id="SVGID_7_" gradientUnits="userSpaceOnUse" x1="409.0047" y1="203.6416" x2="470.3032" y2="203.6416" gradientTransform="matrix(0.3202 -7.364722e-04 7.364722e-04 -0.3634 -0.2173 811.0803)">
			<stop  offset="0" style="stop-color:#008D8B"/>
			<stop  offset="0.5742" style="stop-color:#724391"/>
			<stop  offset="1" style="stop-color:#724391"/>
		</linearGradient>
		<path fill="url(#SVGID_7_)" d="M130.9,742.8c0,0,9-4.2,9.2-12c0,0,4.7,11.6,10.5,11.7L130.9,742.8z"/>
		
			<linearGradient id="SVGID_8_" gradientUnits="userSpaceOnUse" x1="351.5646" y1="201.8166" x2="412.8631" y2="201.8166" gradientTransform="matrix(0.3202 -7.364722e-04 7.364722e-04 -0.3634 -0.2173 811.0803)">
			<stop  offset="0" style="stop-color:#008D8B"/>
			<stop  offset="0.5742" style="stop-color:#724391"/>
			<stop  offset="1" style="stop-color:#724391"/>
		</linearGradient>
		<path fill="url(#SVGID_8_)" d="M112.5,743.5c0,0,9-4.2,9.2-12c0,0,4.7,11.6,10.5,11.7L112.5,743.5z"/>
	</g>
	<g>
		
			<linearGradient id="SVGID_9_" gradientUnits="userSpaceOnUse" x1="523.1604" y1="203.4106" x2="584.4588" y2="203.4106" gradientTransform="matrix(0.3202 -7.364722e-04 7.364722e-04 -0.3634 -0.2173 811.0803)">
			<stop  offset="0" style="stop-color:#008D8B"/>
			<stop  offset="0.5742" style="stop-color:#724391"/>
			<stop  offset="1" style="stop-color:#724391"/>
		</linearGradient>
		<path fill="url(#SVGID_9_)" d="M167.4,742.8c0,0,9-4.2,9.2-12c0,0,4.7,11.6,10.5,11.7L167.4,742.8z"/>
		
			<linearGradient id="SVGID_10_" gradientUnits="userSpaceOnUse" x1="465.5443" y1="201.863" x2="526.8428" y2="201.863" gradientTransform="matrix(0.3202 -7.364722e-04 7.364722e-04 -0.3634 -0.2173 811.0803)">
			<stop  offset="0" style="stop-color:#008D8B"/>
			<stop  offset="0.5742" style="stop-color:#724391"/>
			<stop  offset="1" style="stop-color:#724391"/>
		</linearGradient>
		<path fill="url(#SVGID_10_)" d="M149,743.4c0,0,9-4.2,9.2-12c0,0,4.7,11.6,10.5,11.7L149,743.4z"/>
	</g>
	<g>
		
			<linearGradient id="SVGID_11_" gradientUnits="userSpaceOnUse" x1="628.1046" y1="203.4749" x2="689.403" y2="203.4749" gradientTransform="matrix(0.3202 -7.364722e-04 7.364722e-04 -0.3634 -0.2173 811.0803)">
			<stop  offset="0" style="stop-color:#008D8B"/>
			<stop  offset="0.5742" style="stop-color:#724391"/>
			<stop  offset="1" style="stop-color:#724391"/>
		</linearGradient>
		<path fill="url(#SVGID_11_)" d="M201.1,742.7c0,0,9-4.2,9.2-12c0,0,4.7,11.6,10.5,11.7L201.1,742.7z"/>
		
			<linearGradient id="SVGID_12_" gradientUnits="userSpaceOnUse" x1="570.6081" y1="201.9273" x2="631.9066" y2="201.9273" gradientTransform="matrix(0.3202 -7.364722e-04 7.364722e-04 -0.3634 -0.2173 811.0803)">
			<stop  offset="0" style="stop-color:#008D8B"/>
			<stop  offset="0.5742" style="stop-color:#724391"/>
			<stop  offset="1" style="stop-color:#724391"/>
		</linearGradient>
		<path fill="url(#SVGID_12_)" d="M182.6,743.3c0,0,9-4.2,9.2-12c0,0,4.7,11.6,10.5,11.7L182.6,743.3z"/>
	</g>
	<g>
		
			<linearGradient id="SVGID_13_" gradientUnits="userSpaceOnUse" x1="738.1046" y1="203.5297" x2="799.4031" y2="203.5297" gradientTransform="matrix(0.3202 -7.364722e-04 7.364722e-04 -0.3634 -0.2173 811.0803)">
			<stop  offset="0" style="stop-color:#008D8B"/>
			<stop  offset="0.5742" style="stop-color:#724391"/>
			<stop  offset="1" style="stop-color:#724391"/>
		</linearGradient>
		<path fill="url(#SVGID_13_)" d="M236.3,742.6c0,0,9-4.2,9.2-12c0,0,4.7,11.6,10.5,11.7L236.3,742.6z"/>
		
			<linearGradient id="SVGID_14_" gradientUnits="userSpaceOnUse" x1="680.5944" y1="201.982" x2="741.8929" y2="201.982" gradientTransform="matrix(0.3202 -7.364722e-04 7.364722e-04 -0.3634 -0.2173 811.0803)">
			<stop  offset="0" style="stop-color:#008D8B"/>
			<stop  offset="0.5742" style="stop-color:#724391"/>
			<stop  offset="1" style="stop-color:#724391"/>
		</linearGradient>
		<path fill="url(#SVGID_14_)" d="M217.8,743.2c0,0,9-4.2,9.2-12c0,0,4.7,11.6,10.5,11.7L217.8,743.2z"/>
	</g>
</g>
<g>
	<g>
		
			<linearGradient id="SVGID_15_" gradientUnits="userSpaceOnUse" x1="849.0422" y1="203.3051" x2="910.3405" y2="203.3051" gradientTransform="matrix(0.3202 -7.364722e-04 7.364722e-04 -0.3634 -0.2173 811.0803)">
			<stop  offset="0" style="stop-color:#008D8B"/>
			<stop  offset="0.5742" style="stop-color:#724391"/>
			<stop  offset="1" style="stop-color:#724391"/>
		</linearGradient>
		<path fill="url(#SVGID_15_)" d="M271.8,742.6c0,0,9-4.2,9.2-12c0,0,4.7,11.6,10.5,11.7L271.8,742.6z"/>
		
			<linearGradient id="SVGID_16_" gradientUnits="userSpaceOnUse" x1="791.509" y1="201.7568" x2="852.8074" y2="201.7568" gradientTransform="matrix(0.3202 -7.364722e-04 7.364722e-04 -0.3634 -0.2173 811.0803)">
			<stop  offset="0" style="stop-color:#008D8B"/>
			<stop  offset="0.5742" style="stop-color:#724391"/>
			<stop  offset="1" style="stop-color:#724391"/>
		</linearGradient>
		<path fill="url(#SVGID_16_)" d="M253.4,743.2c0,0,9-4.2,9.2-12c0,0,4.7,11.6,10.5,11.7L253.4,743.2z"/>
	</g>
	<g>
		
			<linearGradient id="SVGID_17_" gradientUnits="userSpaceOnUse" x1="963.1051" y1="203.3508" x2="1024.4036" y2="203.3508" gradientTransform="matrix(0.3202 -7.364722e-04 7.364722e-04 -0.3634 -0.2173 811.0803)">
			<stop  offset="0" style="stop-color:#008D8B"/>
			<stop  offset="0.5742" style="stop-color:#724391"/>
			<stop  offset="1" style="stop-color:#724391"/>
		</linearGradient>
		<path fill="url(#SVGID_17_)" d="M308.3,742.5c0,0,9-4.2,9.2-12c0,0,4.7,11.6,10.5,11.7L308.3,742.5z"/>
		
			<linearGradient id="SVGID_18_" gradientUnits="userSpaceOnUse" x1="905.5087" y1="201.8032" x2="966.8071" y2="201.8032" gradientTransform="matrix(0.3202 -7.364722e-04 7.364722e-04 -0.3634 -0.2173 811.0803)">
			<stop  offset="0" style="stop-color:#008D8B"/>
			<stop  offset="0.5742" style="stop-color:#724391"/>
			<stop  offset="1" style="stop-color:#724391"/>
		</linearGradient>
		<path fill="url(#SVGID_18_)" d="M289.9,743.1c0,0,9-4.2,9.2-12c0,0,4.7,11.6,10.5,11.7L289.9,743.1z"/>
	</g>
	<g>
		
			<linearGradient id="SVGID_19_" gradientUnits="userSpaceOnUse" x1="1077.105" y1="203.3972" x2="1138.4036" y2="203.3972" gradientTransform="matrix(0.3202 -7.364722e-04 7.364722e-04 -0.3634 -0.2173 811.0803)">
			<stop  offset="0" style="stop-color:#008D8B"/>
			<stop  offset="0.5742" style="stop-color:#724391"/>
			<stop  offset="1" style="stop-color:#724391"/>
		</linearGradient>
		<path fill="url(#SVGID_19_)" d="M344.8,742.4c0,0,9-4.2,9.2-12c0,0,4.7,11.6,10.5,11.7L344.8,742.4z"/>
		
			<linearGradient id="SVGID_20_" gradientUnits="userSpaceOnUse" x1="1019.6086" y1="201.8496" x2="1080.9071" y2="201.8496" gradientTransform="matrix(0.3202 -7.364722e-04 7.364722e-04 -0.3634 -0.2173 811.0803)">
			<stop  offset="0" style="stop-color:#008D8B"/>
			<stop  offset="0.5742" style="stop-color:#724391"/>
			<stop  offset="1" style="stop-color:#724391"/>
		</linearGradient>
		<path fill="url(#SVGID_20_)" d="M326.4,743c0,0,9-4.2,9.2-12c0,0,4.7,11.6,10.5,11.7L326.4,743z"/>
	</g>
	<g>
		
			<linearGradient id="SVGID_21_" gradientUnits="userSpaceOnUse" x1="1191.205" y1="203.4436" x2="1252.5034" y2="203.4436" gradientTransform="matrix(0.3202 -7.364722e-04 7.364722e-04 -0.3634 -0.2173 811.0803)">
			<stop  offset="0" style="stop-color:#008D8B"/>
			<stop  offset="0.5742" style="stop-color:#724391"/>
			<stop  offset="1" style="stop-color:#724391"/>
		</linearGradient>
		<path fill="url(#SVGID_21_)" d="M381.3,742.3c0,0,9-4.2,9.2-12c0,0,4.7,11.6,10.5,11.7L381.3,742.3z"/>
		
			<linearGradient id="SVGID_22_" gradientUnits="userSpaceOnUse" x1="1133.6083" y1="201.896" x2="1194.9069" y2="201.896" gradientTransform="matrix(0.3202 -7.364722e-04 7.364722e-04 -0.3634 -0.2173 811.0803)">
			<stop  offset="0" style="stop-color:#008D8B"/>
			<stop  offset="0.5742" style="stop-color:#724391"/>
			<stop  offset="1" style="stop-color:#724391"/>
		</linearGradient>
		<path fill="url(#SVGID_22_)" d="M362.9,742.9c0,0,9-4.2,9.2-12c0,0,4.7,11.6,10.5,11.7L362.9,742.9z"/>
	</g>
	<g>
		
			<linearGradient id="SVGID_23_" gradientUnits="userSpaceOnUse" x1="1305.2046" y1="203.49" x2="1366.5032" y2="203.49" gradientTransform="matrix(0.3202 -7.364722e-04 7.364722e-04 -0.3634 -0.2173 811.0803)">
			<stop  offset="0" style="stop-color:#008D8B"/>
			<stop  offset="0.5742" style="stop-color:#724391"/>
			<stop  offset="1" style="stop-color:#724391"/>
		</linearGradient>
		<path fill="url(#SVGID_23_)" d="M417.8,742.2c0,0,9-4.2,9.2-12c0,0,4.7,11.6,10.5,11.7L417.8,742.2z"/>
		
			<linearGradient id="SVGID_24_" gradientUnits="userSpaceOnUse" x1="1247.7083" y1="201.9418" x2="1309.0067" y2="201.9418" gradientTransform="matrix(0.3202 -7.364722e-04 7.364722e-04 -0.3634 -0.2173 811.0803)">
			<stop  offset="0" style="stop-color:#008D8B"/>
			<stop  offset="0.5742" style="stop-color:#724391"/>
			<stop  offset="1" style="stop-color:#724391"/>
		</linearGradient>
		<path fill="url(#SVGID_24_)" d="M399.5,742.8c0,0,9-4.2,9.2-12c0,0,4.7,11.6,10.5,11.7L399.5,742.8z"/>
	</g>
	<g>
		
			<linearGradient id="SVGID_25_" gradientUnits="userSpaceOnUse" x1="1410.3047" y1="203.5543" x2="1471.6031" y2="203.5543" gradientTransform="matrix(0.3202 -7.364722e-04 7.364722e-04 -0.3634 -0.2173 811.0803)">
			<stop  offset="0" style="stop-color:#008D8B"/>
			<stop  offset="0.5742" style="stop-color:#724391"/>
			<stop  offset="1" style="stop-color:#724391"/>
		</linearGradient>
		<path fill="url(#SVGID_25_)" d="M451.5,742.1c0,0,9-4.2,9.2-12c0,0,4.7,11.6,10.5,11.7L451.5,742.1z"/>
		
			<linearGradient id="SVGID_26_" gradientUnits="userSpaceOnUse" x1="1352.7083" y1="202.0067" x2="1414.0068" y2="202.0067" gradientTransform="matrix(0.3202 -7.364722e-04 7.364722e-04 -0.3634 -0.2173 811.0803)">
			<stop  offset="0" style="stop-color:#008D8B"/>
			<stop  offset="0.5742" style="stop-color:#724391"/>
			<stop  offset="1" style="stop-color:#724391"/>
		</linearGradient>
		<path fill="url(#SVGID_26_)" d="M433,742.7c0,0,9-4.2,9.2-12c0,0,4.7,11.6,10.5,11.7L433,742.7z"/>
	</g>
	<g>
		
			<linearGradient id="SVGID_27_" gradientUnits="userSpaceOnUse" x1="1520.3046" y1="203.6083" x2="1581.6031" y2="203.6083" gradientTransform="matrix(0.3202 -7.364722e-04 7.364722e-04 -0.3634 -0.2173 811.0803)">
			<stop  offset="0" style="stop-color:#008D8B"/>
			<stop  offset="0.5742" style="stop-color:#724391"/>
			<stop  offset="1" style="stop-color:#724391"/>
		</linearGradient>
		<path fill="url(#SVGID_27_)" d="M486.8,742c0,0,9-4.2,9.2-12c0,0,4.7,11.6,10.5,11.7L486.8,742z"/>
		
			<linearGradient id="SVGID_28_" gradientUnits="userSpaceOnUse" x1="1462.7083" y1="202.0608" x2="1524.0067" y2="202.0608" gradientTransform="matrix(0.3202 -7.364722e-04 7.364722e-04 -0.3634 -0.2173 811.0803)">
			<stop  offset="0" style="stop-color:#008D8B"/>
			<stop  offset="0.5742" style="stop-color:#724391"/>
			<stop  offset="1" style="stop-color:#724391"/>
		</linearGradient>
		<path fill="url(#SVGID_28_)" d="M468.3,742.6c0,0,9-4.2,9.2-12c0,0,4.7,11.6,10.5,11.7L468.3,742.6z"/>
	</g>
</g>
<g>
	<g>
		
			<linearGradient id="SVGID_29_" gradientUnits="userSpaceOnUse" x1="1631.1294" y1="203.1064" x2="1692.4277" y2="203.1064" gradientTransform="matrix(0.3202 -7.364722e-04 7.364722e-04 -0.3634 -0.2173 811.0803)">
			<stop  offset="0" style="stop-color:#008D8B"/>
			<stop  offset="0.5742" style="stop-color:#724391"/>
			<stop  offset="1" style="stop-color:#724391"/>
		</linearGradient>
		<path fill="url(#SVGID_29_)" d="M522.3,742.1c0,0,9-4.2,9.2-12c0,0,4.7,11.6,10.5,11.7L522.3,742.1z"/>
		
			<linearGradient id="SVGID_30_" gradientUnits="userSpaceOnUse" x1="1573.6089" y1="201.5588" x2="1634.9075" y2="201.5588" gradientTransform="matrix(0.3202 -7.364722e-04 7.364722e-04 -0.3634 -0.2173 811.0803)">
			<stop  offset="0" style="stop-color:#008D8B"/>
			<stop  offset="0.5742" style="stop-color:#724391"/>
			<stop  offset="1" style="stop-color:#724391"/>
		</linearGradient>
		<path fill="url(#SVGID_30_)" d="M503.8,742.7c0,0,9-4.2,9.2-12c0,0,4.7,11.6,10.5,11.7L503.8,742.7z"/>
	</g>
	<g>
		
			<linearGradient id="SVGID_31_" gradientUnits="userSpaceOnUse" x1="1745.2052" y1="203.1527" x2="1806.5038" y2="203.1527" gradientTransform="matrix(0.3202 -7.364722e-04 7.364722e-04 -0.3634 -0.2173 811.0803)">
			<stop  offset="0" style="stop-color:#008D8B"/>
			<stop  offset="0.5742" style="stop-color:#724391"/>
			<stop  offset="1" style="stop-color:#724391"/>
		</linearGradient>
		<path fill="url(#SVGID_31_)" d="M558.8,742c0,0,9-4.2,9.2-12c0,0,4.7,11.6,10.5,11.7L558.8,742z"/>
		
			<linearGradient id="SVGID_32_" gradientUnits="userSpaceOnUse" x1="1687.6167" y1="201.6052" x2="1748.9152" y2="201.6052" gradientTransform="matrix(0.3202 -7.364722e-04 7.364722e-04 -0.3634 -0.2173 811.0803)">
			<stop  offset="0" style="stop-color:#008D8B"/>
			<stop  offset="0.5742" style="stop-color:#724391"/>
			<stop  offset="1" style="stop-color:#724391"/>
		</linearGradient>
		<path fill="url(#SVGID_32_)" d="M540.3,742.6c0,0,9-4.2,9.2-12c0,0,4.7,11.6,10.5,11.7L540.3,742.6z"/>
	</g>
	<g>
		
			<linearGradient id="SVGID_33_" gradientUnits="userSpaceOnUse" x1="1859.2134" y1="203.4765" x2="1920.5118" y2="203.4765" gradientTransform="matrix(0.3202 -7.364722e-04 7.364722e-04 -0.3634 -0.2173 811.0803)">
			<stop  offset="0" style="stop-color:#008D8B"/>
			<stop  offset="0.5742" style="stop-color:#724391"/>
			<stop  offset="1" style="stop-color:#724391"/>
		</linearGradient>
		<path fill="url(#SVGID_33_)" d="M595.2,741.8c0,0,9-4.2,9.2-12c0,0,4.7,11.6,10.5,11.7L595.2,741.8z"/>
		
			<linearGradient id="SVGID_34_" gradientUnits="userSpaceOnUse" x1="1801.7086" y1="201.9289" x2="1863.0071" y2="201.9289" gradientTransform="matrix(0.3202 -7.364722e-04 7.364722e-04 -0.3634 -0.2173 811.0803)">
			<stop  offset="0" style="stop-color:#008D8B"/>
			<stop  offset="0.5742" style="stop-color:#724391"/>
			<stop  offset="1" style="stop-color:#724391"/>
		</linearGradient>
		<path fill="url(#SVGID_34_)" d="M576.8,742.4c0,0,9-4.2,9.2-12c0,0,4.7,11.6,10.5,11.7L576.8,742.4z"/>
	</g>
</g>
<linearGradient id="SVGID_35_" gradientUnits="userSpaceOnUse" x1="964.7755" y1="-419.1584" x2="964.7755" y2="562.8149" gradientTransform="matrix(0.3202 0 0 -0.3202 0.1142 791.1588)">
	<stop  offset="0" style="stop-color:#008D8B"/>
	<stop  offset="0.5742" style="stop-color:#724391"/>
	<stop  offset="1" style="stop-color:#724391"/>
</linearGradient>
<rect x="3" y="741" fill="url(#SVGID_35_)" width="612" height="49"/>
</svg>
