<?xml version="1.0" encoding="utf-8"?>
<!-- Generator: Adobe Illustrator 18.0.0, SVG Export Plug-In . SVG Version: 6.00 Build 0)  -->
<!DOCTYPE svg PUBLIC "-//W3C//DTD SVG 1.1//EN" "http://www.w3.org/Graphics/SVG/1.1/DTD/svg11.dtd">
<svg version="1.1" id="Layer_1" xmlns="http://www.w3.org/2000/svg" xmlns:xlink="http://www.w3.org/1999/xlink" x="0px" y="0px"
	 viewBox="2.9 364.1 607.1 60.2" enable-background="new 2.9 364.1 607.1 60.2" xml:space="preserve">
<g>
	<g>
		
			<linearGradient id="SVGID_1_" gradientUnits="userSpaceOnUse" x1="66.9054" y1="588.7112" x2="128.2036" y2="588.7112" gradientTransform="matrix(0.3176 -7.305756e-04 -7.305756e-04 0.3605 0.3863 159.2562)">
			<stop  offset="0" style="stop-color:#008D8B"/>
			<stop  offset="0.5742" style="stop-color:#724391"/>
			<stop  offset="1" style="stop-color:#724391"/>
		</linearGradient>
		<path fill="url(#SVGID_1_)" d="M21.2,377.4c0,0,8.9-4.2,9.1-11.9c0,0,4.7,11.5,10.4,11.6L21.2,377.4z"/>
		
			<linearGradient id="SVGID_2_" gradientUnits="userSpaceOnUse" x1="9.3087" y1="590.1804" x2="70.6072" y2="590.1804" gradientTransform="matrix(0.3176 -7.305756e-04 -7.305756e-04 0.3605 0.3863 159.2562)">
			<stop  offset="0" style="stop-color:#008D8B"/>
			<stop  offset="0.5742" style="stop-color:#724391"/>
			<stop  offset="1" style="stop-color:#724391"/>
		</linearGradient>
		<path fill="url(#SVGID_2_)" d="M2.9,378c0,0,8.9-4.2,9.1-11.9c0,0,4.7,11.5,10.4,11.6L2.9,378z"/>
	</g>
	<g>
		
			<linearGradient id="SVGID_3_" gradientUnits="userSpaceOnUse" x1="180.9051" y1="588.5898" x2="242.2036" y2="588.5898" gradientTransform="matrix(0.3176 -7.305756e-04 -7.305756e-04 0.3605 0.3863 159.2562)">
			<stop  offset="0" style="stop-color:#008D8B"/>
			<stop  offset="0.5742" style="stop-color:#724391"/>
			<stop  offset="1" style="stop-color:#724391"/>
		</linearGradient>
		<path fill="url(#SVGID_3_)" d="M57.4,377.3c0,0,8.9-4.2,9.1-11.9c0,0,4.7,11.5,10.4,11.6L57.4,377.3z"/>
		
			<linearGradient id="SVGID_4_" gradientUnits="userSpaceOnUse" x1="123.4087" y1="590.1473" x2="184.7071" y2="590.1473" gradientTransform="matrix(0.3176 -7.305756e-04 -7.305756e-04 0.3605 0.3863 159.2562)">
			<stop  offset="0" style="stop-color:#008D8B"/>
			<stop  offset="0.5742" style="stop-color:#724391"/>
			<stop  offset="1" style="stop-color:#724391"/>
		</linearGradient>
		<path fill="url(#SVGID_4_)" d="M39.1,377.9c0,0,8.9-4.2,9.1-11.9c0,0,4.7,11.5,10.4,11.6L39.1,377.9z"/>
	</g>
	<g>
		
			<linearGradient id="SVGID_5_" gradientUnits="userSpaceOnUse" x1="295.005" y1="588.5568" x2="356.3035" y2="588.5568" gradientTransform="matrix(0.3176 -7.305756e-04 -7.305756e-04 0.3605 0.3863 159.2562)">
			<stop  offset="0" style="stop-color:#008D8B"/>
			<stop  offset="0.5742" style="stop-color:#724391"/>
			<stop  offset="1" style="stop-color:#724391"/>
		</linearGradient>
		<path fill="url(#SVGID_5_)" d="M93.7,377.2c0,0,8.9-4.2,9.1-11.9c0,0,4.7,11.5,10.4,11.6L93.7,377.2z"/>
		
			<linearGradient id="SVGID_6_" gradientUnits="userSpaceOnUse" x1="237.4086" y1="590.114" x2="298.707" y2="590.114" gradientTransform="matrix(0.3176 -7.305756e-04 -7.305756e-04 0.3605 0.3863 159.2562)">
			<stop  offset="0" style="stop-color:#008D8B"/>
			<stop  offset="0.5742" style="stop-color:#724391"/>
			<stop  offset="1" style="stop-color:#724391"/>
		</linearGradient>
		<path fill="url(#SVGID_6_)" d="M75.4,377.8c0,0,8.9-4.2,9.1-11.9c0,0,4.7,11.5,10.4,11.6L75.4,377.8z"/>
	</g>
	<g>
		
			<linearGradient id="SVGID_7_" gradientUnits="userSpaceOnUse" x1="409.0047" y1="588.4354" x2="470.3032" y2="588.4354" gradientTransform="matrix(0.3176 -7.305756e-04 -7.305756e-04 0.3605 0.3863 159.2562)">
			<stop  offset="0" style="stop-color:#008D8B"/>
			<stop  offset="0.5742" style="stop-color:#724391"/>
			<stop  offset="1" style="stop-color:#724391"/>
		</linearGradient>
		<path fill="url(#SVGID_7_)" d="M129.9,377c0,0,8.9-4.2,9.1-11.9c0,0,4.7,11.5,10.4,11.6L129.9,377z"/>
		
			<linearGradient id="SVGID_8_" gradientUnits="userSpaceOnUse" x1="351.5083" y1="589.9929" x2="412.8068" y2="589.9929" gradientTransform="matrix(0.3176 -7.305756e-04 -7.305756e-04 0.3605 0.3863 159.2562)">
			<stop  offset="0" style="stop-color:#008D8B"/>
			<stop  offset="0.5742" style="stop-color:#724391"/>
			<stop  offset="1" style="stop-color:#724391"/>
		</linearGradient>
		<path fill="url(#SVGID_8_)" d="M111.6,377.7c0,0,8.9-4.2,9.1-11.9c0,0,4.7,11.5,10.4,11.6L111.6,377.7z"/>
	</g>
	<g>
		
			<linearGradient id="SVGID_9_" gradientUnits="userSpaceOnUse" x1="523.1047" y1="588.4022" x2="584.4031" y2="588.4022" gradientTransform="matrix(0.3176 -7.305756e-04 -7.305756e-04 0.3605 0.3863 159.2562)">
			<stop  offset="0" style="stop-color:#008D8B"/>
			<stop  offset="0.5742" style="stop-color:#724391"/>
			<stop  offset="1" style="stop-color:#724391"/>
		</linearGradient>
		<path fill="url(#SVGID_9_)" d="M166.1,377c0,0,8.9-4.2,9.1-11.9c0,0,4.7,11.5,10.4,11.6L166.1,377z"/>
		
			<linearGradient id="SVGID_10_" gradientUnits="userSpaceOnUse" x1="465.5082" y1="589.9595" x2="526.8067" y2="589.9595" gradientTransform="matrix(0.3176 -7.305756e-04 -7.305756e-04 0.3605 0.3863 159.2562)">
			<stop  offset="0" style="stop-color:#008D8B"/>
			<stop  offset="0.5742" style="stop-color:#724391"/>
			<stop  offset="1" style="stop-color:#724391"/>
		</linearGradient>
		<path fill="url(#SVGID_10_)" d="M147.8,377.6c0,0,8.9-4.2,9.1-11.9c0,0,4.7,11.5,10.4,11.6L147.8,377.6z"/>
	</g>
	<g>
		
			<linearGradient id="SVGID_11_" gradientUnits="userSpaceOnUse" x1="628.1046" y1="588.3507" x2="689.403" y2="588.3507" gradientTransform="matrix(0.3176 -7.305756e-04 -7.305756e-04 0.3605 0.3863 159.2562)">
			<stop  offset="0" style="stop-color:#008D8B"/>
			<stop  offset="0.5742" style="stop-color:#724391"/>
			<stop  offset="1" style="stop-color:#724391"/>
		</linearGradient>
		<path fill="url(#SVGID_11_)" d="M199.5,376.9c0,0,8.9-4.2,9.1-11.9c0,0,4.7,11.5,10.4,11.6L199.5,376.9z"/>
		
			<linearGradient id="SVGID_12_" gradientUnits="userSpaceOnUse" x1="570.6081" y1="589.9082" x2="631.9066" y2="589.9082" gradientTransform="matrix(0.3176 -7.305756e-04 -7.305756e-04 0.3605 0.3863 159.2562)">
			<stop  offset="0" style="stop-color:#008D8B"/>
			<stop  offset="0.5742" style="stop-color:#724391"/>
			<stop  offset="1" style="stop-color:#724391"/>
		</linearGradient>
		<path fill="url(#SVGID_12_)" d="M181.2,377.5c0,0,8.9-4.2,9.1-11.9c0,0,4.7,11.5,10.4,11.6L181.2,377.5z"/>
	</g>
	<g>
		
			<linearGradient id="SVGID_13_" gradientUnits="userSpaceOnUse" x1="738.1046" y1="588.3974" x2="799.4031" y2="588.3974" gradientTransform="matrix(0.3176 -7.305756e-04 -7.305756e-04 0.3605 0.3863 159.2562)">
			<stop  offset="0" style="stop-color:#008D8B"/>
			<stop  offset="0.5742" style="stop-color:#724391"/>
			<stop  offset="1" style="stop-color:#724391"/>
		</linearGradient>
		<path fill="url(#SVGID_13_)" d="M234.4,376.8c0,0,8.9-4.2,9.1-11.9c0,0,4.7,11.5,10.4,11.6L234.4,376.8z"/>
		
			<linearGradient id="SVGID_14_" gradientUnits="userSpaceOnUse" x1="680.6082" y1="589.9549" x2="741.9067" y2="589.9549" gradientTransform="matrix(0.3176 -7.305756e-04 -7.305756e-04 0.3605 0.3863 159.2562)">
			<stop  offset="0" style="stop-color:#008D8B"/>
			<stop  offset="0.5742" style="stop-color:#724391"/>
			<stop  offset="1" style="stop-color:#724391"/>
		</linearGradient>
		<path fill="url(#SVGID_14_)" d="M216.1,377.4c0,0,8.9-4.2,9.1-11.9c0,0,4.7,11.5,10.4,11.6L216.1,377.4z"/>
	</g>
</g>
<g>
	<g>
		
			<linearGradient id="SVGID_15_" gradientUnits="userSpaceOnUse" x1="849.0054" y1="588.7102" x2="910.3036" y2="588.7102" gradientTransform="matrix(0.3176 -7.305756e-04 -7.305756e-04 0.3605 0.3863 159.2562)">
			<stop  offset="0" style="stop-color:#008D8B"/>
			<stop  offset="0.5742" style="stop-color:#724391"/>
			<stop  offset="1" style="stop-color:#724391"/>
		</linearGradient>
		<path fill="url(#SVGID_15_)" d="M269.6,376.8c0,0,8.9-4.2,9.1-11.9c0,0,4.7,11.5,10.4,11.6L269.6,376.8z"/>
		
			<linearGradient id="SVGID_16_" gradientUnits="userSpaceOnUse" x1="791.509" y1="590.2677" x2="852.8074" y2="590.2677" gradientTransform="matrix(0.3176 -7.305756e-04 -7.305756e-04 0.3605 0.3863 159.2562)">
			<stop  offset="0" style="stop-color:#008D8B"/>
			<stop  offset="0.5742" style="stop-color:#724391"/>
			<stop  offset="1" style="stop-color:#724391"/>
		</linearGradient>
		<path fill="url(#SVGID_16_)" d="M251.4,377.4c0,0,8.9-4.2,9.1-11.9c0,0,4.7,11.5,10.4,11.6L251.4,377.4z"/>
	</g>
	<g>
		
			<linearGradient id="SVGID_17_" gradientUnits="userSpaceOnUse" x1="963.1051" y1="588.5891" x2="1024.4036" y2="588.5891" gradientTransform="matrix(0.3176 -7.305756e-04 -7.305756e-04 0.3605 0.3863 159.2562)">
			<stop  offset="0" style="stop-color:#008D8B"/>
			<stop  offset="0.5742" style="stop-color:#724391"/>
			<stop  offset="1" style="stop-color:#724391"/>
		</linearGradient>
		<path fill="url(#SVGID_17_)" d="M305.9,376.7c0,0,8.9-4.2,9.1-11.9c0,0,4.7,11.5,10.4,11.6L305.9,376.7z"/>
		
			<linearGradient id="SVGID_18_" gradientUnits="userSpaceOnUse" x1="905.5087" y1="590.1463" x2="966.8071" y2="590.1463" gradientTransform="matrix(0.3176 -7.305756e-04 -7.305756e-04 0.3605 0.3863 159.2562)">
			<stop  offset="0" style="stop-color:#008D8B"/>
			<stop  offset="0.5742" style="stop-color:#724391"/>
			<stop  offset="1" style="stop-color:#724391"/>
		</linearGradient>
		<path fill="url(#SVGID_18_)" d="M287.6,377.3c0,0,8.9-4.2,9.1-11.9c0,0,4.7,11.5,10.4,11.6L287.6,377.3z"/>
	</g>
	<g>
		
			<linearGradient id="SVGID_19_" gradientUnits="userSpaceOnUse" x1="1077.105" y1="588.5557" x2="1138.4036" y2="588.5557" gradientTransform="matrix(0.3176 -7.305756e-04 -7.305756e-04 0.3605 0.3863 159.2562)">
			<stop  offset="0" style="stop-color:#008D8B"/>
			<stop  offset="0.5742" style="stop-color:#724391"/>
			<stop  offset="1" style="stop-color:#724391"/>
		</linearGradient>
		<path fill="url(#SVGID_19_)" d="M342.1,376.6c0,0,8.9-4.2,9.1-11.9c0,0,4.7,11.5,10.4,11.6L342.1,376.6z"/>
		
			<linearGradient id="SVGID_20_" gradientUnits="userSpaceOnUse" x1="1019.6086" y1="590.1132" x2="1080.9071" y2="590.1132" gradientTransform="matrix(0.3176 -7.305756e-04 -7.305756e-04 0.3605 0.3863 159.2562)">
			<stop  offset="0" style="stop-color:#008D8B"/>
			<stop  offset="0.5742" style="stop-color:#724391"/>
			<stop  offset="1" style="stop-color:#724391"/>
		</linearGradient>
		<path fill="url(#SVGID_20_)" d="M323.8,377.2c0,0,8.9-4.2,9.1-11.9c0,0,4.7,11.5,10.4,11.6L323.8,377.2z"/>
	</g>
	<g>
		
			<linearGradient id="SVGID_21_" gradientUnits="userSpaceOnUse" x1="1191.205" y1="588.5226" x2="1252.5034" y2="588.5226" gradientTransform="matrix(0.3176 -7.305756e-04 -7.305756e-04 0.3605 0.3863 159.2562)">
			<stop  offset="0" style="stop-color:#008D8B"/>
			<stop  offset="0.5742" style="stop-color:#724391"/>
			<stop  offset="1" style="stop-color:#724391"/>
		</linearGradient>
		<path fill="url(#SVGID_21_)" d="M378.3,376.5c0,0,8.9-4.2,9.1-11.9c0,0,4.7,11.5,10.4,11.6L378.3,376.5z"/>
		
			<linearGradient id="SVGID_22_" gradientUnits="userSpaceOnUse" x1="1133.6083" y1="589.9918" x2="1194.9069" y2="589.9918" gradientTransform="matrix(0.3176 -7.305756e-04 -7.305756e-04 0.3605 0.3863 159.2562)">
			<stop  offset="0" style="stop-color:#008D8B"/>
			<stop  offset="0.5742" style="stop-color:#724391"/>
			<stop  offset="1" style="stop-color:#724391"/>
		</linearGradient>
		<path fill="url(#SVGID_22_)" d="M360,377.1c0,0,8.9-4.2,9.1-11.9c0,0,4.7,11.5,10.4,11.6L360,377.1z"/>
	</g>
	<g>
		
			<linearGradient id="SVGID_23_" gradientUnits="userSpaceOnUse" x1="1305.2046" y1="588.4012" x2="1366.5032" y2="588.4012" gradientTransform="matrix(0.3176 -7.305756e-04 -7.305756e-04 0.3605 0.3863 159.2562)">
			<stop  offset="0" style="stop-color:#008D8B"/>
			<stop  offset="0.5742" style="stop-color:#724391"/>
			<stop  offset="1" style="stop-color:#724391"/>
		</linearGradient>
		<path fill="url(#SVGID_23_)" d="M414.5,376.4c0,0,8.9-4.2,9.1-11.9c0,0,4.7,11.5,10.4,11.6L414.5,376.4z"/>
		
			<linearGradient id="SVGID_24_" gradientUnits="userSpaceOnUse" x1="1247.7083" y1="589.9587" x2="1309.0067" y2="589.9587" gradientTransform="matrix(0.3176 -7.305756e-04 -7.305756e-04 0.3605 0.3863 159.2562)">
			<stop  offset="0" style="stop-color:#008D8B"/>
			<stop  offset="0.5742" style="stop-color:#724391"/>
			<stop  offset="1" style="stop-color:#724391"/>
		</linearGradient>
		<path fill="url(#SVGID_24_)" d="M396.3,377c0,0,8.9-4.2,9.1-11.9c0,0,4.7,11.5,10.4,11.6L396.3,377z"/>
	</g>
	<g>
		
			<linearGradient id="SVGID_25_" gradientUnits="userSpaceOnUse" x1="1410.3047" y1="588.438" x2="1471.6031" y2="588.438" gradientTransform="matrix(0.3176 -7.305756e-04 -7.305756e-04 0.3605 0.3863 159.2562)">
			<stop  offset="0" style="stop-color:#008D8B"/>
			<stop  offset="0.5742" style="stop-color:#724391"/>
			<stop  offset="1" style="stop-color:#724391"/>
		</linearGradient>
		<path fill="url(#SVGID_25_)" d="M447.9,376.3c0,0,8.9-4.2,9.1-11.9c0,0,4.7,11.5,10.4,11.6L447.9,376.3z"/>
		
			<linearGradient id="SVGID_26_" gradientUnits="userSpaceOnUse" x1="1352.7083" y1="589.9952" x2="1414.0068" y2="589.9952" gradientTransform="matrix(0.3176 -7.305756e-04 -7.305756e-04 0.3605 0.3863 159.2562)">
			<stop  offset="0" style="stop-color:#008D8B"/>
			<stop  offset="0.5742" style="stop-color:#724391"/>
			<stop  offset="1" style="stop-color:#724391"/>
		</linearGradient>
		<path fill="url(#SVGID_26_)" d="M429.6,376.9c0,0,8.9-4.2,9.1-11.9c0,0,4.7,11.5,10.4,11.6L429.6,376.9z"/>
	</g>
	<g>
		
			<linearGradient id="SVGID_27_" gradientUnits="userSpaceOnUse" x1="1520.3046" y1="588.3965" x2="1581.6031" y2="588.3965" gradientTransform="matrix(0.3176 -7.305756e-04 -7.305756e-04 0.3605 0.3863 159.2562)">
			<stop  offset="0" style="stop-color:#008D8B"/>
			<stop  offset="0.5742" style="stop-color:#724391"/>
			<stop  offset="1" style="stop-color:#724391"/>
		</linearGradient>
		<path fill="url(#SVGID_27_)" d="M482.9,376.2c0,0,8.9-4.2,9.1-11.9c0,0,4.7,11.5,10.4,11.6L482.9,376.2z"/>
		
			<linearGradient id="SVGID_28_" gradientUnits="userSpaceOnUse" x1="1462.7083" y1="589.9539" x2="1524.0067" y2="589.9539" gradientTransform="matrix(0.3176 -7.305756e-04 -7.305756e-04 0.3605 0.3863 159.2562)">
			<stop  offset="0" style="stop-color:#008D8B"/>
			<stop  offset="0.5742" style="stop-color:#724391"/>
			<stop  offset="1" style="stop-color:#724391"/>
		</linearGradient>
		<path fill="url(#SVGID_28_)" d="M464.6,376.8c0,0,8.9-4.2,9.1-11.9c0,0,4.7,11.5,10.4,11.6L464.6,376.8z"/>
	</g>
</g>
<g>
	<g>
		
			<linearGradient id="SVGID_29_" gradientUnits="userSpaceOnUse" x1="1631.1294" y1="588.7094" x2="1692.4277" y2="588.7094" gradientTransform="matrix(0.3176 -7.305756e-04 -7.305756e-04 0.3605 0.3863 159.2562)">
			<stop  offset="0" style="stop-color:#008D8B"/>
			<stop  offset="0.5742" style="stop-color:#724391"/>
			<stop  offset="1" style="stop-color:#724391"/>
		</linearGradient>
		<path fill="url(#SVGID_29_)" d="M518.1,376.3c0,0,8.9-4.2,9.1-11.9c0,0,4.7,11.5,10.4,11.6L518.1,376.3z"/>
		
			<linearGradient id="SVGID_30_" gradientUnits="userSpaceOnUse" x1="1573.6089" y1="590.2667" x2="1634.9075" y2="590.2667" gradientTransform="matrix(0.3176 -7.305756e-04 -7.305756e-04 0.3605 0.3863 159.2562)">
			<stop  offset="0" style="stop-color:#008D8B"/>
			<stop  offset="0.5742" style="stop-color:#724391"/>
			<stop  offset="1" style="stop-color:#724391"/>
		</linearGradient>
		<path fill="url(#SVGID_30_)" d="M499.8,376.9c0,0,8.9-4.2,9.1-11.9c0,0,4.7,11.5,10.4,11.6L499.8,376.9z"/>
	</g>
	<g>
		
			<linearGradient id="SVGID_31_" gradientUnits="userSpaceOnUse" x1="1745.2052" y1="588.6761" x2="1806.5038" y2="588.6761" gradientTransform="matrix(0.3176 -7.305756e-04 -7.305756e-04 0.3605 0.3863 159.2562)">
			<stop  offset="0" style="stop-color:#008D8B"/>
			<stop  offset="0.5742" style="stop-color:#724391"/>
			<stop  offset="1" style="stop-color:#724391"/>
		</linearGradient>
		<path fill="url(#SVGID_31_)" d="M554.3,376.2c0,0,8.9-4.2,9.1-11.9c0,0,4.7,11.5,10.4,11.6L554.3,376.2z"/>
		
			<linearGradient id="SVGID_32_" gradientUnits="userSpaceOnUse" x1="1687.6167" y1="590.2336" x2="1748.9152" y2="590.2336" gradientTransform="matrix(0.3176 -7.305756e-04 -7.305756e-04 0.3605 0.3863 159.2562)">
			<stop  offset="0" style="stop-color:#008D8B"/>
			<stop  offset="0.5742" style="stop-color:#724391"/>
			<stop  offset="1" style="stop-color:#724391"/>
		</linearGradient>
		<path fill="url(#SVGID_32_)" d="M536,376.8c0,0,8.9-4.2,9.1-11.9c0,0,4.7,11.5,10.4,11.6L536,376.8z"/>
	</g>
	<g>
		
			<linearGradient id="SVGID_33_" gradientUnits="userSpaceOnUse" x1="1859.2134" y1="588.5549" x2="1920.5118" y2="588.5549" gradientTransform="matrix(0.3176 -7.305756e-04 -7.305756e-04 0.3605 0.3863 159.2562)">
			<stop  offset="0" style="stop-color:#008D8B"/>
			<stop  offset="0.5742" style="stop-color:#724391"/>
			<stop  offset="1" style="stop-color:#724391"/>
		</linearGradient>
		<path fill="url(#SVGID_33_)" d="M590.5,376c0,0,8.9-4.2,9.1-11.9c0,0,4.7,11.5,10.4,11.6L590.5,376z"/>
		
			<linearGradient id="SVGID_34_" gradientUnits="userSpaceOnUse" x1="1801.7086" y1="590.1122" x2="1863.0071" y2="590.1122" gradientTransform="matrix(0.3176 -7.305756e-04 -7.305756e-04 0.3605 0.3863 159.2562)">
			<stop  offset="0" style="stop-color:#008D8B"/>
			<stop  offset="0.5742" style="stop-color:#724391"/>
			<stop  offset="1" style="stop-color:#724391"/>
		</linearGradient>
		<path fill="url(#SVGID_34_)" d="M572.2,376.6c0,0,8.9-4.2,9.1-11.9c0,0,4.7,11.5,10.4,11.6L572.2,376.6z"/>
	</g>
</g>
<linearGradient id="SVGID_35_" gradientUnits="userSpaceOnUse" x1="964.35" y1="1220.303" x2="964.35" y2="220.303" gradientTransform="matrix(0.3176 0 0 0.3176 0.1365 173.4709)">
	<stop  offset="0" style="stop-color:#008D8B"/>
	<stop  offset="0.5742" style="stop-color:#724391"/>
	<stop  offset="1" style="stop-color:#724391"/>
</linearGradient>
<rect x="2.9" y="374.8" fill="url(#SVGID_35_)" width="607.1" height="49.5"/>
</svg>
