<?xml version="1.0" encoding="utf-8"?>
<!-- Generator: Adobe Illustrator 16.0.0, SVG Export Plug-In . SVG Version: 6.00 Build 0)  -->
<!DOCTYPE svg PUBLIC "-//W3C//DTD SVG 1.1//EN" "http://www.w3.org/Graphics/SVG/1.1/DTD/svg11.dtd">
<svg version="1.1" id="Layer_1" xmlns="http://www.w3.org/2000/svg" xmlns:xlink="http://www.w3.org/1999/xlink" x="0px" y="0px"
	 width="1927.615px" height="187.605px" viewBox="0 0 1927.615 187.605" enable-background="new 0 0 1927.615 187.605"
	 xml:space="preserve">
<g>
	<g>
		
			<linearGradient id="SVGID_1_" gradientUnits="userSpaceOnUse" x1="66.2651" y1="23.8118" x2="127.5264" y2="23.8118" gradientTransform="matrix(1 -0.0023 -0.0023 1.135 0.0943 -5.6291)">
			<stop  offset="0" style="stop-color:#008D8B"/>
			<stop  offset="0.5742" style="stop-color:#724391"/>
			<stop  offset="1" style="stop-color:#724391"/>
		</linearGradient>
		<path fill="url(#SVGID_1_)" d="M66.271,39.951c0,0,28.06-13.157,28.47-37.472c0,0,14.703,36.251,32.795,36.549L66.271,39.951z"/>
		
			<linearGradient id="SVGID_2_" gradientUnits="userSpaceOnUse" x1="8.7129" y1="25.363" x2="69.9697" y2="25.363" gradientTransform="matrix(1 -0.0023 -0.0023 1.135 0.0943 -5.6291)">
			<stop  offset="0" style="stop-color:#008D8B"/>
			<stop  offset="0.5742" style="stop-color:#724391"/>
			<stop  offset="1" style="stop-color:#724391"/>
		</linearGradient>
		<path fill="url(#SVGID_2_)" d="M8.713,41.846c0,0,28.057-13.16,28.467-37.479c0,0,14.703,36.254,32.794,36.554L8.713,41.846z"/>
	</g>
	<g>
		
			<linearGradient id="SVGID_3_" gradientUnits="userSpaceOnUse" x1="180.3071" y1="23.7375" x2="241.5713" y2="23.7375" gradientTransform="matrix(1 -0.0023 -0.0023 1.135 0.0943 -5.6291)">
			<stop  offset="0" style="stop-color:#008D8B"/>
			<stop  offset="0.5742" style="stop-color:#724391"/>
			<stop  offset="1" style="stop-color:#724391"/>
		</linearGradient>
		<path fill="url(#SVGID_3_)" d="M180.317,39.61c0,0,28.058-13.16,28.47-37.475c0,0,14.706,36.249,32.798,36.556L180.317,39.61z"/>
		
			<linearGradient id="SVGID_4_" gradientUnits="userSpaceOnUse" x1="122.752" y1="25.2913" x2="184.0107" y2="25.2913" gradientTransform="matrix(1 -0.0023 -0.0023 1.135 0.0943 -5.6291)">
			<stop  offset="0" style="stop-color:#008D8B"/>
			<stop  offset="0.5742" style="stop-color:#724391"/>
			<stop  offset="1" style="stop-color:#724391"/>
		</linearGradient>
		<path fill="url(#SVGID_4_)" d="M122.756,41.505c0,0,28.062-13.157,28.468-37.477c0,0,14.708,36.251,32.795,36.554L122.756,41.505z
			"/>
	</g>
	<g>
		
			<linearGradient id="SVGID_5_" gradientUnits="userSpaceOnUse" x1="294.3491" y1="23.6628" x2="355.6108" y2="23.6628" gradientTransform="matrix(1 -0.0023 -0.0023 1.135 0.0943 -5.6291)">
			<stop  offset="0" style="stop-color:#008D8B"/>
			<stop  offset="0.5742" style="stop-color:#724391"/>
			<stop  offset="1" style="stop-color:#724391"/>
		</linearGradient>
		<path fill="url(#SVGID_5_)" d="M294.364,39.265c0,0,28.058-13.157,28.473-37.472c0,0,14.699,36.254,32.793,36.556L294.364,39.265z
			"/>
		
			<linearGradient id="SVGID_6_" gradientUnits="userSpaceOnUse" x1="236.7935" y1="25.2161" x2="298.0503" y2="25.2161" gradientTransform="matrix(1 -0.0023 -0.0023 1.135 0.0943 -5.6291)">
			<stop  offset="0" style="stop-color:#008D8B"/>
			<stop  offset="0.5742" style="stop-color:#724391"/>
			<stop  offset="1" style="stop-color:#724391"/>
		</linearGradient>
		<path fill="url(#SVGID_6_)" d="M236.803,41.159c0,0,28.06-13.157,28.476-37.473c0,0,14.697,36.246,32.784,36.554L236.803,41.159z"
			/>
	</g>
	<g>
		
			<linearGradient id="SVGID_7_" gradientUnits="userSpaceOnUse" x1="408.3882" y1="23.5881" x2="469.6553" y2="23.5881" gradientTransform="matrix(1 -0.0023 -0.0023 1.135 0.0943 -5.6291)">
			<stop  offset="0" style="stop-color:#008D8B"/>
			<stop  offset="0.5742" style="stop-color:#724391"/>
			<stop  offset="1" style="stop-color:#724391"/>
		</linearGradient>
		<path fill="url(#SVGID_7_)" d="M408.408,38.924c0,0,28.062-13.154,28.479-37.476c0,0,14.696,36.255,32.792,36.556L408.408,38.924z
			"/>
		
			<linearGradient id="SVGID_8_" gradientUnits="userSpaceOnUse" x1="350.8374" y1="25.1409" x2="412.0991" y2="25.1409" gradientTransform="matrix(1 -0.0023 -0.0023 1.135 0.0943 -5.6291)">
			<stop  offset="0" style="stop-color:#008D8B"/>
			<stop  offset="0.5742" style="stop-color:#724391"/>
			<stop  offset="1" style="stop-color:#724391"/>
		</linearGradient>
		<path fill="url(#SVGID_8_)" d="M350.851,40.816c0,0,28.061-13.155,28.466-37.475c0,0,14.709,36.249,32.799,36.556L350.851,40.816z
			"/>
	</g>
	<g>
		
			<linearGradient id="SVGID_9_" gradientUnits="userSpaceOnUse" x1="522.4321" y1="23.5144" x2="583.6973" y2="23.5144" gradientTransform="matrix(1 -0.0023 -0.0023 1.135 0.0943 -5.6291)">
			<stop  offset="0" style="stop-color:#008D8B"/>
			<stop  offset="0.5742" style="stop-color:#724391"/>
			<stop  offset="1" style="stop-color:#724391"/>
		</linearGradient>
		<path fill="url(#SVGID_9_)" d="M522.456,38.578c0,0,28.06-13.151,28.477-37.469c0,0,14.701,36.253,32.792,36.553L522.456,38.578z"
			/>
		
			<linearGradient id="SVGID_10_" gradientUnits="userSpaceOnUse" x1="464.8823" y1="25.0667" x2="526.1372" y2="25.0667" gradientTransform="matrix(1 -0.0023 -0.0023 1.135 0.0943 -5.6291)">
			<stop  offset="0" style="stop-color:#008D8B"/>
			<stop  offset="0.5742" style="stop-color:#724391"/>
			<stop  offset="1" style="stop-color:#724391"/>
		</linearGradient>
		<path fill="url(#SVGID_10_)" d="M464.9,40.472c0,0,28.055-13.152,28.466-37.472c0,0,14.71,36.251,32.792,36.552L464.9,40.472z"/>
	</g>
	<g>
		
			<linearGradient id="SVGID_11_" gradientUnits="userSpaceOnUse" x1="627.5146" y1="23.5149" x2="688.7759" y2="23.5149" gradientTransform="matrix(1 -0.0023 -0.0023 1.135 0.0943 -5.6291)">
			<stop  offset="0" style="stop-color:#008D8B"/>
			<stop  offset="0.5742" style="stop-color:#724391"/>
			<stop  offset="1" style="stop-color:#724391"/>
		</linearGradient>
		<path fill="url(#SVGID_11_)" d="M627.542,38.341c0,0,28.057-13.151,28.473-37.469c0,0,14.703,36.253,32.792,36.553L627.542,38.341
			z"/>
		
			<linearGradient id="SVGID_12_" gradientUnits="userSpaceOnUse" x1="569.9595" y1="25.0667" x2="631.2207" y2="25.0667" gradientTransform="matrix(1 -0.0023 -0.0023 1.135 0.0943 -5.6291)">
			<stop  offset="0" style="stop-color:#008D8B"/>
			<stop  offset="0.5742" style="stop-color:#724391"/>
			<stop  offset="1" style="stop-color:#724391"/>
		</linearGradient>
		<path fill="url(#SVGID_12_)" d="M569.981,40.234c0,0,28.062-13.152,28.473-37.472c0,0,14.708,36.251,32.792,36.552L569.981,40.234
			z"/>
	</g>
	<g>
		
			<linearGradient id="SVGID_13_" gradientUnits="userSpaceOnUse" x1="737.4805" y1="23.5144" x2="798.7441" y2="23.5144" gradientTransform="matrix(1 -0.0023 -0.0023 1.135 0.0943 -5.6291)">
			<stop  offset="0" style="stop-color:#008D8B"/>
			<stop  offset="0.5742" style="stop-color:#724391"/>
			<stop  offset="1" style="stop-color:#724391"/>
		</linearGradient>
		<path fill="url(#SVGID_13_)" d="M737.512,38.091c0,0,28.064-13.151,28.475-37.469c0,0,14.702,36.253,32.793,36.553L737.512,38.091
			z"/>
		
			<linearGradient id="SVGID_14_" gradientUnits="userSpaceOnUse" x1="679.9326" y1="25.0662" x2="741.1895" y2="25.0662" gradientTransform="matrix(1 -0.0023 -0.0023 1.135 0.0943 -5.6291)">
			<stop  offset="0" style="stop-color:#008D8B"/>
			<stop  offset="0.5742" style="stop-color:#724391"/>
			<stop  offset="1" style="stop-color:#724391"/>
		</linearGradient>
		<path fill="url(#SVGID_14_)" d="M679.958,39.985c0,0,28.058-13.153,28.469-37.472c0,0,14.708,36.251,32.792,36.552L679.958,39.985
			z"/>
	</g>
</g>
<g>
	<g>
		
			<linearGradient id="SVGID_15_" gradientUnits="userSpaceOnUse" x1="848.394" y1="23.8118" x2="909.6548" y2="23.8118" gradientTransform="matrix(1 -0.0023 -0.0023 1.135 0.0943 -5.6291)">
			<stop  offset="0" style="stop-color:#008D8B"/>
			<stop  offset="0.5742" style="stop-color:#724391"/>
			<stop  offset="1" style="stop-color:#724391"/>
		</linearGradient>
		<path fill="url(#SVGID_15_)" d="M848.43,38.179c0,0,28.059-13.157,28.47-37.472c0,0,14.703,36.251,32.795,36.549L848.43,38.179z"
			/>
		
			<linearGradient id="SVGID_16_" gradientUnits="userSpaceOnUse" x1="790.8418" y1="25.3635" x2="852.0986" y2="25.3635" gradientTransform="matrix(1 -0.0023 -0.0023 1.135 0.0943 -5.6291)">
			<stop  offset="0" style="stop-color:#008D8B"/>
			<stop  offset="0.5742" style="stop-color:#724391"/>
			<stop  offset="1" style="stop-color:#724391"/>
		</linearGradient>
		<path fill="url(#SVGID_16_)" d="M790.872,40.073c0,0,28.057-13.16,28.467-37.479c0,0,14.703,36.254,32.794,36.554L790.872,40.073z
			"/>
	</g>
	<g>
		
			<linearGradient id="SVGID_17_" gradientUnits="userSpaceOnUse" x1="962.4355" y1="23.7371" x2="1023.6992" y2="23.7371" gradientTransform="matrix(1 -0.0023 -0.0023 1.135 0.0943 -5.6291)">
			<stop  offset="0" style="stop-color:#008D8B"/>
			<stop  offset="0.5742" style="stop-color:#724391"/>
			<stop  offset="1" style="stop-color:#724391"/>
		</linearGradient>
		<path fill="url(#SVGID_17_)" d="M962.476,37.837c0,0,28.057-13.16,28.47-37.475c0,0,14.705,36.249,32.797,36.556L962.476,37.837z"
			/>
		
			<linearGradient id="SVGID_18_" gradientUnits="userSpaceOnUse" x1="904.8809" y1="25.2913" x2="966.1396" y2="25.2913" gradientTransform="matrix(1 -0.0023 -0.0023 1.135 0.0943 -5.6291)">
			<stop  offset="0" style="stop-color:#008D8B"/>
			<stop  offset="0.5742" style="stop-color:#724391"/>
			<stop  offset="1" style="stop-color:#724391"/>
		</linearGradient>
		<path fill="url(#SVGID_18_)" d="M904.915,39.732c0,0,28.062-13.157,28.467-37.476c0,0,14.708,36.251,32.795,36.554L904.915,39.732
			z"/>
	</g>
	<g>
		
			<linearGradient id="SVGID_19_" gradientUnits="userSpaceOnUse" x1="1076.4775" y1="23.6624" x2="1137.7393" y2="23.6624" gradientTransform="matrix(1 -0.0023 -0.0023 1.135 0.0943 -5.6291)">
			<stop  offset="0" style="stop-color:#008D8B"/>
			<stop  offset="0.5742" style="stop-color:#724391"/>
			<stop  offset="1" style="stop-color:#724391"/>
		</linearGradient>
		<path fill="url(#SVGID_19_)" d="M1076.522,37.492c0,0,28.057-13.157,28.473-37.472c0,0,14.699,36.255,32.793,36.556
			L1076.522,37.492z"/>
		
			<linearGradient id="SVGID_20_" gradientUnits="userSpaceOnUse" x1="1018.9229" y1="25.2161" x2="1080.1787" y2="25.2161" gradientTransform="matrix(1 -0.0023 -0.0023 1.135 0.0943 -5.6291)">
			<stop  offset="0" style="stop-color:#008D8B"/>
			<stop  offset="0.5742" style="stop-color:#724391"/>
			<stop  offset="1" style="stop-color:#724391"/>
		</linearGradient>
		<path fill="url(#SVGID_20_)" d="M1018.962,39.387c0,0,28.059-13.157,28.475-37.473c0,0,14.698,36.246,32.785,36.554
			L1018.962,39.387z"/>
	</g>
	<g>
		
			<linearGradient id="SVGID_21_" gradientUnits="userSpaceOnUse" x1="1190.5166" y1="23.5881" x2="1251.7842" y2="23.5881" gradientTransform="matrix(1 -0.0023 -0.0023 1.135 0.0943 -5.6291)">
			<stop  offset="0" style="stop-color:#008D8B"/>
			<stop  offset="0.5742" style="stop-color:#724391"/>
			<stop  offset="1" style="stop-color:#724391"/>
		</linearGradient>
		<path fill="url(#SVGID_21_)" d="M1190.565,37.151c0,0,28.062-13.154,28.479-37.475c0,0,14.696,36.254,32.792,36.556
			L1190.565,37.151z"/>
		
			<linearGradient id="SVGID_22_" gradientUnits="userSpaceOnUse" x1="1132.9648" y1="25.1409" x2="1194.2275" y2="25.1409" gradientTransform="matrix(1 -0.0023 -0.0023 1.135 0.0943 -5.6291)">
			<stop  offset="0" style="stop-color:#008D8B"/>
			<stop  offset="0.5742" style="stop-color:#724391"/>
			<stop  offset="1" style="stop-color:#724391"/>
		</linearGradient>
		<path fill="url(#SVGID_22_)" d="M1133.009,39.044c0,0,28.062-13.155,28.467-37.475c0,0,14.709,36.249,32.799,36.555
			L1133.009,39.044z"/>
	</g>
	<g>
		
			<linearGradient id="SVGID_23_" gradientUnits="userSpaceOnUse" x1="1304.5605" y1="23.5144" x2="1365.8262" y2="23.5144" gradientTransform="matrix(1 -0.0023 -0.0023 1.135 0.0943 -5.6291)">
			<stop  offset="0" style="stop-color:#008D8B"/>
			<stop  offset="0.5742" style="stop-color:#724391"/>
			<stop  offset="1" style="stop-color:#724391"/>
		</linearGradient>
		<path fill="url(#SVGID_23_)" d="M1304.614,36.806c0,0,28.062-13.151,28.477-37.469c0,0,14.7,36.253,32.793,36.553L1304.614,36.806
			z"/>
		
			<linearGradient id="SVGID_24_" gradientUnits="userSpaceOnUse" x1="1247.0107" y1="25.0667" x2="1308.2656" y2="25.0667" gradientTransform="matrix(1 -0.0023 -0.0023 1.135 0.0943 -5.6291)">
			<stop  offset="0" style="stop-color:#008D8B"/>
			<stop  offset="0.5742" style="stop-color:#724391"/>
			<stop  offset="1" style="stop-color:#724391"/>
		</linearGradient>
		<path fill="url(#SVGID_24_)" d="M1247.059,38.699c0,0,28.056-13.153,28.466-37.472c0,0,14.711,36.251,32.793,36.552
			L1247.059,38.699z"/>
	</g>
	<g>
		
			<linearGradient id="SVGID_25_" gradientUnits="userSpaceOnUse" x1="1409.6426" y1="23.5144" x2="1470.9043" y2="23.5144" gradientTransform="matrix(1 -0.0023 -0.0023 1.135 0.0943 -5.6291)">
			<stop  offset="0" style="stop-color:#008D8B"/>
			<stop  offset="0.5742" style="stop-color:#724391"/>
			<stop  offset="1" style="stop-color:#724391"/>
		</linearGradient>
		<path fill="url(#SVGID_25_)" d="M1409.7,36.568c0,0,28.058-13.151,28.473-37.469c0,0,14.703,36.253,32.793,36.553L1409.7,36.568z"
			/>
		
			<linearGradient id="SVGID_26_" gradientUnits="userSpaceOnUse" x1="1352.0879" y1="25.0667" x2="1413.3486" y2="25.0667" gradientTransform="matrix(1 -0.0023 -0.0023 1.135 0.0943 -5.6291)">
			<stop  offset="0" style="stop-color:#008D8B"/>
			<stop  offset="0.5742" style="stop-color:#724391"/>
			<stop  offset="1" style="stop-color:#724391"/>
		</linearGradient>
		<path fill="url(#SVGID_26_)" d="M1352.14,38.461c0,0,28.062-13.153,28.473-37.472c0,0,14.708,36.251,32.792,36.552L1352.14,38.461
			z"/>
	</g>
	<g>
		
			<linearGradient id="SVGID_27_" gradientUnits="userSpaceOnUse" x1="1519.6084" y1="23.5144" x2="1580.8721" y2="23.5144" gradientTransform="matrix(1 -0.0023 -0.0023 1.135 0.0943 -5.6291)">
			<stop  offset="0" style="stop-color:#008D8B"/>
			<stop  offset="0.5742" style="stop-color:#724391"/>
			<stop  offset="1" style="stop-color:#724391"/>
		</linearGradient>
		<path fill="url(#SVGID_27_)" d="M1519.67,36.319c0,0,28.065-13.151,28.475-37.469c0,0,14.702,36.253,32.793,36.553L1519.67,36.319
			z"/>
		
			<linearGradient id="SVGID_28_" gradientUnits="userSpaceOnUse" x1="1462.0615" y1="25.0667" x2="1523.3174" y2="25.0667" gradientTransform="matrix(1 -0.0023 -0.0023 1.135 0.0943 -5.6291)">
			<stop  offset="0" style="stop-color:#008D8B"/>
			<stop  offset="0.5742" style="stop-color:#724391"/>
			<stop  offset="1" style="stop-color:#724391"/>
		</linearGradient>
		<path fill="url(#SVGID_28_)" d="M1462.117,38.212c0,0,28.057-13.152,28.469-37.472c0,0,14.707,36.251,32.791,36.552
			L1462.117,38.212z"/>
	</g>
</g>
<g>
	<g>
		
			<linearGradient id="SVGID_29_" gradientUnits="userSpaceOnUse" x1="1630.5225" y1="23.8118" x2="1691.7832" y2="23.8118" gradientTransform="matrix(1 -0.0023 -0.0023 1.135 0.0943 -5.6291)">
			<stop  offset="0" style="stop-color:#008D8B"/>
			<stop  offset="0.5742" style="stop-color:#724391"/>
			<stop  offset="1" style="stop-color:#724391"/>
		</linearGradient>
		<path fill="url(#SVGID_29_)" d="M1630.588,36.406c0,0,28.06-13.157,28.469-37.472c0,0,14.704,36.251,32.796,36.549
			L1630.588,36.406z"/>
		
			<linearGradient id="SVGID_30_" gradientUnits="userSpaceOnUse" x1="1572.9697" y1="25.363" x2="1634.2266" y2="25.363" gradientTransform="matrix(1 -0.0023 -0.0023 1.135 0.0943 -5.6291)">
			<stop  offset="0" style="stop-color:#008D8B"/>
			<stop  offset="0.5742" style="stop-color:#724391"/>
			<stop  offset="1" style="stop-color:#724391"/>
		</linearGradient>
		<path fill="url(#SVGID_30_)" d="M1573.029,38.301c0,0,28.057-13.16,28.468-37.479c0,0,14.702,36.255,32.793,36.554
			L1573.029,38.301z"/>
	</g>
	<g>
		
			<linearGradient id="SVGID_31_" gradientUnits="userSpaceOnUse" x1="1744.5635" y1="23.7371" x2="1805.8281" y2="23.7371" gradientTransform="matrix(1 -0.0023 -0.0023 1.135 0.0943 -5.6291)">
			<stop  offset="0" style="stop-color:#008D8B"/>
			<stop  offset="0.5742" style="stop-color:#724391"/>
			<stop  offset="1" style="stop-color:#724391"/>
		</linearGradient>
		<path fill="url(#SVGID_31_)" d="M1744.634,36.064c0,0,28.056-13.16,28.471-37.475c0,0,14.705,36.249,32.798,36.555
			L1744.634,36.064z"/>
		
			<linearGradient id="SVGID_32_" gradientUnits="userSpaceOnUse" x1="1687.0098" y1="25.2913" x2="1748.2686" y2="25.2913" gradientTransform="matrix(1 -0.0023 -0.0023 1.135 0.0943 -5.6291)">
			<stop  offset="0" style="stop-color:#008D8B"/>
			<stop  offset="0.5742" style="stop-color:#724391"/>
			<stop  offset="1" style="stop-color:#724391"/>
		</linearGradient>
		<path fill="url(#SVGID_32_)" d="M1687.074,37.959c0,0,28.062-13.157,28.467-37.477c0,0,14.708,36.251,32.796,36.554
			L1687.074,37.959z"/>
	</g>
	<g>
		
			<linearGradient id="SVGID_33_" gradientUnits="userSpaceOnUse" x1="1858.6064" y1="23.6624" x2="1919.8672" y2="23.6624" gradientTransform="matrix(1 -0.0023 -0.0023 1.135 0.0943 -5.6291)">
			<stop  offset="0" style="stop-color:#008D8B"/>
			<stop  offset="0.5742" style="stop-color:#724391"/>
			<stop  offset="1" style="stop-color:#724391"/>
		</linearGradient>
		<path fill="url(#SVGID_33_)" d="M1858.681,35.72c0,0,28.057-13.157,28.473-37.472c0,0,14.699,36.255,32.792,36.556L1858.681,35.72
			z"/>
		
			<linearGradient id="SVGID_34_" gradientUnits="userSpaceOnUse" x1="1801.0498" y1="25.2161" x2="1862.3076" y2="25.2161" gradientTransform="matrix(1 -0.0023 -0.0023 1.135 0.0943 -5.6291)">
			<stop  offset="0" style="stop-color:#008D8B"/>
			<stop  offset="0.5742" style="stop-color:#724391"/>
			<stop  offset="1" style="stop-color:#724391"/>
		</linearGradient>
		<path fill="url(#SVGID_34_)" d="M1801.119,37.614c0,0,28.06-13.157,28.476-37.473c0,0,14.697,36.246,32.785,36.554
			L1801.119,37.614z"/>
	</g>
</g>
<linearGradient id="SVGID_35_" gradientUnits="userSpaceOnUse" x1="963.5303" y1="618.303" x2="963.5302" y2="-381.697">
	<stop  offset="0" style="stop-color:#008D8B"/>
	<stop  offset="0.5742" style="stop-color:#724391"/>
	<stop  offset="1" style="stop-color:#724391"/>
</linearGradient>
<rect x="0.171" y="31.85" fill="url(#SVGID_35_)" width="1926.717" height="155.756"/>
</svg>
