<?xml version="1.0" encoding="utf-8"?>
<!-- Generator: Adobe Illustrator 18.0.0, SVG Export Plug-In . SVG Version: 6.00 Build 0)  -->
<!DOCTYPE svg PUBLIC "-//W3C//DTD SVG 1.1//EN" "http://www.w3.org/Graphics/SVG/1.1/DTD/svg11.dtd">
<svg version="1.1" id="Layer_1" xmlns="http://www.w3.org/2000/svg" xmlns:xlink="http://www.w3.org/1999/xlink" x="0px" y="0px"
	 viewBox="0 0 612 792" enable-background="new 0 0 612 792" xml:space="preserve">
<image overflow="visible" width="452" height="452" xlink:href="../sponsor_large.png"  transform="matrix(1 0 0 1 80 170)">
</image>
<ellipse fill="#FFFFFF" cx="306" cy="396" rx="175" ry="170.5"/>
<g>
	<rect x="155.6" y="233.8" display="none" fill="#FFFFFF" stroke="#000000" width="293.5" height="293.5"/>
	<g>
		<g>
			
				<linearGradient id="SVGID_1_" gradientUnits="userSpaceOnUse" x1="512.624" y1="319.3815" x2="896.6182" y2="179.6191" gradientTransform="matrix(0.4318 0 0 -0.4318 0 431.9911)">
				<stop  offset="0" style="stop-color:#0675B6"/>
				<stop  offset="0.3948" style="stop-color:#0E71B3"/>
				<stop  offset="0.9945" style="stop-color:#1B67AC"/>
				<stop  offset="1" style="stop-color:#1B67AC"/>
			</linearGradient>
			<polygon fill="url(#SVGID_1_)" points="405.6,277.4 355.6,417.7 199.9,361.5 194.1,369 360,429.2 413.1,279 			"/>
			
				<radialGradient id="SVGID_2_" cx="696.6254" cy="233.4178" r="206.8792" gradientTransform="matrix(0.4303 0 0 -0.4346 1.2627 432.4147)" gradientUnits="userSpaceOnUse">
				<stop  offset="0" style="stop-color:#FFFFFF"/>
				<stop  offset="0.2289" style="stop-color:#F7FAFC"/>
				<stop  offset="0.5774" style="stop-color:#E2EDF3"/>
				<stop  offset="1" style="stop-color:#C0D7E4"/>
			</radialGradient>
			<polygon fill="url(#SVGID_2_)" points="283.8,251.6 202.6,356.4 351.7,410.3 399.4,275.9 			"/>
			<polygon fill="none" stroke="#0373B1" stroke-width="1.4173" stroke-miterlimit="3" points="280.9,245.2 191.6,359.2 
				355.6,417.8 408.1,271.6 			"/>
			<g>
				<g>
					
						<linearGradient id="SVGID_3_" gradientUnits="userSpaceOnUse" x1="571.6666" y1="290.0308" x2="815.811" y2="201.1694" gradientTransform="matrix(0.4318 0 0 -0.4318 6.534 431.9911)">
						<stop  offset="0" style="stop-color:#0675B6"/>
						<stop  offset="0.3948" style="stop-color:#0E71B3"/>
						<stop  offset="0.9945" style="stop-color:#1B67AC"/>
						<stop  offset="1" style="stop-color:#1B67AC"/>
					</linearGradient>
					<path fill="url(#SVGID_3_)" d="M301.8,341.9c-0.1-0.6,0.3-1.6,1.1-2.8c-3.7,1-7.5,1.6-11.3,1.9c-3.8,0.3-7.2,0.1-10.3-0.5
						c-3.4-0.7-6.2-1.9-8.4-3.6c-2.3-1.7-3.5-3.9-3.6-6.5c-0.1-2.6,0.9-5.3,3.2-7.9c2.7-3.3,7-6.2,12.9-8.8c5.8-2.6,11.7-4.3,17.7-5
						c6-0.7,11.1-0.6,15.4,0.3c3.3,0.7,6,1.8,8.2,3.4c2.2,1.6,3.6,3.5,4.1,5.9l5.7-4.3l10.1,2.1l-25.4,18.9
						c-3.5,2.7-5.4,4.1-5.8,4.4c-0.5,0.6-0.5,1.2-0.1,1.7c0.4,0.6,1.2,1,2.3,1.2c2,0.4,5.2,0.4,9.5-0.2c5.7-0.7,11-2.2,15.8-4.5
						s8.5-4.8,11-7.7c2.9-3.4,4-7,3.2-10.6c-0.7-3.6-3.6-7-8.5-10.2c-4.9-3.1-11.2-5.5-19-7.1c-8.9-1.8-17.9-2.4-27.1-1.7
						c-9.2,0.7-17.6,2.8-25.1,6.1c-7.6,3.4-13.4,7.4-17.4,12.2c-4.2,5-5.8,9.8-4.9,14.2c1,4.5,4.6,8.4,10.7,11.7
						c6.2,3.3,13.9,5.9,23.2,7.9c9.9,2.1,19,2.9,27.2,2.5c8.2-0.4,15.1-1.6,20.6-3.5l10.3,2.1c-3.7,1.7-8.9,3.2-15.4,4.5
						c-6.6,1.2-13.6,1.8-21.2,1.8c-7.6-0.1-15.9-1-25-2.9c-8.4-1.8-15.7-4-21.8-6.6c-6.1-2.7-10.7-5.7-13.7-9.1
						c-3-3.4-4.5-6.9-4.5-10.4c0.1-4.5,2-9,5.8-13.5c4.2-5,10.1-9.4,17.7-13.1c9.3-4.6,19.4-7.5,30.4-8.6c11-1.2,22.5-0.5,34.6,2
						c9.4,1.9,16.9,4.8,22.6,8.4c5.7,3.6,9,8,9.9,13c0.7,4.3-0.7,8.6-4.2,12.7c-5,5.9-13.3,10.4-24.9,13.4
						c-10.4,2.7-19.7,3.2-27.8,1.5c-2.6-0.5-4.5-1.2-5.8-2C302.6,343.7,301.9,342.9,301.8,341.9L301.8,341.9z M282.6,325
						c-2.4,2.8-3,5.3-1.9,7.4s3.3,3.5,6.5,4.1c2.1,0.4,4.6,0.6,7.5,0.4c2.9-0.2,6-0.7,9.3-1.7c3.3-0.9,6.5-2.3,9.6-4.1
						c3.1-1.8,5.6-3.7,7.4-5.8c2.3-2.8,2.9-5.3,1.6-7.4c-1.2-2.1-3.7-3.5-7.4-4.3c-2.4-0.5-5-0.6-7.7-0.4c-2.7,0.2-5.7,0.9-8.9,1.9
						c-3.3,1.1-6.4,2.5-9.4,4.4C286.3,321.3,284.1,323.2,282.6,325z"/>
				</g>
				<g>
					<path fill="#1D65AB" d="M301.8,341.9c-0.1-0.6,0.3-1.6,1.1-2.8c-3.7,1-7.5,1.6-11.3,1.9c-3.8,0.3-7.2,0.1-10.3-0.5
						c-3.4-0.7-6.2-1.9-8.4-3.6c-2.3-1.7-3.5-3.9-3.6-6.5c-0.1-2.6,0.9-5.3,3.2-7.9c2.7-3.3,7-6.2,12.9-8.8c5.8-2.6,11.7-4.3,17.7-5
						c6-0.7,11.1-0.6,15.4,0.3c3.3,0.7,6,1.8,8.2,3.4c2.2,1.6,3.6,3.5,4.1,5.9l5.7-4.3l10.1,2.1l-25.4,18.9
						c-3.5,2.7-5.4,4.1-5.8,4.4c-0.5,0.6-0.5,1.2-0.1,1.7c0.4,0.6,1.2,1,2.3,1.2c2,0.4,5.2,0.4,9.5-0.2c5.7-0.7,11-2.2,15.8-4.5
						s8.5-4.8,11-7.7c2.9-3.4,4-7,3.2-10.6c-0.7-3.6-3.6-7-8.5-10.2c-4.9-3.1-11.2-5.5-19-7.1c-8.9-1.8-17.9-2.4-27.1-1.7
						c-9.2,0.7-17.6,2.8-25.1,6.1c-7.6,3.4-13.4,7.4-17.4,12.2c-4.2,5-5.8,9.8-4.9,14.2c1,4.5,4.6,8.4,10.7,11.7
						c6.2,3.3,13.9,5.9,23.2,7.9c9.9,2.1,19,2.9,27.2,2.5c8.2-0.4,15.1-1.6,20.6-3.5l10.3,2.1c-3.7,1.7-8.9,3.2-15.4,4.5
						c-6.6,1.2-13.6,1.8-21.2,1.8c-7.6-0.1-15.9-1-25-2.9c-8.4-1.8-15.7-4-21.8-6.6c-6.1-2.7-10.7-5.7-13.7-9.1
						c-3-3.4-4.5-6.9-4.5-10.4c0.1-4.5,2-9,5.8-13.5c4.2-5,10.1-9.4,17.7-13.1c9.3-4.6,19.4-7.5,30.4-8.6c11-1.2,22.5-0.5,34.6,2
						c9.4,1.9,16.9,4.8,22.6,8.4c5.7,3.6,9,8,9.9,13c0.7,4.3-0.7,8.6-4.2,12.7c-5,5.9-13.3,10.4-24.9,13.4
						c-10.4,2.7-19.7,3.2-27.8,1.5c-2.6-0.5-4.5-1.2-5.8-2C302.6,343.7,301.9,342.9,301.8,341.9L301.8,341.9z M282.6,325
						c-2.4,2.8-3,5.3-1.9,7.4s3.3,3.5,6.5,4.1c2.1,0.4,4.6,0.6,7.5,0.4c2.9-0.2,6-0.7,9.3-1.7c3.3-0.9,6.5-2.3,9.6-4.1
						c3.1-1.8,5.6-3.7,7.4-5.8c2.3-2.8,2.9-5.3,1.6-7.4c-1.2-2.1-3.7-3.5-7.4-4.3c-2.4-0.5-5-0.6-7.7-0.4c-2.7,0.2-5.7,0.9-8.9,1.9
						c-3.3,1.1-6.4,2.5-9.4,4.4C286.3,321.3,284.1,323.2,282.6,325z"/>
				</g>
			</g>
		</g>
		<g>
			<path fill="#1F65AA" d="M209.9,493v-15.4h-4.5v-3.1h12.1v3.1h-4.5V493H209.9z"/>
			<path fill="#1F65AA" d="M219.4,493v-18.5h3.1v7.3h6v-7.3h3.1V493h-3.1v-8.1h-6v8.1H219.4z"/>
			<path fill="#1F65AA" d="M248.5,493h-3.3l-1.3-4.2h-6.1l-1.3,4.2h-3.3l5.9-18.5h3.3L248.5,493z M242.8,485.7l-2.1-6.9l-2.1,6.9
				H242.8z"/>
			<path fill="#1F65AA" d="M250,493v-18.5h3.1V493H250z"/>
			<path fill="#1F65AA" d="M264,493l-3.6-18.5h3.1l2.3,12.7l2.8-12.7h3.6l2.7,12.9l2.3-12.9h3.1l-3.6,18.5h-3.3l-3-13.9l-3,13.9H264
				z"/>
			<path fill="#1F65AA" d="M281.9,493v-18.5h11.3v3.1H285v4.1h7.6v3.1H285v5h8.5v3.1H281.9z"/>
			<path fill="#1F65AA" d="M296,474.5h6.1c1.7,0,2.8,0.1,3.5,0.5c0.7,0.3,1.2,0.8,1.7,1.6c0.5,0.8,0.7,1.6,0.7,2.6
				c0,0.9-0.2,1.7-0.6,2.4c-0.4,0.7-0.9,1.2-1.6,1.6c0.9,0.3,1.6,0.9,2.1,1.6c0.5,0.8,0.8,1.7,0.8,2.8c0,1.3-0.3,2.5-1,3.4
				c-0.6,0.9-1.4,1.5-2.3,1.7c-0.6,0.1-2.1,0.2-4.3,0.2H296L296,474.5L296,474.5z M299.1,477.5v4.3h2c1.2,0,2,0,2.2-0.1
				c0.5-0.1,0.9-0.3,1.2-0.7s0.4-0.8,0.4-1.4c0-0.5-0.1-1-0.4-1.3c-0.2-0.3-0.5-0.6-0.9-0.6c-0.3-0.1-1.3-0.1-2.9-0.1H299.1z
				 M299.1,484.9v4.9h2.8c1.2,0,2.1-0.1,2.4-0.2c0.4-0.1,0.6-0.4,0.9-0.8c0.2-0.4,0.4-0.9,0.4-1.4c0-0.6-0.1-1.1-0.4-1.5
				c-0.2-0.4-0.6-0.7-1-0.8c-0.4-0.1-1.3-0.2-2.6-0.2L299.1,484.9L299.1,484.9z"/>
			<path fill="#1F65AA" d="M311.3,493v-18.5h4.6l2.8,12.7l2.7-12.7h4.6V493h-2.9v-14.6l-3,14.6h-2.9l-3-14.6V493H311.3z"/>
			<path fill="#1F65AA" d="M342.7,493h-3.3l-1.3-4.2H332l-1.3,4.2h-3.3l5.9-18.5h3.3L342.7,493z M337.1,485.7l-2.1-6.9l-2.1,6.9
				H337.1z"/>
			<path fill="#1F65AA" d="M349.8,493.3c-3.7,0-5.8-2.1-6.2-6.4l3-0.4c0.3,2.4,1.4,3.5,3.3,3.5c0.9,0,1.7-0.2,2.2-0.7
				c0.5-0.5,0.8-1.1,0.8-1.8c0-0.4-0.1-0.8-0.3-1.1c-0.2-0.3-0.5-0.5-0.8-0.7c-0.4-0.2-1.3-0.5-2.8-1c-1.3-0.4-2.3-0.8-2.9-1.3
				c-0.6-0.5-1.1-1.1-1.4-1.8c-0.4-0.7-0.5-1.6-0.5-2.4c0-1,0.2-1.9,0.7-2.7c0.5-0.8,1.1-1.4,1.9-1.8c0.8-0.4,1.8-0.6,3-0.6
				c1.8,0,3.2,0.5,4.2,1.4c1,1,1.5,2.4,1.6,4.2l-3.1,0.2c-0.1-1-0.4-1.7-0.9-2.1c-0.5-0.4-1.1-0.6-1.9-0.6s-1.5,0.2-1.9,0.5
				c-0.5,0.4-0.7,0.8-0.7,1.3c0,0.5,0.2,0.9,0.6,1.3c0.4,0.4,1.3,0.7,2.8,1.1c1.5,0.5,2.7,0.9,3.3,1.4c0.7,0.5,1.2,1.1,1.6,1.9
				c0.4,0.8,0.5,1.7,0.5,2.8c0,1.6-0.5,3-1.5,4.1C353.5,492.7,351.9,493.3,349.8,493.3L349.8,493.3z"/>
			<path fill="#1F65AA" d="M361.9,493v-15.4h-4.5v-3.1h12.1v3.1H365V493H361.9z"/>
			<path fill="#1F65AA" d="M371.5,493v-18.5h11.3v3.1h-8.2v4.1h7.6v3.1h-7.6v5h8.5v3.1H371.5z"/>
			<path fill="#1F65AA" d="M385.7,493v-18.5h6.5c1.7,0,2.8,0.2,3.5,0.5c0.7,0.3,1.3,0.9,1.7,1.7c0.5,0.8,0.7,1.8,0.7,2.9
				c0,1.4-0.4,2.6-1,3.5s-1.7,1.4-3,1.7c0.7,0.5,1.2,1,1.6,1.6s1,1.6,1.8,3l1.8,3.6h-3.7l-2.2-4c-0.8-1.4-1.3-2.4-1.6-2.7
				c-0.3-0.4-0.6-0.6-0.9-0.8c-0.3-0.1-0.8-0.2-1.5-0.2h-0.6v7.7H385.7L385.7,493z M388.7,482.3h2.3c1.4,0,2.3-0.1,2.7-0.2
				c0.4-0.1,0.7-0.4,0.9-0.7c0.2-0.4,0.4-0.9,0.4-1.5c0-0.6-0.1-1.1-0.4-1.4c-0.2-0.4-0.6-0.6-1-0.7c-0.3-0.1-1.1-0.1-2.5-0.1h-2.4
				L388.7,482.3L388.7,482.3z"/>
		</g>
		<g>
			<path fill="#1F65AA" d="M206.1,515.6l5.8-18.5h2.2l6.2,18.5H218l-1.8-5.6h-6.4l-1.6,5.6H206.1z M210.4,508h5.2l-1.6-5.1
				c-0.5-1.6-0.8-2.9-1.1-3.9c-0.2,1.2-0.5,2.4-0.8,3.5L210.4,508z"/>
			<path fill="#1F65AA" d="M226.3,509.6l1.9-0.2c0.1,1,0.3,1.8,0.7,2.4c0.4,0.6,0.9,1,1.5,1.4c0.7,0.4,1.4,0.5,2.2,0.5
				c1.2,0,2.1-0.3,2.8-0.9s1-1.3,1-2.3c0-0.5-0.1-1-0.4-1.4c-0.2-0.4-0.6-0.7-1.1-1c-0.5-0.2-1.5-0.6-3.1-1.1
				c-1.4-0.4-2.4-0.8-3.1-1.3c-0.6-0.4-1.1-1-1.4-1.6c-0.3-0.7-0.5-1.4-0.5-2.2c0-1.5,0.5-2.7,1.4-3.7c1-1,2.3-1.4,3.9-1.4
				c1.1,0,2.1,0.2,3,0.7c0.8,0.5,1.5,1.1,2,1.9c0.5,0.8,0.7,1.8,0.7,2.9l-1.9,0.2c-0.1-1.2-0.5-2.1-1.1-2.7
				c-0.6-0.6-1.5-0.9-2.6-0.9c-1.1,0-2,0.2-2.6,0.8c-0.6,0.5-0.9,1.2-0.9,2c0,0.7,0.2,1.3,0.7,1.7c0.4,0.4,1.4,0.8,3,1.2
				c1.5,0.4,2.5,0.8,3.1,1.1c0.9,0.5,1.6,1.1,2.1,1.9c0.5,0.8,0.7,1.7,0.7,2.8s-0.2,2-0.7,2.9s-1.2,1.5-2,2
				c-0.8,0.5-1.9,0.7-3.1,0.7c-1.9,0-3.4-0.6-4.5-1.7C226.9,513,226.4,511.5,226.3,509.6z"/>
			<path fill="#1F65AA" d="M245.5,509.6l1.9-0.2c0.1,1,0.3,1.8,0.7,2.4c0.4,0.6,0.9,1,1.5,1.4c0.7,0.4,1.4,0.5,2.2,0.5
				c1.2,0,2.1-0.3,2.8-0.9c0.7-0.6,1-1.3,1-2.3c0-0.5-0.1-1-0.4-1.4c-0.2-0.4-0.6-0.7-1.1-1c-0.5-0.2-1.5-0.6-3.1-1.1
				c-1.4-0.4-2.4-0.8-3.1-1.3c-0.6-0.4-1.1-1-1.4-1.6c-0.3-0.7-0.5-1.4-0.5-2.2c0-1.5,0.5-2.7,1.4-3.7c1-1,2.3-1.4,3.9-1.4
				c1.1,0,2.1,0.2,3,0.7c0.8,0.5,1.5,1.1,2,1.9c0.5,0.8,0.7,1.8,0.7,2.9l-1.9,0.2c-0.1-1.2-0.5-2.1-1.1-2.7
				c-0.6-0.6-1.5-0.9-2.6-0.9c-1.1,0-2,0.2-2.6,0.8c-0.6,0.5-0.9,1.2-0.9,2c0,0.7,0.2,1.3,0.7,1.7s1.4,0.8,3,1.2
				c1.5,0.4,2.5,0.8,3.1,1.1c0.9,0.5,1.6,1.1,2.1,1.9c0.5,0.8,0.7,1.7,0.7,2.8s-0.2,2-0.7,2.9s-1.2,1.5-2,2
				c-0.8,0.5-1.9,0.7-3.1,0.7c-1.9,0-3.4-0.6-4.5-1.7C246.2,513,245.6,511.5,245.5,509.6z"/>
			<path fill="#1F65AA" d="M266.7,513c-1.2-1.8-1.9-3.9-1.9-6.4c0-3.1,0.7-5.6,2.1-7.3c1.4-1.7,3.1-2.5,5.2-2.5
				c1.3,0,2.6,0.4,3.7,1.1c1.1,0.8,2,1.9,2.6,3.3c0.6,1.4,1,3.2,1,5.2c0,2.7-0.6,5-1.9,6.7c-1.4,1.9-3.2,2.9-5.4,2.9
				C269.9,515.9,268.1,514.9,266.7,513L266.7,513z M267,506.6c0,2.3,0.5,4,1.5,5.3c1,1.3,2.2,1.9,3.7,1.9c1.5,0,2.7-0.6,3.7-1.9
				c1-1.3,1.5-3.1,1.5-5.6c0-1.6-0.2-3-0.8-4.3c-0.4-1-1-1.7-1.8-2.3c-0.8-0.6-1.7-0.9-2.6-0.9c-1.5,0-2.8,0.6-3.7,1.9
				C267.4,502,267,503.9,267,506.6z"/>
			<path fill="#1F65AA" d="M297.8,509.1l2,0.6c-0.5,2.1-1.2,3.6-2.3,4.7c-1.1,1-2.5,1.5-4.1,1.5c-1.4,0-2.6-0.4-3.6-1
				s-1.8-1.8-2.4-3.3c-0.6-1.5-1-3.3-1-5.4c0-2,0.3-3.8,1-5.2c0.6-1.4,1.5-2.5,2.6-3.2c1.1-0.7,2.3-1.1,3.6-1.1
				c1.5,0,2.7,0.5,3.8,1.4c1.1,0.9,1.8,2.2,2.2,4l-2,0.6c-0.7-2.5-2-3.8-4.1-3.8c-1,0-1.9,0.2-2.6,0.8c-0.7,0.5-1.3,1.3-1.8,2.4
				c-0.4,1.1-0.7,2.5-0.7,4.1c0,2.5,0.5,4.4,1.3,5.7c0.9,1.3,2.1,1.9,3.6,1.9c1.1,0,2.1-0.4,2.8-1.2
				C297,511.8,297.6,510.7,297.8,509.1z"/>
			<path fill="#1F65AA" d="M307.8,515.6v-18.5h2v18.5L307.8,515.6L307.8,515.6z"/>
			<path fill="#1F65AA" d="M316.7,515.6l5.8-18.5h2.2l6.2,18.5h-2.3l-1.8-5.6h-6.4l-1.6,5.6H316.7z M321.1,508h5.2l-1.6-5.1
				c-0.5-1.6-0.8-2.9-1.1-3.9c-0.2,1.2-0.5,2.4-0.8,3.5L321.1,508z"/>
			<path fill="#1F65AA" d="M340,515.6v-16.3h-5v-2.2H347v2.2h-5v16.3L340,515.6L340,515.6z"/>
			<path fill="#1F65AA" d="M354.5,515.6v-18.5h2v18.5L354.5,515.6L354.5,515.6z"/>
			<path fill="#1F65AA" d="M366.4,513c-1.2-1.8-1.9-3.9-1.9-6.4c0-3.1,0.7-5.6,2.1-7.3c1.4-1.7,3.1-2.5,5.2-2.5
				c1.3,0,2.6,0.4,3.7,1.1c1.1,0.8,2,1.9,2.6,3.3c0.6,1.4,1,3.2,1,5.2c0,2.7-0.6,5-1.9,6.7c-1.4,1.9-3.2,2.9-5.4,2.9
				C369.5,515.9,367.7,514.9,366.4,513L366.4,513z M366.6,506.6c0,2.3,0.5,4,1.5,5.3c1,1.3,2.2,1.9,3.7,1.9c1.5,0,2.7-0.6,3.7-1.9
				c1-1.3,1.5-3.1,1.5-5.6c0-1.6-0.2-3-0.8-4.3c-0.4-1-1-1.7-1.8-2.3c-0.8-0.6-1.7-0.9-2.6-0.9c-1.5,0-2.8,0.6-3.7,1.9
				C367.1,502,366.6,503.9,366.6,506.6z"/>
			<path fill="#1F65AA" d="M386.6,515.6v-18.5h2.1l8,14.6v-14.6h1.9v18.5h-2.1l-8-14.6v14.6L386.6,515.6L386.6,515.6z"/>
		</g>
		<g>
			<path fill="#1F65AA" d="M219.1,450c-0.3,0.4-0.6,0.7-1.1,1.1c-0.5,0.2-1,0.4-1.5,0.5c0.7,0.6,1.1,1.4,1.1,2.4v9.7h-1.8l-3.4-7.2
				c-0.1-0.3-0.4-0.5-0.7-0.7c-0.2-0.1-0.4-0.2-0.7-0.2c-0.1,0-0.2,0-0.3,0c-0.8,0.1-1.2,0.6-1.2,1.5v2.5c0.1,0,0.2-0.1,0.3-0.1
				c0.1,0,0.3,0,0.6-0.1c0.6,0,1.2,0.2,1.6,0.6c0.4,0.4,0.7,0.9,0.7,1.6c0,0.3-0.1,0.6-0.2,0.8c-0.1,0.2-0.3,0.5-0.5,0.8
				c-0.4,0.4-1,0.7-1.6,0.7c-0.8,0-1.4-0.2-1.8-0.7c-0.4-0.5-0.7-1.1-0.7-1.7v-4.6c0-0.7,0.2-1.2,0.7-1.7c0.4-0.4,0.9-0.7,1.4-0.8
				c0.2,0,0.4-0.1,0.7-0.1c0.3,0,0.5-0.1,0.6-0.1c0.3,0,0.6,0,0.9,0.1s0.5,0.1,0.8,0.3c0.5,0.2,0.8,0.6,1,1.1l2,4.4v-5.8
				c0-0.7-0.3-1.4-1-1.9c-0.7-0.5-1.4-0.8-2.4-0.8c-1.9,0-3.1,0.7-3.8,2.2h-1.8c0.3-1.1,1-2,2-2.7c0.5-0.3,1.1-0.5,1.7-0.7
				c0.6-0.2,1.2-0.2,2-0.2c0.3,0,0.5,0,0.8,0c0.2,0,0.5,0.1,0.8,0.1c0.2,0,0.3,0.1,0.5,0.1c0.2,0.1,0.4,0.1,0.6,0.2
				c0.1,0,0.2,0,0.3,0c0.3,0,0.6-0.1,1-0.4c0.4-0.4,0.8-0.8,1.1-1.3L219.1,450z M211.2,461.6c0-0.2-0.1-0.4-0.3-0.6
				c-0.2-0.2-0.4-0.3-0.7-0.3c-0.3,0-0.5,0.1-0.7,0.3c-0.1,0.1-0.2,0.4-0.3,0.6c0,0.1,0,0.3,0.1,0.4c0,0.1,0.1,0.2,0.2,0.3
				c0.1,0.1,0.2,0.1,0.3,0.2c0.1,0,0.2,0.1,0.4,0.1c0.2,0,0.3,0,0.4,0c0.1,0,0.2-0.1,0.3-0.2C211.1,462,211.2,461.8,211.2,461.6z"/>
			<path fill="#1F65AA" d="M232.4,461.8c0,1.2-0.5,1.8-1.6,1.8h-0.6c-0.3-0.8-0.8-1.6-1.7-2.4c-0.4-0.4-0.9-0.8-1.4-1
				c-0.5-0.3-1-0.5-1.4-0.6v2c0,0.6-0.2,1.1-0.6,1.5c-0.4,0.4-0.9,0.6-1.6,0.6c-0.7,0-1.3-0.2-1.8-0.7c-0.5-0.5-0.7-1.2-0.7-2
				c0-0.7,0.3-1.4,1-2c0.3-0.3,0.7-0.5,1-0.6c0.4-0.1,0.8-0.2,1.2-0.2v-3.6c-0.1,0-0.2,0.1-0.3,0.1c-0.1,0-0.3,0-0.6,0.1
				c-0.6,0-1.2-0.2-1.7-0.6c-0.2-0.2-0.4-0.4-0.5-0.7c-0.1-0.2-0.2-0.5-0.2-0.9c0-0.6,0.2-1.1,0.7-1.6c0.4-0.5,1-0.7,1.7-0.7
				c0.7,0,1.3,0.2,1.8,0.7c0.5,0.4,0.7,1,0.7,1.7v5.6c0.4,0,0.8,0.1,1.2,0.3c0.4,0.2,0.9,0.4,1.4,0.7c1,0.6,1.7,1.3,2.3,2.1v-10.9
				h1.7L232.4,461.8L232.4,461.8z M224.2,452.6c0-0.2-0.1-0.5-0.3-0.6c-0.2-0.2-0.4-0.3-0.7-0.3s-0.5,0.1-0.7,0.3
				c-0.2,0.1-0.2,0.4-0.3,0.6c0,0.1,0,0.3,0.1,0.4c0,0.1,0.1,0.2,0.2,0.3c0.1,0.1,0.2,0.1,0.3,0.2c0.1,0,0.2,0.1,0.4,0.1
				c0.3,0,0.5-0.1,0.7-0.3C224.1,453.1,224.2,452.9,224.2,452.6z M224.1,461.4v-1.8c-0.5,0-0.8,0.1-1.1,0.4c-0.3,0.3-0.4,0.6-0.4,1
				c0,0.4,0.1,0.6,0.2,0.9c0.1,0.2,0.4,0.4,0.7,0.4C223.9,462.3,224.1,462,224.1,461.4z"/>
			<path fill="#1F65AA" d="M243.7,463.6H242v-9.4c0-0.8-0.2-1.4-0.7-2c-0.5-0.5-1.2-0.7-2-0.7c-0.7,0-1.4,0.2-1.8,0.6
				c-0.5,0.4-0.9,0.9-1.2,1.7h-1.8c0.3-1.1,0.8-1.9,1.7-2.6c0.8-0.7,1.9-1,3.1-1c1.3,0,2.3,0.3,3.2,1c0.8,0.7,1.2,1.6,1.2,2.7V463.6
				z"/>
			<path fill="#1F65AA" d="M257.5,463.6h-1.7v-8.6c0-0.9-0.3-1.7-0.9-2.4c-0.7-0.7-1.6-1.1-2.7-1.1c-1.1,0-2,0.3-2.7,1
				s-1.1,1.4-1.1,2.3c0,0.3,0,0.6,0,0.9c0,0.3,0.1,0.6,0.1,1l0.4,2.1v0.8v0.3c0,0.2,0,0.3,0,0.5c0,0.2,0,0.3,0,0.4l0.3-2
				c0.1-0.7,0.3-1.4,0.5-2c0.2-0.6,0.4-1.1,0.7-1.7c0.5-1,1.2-1.5,2.3-1.5c0.6,0,1.1,0.2,1.6,0.6s0.7,1,0.7,1.6
				c0,0.6-0.2,1.1-0.7,1.6c-0.4,0.4-1,0.6-1.7,0.6c-0.6,0-1.1-0.2-1.5-0.5c-0.2,0.6-0.5,1.5-0.9,2.9c-0.1,0.6-0.3,1.1-0.4,1.7
				c-0.1,0.5-0.2,1.1-0.4,1.6h-1.8v-2.1c0-0.9-0.2-2.3-0.6-4.2c-0.1-0.5-0.2-1-0.2-1.4c-0.1-0.5-0.1-0.8-0.1-1.1
				c0-1.2,0.5-2.3,1.5-3.2c1.1-1,2.5-1.4,4.1-1.4c1.6,0,2.8,0.4,3.8,1.3c1,0.9,1.4,1.9,1.4,3.2L257.5,463.6L257.5,463.6z
				 M253.6,455.8c0-0.2-0.1-0.5-0.3-0.7c-0.2-0.2-0.4-0.3-0.7-0.3c-0.3,0-0.5,0.1-0.7,0.3c-0.1,0.1-0.2,0.4-0.3,0.7
				c0,0.3,0.1,0.5,0.3,0.7c0.1,0.1,0.2,0.1,0.4,0.2c0.2,0,0.3,0.1,0.3,0.1c0.2,0,0.3,0,0.4,0c0.1,0,0.2-0.1,0.3-0.2
				C253.5,456.3,253.6,456.1,253.6,455.8z"/>
			<path fill="#1F65AA" d="M271.7,461.8c0,1.2-0.5,1.8-1.6,1.8h-0.6c-0.3-0.8-0.8-1.6-1.7-2.4c-0.4-0.4-0.9-0.8-1.4-1
				c-0.5-0.3-1-0.5-1.4-0.6v2c0,0.6-0.2,1.1-0.6,1.5c-0.4,0.4-0.9,0.6-1.6,0.6c-0.7,0-1.3-0.2-1.8-0.7c-0.5-0.5-0.7-1.2-0.7-2
				c0-0.7,0.3-1.4,1-2c0.3-0.3,0.7-0.5,1-0.6c0.4-0.1,0.8-0.2,1.2-0.2v-3.6c-0.1,0-0.2,0.1-0.3,0.1c-0.1,0-0.3,0-0.6,0.1
				c-0.6,0-1.2-0.2-1.7-0.6c-0.2-0.2-0.4-0.4-0.5-0.7s-0.2-0.5-0.2-0.9c0-0.6,0.2-1.1,0.7-1.6c0.4-0.5,1-0.7,1.7-0.7
				c0.7,0,1.3,0.2,1.8,0.7c0.5,0.4,0.7,1,0.7,1.7v5.6c0.4,0,0.8,0.1,1.2,0.3c0.4,0.2,0.9,0.4,1.4,0.7c1,0.6,1.7,1.3,2.3,2.1v-10.9
				h1.7L271.7,461.8L271.7,461.8z M263.5,452.6c0-0.2-0.1-0.5-0.3-0.6s-0.4-0.3-0.7-0.3s-0.5,0.1-0.7,0.3c-0.1,0.1-0.2,0.4-0.3,0.6
				c0,0.1,0,0.3,0.1,0.4c0,0.1,0.1,0.2,0.2,0.3c0.1,0.1,0.2,0.1,0.3,0.2s0.2,0.1,0.4,0.1c0.3,0,0.5-0.1,0.7-0.3
				C263.4,453.1,263.5,452.9,263.5,452.6z M263.4,461.4v-1.8c-0.5,0-0.8,0.1-1.1,0.4c-0.3,0.3-0.4,0.6-0.4,1c0,0.4,0.1,0.6,0.2,0.9
				c0.1,0.2,0.4,0.4,0.7,0.4C263.2,462.3,263.4,462,263.4,461.4z"/>
			<path fill="#1F65AA" d="M285.3,461.6c0,0.7-0.1,1.3-0.5,1.6c-0.3,0.3-0.7,0.5-1.2,0.5H283l-2.8-6.1l-2.8,6.1h-2.3v-10.9
				c0-0.7,0.2-1.3,0.7-1.7c0.4-0.4,1.1-0.7,1.8-0.7c0.7,0,1.2,0.2,1.7,0.7c0.5,0.4,0.7,0.9,0.7,1.6c0,0.6-0.2,1.1-0.7,1.5
				c-0.4,0.4-1,0.6-1.6,0.6c-0.2,0-0.4,0-0.5,0c-0.1,0-0.2,0-0.3-0.1v6.6l2.8-5.8h1.2l2.7,5.8v-10.8h1.7V461.6z M278.7,452.6
				c0-0.2-0.1-0.5-0.3-0.6c-0.2-0.2-0.4-0.3-0.7-0.3c-0.3,0-0.5,0.1-0.7,0.3c-0.1,0.1-0.2,0.4-0.3,0.6c0,0.1,0,0.3,0.1,0.4
				s0.1,0.2,0.2,0.3c0.1,0.1,0.2,0.1,0.4,0.2c0.2,0,0.3,0.1,0.3,0.1c0.2,0,0.3,0,0.4,0c0.1,0,0.2-0.1,0.3-0.2
				C278.6,453.1,278.7,452.9,278.7,452.6z"/>
			<path fill="#1F65AA" d="M285.3,469.4c0,0.8-0.2,1.5-0.6,1.9c-0.4,0.4-1.1,0.6-2,0.6h-4.2v-1.2c0.5,0,0.8-0.1,1-0.2
				c0.2-0.1,0.2-0.4,0.2-0.8V469l-0.7,0.1c-0.6,0-1.2-0.2-1.6-0.6c-0.4-0.4-0.6-0.9-0.6-1.5c0-0.6,0.2-1.1,0.6-1.5
				c0.4-0.4,0.9-0.6,1.6-0.6c0.7,0,1.3,0.2,1.7,0.6c0.5,0.4,0.7,0.9,0.7,1.6v3.5h0.6c0.6,0,1-0.1,1.2-0.3c0.1-0.1,0.1-0.3,0.2-0.5
				c0-0.2,0.1-0.4,0.1-0.7v-4.1l1.7,0L285.3,469.4L285.3,469.4z M280.1,467c0-0.2-0.1-0.5-0.2-0.6c-0.2-0.2-0.4-0.2-0.7-0.3
				c-0.3,0-0.5,0.1-0.6,0.2c-0.2,0.2-0.3,0.4-0.3,0.7c0,0.2,0.1,0.5,0.3,0.6c0.1,0.1,0.4,0.2,0.7,0.3c0.3,0,0.5-0.1,0.6-0.2
				C279.9,467.5,280,467.3,280.1,467z"/>
			<path fill="#1F65AA" d="M287.9,443.6c-0.1,1.4-0.8,2.5-1.9,3.3c-0.5,0.3-1,0.6-1.6,0.7c-0.6,0.2-1.2,0.3-1.9,0.3
				c-0.6,0-1.1-0.1-1.7-0.2c0.3-0.2,0.6-0.4,0.8-0.6c0.2-0.2,0.4-0.5,0.5-0.8l-0.4,0c-0.5,0-1-0.2-1.4-0.5c-0.2-0.2-0.3-0.4-0.4-0.6
				c-0.1-0.2-0.1-0.5-0.1-0.7c0-0.5,0.2-0.9,0.5-1.3c0.2-0.2,0.4-0.3,0.6-0.4c0.2-0.1,0.5-0.1,0.7-0.1c0.6,0,1.1,0.2,1.5,0.6
				s0.6,0.8,0.6,1.4c0,0.4,0,0.8-0.1,1.1c-0.1,0.3-0.1,0.5-0.2,0.6c0,0.1-0.1,0.3-0.3,0.5c0.5,0,0.8-0.1,1.2-0.3
				c0.4-0.2,0.7-0.4,1.1-0.8c0.6-0.6,0.9-1.3,0.9-2L287.9,443.6L287.9,443.6z M282.4,444.5c0-0.5-0.3-0.8-0.8-0.8
				c-0.6,0-0.9,0.3-0.9,0.8c0,0.5,0.3,0.8,0.9,0.8C282.1,445.3,282.4,445,282.4,444.5z"/>
			<path fill="#1F65AA" d="M299,463.6h-1.7v-8.6c0-1-0.3-1.8-0.8-2.4c-0.6-0.7-1.5-1.1-2.7-1.1c-1.1,0-1.9,0.3-2.7,0.9
				c-0.7,0.6-1.1,1.2-1.2,1.7l-0.1,1.2c0,0.4,0,0.8,0.1,1.3c0.1,0.5,0.2,1.1,0.4,1.8c0.3,1.4,0.5,2.3,0.5,2.7
				c0.1-0.1,0.2-0.3,0.2-0.4s0.2-0.3,0.3-0.5c0.1-0.1,0.2-0.3,0.3-0.4c0.1-0.2,0.3-0.4,0.5-0.6l1.1-1.3c-0.5-0.1-0.9-0.4-1.3-0.8
				c-0.3-0.4-0.5-0.9-0.5-1.4c0-0.6,0.2-1.1,0.7-1.6c0.5-0.4,1-0.7,1.7-0.7c0.6,0,1.2,0.2,1.6,0.7c0.2,0.2,0.4,0.4,0.5,0.7
				c0.1,0.3,0.2,0.6,0.2,0.9c0,0.5-0.1,0.8-0.2,1.1c-0.1,0.2-0.2,0.3-0.3,0.5c-0.1,0.2-0.2,0.3-0.4,0.5l-2,2.4
				c-0.4,0.6-0.9,1.2-1.3,1.8c-0.4,0.6-0.7,1.2-0.9,1.6h-1.9v-1.9c0-0.5,0-0.9-0.1-1.4c-0.1-0.5-0.2-1.2-0.4-1.9
				c-0.2-0.8-0.3-1.4-0.4-2c-0.1-0.5-0.1-1-0.1-1.5c0-1.3,0.5-2.4,1.5-3.3c1-0.9,2.4-1.3,4.1-1.3c1.6,0,2.8,0.4,3.8,1.3
				c1,0.9,1.4,1.9,1.4,3.2L299,463.6L299,463.6z M294.9,455.8c0-0.2-0.1-0.5-0.3-0.7c-0.2-0.2-0.4-0.3-0.7-0.3s-0.5,0.1-0.7,0.3
				c-0.2,0.1-0.2,0.4-0.3,0.7c0,0.1,0,0.3,0.1,0.4s0.1,0.2,0.2,0.3c0.1,0.1,0.2,0.1,0.3,0.2c0.1,0,0.2,0.1,0.4,0.1
				c0.3,0,0.5-0.1,0.7-0.2C294.8,456.3,294.9,456.1,294.9,455.8z"/>
			<path fill="#1F65AA" d="M299.1,469.4c0,0.8-0.2,1.5-0.6,1.9c-0.4,0.4-1.1,0.6-2,0.6h-4.2v-1.2c0.5,0,0.8-0.1,1-0.2
				c0.2-0.1,0.2-0.4,0.2-0.8V469l-0.7,0.1c-0.6,0-1.2-0.2-1.6-0.6c-0.4-0.4-0.6-0.9-0.6-1.5c0-0.6,0.2-1.1,0.6-1.5
				c0.4-0.4,0.9-0.6,1.6-0.6c0.7,0,1.3,0.2,1.7,0.6c0.5,0.4,0.7,0.9,0.7,1.6v3.5h0.6c0.6,0,1-0.1,1.2-0.3c0.1-0.1,0.1-0.3,0.2-0.5
				c0-0.2,0.1-0.4,0.1-0.7v-4.1l1.7,0L299.1,469.4L299.1,469.4z M293.8,467c0-0.2-0.1-0.5-0.2-0.6s-0.4-0.2-0.7-0.3
				c-0.3,0-0.5,0.1-0.6,0.2c-0.2,0.2-0.3,0.4-0.3,0.7c0,0.2,0.1,0.5,0.3,0.6c0.1,0.1,0.4,0.2,0.7,0.3c0.3,0,0.5-0.1,0.6-0.2
				C293.7,467.5,293.7,467.3,293.8,467z"/>
			<path fill="#1F65AA" d="M307.9,461.6c0,0.3-0.1,0.6-0.2,0.8c-0.1,0.2-0.3,0.5-0.5,0.7c-0.4,0.4-1,0.7-1.7,0.7
				c-0.8,0-1.4-0.2-1.8-0.7c-0.4-0.5-0.7-1.1-0.7-1.7v-10.9h1.7v9c0.1-0.1,0.4-0.1,0.8-0.1c0.6,0,1.1,0.2,1.6,0.6
				C307.6,460.4,307.9,460.9,307.9,461.6z M306.6,461.5c0-0.2-0.1-0.5-0.3-0.6c-0.2-0.2-0.4-0.3-0.7-0.3c-0.3,0-0.5,0.1-0.7,0.3
				c-0.2,0.1-0.2,0.4-0.3,0.6c0,0.1,0,0.3,0.1,0.4s0.1,0.2,0.2,0.3c0.1,0.1,0.2,0.1,0.3,0.2s0.2,0.1,0.4,0.1c0.3,0,0.5-0.1,0.7-0.3
				C306.5,462,306.6,461.8,306.6,461.5z M314.5,461.6c0,0.3-0.1,0.6-0.2,0.8s-0.3,0.5-0.5,0.7c-0.4,0.4-1,0.7-1.7,0.7
				c-0.8,0-1.4-0.2-1.8-0.7c-0.2-0.2-0.4-0.5-0.5-0.8c-0.1-0.3-0.2-0.6-0.2-1v-10.9h1.7v9c0.1-0.1,0.4-0.1,0.8-0.1
				c0.6,0,1.1,0.2,1.6,0.6C314.2,460.4,314.5,460.9,314.5,461.6z M313.2,461.5c0-0.2-0.1-0.5-0.3-0.6c-0.2-0.2-0.4-0.3-0.7-0.3
				c-0.3,0-0.5,0.1-0.7,0.3c-0.2,0.1-0.2,0.4-0.3,0.6c0,0.1,0,0.3,0.1,0.4c0,0.1,0.1,0.2,0.2,0.3c0.1,0.1,0.2,0.1,0.3,0.2
				s0.2,0.1,0.4,0.1c0.3,0,0.5-0.1,0.7-0.3C313.1,462,313.2,461.8,313.2,461.5z"/>
			<path fill="#1F65AA" d="M326.9,463.6h-1.8l-3.4-7.2c-0.1-0.3-0.4-0.5-0.7-0.7c-0.2-0.1-0.4-0.2-0.7-0.2c-0.1,0-0.2,0-0.3,0
				c-0.8,0.1-1.2,0.6-1.2,1.5v2.5c0.1,0,0.2-0.1,0.3-0.1c0.1,0,0.3,0,0.6-0.1c0.6,0,1.2,0.2,1.6,0.6c0.4,0.4,0.7,0.9,0.7,1.6
				c0,0.3,0,0.6-0.2,0.8c-0.1,0.2-0.3,0.5-0.5,0.7c-0.4,0.4-1,0.7-1.6,0.7c-0.8,0-1.4-0.2-1.8-0.7c-0.4-0.5-0.7-1.1-0.7-1.7v-4.6
				c0-0.7,0.2-1.2,0.7-1.7c0.4-0.4,0.9-0.7,1.4-0.8c0.2,0,0.4-0.1,0.7-0.1c0.3,0,0.5-0.1,0.6-0.1c0.3,0,0.6,0,0.9,0.1
				c0.3,0.1,0.5,0.1,0.8,0.3c0.5,0.2,0.8,0.6,1,1.1l2,4.4v-5.8c0-0.7-0.3-1.4-1-1.9c-0.7-0.5-1.4-0.8-2.4-0.8
				c-1.9,0-3.1,0.7-3.8,2.2h-1.8c0.3-1.1,1-2,2-2.7c0.5-0.3,1.1-0.5,1.7-0.7c0.6-0.2,1.2-0.2,2-0.2c1.4,0,2.6,0.3,3.6,1
				c1,0.7,1.4,1.6,1.4,2.7L326.9,463.6L326.9,463.6z M320.6,461.5c0-0.2-0.1-0.5-0.3-0.6c-0.2-0.2-0.4-0.3-0.7-0.3
				c-0.2,0-0.5,0.1-0.7,0.3c-0.1,0.1-0.2,0.4-0.3,0.6c0,0.1,0,0.3,0.1,0.4c0,0.1,0.1,0.2,0.2,0.3c0.1,0.1,0.2,0.1,0.3,0.2
				s0.2,0.1,0.4,0.1c0.2,0,0.3,0,0.4-0.1c0.1,0,0.2-0.1,0.3-0.2C320.5,462,320.6,461.8,320.6,461.5z"/>
			<path fill="#1F65AA" d="M335.7,461.6c0,0.3-0.1,0.6-0.2,0.8c-0.1,0.2-0.3,0.5-0.5,0.7c-0.4,0.4-1,0.7-1.7,0.7
				c-0.8,0-1.4-0.2-1.8-0.7c-0.4-0.5-0.7-1.1-0.7-1.7v-10.9h1.7v9c0.1-0.1,0.4-0.1,0.8-0.1c0.6,0,1.1,0.2,1.6,0.6
				C335.5,460.4,335.7,460.9,335.7,461.6z M334.4,461.5c0-0.2-0.1-0.5-0.3-0.6c-0.2-0.2-0.4-0.3-0.7-0.3c-0.3,0-0.5,0.1-0.7,0.3
				c-0.2,0.1-0.3,0.4-0.3,0.6c0,0.1,0,0.3,0.1,0.4c0,0.1,0.1,0.2,0.2,0.3c0.1,0.1,0.2,0.1,0.3,0.2s0.2,0.1,0.4,0.1
				c0.3,0,0.5-0.1,0.7-0.3C334.3,462,334.4,461.8,334.4,461.5z"/>
			<path fill="#1F65AA" d="M347,461.4c0,0.7-0.2,1.3-0.7,1.7c-0.4,0.4-1.1,0.7-1.8,0.7c-0.7,0-1.2-0.2-1.7-0.7
				c-0.4-0.5-0.7-1-0.7-1.6c0-0.6,0.2-1.1,0.7-1.5c0.5-0.4,1-0.6,1.6-0.6c0.2,0,0.4,0,0.5,0c0.1,0,0.2,0,0.3,0.1v-5.3
				c0-0.8-0.3-1.4-0.9-1.9c-0.6-0.5-1.4-0.8-2.3-0.8c-0.8,0-1.5,0.2-2.3,0.6c-0.6,0.4-1.1,1-1.3,1.7h-1.8c0.4-1.2,1.1-2,2-2.7
				c0.5-0.3,1-0.5,1.6-0.7c0.6-0.2,1.2-0.2,1.9-0.2c1.4,0,2.5,0.3,3.4,1c0.9,0.7,1.4,1.6,1.4,2.7L347,461.4L347,461.4z M345.5,461.5
				c0-0.2-0.1-0.5-0.3-0.6c-0.2-0.2-0.4-0.3-0.7-0.3c-0.2,0-0.5,0.1-0.7,0.3c-0.1,0.1-0.2,0.4-0.3,0.6c0,0.1,0,0.3,0.1,0.4
				c0,0.1,0.1,0.2,0.2,0.3c0.1,0.1,0.2,0.1,0.3,0.2s0.2,0.1,0.4,0.1c0.2,0,0.3,0,0.4-0.1c0.1,0,0.2-0.1,0.3-0.2
				C345.4,462,345.5,461.8,345.5,461.5z"/>
			<path fill="#1F65AA" d="M347.2,441.8c0,0.8-0.4,1.4-1.1,1.9c-0.7,0.5-1.6,0.8-2.6,0.8h-1.2c-0.2,0-0.3,0-0.5,0s-0.3,0-0.5,0.1
				c-0.3,0-0.6,0.2-1,0.5c-0.3,0.3-0.5,0.6-0.5,1.1c0,0.4,0.1,0.7,0.4,1c0.2,0.2,0.4,0.3,0.6,0.3l1.2-1.7c0.1,0.1,0.1,0.1,0.2,0.2
				c0.1,0.1,0.1,0.1,0.1,0.2l0.7,0.6c0.1-0.4,0.3-0.8,0.6-1.1c0.4-0.3,0.8-0.5,1.3-0.5c0.5,0,1,0.2,1.3,0.5c0.2,0.2,0.3,0.4,0.4,0.6
				c0.1,0.2,0.1,0.4,0.1,0.7c0,0.5-0.2,0.9-0.6,1.3c-0.2,0.2-0.4,0.3-0.7,0.4c-0.2,0.1-0.5,0.1-0.8,0.1c-0.2,0-0.5,0-0.7-0.1
				s-0.5-0.1-0.7-0.3c-0.5-0.2-0.9-0.5-1.2-0.9l-0.8,1.1h-1c-0.6,0-1.1-0.2-1.6-0.7c-0.5-0.4-0.7-1-0.7-1.8c0-0.7,0.3-1.3,0.9-1.9
				c0.5-0.5,1.1-0.8,1.7-0.8c0.5-0.1,0.8-0.1,1-0.1h0.4h0.7h0.7c0.6,0,1-0.1,1.4-0.4c0.4-0.3,0.5-0.7,0.5-1.2L347.2,441.8
				L347.2,441.8z M345.7,447c0-0.5-0.2-0.7-0.7-0.7s-0.7,0.2-0.7,0.7c0,0.5,0.2,0.7,0.7,0.7C345.4,447.7,345.7,447.5,345.7,447z"/>
			<path fill="#1F65AA" d="M361.5,460.5c0,1-0.2,1.8-0.7,2.4c-0.5,0.5-1.3,0.7-2.5,0.7h-7.8v-1.3c0.7,0,1.1-0.1,1.4-0.3
				c0.2-0.2,0.4-0.6,0.4-1.2v-6.3c-0.1,0-0.2,0.1-0.3,0.1c-0.1,0-0.3,0-0.6,0.1c-0.6,0-1.2-0.2-1.6-0.6c-0.2-0.2-0.4-0.4-0.5-0.7
				c-0.1-0.2-0.2-0.5-0.2-0.9c0-0.6,0.2-1.1,0.7-1.6c0.4-0.5,1-0.7,1.7-0.7c0.7,0,1.3,0.2,1.8,0.7c0.5,0.4,0.7,1,0.7,1.7v9.6h3.4
				c1.1,0,1.7-0.1,2-0.4c0.3-0.3,0.5-0.9,0.5-1.7v-9.7h1.7L361.5,460.5L361.5,460.5z M352.4,452.6c0-0.2-0.1-0.5-0.3-0.6
				c-0.2-0.2-0.4-0.3-0.7-0.3c-0.3,0-0.5,0.1-0.7,0.3c-0.1,0.1-0.2,0.4-0.3,0.6c0,0.1,0,0.3,0.1,0.4c0,0.1,0.1,0.2,0.2,0.3
				c0.1,0.1,0.2,0.1,0.3,0.2s0.2,0.1,0.4,0.1c0.3,0,0.5-0.1,0.7-0.3C352.3,453.1,352.4,452.9,352.4,452.6z"/>
			<path fill="#1F65AA" d="M371.3,461.6c0,0.3-0.1,0.6-0.2,0.8s-0.3,0.5-0.5,0.7c-0.4,0.4-1,0.7-1.6,0.7c-0.8,0-1.4-0.2-1.8-0.7
				c-0.2-0.2-0.4-0.5-0.5-0.8c-0.1-0.3-0.2-0.6-0.2-1V444l-2.3,2.2c-0.4-0.9-0.8-1.6-1.1-2.1c-0.9-1.4-1.8-2.4-2.9-3l1.5-1
				c0.7,0.4,1.4,1.1,2.1,2.1c0.1,0.1,0.2,0.3,0.3,0.5c0.1,0.2,0.3,0.5,0.5,0.8l2.3-2.2c0.4,0,0.7,0.2,0.9,0.5
				c0.1,0.2,0.2,0.4,0.3,0.6s0.1,0.5,0.1,0.7v16.3c0.1,0,0.2-0.1,0.3-0.1c0.1,0,0.3,0,0.6-0.1c0.6,0,1.2,0.2,1.6,0.6
				C371.1,460.4,371.3,460.9,371.3,461.6z M370.1,461.5c0-0.2-0.1-0.5-0.3-0.6c-0.2-0.2-0.4-0.3-0.7-0.3s-0.5,0.1-0.7,0.3
				c-0.1,0.1-0.2,0.4-0.3,0.6c0,0.1,0,0.3,0.1,0.4c0,0.1,0.1,0.2,0.2,0.3c0.1,0.1,0.2,0.1,0.4,0.2s0.3,0.1,0.3,0.1
				c0.2,0,0.3,0,0.4,0c0.1,0,0.2-0.1,0.3-0.2C370,462,370.1,461.8,370.1,461.5z"/>
			<path fill="#1F65AA" d="M384.7,463.6H383v-10c0-1.3-0.4-1.9-1.3-1.9c-0.3,0-0.5,0.2-0.6,0.7l-3.7,11.2h-1.9v-9
				c-0.1,0-0.2,0.1-0.3,0.1s-0.3,0-0.6,0.1c-0.6,0-1.2-0.2-1.6-0.6c-0.2-0.2-0.4-0.4-0.5-0.7c-0.1-0.2-0.2-0.5-0.2-0.9
				c0-0.6,0.2-1.1,0.7-1.6c0.5-0.5,1-0.7,1.7-0.7c0.7,0,1.3,0.2,1.8,0.7c0.5,0.4,0.7,1,0.7,1.7v4.5c0,0.2,0,0.5,0,0.9
				c0,0.4-0.1,0.8-0.1,1.3c0,0.2,0,0.4,0,0.7c0,0.2-0.1,0.5-0.1,0.8c0.1-0.3,0.1-0.5,0.1-0.7c0-0.2,0.1-0.3,0.1-0.4
				c0.2-0.7,0.3-1.3,0.5-1.7l2.1-6.3c0.3-1,1-1.5,2.2-1.5c0.9,0,1.6,0.2,2.1,0.7c0.2,0.2,0.5,0.5,0.6,0.9c0.1,0.4,0.2,0.8,0.2,1.4
				L384.7,463.6L384.7,463.6z M375.7,452.6c0-0.2-0.1-0.5-0.3-0.6c-0.2-0.2-0.4-0.3-0.7-0.3c-0.3,0-0.5,0.1-0.7,0.3
				c-0.2,0.1-0.2,0.4-0.3,0.6c0,0.1,0,0.3,0.1,0.4c0,0.1,0.1,0.2,0.2,0.3c0.1,0.1,0.2,0.1,0.3,0.2s0.2,0.1,0.4,0.1
				c0.3,0,0.5-0.1,0.7-0.3C375.6,453.1,375.7,452.9,375.7,452.6z"/>
			<path fill="#1F65AA" d="M397.8,460.5c0,1.1-0.2,1.8-0.7,2.3c-0.5,0.5-1.3,0.7-2.5,0.7h-6.2V459c0-0.7,0.2-1.2,0.5-1.6
				c0.2-0.2,0.5-0.4,0.9-0.7c-0.5-0.1-0.9-0.4-1.2-0.7c-0.3-0.4-0.5-0.8-0.5-1.3v-2.1c0-0.7,0.2-1.3,0.6-1.7
				c0.4-0.4,1.1-0.6,1.8-0.6c0.7,0,1.2,0.2,1.7,0.7c0.5,0.4,0.7,0.9,0.7,1.6c0,0.6-0.2,1.1-0.7,1.5c-0.2,0.2-0.5,0.4-0.7,0.5
				c-0.2,0.1-0.5,0.1-0.9,0.1c-0.4,0-0.7,0-0.8-0.1c0,0.4,0.2,0.7,0.6,1c0.4,0.3,1,0.4,1.7,0.4h1v1.3H392c-1.3,0-1.9,0.6-1.9,1.7
				v3.2h3.6c1.1,0,1.7-0.1,2-0.4c0.3-0.3,0.5-0.9,0.5-1.7v-9.7h1.7L397.8,460.5L397.8,460.5z M391.5,452.6c0-0.2-0.1-0.5-0.3-0.6
				c-0.2-0.2-0.4-0.3-0.7-0.3s-0.5,0.1-0.7,0.3c-0.2,0.1-0.2,0.4-0.3,0.6c0,0.1,0,0.3,0.1,0.4c0,0.1,0.1,0.2,0.2,0.3
				c0.1,0.1,0.2,0.1,0.3,0.2c0.1,0,0.2,0.1,0.4,0.1c0.3,0,0.5-0.1,0.7-0.3C391.4,453.1,391.5,452.9,391.5,452.6z"/>
		</g>
	</g>
</g>
</svg>
