<?xml version="1.0" encoding="utf-8"?>
<!-- Generator: Adobe Illustrator 18.0.0, SVG Export Plug-In . SVG Version: 6.00 Build 0)  -->
<!DOCTYPE svg PUBLIC "-//W3C//DTD SVG 1.1//EN" "http://www.w3.org/Graphics/SVG/1.1/DTD/svg11.dtd">
<svg version="1.1" id="Layer_1" xmlns="http://www.w3.org/2000/svg" xmlns:xlink="http://www.w3.org/1999/xlink" x="0px" y="0px"
	 viewBox="0 0 1417.3 1417.3" enable-background="new 0 0 1417.3 1417.3" xml:space="preserve">
<g>
	<rect x="-1" y="4.8" display="none" fill="#FFFFFF" stroke="#000000" width="1417.3" height="1417.3"/>
	<g>
		<g>
			<linearGradient id="SVGID_1_" gradientUnits="userSpaceOnUse" x1="316.6013" y1="295.8949" x2="1117.3069" y2="587.3279">
				<stop  offset="0" style="stop-color:#0675B6"/>
				<stop  offset="0.3948" style="stop-color:#0E71B3"/>
				<stop  offset="0.9945" style="stop-color:#1B67AC"/>
				<stop  offset="1" style="stop-color:#1B67AC"/>
			</linearGradient>
			<polygon fill="url(#SVGID_1_)" points="1206.1,215.6 964.7,892.8 212.9,621.4 185,657.6 985.9,948.3 1242.4,223.3 			"/>
			
				<radialGradient id="SVGID_2_" cx="700.8615" cy="475.1424" r="431.3311" gradientTransform="matrix(0.9965 0 0 1.0065 2.9243 -4.1671)" gradientUnits="userSpaceOnUse">
				<stop  offset="0" style="stop-color:#FFFFFF"/>
				<stop  offset="0.2289" style="stop-color:#F7FAFC"/>
				<stop  offset="0.5774" style="stop-color:#E2EDF3"/>
				<stop  offset="1" style="stop-color:#C0D7E4"/>
			</radialGradient>
			<polygon fill="url(#SVGID_2_)" points="618.2,90.9 226.3,597 945.9,857.2 1176.3,208.3 			"/>
			<polygon fill="none" stroke="#0373B1" stroke-width="1.4173" stroke-miterlimit="3" points="604.2,59.9 172.9,610.2 964.7,893.1 
				1218.3,187.5 			"/>
			<g>
				<g>
					
						<linearGradient id="SVGID_3_" gradientUnits="userSpaceOnUse" x1="456.0352" y1="357.2314" x2="965.1265" y2="542.5255" gradientTransform="matrix(1 0 0 1 15.1318 0)">
						<stop  offset="0" style="stop-color:#0675B6"/>
						<stop  offset="0.3948" style="stop-color:#0E71B3"/>
						<stop  offset="0.9945" style="stop-color:#1B67AC"/>
						<stop  offset="1" style="stop-color:#1B67AC"/>
					</linearGradient>
					<path fill="url(#SVGID_3_)" d="M705.1,526.9c-0.3-2.9,1.5-7.5,5.4-13.7c-18,4.8-36.1,7.8-54.5,9.2c-18.4,1.3-35,0.5-49.7-2.6
						c-16.2-3.4-29.9-9.3-40.8-17.6c-11-8.3-16.8-18.9-17.4-31.6c-0.6-12.7,4.5-25.4,15.3-38.2c13.2-15.8,34-30,62.2-42.7
						c28.2-12.7,56.7-20.7,85.5-24c28.8-3.3,53.6-2.8,74.4,1.6c15.9,3.3,29.2,8.7,39.8,16.3c10.7,7.5,17.3,17,20,28.4L873,391
						l49,10.2l-122.7,91.4c-17,12.8-26.3,19.9-27.9,21.3c-2.3,2.8-2.5,5.6-0.4,8.4c2.1,2.8,5.8,4.7,11.1,5.9c9.7,2,25,1.7,45.9-1.1
						c27.6-3.6,53.1-10.7,76.5-21.5c23.4-10.8,41.1-23.3,53-37.4c13.9-16.6,19.1-33.6,15.6-51.3c-3.5-17.6-17.2-34-40.9-49.1
						c-23.7-15.1-54.3-26.5-91.8-34.4c-42.8-8.9-86.4-11.7-130.9-8.2c-44.5,3.5-85,13.3-121.4,29.4c-36.5,16.2-64.5,35.8-83.9,59
						c-20.4,24.2-28.2,47.2-23.5,68.7c4.7,21.6,22,40.4,51.8,56.4c29.8,16,67.1,28.7,111.8,38.1c47.9,10,91.7,14,131.4,12
						c39.7-2,72.9-7.6,99.5-16.7l49.6,10.3c-18,8.4-42.9,15.6-74.6,21.7c-31.7,6-65.8,8.9-102.3,8.7c-36.5-0.3-76.8-5-120.8-14.2
						c-40.5-8.5-75.6-19.1-105.1-31.9c-29.5-12.8-51.6-27.3-66.2-43.7c-14.6-16.3-21.8-33.2-21.7-50.4c0.4-21.9,9.6-43.6,27.8-65.3
						c20.3-24.1,48.7-45.2,85.4-63.2c44.8-22.1,93.7-36,146.6-41.7c53-5.7,108.7-2.4,167.1,9.8c45.3,9.4,81.7,23,109.3,40.5
						c27.6,17.6,43.5,38.5,47.6,62.7c3.3,20.8-3.5,41.3-20.4,61.3c-24.1,28.7-64.2,50.3-120.2,64.7c-50.1,13-94.9,15.4-134.4,7.2
						c-12.6-2.6-21.9-5.8-28-9.5C708.8,535.6,705.6,531.5,705.1,526.9L705.1,526.9z M612.4,445c-11.5,13.6-14.5,25.5-9,35.5
						c5.5,10,15.9,16.7,31.2,19.8c10.2,2.1,22.3,2.7,36.4,1.8c14-0.9,29-3.6,44.8-8c15.8-4.4,31.3-11,46.3-19.8
						c15-8.8,26.9-18.1,35.7-28.1c11.2-13.7,13.8-25.6,7.9-35.6c-6-10.1-17.8-17-35.5-20.7c-11.7-2.4-24-3.1-37-2
						c-13,1.1-27.4,4.2-43,9.4c-15.7,5.2-30.8,12.2-45.2,21.3C630.4,427.6,619.6,436.4,612.4,445z"/>
				</g>
				<g>
					<path fill="#1D65AB" d="M705.1,526.9c-0.3-2.9,1.5-7.5,5.4-13.7c-18,4.8-36.1,7.8-54.5,9.2c-18.4,1.3-35,0.5-49.7-2.6
						c-16.2-3.4-29.9-9.3-40.8-17.6c-11-8.3-16.8-18.9-17.4-31.6c-0.6-12.7,4.5-25.4,15.3-38.2c13.2-15.8,34-30,62.2-42.7
						c28.2-12.7,56.7-20.7,85.5-24c28.8-3.3,53.6-2.8,74.4,1.6c15.9,3.3,29.2,8.7,39.8,16.3c10.7,7.5,17.3,17,20,28.4L873,391
						l49,10.2l-122.7,91.4c-17,12.8-26.3,19.9-27.9,21.3c-2.3,2.8-2.5,5.6-0.4,8.4c2.1,2.8,5.8,4.7,11.1,5.9c9.7,2,25,1.7,45.9-1.1
						c27.6-3.6,53.1-10.7,76.5-21.5c23.4-10.8,41.1-23.3,53-37.4c13.9-16.6,19.1-33.6,15.6-51.3c-3.5-17.6-17.2-34-40.9-49.1
						c-23.7-15.1-54.3-26.5-91.8-34.4c-42.8-8.9-86.4-11.7-130.9-8.2c-44.5,3.5-85,13.3-121.4,29.4c-36.5,16.2-64.5,35.8-83.9,59
						c-20.4,24.2-28.2,47.2-23.5,68.7c4.7,21.6,22,40.4,51.8,56.4c29.8,16,67.1,28.7,111.8,38.1c47.9,10,91.7,14,131.4,12
						c39.7-2,72.9-7.6,99.5-16.7l49.6,10.3c-18,8.4-42.9,15.6-74.6,21.7c-31.7,6-65.8,8.9-102.3,8.7c-36.5-0.3-76.8-5-120.8-14.2
						c-40.5-8.5-75.6-19.1-105.1-31.9c-29.5-12.8-51.6-27.3-66.2-43.7c-14.6-16.3-21.8-33.2-21.7-50.4c0.4-21.9,9.6-43.6,27.8-65.3
						c20.3-24.1,48.7-45.2,85.4-63.2c44.8-22.1,93.7-36,146.6-41.7c53-5.7,108.7-2.4,167.1,9.8c45.3,9.4,81.7,23,109.3,40.5
						c27.6,17.6,43.5,38.5,47.6,62.7c3.3,20.8-3.5,41.3-20.4,61.3c-24.1,28.7-64.2,50.3-120.2,64.7c-50.1,13-94.9,15.4-134.4,7.2
						c-12.6-2.6-21.9-5.8-28-9.5C708.8,535.6,705.6,531.5,705.1,526.9L705.1,526.9z M612.4,445c-11.5,13.6-14.5,25.5-9,35.5
						c5.5,10,15.9,16.7,31.2,19.8c10.2,2.1,22.3,2.7,36.4,1.8c14-0.9,29-3.6,44.8-8c15.8-4.4,31.3-11,46.3-19.8
						c15-8.8,26.9-18.1,35.7-28.1c11.2-13.7,13.8-25.6,7.9-35.6c-6-10.1-17.8-17-35.5-20.7c-11.7-2.4-24-3.1-37-2
						c-13,1.1-27.4,4.2-43,9.4c-15.7,5.2-30.8,12.2-45.2,21.3C630.4,427.6,619.6,436.4,612.4,445z"/>
				</g>
			</g>
		</g>
		<g>
			<path fill="#1F65AA" d="M261.3,1256.4v-74.3h-21.8v-15.2h58.3v15.2h-21.8v74.3H261.3z"/>
			<path fill="#1F65AA" d="M307.4,1256.4v-89.5h14.8v35.2h29v-35.2h14.8v89.5h-14.8v-39.1h-29v39.1H307.4z"/>
			<path fill="#1F65AA" d="M447.5,1256.4h-16.1l-6.4-20.2h-29.3l-6.1,20.2h-15.7l28.5-89.5h15.8L447.5,1256.4z M420.3,1221
				l-10.2-33.2l-9.9,33.2H420.3z"/>
			<path fill="#1F65AA" d="M454.9,1256.4v-89.5h14.8v89.5H454.9z"/>
			<path fill="#1F65AA" d="M522.7,1256.4l-17.6-89.5h15.2l11,61.5l13.3-61.5h17.6l12.9,62.5l11.2-62.5h14.9l-17.6,89.5h-15.8
				l-14.7-66.9l-14.5,66.9H522.7z"/>
			<path fill="#1F65AA" d="M609.1,1256.4v-89.5h54.4v15.2h-39.6v19.8h36.8v15h-36.8v24.3h41v15.2H609.1z"/>
			<path fill="#1F65AA" d="M677.3,1166.9h29.4c8,0,13.7,0.7,16.9,2.2c3.3,1.5,6,4,8.2,7.7c2.2,3.7,3.4,7.9,3.4,12.6
				c0,4.3-1,8.2-2.9,11.7c-1.9,3.5-4.4,6-7.5,7.7c4.4,1.5,7.8,4.2,10.2,7.9c2.5,3.7,3.7,8.3,3.7,13.7c0,6.5-1.6,12-4.7,16.5
				c-3.1,4.5-6.8,7.3-11.1,8.3c-3,0.7-9.9,1.1-20.7,1.1h-25V1166.9z M692.1,1181.8v20.6h9.7c5.8,0,9.5-0.1,10.8-0.3
				c2.5-0.4,4.5-1.5,5.9-3.2c1.4-1.7,2.1-4.1,2.1-7c0-2.6-0.6-4.8-1.7-6.4c-1.2-1.6-2.6-2.7-4.2-3.1c-1.6-0.4-6.4-0.6-14.1-0.6
				H692.1z M692.1,1217.4v23.8h13.7c6,0,9.9-0.3,11.6-0.9c1.7-0.6,3.1-1.9,4.3-3.7c1.2-1.8,1.7-4.2,1.7-7c0-2.9-0.6-5.3-1.9-7.2
				c-1.2-1.9-2.9-3.2-4.9-3.9c-2.1-0.7-6.3-1.1-12.6-1.1H692.1z"/>
			<path fill="#1F65AA" d="M751.1,1256.4v-89.5h22.1l13.3,61.1l13.1-61.1h22.3v89.5h-13.8v-70.5l-14.6,70.5h-14.2l-14.6-70.5v70.5
				H751.1z"/>
			<path fill="#1F65AA" d="M902.8,1256.4h-16.1l-6.4-20.2H851l-6.1,20.2h-15.7l28.5-89.5h15.8L902.8,1256.4z M875.6,1221l-10.2-33.2
				l-9.9,33.2H875.6z"/>
			<path fill="#1F65AA" d="M936.9,1257.9c-18,0-28-10.2-30-30.7l14.5-1.7c1.6,11.4,6.9,17.1,16,17.1c4.5,0,8-1.2,10.5-3.5
				c2.6-2.3,3.8-5.2,3.8-8.7c0-2-0.4-3.8-1.3-5.2c-0.9-1.4-2.2-2.6-4.1-3.5c-1.8-0.9-6.2-2.4-13.3-4.6c-6.3-1.9-10.9-4-13.9-6.2
				c-2.9-2.2-5.3-5.2-7-8.8c-1.7-3.6-2.6-7.5-2.6-11.7c0-4.9,1.1-9.3,3.3-13.2c2.2-3.9,5.3-6.8,9.2-8.8c3.9-2,8.7-3,14.5-3
				c8.6,0,15.4,2.3,20.2,7c4.8,4.7,7.4,11.4,7.7,20.1l-14.8,0.8c-0.7-4.8-2.1-8.2-4.2-10.1c-2.2-1.9-5.3-2.9-9.3-2.9
				c-4,0-7.1,0.8-9.3,2.5c-2.2,1.7-3.3,3.7-3.3,6.2c0,2.4,1,4.5,3,6.1c2,1.7,6.5,3.5,13.5,5.5c7.4,2.2,12.8,4.4,16.1,6.8
				c3.3,2.4,5.8,5.4,7.6,9.2c1.7,3.8,2.6,8.3,2.6,13.7c0,7.8-2.4,14.3-7.2,19.6C954.5,1255.2,947,1257.9,936.9,1257.9L936.9,1257.9z
				"/>
			<path fill="#1F65AA" d="M995.4,1256.4v-74.3h-21.8v-15.2h58.3v15.2h-21.8v74.3H995.4z"/>
			<path fill="#1F65AA" d="M1041.6,1256.4v-89.5h54.4v15.2h-39.6v19.8h36.8v15h-36.8v24.3h41v15.2H1041.6z"/>
			<path fill="#1F65AA" d="M1110,1256.4v-89.5h31.2c8,0,13.7,0.8,17.1,2.4c3.4,1.6,6.2,4.4,8.4,8.4c2.2,4,3.3,8.7,3.3,14.2
				c0,7-1.7,12.6-5,16.9c-3.3,4.3-8.1,7-14.3,8c3.2,2.3,5.8,4.8,7.9,7.5c2.1,2.7,4.9,7.6,8.5,14.6l8.9,17.5H1158l-10.6-19.5
				c-3.8-7-6.4-11.4-7.8-13.2c-1.4-1.8-2.8-3-4.4-3.7c-1.5-0.7-4-1-7.4-1h-3v37.4H1110z M1124.8,1204.8h10.9
				c6.7,0,10.9-0.3,12.8-0.9c1.8-0.6,3.3-1.8,4.4-3.6c1.1-1.8,1.7-4.2,1.7-7.1c0-2.8-0.6-5.1-1.7-6.9c-1.1-1.7-2.7-2.9-4.6-3.6
				c-1.4-0.4-5.4-0.7-12-0.7h-11.6V1204.8z"/>
		</g>
		<g>
			<path fill="#1F65AA" d="M243,1365.5l28.2-89.4h10.4l30,89.4h-11.1l-8.5-27.1h-30.9l-7.9,27.1H243z M263.9,1328.8H289l-7.6-24.8
				c-2.4-7.6-4.1-13.8-5.2-18.6c-1,5.7-2.3,11.4-4,17.1L263.9,1328.8z"/>
			<path fill="#1F65AA" d="M340.6,1336.4l9.3-0.8c0.5,4.9,1.6,8.8,3.3,11.5c1.7,2.8,4.2,5,7.4,6.7c3.2,1.7,6.8,2.5,10.8,2.5
				c5.8,0,10.2-1.4,13.4-4.2c3.2-2.8,4.8-6.5,4.8-11c0-2.6-0.6-4.9-1.7-6.9c-1.2-2-2.9-3.6-5.2-4.8c-2.3-1.2-7.4-3-15.1-5.3
				c-6.9-2.1-11.8-4.1-14.8-6.2c-2.9-2.1-5.2-4.7-6.8-7.9c-1.6-3.2-2.4-6.8-2.4-10.8c0-7.2,2.3-13.1,7-17.7c4.7-4.6,11-6.9,18.9-6.9
				c5.4,0,10.2,1.1,14.3,3.2c4.1,2.2,7.3,5.3,9.5,9.3c2.3,4,3.5,8.8,3.6,14.2l-9.3,0.8c-0.5-5.8-2.2-10.1-5.2-12.9
				c-3-2.8-7.2-4.2-12.6-4.2c-5.5,0-9.7,1.2-12.6,3.7c-2.9,2.5-4.3,5.6-4.3,9.5c0,3.6,1.1,6.4,3.2,8.4c2.1,2,6.9,4,14.3,6
				c7.2,2,12.3,3.7,15.2,5.2c4.5,2.3,7.8,5.3,10.1,9c2.3,3.7,3.4,8.2,3.4,13.3c0,5.1-1.2,9.8-3.6,14c-2.4,4.2-5.7,7.4-9.8,9.6
				c-4.1,2.2-9.1,3.3-14.9,3.3c-9.1,0-16.3-2.7-21.7-8.2C343.6,1353.2,340.8,1345.8,340.6,1336.4z"/>
			<path fill="#1F65AA" d="M433.4,1336.4l9.3-0.8c0.5,4.9,1.6,8.8,3.3,11.5c1.7,2.8,4.2,5,7.4,6.7c3.2,1.7,6.8,2.5,10.8,2.5
				c5.8,0,10.2-1.4,13.4-4.2c3.2-2.8,4.8-6.5,4.8-11c0-2.6-0.6-4.9-1.7-6.9c-1.2-2-2.9-3.6-5.2-4.8c-2.3-1.2-7.4-3-15.1-5.3
				c-6.9-2.1-11.8-4.1-14.8-6.2c-2.9-2.1-5.2-4.7-6.8-7.9c-1.6-3.2-2.4-6.8-2.4-10.8c0-7.2,2.3-13.1,7-17.7c4.7-4.6,11-6.9,18.9-6.9
				c5.4,0,10.2,1.1,14.3,3.2c4.1,2.2,7.3,5.3,9.5,9.3c2.3,4,3.5,8.8,3.6,14.2l-9.3,0.8c-0.5-5.8-2.2-10.1-5.2-12.9
				c-3-2.8-7.2-4.2-12.6-4.2c-5.5,0-9.7,1.2-12.6,3.7c-2.9,2.5-4.3,5.6-4.3,9.5c0,3.6,1.1,6.4,3.2,8.4c2.1,2,6.9,4,14.3,6
				c7.2,2,12.3,3.7,15.2,5.2c4.5,2.3,7.8,5.3,10.1,9c2.3,3.7,3.4,8.2,3.4,13.3c0,5.1-1.2,9.8-3.6,14c-2.4,4.2-5.7,7.4-9.8,9.6
				c-4.1,2.2-9.1,3.3-14.9,3.3c-9.1,0-16.3-2.7-21.7-8.2C436.4,1353.2,433.6,1345.8,433.4,1336.4z"/>
			<path fill="#1F65AA" d="M535.8,1352.8c-6-8.5-9-18.8-9-30.9c0-15.2,3.4-26.9,10.1-35.1c6.7-8.2,15.1-12.3,25.1-12.3
				c6.5,0,12.4,1.8,17.7,5.5c5.3,3.7,9.5,9,12.7,15.9c3.1,7,4.7,15.3,4.7,24.9c0,13.2-3,24-9,32.4c-6.6,9.2-15.3,13.8-26,13.8
				C551.1,1367,542.4,1362.2,535.8,1352.8L535.8,1352.8z M536.9,1322.1c0,11,2.4,19.5,7.3,25.6c4.8,6.1,10.7,9.1,17.7,9.1
				c7.1,0,13-3.1,17.8-9.2c4.8-6.1,7.2-15.1,7.2-27c0-7.7-1.2-14.5-3.7-20.6c-1.9-4.6-4.8-8.3-8.6-11.1c-3.8-2.8-8-4.2-12.6-4.2
				c-7.3,0-13.3,3-18,9.1C539.2,1299.9,536.9,1309.3,536.9,1322.1z"/>
			<path fill="#1F65AA" d="M685.9,1334.1l9.7,3c-2.2,10-5.9,17.5-11.3,22.5c-5.4,4.9-12,7.4-19.7,7.4c-6.8,0-12.6-1.7-17.4-5
				c-4.8-3.3-8.8-8.6-11.8-15.9c-3.1-7.3-4.6-16-4.6-25.9c0-9.8,1.5-18.2,4.6-25c3.1-6.8,7.2-12,12.5-15.4
				c5.3-3.5,11.1-5.2,17.6-5.2c7.1,0,13.2,2.2,18.3,6.6c5.1,4.4,8.7,10.8,10.7,19.3l-9.5,2.8c-3.3-12.3-9.8-18.5-19.6-18.5
				c-4.9,0-9.1,1.2-12.7,3.7c-3.6,2.5-6.4,6.4-8.6,11.7c-2.1,5.3-3.2,12-3.2,20c0,12.2,2.2,21.4,6.5,27.5c4.3,6.1,10.1,9.2,17.2,9.2
				c5.3,0,9.9-1.9,13.7-5.6C682,1347.4,684.6,1341.7,685.9,1334.1z"/>
			<path fill="#1F65AA" d="M734,1365.5V1276h9.7v89.4H734z"/>
			<path fill="#1F65AA" d="M777.2,1365.5l28.2-89.4h10.4l30,89.4h-11.1l-8.5-27.1h-30.9l-7.9,27.1H777.2z M798.1,1328.8h25.1
				l-7.6-24.8c-2.4-7.6-4.1-13.8-5.2-18.6c-1,5.7-2.3,11.4-4,17.1L798.1,1328.8z"/>
			<path fill="#1F65AA" d="M889.4,1365.5v-78.9h-24.2V1276h58.2v10.5h-24.3v78.9H889.4z"/>
			<path fill="#1F65AA" d="M959.4,1365.5V1276h9.7v89.4H959.4z"/>
			<path fill="#1F65AA" d="M1016.9,1352.8c-6-8.5-9-18.8-9-30.9c0-15.2,3.3-26.9,10.1-35.1c6.7-8.2,15.1-12.3,25.1-12.3
				c6.5,0,12.4,1.8,17.7,5.5c5.3,3.7,9.5,9,12.7,15.9c3.1,7,4.7,15.3,4.7,24.9c0,13.2-3,24-9,32.4c-6.6,9.2-15.3,13.8-26,13.8
				C1032.2,1367,1023.5,1362.2,1016.9,1352.8L1016.9,1352.8z M1018,1322.1c0,11,2.4,19.5,7.3,25.6c4.8,6.1,10.7,9.1,17.7,9.1
				c7.1,0,13-3.1,17.8-9.2c4.8-6.1,7.2-15.1,7.2-27c0-7.7-1.2-14.5-3.7-20.6c-1.9-4.6-4.8-8.3-8.6-11.1c-3.8-2.8-8-4.2-12.6-4.2
				c-7.3,0-13.3,3-18,9.1C1020.3,1299.9,1018,1309.3,1018,1322.1z"/>
			<path fill="#1F65AA" d="M1114.6,1365.5V1276h10l38.5,70.5V1276h9.3v89.4h-9.9l-38.4-70.3v70.3H1114.6z"/>
		</g>
		<g>
			<path fill="#1F65AA" d="M305.9,1048.7c-1.3,1.9-3.1,3.5-5.5,5.1c-2.3,1.2-4.7,2.1-7.3,2.5c3.4,3.1,5.1,7,5.1,11.6v46.8h-8.6
				l-16.4-34.8c-0.7-1.3-1.7-2.4-3.2-3.3c-0.9-0.7-2.1-1-3.6-1c-0.6,0-1.1,0-1.4,0.1c-4,0.6-6,3-6,7.2v12c0.4-0.1,0.8-0.3,1.3-0.3
				c0.5-0.1,1.4-0.2,2.7-0.3c3,0,5.6,1,7.7,3c2.1,2,3.2,4.5,3.2,7.5c0,1.5-0.3,2.9-0.8,4.1c-0.5,1.2-1.4,2.5-2.5,3.7
				c-1.9,2.1-4.6,3.2-7.9,3.2c-3.7,0-6.6-1.1-8.7-3.2c-2.1-2.3-3.2-5.1-3.2-8.4v-22c0-3.3,1.1-6,3.3-8.1c2-2.1,4.3-3.5,6.8-4
				c0.8-0.1,1.9-0.3,3.3-0.4c1.4-0.2,2.3-0.3,2.7-0.3c1.6,0,3.1,0.1,4.4,0.4c1.3,0.3,2.6,0.7,3.8,1.4c2.2,1,3.8,2.8,5,5.4l9.8,21.3
				v-28.1c0-3.6-1.6-6.6-4.7-9.2c-3.2-2.6-7-3.9-11.5-3.9c-9.1,0-15.2,3.6-18.2,10.8h-8.6c1.6-5.3,4.8-9.6,9.8-12.8
				c2.5-1.4,5.2-2.6,8.1-3.3c2.9-0.8,6-1.2,9.5-1.2c1.3,0,2.6,0.1,3.8,0.2c1.2,0.1,2.5,0.3,4,0.7c0.8,0.2,1.5,0.3,2.3,0.5
				c0.9,0.3,1.8,0.5,2.7,0.8c0.3,0.1,0.8,0.2,1.4,0.2c1.5,0,3.1-0.6,4.6-1.7c2.1-1.7,3.8-3.8,5.1-6.5L305.9,1048.7z M267.8,1104.6
				c0-1.1-0.5-2.1-1.6-3.1c-0.8-0.9-1.9-1.4-3.3-1.4c-1.3,0-2.4,0.5-3.5,1.4c-0.7,0.7-1.1,1.7-1.3,3.1c0,0.7,0.1,1.4,0.3,1.9
				c0.2,0.5,0.5,1,1,1.4c0.5,0.4,1,0.6,1.6,0.8c0.5,0.2,1.2,0.3,2,0.4c0.8,0,1.4-0.1,1.9-0.2c0.5-0.2,1-0.5,1.5-1
				C267.2,1106.9,267.8,1105.8,267.8,1104.6z"/>
			<path fill="#1F65AA" d="M369.9,1105.9c0,5.8-2.6,8.8-7.7,8.8h-2.9c-1.3-3.8-4-7.6-8-11.4c-2.1-2-4.3-3.7-6.6-5
				c-2.3-1.3-4.6-2.3-7-3v9.7c0,2.9-0.9,5.3-2.8,7.3c-1.9,1.9-4.5,2.9-7.8,2.9c-3.4,0-6.3-1.2-8.9-3.5c-2.4-2.6-3.6-5.8-3.6-9.6
				c0-3.6,1.5-6.8,4.6-9.6c1.5-1.4,3.2-2.4,5-3.1c1.8-0.7,3.7-1.1,5.7-1.1v-17.2c-0.4,0.2-0.8,0.3-1.3,0.4c-0.5,0.1-1.4,0.2-2.7,0.3
				c-3,0-5.7-1-8-3c-1-0.9-1.8-2-2.4-3.2c-0.6-1.2-0.9-2.6-0.9-4.2c0-2.9,1.1-5.4,3.2-7.6c2.1-2.2,4.8-3.3,8.1-3.3
				c3.6,0,6.5,1.1,8.5,3.3c2.2,2,3.3,4.7,3.3,8.2v26.8c1.9,0.2,3.8,0.7,5.9,1.5c2.1,0.9,4.3,2.1,6.7,3.6c4.6,2.8,8.3,6.1,11.2,10
				v-52.7h8.3V1105.9z M330.3,1061.4c0-1.2-0.5-2.2-1.4-3.1c-0.9-0.9-2-1.4-3.3-1.4c-1.3,0-2.4,0.5-3.4,1.5
				c-0.8,0.6-1.2,1.7-1.4,3.1c0,0.7,0.1,1.3,0.3,1.8c0.2,0.5,0.5,1,1.1,1.5c0.5,0.3,1,0.6,1.5,0.8c0.5,0.2,1.2,0.3,2,0.4
				c1.3,0,2.4-0.4,3.3-1.3C329.9,1063.7,330.3,1062.7,330.3,1061.4z M329.9,1104v-8.8c-2.2,0-4,0.6-5.5,1.9
				c-1.4,1.3-2.1,2.9-2.1,4.7c0,1.7,0.4,3.1,1.1,4.2c0.7,1.1,1.9,1.7,3.4,1.9C328.8,1108,329.9,1106.7,329.9,1104z"/>
			<path fill="#1F65AA" d="M424.7,1114.7h-8.3v-45.3c0-3.8-1.2-7-3.5-9.5c-2.4-2.4-5.7-3.6-9.7-3.6c-3.6,0-6.6,0.9-8.9,2.8
				c-2.4,1.9-4.2,4.5-5.6,8h-8.7c1.4-5.1,4.1-9.3,8.2-12.5c4-3.2,9.1-4.8,15.2-4.8c6.2,0,11.3,1.6,15.3,4.9c4,3.2,6,7.6,6,13.2
				V1114.7z"/>
			<path fill="#1F65AA" d="M491,1114.7h-8.3v-41.4c0-4.5-1.4-8.4-4.2-11.7c-3.2-3.6-7.5-5.4-13.2-5.4c-5.4,0-9.8,1.6-13.2,4.8
				c-3.4,3.2-5.1,7-5.1,11.3c0,1.4,0,2.9,0.2,4.4c0.1,1.5,0.3,3,0.6,4.6l2,10.1v3.9v1.3c0,0.8,0,1.6,0,2.4c-0.1,0.8-0.2,1.3-0.2,1.7
				l1.3-9.6c0.7-3.6,1.5-6.9,2.4-9.7c0.9-2.9,1.9-5.5,3.2-8.1c2.3-4.8,5.9-7.2,11-7.2c2.9,0,5.5,1,7.8,3.1c2.3,2.1,3.4,4.6,3.4,7.7
				c0,2.9-1.1,5.5-3.2,7.5c-2.1,2.1-4.8,3.1-8,3.1c-2.7,0-5.1-0.8-7.3-2.5c-1,2.7-2.4,7.3-4.2,13.9c-0.7,2.7-1.4,5.4-1.9,8
				c-0.6,2.6-1.2,5.1-1.7,7.6h-8.9v-10c0-4.3-1-11.1-3-20.4c-0.4-2.3-0.8-4.6-1.1-6.9c-0.3-2.3-0.5-4-0.5-5.2c0-6,2.4-11.2,7.2-15.6
				c5.3-4.6,11.9-6.8,19.9-6.8c7.6,0,13.7,2.1,18.3,6.3c4.6,4.3,6.9,9.4,6.9,15.5V1114.7z M472.2,1077c0-1.2-0.5-2.2-1.5-3.2
				c-0.8-1-1.9-1.5-3.4-1.5c-1.4,0-2.5,0.5-3.5,1.5c-0.7,0.6-1.1,1.7-1.4,3.2c0,1.3,0.5,2.4,1.4,3.3c0.5,0.4,1.1,0.7,1.9,0.9
				c0.8,0.2,1.3,0.3,1.6,0.3c0.8,0,1.4-0.1,1.8-0.2c0.5-0.2,1-0.5,1.5-1C471.8,1079.3,472.2,1078.2,472.2,1077z"/>
			<path fill="#1F65AA" d="M559.7,1105.9c0,5.8-2.6,8.8-7.7,8.8h-2.9c-1.3-3.8-4-7.6-8-11.4c-2.1-2-4.3-3.7-6.6-5
				c-2.3-1.3-4.6-2.3-7-3v9.7c0,2.9-1,5.3-2.8,7.3c-1.9,1.9-4.5,2.9-7.9,2.9c-3.4,0-6.3-1.2-8.9-3.5c-2.4-2.6-3.6-5.8-3.6-9.6
				c0-3.6,1.5-6.8,4.6-9.6c1.5-1.4,3.2-2.4,5-3.1c1.8-0.7,3.7-1.1,5.7-1.1v-17.2c-0.4,0.2-0.8,0.3-1.3,0.4c-0.5,0.1-1.4,0.2-2.7,0.3
				c-3,0-5.7-1-8-3c-1-0.9-1.8-2-2.4-3.2c-0.6-1.2-0.9-2.6-0.9-4.2c0-2.9,1-5.4,3.2-7.6c2.1-2.2,4.8-3.3,8.1-3.3
				c3.6,0,6.5,1.1,8.5,3.3c2.2,2,3.3,4.7,3.3,8.2v26.8c1.9,0.2,3.8,0.7,5.9,1.5c2.1,0.9,4.3,2.1,6.7,3.6c4.6,2.8,8.3,6.1,11.2,10
				v-52.7h8.3V1105.9z M520.1,1061.4c0-1.2-0.5-2.2-1.4-3.1c-0.9-0.9-2-1.4-3.3-1.4c-1.3,0-2.4,0.5-3.4,1.5
				c-0.7,0.6-1.2,1.7-1.3,3.1c0,0.7,0.1,1.3,0.3,1.8c0.2,0.5,0.5,1,1.1,1.5c0.5,0.3,1,0.6,1.5,0.8c0.5,0.2,1.2,0.3,2,0.4
				c1.3,0,2.4-0.4,3.3-1.3C519.6,1063.7,520.1,1062.7,520.1,1061.4z M519.6,1104v-8.8c-2.2,0-4,0.6-5.5,1.9
				c-1.4,1.3-2.1,2.9-2.1,4.7c0,1.7,0.3,3.1,1.1,4.2c0.7,1.1,1.9,1.7,3.4,1.9C518.5,1108,519.6,1106.7,519.6,1104z"/>
			<path fill="#1F65AA" d="M625.6,1104.8c0,3.5-0.7,6.1-2.2,7.6c-1.3,1.5-3.3,2.2-6,2.2h-2.9l-13.5-29.5l-13.4,29.5h-11.1v-52.7
				c0-3.4,1.1-6.2,3.2-8.3c2.1-2.1,5.1-3.2,8.9-3.2c3.2,0,5.9,1.1,8,3.3c2.2,2,3.3,4.5,3.3,7.6c0,2.8-1.1,5.3-3.2,7.3
				c-2.1,2.1-4.7,3.1-7.8,3.1c-1.2,0-2,0-2.4-0.1c-0.5,0-1-0.2-1.6-0.5v32l13.3-28.2l5.9,0l13.2,28.2v-52h8.3V1104.8z M593.6,1061.4
				c0-1.2-0.5-2.2-1.4-3.1c-0.9-1-2-1.5-3.3-1.5c-1.3,0-2.4,0.5-3.4,1.5c-0.7,0.6-1.1,1.7-1.3,3.1c0,0.7,0.1,1.3,0.3,1.8
				c0.2,0.5,0.5,1,1,1.4c0.5,0.4,1.1,0.7,1.8,0.9c0.8,0.2,1.3,0.3,1.6,0.3c0.8,0,1.4-0.1,1.8-0.2c0.4-0.2,1-0.5,1.5-1
				C593.1,1063.8,593.6,1062.7,593.6,1061.4z"/>
			<path fill="#1F65AA" d="M625.5,1142.4c0,4-1,7.1-2.9,9.1c-1.9,2-5.1,3-9.5,3H593v-5.7c2.2,0,3.8-0.3,4.7-0.9
				c0.8-0.7,1.1-2.1,1.1-4v-3.4l-3.4,0.7c-3,0-5.6-1-7.6-2.9c-2-1.9-3-4.3-3-7.2c0-2.9,1-5.3,3-7.2c2-1.9,4.5-2.9,7.6-2.9
				c3.4,0,6.2,1,8.3,3.1c2.2,1.9,3.4,4.4,3.4,7.6v16.9h3c3,0,4.9-0.5,5.8-1.5c0.3-0.6,0.6-1.3,0.8-2.2c0.2-0.9,0.3-2,0.3-3.4v-19.9
				l8.3-0.1V1142.4z M600.1,1131c0-1.2-0.4-2.2-1.2-3c-0.8-0.8-1.9-1.2-3.3-1.4c-1.3,0-2.3,0.4-3.1,1.2c-0.8,0.8-1.3,1.9-1.4,3.2
				c0,1.2,0.4,2.3,1.3,3.1c0.7,0.7,1.8,1.1,3.2,1.3c1.3,0,2.3-0.4,3.1-1.2C599.4,1133.5,599.9,1132.4,600.1,1131z"/>
			<path fill="#1F65AA" d="M637.8,1018.1c-0.7,6.7-3.7,11.9-9.1,15.7c-2.3,1.5-4.9,2.7-7.8,3.6c-2.9,0.8-6,1.3-9.4,1.3
				c-2.7,0-5.5-0.3-8.2-0.9c1.5-0.8,2.8-1.8,3.7-2.9c1-1.1,1.7-2.5,2.2-4.1l-1.7,0.2c-2.4,0-4.6-0.8-6.6-2.6
				c-0.8-0.8-1.4-1.8-1.9-2.8c-0.5-1.1-0.7-2.2-0.7-3.4c0-2.4,0.9-4.5,2.6-6.2c0.9-0.8,1.9-1.4,3-1.9c1.1-0.5,2.3-0.7,3.6-0.7
				c2.9,0,5.3,0.9,7.2,2.7c1.9,1.8,2.9,4.1,2.9,6.7c0,2.1-0.2,3.7-0.5,5.1c-0.4,1.4-0.7,2.3-0.9,2.9c-0.2,0.6-0.7,1.3-1.3,2.2
				c2.2,0,4.1-0.4,6-1.3c1.9-0.8,3.6-2.1,5.3-3.8c3-2.9,4.4-6.1,4.4-9.8H637.8z M611.4,1022.1c0-2.6-1.4-4-4.1-4
				c-2.8,0-4.2,1.3-4.2,4c0,2.5,1.4,3.8,4.2,3.8C610,1025.9,611.4,1024.6,611.4,1022.1z"/>
			<path fill="#1F65AA" d="M691.7,1114.7h-8.3v-41.4c0-4.8-1.4-8.7-4.1-11.8c-3-3.5-7.3-5.2-12.8-5.2c-5.2,0-9.4,1.4-12.8,4.3
				c-3.4,2.9-5.3,5.7-5.6,8.3l-0.3,5.9c0,1.8,0.2,3.8,0.5,6.2c0.3,2.3,0.9,5.1,1.7,8.5c1.5,6.6,2.2,11,2.2,13.1
				c0.4-0.7,0.8-1.3,1.2-2c0.4-0.7,1-1.4,1.6-2.3c0.4-0.7,0.9-1.3,1.4-1.9c0.7-0.9,1.5-1.8,2.4-2.9l5.5-6.2
				c-2.3-0.5-4.4-1.7-6.2-3.7c-1.6-2.1-2.4-4.3-2.4-6.7c0-2.7,1.1-5.3,3.2-7.5c2.3-2.1,5-3.2,8.1-3.2c2.9,0,5.6,1.1,7.8,3.2
				c1.1,1,1.9,2.1,2.5,3.3c0.6,1.3,0.9,2.7,0.9,4.2c0,2.2-0.4,3.9-1.2,5.2c-0.4,0.8-0.9,1.6-1.5,2.4c-0.6,0.8-1.2,1.6-1.8,2.2
				l-9.6,11.6c-2.1,2.8-4.2,5.7-6.4,8.8c-2.1,3.1-3.6,5.6-4.5,7.5h-9v-9.2c0-2.2-0.2-4.5-0.5-7c-0.3-2.5-0.9-5.6-1.7-9.4
				c-0.8-3.8-1.5-7-1.8-9.6c-0.4-2.6-0.6-5-0.6-7.2c0-6.3,2.4-11.6,7.3-15.9c4.9-4.4,11.5-6.5,19.8-6.5c7.5,0,13.6,2.1,18.2,6.3
				c4.7,4.2,7,9.4,7,15.5V1114.7z M671.8,1077c0-1.2-0.5-2.2-1.5-3.2c-0.9-1-2-1.5-3.4-1.5c-1.4,0-2.6,0.5-3.6,1.5
				c-0.8,0.7-1.2,1.7-1.4,3.2c0,0.7,0.1,1.3,0.3,1.8c0.2,0.5,0.6,1,1.1,1.6c0.5,0.4,1,0.6,1.5,0.8c0.5,0.2,1.2,0.3,2.1,0.4
				c1.3,0,2.5-0.4,3.4-1.2C671.3,1079.3,671.8,1078.2,671.8,1077z"/>
			<path fill="#1F65AA" d="M691.9,1142.4c0,4-1,7.1-2.9,9.1c-1.9,2-5.1,3-9.5,3h-20.1v-5.7c2.2,0,3.8-0.3,4.7-0.9
				c0.8-0.7,1.1-2.1,1.1-4v-3.4l-3.4,0.7c-3,0-5.6-1-7.5-2.9c-2-1.9-3-4.3-3-7.2c0-2.9,1-5.3,3-7.2c2-1.9,4.5-2.9,7.5-2.9
				c3.4,0,6.2,1,8.3,3.1c2.2,1.9,3.4,4.4,3.4,7.6v16.9h3c3,0,4.9-0.5,5.8-1.5c0.3-0.6,0.6-1.3,0.8-2.2c0.2-0.9,0.3-2,0.3-3.4v-19.9
				l8.3-0.1V1142.4z M666.4,1131c0-1.2-0.4-2.2-1.2-3c-0.8-0.8-1.9-1.2-3.3-1.4c-1.3,0-2.3,0.4-3.1,1.2c-0.8,0.8-1.3,1.9-1.4,3.2
				c0,1.2,0.4,2.3,1.3,3.1c0.7,0.7,1.8,1.1,3.2,1.3c1.3,0,2.3-0.4,3.1-1.2C665.8,1133.5,666.2,1132.4,666.4,1131z"/>
			<path fill="#1F65AA" d="M734.4,1104.6c0,1.5-0.3,2.9-0.8,4.1c-0.5,1.2-1.4,2.4-2.5,3.6c-2.1,2.1-4.7,3.2-8,3.2
				c-3.7,0-6.7-1.1-8.9-3.2c-2.1-2.3-3.2-5.1-3.2-8.4v-52.7h8.3v43.6c0.6-0.3,2-0.5,4-0.6c2.9,0,5.5,1,7.7,2.9
				C733.3,1099.1,734.4,1101.6,734.4,1104.6z M728.2,1104.5c0-1.2-0.5-2.2-1.4-3.1c-1-0.9-2.1-1.4-3.4-1.4c-1.4,0-2.5,0.5-3.5,1.4
				c-0.8,0.7-1.2,1.7-1.4,3.1c0,0.7,0.1,1.3,0.3,1.8c0.2,0.5,0.5,1,1.1,1.5c0.5,0.3,1,0.6,1.5,0.8c0.5,0.2,1.2,0.3,2,0.4
				c1.3,0,2.4-0.4,3.4-1.3C727.7,1106.9,728.2,1105.8,728.2,1104.5z M766.2,1104.6c0,1.5-0.3,2.9-0.8,4.1c-0.5,1.2-1.4,2.4-2.5,3.6
				c-2.1,2.1-4.7,3.2-8,3.2c-3.7,0-6.7-1.1-8.9-3.2c-1-1.1-1.8-2.3-2.3-3.7c-0.6-1.4-0.9-3-0.9-4.6v-52.7h8.3v43.6
				c0.7-0.3,2-0.5,4-0.6c2.9,0,5.5,1,7.7,2.9C765.1,1099.1,766.2,1101.6,766.2,1104.6z M759.9,1104.5c0-1.2-0.5-2.2-1.5-3.1
				c-0.8-0.9-1.9-1.4-3.3-1.4c-1.4,0-2.5,0.5-3.5,1.4c-0.8,0.7-1.2,1.7-1.4,3.1c0,0.7,0.1,1.3,0.3,1.8c0.2,0.5,0.6,1,1.1,1.5
				c0.5,0.3,1,0.6,1.5,0.8c0.5,0.2,1.2,0.3,2,0.4c1.3,0,2.4-0.4,3.4-1.3C759.4,1106.9,759.9,1105.8,759.9,1104.5z"/>
			<path fill="#1F65AA" d="M826.1,1114.7h-8.6l-16.4-34.8c-0.7-1.3-1.7-2.4-3.2-3.3c-0.9-0.6-2.1-1-3.6-1c-0.6,0-1.1,0-1.4,0.1
				c-4,0.6-6,3-6,7.2v12c0.4-0.2,0.8-0.3,1.3-0.4c0.5-0.1,1.4-0.2,2.7-0.3c3,0,5.6,1,7.7,2.9c2.1,2,3.2,4.5,3.2,7.5
				c0,1.5-0.2,2.9-0.8,4.1c-0.5,1.2-1.4,2.4-2.5,3.6c-1.9,2.1-4.6,3.2-7.9,3.2c-3.7,0-6.6-1.1-8.7-3.2c-2.1-2.3-3.2-5.1-3.2-8.4v-22
				c0-3.3,1.1-6,3.3-8.1c2-2.1,4.3-3.5,6.9-4c0.8-0.2,1.9-0.3,3.3-0.5c1.4-0.2,2.3-0.3,2.7-0.3c1.6,0,3.1,0.1,4.4,0.4
				c1.3,0.3,2.6,0.7,3.8,1.4c2.2,1,3.8,2.8,5,5.4l9.8,21.3v-28.2c0-3.5-1.6-6.6-4.7-9.2c-3.2-2.6-7-3.9-11.5-3.9
				c-9.1,0-15.2,3.6-18.2,10.8h-8.6c1.6-5.4,4.8-9.6,9.8-12.8c2.5-1.4,5.2-2.6,8.1-3.3c2.9-0.8,6-1.2,9.5-1.2
				c6.9,0,12.6,1.6,17.2,4.9c4.6,3.3,6.9,7.6,6.9,13.1V1114.7z M795.8,1104.5c0-1.1-0.5-2.2-1.5-3.1c-0.8-0.9-1.9-1.4-3.4-1.4
				c-1.2,0-2.4,0.5-3.5,1.4c-0.7,0.7-1.2,1.7-1.3,3.1c0,0.7,0.1,1.3,0.3,1.8c0.2,0.5,0.5,1,1,1.5c0.5,0.3,1,0.6,1.5,0.8
				c0.5,0.2,1.2,0.3,2,0.4c0.8,0,1.4-0.1,1.9-0.3c0.5-0.2,1-0.5,1.5-0.9C795.3,1106.8,795.8,1105.7,795.8,1104.5z"/>
			<path fill="#1F65AA" d="M868.7,1104.6c0,1.5-0.3,2.9-0.8,4.1c-0.5,1.2-1.4,2.4-2.6,3.6c-2.1,2.1-4.7,3.2-8,3.2
				c-3.7,0-6.6-1.1-8.9-3.2c-2.1-2.3-3.2-5.1-3.2-8.4v-52.7h8.3v43.6c0.6-0.3,2-0.5,4-0.6c3,0,5.5,1,7.7,2.9
				C867.6,1099.1,868.7,1101.6,868.7,1104.6z M862.4,1104.5c0-1.2-0.5-2.2-1.4-3.1c-1-0.9-2.1-1.4-3.4-1.4c-1.4,0-2.5,0.5-3.5,1.4
				c-0.8,0.7-1.3,1.7-1.4,3.1c0,0.7,0.1,1.3,0.3,1.8c0.2,0.5,0.6,1,1.1,1.5c0.5,0.3,1,0.6,1.5,0.8c0.5,0.2,1.2,0.3,2,0.4
				c1.3,0,2.4-0.4,3.4-1.3C861.9,1106.9,862.4,1105.8,862.4,1104.5z"/>
			<path fill="#1F65AA" d="M923.3,1103.9c0,3.4-1.1,6.2-3.2,8.4c-2.1,2.1-5.1,3.2-8.9,3.2c-3.2,0-5.9-1.1-8.1-3.2
				c-2.1-2.3-3.2-4.9-3.2-7.8c0-2.9,1.1-5.3,3.3-7.4c2.2-2,4.8-3.1,7.8-3.1c1.2,0,2,0,2.4,0.1c0.5,0,1,0.2,1.6,0.5v-25.4
				c0-3.7-1.5-6.8-4.5-9.4c-3-2.5-6.6-3.8-10.9-3.8c-3.8,0-7.4,0.9-10.9,2.8c-3,1.9-5.2,4.6-6.5,8h-8.7c1.8-5.6,5.1-9.8,9.8-12.8
				c2.5-1.4,5-2.6,7.8-3.3c2.7-0.8,5.7-1.2,9-1.2c6.6,0,12.1,1.6,16.5,4.9c4.5,3.3,6.7,7.7,6.7,13.1V1103.9z M915.9,1104.5
				c0-1.1-0.5-2.2-1.6-3.1c-0.8-0.9-1.9-1.4-3.4-1.4c-1.2,0-2.4,0.5-3.5,1.4c-0.7,0.7-1.2,1.7-1.3,3.1c0,0.7,0.1,1.3,0.3,1.8
				c0.2,0.5,0.5,1,1,1.5c0.5,0.3,1,0.6,1.5,0.8c0.5,0.2,1.2,0.3,2,0.4c0.8,0,1.4-0.1,1.9-0.3c0.5-0.2,1-0.5,1.5-0.9
				C915.4,1106.8,915.9,1105.7,915.9,1104.5z"/>
			<path fill="#1F65AA" d="M924.2,1009.1c0,3.8-1.8,6.8-5.5,9.3c-3.6,2.4-7.8,3.7-12.4,3.7h-5.9c-0.8,0-1.5,0-2.3,0
				c-0.8,0-1.6,0.1-2.5,0.3c-1.4,0-3,0.8-4.9,2.4c-1.6,1.3-2.5,3.1-2.5,5.5c0,1.9,0.7,3.6,2.1,4.9c1,0.9,2,1.4,3,1.4l6-8.2
				c0.3,0.3,0.6,0.6,0.8,0.9c0.3,0.3,0.5,0.6,0.6,0.9l3.4,3.1c0.3-2,1.3-3.7,3-5.3c1.7-1.5,3.7-2.2,6.2-2.2c2.5,0,4.7,0.8,6.5,2.5
				c0.8,0.8,1.4,1.7,1.9,2.7c0.5,1,0.7,2.1,0.7,3.3c0,2.4-0.9,4.5-2.8,6.2c-0.9,0.8-2,1.4-3.3,1.8c-1.2,0.4-2.5,0.7-3.9,0.7
				c-1.2,0-2.4-0.1-3.6-0.4c-1.2-0.3-2.3-0.7-3.4-1.3c-2.2-1-4.2-2.5-5.8-4.4l-3.7,5.4h-4.7c-2.9,0-5.4-1-7.6-3.2
				c-2.2-2.1-3.3-5-3.3-8.5c0-3.4,1.4-6.5,4.2-9.2c2.6-2.4,5.3-3.8,8.3-4.1c2.4-0.4,4-0.6,4.8-0.6h2.1h3.4h3.2c2.7,0,5-0.6,6.9-1.7
				c1.7-1.4,2.6-3.4,2.6-6H924.2z M917,1034.4c0-2.3-1.2-3.5-3.6-3.5c-2.4,0-3.6,1.2-3.6,3.5c0,2.3,1.2,3.5,3.6,3.5
				C915.8,1037.8,917,1036.7,917,1034.4z"/>
			<path fill="#1F65AA" d="M993.4,1099.7c0,5-1.2,8.9-3.5,11.5c-2.3,2.3-6.4,3.5-12.2,3.5h-37.8v-6.1c3.2,0,5.4-0.5,6.6-1.4
				c1.2-1,1.8-2.9,1.8-5.8v-30.2c-0.4,0.2-0.8,0.3-1.3,0.4c-0.5,0.1-1.4,0.2-2.7,0.3c-3,0-5.6-1-7.9-3c-1-0.9-1.8-2-2.3-3.2
				c-0.6-1.2-0.8-2.6-0.8-4.2c0-2.9,1.1-5.4,3.2-7.6c2.1-2.2,4.9-3.3,8.2-3.3c3.6,0,6.5,1.1,8.6,3.3c2.2,2,3.3,4.7,3.3,8.2v46.3H973
				c5.1,0,8.3-0.5,9.7-1.7c1.5-1.4,2.3-4.2,2.3-8.4v-46.9h8.3V1099.7z M949.2,1061.4c0-1.2-0.5-2.2-1.4-3.1c-1-0.9-2.1-1.4-3.4-1.4
				c-1.3,0-2.5,0.5-3.5,1.5c-0.7,0.6-1.2,1.7-1.4,3.1c0,0.7,0.1,1.3,0.3,1.8c0.2,0.5,0.5,1,1.1,1.5c0.5,0.3,1,0.6,1.5,0.8
				c0.5,0.2,1.2,0.3,2,0.4c1.3,0,2.4-0.4,3.4-1.3C948.7,1063.7,949.2,1062.7,949.2,1061.4z"/>
			<path fill="#1F65AA" d="M1040.7,1104.6c0,1.5-0.3,2.9-0.8,4.1c-0.5,1.2-1.4,2.4-2.5,3.6c-1.9,2.1-4.6,3.2-7.9,3.2
				c-3.7,0-6.6-1.1-8.8-3.2c-1-1.1-1.8-2.4-2.3-3.7c-0.5-1.3-0.8-2.9-0.8-4.7v-84.2l-11.1,10.7c-2-4.3-3.7-7.7-5.1-10
				c-4.3-7-8.9-11.8-13.9-14.3l7.2-4.6c3.5,2.1,7,5.5,10.3,10.3c0.5,0.7,1,1.5,1.6,2.5c0.6,1,1.3,2.3,2.2,3.8l11-10.6
				c1.7,0,3.2,0.8,4.3,2.3c0.5,0.8,1,1.7,1.3,2.8c0.3,1.1,0.5,2.2,0.5,3.4v78.7c0.4-0.2,0.8-0.3,1.3-0.4c0.5-0.1,1.4-0.2,2.7-0.3
				c3,0,5.6,1,7.7,2.9C1039.7,1099.1,1040.7,1101.6,1040.7,1104.6z M1034.7,1104.5c0-1.1-0.5-2.2-1.6-3.1c-0.8-0.9-1.9-1.4-3.3-1.4
				c-1.4,0-2.5,0.5-3.5,1.4c-0.7,0.7-1.1,1.7-1.3,3.1c0,0.7,0.1,1.3,0.3,1.8c0.2,0.5,0.5,1,1,1.4c0.5,0.4,1.1,0.7,1.9,0.9
				c0.8,0.2,1.3,0.3,1.6,0.3c0.8,0,1.4-0.1,1.8-0.2c0.5-0.2,1-0.5,1.5-1C1034.2,1106.8,1034.7,1105.7,1034.7,1104.5z"/>
			<path fill="#1F65AA" d="M1105.4,1114.7h-8.3v-48.2c0-6.1-2.1-9.2-6.2-9.2c-1.3,0-2.3,1.1-2.9,3.4l-18.1,54h-9.1v-43.6
				c-0.4,0.2-0.8,0.3-1.3,0.4c-0.5,0.1-1.4,0.2-2.7,0.3c-3,0-5.6-1-7.9-3c-1-0.9-1.8-2-2.3-3.2c-0.6-1.2-0.9-2.6-0.9-4.2
				c0-2.9,1.1-5.4,3.2-7.6c2.2-2.2,4.9-3.3,8.2-3.3c3.6,0,6.5,1.1,8.6,3.3c2.2,2,3.3,4.8,3.3,8.2v21.8c0,1.1-0.1,2.5-0.2,4.3
				c-0.2,1.8-0.4,3.8-0.7,6.1c0,0.9-0.1,2-0.2,3.2c-0.1,1.2-0.3,2.5-0.5,4c0.3-1.4,0.6-2.5,0.7-3.3c0.2-0.8,0.3-1.4,0.6-1.9
				c0.9-3.5,1.6-6.2,2.3-8l9.9-30.5c1.5-4.7,4.9-7.1,10.5-7.1c4.3,0,7.7,1.2,10.1,3.5c1.2,1.1,2.2,2.6,2.8,4.4c0.6,1.8,1,4,1,6.7
				V1114.7z M1061.7,1061.4c0-1.2-0.5-2.2-1.4-3.1c-1-0.9-2.1-1.4-3.4-1.4c-1.3,0-2.5,0.5-3.5,1.5c-0.8,0.6-1.2,1.7-1.4,3.1
				c0,0.7,0.1,1.3,0.3,1.8c0.2,0.5,0.6,1,1.1,1.5c0.5,0.3,1,0.6,1.5,0.8c0.5,0.2,1.2,0.3,2,0.4c1.3,0,2.4-0.4,3.4-1.3
				C1061.2,1063.7,1061.7,1062.7,1061.7,1061.4z"/>
			<path fill="#1F65AA" d="M1168.6,1099.7c0,5.1-1.2,8.9-3.5,11.3c-2.3,2.4-6.4,3.6-12.2,3.6h-30.1v-22.4c0-3.2,0.8-5.8,2.3-7.8
				c0.8-0.8,2.2-1.9,4.4-3.2c-2.4-0.6-4.3-1.7-5.9-3.2c-1.6-1.7-2.4-3.7-2.4-6.2v-10c0-3.5,1-6.3,3.1-8.4c2.1-2.1,5.1-3.1,8.9-3.1
				c3.2,0,5.8,1.1,8,3.3c2.2,2,3.3,4.5,3.3,7.6c0,2.8-1.1,5.3-3.4,7.4c-1.1,1-2.2,1.8-3.4,2.3c-1.2,0.5-2.6,0.7-4.2,0.7
				c-2,0-3.3-0.2-4-0.6c0,1.8,0.9,3.4,2.8,4.9c2,1.4,4.8,2.1,8.4,2.1h5v6.5h-5.2c-6.2,0-9.4,2.7-9.4,8.2v15.5h17.2
				c5.1,0,8.3-0.5,9.7-1.7c1.5-1.4,2.3-4.2,2.3-8.4v-46.9h8.3V1099.7z M1138.3,1061.4c0-1.2-0.5-2.2-1.4-3.1c-1-0.9-2.1-1.4-3.4-1.4
				c-1.3,0-2.5,0.5-3.5,1.5c-0.8,0.6-1.2,1.7-1.4,3.1c0,0.7,0.1,1.3,0.3,1.8c0.2,0.5,0.5,1,1.1,1.5c0.5,0.3,1,0.6,1.5,0.8
				c0.5,0.2,1.2,0.3,2,0.4c1.3,0,2.4-0.4,3.4-1.3C1137.8,1063.7,1138.3,1062.7,1138.3,1061.4z"/>
		</g>
	</g>
</g>
</svg>
