<?xml version="1.0" encoding="utf-8"?>
<!-- Generator: Adobe Illustrator 18.0.0, SVG Export Plug-In . SVG Version: 6.00 Build 0)  -->
<!DOCTYPE svg PUBLIC "-//W3C//DTD SVG 1.1//EN" "http://www.w3.org/Graphics/SVG/1.1/DTD/svg11.dtd">
<svg version="1.1" id="Layer_1" xmlns="http://www.w3.org/2000/svg" xmlns:xlink="http://www.w3.org/1999/xlink" x="0px" y="0px"
	 viewBox="0 0 452 452" enable-background="new 0 0 452 452" xml:space="preserve">
<image overflow="visible" width="452" height="452" xlink:href="../sponsor_large.png" >
</image>
<ellipse fill="#FFFFFF" cx="226" cy="226" rx="175" ry="170.5"/>
<g>
	<path fill="#666666" d="M367.2,284.6c-0.6-1.7-0.8-3.6-0.8-5.9v-26c0-1.5,0.2-2.8,0.8-4c0.6-1.1,1.3-2.3,2.5-3l6.8-3l-7.8-5.1
		c-2.8-1.3-6.5-2.1-9.9-1.9c-3,0.2-5.9,0.8-8.3,2.1c-1.1-0.8-2.3-1.3-3.6-1.7c-1.7-0.4-3.4-0.8-5.3-0.8c-0.4,0-0.6,0-0.9,0
		c3.4-0.8,6.8-1.7,10.1-2.8c13.1,6.5,23.3-2.3,30.7-12c-4.7-0.9-11.4-1.7-15.4-4.2c-0.2-2.7-0.2-5.5-0.2-8.2
		c4.7-0.9,9.3-2.7,11.4-7.4c3.8-8.2-3-16.1-11.4-17.1l-0.2-11.4c0-0.2,0-0.6,0-0.9c4.2-1.1,8.7-0.4,12.9-0.2l-1.7-2.1l-4.7-5.9
		c-2.7-3.4-6.1-5.1-9.9-5.5c-4-0.4-8.2,0.6-11.8,2.5c-13.1-5.1-19.4-1.7-28.3,7.6l-0.6,0.6l-0.8-0.8c-7-7-13.8-12.3-24.3-6.6
		c-11.6-5.3-28.3-7.6-37.2,3.6c-1.7,2.3-3,4.9-3.2,7.8v-19c0-1.5,0.4-3.4,1.3-4.9c2.7-4,8.5-2.1,12.7-1.7
		c-4.2-9.7-11-16.7-23.3-13.3c-1.5,0.4-3,0.9-4.4,1.9c-11.6-8.5-26.9-11.8-41-9.3c-9.1,1.5-18,5.7-23.7,13.1c-4,5.3-5.7,12-7.8,18.2
		c-1.1-0.8-2.5-1.1-3.6-1.7c-8.2-2.5-15.9,1.1-23.3,3.8c-7.8-3.6-16.3-8-24.1-1.7c-7.4-4.7-15-6.3-23.9-4.7
		c-7.2,1.3-13.8,5.7-16.1,13.1c-0.9,3-0.9,6.3,0,9.5c3.6,11.4,18.4,14.6,25.4,4v36.4c-0.4,0.2-0.6,0.4-0.9,0.4
		c0.6-1.5,0.8-3.2,0.9-4.7c0.2-11.6-10.8-18.8-21.4-15.7c-10.8,3.2-14.8,15.6-11,25.4c4.2,10.8,15.4,15,26.2,15.2
		c-0.9,0.2-1.9,0.4-2.8,0.4l-7.8,1.5c2.7,3.8,5.5,7.2,6.6,11.8c-3.2,4.6-4.7,11.2-4.7,17.8c0,7.4,1.9,15.2,4.9,20.3
		c-0.9,6.5-4.2,9.7-6.1,12c5.5,0.6,10.6,1.5,16.1,0.4c2.1-0.4,4.2-1.1,6.1-2.1c9.7,1.9,19.2,2.8,29,1.5c7.2-0.8,15.4-2.7,22.4-0.9
		c2.8,0.8,5.5,1.9,8.2,2.8l1.5-4.7c6.5,2.1,12.1,4,19.4,3c3-0.4,6.1-1.1,8.7-2.3c8.3,4.6,16.1,2.5,24.5-0.4c6.6,0.8,15.4,3.2,22,1.3
		c9.1,3.2,19.7,2.8,26.9-4.2c3.6,2.3,8.3,4,13.1,3.8c3.8-0.2,7.4-0.9,11-2.1c3,1.1,6.6,1.9,10.2,2.7c9.9,1.9,20.3,2.1,30.2,0.8
		c4.4-0.6,8.9-1.7,12.7-3.4c4,1.7,8.2,3,12.7,2.7c5.1-0.4,9.7-2.8,14.2-4.7C372.5,291.6,368.7,287.8,367.2,284.6z M256.2,174
		c0.2,2.5,0.9,4.6,2.3,6.5c4.4,6.3,12.3,8.2,18.8,3.6c0.6-0.4,1.1-0.9,1.7-1.5c0,11.6,0.2,23.1,0,34.9c-4,2.1-9.9,2.5-14.2,3.4
		l2.1,2.5c-3-1.3-10.6-3.4-10.6-8V174z M227.2,256.5C227.2,256.7,227.2,256.7,227.2,256.5L227.2,256.5c0,0.2,0,0.4,0,0.4
		c0,1.1-1.7,2.1-4,2.8s-4.9,1.1-7.4,1.5v-5.5c1.5-0.4,4.4-0.8,6.8-0.6C224.7,255.4,226.6,255.8,227.2,256.5z M202.5,147.3
		c7,0.2,14.2,3.6,19.4,9.7v16.3c-5.3-2.3-11.4-3.6-17.1-3.6c-5.7,0.2-11,1.7-15.2,5.1l-0.2,0.2l-0.2,0.2l-0.2,0.2
		c-0.9,1.1-1.9,2.3-2.5,3.6v-10.8c0-2.7,9.5-5.7,12.3-6.8c-8.2-4.4-15.2-8.3-24.5-5.1c-0.6,0.2-1.1,0.4-1.7,0.8
		C181.3,149.7,191.5,146.9,202.5,147.3z M135.7,172.1L135.7,172.1c0-0.8,0-2.7,0.2-4.4c0.2-1.5,0.4-2.8,0.8-3.2l0,0l5.3-3.8l1.1-0.8
		l1.7,0.9l6.8,4.2l0,0l0.2,0.2c1.1,0.8,2.8,1.7,2.8,2.8v44l0,0l0,0l0,0c0,1.5-1.3,2.3-3,3c-2.1,0.8-4.6,0.9-6.1,0.9h-0.4l0,0
		c-1.3,0-2.7-0.2-3.8-0.4s-2.3-0.4-3.4-0.8c-0.4-0.2-1.1-0.4-1.9-0.8c-0.2,0-0.2-0.2-0.4-0.2L135.7,172.1z M104.1,235.7
		c5.5-0.9,11-3.4,15.4-5.9c3.4,1.5,7.4,2.7,11.6,3.4c-6.6-0.2-13.1,0.9-19,3.8C109.6,236,106.7,235.7,104.1,235.7z M155.7,267.9
		c-0.8,2.8-1.7,5.5-3.4,7.8c-5.9,7.6-18.4,8-24.1-0.2c-1.5-2.3-2.3-4.9-2.5-7.8l0,0c0-2.1,0.2-4,0.9-5.7
		c5.5-13.5,25.4-10.6,28.5,3.2l0.6,2.3V267.9z M162.9,233.2c-1.9,2.7-2.8,5.1-6.5,5.1c-4.4-1.5-9.1-2.8-13.8-3.8c0.4,0,0.6,0,0.9,0
		c6.8,0.2,13.7-0.4,19.7-1.5L162.9,233.2z M183.2,287.3c-2.7,3.2-6.8,6.1-11.2,7.8c2.1-8.3,2.1-21.6-5.5-27.7l0,0
		c-0.2-0.2-0.6-0.4-0.8-0.6c6.8-4.9,9.1-15.6,7.2-23.3v-0.2c4.6,2.1,10.8,4.7,10.8,9.5l0.2,32.1
		C183.7,285.7,183.7,286.7,183.2,287.3z M198.3,238.9c-9.5-4.7-17.6-1.9-26,2.7c-1.5-4.2-4.6-6.5-8-8.9c1.5-0.4,3-0.8,4.6-1.3
		c4.4,1.5,9.1,2.3,13.7,1.5c9.5-1.5,12.5-8.5,16.9-15.7c-2.7,0.2-9.7,2.1-12-0.9c-0.6-0.9-0.9-2.1-1.1-3c0-0.2,0-0.2,0-0.2v-21.1
		c0.9,2.1,2.3,3.8,4,4.9c7.2,5.3,19,2.8,21.2-6.3c3.4,1.5,8.3,4,9.9,7.6c0,3.6,1.3,14.8-0.4,17.6c-3.2,5.3-8.7,7.2-13.8,9.9l2.1,1.3
		c4.4,2.7,9.1,5.1,14.2,6.1c-1.7,0-3.2,0-4.7,0.2C210.7,234.1,206.1,234.9,198.3,238.9z M228.5,288.8c-0.4,0.2-0.8,0.6-0.9,0.8
		l-3,2.3l-4.4-2.1c-0.8-0.4-1.7-0.8-2.7-1.5c-0.8-0.6-1.5-1.1-1.7-1.7v-0.2v-0.2l0.2-6.5c1.1,0.8,2.3,1.5,3.4,2.3
		c1.9,1.3,3.8,2.5,5.7,3.6l0.4,0.2c0.9,0.6,3.2,1.7,4,2.5C229.1,288.4,228.9,288.6,228.5,288.8z M280.1,280.6
		c-0.6,4.4-1.7,7.2-4.7,10.4c-3-0.8-5.9-2.1-10.4-6.3c-3.8-5.1-7.4-10.6-11.8-15.4c-0.6-0.6-1.3-1.3-1.9-1.9c2.1-1.3,4-2.8,5.5-4.6
		c2.8-3.6,3.6-8,2.3-12.3c0-0.2,0-0.2,0-0.4v-0.2l0,0c3.2-2.1,6.3-4.2,9.5-6.3l1.1,0.6c2.5,1.1,8,2.5,9.7,4.6
		c0.9,1.1,0.9,3.2,0.9,4.7C280.5,262.6,281.2,271.9,280.1,280.6z M297.2,238.9c-0.8-0.6-1.5-0.9-2.3-1.3c-1.1-0.6-2.3-0.9-3.6-1.1
		c-2.5-0.6-4.7-0.4-7,0c-2.7,0.4-5.3,1.3-7.6,2.5l-8.3,4.2c-9.7-2.7-19-6.8-28.8-8.7c-2.5-0.4-5.3-0.8-8-0.9c2.3-0.2,4.7-0.9,7-2.1
		c4,2.1,7.8,3,11.6,2.8c7.2-0.2,13.7-4,20.1-7.2l0.2,0.2c5.9,7,17.3,9.3,25.6,5.5c3.2,0.9,6.3,2.1,9.5,2.8c0.8,0.2,1.5,0.4,2.3,0.4
		C304.4,236,300.8,236.8,297.2,238.9z M333,277.6c0,1.7-0.6,2.8-1.9,4l0,0c-3.8,2.8-12.1,2.3-16.1,0l0,0c-1.3-0.8-1.9-1.9-1.9-3.4
		v-25.4c0-1.3,0.2-2.7,0.8-3.6c2.7-4.2,16.7-4.7,18.8,0.9c0.2,0.8,0.4,1.7,0.4,2.5L333,277.6L333,277.6z M313.5,236.8
		c6.1,0.6,12.5,0.6,18.8-0.2c-3.4,1.3-6.5,3.4-9.1,6.5C320.9,240.4,317.5,237.9,313.5,236.8z M333.4,213.8c0,0-0.4,0.2-0.6,0.4
		c-0.8,0.6-1.7,0.9-2.3,1.1c-1.3,0.4-2.7,0.8-4.2,0.9c-1.7,0.2-3.4,0.4-4.9,0.4c-1.5,0-3.2,0-4.9-0.4c-1.3-0.2-2.8-0.6-4-0.9l0,0
		c-0.6-0.2-1.5-0.6-2.3-1.1c-0.4-0.2-0.6-0.4-0.6-0.6v-38.3c0-1.1,0.4-2.1,0.9-2.7c0.6-0.8,1.5-1.3,2.7-1.5l6.8-1.5h0.4l2.5,0.2
		l7.8,0.6c0.6,0,1.1,0.4,1.5,0.9c0.6,0.8,0.9,1.9,0.9,2.7v10.4c-0.9-0.9-2.3-1.5-3.4-2.1c-2.3-0.8-4.6-0.9-7-0.8s-4.7,1.1-6.8,2.3
		c-2.5,1.5-4.6,3.6-5.5,6.5c-0.4,0.9-0.6,1.9-0.6,2.8c0,0.9,0,1.9,0.2,2.8c0.4,2.3,1.5,4.4,3,6.1c1.5,1.7,3.6,3.2,5.9,4
		c3.2,1.1,5.9,1.7,8.3,1.7c2.1,0,4-0.2,6.1-0.6L333.4,213.8z"/>
	<path fill="#FFFFFF" d="M257.5,281.8c-1.5-2.1-3.2-4.4-4.9-6.6c-0.9-1.3-2.3-2.7-3.8-4.2c-1.3-1.1-2.8-2.5-4.7-4.2
		c4.2-1.7,7-3.6,8.7-5.3c2.1-2.3,2.8-4.4,2.8-6.8c0-1.3-0.4-2.3-0.6-3.2c-0.6-1.7-0.9-3,2.7-4.9l2.1-1.1l-2.1-0.9
		c-13.1-5.3-24.9-7.4-34.5-7c-10.8,0.4-20.3,1.9-24.9,6.5c-2.1-1.7-5.1-2.8-8.2-3.4c-3.6-0.6-7,0-10.4,1.1l-1.9,0.8
		c4.7,3,9.5,5.3,9.5,12.1V285c0,5.1-5.7,7.8-9.5,10.2c3.4,0.9,8.5,2.1,13.5,0.8c3-0.6,5.9-1.5,8.2-2.7c3.6,2.5,7,3.2,10.2,3.4
		c3.4,0,6.3-0.8,8.5-1.5l2.3-1.1c-2.7-1.3-6.5-3.4-7.6-4.6c-0.9-1.1-1.3-2.3-1.1-3.4l0.2-11.4l3.2-0.4c4.7,4.2,8.9,6.5,12.1,8.3
		c3,1.7,5.1,2.8,5.5,4.4c0.8,2.7-0.2,3.4-1.7,4.4c-0.4,0.2-3.2,2.3-3.8,2.7c3,0.4,6.1,0.6,9.1,1.1c3.8,0.6,5.3,0.9,9.3-0.6
		c3.6,1.5,8.2,2.1,12.1,1.9c5.1-0.2,8.2-0.9,12.3-3.8C263.2,290.7,261.3,287.3,257.5,281.8z M222.8,259.9c-2.3,0.8-4.9,1.1-7.4,1.5
		v-5.7c1.5-0.4,4.4-0.8,6.8-0.6c2.1,0.2,4,0.6,4.6,1.5c0,0,0,0,0,0.2l0,0v0.2C227,258.2,225.1,259.2,222.8,259.9z"/>
	<path fill="#FFCB05" d="M255.3,283.1c-1.7-2.3-3.2-4.6-4.9-6.6c-0.9-1.1-2.1-2.5-3.6-4c-1.5-1.5-3.4-3-5.9-5.1l-1.5-1.1l1.9-0.8
		c4.9-1.9,7.8-3.6,9.5-5.5c1.7-1.7,2.3-3.4,2.3-5.5c0-0.9-0.2-1.9-0.6-2.7c-0.6-2.3-1.1-4,2.1-6.3c-12-4.6-22.6-6.3-31.3-6.1
		c-10.6,0.4-19.9,1.9-23.7,6.5l-0.9,1.1l-1.1-0.8c-1.7-1.9-4.4-3-7.4-3.6c-2.3-0.4-5.3-0.4-7.6,0.2c4,1.7,7.4,5.7,7.4,11.8v30.5
		c0,5.1-2.3,7-5.5,9.3c2.3,0.2,4.4,0,6.5-0.4c3-0.6,5.9-1.5,8-2.8l0.8-0.6l0.8,0.6c3.4,2.5,6.6,3.4,9.5,3.4c1.7,0,3.4-0.2,4.9-0.6
		c-1.7-0.9-2.8-1.9-3.8-3c-1.3-1.5-1.9-3-1.9-4.7l0.2-12.3V273l1.1-0.2l4.9-0.6h0.6l0.4,0.4c4.7,4.2,9.1,6.6,12.1,8.3
		c3.6,2.1,5.9,3.4,6.5,5.7c0.9,3.4,0,4.7-1.7,5.9c1.3,0.2,2.5,0.4,3.2,0.6c3.4,0.6,4.7,0.8,8.3-0.6l0.6-0.2l0.6,0.2
		c3.2,1.5,7.4,2.1,11.2,1.9c3.2-0.2,5.1-0.2,6.8-1.1C259.6,290.9,258.3,287.3,255.3,283.1z M222.8,259.9c-2.3,0.8-4.9,1.1-7.4,1.5
		v-5.7c1.5-0.4,4.4-0.8,6.8-0.6c2.1,0.2,4,0.6,4.6,1.5c0,0,0,0,0,0.2l0,0v0.2C226.8,258.4,225.1,259.2,222.8,259.9z"/>
	<path fill="#FFFFFF" d="M232.5,254.4c-0.9-2.1-2.8-3.4-5.3-4.2c-2.3-0.8-4.7-0.9-7.2-0.9c-3.2,0-6.5,0.6-8.2,1.5
		c-0.8,0.4-1.3,0.8-1.9,1.1c-0.6,0.6-0.9,1.3-0.9,2.3v12.9v1.3l1.5-0.2c0.6,0,1.5-0.2,2.7-0.4c7.2-0.8,20.1-2.1,20.1-10.6
		C233.1,256.1,232.9,255.2,232.5,254.4z M222.8,259.9c-2.3,0.8-4.9,1.1-7.4,1.5v-5.7c1.5-0.4,4.4-0.8,6.8-0.6c2.1,0.2,4,0.6,4.6,1.5
		c0,0,0,0,0,0.2l0,0v0.2C227,258.2,225.1,259.2,222.8,259.9z"/>
	<path fill="none" d="M226.8,256.9C226.8,256.7,226.8,256.7,226.8,256.9c-0.6-0.9-2.5-1.3-4.6-1.5c-2.5-0.2-5.3,0-6.8,0.6v5.5
		c2.5-0.4,5.1-0.8,7.4-1.5c2.3-0.8,4-1.7,4-2.8V256.9L226.8,256.9z"/>
	<path fill="#666666" d="M230.2,255.2c-0.6-1.3-2.1-2.3-3.8-2.8c-1.9-0.6-4.2-0.9-6.3-0.8c-2.8,0-5.5,0.6-7,1.1
		c-0.4,0.2-0.9,0.4-1.1,0.8c-0.2,0.2-0.4,0.4-0.4,0.6v11.4c0.4,0,0.8,0,1.1-0.2c6.3-0.6,17.8-1.7,17.8-8.2
		C230.8,256.3,230.6,255.8,230.2,255.2z M222.8,259.7c-4,0.9-4.9,1.1-7.2,1.5v-5.5c1.7-0.2,4.2-0.6,6.6-0.6c4.2,0.2,4.4,1.7,4.4,1.7
		C226.6,257.1,227.2,258.8,222.8,259.7z"/>
	<path fill="#FFF200" d="M172.3,156.7"/>
	<path fill="#FFFFFF" d="M138.6,295.8c-4.9,0.8-9.5,0.8-14.2,0.6c-4.6-0.4-9.3-1.1-14.8-2.3c-1.5,0.9-3.4,1.7-5.7,2.3
		c-2.1,0.6-4.4,0.8-7,0.6h-1.9l0.6-1.5c0.4-0.8,0.8-1.3,1.1-2.1c1.1-1.9,2.1-3.6,0.6-7.2c-2.8-4.6-4.6-12-4.4-19.2
		c0.2-6.3,1.7-12.3,5.1-16.1l0,0c0,0-0.6-1.7-1.1-3.8c-0.6-1.7-1.3-3.4-2.3-4.7l-0.9-1.3l1.9-0.4c10.4-1.9,14-0.2,15.9,0.6
		c0.2,0,0.4,0.2,0.4,0.2c5.7-3.2,12.1-4.2,18.8-4.2c8.7,0.2,17.6,2.5,24.5,5.1c1.9,0.2,3.4-0.2,4.7-0.6c1.5-0.6,2.8-1.7,3.4-2.7
		l0.8-1.1l1.3,0.8c1.1,0.8,2.1,2.3,2.7,4c0.9,2.5,1.5,5.7,1.1,9.1c-0.2,3.4-1.3,6.6-3.4,9.5c-1.3,1.9-3.2,3.4-5.7,4.4l-1.5,0.6
		l-0.4-1.5c-1.1-4.7-3.4-8.3-6.5-10.6c-3.8-3-8.3-4.4-12.1-4.7c-2.8,0-5.3,0.6-7.4,1.5c-2.1,0.9-3.8,2.1-5.3,3.6
		c-1.7,1.7-3.2,3.6-4.2,5.9s-1.5,4.9-1.3,7.8l0,0c0.4,6.8,3.6,11.8,8,14.6c2.5,1.7,5.5,2.7,8.5,3c3,0.2,6.1-0.2,8.9-1.3
		c5.3-2.1,9.7-6.8,11.6-14.4l0.4-1.1l1.3,0.4c0.2,0,0.4,0,0.6,0.2l0,0c4.6,1.3,6.8,5.9,7.6,11c0.8,4.9,0.4,10.2-0.6,14
		c-0.2,0.4-0.2,0.8-0.4,1.1l-0.4,1.3l-1.5-0.6c-7.2-2.7-12-2.1-22.8-0.8C141.6,295.6,140.3,295.6,138.6,295.8L138.6,295.8z"/>
	<path fill="#FFFFFF" d="M356.2,239.8c3.8-0.6,7.8,0.2,10.4,1.3l1.5,0.8l-1.3,1.1c-1.1,0.9-2.3,2.1-3,3.8c-0.9,1.7-1.5,3.6-1.5,6.3
		v25.8c0,4,0.6,6.6,1.7,8.7c0.9,2.1,2.5,3.4,4,4.6l1.5,1.1l-1.7,0.8c-7.4,3-14.6-0.4-17.8-1.9c-3.6,1.9-8,3-12.5,3.8
		c-4.7,0.8-9.5,0.9-13.7,0.9c-4.9,0-10.1-0.6-14.6-1.3c-4.9-0.9-9.3-1.3-12.1-2.7c-7.6,2.5-13.8,2.3-19,0.8c2.1-1.9,3.4-4.2,4.6-7
		c0.9-2.7,1.5-5.9,1.5-10.8v-22c0-7-3-8.3-5.5-9.3l-0.4-0.2l-2.3-0.9l2.3-1.1c4.6-2.1,8.3-2.8,11.6-2.3c3,0.4,5.5,1.7,7.2,3.8
		c1.9-1.9,4.7-3,8-3.4c3.4-0.4,7.2,0,9.9,1.5l0,0c0.4,0.2,0.8,0.4,1.1,0.8l2.1,1.5l-2.7,0.4c-1.3,0.2-3,0.9-4.2,2.7
		c-0.9,1.3-1.5,3.2-1.5,5.9v25.2c0,1.5,0.4,2.8,0.9,3.8c0.6,1.1,1.5,2.1,2.8,2.8l0,0c1.3,0.8,2.8,1.3,4.6,1.9
		c1.7,0.4,3.8,0.6,6.1,0.6c2.1,0,4-0.2,5.7-0.8c1.5-0.4,3-1.1,4-1.9l0,0c1.1-0.8,1.9-1.9,2.5-3c0.6-1.1,0.8-2.5,0.8-4v-24.9
		c0-2.7-0.8-4.7-1.9-6.1c-1.5-2.1-3.2-2.8-4.2-2.8l-2.7-0.4c1.9-2.1,3.4-3,6.3-3.8c2.1-0.4,4.6-0.6,6.6-0.6s4,0.4,5.7,1.1
		c1.1,0.6,2.3,1.3,3.2,2.3C351.2,241,353.7,240.2,356.2,239.8z"/>
	<path fill="#FFCB05" d="M363.8,242.5c-2.1-0.6-4.7-0.9-7.2-0.6c-2.5,0.4-4.6,1.3-5.9,3l-1.1,1.5l-1.1-1.5c-0.9-1.1-1.9-2.1-3.2-2.7
		c-1.3-0.6-2.8-0.9-4.6-0.9c-1.9,0-4,0.2-5.9,0.6c-0.6,0.2-0.9,0.2-1.3,0.4c1.1,0.8,2.5,1.7,3.6,3.2c1.3,1.7,2.3,4.2,2.3,7.4v24.9
		c0,1.7-0.4,3.4-0.9,4.7c-0.8,1.5-1.7,2.7-3,3.8l0,0c-1.3,1.1-3,1.9-4.9,2.5c-1.9,0.6-4,0.8-6.5,0.8c-2.5,0-4.7-0.2-6.8-0.8
		c-2.1-0.6-3.8-1.1-5.5-2.1l0,0c-1.5-0.9-2.8-2.3-3.6-3.6c-0.8-1.5-1.1-3-1.1-4.9v-25.2c0-3,0.8-5.5,1.9-7c0.9-1.3,2.1-2.3,3.2-2.8
		c-1.9-0.8-4.4-0.8-6.8-0.6c-2.8,0.4-5.5,1.5-6.8,3.2c-0.2,0.2-0.2,0.4-0.4,0.6l-1.1,1.9l-1.3-1.9c-1.3-2.1-3.6-3.6-6.6-4
		c-2.1-0.2-4.6,0-7.6,1.1c2.7,1.3,4.9,3.8,4.9,10.4v22c0.6,5.7-0.9,12.7-3.6,16.3c4.9,0,9.3-0.2,13.7-2.5c2.8,1.3,8.7,2.8,12.9,3.6
		c4.4,0.8,9.3,1.3,14.2,1.3c4,0,8.5-0.2,13.1-0.9c4.4-0.8,8.7-1.9,12.1-3.8l0.6-0.4l0.8,0.4c0.2,0,0.4,0.2,0.6,0.2
		c2.7,1.3,8.2,4,13.8,2.5c-1.1-1.1-2.3-2.5-3-4.2c-1.1-2.3-1.9-5.3-1.9-9.7v-25.8c0-2.8,0.8-5.3,1.7-7.2
		C362.1,244.4,362.8,243.4,363.8,242.5z"/>
	<path fill="#FFCB05" d="M124.5,294.1c4.6,0.4,8.9,0.2,13.7-0.6l0,0c1.3-0.2,2.8-0.4,4.4-0.6c10.6-1.3,15.7-1.9,22.8,0.4
		c0.8-3.4,1.1-8.3,0.6-12.9c-0.6-4-2.1-7.4-4.9-8.7c-2.3,7.6-7.2,12.3-12.7,14.6c-3.4,1.3-7,1.9-10.4,1.5c-3.4-0.4-6.8-1.5-9.9-3.4
		c-4.9-3.2-8.5-8.9-8.9-16.3l0,0c-0.2-3.4,0.4-6.3,1.5-8.7c1.1-2.5,2.7-4.7,4.7-6.6c1.7-1.7,3.8-3,6.3-4.2c2.5-0.9,5.3-1.7,8.5-1.7
		h0.2c4.4,0.2,9.5,1.7,13.8,5.3c3,2.5,5.5,5.9,6.8,10.4c1.3-0.8,2.3-1.7,3.2-2.8c1.7-2.3,2.7-5.3,2.8-8.3c0.2-3-0.2-5.9-0.9-8.2
		c-0.2-0.8-0.6-1.3-0.9-1.9c-0.9,0.9-2.1,1.7-3.6,2.3c-1.7,0.8-3.8,1.1-6.3,0.8h-0.4c-6.6-2.5-15.4-4.7-23.7-4.9
		c-6.3-0.2-12.5,0.9-17.6,4l-1.3,0.4c-0.8,0-1.3-0.2-2.1-0.6c-1.5-0.6-4.4-1.9-12.5-0.6c0.6,1.1,1.1,2.5,1.7,3.8
		c0.9,2.7,1.1,5.3,0.6,5.9l0,0c-3,3.2-4.4,8.7-4.6,14.6c-0.2,6.8,1.5,14,4.2,18.2v0.2c1.9,4.6,0.8,6.6-0.6,9.1l0,0.2
		c1.5,0,2.8-0.2,4.2-0.6c2.1-0.6,4-1.3,5.3-2.1l1.1-0.2C115.1,292.9,119.8,293.7,124.5,294.1z"/>
	<path fill="#FFFFFF" d="M204.2,144c-10.4-0.9-21.1,1.3-28.5,6.1c1.9-4.4,3-7,6.3-10.4c4.9-5.5,12.1-8.9,20.3-10.2
		s17.1-0.6,25.2,2.3c5.3,1.9,10.2,4.6,14.6,8.2c0.2-0.2,0.2-0.2,0.4-0.4c2.8-2.3,6.5-3.2,9.7-3c3.4,0.2,6.6,1.3,8.5,3
		c0.4,0.2,0.6,0.6,0.8,0.9l1.5,1.9l-2.8-0.2c-0.2,0-0.2,0-0.4,0c-1.9,0-3.8,0.9-5.3,2.7c-1.5,1.7-2.7,4.4-2.8,7.2c0,0.4,0,0.6,0,0.9
		l-0.2,62c0,2.7,1.1,4.7,2.7,6.3c1.7,1.5,4,2.7,6.1,3.6l2.1,0.9l-2.1,0.9c-5.3,2.7-9.5,3.4-13.3,3.2c-3.4-0.2-6.5-1.5-9.5-3.4
		c-2.5,1.7-5.7,2.5-8.7,2.7c-5.5,0.2-11-1.5-12.3-2.3l-1.7-0.9l1.7-0.9c2.1-1.1,4-2.7,5.3-4.4c1.9-2.3,3-4.4,3-5.3v-18
		c0-0.2,0-0.2-0.2-0.4c-0.9-2.8-4.6-6.1-8.3-8.3c-3.2-1.9-6.6-3.2-8.9-3.2l0,0c0.2,0.6,0.4,1.1,0.4,1.5c0,0.6,0,1.1,0,1.5
		c-0.4,2.5-1.7,4.4-3.4,5.3c-1.7,1.1-3.8,1.5-5.7,1.5c-0.6,0-1.1,0-1.7-0.2c-2.5-0.4-4.2-1.3-5.7-2.7c-1.3-1.1-2.1-2.7-2.5-4.2
		c-0.4-1.5-0.6-3.2-0.4-4.7c0.4-2.3,1.3-4.4,2.7-5.9l0,0c4.2-3.6,10.2-4.7,16.5-4.2c6.1,0.6,12.5,2.8,17.3,5.9v-23.7
		C219.8,148.4,212,144.8,204.2,144z"/>
	<path fill="#FFFFFF" d="M101.2,168.3c1.3,1.9,1.5,4,0.9,5.9c-0.4,1.3-0.9,2.7-1.9,3.8c-0.9,1.1-2.1,2.1-3.4,2.8
		c-2.7,1.5-6.1,1.7-9.1-0.2l0,0c-3.2-1.9-5.3-4.9-5.7-8.2c-0.4-2.1,0-4.4,0.8-6.5c0.9-2.1,2.5-4,4.6-5.7c4.4-3.2,11.2-4.9,20.9-3.2
		c3.4,0.6,6.1,2.3,8.7,4c0.8,0.6,1.7,1.1,2.5,1.5c0.9-1.7,2.7-2.8,4.7-3.6c2.3-0.8,4.7-0.9,7.4-0.2c0.8,0.2,1.5,0.4,2.3,0.8l1.7,0.8
		l-1.5,1.1c-0.9,0.6-1.5,1.7-1.9,3.2c-0.4,1.9-0.8,4.2-0.8,7.6v42.5c0,2.3,3.4,4,7.6,4.9c1.9,0.4,3.8,0.6,5.9,0.6
		c1.9,0,4-0.2,5.7-0.6c4.2-0.9,7.4-3.4,7.4-7.2l0,0v-44.4c0-1.5-0.6-2.7-1.3-3.6c-0.9-0.9-2.1-1.9-3.6-2.7l-1.9-1.1l2.3-0.8
		c3.8-1.3,7.4-1.5,10.2-0.8c3,0.6,5.5,2.1,6.8,3.6c1.7-1.3,4.6-2.7,7.8-3.4c3.2-0.6,6.8-0.6,9.5,0.9l1.9,0.9l-2.1,0.9
		c-1.5,0.8-3,1.5-3.8,2.5c-0.9,0.9-1.3,2.1-1.3,3.8l-0.2,44.8c0,0.2,0,0.4,0,0.6c0.2,2.3,0.9,4.4,2.5,5.9c1.3,1.3,3,2.3,4.7,2.3l0,0
		h0.2l2.3-0.4l-1.1,1.7c-1.9,3-5.1,5.1-9.5,5.7c-3.8,0.6-8.2,0-12.9-1.9c-7,2.7-16.5,3.8-25.8,3.4c-9.1-0.4-17.8-2.1-23.9-5.1
		c-2.5,1.7-5.9,3.2-9.3,4.6c-4.4,1.5-8.9,2.5-11.4,2.5c-7.4-0.2-12.7-2.1-16.5-4.7c-3.4-2.5-5.7-5.5-6.6-8.7
		c-1.1-3.2-1.1-6.6-0.4-9.5l0,0c0.8-2.8,2.1-5.5,4.2-7c0.8-0.8,1.7-1.3,2.7-1.9c2.5-1.3,5.3-1.7,8.2-1.5c2.8,0.4,5.7,1.5,7.6,3.8
		c0.8,0.8,1.3,1.5,1.9,2.5l0,0c0.4,0.8,0.8,1.7,0.9,2.7c0.6,2.3,0.6,4.9-0.2,7c-0.8,2.3-2.5,4.4-4.7,5.5c-0.2,0-0.4,0.2-0.4,0.2
		c0.9,0.6,2.1,0.8,3.4,0.8c1.7,0,3.6-0.4,5.1-0.9c1.7-0.6,3.2-1.3,4.2-1.9c0.6-0.4,0.9-0.8,0.9-0.9l0,0v-45.2l0,0
		c0-1.1-0.8-2.1-1.7-2.7C104.6,168.7,102.5,168.3,101.2,168.3z"/>
	<path fill="#666666" d="M181.3,144.8c7-3.4,14.2-3.6,22-3.6c8.7,0.8,20.1,5.5,24.5,13.7l0.2,0.4V182v2.5l-2.1-1.5
		c-4.7-3.4-11.6-6.1-18-6.8c-5.5-0.6-10.6,0.4-14.2,3.4c-1.1,1.1-1.7,2.8-2.1,4.6c-0.2,1.3-0.2,2.7,0.2,4s0.9,2.5,1.9,3.2
		c0.9,0.9,2.3,1.7,4.2,1.9c0.4,0,0.9,0,1.3,0c1.3,0,2.8-0.4,4.2-1.1c1.1-0.8,2.1-2.1,2.3-3.8c0-0.4,0-0.8,0-1.1c0-0.4,0-0.6-0.2-0.9
		c-0.2-0.4-0.4-0.8-0.6-1.1l-0.9-1.1l1.5-0.6c0.2,0,0.4,0,0.6-0.2l0,0c3-0.6,8,0.9,12.3,3.6s8.3,6.3,9.5,9.7c0,0.2,0.2,0.4,0.2,0.6
		v0.2v18.2c0,1.3-1.3,4-3.6,6.6c-1.1,1.3-2.7,2.8-4.2,3.8c2.1,0.6,5.5,1.3,8.9,1.1c2.8-0.2,5.7-0.8,7.8-2.7l0.8-0.8l0.9,0.6
		c3,1.9,5.9,3.2,9.1,3.6c2.8,0.2,5.9-0.4,9.7-1.9c-1.7-0.9-3.2-1.9-4.7-3.2c-2.1-1.9-3.4-4.4-3.4-7.8l0.2-62c0-0.4,0-0.8,0-0.9
		c0.2-3.4,1.5-6.5,3.4-8.5c1.3-1.5,3.2-2.7,5.1-3.2c-1.5-0.9-3.6-1.5-5.7-1.5c-2.7-0.2-5.7,0.6-8,2.5c-0.4,0.4-0.8,0.6-1.1,0.9
		l-0.9,0.9l-0.9-0.9c-4.2-3.8-9.5-6.5-14.8-8.2c-7.8-2.7-15.9-3.2-23.5-2.1C196.1,133.4,186,137.4,181.3,144.8z"/>
	<path fill="#666666" d="M99.7,173.8c0.4-1.9,0-3.8-1.5-5.3l-0.9-0.9l1.3-0.8c0.4-0.2,0.8-0.4,1.3-0.6c0.4-0.2,0.9-0.2,1.5-0.2
		c1.9,0,4.6,0.6,6.6,1.9c1.7,1.1,2.8,2.5,2.8,4.6l0,0v45.2l0,0c0,0.9-0.8,1.9-1.9,2.7c-1.1,0.9-3,1.7-4.9,2.3
		c-1.9,0.6-4.2,0.9-6.1,0.9c-2.8,0-5.3-0.8-6.6-2.7l-1.3-1.1l1.7-0.4c0.6-0.2,1.1-0.4,1.7-0.8c1.7-0.9,3-2.5,3.6-4.4
		c0.6-1.9,0.8-4,0.2-5.9c-0.2-0.8-0.6-1.5-0.8-2.1l0,0c-0.4-0.8-0.9-1.5-1.5-2.1c-1.5-1.7-3.8-2.7-6.1-2.8c-2.3-0.2-4.6,0.2-6.5,1.1
		c-0.8,0.4-1.5,0.9-2.1,1.5l0,0c-1.5,1.3-2.8,3.4-3.4,5.9l0,0c-0.6,2.7-0.6,5.5,0.4,8.3c0.9,2.8,2.8,5.5,5.9,7.6
		c3.4,2.5,8.3,4,15,4.2c2.3,0,6.3-0.8,10.4-2.3c3.6-1.1,7-2.8,9.3-4.6l0.8-0.6l0.8,0.4c5.5,3,14.2,4.9,23.3,5.3
		c9.1,0.4,18.6-0.8,25.2-3.4h1.1c4.4,1.9,8.5,2.5,12,1.9c2.7-0.4,4.9-1.5,6.5-3.2c-1.7-0.4-3.4-1.5-4.7-2.8c-1.7-1.9-2.8-4.4-3-7.2
		c0-0.2,0-0.4,0-0.6l0.2-44.8c0-2.3,0.8-3.8,1.9-5.1c0.8-0.8,1.5-1.3,2.5-1.9c-1.9-0.2-3.8-0.2-5.5,0.2c-3.4,0.8-6.5,2.3-7.2,3.6
		l-1.1,1.7l-1.1-1.7c-0.9-1.3-3.2-3-6.3-3.8c-1.9-0.4-4-0.4-6.3,0.2c0.8,0.6,1.5,1.1,2.1,1.9c1.1,1.3,1.9,2.8,1.9,4.9v44l0,0
		c0,5.1-4,8.2-9.3,9.5c-2.1,0.6-4.2,0.8-6.5,0.8s-4.4-0.2-6.5-0.6c-5.5-1.1-9.7-3.6-9.7-7.2v-42.5c0-3.4,0.2-6.1,0.8-8
		c0.4-1.3,0.8-2.5,1.5-3.2c0,0-0.2,0-0.4,0c-2.1-0.6-4-0.4-5.7,0.2c-1.7,0.6-2.8,1.5-3.4,2.8c-0.2,0.2-0.2,0.4-0.2,0.6l-0.4,1.5
		l-1.5-0.8c-1.5-0.8-2.8-1.5-4.2-2.5c-2.5-1.5-4.9-3-7.8-3.6c-8.7-1.7-15-0.2-18.6,2.7c-1.7,1.3-3,3-3.8,4.7
		c-0.8,1.9-1.1,3.8-0.8,5.5c0.4,2.7,1.9,5.1,4.6,6.6l0,0c2.1,1.3,4.6,1.1,6.5,0.2c0.9-0.6,1.9-1.3,2.7-2.1
		C98.9,175.9,99.5,174.8,99.7,173.8z"/>
	<path fill="#FFFFFF" d="M360.2,161.3c1.5,0,3.2,0.4,4.7,1.1c1.3,0.6,2.7,1.7,3.6,3l1.3,1.7l0.2,0.2h-0.2h-2.5c-0.9,0-1.9,0-2.7,0.2
		c-0.8,0.2-1.5,0.2-2.1,0.6c-0.6,0.4-0.9,0.8-1.1,1.5c-0.4,0.8-0.4,1.7-0.4,2.8l0.4,15.2c0.2,0,0.4,0,0.6,0l0,0c0.2,0,0.4,0,0.6,0
		c2.1,0,4,0.4,5.5,1.1c1.7,0.8,3,1.9,4,3c0.4,0.6,0.8,1.1,0.9,1.7s0.4,1.3,0.6,1.9c0,0.6,0,1.3,0,1.9c0,0.6-0.2,1.3-0.6,1.9
		c-0.6,1.1-1.5,2.3-2.7,3.2c-1.1,0.8-2.7,1.5-4.4,1.9l-2.7,0.6h-0.2l0.2-0.2l1.3-2.3c0.4-0.6,0.6-1.1,0.8-1.7l0,0
		c0.2-0.6,0.2-0.9,0.2-1.3c0-0.2,0-0.4-0.2-0.6c0-0.2-0.2-0.4-0.4-0.4c-0.2-0.2-0.2-0.2-0.4-0.4c-0.2,0-0.4-0.2-0.6-0.2
		c-0.4,0-0.8,0-1.1,0c-0.4,0-0.8,0.2-1.1,0.4l0,0l0,0l0,0l0,0c-0.4,12.3,0,18.8,0,19l0,0l0,0l0,0l0,0c0,0.6,0.2,1.1,0.8,1.7
		c0.6,0.6,1.1,0.9,2.1,1.3c0.9,0.6,2.3,0.9,3.6,1.3c1.3,0.4,2.7,0.8,4.2,0.9l1.7,0.4h0.2v0.2l-0.9,1.3c-0.2,0.2-0.4,0.4-0.4,0.6l0,0
		c-0.2,0.2-0.4,0.4-0.4,0.6c-1.7,1.9-3.6,3.2-5.7,4c-2.3,0.9-4.7,1.3-7,1.3c-1.7,0-3.4-0.4-4.9-0.8c-1.7-0.6-3.2-1.1-4.2-1.9
		c-1.5,0.6-3.2,1.3-5.1,1.9c-1.9,0.6-3.8,1.1-6.1,1.5c-2.5,0.6-5.1,0.9-8,1.1c-3,0.2-6.3,0.4-10.1,0.4c-12.3,0-18.4-2.1-23.9-4l0,0
		c-0.6-0.2-1.3-0.4-1.9-0.6c-1.7,0.9-3.4,1.5-5.3,1.9s-4,0.4-6.1,0c-2.3-0.4-4.4-0.9-6.3-2.1c-1.9-0.9-3.6-2.3-4.7-3.8l-1.1-1.3
		v-0.2h0.2l1.9-0.4c1.1-0.2,2.3-0.6,3.4-0.8c1.1-0.4,2.1-0.8,2.8-1.1c0.8-0.4,1.3-0.8,1.7-1.3s0.8-1.1,0.8-1.7v-0.9V214l0,0v-32.4
		l0,0v-0.2l0,0c0.4-1.1,0.4-2.3,0.4-3.2s-0.4-1.9-0.8-2.5c-0.2-0.4-0.6-0.8-0.8-0.9c-0.4-0.4-0.8-0.6-1.1-0.8
		c-0.4-0.2-0.8-0.4-1.1-0.4c-0.4-0.2-0.8-0.2-1.1-0.2c-0.2,0-0.4,0-0.6,0c-0.2,0-0.2,0-0.4,0c0.2,0.4,0.4,0.8,0.4,0.9
		c0.2,0.4,0.2,0.8,0.2,1.3c0,0.6,0,1.1-0.2,1.5c-0.2,0.6-0.4,1.1-0.8,1.5c-0.4,0.6-0.8,0.9-1.1,1.3c-0.4,0.4-0.9,0.8-1.5,1.1
		c-1.1,0.6-2.3,0.9-3.8,1.1c-1.3,0.2-2.8,0-4.4-0.4l0,0l-0.4-0.2l0,0c-2.1-1.1-3.6-2.5-4.6-4c-0.9-1.7-1.5-3.4-1.3-5.3
		c0-0.9,0.2-1.9,0.6-2.8c0.4-0.9,0.8-1.7,1.5-2.7c0.6-0.8,1.3-1.7,2.3-2.5c0.8-0.8,1.7-1.3,2.8-1.9c3.4-1.9,8.2-3,13.7-2.7
		c4.7,0.4,10.2,1.9,16.1,4.9c0.9-0.8,2.5-1.5,4-2.1c1.3-0.4,2.8-0.8,4.6-0.8c1.5,0,3,0.2,4.6,0.8c1.3,0.6,2.5,1.3,3.6,2.3l1.3,1.3
		l0.2,0.2h-0.2l-2.1,0.4c-0.9,0.2-1.9,0.6-2.7,0.9c-0.8,0.6-1.5,1.1-2.1,1.7c-0.6,0.8-1.1,1.5-1.3,2.5c-0.4,0.9-0.6,1.9-0.6,2.8
		v38.9c0,1.5,0.8,2.7,2.3,3.6c1.5,1.1,3.8,1.9,6.5,2.5c0.9,0.2,2.1,0.4,3.2,0.4c1.1,0.2,2.3,0.2,3.4,0.2s2.3,0,3.4-0.2
		s2.3-0.2,3.2-0.4c2.7-0.6,5.1-1.3,6.8-2.5c1.5-0.9,2.3-2.3,2.3-3.6v-11.8c-1.3,0.4-2.7,0.8-4,1.1c-1.3,0.2-2.5,0.6-3.6,0.6
		c-1.5,0.2-2.8,0-4.4-0.2c-1.5-0.2-3.2-0.8-4.9-1.3c-0.9-0.4-1.7-0.8-2.3-1.1c-0.8-0.6-1.3-0.9-1.9-1.5l0,0l0,0
		c-0.6-0.6-1.1-1.3-1.5-2.1c-0.4-0.8-0.8-1.5-0.8-2.3c-0.2-1.1-0.2-2.3,0.2-3.2c0.4-1.1,0.9-2.1,1.9-3c0.6-0.6,1.3-1.1,2.1-1.5
		c0.8-0.4,1.5-0.9,2.5-1.1c0.9-0.4,1.7-0.6,2.7-0.6c0.9-0.2,1.7-0.2,2.7-0.2c1.5,0,2.8,0.4,4.2,1.1c1.1,0.6,2.1,1.5,2.8,2.7l0,0l0,0
		l-1.5,1.5l0,0l0,0h-0.2h-0.2l0,0c-0.4,0-0.8,0-1.1,0.2c-0.4,0-0.8,0.2-0.9,0.4c-0.4,0.2-0.6,0.4-0.8,0.6c-0.2,0.2-0.4,0.6-0.4,0.8
		v0.2v0.2l0,0l0,0l0,0l0,0l0,0c0,0.2,0,0.4,0.2,0.4l0,0c0.2,0.2,0.2,0.4,0.4,0.6c0.4,0.2,0.8,0.4,1.1,0.6c0.4,0.2,0.9,0.2,1.5,0.2
		l0,0l0,0c0.8,0,1.5,0,2.3,0l0,0c0.8,0,1.3-0.2,1.9-0.4c0.6-0.2,0.9-0.4,1.5-0.6c0.4-0.2,0.8-0.4,1.1-0.8v-19.4
		c0-0.9-0.2-1.9-0.6-2.8c-0.4-0.9-0.8-1.7-1.3-2.5c-0.6-0.6-1.1-1.1-1.9-1.5c-0.6-0.4-1.3-0.6-2.3-0.8l-2.5-0.2h-0.2l0.2-0.2
		l1.5-1.7c1.1-1.1,2.3-1.9,3.8-2.5c1.5-0.6,3.2-0.8,5.1-0.8s3.8,0.4,5.5,0.8c2.3,0.6,4.6,1.3,6.1,2.1c1.3-0.8,3-1.7,5.1-2.3
		C356.7,161.5,358.5,161.1,360.2,161.3z"/>
	<path fill="#666666" d="M364.5,164.9c-0.6-0.4-1.3-0.8-1.9-0.9c-0.8-0.2-1.5-0.4-2.5-0.4c-1.5,0-3,0.4-4.4,0.8
		c-1.9,0.6-3.6,1.5-4.6,2.3l-0.8,0.4l0,0l0,0l-0.8-0.4c-1.3-0.6-3.4-1.5-5.7-2.1c-1.7-0.4-3.6-0.8-5.3-0.8c-0.9,0-1.9,0-2.8,0.2
		c-0.8,0.2-1.5,0.4-2.1,0.8c0.6,0.2,1.1,0.6,1.7,0.9c0.6,0.4,1.1,0.9,1.5,1.5c0.8,0.9,1.3,2.1,1.7,3.2s0.6,2.5,0.6,3.6l0,0l0,0l0,0
		v19.9v0.4l0,0l0,0l-0.4,0.4c-0.6,0.6-1.1,0.9-1.9,1.3c-0.8,0.4-1.5,0.6-2.3,0.9c-0.8,0.2-1.5,0.4-2.5,0.6c-0.8,0-1.7,0.2-2.7,0l0,0
		l0,0c-0.9,0-1.7-0.2-2.5-0.4c-0.8-0.2-1.5-0.6-1.9-1.1c-0.6-0.4-0.9-0.9-1.1-1.3c-0.2-0.6-0.4-0.9-0.4-1.5l0,0l0,0l0,0l0,0l0,0
		c0-0.2,0-0.2,0-0.4s0-0.2,0-0.4c0.2-0.6,0.4-1.1,0.9-1.7c0.4-0.6,0.9-0.9,1.5-1.3c0.2-0.2,0.6-0.2,0.8-0.4c0.2,0,0.4-0.2,0.8-0.2
		c-0.4-0.2-0.8-0.4-1.3-0.6c-0.6-0.2-1.1-0.2-1.7-0.4c-0.8,0-1.3,0-2.1,0c-0.8,0.2-1.3,0.2-2.1,0.6c-0.8,0.2-1.3,0.6-1.9,0.9
		c-0.6,0.4-1.1,0.8-1.5,1.1c-0.6,0.6-0.9,1.3-1.3,2.1c-0.2,0.8-0.4,1.5-0.2,2.3c0.2,0.6,0.4,1.1,0.6,1.7c0.2,0.6,0.6,1.1,1.1,1.5
		l0,0c0.4,0.4,0.9,0.9,1.5,1.3c0.6,0.4,1.1,0.6,1.7,0.9c1.5,0.6,3,0.9,4.4,1.1c1.3,0.2,2.5,0.2,3.8,0.2c1.3-0.2,2.7-0.4,4-0.8
		c1.5-0.4,3-0.8,4.7-1.3l1.7-0.6h0.2v0.2v1.5v13.5c0,2.1-1.1,3.8-3,5.1c-2.1,1.5-4.9,2.7-8.3,3.2c-1.1,0.2-2.3,0.4-3.6,0.6
		c-1.1,0.2-2.5,0.2-3.8,0.2s-2.5,0-3.8-0.2c-1.1-0.2-2.5-0.2-3.6-0.6c-3.2-0.6-6.1-1.7-8-3.2c-1.7-1.3-2.8-3-2.8-5.1v-38.9
		c0-1.1,0.2-2.3,0.6-3.6c0.4-1.1,0.9-2.1,1.7-3.2c0.6-0.6,1.1-1.1,1.9-1.7c0.6-0.4,1.3-0.9,2.1-1.1c-0.6-0.4-1.3-0.6-1.9-0.8
		c-0.8-0.2-1.7-0.2-2.5-0.2c-1.5,0-2.8,0.4-4,0.8c-1.3,0.6-2.7,1.3-3.2,1.9l-0.8,0.8l0,0l0,0l-0.9-0.6c-5.7-3-10.6-4.6-15.2-4.9
		c-5.1-0.6-9.5,0.4-12.7,2.3c-0.9,0.6-1.7,0.9-2.3,1.7c-0.8,0.6-1.3,1.3-1.9,1.9c-0.6,0.8-0.9,1.3-1.1,2.1c-0.2,0.8-0.4,1.5-0.6,2.1
		c-0.2,1.3,0.2,2.7,0.9,4c0.8,1.1,1.9,2.3,3.4,3c1.1,0.2,2.3,0.4,3.2,0.2c0.9,0,1.9-0.4,2.7-0.8c0.4-0.2,0.8-0.4,0.9-0.8
		c0.4-0.2,0.6-0.6,0.8-0.9c0.2-0.4,0.4-0.6,0.4-0.9s0.2-0.6,0.2-0.9s-0.2-0.8-0.2-0.9c-0.2-0.4-0.4-0.6-0.6-0.8l-0.8-0.6l0,0l0,0
		l0.6-0.8c0.4-0.6,0.9-0.9,1.7-1.1s1.5-0.4,2.5-0.4c0.6,0,1.1,0,1.7,0.2c0.6,0.2,1.1,0.4,1.7,0.6c0.6,0.4,1.1,0.6,1.7,1.1
		c0.6,0.4,0.9,0.9,1.3,1.5c0.6,0.9,0.9,1.9,1.1,3.2c0.2,1.1,0,2.5-0.4,4V214c0,0,0,1.5,0,2.8c0,0.6,0,0.9,0,1.1l0,0
		c0,1.1-0.6,2.1-1.1,3c-0.8,0.8-1.7,1.5-2.7,2.1c-0.8,0.4-1.5,0.8-2.5,0.9c-0.8,0.2-1.7,0.6-2.5,0.8c0.9,0.9,2.3,1.5,3.6,2.1
		c1.3,0.6,2.8,0.9,4.4,1.3c1.7,0.2,3.6,0.2,5.3,0c1.5-0.4,3.2-0.9,4.6-1.7l0.6-0.4l0,0l0,0l0.8,0.2c0.8,0.2,1.7,0.6,2.7,0.9l0,0l0,0
		l0,0c5.3,1.7,11.2,3.8,23,3.8c3.6,0,6.8-0.2,9.9-0.4c2.8-0.2,5.5-0.6,7.8-1.1c2.3-0.6,4.4-0.9,6.3-1.7c1.9-0.6,3.6-1.3,5.1-1.9
		l0.8-0.4l0,0l0,0l0.6,0.6l0,0c0,0,0,0,0.2,0l0,0l0,0V226v0.2c0.8,0.6,1.9,1.1,3.4,1.5c1.3,0.4,2.8,0.6,4.4,0.8
		c1.7,0,3.8-0.2,5.5-0.9c1.5-0.6,3-1.5,4.4-2.8c-1.1-0.2-2.3-0.6-3.2-0.9c-1.1-0.4-2.1-0.8-3-1.1c-1.3-0.6-2.5-1.3-3-2.1
		c-0.8-0.8-1.1-1.9-1.1-3c0-0.2-0.2-2.1-0.2-5.5s0-8.3,0.2-14.6v-0.8l0,0l0,0l0.8-0.2c0.2,0,0.2,0,0.4,0s0.2,0,0.4,0
		c0.6-0.4,1.3-0.6,2.1-0.6s1.5,0,2.1,0c0.4,0,0.9,0.2,1.3,0.4c0.4,0.2,0.8,0.4,1.1,0.8c0.4,0.4,0.6,0.8,0.8,1.1l0,0
		c0.2,0.4,0.4,0.8,0.4,1.3c0,0.2,0,0.6,0,0.9c0,0.2,0,0.6-0.2,0.8c0.6-0.4,1.1-0.8,1.5-1.1c0.4-0.6,0.8-0.9,1.1-1.5
		c0.2-0.4,0.4-0.8,0.4-1.3l0,0c0-0.4,0-0.9,0-1.3c0-0.4-0.2-0.9-0.4-1.3c-0.2-0.4-0.4-0.8-0.8-1.1c-0.8-0.9-1.7-1.7-2.8-2.3
		c-1.1-0.6-2.7-0.8-4.2-0.8c-0.2,0-0.4,0-0.6,0c-0.2,0-0.4,0-0.6,0s-0.4,0-0.6,0c-0.2,0-0.4,0-0.6,0l-1.3,0.2l0,0v-0.2v-1.1
		l-0.4-16.3c0-1.7,0.2-3,0.8-4.2s1.3-1.7,2.1-2.3c0.6-0.4,1.1-0.6,1.7-0.8C363.4,165.1,364,165.1,364.5,164.9z"/>
</g>
</svg>
