<?xml version="1.0" encoding="utf-8"?>
<!-- Generator: Adobe Illustrator 18.0.0, SVG Export Plug-In . SVG Version: 6.00 Build 0)  -->
<!DOCTYPE svg PUBLIC "-//W3C//DTD SVG 1.1//EN" "http://www.w3.org/Graphics/SVG/1.1/DTD/svg11.dtd">
<svg version="1.1" id="Layer_1" xmlns="http://www.w3.org/2000/svg" xmlns:xlink="http://www.w3.org/1999/xlink" x="0px" y="0px"
	 viewBox="0 0 46 43.8" enable-background="new 0 0 46 43.8" xml:space="preserve">
<g id="Layer_1_1_">
	<g>
		<g>
			<defs>
				<polyline id="SVGID_1_" points="810,435.9 -190,435.9 -190,-159.4 810,-159.4 				"/>
			</defs>
			<clipPath id="SVGID_2_">
				<use xlink:href="#SVGID_1_"  overflow="visible"/>
			</clipPath>
		</g>
		<g>
			<defs>
				<polyline id="SVGID_3_" points="810,435.9 -190,435.9 -190,-159.4 810,-159.4 				"/>
			</defs>
			<clipPath id="SVGID_4_">
				<use xlink:href="#SVGID_3_"  overflow="visible"/>
			</clipPath>
		</g>
		<g>
			<defs>
				<polyline id="SVGID_5_" points="810,435.9 -190,435.9 -190,-159.4 810,-159.4 				"/>
			</defs>
			<clipPath id="SVGID_6_">
				<use xlink:href="#SVGID_5_"  overflow="visible"/>
			</clipPath>
		</g>
		<g>
			<defs>
				<polyline id="SVGID_7_" points="810,435.9 -190,435.9 -190,-159.4 810,-159.4 				"/>
			</defs>
			<clipPath id="SVGID_8_">
				<use xlink:href="#SVGID_7_"  overflow="visible"/>
			</clipPath>
		</g>
		<g>
			<defs>
				<polyline id="SVGID_9_" points="810,435.9 -190,435.9 -190,-159.4 810,-159.4 				"/>
			</defs>
			<clipPath id="SVGID_10_">
				<use xlink:href="#SVGID_9_"  overflow="visible"/>
			</clipPath>
		</g>
		<g>
			<defs>
				<polyline id="SVGID_11_" points="810,435.9 -190,435.9 -190,-159.4 810,-159.4 				"/>
			</defs>
			<clipPath id="SVGID_12_">
				<use xlink:href="#SVGID_11_"  overflow="visible"/>
			</clipPath>
		</g>
		<g>
			<defs>
				<polyline id="SVGID_13_" points="810,435.9 -190,435.9 -190,-159.4 810,-159.4 				"/>
			</defs>
			<clipPath id="SVGID_14_">
				<use xlink:href="#SVGID_13_"  overflow="visible"/>
			</clipPath>
		</g>
		<g>
			<defs>
				<polyline id="SVGID_15_" points="810,435.9 -190,435.9 -190,-159.4 810,-159.4 				"/>
			</defs>
			<clipPath id="SVGID_16_">
				<use xlink:href="#SVGID_15_"  overflow="visible"/>
			</clipPath>
		</g>
		<g>
			<defs>
				<polyline id="SVGID_17_" points="810,435.9 -190,435.9 -190,-159.4 810,-159.4 				"/>
			</defs>
			<clipPath id="SVGID_18_">
				<use xlink:href="#SVGID_17_"  overflow="visible"/>
			</clipPath>
		</g>
		<g>
			<defs>
				<polyline id="SVGID_19_" points="810,435.9 -190,435.9 -190,-159.4 810,-159.4 				"/>
			</defs>
			<clipPath id="SVGID_20_">
				<use xlink:href="#SVGID_19_"  overflow="visible"/>
			</clipPath>
		</g>
		<g>
			<defs>
				<polyline id="SVGID_21_" points="810,435.9 -190,435.9 -190,-159.4 810,-159.4 				"/>
			</defs>
			<clipPath id="SVGID_22_">
				<use xlink:href="#SVGID_21_"  overflow="visible"/>
			</clipPath>
		</g>
		<g>
			<defs>
				<polyline id="SVGID_23_" points="810,435.9 -190,435.9 -190,-159.4 810,-159.4 				"/>
			</defs>
			<clipPath id="SVGID_24_">
				<use xlink:href="#SVGID_23_"  overflow="visible"/>
			</clipPath>
		</g>
		<g>
			<defs>
				<polyline id="SVGID_25_" points="810,435.9 -190,435.9 -190,-159.4 810,-159.4 				"/>
			</defs>
			<clipPath id="SVGID_26_">
				<use xlink:href="#SVGID_25_"  overflow="visible"/>
			</clipPath>
		</g>
		<g>
			<defs>
				<polyline id="SVGID_27_" points="810,435.9 -190,435.9 -190,-159.4 810,-159.4 				"/>
			</defs>
			<clipPath id="SVGID_28_">
				<use xlink:href="#SVGID_27_"  overflow="visible"/>
			</clipPath>
		</g>
		<g>
			<defs>
				<polyline id="SVGID_29_" points="810,435.9 -190,435.9 -190,-159.4 810,-159.4 				"/>
			</defs>
			<clipPath id="SVGID_30_">
				<use xlink:href="#SVGID_29_"  overflow="visible"/>
			</clipPath>
		</g>
		<g>
			<defs>
				<polyline id="SVGID_31_" points="810,435.9 -190,435.9 -190,-159.4 810,-159.4 				"/>
			</defs>
			<clipPath id="SVGID_32_">
				<use xlink:href="#SVGID_31_"  overflow="visible"/>
			</clipPath>
		</g>
		<g>
			<defs>
				<polyline id="SVGID_33_" points="810,435.9 -190,435.9 -190,-159.4 810,-159.4 				"/>
			</defs>
			<clipPath id="SVGID_34_">
				<use xlink:href="#SVGID_33_"  overflow="visible"/>
			</clipPath>
		</g>
		<g>
			<defs>
				<polyline id="SVGID_35_" points="810,435.9 -190,435.9 -190,-159.4 810,-159.4 				"/>
			</defs>
			<clipPath id="SVGID_36_">
				<use xlink:href="#SVGID_35_"  overflow="visible"/>
			</clipPath>
		</g>
		<g>
			<defs>
				<polyline id="SVGID_37_" points="810,435.9 -190,435.9 -190,-159.4 810,-159.4 				"/>
			</defs>
			<clipPath id="SVGID_38_">
				<use xlink:href="#SVGID_37_"  overflow="visible"/>
			</clipPath>
		</g>
		<g>
			<defs>
				<polyline id="SVGID_39_" points="810,435.9 -190,435.9 -190,-159.4 810,-159.4 				"/>
			</defs>
			<clipPath id="SVGID_40_">
				<use xlink:href="#SVGID_39_"  overflow="visible"/>
			</clipPath>
		</g>
		<g>
			<defs>
				<polyline id="SVGID_41_" points="810,435.9 -190,435.9 -190,-159.4 810,-159.4 				"/>
			</defs>
			<clipPath id="SVGID_42_">
				<use xlink:href="#SVGID_41_"  overflow="visible"/>
			</clipPath>
		</g>
		<g>
			<defs>
				<polyline id="SVGID_43_" points="810,435.9 -190,435.9 -190,-159.4 810,-159.4 				"/>
			</defs>
			<clipPath id="SVGID_44_">
				<use xlink:href="#SVGID_43_"  overflow="visible"/>
			</clipPath>
		</g>
		<g>
			<defs>
				<polyline id="SVGID_45_" points="810,435.9 -190,435.9 -190,-159.4 810,-159.4 				"/>
			</defs>
			<clipPath id="SVGID_46_">
				<use xlink:href="#SVGID_45_"  overflow="visible"/>
			</clipPath>
		</g>
		<g>
			<defs>
				<polyline id="SVGID_47_" points="810,435.9 -190,435.9 -190,-159.4 810,-159.4 				"/>
			</defs>
			<clipPath id="SVGID_48_">
				<use xlink:href="#SVGID_47_"  overflow="visible"/>
			</clipPath>
		</g>
		<g>
			<defs>
				<polyline id="SVGID_49_" points="810,435.9 -190,435.9 -190,-159.4 810,-159.4 				"/>
			</defs>
			<clipPath id="SVGID_50_">
				<use xlink:href="#SVGID_49_"  overflow="visible"/>
			</clipPath>
		</g>
		<g>
			<defs>
				<polyline id="SVGID_51_" points="810,435.9 -190,435.9 -190,-159.4 810,-159.4 				"/>
			</defs>
			<clipPath id="SVGID_52_">
				<use xlink:href="#SVGID_51_"  overflow="visible"/>
			</clipPath>
		</g>
		<g>
			<defs>
				<polyline id="SVGID_53_" points="810,435.9 -190,435.9 -190,-159.4 810,-159.4 				"/>
			</defs>
			<clipPath id="SVGID_54_">
				<use xlink:href="#SVGID_53_"  overflow="visible"/>
			</clipPath>
		</g>
		<g>
			<defs>
				<polyline id="SVGID_55_" points="810,435.9 -190,435.9 -190,-159.4 810,-159.4 				"/>
			</defs>
			<clipPath id="SVGID_56_">
				<use xlink:href="#SVGID_55_"  overflow="visible"/>
			</clipPath>
		</g>
		<g>
			<defs>
				<polyline id="SVGID_57_" points="810,435.9 -190,435.9 -190,-159.4 810,-159.4 				"/>
			</defs>
			<clipPath id="SVGID_58_">
				<use xlink:href="#SVGID_57_"  overflow="visible"/>
			</clipPath>
		</g>
		<g>
			<defs>
				<polyline id="SVGID_59_" points="810,435.9 -190,435.9 -190,-159.4 810,-159.4 				"/>
			</defs>
			<clipPath id="SVGID_60_">
				<use xlink:href="#SVGID_59_"  overflow="visible"/>
			</clipPath>
		</g>
		<g>
			<defs>
				<polyline id="SVGID_61_" points="810,435.9 -190,435.9 -190,-159.4 810,-159.4 				"/>
			</defs>
			<clipPath id="SVGID_62_">
				<use xlink:href="#SVGID_61_"  overflow="visible"/>
			</clipPath>
		</g>
		<g>
			<defs>
				<polyline id="SVGID_63_" points="810,435.9 -190,435.9 -190,-159.4 810,-159.4 				"/>
			</defs>
			<clipPath id="SVGID_64_">
				<use xlink:href="#SVGID_63_"  overflow="visible"/>
			</clipPath>
		</g>
		<g>
			<defs>
				<polyline id="SVGID_65_" points="810,435.9 -190,435.9 -190,-159.4 810,-159.4 				"/>
			</defs>
			<clipPath id="SVGID_66_">
				<use xlink:href="#SVGID_65_"  overflow="visible"/>
			</clipPath>
		</g>
		<g>
			<defs>
				<polyline id="SVGID_67_" points="810,435.9 -190,435.9 -190,-159.4 810,-159.4 				"/>
			</defs>
			<clipPath id="SVGID_68_">
				<use xlink:href="#SVGID_67_"  overflow="visible"/>
			</clipPath>
		</g>
		<g>
			<defs>
				<polyline id="SVGID_69_" points="810,435.9 -190,435.9 -190,-159.4 810,-159.4 				"/>
			</defs>
			<clipPath id="SVGID_70_">
				<use xlink:href="#SVGID_69_"  overflow="visible"/>
			</clipPath>
		</g>
		<g>
			<defs>
				<polyline id="SVGID_71_" points="810,435.9 -190,435.9 -190,-159.4 810,-159.4 				"/>
			</defs>
			<clipPath id="SVGID_72_">
				<use xlink:href="#SVGID_71_"  overflow="visible"/>
			</clipPath>
		</g>
		<g>
			<defs>
				<polyline id="SVGID_73_" points="810,435.9 -190,435.9 -190,-159.4 810,-159.4 				"/>
			</defs>
			<clipPath id="SVGID_74_">
				<use xlink:href="#SVGID_73_"  overflow="visible"/>
			</clipPath>
		</g>
		<g>
			<defs>
				<polyline id="SVGID_75_" points="810,435.9 -190,435.9 -190,-159.4 810,-159.4 				"/>
			</defs>
			<clipPath id="SVGID_76_">
				<use xlink:href="#SVGID_75_"  overflow="visible"/>
			</clipPath>
		</g>
		<g>
			<defs>
				<polyline id="SVGID_77_" points="810,435.9 -190,435.9 -190,-159.4 810,-159.4 				"/>
			</defs>
			<clipPath id="SVGID_78_">
				<use xlink:href="#SVGID_77_"  overflow="visible"/>
			</clipPath>
		</g>
		<g>
			<defs>
				<polyline id="SVGID_79_" points="810,435.9 -190,435.9 -190,-159.4 810,-159.4 				"/>
			</defs>
			<clipPath id="SVGID_80_">
				<use xlink:href="#SVGID_79_"  overflow="visible"/>
			</clipPath>
		</g>
		<g>
			<defs>
				<polyline id="SVGID_81_" points="810,435.9 -190,435.9 -190,-159.4 810,-159.4 				"/>
			</defs>
			<clipPath id="SVGID_82_">
				<use xlink:href="#SVGID_81_"  overflow="visible"/>
			</clipPath>
		</g>
		<g>
			<defs>
				<polyline id="SVGID_83_" points="810,435.9 -190,435.9 -190,-159.4 810,-159.4 				"/>
			</defs>
			<clipPath id="SVGID_84_">
				<use xlink:href="#SVGID_83_"  overflow="visible"/>
			</clipPath>
		</g>
		<g>
			<defs>
				<polyline id="SVGID_85_" points="810,435.9 -190,435.9 -190,-159.4 810,-159.4 				"/>
			</defs>
			<clipPath id="SVGID_86_">
				<use xlink:href="#SVGID_85_"  overflow="visible"/>
			</clipPath>
		</g>
		<g>
			<defs>
				<polyline id="SVGID_87_" points="810,435.9 -190,435.9 -190,-159.4 810,-159.4 				"/>
			</defs>
			<clipPath id="SVGID_88_">
				<use xlink:href="#SVGID_87_"  overflow="visible"/>
			</clipPath>
		</g>
		<g>
			<defs>
				<polyline id="SVGID_89_" points="810,435.9 -190,435.9 -190,-159.4 810,-159.4 				"/>
			</defs>
			<clipPath id="SVGID_90_">
				<use xlink:href="#SVGID_89_"  overflow="visible"/>
			</clipPath>
		</g>
		<g>
			<defs>
				<polyline id="SVGID_91_" points="810,435.9 -190,435.9 -190,-159.4 810,-159.4 				"/>
			</defs>
			<clipPath id="SVGID_92_">
				<use xlink:href="#SVGID_91_"  overflow="visible"/>
			</clipPath>
		</g>
		<g>
			<defs>
				<polyline id="SVGID_93_" points="810,435.9 -190,435.9 -190,-159.4 810,-159.4 				"/>
			</defs>
			<clipPath id="SVGID_94_">
				<use xlink:href="#SVGID_93_"  overflow="visible"/>
			</clipPath>
		</g>
		<g>
			<defs>
				<polyline id="SVGID_95_" points="810,435.9 -190,435.9 -190,-159.4 810,-159.4 				"/>
			</defs>
			<clipPath id="SVGID_96_">
				<use xlink:href="#SVGID_95_"  overflow="visible"/>
			</clipPath>
		</g>
		<g>
			<defs>
				<polyline id="SVGID_97_" points="810,435.9 -190,435.9 -190,-159.4 810,-159.4 				"/>
			</defs>
			<clipPath id="SVGID_98_">
				<use xlink:href="#SVGID_97_"  overflow="visible"/>
			</clipPath>
		</g>
		<g>
			<defs>
				<polyline id="SVGID_99_" points="810,435.9 -190,435.9 -190,-159.4 810,-159.4 				"/>
			</defs>
			<clipPath id="SVGID_100_">
				<use xlink:href="#SVGID_99_"  overflow="visible"/>
			</clipPath>
		</g>
		<g>
			<defs>
				<polyline id="SVGID_101_" points="810,435.9 -190,435.9 -190,-159.4 810,-159.4 				"/>
			</defs>
			<clipPath id="SVGID_102_">
				<use xlink:href="#SVGID_101_"  overflow="visible"/>
			</clipPath>
		</g>
		<g>
			<defs>
				<polyline id="SVGID_103_" points="810,435.9 -190,435.9 -190,-159.4 810,-159.4 				"/>
			</defs>
			<clipPath id="SVGID_104_">
				<use xlink:href="#SVGID_103_"  overflow="visible"/>
			</clipPath>
		</g>
		<g>
			<defs>
				<polyline id="SVGID_105_" points="810,435.9 -190,435.9 -190,-159.4 810,-159.4 				"/>
			</defs>
			<clipPath id="SVGID_106_">
				<use xlink:href="#SVGID_105_"  overflow="visible"/>
			</clipPath>
		</g>
		<g>
			<defs>
				<polyline id="SVGID_107_" points="810,435.9 -190,435.9 -190,-159.4 810,-159.4 				"/>
			</defs>
			<clipPath id="SVGID_108_">
				<use xlink:href="#SVGID_107_"  overflow="visible"/>
			</clipPath>
		</g>
		<g>
			<defs>
				<polyline id="SVGID_109_" points="810,435.9 -190,435.9 -190,-159.4 810,-159.4 				"/>
			</defs>
			<clipPath id="SVGID_110_">
				<use xlink:href="#SVGID_109_"  overflow="visible"/>
			</clipPath>
		</g>
		<g>
			<defs>
				<polyline id="SVGID_111_" points="810,435.9 -190,435.9 -190,-159.4 810,-159.4 				"/>
			</defs>
			<clipPath id="SVGID_112_">
				<use xlink:href="#SVGID_111_"  overflow="visible"/>
			</clipPath>
		</g>
		<g>
			<defs>
				<polyline id="SVGID_113_" points="810,435.9 -190,435.9 -190,-159.4 810,-159.4 				"/>
			</defs>
			<clipPath id="SVGID_114_">
				<use xlink:href="#SVGID_113_"  overflow="visible"/>
			</clipPath>
		</g>
		<g>
			<defs>
				<polyline id="SVGID_115_" points="810,435.9 -190,435.9 -190,-159.4 810,-159.4 				"/>
			</defs>
			<clipPath id="SVGID_116_">
				<use xlink:href="#SVGID_115_"  overflow="visible"/>
			</clipPath>
		</g>
		<g>
			<defs>
				<polyline id="SVGID_117_" points="810,435.9 -190,435.9 -190,-159.4 810,-159.4 				"/>
			</defs>
			<clipPath id="SVGID_118_">
				<use xlink:href="#SVGID_117_"  overflow="visible"/>
			</clipPath>
		</g>
		<g>
			<defs>
				<polyline id="SVGID_119_" points="810,435.9 -190,435.9 -190,-159.4 810,-159.4 				"/>
			</defs>
			<clipPath id="SVGID_120_">
				<use xlink:href="#SVGID_119_"  overflow="visible"/>
			</clipPath>
		</g>
		<g>
			<defs>
				<polyline id="SVGID_121_" points="810,435.9 -190,435.9 -190,-159.4 810,-159.4 				"/>
			</defs>
			<clipPath id="SVGID_122_">
				<use xlink:href="#SVGID_121_"  overflow="visible"/>
			</clipPath>
		</g>
		<g>
			<defs>
				<polyline id="SVGID_123_" points="810,435.9 -190,435.9 -190,-159.4 810,-159.4 				"/>
			</defs>
			<clipPath id="SVGID_124_">
				<use xlink:href="#SVGID_123_"  overflow="visible"/>
			</clipPath>
		</g>
		<g>
			<defs>
				<polyline id="SVGID_125_" points="810,435.9 -190,435.9 -190,-159.4 810,-159.4 				"/>
			</defs>
			<clipPath id="SVGID_126_">
				<use xlink:href="#SVGID_125_"  overflow="visible"/>
			</clipPath>
		</g>
		<g>
			<defs>
				<polyline id="SVGID_127_" points="810,435.9 -190,435.9 -190,-159.4 810,-159.4 				"/>
			</defs>
			<clipPath id="SVGID_128_">
				<use xlink:href="#SVGID_127_"  overflow="visible"/>
			</clipPath>
		</g>
		<g>
			<defs>
				<polyline id="SVGID_129_" points="810,435.9 -190,435.9 -190,-159.4 810,-159.4 				"/>
			</defs>
			<clipPath id="SVGID_130_">
				<use xlink:href="#SVGID_129_"  overflow="visible"/>
			</clipPath>
		</g>
		<g>
			<defs>
				<polyline id="SVGID_131_" points="810,435.9 -190,435.9 -190,-159.4 810,-159.4 				"/>
			</defs>
			<clipPath id="SVGID_132_">
				<use xlink:href="#SVGID_131_"  overflow="visible"/>
			</clipPath>
		</g>
		<g>
			<defs>
				<polyline id="SVGID_133_" points="810,435.9 -190,435.9 -190,-159.4 810,-159.4 				"/>
			</defs>
			<clipPath id="SVGID_134_">
				<use xlink:href="#SVGID_133_"  overflow="visible"/>
			</clipPath>
		</g>
		<g>
			<defs>
				<polyline id="SVGID_135_" points="810,435.9 -190,435.9 -190,-159.4 810,-159.4 				"/>
			</defs>
			<clipPath id="SVGID_136_">
				<use xlink:href="#SVGID_135_"  overflow="visible"/>
			</clipPath>
		</g>
		<g>
			<defs>
				<polyline id="SVGID_137_" points="810,435.9 -190,435.9 -190,-159.4 810,-159.4 				"/>
			</defs>
			<clipPath id="SVGID_138_">
				<use xlink:href="#SVGID_137_"  overflow="visible"/>
			</clipPath>
		</g>
		<g>
			<defs>
				<polyline id="SVGID_139_" points="810,435.9 -190,435.9 -190,-159.4 810,-159.4 				"/>
			</defs>
			<clipPath id="SVGID_140_">
				<use xlink:href="#SVGID_139_"  overflow="visible"/>
			</clipPath>
		</g>
		<g>
			<defs>
				<polyline id="SVGID_141_" points="810,435.9 -190,435.9 -190,-159.4 810,-159.4 				"/>
			</defs>
			<clipPath id="SVGID_142_">
				<use xlink:href="#SVGID_141_"  overflow="visible"/>
			</clipPath>
		</g>
		<g>
			<defs>
				<polyline id="SVGID_143_" points="810,435.9 -190,435.9 -190,-159.4 810,-159.4 				"/>
			</defs>
			<clipPath id="SVGID_144_">
				<use xlink:href="#SVGID_143_"  overflow="visible"/>
			</clipPath>
		</g>
		<g>
			<defs>
				<polyline id="SVGID_145_" points="810,435.9 -190,435.9 -190,-159.4 810,-159.4 				"/>
			</defs>
			<clipPath id="SVGID_146_">
				<use xlink:href="#SVGID_145_"  overflow="visible"/>
			</clipPath>
		</g>
		<g>
			<defs>
				<polyline id="SVGID_147_" points="810,435.9 -190,435.9 -190,-159.4 810,-159.4 				"/>
			</defs>
			<clipPath id="SVGID_148_">
				<use xlink:href="#SVGID_147_"  overflow="visible"/>
			</clipPath>
		</g>
		<g>
			<defs>
				<polyline id="SVGID_149_" points="810,435.9 -190,435.9 -190,-159.4 810,-159.4 				"/>
			</defs>
			<clipPath id="SVGID_150_">
				<use xlink:href="#SVGID_149_"  overflow="visible"/>
			</clipPath>
		</g>
		<g>
			<defs>
				<polyline id="SVGID_151_" points="810,435.9 -190,435.9 -190,-159.4 810,-159.4 				"/>
			</defs>
			<clipPath id="SVGID_152_">
				<use xlink:href="#SVGID_151_"  overflow="visible"/>
			</clipPath>
		</g>
		<g>
			<defs>
				<polyline id="SVGID_153_" points="810,435.9 -190,435.9 -190,-159.4 810,-159.4 				"/>
			</defs>
			<clipPath id="SVGID_154_">
				<use xlink:href="#SVGID_153_"  overflow="visible"/>
			</clipPath>
		</g>
		<g>
			<defs>
				<polyline id="SVGID_155_" points="810,435.9 -190,435.9 -190,-159.4 810,-159.4 				"/>
			</defs>
			<clipPath id="SVGID_156_">
				<use xlink:href="#SVGID_155_"  overflow="visible"/>
			</clipPath>
		</g>
		<g>
			<defs>
				<polyline id="SVGID_157_" points="810,435.9 -190,435.9 -190,-159.4 810,-159.4 				"/>
			</defs>
			<clipPath id="SVGID_158_">
				<use xlink:href="#SVGID_157_"  overflow="visible"/>
			</clipPath>
		</g>
		<g>
			<defs>
				<polyline id="SVGID_159_" points="810,435.9 -190,435.9 -190,-159.4 810,-159.4 				"/>
			</defs>
			<clipPath id="SVGID_160_">
				<use xlink:href="#SVGID_159_"  overflow="visible"/>
			</clipPath>
		</g>
		<g>
			<defs>
				<polyline id="SVGID_161_" points="810,435.9 -190,435.9 -190,-159.4 810,-159.4 				"/>
			</defs>
			<clipPath id="SVGID_162_">
				<use xlink:href="#SVGID_161_"  overflow="visible"/>
			</clipPath>
		</g>
		<g>
			<defs>
				<polyline id="SVGID_163_" points="810,435.9 -190,435.9 -190,-159.4 810,-159.4 				"/>
			</defs>
			<clipPath id="SVGID_164_">
				<use xlink:href="#SVGID_163_"  overflow="visible"/>
			</clipPath>
		</g>
		<g>
			<defs>
				<polyline id="SVGID_165_" points="810,435.9 -190,435.9 -190,-159.4 810,-159.4 				"/>
			</defs>
			<clipPath id="SVGID_166_">
				<use xlink:href="#SVGID_165_"  overflow="visible"/>
			</clipPath>
		</g>
		<g>
			<defs>
				<polyline id="SVGID_167_" points="810,435.9 -190,435.9 -190,-159.4 810,-159.4 				"/>
			</defs>
			<clipPath id="SVGID_168_">
				<use xlink:href="#SVGID_167_"  overflow="visible"/>
			</clipPath>
		</g>
		<g>
			<defs>
				<polyline id="SVGID_169_" points="810,435.9 -190,435.9 -190,-159.4 810,-159.4 				"/>
			</defs>
			<clipPath id="SVGID_170_">
				<use xlink:href="#SVGID_169_"  overflow="visible"/>
			</clipPath>
		</g>
		<g>
			<defs>
				<polyline id="SVGID_171_" points="810,435.9 -190,435.9 -190,-159.4 810,-159.4 				"/>
			</defs>
			<clipPath id="SVGID_172_">
				<use xlink:href="#SVGID_171_"  overflow="visible"/>
			</clipPath>
		</g>
		<g>
			<defs>
				<polyline id="SVGID_173_" points="810,435.9 -190,435.9 -190,-159.4 810,-159.4 				"/>
			</defs>
			<clipPath id="SVGID_174_">
				<use xlink:href="#SVGID_173_"  overflow="visible"/>
			</clipPath>
		</g>
		<g>
			<defs>
				<polyline id="SVGID_175_" points="810,435.9 -190,435.9 -190,-159.4 810,-159.4 				"/>
			</defs>
			<clipPath id="SVGID_176_">
				<use xlink:href="#SVGID_175_"  overflow="visible"/>
			</clipPath>
		</g>
		<g>
			<defs>
				<polyline id="SVGID_177_" points="810,435.9 -190,435.9 -190,-159.4 810,-159.4 				"/>
			</defs>
			<clipPath id="SVGID_178_">
				<use xlink:href="#SVGID_177_"  overflow="visible"/>
			</clipPath>
		</g>
		<g>
			<defs>
				<polyline id="SVGID_179_" points="810,435.9 -190,435.9 -190,-159.4 810,-159.4 				"/>
			</defs>
			<clipPath id="SVGID_180_">
				<use xlink:href="#SVGID_179_"  overflow="visible"/>
			</clipPath>
		</g>
		<g>
			<defs>
				<polyline id="SVGID_181_" points="810,435.9 -190,435.9 -190,-159.4 810,-159.4 				"/>
			</defs>
			<clipPath id="SVGID_182_">
				<use xlink:href="#SVGID_181_"  overflow="visible"/>
			</clipPath>
		</g>
		<g>
			<defs>
				<polyline id="SVGID_183_" points="810,435.9 -190,435.9 -190,-159.4 810,-159.4 				"/>
			</defs>
			<clipPath id="SVGID_184_">
				<use xlink:href="#SVGID_183_"  overflow="visible"/>
			</clipPath>
		</g>
		<g>
			<defs>
				<polyline id="SVGID_185_" points="810,435.9 -190,435.9 -190,-159.4 810,-159.4 				"/>
			</defs>
			<clipPath id="SVGID_186_">
				<use xlink:href="#SVGID_185_"  overflow="visible"/>
			</clipPath>
		</g>
		<g>
			<defs>
				<polyline id="SVGID_187_" points="810,435.9 -190,435.9 -190,-159.4 810,-159.4 				"/>
			</defs>
			<clipPath id="SVGID_188_">
				<use xlink:href="#SVGID_187_"  overflow="visible"/>
			</clipPath>
		</g>
	</g>
	<g>
		<g>
			<defs>
				<polyline id="SVGID_189_" points="810,435.9 -190,435.9 -190,-159.4 810,-159.4 				"/>
			</defs>
			<clipPath id="SVGID_190_">
				<use xlink:href="#SVGID_189_"  overflow="visible"/>
			</clipPath>
		</g>
		<g>
			<defs>
				<polyline id="SVGID_191_" points="810,435.9 -190,435.9 -190,-159.4 810,-159.4 				"/>
			</defs>
			<clipPath id="SVGID_192_">
				<use xlink:href="#SVGID_191_"  overflow="visible"/>
			</clipPath>
		</g>
		<g>
			<defs>
				<polyline id="SVGID_193_" points="810,435.9 -190,435.9 -190,-159.4 810,-159.4 				"/>
			</defs>
			<clipPath id="SVGID_194_">
				<use xlink:href="#SVGID_193_"  overflow="visible"/>
			</clipPath>
		</g>
	</g>
	<g>
		<g>
			<defs>
				<polyline id="SVGID_195_" points="810,435.9 -190,435.9 -190,-159.4 810,-159.4 				"/>
			</defs>
			<clipPath id="SVGID_196_">
				<use xlink:href="#SVGID_195_"  overflow="visible"/>
			</clipPath>
		</g>
	</g>
	<g>
		<g>
			<defs>
				<polyline id="SVGID_197_" points="810,435.9 -190,435.9 -190,-159.4 810,-159.4 				"/>
			</defs>
			<clipPath id="SVGID_198_">
				<use xlink:href="#SVGID_197_"  overflow="visible"/>
			</clipPath>
		</g>
		<g>
			<defs>
				<polyline id="SVGID_199_" points="810,435.9 -190,435.9 -190,-159.4 810,-159.4 				"/>
			</defs>
			<clipPath id="SVGID_200_">
				<use xlink:href="#SVGID_199_"  overflow="visible"/>
			</clipPath>
		</g>
	</g>
	<g>
		<g>
			<defs>
				<polyline id="SVGID_201_" points="810,435.9 -190,435.9 -190,-159.4 810,-159.4 				"/>
			</defs>
			<clipPath id="SVGID_202_">
				<use xlink:href="#SVGID_201_"  overflow="visible"/>
			</clipPath>
		</g>
		<g>
			<defs>
				<polyline id="SVGID_203_" points="810,435.9 -190,435.9 -190,-159.4 810,-159.4 				"/>
			</defs>
			<clipPath id="SVGID_204_">
				<use xlink:href="#SVGID_203_"  overflow="visible"/>
			</clipPath>
		</g>
	</g>
	<g>
		<g>
			<defs>
				<polyline id="SVGID_205_" points="810,435.9 -190,435.9 -190,-159.4 810,-159.4 				"/>
			</defs>
			<clipPath id="SVGID_206_">
				<use xlink:href="#SVGID_205_"  overflow="visible"/>
			</clipPath>
		</g>
		<g>
			<defs>
				<polyline id="SVGID_207_" points="810,435.9 -190,435.9 -190,-159.4 810,-159.4 				"/>
			</defs>
			<clipPath id="SVGID_208_">
				<use xlink:href="#SVGID_207_"  overflow="visible"/>
			</clipPath>
		</g>
	</g>
	<g>
		<g>
			<defs>
				<polyline id="SVGID_209_" points="810,435.9 -190,435.9 -190,-159.4 810,-159.4 				"/>
			</defs>
			<clipPath id="SVGID_210_">
				<use xlink:href="#SVGID_209_"  overflow="visible"/>
			</clipPath>
		</g>
		<g>
			<defs>
				<polyline id="SVGID_211_" points="810,435.9 -190,435.9 -190,-159.4 810,-159.4 				"/>
			</defs>
			<clipPath id="SVGID_212_">
				<use xlink:href="#SVGID_211_"  overflow="visible"/>
			</clipPath>
		</g>
		<g>
			<defs>
				<polyline id="SVGID_213_" points="810,435.9 -190,435.9 -190,-159.4 810,-159.4 				"/>
			</defs>
			<clipPath id="SVGID_214_">
				<use xlink:href="#SVGID_213_"  overflow="visible"/>
			</clipPath>
		</g>
	</g>
	<g>
		<g>
			<defs>
				<polyline id="SVGID_215_" points="810,435.9 -190,435.9 -190,-159.4 810,-159.4 				"/>
			</defs>
			<clipPath id="SVGID_216_">
				<use xlink:href="#SVGID_215_"  overflow="visible"/>
			</clipPath>
		</g>
		<g>
			<defs>
				<polyline id="SVGID_217_" points="810,435.9 -190,435.9 -190,-159.4 810,-159.4 				"/>
			</defs>
			<clipPath id="SVGID_218_">
				<use xlink:href="#SVGID_217_"  overflow="visible"/>
			</clipPath>
		</g>
	</g>
	<g>
		<g>
			<defs>
				<polyline id="SVGID_219_" points="810,435.9 -190,435.9 -190,-159.4 810,-159.4 				"/>
			</defs>
			<clipPath id="SVGID_220_">
				<use xlink:href="#SVGID_219_"  overflow="visible"/>
			</clipPath>
		</g>
	</g>
	<g>
		<g>
			<defs>
				<polyline id="SVGID_221_" points="810,435.9 -190,435.9 -190,-159.4 810,-159.4 				"/>
			</defs>
			<clipPath id="SVGID_222_">
				<use xlink:href="#SVGID_221_"  overflow="visible"/>
			</clipPath>
		</g>
	</g>
	<g>
		<g>
			<defs>
				<polyline id="SVGID_223_" points="810,435.9 -190,435.9 -190,-159.4 810,-159.4 				"/>
			</defs>
			<clipPath id="SVGID_224_">
				<use xlink:href="#SVGID_223_"  overflow="visible"/>
			</clipPath>
		</g>
		<g>
			<defs>
				<polyline id="SVGID_225_" points="810,435.9 -190,435.9 -190,-159.4 810,-159.4 				"/>
			</defs>
			<clipPath id="SVGID_226_">
				<use xlink:href="#SVGID_225_"  overflow="visible"/>
			</clipPath>
		</g>
		<g>
			<defs>
				<polyline id="SVGID_227_" points="810,435.9 -190,435.9 -190,-159.4 810,-159.4 				"/>
			</defs>
			<clipPath id="SVGID_228_">
				<use xlink:href="#SVGID_227_"  overflow="visible"/>
			</clipPath>
		</g>
		<g>
			<defs>
				<polyline id="SVGID_229_" points="810,435.9 -190,435.9 -190,-159.4 810,-159.4 				"/>
			</defs>
			<clipPath id="SVGID_230_">
				<use xlink:href="#SVGID_229_"  overflow="visible"/>
			</clipPath>
		</g>
	</g>
	<g>
		<g>
			<defs>
				<polyline id="SVGID_231_" points="810,435.9 -190,435.9 -190,-159.4 810,-159.4 				"/>
			</defs>
			<clipPath id="SVGID_232_">
				<use xlink:href="#SVGID_231_"  overflow="visible"/>
			</clipPath>
		</g>
		<g>
			<defs>
				<polyline id="SVGID_233_" points="810,435.9 -190,435.9 -190,-159.4 810,-159.4 				"/>
			</defs>
			<clipPath id="SVGID_234_">
				<use xlink:href="#SVGID_233_"  overflow="visible"/>
			</clipPath>
		</g>
		<g>
			<defs>
				<polyline id="SVGID_235_" points="810,435.9 -190,435.9 -190,-159.4 810,-159.4 				"/>
			</defs>
			<clipPath id="SVGID_236_">
				<use xlink:href="#SVGID_235_"  overflow="visible"/>
			</clipPath>
		</g>
		<g>
			<defs>
				<polyline id="SVGID_237_" points="810,435.9 -190,435.9 -190,-159.4 810,-159.4 				"/>
			</defs>
			<clipPath id="SVGID_238_">
				<use xlink:href="#SVGID_237_"  overflow="visible"/>
			</clipPath>
		</g>
		<g>
			<defs>
				<polyline id="SVGID_239_" points="810,435.9 -190,435.9 -190,-159.4 810,-159.4 				"/>
			</defs>
			<clipPath id="SVGID_240_">
				<use xlink:href="#SVGID_239_"  overflow="visible"/>
			</clipPath>
		</g>
		<g>
			<defs>
				<polyline id="SVGID_241_" points="810,435.9 -190,435.9 -190,-159.4 810,-159.4 				"/>
			</defs>
			<clipPath id="SVGID_242_">
				<use xlink:href="#SVGID_241_"  overflow="visible"/>
			</clipPath>
		</g>
		<g>
			<defs>
				<polyline id="SVGID_243_" points="810,435.9 -190,435.9 -190,-159.4 810,-159.4 				"/>
			</defs>
			<clipPath id="SVGID_244_">
				<use xlink:href="#SVGID_243_"  overflow="visible"/>
			</clipPath>
		</g>
	</g>
	<g>
		<g>
			<defs>
				<polyline id="SVGID_245_" points="810,435.9 -190,435.9 -190,-159.4 810,-159.4 				"/>
			</defs>
			<clipPath id="SVGID_246_">
				<use xlink:href="#SVGID_245_"  overflow="visible"/>
			</clipPath>
		</g>
		<g>
			<defs>
				<polyline id="SVGID_247_" points="810,435.9 -190,435.9 -190,-159.4 810,-159.4 				"/>
			</defs>
			<clipPath id="SVGID_248_">
				<use xlink:href="#SVGID_247_"  overflow="visible"/>
			</clipPath>
		</g>
		<g>
			<defs>
				<polyline id="SVGID_249_" points="810,435.9 -190,435.9 -190,-159.4 810,-159.4 				"/>
			</defs>
			<clipPath id="SVGID_250_">
				<use xlink:href="#SVGID_249_"  overflow="visible"/>
			</clipPath>
		</g>
		<g>
			<defs>
				<polyline id="SVGID_251_" points="810,435.9 -190,435.9 -190,-159.4 810,-159.4 				"/>
			</defs>
			<clipPath id="SVGID_252_">
				<use xlink:href="#SVGID_251_"  overflow="visible"/>
			</clipPath>
		</g>
		<g>
			<defs>
				<polyline id="SVGID_253_" points="810,435.9 -190,435.9 -190,-159.4 810,-159.4 				"/>
			</defs>
			<clipPath id="SVGID_254_">
				<use xlink:href="#SVGID_253_"  overflow="visible"/>
			</clipPath>
		</g>
		<g>
			<defs>
				<polyline id="SVGID_255_" points="810,435.9 -190,435.9 -190,-159.4 810,-159.4 				"/>
			</defs>
			<clipPath id="SVGID_256_">
				<use xlink:href="#SVGID_255_"  overflow="visible"/>
			</clipPath>
		</g>
		<g>
			<defs>
				<polyline id="SVGID_257_" points="810,435.9 -190,435.9 -190,-159.4 810,-159.4 				"/>
			</defs>
			<clipPath id="SVGID_258_">
				<use xlink:href="#SVGID_257_"  overflow="visible"/>
			</clipPath>
		</g>
	</g>
	<g>
		<g>
			
				<linearGradient id="SVGID_259_" gradientUnits="userSpaceOnUse" x1="-455.9672" y1="-12.9766" x2="-455.9672" y2="-12.9766" gradientTransform="matrix(26.4357 16.32 -16.32 26.4357 11862.7734 7975.3945)">
				<stop  offset="0" style="stop-color:#D29C44"/>
				<stop  offset="3.200000e-03" style="stop-color:#D29C44"/>
				<stop  offset="0.1453" style="stop-color:#D9A551"/>
				<stop  offset="0.5029" style="stop-color:#EABA6E"/>
				<stop  offset="0.7964" style="stop-color:#F5C87F"/>
				<stop  offset="0.9875" style="stop-color:#F9CD86"/>
				<stop  offset="1" style="stop-color:#F9CD86"/>
			</linearGradient>
			<path fill="url(#SVGID_259_)" d="M20.7,191"/>
		</g>
	</g>
	<g>
		<g>
			<defs>
				<polyline id="SVGID_260_" points="810,435.9 -190,435.9 -190,-159.4 810,-159.4 				"/>
			</defs>
			<clipPath id="SVGID_261_">
				<use xlink:href="#SVGID_260_"  overflow="visible"/>
			</clipPath>
		</g>
		<g>
			<defs>
				<polyline id="SVGID_262_" points="810,435.9 -190,435.9 -190,-159.4 810,-159.4 				"/>
			</defs>
			<clipPath id="SVGID_263_">
				<use xlink:href="#SVGID_262_"  overflow="visible"/>
			</clipPath>
		</g>
	</g>
	<g>
		<g>
			<defs>
				<polyline id="SVGID_264_" points="810,435.9 -190,435.9 -190,-159.4 810,-159.4 				"/>
			</defs>
			<clipPath id="SVGID_265_">
				<use xlink:href="#SVGID_264_"  overflow="visible"/>
			</clipPath>
		</g>
		<g>
			<defs>
				<polyline id="SVGID_266_" points="810,435.9 -190,435.9 -190,-159.4 810,-159.4 				"/>
			</defs>
			<clipPath id="SVGID_267_">
				<use xlink:href="#SVGID_266_"  overflow="visible"/>
			</clipPath>
		</g>
	</g>
	<g>
		<g>
			<defs>
				<polyline id="SVGID_268_" points="810,435.9 -190,435.9 -190,-159.4 810,-159.4 				"/>
			</defs>
			<clipPath id="SVGID_269_">
				<use xlink:href="#SVGID_268_"  overflow="visible"/>
			</clipPath>
		</g>
		<g>
			<defs>
				<polyline id="SVGID_270_" points="810,435.9 -190,435.9 -190,-159.4 810,-159.4 				"/>
			</defs>
			<clipPath id="SVGID_271_">
				<use xlink:href="#SVGID_270_"  overflow="visible"/>
			</clipPath>
		</g>
		<g>
			<defs>
				<polyline id="SVGID_272_" points="810,435.9 -190,435.9 -190,-159.4 810,-159.4 				"/>
			</defs>
			<clipPath id="SVGID_273_">
				<use xlink:href="#SVGID_272_"  overflow="visible"/>
			</clipPath>
		</g>
		<g>
			<defs>
				<polyline id="SVGID_274_" points="810,435.9 -190,435.9 -190,-159.4 810,-159.4 				"/>
			</defs>
			<clipPath id="SVGID_275_">
				<use xlink:href="#SVGID_274_"  overflow="visible"/>
			</clipPath>
		</g>
		<g>
			<defs>
				<polyline id="SVGID_276_" points="810,435.9 -190,435.9 -190,-159.4 810,-159.4 				"/>
			</defs>
			<clipPath id="SVGID_277_">
				<use xlink:href="#SVGID_276_"  overflow="visible"/>
			</clipPath>
		</g>
	</g>
	<g>
		<g>
			<defs>
				<polyline id="SVGID_278_" points="810,435.9 -190,435.9 -190,-159.4 810,-159.4 				"/>
			</defs>
			<clipPath id="SVGID_279_">
				<use xlink:href="#SVGID_278_"  overflow="visible"/>
			</clipPath>
		</g>
		<g>
			<defs>
				<polyline id="SVGID_280_" points="810,435.9 -190,435.9 -190,-159.4 810,-159.4 				"/>
			</defs>
			<clipPath id="SVGID_281_">
				<use xlink:href="#SVGID_280_"  overflow="visible"/>
			</clipPath>
		</g>
		<g>
			<defs>
				<polyline id="SVGID_282_" points="810,435.9 -190,435.9 -190,-159.4 810,-159.4 				"/>
			</defs>
			<clipPath id="SVGID_283_">
				<use xlink:href="#SVGID_282_"  overflow="visible"/>
			</clipPath>
		</g>
		<g>
			<defs>
				<polyline id="SVGID_284_" points="810,435.9 -190,435.9 -190,-159.4 810,-159.4 				"/>
			</defs>
			<clipPath id="SVGID_285_">
				<use xlink:href="#SVGID_284_"  overflow="visible"/>
			</clipPath>
		</g>
		<g>
			<defs>
				<polyline id="SVGID_286_" points="810,435.9 -190,435.9 -190,-159.4 810,-159.4 				"/>
			</defs>
			<clipPath id="SVGID_287_">
				<use xlink:href="#SVGID_286_"  overflow="visible"/>
			</clipPath>
		</g>
		<g>
			<defs>
				<polyline id="SVGID_288_" points="810,435.9 -190,435.9 -190,-159.4 810,-159.4 				"/>
			</defs>
			<clipPath id="SVGID_289_">
				<use xlink:href="#SVGID_288_"  overflow="visible"/>
			</clipPath>
		</g>
	</g>
	<g>
		<g>
			<defs>
				<polyline id="SVGID_290_" points="810,435.9 -190,435.9 -190,-159.4 810,-159.4 				"/>
			</defs>
			<clipPath id="SVGID_291_">
				<use xlink:href="#SVGID_290_"  overflow="visible"/>
			</clipPath>
		</g>
		<g>
			<defs>
				<polyline id="SVGID_292_" points="810,435.9 -190,435.9 -190,-159.4 810,-159.4 				"/>
			</defs>
			<clipPath id="SVGID_293_">
				<use xlink:href="#SVGID_292_"  overflow="visible"/>
			</clipPath>
		</g>
		<g>
			<defs>
				<polyline id="SVGID_294_" points="810,435.9 -190,435.9 -190,-159.4 810,-159.4 				"/>
			</defs>
			<clipPath id="SVGID_295_">
				<use xlink:href="#SVGID_294_"  overflow="visible"/>
			</clipPath>
		</g>
		<g>
			<defs>
				<polyline id="SVGID_296_" points="810,435.9 -190,435.9 -190,-159.4 810,-159.4 				"/>
			</defs>
			<clipPath id="SVGID_297_">
				<use xlink:href="#SVGID_296_"  overflow="visible"/>
			</clipPath>
		</g>
		<g>
			<defs>
				<polyline id="SVGID_298_" points="810,435.9 -190,435.9 -190,-159.4 810,-159.4 				"/>
			</defs>
			<clipPath id="SVGID_299_">
				<use xlink:href="#SVGID_298_"  overflow="visible"/>
			</clipPath>
		</g>
	</g>
	<g>
		<g>
			<defs>
				<polygon id="SVGID_300_" points="17.6,16.7 0,16.7 14.2,27.1 8.8,43.8 23,33.4 37.2,43.8 31.8,27.1 46,16.7 28.4,16.7 23,0 				
					"/>
			</defs>
			<clipPath id="SVGID_301_">
				<use xlink:href="#SVGID_300_"  overflow="visible"/>
			</clipPath>
			
				<linearGradient id="SVGID_302_" gradientUnits="userSpaceOnUse" x1="-465.8336" y1="-8.7752" x2="-464.8336" y2="-8.7752" gradientTransform="matrix(46.0283 0 0 46.0283 21441.5273 425.7941)">
				<stop  offset="0" style="stop-color:#C4882B"/>
				<stop  offset="1" style="stop-color:#F1BA33"/>
				<stop  offset="1" style="stop-color:#687533"/>
			</linearGradient>
			<rect x="0" y="0" clip-path="url(#SVGID_301_)" fill="url(#SVGID_302_)" width="46" height="43.8"/>
		</g>
	</g>
</g>
<g id="Layer_2">
</g>
</svg>
