<?xml version="1.0" encoding="utf-8"?>
<!-- Generator: Adobe Illustrator 18.0.0, SVG Export Plug-In . SVG Version: 6.00 Build 0)  -->
<!DOCTYPE svg PUBLIC "-//W3C//DTD SVG 1.1//EN" "http://www.w3.org/Graphics/SVG/1.1/DTD/svg11.dtd">
<svg version="1.1" id="Layer_1" xmlns="http://www.w3.org/2000/svg" xmlns:xlink="http://www.w3.org/1999/xlink" x="0px" y="0px"
	 viewBox="0 177 438.1 222.4" enable-background="new 0 177 438.1 222.4" xml:space="preserve">
<g>
	<g>
		<g id="XMLID_15_">
			<g>
				<polygon fill="#FFFFFF" points="142.3,284.5 166.9,310.7 192.4,285.5 167.3,262.7 				"/>
				<polygon fill="#FFFFFF" points="175.1,312.2 197.6,337.8 224.4,311.9 197.4,291.2 				"/>
				<polygon fill="#FFFFFF" points="172.5,259 271.9,337.3 291.8,311.1 201.5,235.6 				"/>
				<polygon fill="#FFFFFF" points="205.8,340 273,399.4 279,355.1 231.6,319.5 				"/>
				<polygon fill="#FFFFFF" points="207.3,231.9 234.3,253.2 279.8,213.3 276.2,177 				"/>
				<polygon fill="#FFFFFF" points="239.4,260.3 269.3,284.1 293.5,260.4 267,235.7 				"/>
				<polygon fill="#FFFFFF" points="272.9,288.6 396.6,389.7 393.1,331.9 299.8,264 				"/>
				<polygon fill="#FFFFFF" points="302,256.5 330.5,280.4 438.2,190 390.2,178 				"/>
			</g>
		</g>
	</g>
	<path fill="#FFFFFF" d="M49.1,296.6h-49c0,0-0.5-23,1.5-31.5h50.5C52.1,265.1,48.6,284.6,49.1,296.6z"/>
</g>
</svg>
