<?xml version="1.0" encoding="utf-8"?>
<!-- Generator: Adobe Illustrator 16.0.0, SVG Export Plug-In . SVG Version: 6.00 Build 0)  -->
<!DOCTYPE svg PUBLIC "-//W3C//DTD SVG 1.1//EN" "http://www.w3.org/Graphics/SVG/1.1/DTD/svg11.dtd">
<svg version="1.1" id="Layer_1" xmlns="http://www.w3.org/2000/svg" xmlns:xlink="http://www.w3.org/1999/xlink" x="0px" y="0px"
	 width="343.967px" height="829.626px" viewBox="0 0 343.967 829.626" enable-background="new 0 0 343.967 829.626"
	 xml:space="preserve">
<g>
	<g opacity="0.2">
		<g id="XMLID_36_">
			<g>
				<linearGradient id="SVGID_1_" gradientUnits="userSpaceOnUse" x1="0.457" y1="541.4043" x2="192.2729" y2="541.4043">
					<stop  offset="0" style="stop-color:#722A79"/>
					<stop  offset="1" style="stop-color:#DC5F76"/>
				</linearGradient>
				<path fill="url(#SVGID_1_)" d="M192.273,253.645v575.52H0.457v-63.938h31.96v-31.978H0.457V701.27h31.96v-31.979H0.457v-31.96
					h31.96v-31.979H0.457v-31.96h31.96v-31.979H0.457v-31.978h31.96v-31.979H0.457v-31.96h31.96v-31.978H0.457v-31.96h31.96v-31.997
					H0.457v-31.96h31.96v-31.979H0.457v-31.979H192.273z M160.312,765.226v-31.978h-31.978v31.978H160.312z M160.312,701.27v-31.979
					h-31.978v31.979H160.312z M160.312,637.331v-31.979h-31.978v31.979H160.312z M160.312,573.392v-31.979h-31.978v31.979H160.312z
					 M160.312,509.436v-31.979h-31.978v31.979H160.312z M160.312,445.497v-31.978h-31.978v31.978H160.312z M160.312,381.558v-31.997
					h-31.978v31.997H160.312z M160.312,317.602v-31.979h-31.978v31.979H160.312z M96.356,765.226v-31.978h-31.96v31.978H96.356z
					 M96.356,701.27v-31.979h-31.96v31.979H96.356z M96.356,637.331v-31.979h-31.96v31.979H96.356z M96.356,573.392v-31.979h-31.96
					v31.979H96.356z M96.356,509.436v-31.979h-31.96v31.979H96.356z M96.356,445.497v-31.978h-31.96v31.978H96.356z M96.356,381.558
					v-31.997h-31.96v31.997H96.356z M96.356,317.602v-31.979h-31.96v31.979H96.356z"/>
				<rect x="128.334" y="733.248" fill="#EE4864" width="31.978" height="31.978"/>
				<linearGradient id="SVGID_2_" gradientUnits="userSpaceOnUse" x1="128.3345" y1="685.2803" x2="160.3125" y2="685.2803">
					<stop  offset="0" style="stop-color:#C4892B"/>
					<stop  offset="1" style="stop-color:#F1BB33"/>
					<stop  offset="1" style="stop-color:#687333"/>
				</linearGradient>
				<rect x="128.334" y="669.291" fill="url(#SVGID_2_)" width="31.978" height="31.979"/>
				<rect x="128.334" y="605.352" fill="#EE4864" width="31.978" height="31.979"/>
				<linearGradient id="SVGID_3_" gradientUnits="userSpaceOnUse" x1="128.3345" y1="557.4028" x2="160.3125" y2="557.4028">
					<stop  offset="0" style="stop-color:#C4892B"/>
					<stop  offset="1" style="stop-color:#F1BB33"/>
					<stop  offset="1" style="stop-color:#687333"/>
				</linearGradient>
				<rect x="128.334" y="541.414" fill="url(#SVGID_3_)" width="31.978" height="31.979"/>
				<rect x="128.334" y="477.457" fill="#EE4864" width="31.978" height="31.979"/>
				<linearGradient id="SVGID_4_" gradientUnits="userSpaceOnUse" x1="128.3345" y1="429.5078" x2="160.3125" y2="429.5078">
					<stop  offset="0" style="stop-color:#C4892B"/>
					<stop  offset="1" style="stop-color:#F1BB33"/>
					<stop  offset="1" style="stop-color:#687333"/>
				</linearGradient>
				<rect x="128.334" y="413.519" fill="url(#SVGID_4_)" width="31.978" height="31.978"/>
				<rect x="128.334" y="349.562" fill="#EE4864" width="31.978" height="31.997"/>
				<linearGradient id="SVGID_5_" gradientUnits="userSpaceOnUse" x1="128.3345" y1="301.6123" x2="160.3125" y2="301.6123">
					<stop  offset="0" style="stop-color:#C4892B"/>
					<stop  offset="1" style="stop-color:#F1BB33"/>
					<stop  offset="1" style="stop-color:#687333"/>
				</linearGradient>
				<rect x="128.334" y="285.623" fill="url(#SVGID_5_)" width="31.978" height="31.979"/>
				<rect x="64.396" y="733.248" fill="#EE4864" width="31.96" height="31.978"/>
				<rect x="64.396" y="669.291" fill="#34B298" width="31.96" height="31.979"/>
				<rect x="64.396" y="605.352" fill="#EE4864" width="31.96" height="31.979"/>
				<linearGradient id="SVGID_6_" gradientUnits="userSpaceOnUse" x1="64.3955" y1="557.4028" x2="96.356" y2="557.4028">
					<stop  offset="0" style="stop-color:#C4892B"/>
					<stop  offset="1" style="stop-color:#F1BB33"/>
					<stop  offset="1" style="stop-color:#687333"/>
				</linearGradient>
				<rect x="64.396" y="541.414" fill="url(#SVGID_6_)" width="31.96" height="31.979"/>
				<rect x="64.396" y="477.457" fill="#EE4864" width="31.96" height="31.979"/>
				<linearGradient id="SVGID_7_" gradientUnits="userSpaceOnUse" x1="64.3955" y1="429.5078" x2="96.356" y2="429.5078">
					<stop  offset="0" style="stop-color:#C4892B"/>
					<stop  offset="1" style="stop-color:#F1BB33"/>
					<stop  offset="1" style="stop-color:#687333"/>
				</linearGradient>
				<rect x="64.396" y="413.519" fill="url(#SVGID_7_)" width="31.96" height="31.978"/>
				<rect x="64.396" y="349.562" fill="#EE4864" width="31.96" height="31.997"/>
				<linearGradient id="SVGID_8_" gradientUnits="userSpaceOnUse" x1="64.3955" y1="301.6123" x2="96.356" y2="301.6123">
					<stop  offset="0" style="stop-color:#C4892B"/>
					<stop  offset="1" style="stop-color:#F1BB33"/>
					<stop  offset="1" style="stop-color:#687333"/>
				</linearGradient>
				<rect x="64.396" y="285.623" fill="url(#SVGID_8_)" width="31.96" height="31.979"/>
				<rect x="0.457" y="733.248" fill="#EE4864" width="31.96" height="31.978"/>
				<rect x="0.457" y="669.291" fill="#34B298" width="31.96" height="31.979"/>
				<rect x="0.457" y="605.352" fill="#EE4864" width="31.96" height="31.979"/>
				<rect x="0.457" y="541.414" fill="#34B298" width="31.96" height="31.979"/>
				<rect x="0.457" y="477.457" fill="#EE4864" width="31.96" height="31.979"/>
				<rect x="0.457" y="413.519" fill="#34B298" width="31.96" height="31.978"/>
				<rect x="0.457" y="349.562" fill="#EE4864" width="31.96" height="31.997"/>
				<linearGradient id="SVGID_9_" gradientUnits="userSpaceOnUse" x1="0.457" y1="301.6123" x2="32.4175" y2="301.6123">
					<stop  offset="0" style="stop-color:#C4892B"/>
					<stop  offset="1" style="stop-color:#F1BB33"/>
					<stop  offset="1" style="stop-color:#687333"/>
				</linearGradient>
				<rect x="0.457" y="285.623" fill="url(#SVGID_9_)" width="31.96" height="31.979"/>
			</g>
			<g>
			</g>
		</g>
	</g>
	<g opacity="0.4">
		<linearGradient id="SVGID_10_" gradientUnits="userSpaceOnUse" x1="271.5142" y1="190.999" x2="266.9835" y2="190.999">
			<stop  offset="0" style="stop-color:#C4892B"/>
			<stop  offset="1" style="stop-color:#F1BB33"/>
			<stop  offset="1" style="stop-color:#687333"/>
		</linearGradient>
		<polygon fill="url(#SVGID_10_)" points="148.054,381.998 148.054,128.763 177.808,128.763 177.808,60.088 200.132,60.088 
			200.132,0 343.967,0 343.967,381.998 		"/>
		<rect x="213.769" y="6.439" fill="#FFFFFF" width="22.317" height="25.751"/>
		<rect x="213.769" y="55.803" fill="#E54D25" width="22.317" height="25.75"/>
		<rect x="213.769" y="105.158" fill="#FFFFFF" width="22.317" height="25.753"/>
		<rect x="174.089" y="96.571" fill="#E54D25" width="22.318" height="25.755"/>
		<rect x="171.609" y="141.641" fill="#FFFFFF" width="22.318" height="25.754"/>
		<rect x="171.609" y="184.564" fill="#E54D25" width="22.318" height="25.755"/>
		<rect x="171.609" y="227.483" fill="#FFFFFF" width="22.318" height="25.752"/>
		<rect x="171.609" y="270.405" fill="#E54D25" width="22.318" height="25.754"/>
		<rect x="171.609" y="313.328" fill="#E54D25" width="22.318" height="25.752"/>
		<rect x="171.609" y="356.252" fill="#FFFFFF" width="22.318" height="25.753"/>
		<rect x="213.769" y="154.517" fill="#E54D25" width="22.317" height="25.754"/>
		<rect x="213.769" y="203.879" fill="#E54D25" width="22.317" height="25.753"/>
		<rect x="213.769" y="253.241" fill="#E54D25" width="22.317" height="25.751"/>
		<rect x="213.769" y="302.598" fill="#FFFFFF" width="22.317" height="25.754"/>
		<rect x="213.769" y="351.958" fill="#E54D25" width="22.317" height="25.751"/>
		<rect x="249.725" y="6.439" fill="#E54D25" width="22.321" height="25.751"/>
		<rect x="249.725" y="49.362" fill="#E54D25" width="22.321" height="25.753"/>
		<rect x="249.725" y="92.283" fill="#E54D25" width="22.321" height="25.754"/>
		<rect x="249.725" y="135.199" fill="#E54D25" width="22.321" height="25.755"/>
		<rect x="249.725" y="178.126" fill="#E54D25" width="22.321" height="25.753"/>
		<rect x="249.725" y="221.049" fill="#FFFFFF" width="22.321" height="25.755"/>
		<rect x="249.725" y="263.969" fill="#E54D25" width="22.321" height="25.752"/>
		<rect x="249.725" y="306.889" fill="#E54D25" width="22.321" height="25.753"/>
		<rect x="249.725" y="349.813" fill="#E54D25" width="22.321" height="25.752"/>
		<rect x="293.132" y="6.439" fill="#BE2328" width="22.312" height="25.751"/>
		<rect x="293.132" y="49.362" fill="#BE2328" width="22.312" height="25.753"/>
		<rect x="293.132" y="92.283" fill="#BE2328" width="22.312" height="25.754"/>
		<rect x="293.132" y="135.199" fill="#BE2328" width="22.312" height="25.755"/>
		<rect x="293.132" y="178.126" fill="#BE2328" width="22.312" height="25.753"/>
		<rect x="293.132" y="221.049" fill="#BE2328" width="22.312" height="25.755"/>
		<rect x="293.132" y="263.969" fill="#BE2328" width="22.312" height="25.752"/>
		<rect x="293.132" y="306.889" fill="#BE2328" width="22.312" height="25.753"/>
		<rect x="293.132" y="349.813" fill="#BE2328" width="22.312" height="25.752"/>
	</g>
	<g opacity="0.4">
		
			<linearGradient id="SVGID_11_" gradientUnits="userSpaceOnUse" x1="-3865.3596" y1="2348.167" x2="-3870.2944" y2="2348.167" gradientTransform="matrix(-1 0 0 -1 -3659.2031 2951.6211)">
			<stop  offset="0" style="stop-color:#C4892B"/>
			<stop  offset="1" style="stop-color:#F1BB33"/>
			<stop  offset="1" style="stop-color:#687333"/>
		</linearGradient>
		<polygon fill="url(#SVGID_11_)" points="340.631,381.737 340.631,675.696 308.214,675.696 308.214,755.419 283.904,755.419 
			283.904,825.171 127.241,825.171 127.241,381.737 		"/>
		<rect x="244.74" y="787.802" fill="#FFFFFF" width="24.312" height="29.896"/>
		<rect x="244.74" y="730.503" fill="#E54D25" width="24.312" height="29.891"/>
		<rect x="244.74" y="673.206" fill="#FFFFFF" width="24.312" height="29.891"/>
		<rect x="287.96" y="683.169" fill="#E54D25" width="24.304" height="29.898"/>
		<rect x="290.657" y="630.856" fill="#FFFFFF" width="24.307" height="29.893"/>
		<rect x="290.657" y="581.028" fill="#E54D25" width="24.307" height="29.896"/>
		<rect x="290.657" y="531.208" fill="#FFFFFF" width="24.307" height="29.895"/>
		<rect x="290.657" y="481.381" fill="#E54D25" width="24.307" height="29.896"/>
		<rect x="290.657" y="431.556" fill="#E54D25" width="24.307" height="29.895"/>
		<rect x="290.657" y="381.73" fill="#FFFFFF" width="24.307" height="29.896"/>
		<rect x="244.74" y="615.909" fill="#E54D25" width="24.312" height="29.893"/>
		<rect x="244.74" y="558.61" fill="#E54D25" width="24.312" height="29.894"/>
		<rect x="244.74" y="501.307" fill="#E54D25" width="24.312" height="29.898"/>
		<rect x="244.74" y="444.01" fill="#FFFFFF" width="24.312" height="29.896"/>
		<rect x="244.74" y="386.716" fill="#E54D25" width="24.312" height="29.895"/>
		<rect x="205.576" y="787.802" fill="#E54D25" width="24.31" height="29.896"/>
		<rect x="205.576" y="737.974" fill="#E54D25" width="24.31" height="29.896"/>
		<rect x="205.576" y="688.149" fill="#E54D25" width="24.31" height="29.895"/>
		<rect x="205.576" y="638.329" fill="#E54D25" width="24.31" height="29.895"/>
		<rect x="205.576" y="588.503" fill="#E54D25" width="24.31" height="29.892"/>
		<rect x="205.576" y="538.675" fill="#FFFFFF" width="24.31" height="29.896"/>
		<rect x="205.576" y="488.857" fill="#E54D25" width="24.31" height="29.891"/>
		<rect x="205.576" y="439.03" fill="#E54D25" width="24.31" height="29.895"/>
		<rect x="205.576" y="389.204" fill="#E54D25" width="24.31" height="29.894"/>
		<rect x="158.307" y="787.802" fill="#BE2328" width="24.308" height="29.896"/>
		<rect x="158.307" y="737.974" fill="#BE2328" width="24.308" height="29.896"/>
		<rect x="158.307" y="688.149" fill="#BE2328" width="24.308" height="29.895"/>
		<rect x="158.307" y="638.329" fill="#BE2328" width="24.308" height="29.895"/>
		<rect x="158.307" y="588.503" fill="#BE2328" width="24.308" height="29.892"/>
		<rect x="158.307" y="538.675" fill="#BE2328" width="24.308" height="29.896"/>
		<rect x="158.307" y="488.857" fill="#BE2328" width="24.308" height="29.891"/>
		<rect x="158.307" y="439.03" fill="#BE2328" width="24.308" height="29.895"/>
		<rect x="158.307" y="389.204" fill="#BE2328" width="24.308" height="29.894"/>
	</g>
</g>
</svg>
