<?xml version="1.0" encoding="utf-8"?>
<!-- Generator: Adobe Illustrator 16.0.0, SVG Export Plug-In . SVG Version: 6.00 Build 0)  -->
<!DOCTYPE svg PUBLIC "-//W3C//DTD SVG 1.1//EN" "http://www.w3.org/Graphics/SVG/1.1/DTD/svg11.dtd">
<svg version="1.1" id="Layer_1" xmlns="http://www.w3.org/2000/svg" xmlns:xlink="http://www.w3.org/1999/xlink" x="0px" y="0px"
	 width="572.953px" height="904.453px" viewBox="0 0 572.953 904.453" enable-background="new 0 0 572.953 904.453"
	 xml:space="preserve">
<g>
	<linearGradient id="SVGID_1_" gradientUnits="userSpaceOnUse" x1="330.7153" y1="871.8569" x2="334.223" y2="696.4767">
		<stop  offset="0" style="stop-color:#722A79"/>
		<stop  offset="1" style="stop-color:#DC5F76"/>
	</linearGradient>
	<path opacity="0.4" fill="url(#SVGID_1_)" d="M566.952,845.826c-4.99-3.156-9.471-7.061-13.156-11.689
		c-18.414-23.117-12.419-55.449,11.861-72.66c1.582-1.123,3.216-2.164,4.9-3.123c-1.928-15.934-2.221-31.988-2.221-48.062
		c0-0.402,0.021-0.785,0.025-1.182h-35.64v93.021h-78.714v-83.725h-29.518v-83.717l-29.512-37.209l-29.52,37.209v111.629h-78.717
		v37.211h-21.863V662.597h-47.006v120.932h-29.52V681.203H129.32v83.719H89.965v139.531h482.987
		C572.258,884.841,570.587,865.048,566.952,845.826z"/>
	<g opacity="0.4">
		<g id="XMLID_37_">
			<g>
				<linearGradient id="SVGID_2_" gradientUnits="userSpaceOnUse" x1="329.2842" y1="604.4019" x2="351.106" y2="604.4019">
					<stop  offset="0" style="stop-color:#722A79"/>
					<stop  offset="1" style="stop-color:#DC5F76"/>
				</linearGradient>
				<polygon fill="url(#SVGID_2_)" points="351.106,319.377 351.106,889.425 329.284,889.425 329.284,324.814 329.284,319.377 				
					"/>
				<linearGradient id="SVGID_3_" gradientUnits="userSpaceOnUse" x1="203.8115" y1="289.3638" x2="348.3779" y2="289.3638">
					<stop  offset="0" style="stop-color:#C4892B"/>
					<stop  offset="1" style="stop-color:#F1BB33"/>
					<stop  offset="1" style="stop-color:#687333"/>
				</linearGradient>
				<rect x="203.812" y="273.007" fill="url(#SVGID_3_)" width="144.566" height="32.714"/>
				<linearGradient id="SVGID_4_" gradientUnits="userSpaceOnUse" x1="225.9419" y1="256.4683" x2="324.1201" y2="256.4683">
					<stop  offset="0" style="stop-color:#C4892B"/>
					<stop  offset="1" style="stop-color:#F1BB33"/>
					<stop  offset="1" style="stop-color:#687333"/>
				</linearGradient>
				<rect x="225.942" y="249.64" fill="url(#SVGID_4_)" width="98.178" height="13.657"/>
				<polygon fill="#F7BC29" points="285.15,186.994 321.647,239.493 229.27,239.947 271.585,185.885 271.585,192.686 
					285.15,192.686 				"/>
				<linearGradient id="SVGID_5_" gradientUnits="userSpaceOnUse" x1="296.5522" y1="604.4019" x2="329.2842" y2="604.4019">
					<stop  offset="0" style="stop-color:#722A79"/>
					<stop  offset="1" style="stop-color:#DC5F76"/>
				</linearGradient>
				<polygon fill="url(#SVGID_5_)" points="315.646,324.814 315.646,889.425 296.552,889.425 296.552,324.814 296.552,319.377 
					329.284,319.377 329.284,324.814 				"/>
				<polygon fill="#F7BC29" points="285.15,186.994 285.15,192.686 271.585,192.686 271.585,185.885 278.368,177.229 				"/>
				<polygon fill="#F7BC29" points="285.15,135.405 285.15,186.994 278.368,177.229 271.585,185.885 271.585,135.405 				"/>
				<linearGradient id="SVGID_6_" gradientUnits="userSpaceOnUse" x1="263.8203" y1="604.4019" x2="296.5522" y2="604.4019">
					<stop  offset="0" style="stop-color:#722A79"/>
					<stop  offset="1" style="stop-color:#DC5F76"/>
				</linearGradient>
				<polygon fill="url(#SVGID_6_)" points="282.914,324.814 282.914,889.425 263.82,889.425 263.82,324.814 263.82,319.377 
					296.552,319.377 296.552,324.814 				"/>
				<linearGradient id="SVGID_7_" gradientUnits="userSpaceOnUse" x1="231.0879" y1="604.4019" x2="263.8203" y2="604.4019">
					<stop  offset="0" style="stop-color:#722A79"/>
					<stop  offset="1" style="stop-color:#DC5F76"/>
				</linearGradient>
				<polygon fill="url(#SVGID_7_)" points="250.182,324.814 250.182,889.425 231.088,889.425 231.088,324.814 231.088,319.377 
					263.82,319.377 263.82,324.814 				"/>
				<linearGradient id="SVGID_8_" gradientUnits="userSpaceOnUse" x1="201.0835" y1="604.4019" x2="231.0879" y2="604.4019">
					<stop  offset="0" style="stop-color:#722A79"/>
					<stop  offset="1" style="stop-color:#DC5F76"/>
				</linearGradient>
				<polygon fill="url(#SVGID_8_)" points="201.083,319.377 231.088,319.377 231.088,324.814 217.45,324.814 217.45,889.425 
					201.083,889.425 				"/>
			</g>
			<g>
			</g>
		</g>
	</g>
	<g opacity="0.5">
		<rect x="24.602" y="172.047" fill="#E54D25" width="144.738" height="431.558"/>
		<g>
			<g id="XMLID_35_">
				<g>
					<path fill="#F3AB1D" d="M95.931,553.046V255.565h47.653h23.826v212.493h47.653v424.963h-71.479V574.27h-23.827v318.752H72.105
						v-21.271H48.278v-21.247h23.827v-21.271H48.278v-21.2h23.827v-21.271H48.278v-21.247h23.827v-21.271H48.278v-21.199h23.827
						v-21.271H48.278v-21.247h23.827v-21.271H48.278v-21.224h23.827v-21.247H48.278v-21.247h23.827V574.27H48.278v-21.224H95.931z
						 M131.671,542.4v-21.224h-23.826V542.4H131.671z M131.671,499.953v-21.271h-23.826v21.271H131.671z M131.671,457.412v-21.224
						h-23.826v21.224H131.671z M131.671,414.965v-21.271h-23.826v21.271H131.671z M131.671,372.424V351.2h-23.826v21.224H131.671z
						 M131.671,329.977v-21.271h-23.826v21.271H131.671z M131.671,287.436v-21.223h-23.826v21.223H131.671z"/>
					<linearGradient id="SVGID_9_" gradientUnits="userSpaceOnUse" x1="16.5098" y1="182.4165" x2="167.4106" y2="182.4165">
						<stop  offset="0" style="stop-color:#8D1B1F"/>
						<stop  offset="1" style="stop-color:#E54B25"/>
						<stop  offset="1" style="stop-color:#E34A26"/>
					</linearGradient>
					<polygon fill="url(#SVGID_9_)" points="167.411,172.985 167.411,191.848 143.584,191.848 95.931,191.848 72.105,191.848 
						16.51,191.848 16.51,172.985 					"/>
					<rect x="119.758" y="574.27" fill="#EC8F23" width="23.827" height="318.752"/>
					<polygon fill="#F3AB1D" points="143.584,191.848 143.584,255.565 95.931,255.565 95.931,234.342 95.931,191.848 					"/>
					<polygon fill="#31AA95" points="134.054,85.613 143.584,106.86 48.278,106.86 64.163,71.448 72.105,85.613 					"/>
					<polygon fill="#088E8B" points="95.931,0.625 134.054,85.613 72.105,85.613 64.163,71.448 					"/>
					<rect x="107.845" y="521.176" fill="#EC8F23" width="23.826" height="21.224"/>
					<rect x="107.845" y="478.682" fill="#EBEDD5" width="23.826" height="21.271"/>
					<rect x="107.845" y="436.188" fill="#EBEDD5" width="23.826" height="21.224"/>
					<rect x="107.845" y="393.694" fill="#EC8F23" width="23.826" height="21.271"/>
					<rect x="107.845" y="351.2" fill="#EC8F23" width="23.826" height="21.224"/>
					<rect x="107.845" y="308.707" fill="#EBEDD5" width="23.826" height="21.271"/>
					<rect x="107.845" y="266.212" fill="#EC8F23" width="23.826" height="21.223"/>
					<rect x="95.931" y="128.107" fill="#81579B" width="23.827" height="42.494"/>
					<path fill="#F3AB1D" d="M167.411,172.985l-135.017-2.384V85.613l15.884-42.494l15.884,28.329L48.278,106.86h95.306
						l-9.531-21.247h9.531l23.826-42.494V172.985z M119.758,170.601v-42.494H95.931v42.494H119.758z"/>
					<polygon fill="#E54D25" points="95.931,255.565 95.931,553.046 48.278,553.046 48.278,468.059 48.278,255.565 72.105,255.565 
											"/>
					<linearGradient id="SVGID_10_" gradientUnits="userSpaceOnUse" x1="72.105" y1="223.7065" x2="95.9312" y2="223.7065">
						<stop  offset="0" style="stop-color:#722A79"/>
						<stop  offset="1" style="stop-color:#DC5F76"/>
					</linearGradient>
					<polygon fill="url(#SVGID_10_)" points="95.931,234.342 95.931,255.565 72.105,255.565 72.105,191.848 95.931,191.848 					"/>
					<rect x="48.278" y="871.751" fill="#EC8F23" width="23.827" height="21.271"/>
					<rect x="48.278" y="829.234" fill="#EBEDD5" width="23.827" height="21.271"/>
					<rect x="48.278" y="786.763" fill="#EC8F23" width="23.827" height="21.271"/>
					<rect x="48.278" y="744.246" fill="#EBEDD5" width="23.827" height="21.271"/>
					<rect x="48.278" y="701.776" fill="#EC8F23" width="23.827" height="21.271"/>
					<rect x="48.278" y="659.258" fill="#EC8F23" width="23.827" height="21.271"/>
					<rect x="48.278" y="616.788" fill="#EBEDD5" width="23.827" height="21.247"/>
					<rect x="48.278" y="574.27" fill="#EC8F23" width="23.827" height="21.271"/>
					<linearGradient id="SVGID_11_" gradientUnits="userSpaceOnUse" x1="0.625" y1="680.5405" x2="48.2783" y2="680.5405">
						<stop  offset="0" style="stop-color:#C4892B"/>
						<stop  offset="1" style="stop-color:#F1BB33"/>
						<stop  offset="1" style="stop-color:#687333"/>
					</linearGradient>
					<polygon fill="url(#SVGID_11_)" points="48.278,871.751 48.278,893.022 0.625,893.022 0.625,468.059 48.278,468.059 
						48.278,553.046 48.278,574.27 48.278,595.541 48.278,616.788 48.278,638.035 48.278,659.258 48.278,680.529 48.278,701.776 
						48.278,723.046 48.278,744.246 48.278,765.516 48.278,786.763 48.278,808.034 48.278,829.234 48.278,850.504 					"/>
				</g>
				<g>
				</g>
			</g>
			<rect x="24.436" y="255.598" fill="#E54D25" width="23.835" height="191.223"/>
		</g>
	</g>
</g>
</svg>
