<?xml version="1.0" encoding="utf-8"?>
<!-- Generator: Adobe Illustrator 16.0.0, SVG Export Plug-In . SVG Version: 6.00 Build 0)  -->
<!DOCTYPE svg PUBLIC "-//W3C//DTD SVG 1.1//EN" "http://www.w3.org/Graphics/SVG/1.1/DTD/svg11.dtd">
<svg version="1.1" id="Layer_1" xmlns="http://www.w3.org/2000/svg" xmlns:xlink="http://www.w3.org/1999/xlink" x="0px" y="0px"
	 width="1180.262px" height="376.554px" viewBox="0 0 1180.262 376.554" enable-background="new 0 0 1180.262 376.554"
	 xml:space="preserve">
<g>
	<linearGradient id="SVGID_1_" gradientUnits="userSpaceOnUse" x1="762.251" y1="362.0518" x2="766.0374" y2="172.737">
		<stop  offset="0" style="stop-color:#722A79"/>
		<stop  offset="1" style="stop-color:#DC5F76"/>
	</linearGradient>
	<path opacity="0.2" fill="url(#SVGID_1_)" d="M1131.072,205.605v60.334l-29.521-30.168v-40.229h-49.201v50.287h-49.189v-50.287
		h-29.517v-79.537h-29.513v159.99h-29.52V175.431l-32.798-26.812l-26.24,26.812v30.174h-49.19l-39.357-50.279l-59.038,55.305
		h-78.706v-65.365h-49.2v130.73H530.89v-40.225H422.657v30.168h-36.564c-7.418,39.035-20.49,77.641-42.432,110.615h836.602V205.605
		H1131.072z"/>
	<g opacity="0.2">
		<g opacity="0.9">
			<g>
				
					<linearGradient id="SVGID_2_" gradientUnits="userSpaceOnUse" x1="138.1562" y1="213.2554" x2="307.8486" y2="213.2554" gradientTransform="matrix(1 -0.0032 0.0032 1 -7.8187 0.7269)">
					<stop  offset="0" style="stop-color:#722A79"/>
					<stop  offset="1" style="stop-color:#DC5F76"/>
				</linearGradient>
				<path fill="url(#SVGID_2_)" d="M248.617,111.188l-57.636-2.082c-51.53,6.381-60.189,30.36-60.189,30.36l0.075,23.009
					c-0.042-12.709,6.36-23.028,14.299-23.056c7.943-0.025,14.413,10.258,14.46,22.967c0.042,12.707-6.367,23.023-14.308,23.047
					c-7.943,0.028-14.413-10.249-14.451-22.958l0.487,155.306l169.692-0.541l-0.508-158.178
					C300.537,159.062,294.362,122.894,248.617,111.188z M160.101,311.936l-14.384,0.044l-0.372-117.916l14.378-0.044
					L160.101,311.936z M234.875,311.698l-28.76,0.094l-0.365-115.039l28.761-0.091L234.875,311.698z M214.344,185.214
					c-11.121,0.037-20.165-8.944-20.197-20.058c-0.035-11.129,8.953-20.17,20.067-20.205c11.116-0.035,20.16,8.948,20.193,20.074
					C234.446,176.142,225.462,185.181,214.344,185.214z M286.655,314.415l-20.13,0.062l-0.385-120.795l20.132-0.065L286.655,314.415
					z M279.04,182.138c-7.144,0.021-12.958-7.045-12.989-15.776c-0.028-8.733,5.745-15.843,12.892-15.863
					c7.149-0.023,12.962,7.046,12.99,15.781C291.963,175.011,286.189,182.113,279.04,182.138z"/>
				
					<linearGradient id="SVGID_3_" gradientUnits="userSpaceOnUse" x1="190.2041" y1="55.6919" x2="256.6733" y2="55.6919" gradientTransform="matrix(1 -0.0032 0.0032 1 -7.8187 0.7269)">
					<stop  offset="0" style="stop-color:#722A79"/>
					<stop  offset="1" style="stop-color:#DC5F76"/>
				</linearGradient>
				<path fill="url(#SVGID_3_)" d="M248.617,111.188l0.591,0.016l-0.071-23.009l-20.453,0.065l-0.066-21.731
					c19.169-0.059,20.368-25.63,20.368-25.63l-20.457,0.065l-0.054-17.895L246.3,0l-61.358,0.196l19.252,22.948l0.062,20.452
					l-21.731,0.067c0.038,12.783,16.693,22.958,16.693,22.958l0.075,23.012l-15.344,0.049l0.059,19.179l6.974,0.245
					c7.676-0.949,16.292-1.516,25.991-1.549C229.218,107.52,239.659,108.891,248.617,111.188z"/>
			</g>
			
				<linearGradient id="SVGID_4_" gradientUnits="userSpaceOnUse" x1="367.6191" y1="205.9751" x2="435.4819" y2="205.9751" gradientTransform="matrix(1 -0.0032 0.0032 1 -7.8187 0.7269)">
				<stop  offset="0" style="stop-color:#722A79"/>
				<stop  offset="1" style="stop-color:#DC5F76"/>
			</linearGradient>
			<path fill="url(#SVGID_4_)" d="M360.975,366.611l14.448-329.602c0,0,74.096,78.229,47.221,336.787L360.975,366.611z"/>
			
				<linearGradient id="SVGID_5_" gradientUnits="userSpaceOnUse" x1="12.2158" y1="205.9644" x2="80.0786" y2="205.9644" gradientTransform="matrix(1 -0.0032 0.0032 1 -7.8187 0.7269)">
				<stop  offset="0" style="stop-color:#722A79"/>
				<stop  offset="1" style="stop-color:#DC5F76"/>
			</linearGradient>
			<path fill="url(#SVGID_5_)" d="M73.434,367.523L56.897,38.017c0,0-73.607,78.698-45.09,337.083L73.434,367.523z"/>
			
				<linearGradient id="SVGID_6_" gradientUnits="userSpaceOnUse" x1="6.7793" y1="350.2808" x2="452.3433" y2="350.2808" gradientTransform="matrix(1 -0.0032 0.0032 1 -7.8187 0.7269)">
				<stop  offset="0" style="stop-color:#722A79"/>
				<stop  offset="1" style="stop-color:#DC5F76"/>
			</linearGradient>
			<polygon fill="url(#SVGID_6_)" points="445.725,375.117 0.163,376.529 0,325.43 445.563,324.017 			"/>
		</g>
		
			<linearGradient id="SVGID_7_" gradientUnits="userSpaceOnUse" x1="12.2397" y1="182.8882" x2="64.5962" y2="182.8882" gradientTransform="matrix(1 -0.0032 0.0032 1 -7.8187 0.7269)">
			<stop  offset="0" style="stop-color:#722A79"/>
			<stop  offset="1" style="stop-color:#DC5F76"/>
		</linearGradient>
		<path fill="url(#SVGID_7_)" d="M56.897,38.017c0,0-36.626,178.187-24.417,290.861L6.17,328.965
			C6.17,328.965-5.274,98.215,56.897,38.017z"/>
		
			<linearGradient id="SVGID_8_" gradientUnits="userSpaceOnUse" x1="366.9526" y1="182.8979" x2="392.3384" y2="182.8979" gradientTransform="matrix(1 -0.0032 0.0032 1 -7.8187 0.7269)">
			<stop  offset="0" style="stop-color:#722A79"/>
			<stop  offset="1" style="stop-color:#DC5F76"/>
		</linearGradient>
		<polyline fill="url(#SVGID_8_)" points="375.423,37.009 385.555,323.148 360.184,327.841 		"/>
	</g>
</g>
</svg>
