<?xml version="1.0" encoding="utf-8"?>
<!-- Generator: Adobe Illustrator 18.0.0, SVG Export Plug-In . SVG Version: 6.00 Build 0)  -->
<!DOCTYPE svg PUBLIC "-//W3C//DTD SVG 1.1//EN" "http://www.w3.org/Graphics/SVG/1.1/DTD/svg11.dtd">
<svg version="1.1" id="Layer_1" xmlns="http://www.w3.org/2000/svg" xmlns:xlink="http://www.w3.org/1999/xlink" x="0px" y="0px"
	 viewBox="0 0 612 792" enable-background="new 0 0 612 792" xml:space="preserve">
<image overflow="visible" enable-background="new    " width="452" height="452" xlink:href="../sponsor_large.png"  transform="matrix(1.354 0 0 1.354 0 90)">
</image>
<ellipse fill="#FFFFFF" cx="306" cy="396" rx="236.9" ry="230.9"/>
<g id="logo_on_white_screen">
	<g>
		<g>
			<path fill="#80B4E1" d="M245,494.5h5.8c3.7,0,5.5,2,5.5,5.8V512c0,3.7-1.8,5.8-5.5,5.8H245V494.5z M248.7,497.8v16.6h2
				c1.2,0,1.9-0.6,1.9-2.3V500c0-1.7-0.7-2.3-1.9-2.3L248.7,497.8L248.7,497.8z"/>
		</g>
		<g>
			<path fill="#80B4E1" d="M270.4,517.8h-3.7l-0.6-4.2h-4.5l-0.6,4.2h-3.3l3.7-23.3h5.3L270.4,517.8z M262.1,510.4h3.5l-1.7-11.8
				L262.1,510.4z"/>
		</g>
		<g>
			<path fill="#80B4E1" d="M269.8,494.5h11.3v3.3h-3.8v20h-3.7v-20h-3.8V494.5z"/>
		</g>
		<g>
			<path fill="#80B4E1" d="M293.4,517.8h-3.7l-0.6-4.2h-4.5l-0.6,4.2h-3.3l3.7-23.3h5.3L293.4,517.8z M285,510.4h3.5l-1.7-11.8
				L285,510.4z"/>
			<path fill="#80B4E1" d="M306.8,504.8h4.5v2.6h-4.5v4.6h-2.6v-4.6h-4.5v-2.6h4.5v-4.5h2.6V504.8z"/>
			<path fill="#80B4E1" d="M318.6,494.5h5.8c3.7,0,5.5,2,5.5,5.8V512c0,3.7-1.8,5.8-5.5,5.8h-5.8V494.5z M322.2,497.8v16.6h2
				c1.2,0,1.9-0.6,1.9-2.3V500c0-1.7-0.7-2.3-1.9-2.3L322.2,497.8L322.2,497.8z"/>
			<path fill="#80B4E1" d="M335.8,504.3h5v3.3h-5v6.8h6.3v3.3h-10v-23.3h10v3.3h-6.3V504.3z"/>
			<path fill="#80B4E1" d="M349.3,494.2c3.5,0,5.4,2.1,5.4,5.8v0.7h-3.5v-1c0-1.7-0.7-2.3-1.9-2.3c-1.2,0-1.9,0.6-1.9,2.3
				c0,4.8,7.1,5.7,7.1,12.3c0,3.7-1.9,5.8-5.5,5.8s-5.5-2.1-5.5-5.8v-1.4h3.5v1.7c0,1.7,0.7,2.3,1.9,2.3c1.2,0,1.9-0.6,1.9-2.3
				c0-4.8-7.1-5.7-7.1-12.3C343.9,496.3,345.8,494.2,349.3,494.2z"/>
			<path fill="#80B4E1" d="M356.8,494.5h3.7v23.3h-3.7V494.5z"/>
			<path fill="#80B4E1" d="M368.7,504.8h5.1v7.4c0,3.7-1.9,5.8-5.5,5.8s-5.5-2.1-5.5-5.8v-12.1c0-3.7,1.9-5.8,5.5-5.8
				s5.5,2.1,5.5,5.8v2.3h-3.5v-2.5c0-1.7-0.7-2.3-1.9-2.3c-1.2,0-1.9,0.6-1.9,2.3v12.6c0,1.7,0.7,2.3,1.9,2.3c1.2,0,1.9-0.6,1.9-2.3
				v-4.3h-1.7V504.8L368.7,504.8z"/>
			<path fill="#80B4E1" d="M379.4,500.9v16.9h-3.3v-23.3h4.6l3.8,14v-14h3.3v23.3H384L379.4,500.9z"/>
		</g>
	</g>
	<polygon fill="#010101" points="106.4,477.7 87.7,422.6 100,422.6 112,461.2 123.9,422.6 135.9,422.6 117.2,477.7 	"/>
	<path fill="#010101" d="M138.6,422.6h10.8v9.4h-10.8V422.6z M138.6,436.8h10.8v40.8h-10.8V436.8z"/>
	<path fill="#010101" d="M178.6,449.2c-0.5-3.7-2.7-5.4-7.3-5.4c-4.4,0-6.7,0.9-6.7,3.5c0,2.2,2.3,3.4,6.6,4.6
		c14.3,3.9,18.9,4.7,18.9,14.2c0,7.3-6.2,12.7-18.1,12.7c-11.7,0-19.2-5.6-19.4-14.2h11.1c0,3.8,3.4,6.1,8.2,6.1
		c4.1,0,7.4-1.2,7.4-3.9c0-3-2.2-4-6.6-5c-15.9-3.5-18.7-7.6-18.7-14.5c0-6.1,4.7-11.5,17.5-11.5c11.7,0,16.9,5.1,17.4,13.5
		L178.6,449.2L178.6,449.2z"/>
	<path fill="#010101" d="M219.3,477.7v-5.7c-2.8,4.7-7.1,6.8-12.7,6.8c-8.1,0-13.8-6.1-13.8-15v-26.9h10.8v25.2
		c0,5.1,2.3,7.6,6.9,7.6c5.5,0,8.4-3.9,8.4-9.3v-23.6h10.7v40.8L219.3,477.7L219.3,477.7z"/>
	<path fill="#010101" d="M259.4,477.7c-0.3-1-0.6-2.4-0.7-3.7c-2.5,2.8-6.9,4.7-12.3,4.7c-9.3,0-13.6-4.6-13.6-11.2
		c0-11.8,7.9-13.1,18.7-14.6c5.4-0.7,6.9-1.8,6.9-4.7c0-2.7-2.7-4.2-6.9-4.2c-4.9,0-6.9,2.4-7.4,6.1h-10c0.2-8.4,4.8-14.4,17.9-14.4
		c13,0,17.4,5.8,17.4,16.1v25.8L259.4,477.7L259.4,477.7z M258.7,457.7c-1.1,1.1-3,1.7-6.9,2.4c-6.1,1.2-8.1,2.9-8.1,6.4
		c0,3.1,1.8,4.6,5.2,4.6c5.6,0,9.7-4.1,9.8-8.9L258.7,457.7z"/>
	<rect x="273.8" y="422.5" fill="#010101" width="10.8" height="55.1"/>
	<path fill="#010101" d="M289,422.5h10.8v9.4H289V422.5z M289,436.8h10.8v40.8H289V436.8z"/>
	<polygon fill="#010101" points="303,477.7 303,469.3 323.8,445.4 304.4,445.4 304.4,436.8 337.6,436.8 337.6,445.5 316.8,468.8 
		338.2,468.8 338.2,477.7 	"/>
	<path fill="#010101" d="M350.8,460.1c0.3,6.1,3.8,10.1,9.1,10.1c3.5,0,6.6-1.7,7.3-4.6h11.1c-2.5,8.4-9.2,13.1-17.9,13.1
		c-13.6,0-20.4-7.4-20.4-22.3c0-12.6,7.2-20.8,19.7-20.8c12.5,0,19.2,8.1,19.2,24.3h-28.1V460.1z M367.8,453.3c-0.2-6.1-4.2-9-8.4-9
		c-4.3,0-7.9,3.3-8.3,9H367.8z"/>
	<polygon fill="#010101" points="402.5,477.7 402.5,422.6 414,422.6 414,467.6 441.3,467.6 441.3,477.7 	"/>
	<path fill="#010101" d="M469.5,477.7c-0.3-1-0.6-2.4-0.7-3.7c-2.5,2.8-6.9,4.7-12.3,4.7c-9.3,0-13.6-4.6-13.6-11.2
		c0-11.8,7.9-13.1,18.7-14.6c5.4-0.7,6.9-1.8,6.9-4.7c0-2.7-2.7-4.2-6.9-4.2c-4.9,0-6.9,2.4-7.4,6.1h-10c0.2-8.4,4.8-14.4,17.9-14.4
		c13,0,17.4,5.8,17.4,16.1v25.8L469.5,477.7L469.5,477.7z M468.7,457.7c-1.1,1.1-3,1.7-6.9,2.4c-6.1,1.2-8.1,2.9-8.1,6.4
		c0,3.1,1.8,4.6,5.2,4.6c5.6,0,9.7-4.1,9.8-8.9L468.7,457.7z"/>
	<path fill="#010101" d="M483.8,477.7v-55.8h10.6v20.3c3.1-4.3,7.1-6.4,12.1-6.4c10.5,0,16.7,8.7,16.7,21.1
		c0,13.8-7.4,21.9-17.7,21.9c-5,0-8.8-1.9-11.3-6.1l-0.1,5L483.8,477.7L483.8,477.7z M512.4,457.6c0-8.4-3-12.6-9.3-12.6
		c-6,0-9.1,4.4-9.1,13.3c0,6.9,4,11.7,9.1,11.7C508.5,470,512.4,464.9,512.4,457.6"/>
	<path fill="#80B4E1" d="M319.9,297.2c0,1.5-1.2,2.7-2.7,2.7s-2.7-1.2-2.7-2.7c0-1.5,1.2-2.7,2.7-2.7S319.9,295.7,319.9,297.2"/>
	<path fill="#80B4E1" d="M315.6,293.1c0,1.1-0.9,1.9-1.9,1.9c-1.1,0-1.9-0.9-1.9-1.9s0.9-1.9,1.9-1.9
		C314.8,291.2,315.6,292,315.6,293.1"/>
	<path fill="#80B4E1" d="M317.4,290c0,0.6-0.5,1.1-1.1,1.1s-1.1-0.5-1.1-1.1s0.5-1.1,1.1-1.1S317.4,289.4,317.4,290"/>
	<g id="XMLID_1_">
		<g>
			<path fill="#80B4E1" d="M348,373.5c0,0,0.9,1.6,0.9,2.5c0,2-1.6,3.6-3.6,3.6c-0.3,0-7.4,0.2-15.2,0.2c-10.1,0.1-13.8,0-13.8,0
				s-3.7,0.1-13.8,0c-7.8-0.1-14.9-0.2-15.2-0.2c-2,0-3.6-1.6-3.6-3.6c0-0.9,0.9-2.5,0.9-2.5l0.5-0.9c0.7-1.2,10.1-15.9,18.7-27.4
				c0,0,7.5-8.5,7.8-14.5c0.1-2.5,0-20,0-21.8c0-1.8-1-3.5-1.4-4.2c-0.1-0.1-0.1-0.1-0.2-0.1c-0.2-0.1-0.3-0.3-0.3-0.6
				c0-0.4,0.3-0.7,0.6-0.7h5.8h5.8c0.4,0,0.6,0.3,0.6,0.7c0,0.2-0.1,0.4-0.3,0.6c-0.1,0.1-0.1,0.1-0.2,0.1c-0.4,0.6-1.4,2.4-1.4,4.2
				c0,1.8-0.2,19.3,0,21.8c0.3,6,7.8,14.5,7.8,14.5c8.7,11.5,18,26.2,18.7,27.4L348,373.5z M344,375.4c0.1-0.1,0.1-0.1,0.1-0.2
				c0-0.1-0.1-0.2-0.1-0.2l-8.7-13.2c-1.7,2-4.3,3.4-7.3,3.4c-4.2,0-7-2.7-9-6.4c-2-3.7-5.6-5.8-9.9-5.8c-4.8,0-8,3.2-10.6,7.4
				l-0.9,1.4l-8.5,13.1l-0.3,0.3h0.5h54.4C343.9,375.2,344,375.4,344,375.4L344,375.4z M334,359.7h-12.7c1.1,1.4,3.5,4,6.3,4
				C330.5,363.7,332.9,361.1,334,359.7z M321.7,343.9c0-1.4-1.1-2.5-2.5-2.5c-1.4,0-2.5,1.1-2.5,2.5c0,1.4,1.1,2.5,2.5,2.5
				C320.6,346.3,321.7,345.2,321.7,343.9z M318.5,335.1c0-0.6-0.4-1-1-1c-0.6,0-1,0.4-1,1c0,0.6,0.4,1,1,1
				C318.1,336.1,318.5,335.6,318.5,335.1z M316.9,339.2c0-1-0.8-1.8-1.8-1.8s-1.8,0.8-1.8,1.8c0,1,0.8,1.8,1.8,1.8
				S316.9,340.2,316.9,339.2z"/>
		</g>
	</g>
	<path fill="#80B4E1" d="M316.3,403.3c-38,0-68.9-30.9-68.9-68.9c0-38,30.9-68.9,68.9-68.9c38,0,68.9,30.9,68.9,68.9
		C385.2,372.4,354.4,403.3,316.3,403.3 M316.3,272.8c-34,0-61.6,27.7-61.6,61.6s27.7,61.6,61.6,61.6s61.6-27.7,61.6-61.6
		S350.3,272.8,316.3,272.8"/>
</g>
<g id="logo_on_color_screen">
</g>
</svg>
