<?xml version="1.0" encoding="utf-8"?>
<!-- Generator: Adobe Illustrator 16.0.0, SVG Export Plug-In . SVG Version: 6.00 Build 0)  -->
<!DOCTYPE svg PUBLIC "-//W3C//DTD SVG 1.1//EN" "http://www.w3.org/Graphics/SVG/1.1/DTD/svg11.dtd">
<svg version="1.1" id="Layer_1" xmlns="http://www.w3.org/2000/svg" xmlns:xlink="http://www.w3.org/1999/xlink" x="0px" y="0px"
	 width="287.266px" height="357.141px" viewBox="0 0 287.266 357.141" enable-background="new 0 0 287.266 357.141"
	 xml:space="preserve">
<g>
	<path fill="#732877" d="M287.266,333.85c0,12.861-10.428,23.291-23.291,23.291H23.292C10.429,357.141,0,346.711,0,333.85V23.292
		C0,10.43,10.429,0,23.292,0h240.683c12.863,0,23.291,10.43,23.291,23.292V333.85z"/>
	
		<linearGradient id="SVGID_1_" gradientUnits="userSpaceOnUse" x1="-658.5918" y1="723.3696" x2="-621.6416" y2="723.3696" gradientTransform="matrix(0.8509 0.5253 -0.5253 0.8509 1059.8999 -1.8956)">
		<stop  offset="0.0032" style="stop-color:#D39C44"/>
		<stop  offset="0.1401" style="stop-color:#D9A550"/>
		<stop  offset="0.5004" style="stop-color:#EABA6D"/>
		<stop  offset="0.7957" style="stop-color:#F5C87F"/>
		<stop  offset="0.9875" style="stop-color:#F9CD85"/>
	</linearGradient>
	<path fill="url(#SVGID_1_)" d="M164.507,233.225c0,0-46.363,71.555-47.221,72.877c-2.345,3.629,3.259,9.936,4.823,12.859
		c1.074,2.016,2.658,3.623,2.922,5.994c0.068,0.629-1.181,7.834-2.174,6.973c-5.195-4.5-10.379-9.02-15.576-13.514
		c-3.053-2.635-8.166-4.584-8.398-9.191c-0.248-4.838,4.569-9.193,6.672-13.174c3.956-7.486,8.195-14.883,12.643-22.086
		l25.635-45.688L164.507,233.225z"/>
	<path fill="#4A443B" d="M123.855,330.065c0,0,2.065,1.902,1.542,3.088c-0.521,1.182-1.771,2.4-1.771,2.4L93.962,314.67l2.075-2.723
		L123.855,330.065z"/>
	<path fill="#4A443B" d="M122.109,318.961c0,0,0.102,9.84-2.635,11.189l-2.75-1.699l4.531-11.646L122.109,318.961z"/>
	<g>
		<linearGradient id="SVGID_2_" gradientUnits="userSpaceOnUse" x1="137.9863" y1="279.2866" x2="176.2817" y2="279.2866">
			<stop  offset="0.0032" style="stop-color:#D39C44"/>
			<stop  offset="0.1401" style="stop-color:#D9A550"/>
			<stop  offset="0.5004" style="stop-color:#EABA6D"/>
			<stop  offset="0.7957" style="stop-color:#F5C87F"/>
			<stop  offset="0.9875" style="stop-color:#F9CD85"/>
		</linearGradient>
		<path fill="url(#SVGID_2_)" d="M158.084,226.469c0,0-0.695,85.258-0.709,86.832c-0.029,4.326,8.086,6.637,10.974,8.266
			c1.99,1.117,4.187,1.625,5.685,3.486c0.394,0.49,3.21,7.242,1.907,7.047c-6.8-1.006-13.593-2.035-20.396-3.037
			c-3.99-0.586-9.35,0.52-12.022-3.246c-2.805-3.951-1.081-10.207-1.444-14.695c-0.679-8.443-1.075-16.959-1.189-25.424
			l-2.902-52.301L158.084,226.469z"/>
		<path fill="#4A443B" d="M175.782,329.989c0,0,2.765,0.504,2.957,1.779c0.195,1.279-0.2,2.975-0.2,2.975l-36.242-1.688l0.289-3.412
			L175.782,329.989z"/>
		<path fill="#4A443B" d="M168.349,321.567c0,0,5.367,8.24,3.786,10.85l-3.232,0.043l-2.433-12.256L168.349,321.567z"/>
	</g>
	<linearGradient id="SVGID_3_" gradientUnits="userSpaceOnUse" x1="129.2852" y1="79.6074" x2="149.1201" y2="79.6074">
		<stop  offset="0.0032" style="stop-color:#D39C44"/>
		<stop  offset="0.1401" style="stop-color:#D9A550"/>
		<stop  offset="0.5004" style="stop-color:#EABA6D"/>
		<stop  offset="0.7957" style="stop-color:#F5C87F"/>
		<stop  offset="0.9875" style="stop-color:#F9CD85"/>
	</linearGradient>
	<path fill="url(#SVGID_3_)" d="M149.12,87.091c0,4.802-4.207,8.693-9.396,8.693h-1.044c-5.188,0-9.395-3.892-9.395-8.693V72.126
		c0-4.805,4.207-8.695,9.395-8.695h1.044c5.189,0,9.396,3.891,9.396,8.695V87.091z"/>
	<linearGradient id="SVGID_4_" gradientUnits="userSpaceOnUse" x1="109.5229" y1="132.9648" x2="169.8145" y2="132.9648">
		<stop  offset="0" style="stop-color:#C8C8C8"/>
		<stop  offset="0.8949" style="stop-color:#FFFFFF"/>
	</linearGradient>
	<path fill="url(#SVGID_4_)" d="M111.741,178.245h56.323c0,0,12.107-91.255-27.373-90.557
		C103.291,88.345,108.584,132.271,111.741,178.245z"/>
	
		<linearGradient id="SVGID_5_" gradientUnits="userSpaceOnUse" x1="120.3369" y1="49.0386" x2="161.9927" y2="49.0386" gradientTransform="matrix(1 -0.003 0.003 1 -2.3742 -2.9986)">
		<stop  offset="0.0032" style="stop-color:#D39C44"/>
		<stop  offset="0.1401" style="stop-color:#D9A550"/>
		<stop  offset="0.5004" style="stop-color:#EABA6D"/>
		<stop  offset="0.7957" style="stop-color:#F5C87F"/>
		<stop  offset="0.9875" style="stop-color:#F9CD85"/>
	</linearGradient>
	<path fill="url(#SVGID_5_)" d="M159.673,64.797c-0.175-14.366-0.975-28.763-1.675-43.122c0,0-3.914-11.025-19.762-11.285
		c-13.316-0.216-18.612,9.057-19.964,12.029c0.01,0.57,0.016,1.143,0.011,1.715l-0.24-0.511c0,0.021,0.004,0.046,0.008,0.068
		l0.232,0.565c-0.001,0.41-0.018,0.82-0.027,1.232c0.819,7.69,0.851,15.483,0.186,23.187c0.084,0.022,0.167,0.043,0.253,0.061
		c0.04,0.954,0.085,1.91,0.132,2.863l0.175,16.743l0.196-0.525c0.084,0.752,0.227,1.486,0.471,2.18
		c1.718,4.899,7.087,7.434,11.794,9.138c4.577,1.655,9.206,2.146,14.023,1.311c3.909-0.679,9.151-2.976,12.024-5.749
		C160.643,71.664,159.719,68.64,159.673,64.797z"/>
	<path fill="#352215" d="M132.74,10.032c-9.359,1.337-15.078,12.356-15.078,12.356l0.372,9.033
		c-0.047,0.372-0.189,0.667-0.397,0.904c0.414,2.799,0.693,5.602,0.878,8.415c0.02,0.004,0.042,0.006,0.062,0.01
		c-0.007,0.367-0.016,0.73-0.021,1.096l0.14,11.521l-0.102,7.163l9.341,1.56c4.396,1.614,9.838,0.103,15.133-10.688l-0.127-13.037
		c4.146-2.343,7.188-5.768,8.072-7.833c1.336-3.124,7.704-8.79,7.704-8.79C155.279,13.396,142.098,8.695,132.74,10.032z"/>
	<path fill="#E74C25" d="M171.105,262.762c0,3.199-3.154,5.795-7.047,5.795h-45.807c-3.893,0-7.048-2.596-7.048-5.795v-83.58
		c0-3.201,3.155-5.797,7.048-5.797h45.807c3.893,0,7.047,2.596,7.047,5.797V262.762z"/>
	<path fill="#EAB862" d="M144.574,50.831c0,2.736-2.219,4.955-4.959,4.955c-2.738,0-4.957-2.219-4.957-4.955
		c0-2.74,2.219-4.964,4.957-4.964C142.355,45.867,144.574,48.091,144.574,50.831z"/>
	<path fill="#352215" d="M118.593,60.53c0,0,0.005,7.956,1.075,9.467c1.07,1.513,15.937-5.587,19.041-13.572L118.593,60.53z"/>
	<path fill="#E74C25" d="M176.826,176.685c0,3.038-2.382,5.497-5.323,5.497h-58.259c-2.938,0-5.324-2.459-5.324-5.497l0,0
		c0-3.034,2.387-5.498,5.324-5.498h58.259C174.444,171.187,176.826,173.65,176.826,176.685L176.826,176.685z"/>
	<linearGradient id="SVGID_6_" gradientUnits="userSpaceOnUse" x1="138.2637" y1="52.7061" x2="144.5879" y2="52.7061">
		<stop  offset="0" style="stop-color:#C8C8C8"/>
		<stop  offset="0.8949" style="stop-color:#FFFFFF"/>
	</linearGradient>
	<path fill="url(#SVGID_6_)" d="M144.588,52.706c0,1.527-1.24,2.768-2.768,2.768h-0.789c-1.529,0-2.768-1.24-2.768-2.768l0,0
		c0-1.528,1.238-2.768,2.768-2.768h0.789C143.348,49.938,144.588,51.178,144.588,52.706L144.588,52.706z"/>
	<linearGradient id="SVGID_7_" gradientUnits="userSpaceOnUse" x1="142.6997" y1="109.2397" x2="181.7734" y2="109.2397">
		<stop  offset="0.1051" style="stop-color:#FFFFFF"/>
		<stop  offset="1" style="stop-color:#C8C8C8"/>
	</linearGradient>
	<path fill="none" stroke="url(#SVGID_7_)" stroke-width="1.3311" stroke-miterlimit="10" d="M143.256,53.205
		c0,0,10.536,16.028,14.254,21.491c3.717,5.465,7.711,15.447,10.041,21.772c2.662,7.228,3.908,14.862,5.584,22.354
		c2.691,12.03,4.983,24.19,5.556,36.529c0.116,2.537-0.079,8.504,2.836,9.669"/>
	<linearGradient id="SVGID_8_" gradientUnits="userSpaceOnUse" x1="153.145" y1="121.8159" x2="178.5278" y2="121.8159">
		<stop  offset="0.1051" style="stop-color:#FFFFFF"/>
		<stop  offset="1" style="stop-color:#C8C8C8"/>
	</linearGradient>
	<path fill="none" stroke="url(#SVGID_8_)" stroke-width="1.3311" stroke-miterlimit="10" d="M153.685,75.612
		c0,0,17.97,24.85,24.181,92.736"/>
	<g>
		<path fill="#FDFEFF" d="M185.588,191.992c-1.254,1.891-3.319,2.728-4.615,1.867l-12.906-8.554
			c-1.299-0.857-1.334-3.087-0.079-4.977l17.575-26.522c1.25-1.89,3.318-2.726,4.615-1.867l12.907,8.553
			c1.296,0.857,1.327,3.088,0.077,4.978L185.588,191.992z"/>
		<g>
			<path fill-rule="evenodd" clip-rule="evenodd" fill="#8E8E8E" d="M192.812,169.312c-1.688,0.084-2.73,1.58-1.913,3.29
				c-0.727,0.5-1.476,0.961-2.384,1.073c-0.441,0.054-0.812-0.133-1.047-0.494c-0.43-0.663-0.986-1.082-1.787-1.201
				c-0.529-0.078-0.856-0.433-0.952-0.973c-0.3-1.739,0.039-3.327,1.201-4.68c0.97-1.126,2.823-1.346,3.769,0.175
				c0.257,0.407,0.605,0.593,1.062,0.673c0.87,0.154,1.525,0.619,1.867,1.456C192.713,168.833,192.744,169.056,192.812,169.312z"/>
			<path fill-rule="evenodd" clip-rule="evenodd" fill="#8E8E8E" d="M190.396,166.488c0.518-0.938,1.713-1.267,2.641-0.75
				C192.65,166.708,191.275,167.111,190.396,166.488z"/>
		</g>
	</g>
	<polygon fill="#07908D" points="100.729,122.262 157.856,112.74 164.204,154 100.729,164.579 	"/>
	<linearGradient id="SVGID_9_" gradientUnits="userSpaceOnUse" x1="116.7134" y1="143.5522" x2="218.2038" y2="143.5522">
		<stop  offset="0.0032" style="stop-color:#D39C44"/>
		<stop  offset="0.1401" style="stop-color:#D9A550"/>
		<stop  offset="0.5004" style="stop-color:#EABA6D"/>
		<stop  offset="0.7957" style="stop-color:#F5C87F"/>
		<stop  offset="0.9875" style="stop-color:#F9CD85"/>
	</linearGradient>
	<path fill="url(#SVGID_9_)" d="M184.205,173.896l-3.436-2.688c-1.701-1.332-3.651-2.005-5.433-2.031
		c-0.267,0.34-0.537,0.679-0.806,1.02l-31.719-24.868v-39.011c0-4.093-2.633-7.409-5.879-7.409c-3.248,0-5.881,3.316-5.881,7.409
		v2.895c-0.018,0.001-0.034,0.007-0.051,0.007c-0.284,12.428-0.738,39.207,0.46,42.694c1.405,4.091,28.54,24.433,36.942,28.133
		c0.49,1.033,1.213,2.029,2.16,2.898c0,0.011-0.002,0.02-0.004,0.03c0.008-0.005,0.016-0.011,0.021-0.018
		c0.19,0.176,0.391,0.344,0.6,0.508l3.434,2.688c3.414,2.672,7.826,2.735,9.854,0.143l2.244-2.869
		C188.741,180.833,187.618,176.566,184.205,173.896z"/>
	<path fill="#352215" d="M118.713,20.7c-0.222-7.701-10.994-8.514-16.691-4.228c-6.604,4.968-5.459,15.812-16.843,11.561
		c14.982,13.923,25.237-0.188,36.708-4.159"/>
	<path fill="#07908D" d="M173.619,168.013c-5.084,1.786-8.914,7.353-10.471,12.771c6.506,3.305,12.687-4.532,13.509-10.495
		c-2.22-0.74-3.308,0.16-5.154,0.898"/>
	<polygon fill="#732877" points="129.664,188.911 122.944,200.547 116.227,188.911 	"/>
	<polygon fill="#732877" points="149.764,188.911 143.045,200.547 136.326,188.911 	"/>
	<polygon fill="#732877" points="139.186,209.012 132.466,220.649 125.748,209.012 	"/>
	<linearGradient id="SVGID_10_" gradientUnits="userSpaceOnUse" x1="186.5566" y1="56.0376" x2="241.2969" y2="56.0376">
		<stop  offset="0" style="stop-color:#C4892B"/>
		<stop  offset="1" style="stop-color:#F1BB33"/>
		<stop  offset="1" style="stop-color:#687533"/>
	</linearGradient>
	<polygon fill="url(#SVGID_10_)" points="213.927,30.007 220.389,49.893 241.297,49.893 224.381,62.183 230.842,82.068 
		213.927,69.778 197.012,82.068 203.473,62.183 186.557,49.893 207.466,49.893 	"/>
	<linearGradient id="SVGID_11_" gradientUnits="userSpaceOnUse" x1="47.4697" y1="120.3486" x2="84.4121" y2="120.3486">
		<stop  offset="0" style="stop-color:#C4892B"/>
		<stop  offset="1" style="stop-color:#F1BB33"/>
		<stop  offset="1" style="stop-color:#687533"/>
	</linearGradient>
	<polygon fill="url(#SVGID_11_)" points="65.941,102.781 70.301,116.201 84.412,116.201 72.996,124.495 77.357,137.916 
		65.941,129.622 54.525,137.916 58.886,124.495 47.47,116.201 61.58,116.201 	"/>
</g>
</svg>
