<?xml version="1.0" encoding="utf-8"?>
<!-- Generator: Adobe Illustrator 16.0.0, SVG Export Plug-In . SVG Version: 6.00 Build 0)  -->
<!DOCTYPE svg PUBLIC "-//W3C//DTD SVG 1.1//EN" "http://www.w3.org/Graphics/SVG/1.1/DTD/svg11.dtd">
<svg version="1.1" id="Layer_1" xmlns="http://www.w3.org/2000/svg" xmlns:xlink="http://www.w3.org/1999/xlink" x="0px" y="0px"
	 width="287.267px" height="357.142px" viewBox="0 0 287.267 357.142" enable-background="new 0 0 287.267 357.142"
	 xml:space="preserve">
<g>
	<path fill="#07908D" d="M287.267,333.851c0,12.861-10.429,23.291-23.293,23.291H23.292C10.427,357.142,0,346.712,0,333.851V23.292
		C0,10.43,10.427,0,23.292,0h240.682c12.864,0,23.293,10.43,23.293,23.292V333.851z"/>
	<g>
		<path fill="#FFFFFF" d="M55.92,43.986c0.764,0,1.479,0.146,2.144,0.436c0.664,0.29,1.246,0.686,1.744,1.185
			c0.499,0.498,0.893,1.079,1.184,1.744c0.291,0.664,0.436,1.379,0.436,2.143V59.71h-1.196v-6.654h-3.215V51.86h3.215v-2.367
			c0-0.599-0.113-1.158-0.336-1.683c-0.225-0.523-0.532-0.98-0.922-1.37c-0.391-0.391-0.848-0.699-1.371-0.922
			c-0.524-0.225-1.084-0.337-1.683-0.337c-0.598,0-1.158,0.112-1.682,0.337c-0.523,0.223-0.98,0.531-1.371,0.922
			c-0.391,0.39-0.697,0.847-0.922,1.37c-0.225,0.524-0.336,1.084-0.336,1.683h-1.196c0-0.764,0.145-1.479,0.436-2.143
			c0.29-0.665,0.685-1.246,1.184-1.744c0.498-0.499,1.079-0.895,1.744-1.185C54.442,44.132,55.156,43.986,55.92,43.986z"/>
		<path fill="#FFFFFF" d="M60.73,42.019h-0.175H60.43h-0.049c-0.083,0-0.191-0.018-0.324-0.05c-0.017,0-0.075-0.018-0.174-0.052
			c-0.449-0.148-0.818-0.414-1.109-0.798c-0.29-0.38-0.436-0.821-0.436-1.32v-1.046h1.196v1.046c0,0.283,0.091,0.516,0.274,0.698
			c0.183,0.184,0.408,0.291,0.673,0.323h0.25h3.688v1.198H60.73z"/>
		<path fill="#FFFFFF" d="M64.417,48.496l0.673-1.346l0.074-0.149c0.449-0.896,1.109-1.623,1.981-2.18
			c0.873-0.557,1.849-0.835,2.929-0.835c0.764,0,1.478,0.146,2.143,0.436s1.246,0.686,1.745,1.185
			c0.499,0.498,0.893,1.079,1.184,1.744c0.29,0.664,0.436,1.379,0.436,2.143V59.71h-1.197V49.493c0-0.599-0.111-1.158-0.335-1.683
			c-0.225-0.523-0.533-0.98-0.923-1.37c-0.391-0.391-0.847-0.699-1.37-0.922c-0.523-0.225-1.084-0.337-1.682-0.337
			c-0.897,0-1.695,0.236-2.393,0.711c-0.697,0.474-1.212,1.093-1.544,1.856l-0.523,1.047l0.149,0.995v9.919h-1.196V49.493
			L64.417,48.496z"/>
		<path fill="#FFFFFF" d="M79.768,48.945c0.315-0.315,0.523-0.714,0.623-1.196v-0.973c0-0.082-0.009-0.148-0.025-0.2
			c0-0.164-0.042-0.38-0.125-0.646s-0.191-0.515-0.324-0.748h-2.841v-1.195h0.548h1.346h0.025h0.922h0.523
			c0.233,0.249,0.441,0.528,0.624,0.835c0.183,0.307,0.316,0.635,0.399,0.984v0.024l0.025,0.05v0.05
			c0.066,0.249,0.1,0.533,0.1,0.847v0.973c-0.05,0.383-0.162,0.751-0.337,1.108c-0.174,0.357-0.403,0.678-0.685,0.959l-0.05,0.05
			c-0.017,0-0.024,0.01-0.024,0.025c-0.432,0.465-0.648,1.021-0.648,1.67v4.512c0,0.331,0.062,0.646,0.187,0.945
			c0.125,0.299,0.299,0.561,0.523,0.785c0.225,0.224,0.486,0.402,0.785,0.536c0.299,0.133,0.623,0.199,0.972,0.199
			c0.349,0,0.672-0.066,0.972-0.199c0.299-0.134,0.561-0.312,0.785-0.536c0.224-0.225,0.398-0.486,0.523-0.785
			c0.125-0.299,0.187-0.614,0.187-0.945V43.986h1.171v12.087c0,0.994-0.357,1.852-1.071,2.564c-0.333,0.349-0.723,0.615-1.171,0.798
			s-0.914,0.274-1.396,0.274c-0.482,0-0.947-0.092-1.396-0.274c-0.449-0.183-0.839-0.449-1.171-0.798
			c-0.715-0.713-1.071-1.57-1.071-2.564v-4.512c0-0.482,0.091-0.947,0.274-1.396c0.182-0.448,0.448-0.838,0.797-1.169
			c0-0.018,0.004-0.027,0.012-0.027C79.763,48.969,79.768,48.962,79.768,48.945z"/>
		<path fill="#FFFFFF" d="M94.445,43.986c0.764,0,1.478,0.146,2.142,0.436c0.665,0.29,1.247,0.686,1.745,1.185
			c0.499,0.498,0.894,1.079,1.184,1.744c0.29,0.664,0.436,1.379,0.436,2.143v4.71c0,0.765-0.146,1.479-0.436,2.143
			c-0.291,0.665-0.685,1.246-1.184,1.745c-0.498,0.498-1.08,0.893-1.745,1.183c-0.664,0.292-1.378,0.437-2.142,0.437
			c-0.765,0-1.479-0.145-2.143-0.437c-0.665-0.29-1.247-0.685-1.745-1.183c-0.499-0.499-0.894-1.08-1.184-1.745
			c-0.291-0.663-0.436-1.378-0.436-2.143v-1.147V51.86h3.489v1.195h-2.293v1.147c0,0.598,0.112,1.159,0.336,1.682
			c0.225,0.524,0.532,0.98,0.923,1.371c0.39,0.391,0.847,0.697,1.37,0.921c0.523,0.225,1.084,0.336,1.683,0.336
			c0.598,0,1.158-0.111,1.682-0.336c0.523-0.224,0.98-0.53,1.37-0.921c0.391-0.391,0.698-0.847,0.922-1.371
			c0.225-0.522,0.336-1.084,0.336-1.682v-4.71c0-0.599-0.112-1.158-0.336-1.683c-0.224-0.523-0.532-0.98-0.922-1.37
			c-0.39-0.391-0.847-0.699-1.37-0.922c-0.523-0.225-1.084-0.337-1.682-0.337c-0.599,0-1.159,0.112-1.683,0.337
			c-0.523,0.223-0.98,0.531-1.37,0.922c-0.391,0.39-0.698,0.847-0.923,1.37c-0.224,0.524-0.336,1.084-0.336,1.683h-1.196
			c0-0.764,0.146-1.479,0.436-2.143c0.291-0.665,0.685-1.246,1.184-1.744c0.498-0.499,1.08-0.895,1.745-1.185
			C92.966,44.132,93.681,43.986,94.445,43.986z"/>
		<path fill="#FFFFFF" d="M113.957,55.1c0,0.831-0.175,1.6-0.523,2.306c-0.349,0.707-0.815,1.307-1.396,1.807
			c0,0.016-0.008,0.024-0.024,0.024l-0.026,0.024c-0.1,0.084-0.203,0.162-0.311,0.236c-0.109,0.076-0.212,0.146-0.312,0.213
			l-0.399-1.42l-2.516-9.22l-2.518,9.22l-0.399,1.42c-0.099-0.066-0.203-0.137-0.311-0.213c-0.108-0.074-0.211-0.152-0.312-0.236
			l-0.049-0.024c0-0.017-0.009-0.024-0.026-0.024c-0.581-0.5-1.042-1.104-1.382-1.818c-0.341-0.715-0.511-1.479-0.511-2.294v-0.024
			v-0.572V43.986h1.196v10.517v0.572V55.1c0,0.897,0.257,1.702,0.772,2.417l2.616-9.644h1.819l2.641,9.644
			c0.515-0.715,0.773-1.52,0.773-2.417v-0.024v-0.572V43.986h1.197v10.517v0.572V55.1z"/>
		<path fill="#FFFFFF" d="M119.812,45.394c-0.332,0.142-0.624,0.338-0.873,0.586s-0.444,0.54-0.586,0.871
			c-0.14,0.333-0.211,0.683-0.211,1.048c0,0.598,0.17,1.13,0.511,1.595c0.34,0.466,0.776,0.797,1.308,0.996
			c1.279,0.383,2.271,0.674,2.979,0.873c0.706,0.199,1.229,0.349,1.569,0.447c0.341,0.1,0.553,0.164,0.636,0.188
			s0.141,0.046,0.174,0.062c0.88,0.282,1.562,0.823,2.044,1.621c0.398,0.597,0.598,1.295,0.598,2.093
			c0,0.548-0.104,1.058-0.312,1.532c-0.208,0.473-0.486,0.889-0.835,1.246c-0.348,0.355-0.76,0.639-1.233,0.847
			c-0.474,0.209-0.984,0.312-1.533,0.312h-1.57c-0.764,0-1.482-0.145-2.155-0.437c-0.672-0.29-1.258-0.685-1.756-1.183
			c-0.499-0.499-0.894-1.08-1.184-1.745c-0.292-0.663-0.436-1.378-0.436-2.143h1.221c0,0.598,0.112,1.159,0.336,1.682
			c0.224,0.524,0.532,0.98,0.922,1.371c0.389,0.391,0.847,0.697,1.37,0.921c0.524,0.225,1.085,0.336,1.682,0.336h1.57
			c0.365,0,0.714-0.074,1.047-0.223c0.332-0.15,0.623-0.35,0.872-0.6c0.249-0.248,0.444-0.535,0.586-0.859
			c0.141-0.323,0.212-0.677,0.212-1.058c0-0.616-0.179-1.159-0.537-1.633c-0.356-0.473-0.81-0.802-1.357-0.984
			c-1.263-0.366-2.243-0.647-2.941-0.847c-0.697-0.2-1.212-0.349-1.544-0.449c-0.333-0.1-0.54-0.162-0.624-0.187
			c-0.083-0.024-0.14-0.046-0.174-0.063c-0.433-0.132-0.819-0.336-1.159-0.61c-0.34-0.273-0.626-0.601-0.859-0.984
			c-0.416-0.646-0.623-1.345-0.623-2.093c0-0.547,0.103-1.062,0.311-1.545c0.208-0.481,0.49-0.896,0.848-1.246
			s0.772-0.627,1.245-0.835c0.474-0.208,0.985-0.311,1.534-0.311h1.594h0.025c0.764,0,1.478,0.146,2.143,0.436
			c0.664,0.29,1.246,0.686,1.745,1.185c0.498,0.498,0.892,1.079,1.184,1.744c0.29,0.664,0.435,1.379,0.435,2.143h-1.196
			c0-0.599-0.111-1.158-0.335-1.683c-0.226-0.523-0.537-0.98-0.935-1.37c-0.399-0.391-0.86-0.699-1.383-0.922
			c-0.523-0.225-1.084-0.337-1.683-0.337h-1.594C120.501,45.182,120.145,45.253,119.812,45.394z"/>
		<path fill="#FFFFFF" d="M133.344,58.513v1.197h-1.146h-1.146h-0.05V43.986h1.196v14.526H133.344z"/>
		<path fill="#FFFFFF" d="M141.343,43.986c0.764,0,1.478,0.146,2.143,0.436c0.664,0.29,1.247,0.686,1.744,1.185
			c0.499,0.498,0.894,1.079,1.183,1.744c0.291,0.664,0.437,1.379,0.437,2.143V59.71h-1.196V49.493c0-0.599-0.112-1.158-0.337-1.683
			c-0.224-0.523-0.531-0.98-0.922-1.37c-0.391-0.391-0.847-0.699-1.37-0.922c-0.523-0.225-1.085-0.337-1.682-0.337
			c-0.599,0-1.16,0.112-1.683,0.337c-0.524,0.223-0.98,0.531-1.371,0.922c-0.391,0.39-0.697,0.847-0.922,1.37
			c-0.224,0.524-0.336,1.084-0.336,1.683V59.71h-1.196V49.493v-5.507h1.196v2.093c0.515-0.631,1.142-1.137,1.881-1.521
			C139.651,44.177,140.461,43.986,141.343,43.986z"/>
		<path fill="#FFFFFF" d="M160.854,55.1c0,0.831-0.176,1.6-0.523,2.306c-0.349,0.707-0.814,1.307-1.396,1.807
			c0,0.016-0.009,0.024-0.023,0.024l-0.025,0.024c-0.101,0.084-0.204,0.162-0.312,0.236c-0.107,0.076-0.211,0.146-0.311,0.213
			l-0.399-1.42l-2.517-9.22l-2.517,9.22l-0.399,1.42c-0.1-0.066-0.204-0.137-0.311-0.213c-0.108-0.074-0.212-0.152-0.313-0.236
			l-0.048-0.024c0-0.017-0.009-0.024-0.026-0.024c-0.581-0.5-1.042-1.104-1.382-1.818c-0.341-0.715-0.512-1.479-0.512-2.294v-0.024
			v-0.572V43.986h1.198v10.517v0.572V55.1c0,0.897,0.256,1.702,0.771,2.417l2.618-9.644h1.819l2.641,9.644
			c0.514-0.715,0.771-1.52,0.771-2.417v-0.024v-0.572V43.986h1.197v10.517v0.572V55.1z"/>
		<path fill="#FFFFFF" d="M166.187,58.513v1.197h-1.146h-1.146h-0.049V34.565v-0.572v-0.025c0-0.696-0.15-1.337-0.449-1.918
			c-0.299-0.582-0.697-1.063-1.196-1.445l-2.666,2.667l-2.517-2.518v-1.67V29.06l0.921,0.922l1.596,1.595l1.595-1.595l0.897-0.922
			c0.398,0.216,0.738,0.439,1.021,0.672c0.614,0.516,1.101,1.138,1.458,1.869s0.535,1.521,0.535,2.367v0.025v0.572v23.947H166.187z"
			/>
		<path fill="#FFFFFF" d="M174.185,43.986c0.764,0,1.479,0.146,2.144,0.436c0.664,0.29,1.247,0.686,1.743,1.185
			c0.499,0.498,0.895,1.079,1.186,1.744c0.289,0.664,0.435,1.379,0.435,2.143V59.71h-1.195V49.493c0-0.599-0.111-1.158-0.336-1.683
			c-0.224-0.523-0.532-0.98-0.923-1.37c-0.39-0.391-0.847-0.699-1.37-0.922c-0.524-0.225-1.084-0.337-1.683-0.337
			c-0.597,0-1.158,0.112-1.682,0.337c-0.522,0.223-0.98,0.531-1.37,0.922c-0.391,0.39-0.698,0.847-0.922,1.37
			c-0.225,0.524-0.336,1.084-0.336,1.683V59.71h-1.196V49.493v-5.507h1.196v2.093c0.515-0.631,1.142-1.137,1.88-1.521
			C172.494,44.177,173.304,43.986,174.185,43.986z"/>
		<path fill="#FFFFFF" d="M182.683,40.847v1.196h-4.885v-0.051v-0.623v-0.522v-0.873h-1.22v-1.195h1.22h1.197V39.7v0.273v0.873
			H182.683z"/>
		<path fill="#FFFFFF" d="M193.423,58.513v1.197h-1.146h-1.146h-0.051V43.986h1.196v14.526H193.423z"/>
		<path fill="#FFFFFF" d="M201.422,43.986c0.764,0,1.478,0.146,2.143,0.436c0.664,0.29,1.246,0.686,1.745,1.185
			c0.498,0.498,0.892,1.079,1.183,1.744c0.29,0.664,0.437,1.379,0.437,2.143V59.71h-1.197V49.493c0-0.599-0.111-1.158-0.335-1.683
			c-0.225-0.523-0.532-0.98-0.922-1.37c-0.391-0.391-0.848-0.699-1.371-0.922c-0.522-0.225-1.084-0.337-1.682-0.337
			c-0.599,0-1.159,0.112-1.684,0.337c-0.522,0.223-0.98,0.531-1.369,0.922c-0.391,0.39-0.698,0.847-0.922,1.37
			c-0.226,0.524-0.336,1.084-0.336,1.683V59.71h-1.197V49.493v-5.507h1.197v2.093c0.514-0.631,1.141-1.137,1.88-1.521
			C199.73,44.177,200.54,43.986,201.422,43.986z"/>
		<path fill="#FFFFFF" d="M219.961,54.203c0,0.765-0.146,1.479-0.436,2.143c-0.29,0.665-0.685,1.246-1.185,1.745
			c-0.497,0.498-1.079,0.893-1.744,1.183c-0.665,0.292-1.379,0.437-2.142,0.437v-1.197c0.598,0,1.157-0.111,1.682-0.336
			c0.522-0.224,0.979-0.53,1.37-0.921s0.697-0.847,0.921-1.371c0.225-0.522,0.338-1.084,0.338-1.682v-4.71
			c0-0.599-0.113-1.158-0.338-1.683c-0.224-0.523-0.53-0.98-0.921-1.37c-0.391-0.391-0.848-0.699-1.37-0.922
			c-0.524-0.225-1.084-0.337-1.682-0.337c-0.6,0-1.159,0.112-1.684,0.337c-0.522,0.223-0.98,0.531-1.371,0.922
			c-0.391,0.39-0.696,0.847-0.92,1.37c-0.226,0.524-0.337,1.084-0.337,1.683h-1.222c0-0.764,0.145-1.479,0.437-2.143
			c0.29-0.665,0.685-1.246,1.183-1.744c0.499-0.499,1.085-0.895,1.759-1.185c0.671-0.29,1.391-0.436,2.155-0.436
			c0.763,0,1.477,0.146,2.142,0.436s1.247,0.686,1.744,1.185c0.5,0.498,0.895,1.079,1.185,1.744c0.29,0.664,0.436,1.379,0.436,2.143
			V54.203z"/>
		<path fill="#FFFFFF" d="M232.495,59.71h-1.22V49.493c0-0.599-0.114-1.158-0.338-1.683c-0.224-0.523-0.531-0.98-0.922-1.37
			c-0.391-0.391-0.847-0.699-1.37-0.922c-0.523-0.225-1.084-0.337-1.682-0.337s-1.16,0.112-1.682,0.337
			c-0.524,0.223-0.98,0.531-1.371,0.922c-0.392,0.39-0.697,0.847-0.923,1.37c-0.224,0.524-0.336,1.084-0.336,1.683h-1.196
			c0-0.764,0.145-1.479,0.437-2.143c0.291-0.665,0.686-1.246,1.183-1.744c0.499-0.499,1.081-0.895,1.745-1.185
			s1.378-0.436,2.144-0.436c0.763,0,1.481,0.146,2.155,0.436c0.673,0.29,1.258,0.686,1.756,1.185
			c0.499,0.498,0.894,1.079,1.185,1.744c0.29,0.664,0.436,1.379,0.436,2.143V59.71z"/>
		<path fill="#FFFFFF" d="M42.851,73.888c0.764,0,1.478,0.146,2.143,0.438c0.665,0.29,1.246,0.686,1.745,1.184
			c0.498,0.498,0.893,1.08,1.183,1.744c0.291,0.664,0.437,1.379,0.437,2.145v10.215h-1.196V79.397c0-0.6-0.112-1.16-0.337-1.685
			c-0.224-0.522-0.532-0.979-0.922-1.37c-0.391-0.389-0.847-0.697-1.371-0.922c-0.523-0.224-1.083-0.335-1.682-0.335
			c-0.599,0-1.159,0.111-1.682,0.335c-0.524,0.225-0.98,0.533-1.371,0.922c-0.39,0.391-0.697,0.848-0.921,1.37
			c-0.224,0.524-0.336,1.085-0.336,1.685v7.848c0.016,0.333,0.137,0.611,0.361,0.836c0.224,0.224,0.502,0.336,0.834,0.336h0.549
			h0.249h1.196c0.149-0.365,0.224-0.749,0.224-1.146h1.196c0,0.499-0.083,0.964-0.25,1.396c-0.066,0.149-0.137,0.299-0.211,0.448
			s-0.163,0.291-0.262,0.424c-0.034,0.033-0.05,0.059-0.05,0.074h-1.844h-0.249h-0.549c-0.664,0-1.229-0.232-1.695-0.697
			c-0.465-0.466-0.697-1.029-0.697-1.695v-7.822c0-0.766,0.145-1.48,0.436-2.145s0.686-1.246,1.184-1.744
			c0.499-0.498,1.08-0.894,1.744-1.184C41.372,74.034,42.086,73.888,42.851,73.888z"/>
		<path fill="#FFFFFF" d="M61.864,89.612h-1.196V80.94c-0.399,0.4-0.881,0.69-1.445,0.872c-0.034,0.018-0.087,0.038-0.162,0.063
			c-0.075,0.024-0.283,0.086-0.623,0.187c-0.341,0.099-0.856,0.249-1.545,0.448s-1.666,0.481-2.928,0.848
			c-0.548,0.183-1.001,0.511-1.358,0.984c-0.357,0.473-0.536,1.018-0.536,1.632c0,0.681,0.232,1.258,0.697,1.731
			c0.465,0.474,1.038,0.711,1.72,0.711h1.743v1.195h-1.743c-0.499,0-0.969-0.095-1.409-0.286c-0.44-0.19-0.827-0.452-1.158-0.785
			c-0.333-0.331-0.595-0.718-0.785-1.159c-0.191-0.439-0.287-0.909-0.287-1.407c0-0.763,0.208-1.462,0.623-2.094
			c0.482-0.797,1.162-1.337,2.043-1.62c0.017-0.015,0.071-0.036,0.162-0.061c0.091-0.025,0.312-0.088,0.66-0.188
			c0.349-0.099,0.876-0.252,1.583-0.46c0.706-0.209,1.689-0.503,2.953-0.885c0.681-0.232,1.196-0.689,1.545-1.37
			c0.033-0.084,0.071-0.233,0.112-0.449c0.042-0.216,0.021-0.474-0.062-0.772c-0.149-0.432-0.358-0.831-0.623-1.197
			c-0.266-0.364-0.578-0.68-0.935-0.945c-0.357-0.267-0.751-0.474-1.183-0.623c-0.432-0.149-0.889-0.224-1.371-0.224
			c-0.598,0-1.159,0.111-1.682,0.335c-0.523,0.225-0.98,0.533-1.371,0.922c-0.391,0.391-0.698,0.848-0.922,1.37
			c-0.224,0.524-0.336,1.085-0.336,1.685H50.85c0-0.766,0.145-1.48,0.436-2.145c0.291-0.664,0.685-1.246,1.184-1.744
			c0.498-0.498,1.079-0.894,1.745-1.184c0.664-0.291,1.378-0.438,2.143-0.438c0.648,0,1.263,0.105,1.844,0.312
			c0.581,0.209,1.109,0.494,1.583,0.859c0.473,0.366,0.875,0.807,1.208,1.32c0.333,0.516,0.573,1.072,0.723,1.671
			c0.05,0.183,0.087,0.373,0.112,0.572s0.037,0.458,0.037,0.774V89.612z"/>
		<path fill="#FFFFFF" d="M67.196,88.417v1.195H66.05h-1.146h-0.05V73.888h1.196v14.529H67.196z"/>
		<path fill="#FFFFFF" d="M80.702,85.003c0,0.832-0.175,1.6-0.523,2.305c-0.349,0.707-0.814,1.309-1.396,1.807
			c0,0.017-0.009,0.025-0.024,0.025l-0.025,0.024c-0.1,0.083-0.204,0.162-0.312,0.237s-0.211,0.145-0.311,0.211l-0.399-1.419
			l-2.517-9.221l-2.517,9.221l-0.399,1.419c-0.1-0.066-0.204-0.136-0.311-0.211c-0.109-0.075-0.212-0.154-0.312-0.237l-0.05-0.024
			c0-0.017-0.008-0.025-0.024-0.025c-0.582-0.498-1.043-1.105-1.383-1.819c-0.34-0.714-0.511-1.478-0.511-2.292v-0.025v-0.573
			V73.888h1.197v10.517v0.573v0.025c0,0.896,0.257,1.702,0.772,2.416l2.617-9.642h1.819l2.642,9.642
			c0.515-0.714,0.772-1.52,0.772-2.416v-0.025v-0.573V73.888h1.196v10.517v0.573V85.003z"/>
		<path fill="#FFFFFF" d="M87.705,73.888c0.764,0,1.478,0.146,2.143,0.438c0.665,0.29,1.246,0.686,1.745,1.184
			s0.893,1.08,1.184,1.744s0.436,1.379,0.436,2.145v10.215h-1.196V82.96h-3.215v-1.197h3.215v-2.365c0-0.6-0.112-1.16-0.336-1.685
			c-0.225-0.522-0.532-0.979-0.922-1.37c-0.39-0.389-0.847-0.697-1.37-0.922c-0.524-0.224-1.084-0.335-1.682-0.335
			c-0.599,0-1.159,0.111-1.683,0.335c-0.522,0.225-0.98,0.533-1.37,0.922c-0.391,0.391-0.698,0.848-0.922,1.37
			c-0.224,0.524-0.336,1.085-0.336,1.685h-1.197c0-0.766,0.146-1.48,0.436-2.145c0.291-0.664,0.686-1.246,1.184-1.744
			s1.08-0.894,1.745-1.184C86.226,74.034,86.94,73.888,87.705,73.888z"/>
		<path fill="#FFFFFF" d="M97.397,88.417h1.147v1.195h-1.147h-1.146h-0.05V73.888h1.196V88.417z M101.086,88.417h1.146v1.195h-1.146
			h-1.146H99.89V73.888h1.196V88.417z"/>
		<path fill="#FFFFFF" d="M115.24,89.612h-1.196V80.94c-0.399,0.4-0.881,0.69-1.445,0.872c-0.034,0.018-0.087,0.038-0.162,0.063
			c-0.075,0.024-0.282,0.086-0.623,0.187c-0.341,0.099-0.856,0.249-1.544,0.448c-0.69,0.199-1.666,0.481-2.929,0.848
			c-0.547,0.183-1,0.511-1.357,0.984c-0.358,0.473-0.536,1.018-0.536,1.632c0,0.681,0.232,1.258,0.698,1.731
			s1.038,0.711,1.719,0.711h1.745v1.195h-1.745c-0.499,0-0.968-0.095-1.408-0.286c-0.44-0.19-0.826-0.452-1.158-0.785
			c-0.333-0.331-0.595-0.718-0.785-1.159c-0.192-0.439-0.286-0.909-0.286-1.407c0-0.763,0.208-1.462,0.622-2.094
			c0.482-0.797,1.163-1.337,2.044-1.62c0.017-0.015,0.071-0.036,0.162-0.061c0.091-0.025,0.312-0.088,0.661-0.188
			c0.349-0.099,0.876-0.252,1.583-0.46c0.706-0.209,1.689-0.503,2.953-0.885c0.681-0.232,1.196-0.689,1.545-1.37
			c0.033-0.084,0.07-0.233,0.112-0.449c0.041-0.216,0.02-0.474-0.062-0.772c-0.149-0.432-0.359-0.831-0.624-1.197
			c-0.266-0.364-0.578-0.68-0.935-0.945c-0.357-0.267-0.751-0.474-1.184-0.623s-0.889-0.224-1.371-0.224
			c-0.597,0-1.158,0.111-1.682,0.335c-0.524,0.225-0.98,0.533-1.37,0.922c-0.391,0.391-0.698,0.848-0.923,1.37
			c-0.224,0.524-0.336,1.085-0.336,1.685h-1.195c0-0.766,0.145-1.48,0.436-2.145s0.686-1.246,1.185-1.744
			c0.497-0.498,1.079-0.894,1.744-1.184c0.665-0.291,1.379-0.438,2.143-0.438c0.648,0,1.263,0.105,1.844,0.312
			c0.582,0.209,1.109,0.494,1.583,0.859c0.473,0.366,0.875,0.807,1.208,1.32c0.333,0.516,0.574,1.072,0.723,1.671
			c0.05,0.183,0.087,0.373,0.112,0.572c0.025,0.199,0.037,0.458,0.037,0.774V89.612z"/>
		<path fill="#FFFFFF" d="M120.572,88.417v1.195h-1.146h-1.147h-0.049V73.888h1.196v14.529H120.572z"/>
		<path fill="#FFFFFF" d="M133.107,84.104c0,0.766-0.146,1.48-0.437,2.145c-0.292,0.664-0.686,1.246-1.184,1.744
			c-0.499,0.498-1.08,0.893-1.744,1.185c-0.665,0.29-1.38,0.435-2.144,0.435v-1.195c0.599,0,1.16-0.112,1.683-0.336
			c0.523-0.225,0.98-0.533,1.371-0.923c0.389-0.39,0.698-0.848,0.922-1.37c0.224-0.523,0.336-1.084,0.336-1.684v-4.707
			c0-0.6-0.112-1.16-0.336-1.685c-0.224-0.522-0.533-0.979-0.922-1.37c-0.391-0.389-0.848-0.697-1.371-0.922
			c-0.523-0.224-1.084-0.335-1.683-0.335c-0.597,0-1.158,0.111-1.681,0.335c-0.524,0.225-0.98,0.533-1.371,0.922
			c-0.391,0.391-0.698,0.848-0.922,1.37c-0.225,0.524-0.336,1.085-0.336,1.685h-1.221c0-0.766,0.145-1.48,0.437-2.145
			c0.29-0.664,0.685-1.246,1.183-1.744c0.499-0.498,1.084-0.894,1.757-1.184c0.673-0.291,1.392-0.438,2.155-0.438
			c0.764,0,1.479,0.146,2.144,0.438c0.664,0.29,1.245,0.686,1.744,1.184c0.498,0.498,0.892,1.08,1.184,1.744
			c0.291,0.664,0.437,1.379,0.437,2.145V84.104z"/>
		<path fill="#FFFFFF" d="M128.945,69.029c-0.183,0.183-0.275,0.417-0.275,0.697c0,0.283,0.11,0.532,0.325,0.749l1.295-1.321
			l0.225,0.274l0.972,0.972c0.133-0.134,0.24-0.3,0.324-0.499h1.246c-0.149,0.648-0.473,1.18-0.972,1.594
			c-0.082,0.068-0.169,0.131-0.261,0.188c-0.091,0.059-0.178,0.111-0.261,0.162l-0.201,0.099l-1.096-1.07l-1.071,1.07
			c-0.149,0-0.32-0.059-0.51-0.174c-0.191-0.116-0.378-0.275-0.561-0.474c-0.183-0.199-0.337-0.436-0.461-0.71
			s-0.187-0.561-0.187-0.86c0-0.498,0.146-0.938,0.437-1.32s0.66-0.647,1.109-0.798c0.1-0.031,0.157-0.049,0.174-0.049
			c0.133-0.033,0.241-0.05,0.323-0.05h0.051h0.125h0.174h3.239v1.195h-3.239h-0.25C129.352,68.739,129.128,68.847,128.945,69.029z"
			/>
		<path fill="#FFFFFF" d="M141.604,89.612c-0.764,0-1.479-0.141-2.143-0.424c-0.666-0.281-1.247-0.672-1.745-1.171
			c-0.499-0.498-0.893-1.075-1.185-1.731c-0.291-0.656-0.436-1.357-0.436-2.106V73.888h1.196V84.18c0,0.582,0.112,1.135,0.337,1.658
			c0.224,0.522,0.531,0.976,0.922,1.357c0.389,0.383,0.847,0.686,1.37,0.91c0.524,0.224,1.084,0.337,1.683,0.337
			c0.598,0,1.158-0.113,1.682-0.337c0.522-0.225,0.984-0.527,1.382-0.91c0.399-0.382,0.711-0.835,0.935-1.357
			c0.226-0.523,0.337-1.076,0.337-1.658V73.888h1.195V84.18c0,0.749-0.145,1.45-0.436,2.106s-0.685,1.233-1.184,1.731
			c-0.498,0.499-1.084,0.89-1.756,1.171C143.086,89.472,142.368,89.612,141.604,89.612z"/>
		<path fill="#FFFFFF" d="M151.323,78.848c0.314-0.315,0.523-0.714,0.622-1.196V76.68c0-0.083-0.008-0.149-0.025-0.199
			c0-0.167-0.042-0.382-0.125-0.647c-0.083-0.266-0.191-0.515-0.323-0.747h-2.841v-1.198h0.548h1.346h0.025h0.922h0.522
			c0.232,0.25,0.44,0.528,0.623,0.836s0.316,0.636,0.4,0.984v0.025l0.025,0.049v0.051c0.066,0.25,0.099,0.531,0.099,0.847v0.972
			c-0.05,0.383-0.161,0.752-0.337,1.109c-0.173,0.357-0.403,0.678-0.684,0.959l-0.052,0.051c-0.015,0-0.024,0.008-0.024,0.024
			c-0.432,0.466-0.647,1.021-0.647,1.669v4.511c0,0.332,0.062,0.648,0.187,0.948c0.124,0.297,0.299,0.56,0.524,0.783
			c0.223,0.225,0.484,0.402,0.783,0.535c0.3,0.134,0.624,0.201,0.972,0.201c0.349,0,0.673-0.067,0.973-0.201
			c0.298-0.133,0.56-0.311,0.784-0.535c0.224-0.224,0.399-0.486,0.523-0.783c0.125-0.3,0.187-0.616,0.187-0.948V73.888h1.171v12.087
			c0,0.997-0.356,1.853-1.07,2.566c-0.333,0.35-0.722,0.615-1.172,0.797c-0.448,0.184-0.913,0.274-1.396,0.274
			c-0.481,0-0.946-0.091-1.395-0.274c-0.449-0.182-0.839-0.447-1.17-0.797c-0.715-0.714-1.073-1.569-1.073-2.566v-4.511
			c0-0.482,0.092-0.947,0.275-1.396c0.183-0.448,0.448-0.839,0.798-1.171c0-0.016,0.003-0.024,0.013-0.024
			C151.317,78.873,151.323,78.864,151.323,78.848z"/>
		<path fill="#FFFFFF" d="M160.493,70.749v1.195h-4.885v-0.049v-0.623v-0.523v-0.873h-1.222v-1.195h1.222h1.196v0.922v0.273v0.873
			H160.493z"/>
		<path fill="#FFFFFF" d="M170.037,89.612h-1.223V79.397c0-0.6-0.111-1.16-0.335-1.685c-0.226-0.522-0.532-0.979-0.922-1.37
			c-0.392-0.389-0.849-0.697-1.372-0.922c-0.522-0.224-1.083-0.335-1.682-0.335s-1.158,0.111-1.683,0.335
			c-0.522,0.225-0.98,0.533-1.37,0.922c-0.39,0.391-0.698,0.848-0.921,1.37c-0.226,0.524-0.338,1.085-0.338,1.685h-1.195
			c0-0.766,0.146-1.48,0.436-2.145c0.291-0.664,0.686-1.246,1.185-1.744c0.497-0.498,1.079-0.894,1.743-1.184
			c0.666-0.291,1.38-0.438,2.144-0.438s1.483,0.146,2.155,0.438c0.673,0.29,1.259,0.686,1.757,1.184
			c0.499,0.498,0.893,1.08,1.184,1.744s0.438,1.379,0.438,2.145V89.612z"/>
		<path fill="#FFFFFF" d="M184.289,75.298c-0.332,0.141-0.623,0.336-0.872,0.586c-0.249,0.248-0.445,0.539-0.586,0.87
			c-0.141,0.333-0.212,0.683-0.212,1.048c0,0.598,0.171,1.129,0.512,1.596c0.34,0.463,0.776,0.795,1.308,0.994
			c1.279,0.384,2.272,0.674,2.978,0.873c0.707,0.199,1.229,0.35,1.57,0.448c0.342,0.1,0.552,0.163,0.636,0.188
			s0.141,0.046,0.175,0.062c0.88,0.284,1.561,0.822,2.042,1.62c0.4,0.598,0.599,1.297,0.599,2.093c0,0.549-0.104,1.06-0.312,1.533
			s-0.486,0.889-0.834,1.246c-0.349,0.357-0.761,0.639-1.233,0.848c-0.474,0.207-0.985,0.311-1.532,0.311h-1.57
			c-0.764,0-1.483-0.145-2.155-0.435c-0.673-0.292-1.259-0.687-1.758-1.185c-0.498-0.498-0.894-1.08-1.184-1.744
			s-0.436-1.379-0.436-2.145h1.221c0,0.6,0.112,1.16,0.337,1.684c0.224,0.522,0.53,0.98,0.922,1.37
			c0.39,0.39,0.847,0.698,1.37,0.923c0.524,0.224,1.084,0.336,1.683,0.336h1.57c0.364,0,0.713-0.075,1.046-0.224
			c0.332-0.151,0.623-0.35,0.872-0.6c0.249-0.249,0.444-0.535,0.585-0.859c0.142-0.324,0.213-0.676,0.213-1.06
			c0-0.614-0.179-1.158-0.536-1.631c-0.357-0.475-0.811-0.803-1.357-0.984c-1.263-0.366-2.243-0.648-2.941-0.849
			c-0.696-0.199-1.212-0.348-1.545-0.448c-0.332-0.1-0.54-0.161-0.623-0.186c-0.083-0.025-0.142-0.047-0.175-0.062
			c-0.432-0.134-0.817-0.338-1.159-0.611c-0.341-0.273-0.627-0.603-0.859-0.983c-0.414-0.649-0.622-1.347-0.622-2.093
			c0-0.549,0.104-1.063,0.312-1.546c0.207-0.482,0.488-0.897,0.847-1.246c0.357-0.35,0.773-0.626,1.246-0.835
			c0.474-0.207,0.984-0.312,1.532-0.312h1.596h0.024c0.765,0,1.479,0.146,2.144,0.438c0.663,0.29,1.246,0.686,1.744,1.184
			s0.893,1.08,1.184,1.744s0.437,1.379,0.437,2.145h-1.196c0-0.6-0.112-1.16-0.337-1.685c-0.225-0.522-0.535-0.979-0.936-1.37
			c-0.397-0.389-0.859-0.697-1.382-0.922c-0.523-0.224-1.084-0.335-1.682-0.335h-1.596
			C184.979,75.086,184.622,75.155,184.289,75.298z"/>
		<path fill="#FFFFFF" d="M192.488,91.557v1.494v3.389h-1.197v-3.389v-0.298h-1.146v-1.196h1.146h1.122H192.488z"/>
		<path fill="#FFFFFF" d="M191.291,71.944v-3.288h1.197v3.288H191.291z"/>
		<path fill="#FFFFFF" d="M204.66,86.51c-0.24,0.623-0.581,1.156-1.021,1.596c-0.441,0.44-0.968,0.78-1.583,1.021
			c-0.614,0.241-1.305,0.36-2.069,0.36c-0.764,0-1.477-0.145-2.143-0.436c-0.664-0.291-1.246-0.684-1.744-1.184
			c-0.499-0.498-0.894-1.08-1.184-1.743c-0.29-0.665-0.436-1.38-0.436-2.146h1.196c0,0.6,0.112,1.16,0.337,1.685
			c0.223,0.522,0.53,0.98,0.921,1.37c0.39,0.391,0.848,0.697,1.37,0.922c0.523,0.224,1.085,0.336,1.682,0.336
			c0.599,0,1.135-0.104,1.607-0.312c0.475-0.208,0.877-0.485,1.21-0.835c0.331-0.348,0.585-0.756,0.76-1.221
			s0.262-0.963,0.262-1.495v-9.47h-2.616v-1.195h3.214h0.599V84.43C205.022,85.194,204.901,85.888,204.66,86.51z"/>
		<path fill="#FFFFFF" d="M218.39,76.493c-0.422,0.54-0.95,0.9-1.581,1.084c0.681,0.498,1.221,1.13,1.619,1.895
			c0.399,0.764,0.599,1.602,0.599,2.516v7.625h-1.196v-7.625c0-0.598-0.111-1.158-0.336-1.682s-0.532-0.98-0.923-1.371
			c-0.391-0.39-0.847-0.697-1.371-0.922c-0.523-0.225-1.083-0.337-1.682-0.337c-0.598,0-1.158,0.112-1.682,0.337
			s-0.98,0.532-1.37,0.922c-0.391,0.391-0.698,0.848-0.923,1.371c-0.224,0.523-0.337,1.084-0.337,1.682v7.625h-1.195V79.397v-5.51
			h1.195v4.686c0.516-0.631,1.143-1.137,1.882-1.52c0.739-0.382,1.55-0.573,2.43-0.573h0.025h2.441c0.516,0,0.952-0.179,1.309-0.536
			c0.357-0.356,0.536-0.793,0.536-1.309v-0.748h1.196v0.748C219.026,75.335,218.814,75.954,218.39,76.493z"/>
		<path fill="#FFFFFF" d="M231.86,73.888h1.195v10.217c0,0.766-0.146,1.48-0.436,2.145c-0.291,0.664-0.686,1.246-1.185,1.744
			c-0.498,0.498-1.084,0.893-1.757,1.185c-0.674,0.29-1.392,0.435-2.155,0.435c-0.881,0-1.69-0.186-2.43-0.561
			c-0.738-0.373-1.366-0.876-1.881-1.506v2.066h-1.196V73.888h1.196v10.217c0,0.6,0.111,1.16,0.335,1.684
			c0.226,0.522,0.532,0.98,0.924,1.37c0.39,0.39,0.847,0.698,1.37,0.923c0.524,0.224,1.084,0.336,1.682,0.336
			s1.158-0.112,1.683-0.336c0.522-0.225,0.984-0.533,1.382-0.923c0.4-0.39,0.711-0.848,0.936-1.37
			c0.224-0.523,0.337-1.084,0.337-1.684V73.888z"/>
		<path fill="#FFFFFF" d="M232.358,71.92h-0.175h-0.124h-0.051c-0.083,0-0.191-0.017-0.324-0.05c-0.017,0-0.074-0.016-0.174-0.049
			c-0.448-0.15-0.818-0.417-1.109-0.798c-0.291-0.382-0.437-0.822-0.437-1.321v-1.046h1.196v1.046c0,0.283,0.092,0.515,0.274,0.698
			c0.183,0.182,0.407,0.29,0.674,0.324h0.249h3.687v1.195H232.358z"/>
		<path fill="#FFFFFF" d="M235.498,66.612v1.196h-4.885v-0.05v-0.623v-0.523V65.74h-1.221v-1.196h1.221h1.196v0.922v0.274v0.872
			H235.498z"/>
		<path fill="#FFFFFF" d="M243.982,89.063c-0.739,0.366-1.55,0.549-2.429,0.549c-0.766,0-1.479-0.141-2.144-0.424
			c-0.665-0.281-1.246-0.672-1.745-1.171c-0.499-0.498-0.893-1.075-1.183-1.731c-0.292-0.656-0.438-1.357-0.438-2.106V73.888h1.197
			V84.18c0,0.582,0.112,1.135,0.336,1.658c0.225,0.522,0.531,0.976,0.922,1.357c0.391,0.383,0.849,0.686,1.37,0.91
			c0.523,0.224,1.085,0.337,1.684,0.337c0.598,0,1.158-0.113,1.681-0.337c0.524-0.225,0.98-0.527,1.371-0.91
			c0.39-0.382,0.697-0.835,0.922-1.357c0.225-0.523,0.337-1.076,0.337-1.658V73.888h1.195V84.18v5.433h-1.195v-2.043
			C245.349,88.201,244.722,88.698,243.982,89.063z"/>
		<path fill="#FFFFFF" d="M32.907,88.864c0.499,0,0.973,0.097,1.421,0.287c0.448,0.191,0.843,0.453,1.184,0.785
			c0.34,0.333,0.61,0.723,0.81,1.171c0.199,0.449,0.298,0.931,0.298,1.445c0,0.715-0.137,1.408-0.411,2.082
			c-0.274,0.671-0.677,1.274-1.208,1.807l-0.024,0.025c-0.416,0.415-0.728,0.888-0.935,1.419c-0.208,0.532-0.312,1.072-0.312,1.62
			v18.813h1.146v1.196H33.73h-1.146h-0.049v-20.01c0-0.715,0.133-1.407,0.398-2.081c0.266-0.672,0.673-1.274,1.221-1.806
			c0.415-0.434,0.726-0.913,0.935-1.446c0.208-0.531,0.312-1.071,0.312-1.62c0-0.696-0.241-1.286-0.723-1.769
			c-0.482-0.481-1.072-0.723-1.77-0.723c-0.349,0-0.676,0.066-0.984,0.2c-0.308,0.132-0.573,0.311-0.797,0.535
			c-0.225,0.225-0.402,0.49-0.536,0.798c-0.133,0.308-0.2,0.635-0.2,0.982c0,0.6,0.184,1.123,0.548,1.571
			c0.365,0.448,0.831,0.739,1.396,0.872v1.196c-0.448-0.066-0.864-0.207-1.246-0.424c-0.382-0.215-0.715-0.487-0.997-0.81
			c-0.283-0.324-0.502-0.693-0.661-1.109c-0.158-0.415-0.237-0.856-0.237-1.321c0-0.515,0.096-0.996,0.287-1.445
			c0.191-0.448,0.458-0.838,0.798-1.171c0.341-0.332,0.735-0.594,1.184-0.785C31.911,88.961,32.393,88.864,32.907,88.864z"/>
		<path fill="#FFFFFF" d="M37.804,107.156c0.29-0.664,0.685-1.245,1.183-1.745c0.499-0.498,1.08-0.893,1.745-1.184
			c0.665-0.289,1.379-0.436,2.143-0.436c0.764,0,1.479,0.146,2.144,0.436c0.664,0.291,1.246,0.686,1.744,1.184
			c0.498,0.5,0.893,1.081,1.184,1.745c0.291,0.664,0.437,1.38,0.437,2.143v10.217h-1.196v-10.217c0-0.598-0.112-1.158-0.337-1.682
			c-0.224-0.522-0.532-0.98-0.922-1.37s-0.847-0.698-1.37-0.923s-1.084-0.337-1.683-0.337c-0.598,0-1.159,0.112-1.681,0.337
			c-0.523,0.225-0.981,0.533-1.371,0.923c-0.391,0.39-0.698,0.848-0.921,1.37c-0.225,0.523-0.337,1.084-0.337,1.682v2.368h3.489
			v1.195h-3.489v6.653h-1.196v-10.217C37.368,108.536,37.513,107.82,37.804,107.156z"/>
		<path fill="#FFFFFF" d="M54.238,105.2c-0.333,0.141-0.624,0.336-0.873,0.585c-0.249,0.25-0.444,0.542-0.585,0.872
			c-0.142,0.334-0.212,0.682-0.212,1.048c0,0.597,0.17,1.13,0.511,1.594c0.34,0.465,0.776,0.798,1.309,0.997
			c1.279,0.383,2.271,0.673,2.978,0.872c0.707,0.2,1.229,0.349,1.57,0.448c0.34,0.101,0.552,0.162,0.635,0.188
			c0.083,0.024,0.141,0.046,0.174,0.062c0.881,0.283,1.562,0.822,2.044,1.619c0.398,0.598,0.598,1.297,0.598,2.093
			c0,0.549-0.104,1.06-0.311,1.533c-0.208,0.475-0.487,0.889-0.835,1.245c-0.349,0.358-0.76,0.641-1.233,0.848
			c-0.473,0.208-0.984,0.312-1.533,0.312h-1.57c-0.764,0-1.482-0.145-2.155-0.436c-0.672-0.29-1.259-0.687-1.757-1.184
			c-0.499-0.499-0.893-1.08-1.184-1.745c-0.291-0.664-0.436-1.379-0.436-2.144h1.221c0,0.599,0.112,1.159,0.336,1.684
			c0.224,0.522,0.532,0.979,0.922,1.37s0.848,0.698,1.371,0.922c0.523,0.225,1.084,0.336,1.682,0.336h1.57
			c0.365,0,0.714-0.074,1.047-0.223c0.333-0.15,0.623-0.351,0.872-0.6s0.444-0.535,0.586-0.859c0.141-0.324,0.211-0.676,0.211-1.06
			c0-0.614-0.179-1.157-0.536-1.631c-0.357-0.475-0.81-0.802-1.358-0.983c-1.262-0.366-2.243-0.649-2.94-0.85
			c-0.698-0.198-1.213-0.348-1.545-0.447s-0.54-0.163-0.623-0.188c-0.083-0.025-0.141-0.045-0.174-0.062
			c-0.433-0.134-0.819-0.337-1.159-0.611c-0.341-0.272-0.628-0.602-0.86-0.983c-0.415-0.649-0.623-1.347-0.623-2.094
			c0-0.549,0.104-1.064,0.312-1.545c0.208-0.482,0.49-0.898,0.847-1.246c0.357-0.35,0.773-0.627,1.246-0.835
			c0.474-0.207,0.985-0.312,1.533-0.312h1.595h0.025c0.764,0,1.478,0.146,2.143,0.436c0.664,0.291,1.246,0.686,1.744,1.184
			c0.499,0.5,0.894,1.081,1.184,1.745c0.291,0.664,0.436,1.38,0.436,2.143H61.24c0-0.598-0.112-1.158-0.336-1.682
			c-0.225-0.522-0.536-0.98-0.934-1.37c-0.399-0.39-0.86-0.698-1.383-0.923c-0.524-0.225-1.084-0.337-1.683-0.337H55.31
			C54.927,104.987,54.57,105.058,54.238,105.2z"/>
		<path fill="#FFFFFF" d="M67.769,118.319v1.196h-1.146h-1.146h-0.05v-15.724h1.196v14.527H67.769z"/>
		<path fill="#FFFFFF" d="M80.64,106.396c-0.424,0.541-0.952,0.901-1.583,1.084c0.682,0.499,1.221,1.131,1.62,1.895
			c0.399,0.765,0.598,1.604,0.598,2.518v7.624H80.08v-7.624c0-0.599-0.113-1.16-0.337-1.684c-0.224-0.523-0.531-0.979-0.922-1.369
			c-0.39-0.391-0.847-0.698-1.371-0.922c-0.523-0.226-1.084-0.338-1.682-0.338c-0.599,0-1.159,0.112-1.682,0.338
			c-0.523,0.224-0.98,0.531-1.371,0.922c-0.391,0.39-0.698,0.846-0.922,1.369c-0.225,0.523-0.336,1.085-0.336,1.684v7.624h-1.196
			v-10.217v-5.507h1.196v4.685c0.515-0.631,1.142-1.138,1.881-1.521c0.739-0.381,1.549-0.572,2.43-0.572h0.024h2.442
			c0.515,0,0.951-0.178,1.309-0.536c0.357-0.355,0.536-0.793,0.536-1.309v-0.747h1.195v0.747
			C81.275,105.237,81.063,105.857,80.64,106.396z"/>
		<path fill="#FFFFFF" d="M77.114,98.934c-0.183,0.182-0.274,0.415-0.274,0.696c0,0.283,0.108,0.533,0.323,0.748l1.296-1.32
			l0.224,0.273l0.972,0.973c0.133-0.134,0.242-0.3,0.324-0.499h1.246c-0.149,0.647-0.473,1.181-0.972,1.595
			c-0.083,0.067-0.17,0.129-0.261,0.188c-0.091,0.058-0.179,0.111-0.262,0.162l-0.199,0.1l-1.097-1.072l-1.071,1.072
			c-0.149,0-0.319-0.059-0.51-0.174c-0.191-0.117-0.377-0.275-0.561-0.475s-0.337-0.436-0.461-0.711
			c-0.125-0.272-0.187-0.56-0.187-0.859c0-0.498,0.146-0.938,0.436-1.32c0.292-0.383,0.661-0.647,1.109-0.798
			c0.1-0.032,0.158-0.05,0.174-0.05c0.133-0.032,0.241-0.049,0.324-0.049h0.05h0.125h0.175h3.239v1.196h-3.239h-0.25
			C77.521,98.643,77.297,98.75,77.114,98.934z"/>
		<path fill="#FFFFFF" d="M92.202,118.968c-0.739,0.366-1.549,0.548-2.429,0.548c-0.765,0-1.479-0.141-2.143-0.423
			c-0.665-0.283-1.246-0.672-1.745-1.171c-0.498-0.499-0.893-1.075-1.183-1.733c-0.291-0.655-0.437-1.357-0.437-2.105v-10.291h1.197
			v10.291c0,0.582,0.111,1.135,0.336,1.658c0.224,0.522,0.531,0.976,0.922,1.358c0.39,0.382,0.848,0.685,1.371,0.909
			c0.523,0.224,1.084,0.336,1.682,0.336c0.598,0,1.159-0.112,1.682-0.336c0.523-0.225,0.98-0.527,1.371-0.909
			c0.39-0.383,0.698-0.836,0.922-1.358c0.224-0.523,0.337-1.076,0.337-1.658v-10.291h1.196v10.291v5.433h-1.196v-2.044
			C93.568,118.104,92.941,118.603,92.202,118.968z"/>
		<path fill="#FFFFFF" d="M101.135,105.2c-0.332,0.141-0.623,0.336-0.873,0.585c-0.248,0.25-0.444,0.542-0.585,0.872
			c-0.141,0.334-0.211,0.682-0.211,1.048c0,0.597,0.169,1.13,0.51,1.594c0.341,0.465,0.777,0.798,1.309,0.997
			c1.279,0.383,2.271,0.673,2.978,0.872c0.706,0.2,1.229,0.349,1.569,0.448c0.341,0.101,0.552,0.162,0.635,0.188
			c0.084,0.024,0.141,0.046,0.175,0.062c0.881,0.283,1.561,0.822,2.044,1.619c0.398,0.598,0.597,1.297,0.597,2.093
			c0,0.549-0.103,1.06-0.311,1.533c-0.208,0.475-0.486,0.889-0.834,1.245c-0.349,0.358-0.761,0.641-1.234,0.848
			c-0.474,0.208-0.984,0.312-1.533,0.312h-1.57c-0.764,0-1.482-0.145-2.155-0.436c-0.673-0.29-1.259-0.687-1.757-1.184
			c-0.499-0.499-0.894-1.08-1.184-1.745c-0.292-0.664-0.436-1.379-0.436-2.144h1.221c0,0.599,0.113,1.159,0.337,1.684
			c0.224,0.522,0.531,0.979,0.922,1.37c0.39,0.391,0.847,0.698,1.371,0.922c0.523,0.225,1.083,0.336,1.682,0.336h1.57
			c0.365,0,0.714-0.074,1.047-0.223c0.332-0.15,0.623-0.351,0.872-0.6c0.249-0.249,0.444-0.535,0.586-0.859
			c0.141-0.324,0.211-0.676,0.211-1.06c0-0.614-0.179-1.157-0.536-1.631c-0.357-0.475-0.81-0.802-1.357-0.983
			c-1.263-0.366-2.242-0.649-2.94-0.85c-0.698-0.198-1.213-0.348-1.545-0.447c-0.333-0.1-0.541-0.163-0.623-0.188
			c-0.084-0.025-0.142-0.045-0.175-0.062c-0.432-0.134-0.818-0.337-1.159-0.611c-0.341-0.272-0.627-0.602-0.859-0.983
			c-0.416-0.649-0.623-1.347-0.623-2.094c0-0.549,0.103-1.064,0.311-1.545c0.208-0.482,0.49-0.898,0.847-1.246
			c0.357-0.35,0.773-0.627,1.246-0.835c0.474-0.207,0.985-0.312,1.533-0.312h1.595h0.025c0.764,0,1.478,0.146,2.143,0.436
			c0.665,0.291,1.246,0.686,1.745,1.184c0.498,0.5,0.893,1.081,1.184,1.745c0.291,0.664,0.436,1.38,0.436,2.143h-1.196
			c0-0.598-0.112-1.158-0.336-1.682c-0.225-0.522-0.536-0.98-0.935-1.37c-0.399-0.39-0.859-0.698-1.383-0.923
			c-0.523-0.225-1.083-0.337-1.682-0.337h-1.595C101.825,104.987,101.468,105.058,101.135,105.2z"/>
		<path fill="#FFFFFF" d="M108.636,101.823h-0.174h-0.125h-0.05c-0.083,0-0.19-0.016-0.324-0.05c-0.016,0-0.074-0.015-0.175-0.05
			c-0.448-0.149-0.817-0.415-1.108-0.797c-0.29-0.383-0.436-0.822-0.436-1.321v-1.047h1.196v1.047c0,0.282,0.092,0.515,0.274,0.698
			c0.183,0.183,0.408,0.291,0.673,0.323h0.249h3.688v1.196H108.636z"/>
		<path fill="#FFFFFF" d="M112.324,108.302l0.672-1.346l0.076-0.148c0.448-0.896,1.108-1.625,1.981-2.181
			c0.872-0.557,1.848-0.835,2.927-0.835c0.764,0,1.479,0.146,2.144,0.436c0.663,0.291,1.246,0.686,1.745,1.184
			c0.498,0.5,0.892,1.081,1.183,1.745c0.29,0.664,0.436,1.38,0.436,2.143v10.217h-1.196v-10.217c0-0.598-0.112-1.158-0.336-1.682
			c-0.225-0.522-0.532-0.98-0.921-1.37c-0.392-0.39-0.848-0.698-1.371-0.923c-0.523-0.225-1.083-0.337-1.683-0.337
			c-0.896,0-1.694,0.238-2.392,0.711c-0.697,0.474-1.212,1.092-1.544,1.855l-0.524,1.048l0.149,0.997v9.917h-1.196v-10.217
			L112.324,108.302z"/>
		<path fill="#FFFFFF" d="M128.82,118.319v1.196h-1.146h-1.147h-0.05V94.372V93.8v-0.024c0-0.698-0.149-1.338-0.448-1.919
			c-0.299-0.582-0.698-1.064-1.196-1.446l-2.667,2.667l-2.517-2.518v-1.669v-0.026l0.921,0.923l1.595,1.595l1.594-1.595l0.896-0.923
			c0.399,0.217,0.739,0.441,1.022,0.674c0.615,0.515,1.101,1.139,1.458,1.869c0.357,0.731,0.536,1.52,0.536,2.368V93.8v0.572v23.947
			H128.82z"/>
		<path fill="#FFFFFF" d="M141.828,119.516h-1.196v-8.672c-0.399,0.398-0.881,0.69-1.445,0.873
			c-0.034,0.018-0.087,0.037-0.162,0.062c-0.075,0.025-0.283,0.088-0.624,0.188c-0.341,0.099-0.856,0.249-1.545,0.448
			s-1.665,0.481-2.928,0.847c-0.547,0.185-1,0.511-1.357,0.985c-0.358,0.473-0.536,1.018-0.536,1.631
			c0,0.682,0.232,1.26,0.698,1.733c0.465,0.473,1.038,0.709,1.72,0.709h1.744v1.196h-1.744c-0.499,0-0.968-0.095-1.409-0.287
			c-0.44-0.19-0.826-0.451-1.158-0.783c-0.332-0.333-0.595-0.719-0.785-1.159c-0.191-0.439-0.286-0.91-0.286-1.409
			c0-0.764,0.208-1.461,0.623-2.093c0.481-0.798,1.163-1.336,2.044-1.62c0.016-0.015,0.071-0.036,0.162-0.062
			s0.311-0.088,0.661-0.187c0.348-0.101,0.876-0.253,1.582-0.462c0.706-0.207,1.69-0.502,2.953-0.883
			c0.681-0.234,1.196-0.69,1.545-1.373c0.033-0.082,0.07-0.23,0.111-0.447c0.042-0.215,0.021-0.474-0.062-0.772
			c-0.149-0.433-0.358-0.831-0.623-1.196c-0.266-0.364-0.577-0.681-0.934-0.947c-0.357-0.265-0.752-0.473-1.185-0.623
			c-0.432-0.149-0.889-0.225-1.37-0.225c-0.599,0-1.159,0.112-1.682,0.337c-0.524,0.225-0.98,0.533-1.371,0.923
			c-0.39,0.39-0.697,0.848-0.922,1.37c-0.224,0.523-0.336,1.084-0.336,1.682h-1.196c0-0.763,0.145-1.479,0.436-2.143
			s0.685-1.245,1.183-1.745c0.499-0.498,1.08-0.893,1.745-1.184c0.665-0.289,1.38-0.436,2.144-0.436
			c0.648,0,1.263,0.104,1.844,0.312c0.581,0.208,1.109,0.495,1.583,0.859c0.473,0.366,0.876,0.806,1.208,1.321
			c0.333,0.515,0.574,1.071,0.723,1.67c0.05,0.183,0.087,0.373,0.112,0.572s0.037,0.457,0.037,0.772V119.516z"/>
		<path fill="#FFFFFF" d="M145.254,107.156c0.291-0.664,0.685-1.245,1.184-1.745c0.499-0.498,1.08-0.893,1.745-1.184
			c0.664-0.289,1.378-0.436,2.144-0.436c0.764,0,1.479,0.146,2.143,0.436c0.665,0.291,1.245,0.686,1.744,1.184
			c0.499,0.5,0.894,1.081,1.184,1.745c0.29,0.664,0.436,1.38,0.436,2.143v10.217h-1.196v-10.217c0-0.598-0.113-1.158-0.336-1.682
			c-0.224-0.522-0.532-0.98-0.923-1.37c-0.39-0.39-0.847-0.698-1.371-0.923c-0.523-0.225-1.084-0.337-1.681-0.337
			c-0.598,0-1.159,0.112-1.682,0.337c-0.523,0.225-0.98,0.533-1.371,0.923c-0.391,0.39-0.698,0.848-0.922,1.37
			c-0.224,0.523-0.336,1.084-0.336,1.682v2.368h3.489v1.195h-3.489v6.653h-1.197v-10.217
			C144.817,108.536,144.963,107.82,145.254,107.156z"/>
		<path fill="#FFFFFF" d="M157.826,98.585v1.195h-3.24h-0.249c-0.266,0.032-0.491,0.141-0.674,0.324
			c-0.182,0.183-0.273,0.415-0.273,0.697v1.047h-1.195v-1.047c0-0.498,0.146-0.938,0.436-1.32c0.29-0.383,0.66-0.648,1.108-0.798
			c0.099-0.034,0.158-0.05,0.173-0.05c0.134-0.034,0.242-0.049,0.325-0.049h0.05h0.124h0.175H157.826z"/>
		<path fill="#FFFFFF" d="M169.837,114.906c0,0.831-0.175,1.599-0.523,2.305c-0.348,0.706-0.814,1.309-1.396,1.807
			c0,0.017-0.008,0.024-0.024,0.024l-0.025,0.025c-0.1,0.083-0.204,0.161-0.311,0.236c-0.108,0.074-0.212,0.146-0.312,0.212
			l-0.398-1.419l-2.517-9.223l-2.518,9.223l-0.398,1.419c-0.099-0.065-0.204-0.138-0.311-0.212
			c-0.108-0.075-0.213-0.153-0.312-0.236l-0.05-0.025c0-0.016-0.009-0.024-0.025-0.024c-0.58-0.498-1.042-1.105-1.382-1.819
			c-0.341-0.714-0.512-1.479-0.512-2.292v-0.025v-0.572v-10.517h1.197v10.517v0.572v0.025c0,0.896,0.257,1.702,0.771,2.417
			l2.616-9.645h1.819l2.642,9.645c0.515-0.715,0.773-1.521,0.773-2.417v-0.025v-0.572v-10.517h1.195v10.517v0.572V114.906z"/>
		<path fill="#FFFFFF" d="M182.372,119.516h-1.222v-10.217c0-0.598-0.112-1.158-0.337-1.682c-0.223-0.522-0.532-0.98-0.922-1.37
			s-0.847-0.698-1.37-0.923c-0.524-0.225-1.084-0.337-1.683-0.337c-0.598,0-1.159,0.112-1.682,0.337s-0.979,0.533-1.37,0.923
			c-0.392,0.39-0.698,0.848-0.923,1.37c-0.224,0.523-0.336,1.084-0.336,1.682h-1.195c0-0.763,0.145-1.479,0.436-2.143
			c0.29-0.664,0.685-1.245,1.183-1.745c0.498-0.498,1.081-0.893,1.745-1.184c0.664-0.289,1.378-0.436,2.143-0.436
			c0.764,0,1.482,0.146,2.156,0.436c0.672,0.291,1.258,0.686,1.757,1.184c0.498,0.5,0.893,1.081,1.184,1.745
			c0.289,0.664,0.437,1.38,0.437,2.143V119.516z"/>
		<path fill="#FFFFFF" d="M194.955,118.319h1.146v1.196h-1.146h-1.146h-0.05v-15.724h1.196V118.319z M198.643,118.319h1.146v1.196
			h-1.146h-1.146h-0.05v-15.724h1.195V118.319z"/>
		<path fill="#FFFFFF" d="M204.075,106.384c0-0.166-0.042-0.382-0.124-0.648c-0.084-0.266-0.191-0.516-0.324-0.748h-2.841v-1.195
			h0.548h1.346h0.025h0.922h0.523c0.232,0.25,0.439,0.527,0.623,0.835c0.183,0.308,0.315,0.636,0.398,0.983v0.026l0.024,0.05v0.049
			c0.066,0.25,0.101,0.532,0.101,0.848v0.971c-0.05,0.383-0.162,0.752-0.337,1.109c-0.175,0.358-0.404,0.678-0.685,0.961
			l-0.051,0.049c-0.017,0-0.023,0.009-0.023,0.025c-0.434,0.466-0.649,1.021-0.649,1.67v4.509c0,0.334,0.063,0.649,0.188,0.948
			c0.125,0.299,0.299,0.561,0.523,0.785c0.225,0.224,0.485,0.402,0.784,0.535c0.3,0.133,0.623,0.199,0.973,0.199
			c0.349,0,0.673-0.066,0.972-0.199s0.56-0.312,0.785-0.535c0.225-0.225,0.397-0.486,0.522-0.785
			c0.124-0.299,0.188-0.614,0.188-0.948v-6.603c0-0.515-0.183-0.955-0.548-1.32c-0.365-0.366-0.814-0.549-1.346-0.549v-1.196
			c0.531,0,0.98-0.178,1.346-0.535s0.548-0.794,0.548-1.308v-0.574h1.172v0.574c0,0.48-0.104,0.93-0.312,1.345
			c-0.209,0.415-0.495,0.765-0.86,1.046c-0.034,0.033-0.059,0.051-0.075,0.051c0.034,0.033,0.059,0.049,0.075,0.049
			c0.365,0.283,0.651,0.636,0.86,1.061c0.207,0.422,0.312,0.876,0.312,1.357v6.603c0,0.998-0.357,1.854-1.071,2.568
			c-0.334,0.349-0.724,0.614-1.172,0.797s-0.913,0.273-1.396,0.273c-0.483,0-0.948-0.091-1.396-0.273s-0.838-0.448-1.17-0.797
			c-0.715-0.715-1.071-1.57-1.071-2.568v-4.509c0-0.483,0.091-0.948,0.273-1.396c0.183-0.447,0.448-0.839,0.798-1.172
			c0-0.016,0.004-0.024,0.012-0.024s0.013-0.009,0.013-0.024c0.315-0.315,0.522-0.713,0.622-1.197v-0.971
			C204.1,106.5,204.091,106.433,204.075,106.384z"/>
		<path fill="#FFFFFF" d="M215.514,105.2c-0.333,0.141-0.624,0.336-0.873,0.585c-0.249,0.25-0.445,0.542-0.586,0.872
			c-0.141,0.334-0.212,0.682-0.212,1.048c0,0.597,0.171,1.13,0.512,1.594c0.34,0.465,0.777,0.798,1.308,0.997
			c1.279,0.383,2.272,0.673,2.978,0.872c0.707,0.2,1.229,0.349,1.57,0.448c0.341,0.101,0.553,0.162,0.636,0.188
			c0.084,0.024,0.141,0.046,0.175,0.062c0.88,0.283,1.561,0.822,2.043,1.619c0.399,0.598,0.599,1.297,0.599,2.093
			c0,0.549-0.104,1.06-0.312,1.533c-0.207,0.475-0.485,0.889-0.834,1.245c-0.35,0.358-0.76,0.641-1.234,0.848
			c-0.473,0.208-0.984,0.312-1.532,0.312h-1.57c-0.763,0-1.482-0.145-2.154-0.436c-0.673-0.29-1.259-0.687-1.757-1.184
			c-0.499-0.499-0.895-1.08-1.184-1.745c-0.292-0.664-0.437-1.379-0.437-2.144h1.221c0,0.599,0.112,1.159,0.338,1.684
			c0.223,0.522,0.53,0.979,0.921,1.37c0.39,0.391,0.847,0.698,1.37,0.922c0.523,0.225,1.084,0.336,1.682,0.336h1.57
			c0.365,0,0.715-0.074,1.047-0.223c0.333-0.15,0.623-0.351,0.872-0.6s0.444-0.535,0.586-0.859s0.212-0.676,0.212-1.06
			c0-0.614-0.179-1.157-0.536-1.631c-0.356-0.475-0.811-0.802-1.357-0.983c-1.263-0.366-2.243-0.649-2.941-0.85
			c-0.696-0.198-1.212-0.348-1.544-0.447c-0.334-0.1-0.541-0.163-0.624-0.188c-0.083-0.025-0.142-0.045-0.174-0.062
			c-0.433-0.134-0.819-0.337-1.16-0.611c-0.34-0.272-0.627-0.602-0.859-0.983c-0.414-0.649-0.622-1.347-0.622-2.094
			c0-0.549,0.104-1.064,0.312-1.545c0.207-0.482,0.489-0.898,0.847-1.246c0.357-0.35,0.773-0.627,1.246-0.835
			c0.475-0.207,0.984-0.312,1.532-0.312h1.595h0.025c0.765,0,1.479,0.146,2.143,0.436c0.665,0.291,1.247,0.686,1.745,1.184
			c0.499,0.5,0.893,1.081,1.184,1.745c0.29,0.664,0.437,1.38,0.437,2.143h-1.196c0-0.598-0.112-1.158-0.336-1.682
			c-0.226-0.522-0.536-0.98-0.935-1.37c-0.399-0.39-0.861-0.698-1.383-0.923c-0.524-0.225-1.084-0.337-1.684-0.337h-1.595
			C216.203,104.987,215.846,105.058,215.514,105.2z"/>
		<path fill="#FFFFFF" d="M225.704,98.585v1.195h-3.238h-0.25c-0.265,0.032-0.49,0.141-0.672,0.324
			c-0.183,0.183-0.274,0.415-0.274,0.697v1.047h-1.196v-1.047c0-0.498,0.146-0.938,0.436-1.32c0.291-0.383,0.66-0.648,1.109-0.798
			c0.1-0.034,0.158-0.05,0.175-0.05c0.132-0.034,0.239-0.049,0.323-0.049h0.05h0.125h0.175H225.704z"/>
		<path fill="#FFFFFF" d="M226.702,108.302l0.672-1.346l0.075-0.148c0.448-0.896,1.108-1.625,1.98-2.181
			c0.872-0.557,1.848-0.835,2.93-0.835c0.763,0,1.477,0.146,2.143,0.436c0.664,0.291,1.246,0.686,1.743,1.184
			c0.5,0.5,0.895,1.081,1.185,1.745s0.436,1.38,0.436,2.143v10.217h-1.195v-10.217c0-0.598-0.113-1.158-0.338-1.682
			c-0.224-0.522-0.53-0.98-0.921-1.37s-0.848-0.698-1.37-0.923c-0.524-0.225-1.085-0.337-1.682-0.337
			c-0.898,0-1.696,0.238-2.394,0.711c-0.698,0.474-1.213,1.092-1.545,1.855l-0.523,1.048l0.15,0.997v9.917h-1.196v-10.217
			L226.702,108.302z"/>
		<path fill="#FFFFFF" d="M237.167,101.823h-0.174h-0.126h-0.048c-0.083,0-0.191-0.016-0.324-0.05c-0.017,0-0.075-0.015-0.175-0.05
			c-0.447-0.149-0.817-0.415-1.108-0.797c-0.292-0.383-0.437-0.822-0.437-1.321v-1.047h1.196v1.047c0,0.282,0.091,0.515,0.273,0.698
			c0.184,0.183,0.407,0.291,0.673,0.323h0.249h3.688v1.196H237.167z"/>
		<path fill="#FFFFFF" d="M248.792,118.968c-0.738,0.366-1.549,0.548-2.43,0.548c-0.764,0-1.478-0.141-2.143-0.423
			c-0.666-0.283-1.245-0.672-1.744-1.171s-0.894-1.075-1.184-1.733c-0.291-0.655-0.437-1.357-0.437-2.105v-10.291h1.196v10.291
			c0,0.582,0.111,1.135,0.337,1.658c0.225,0.522,0.531,0.976,0.922,1.358c0.39,0.382,0.847,0.685,1.37,0.909
			c0.523,0.224,1.084,0.336,1.682,0.336c0.599,0,1.16-0.112,1.683-0.336c0.522-0.225,0.979-0.527,1.371-0.909
			c0.39-0.383,0.697-0.836,0.922-1.358c0.224-0.523,0.336-1.076,0.336-1.658v-10.291h1.196v10.291v5.433h-1.196v-2.044
			C250.159,118.104,249.532,118.603,248.792,118.968z"/>
		<path fill="#FFFFFF" d="M7.166,137.059c0.291-0.665,0.686-1.245,1.183-1.744c0.499-0.498,1.08-0.893,1.745-1.184
			c0.664-0.29,1.379-0.437,2.143-0.437s1.478,0.146,2.144,0.437c0.664,0.291,1.246,0.686,1.744,1.184
			c0.498,0.499,0.893,1.079,1.183,1.744c0.291,0.665,0.437,1.379,0.437,2.144v10.217h-1.196v-10.217
			c0-0.598-0.113-1.159-0.337-1.682c-0.224-0.523-0.532-0.98-0.922-1.371c-0.391-0.39-0.847-0.698-1.371-0.922
			s-1.084-0.337-1.682-0.337c-0.599,0-1.159,0.113-1.682,0.337c-0.523,0.224-0.98,0.532-1.37,0.922
			c-0.391,0.391-0.698,0.848-0.922,1.371c-0.225,0.522-0.337,1.084-0.337,1.682v2.368h3.489v1.195H7.926v6.653H6.729v-10.217
			C6.729,138.438,6.875,137.724,7.166,137.059z"/>
		<path fill="#FFFFFF" d="M28.671,148.871c-0.739,0.366-1.549,0.548-2.43,0.548c-0.765,0-1.479-0.141-2.144-0.424
			c-0.664-0.283-1.245-0.672-1.743-1.172c-0.499-0.498-0.894-1.074-1.184-1.73s-0.436-1.358-0.436-2.106v-10.292h1.196v10.292
			c0,0.582,0.112,1.134,0.336,1.657c0.225,0.523,0.532,0.976,0.922,1.357c0.39,0.384,0.848,0.687,1.371,0.91
			c0.523,0.225,1.084,0.336,1.682,0.336c0.599,0,1.159-0.111,1.683-0.336c0.523-0.224,0.979-0.526,1.37-0.91
			c0.39-0.382,0.698-0.834,0.922-1.357s0.336-1.075,0.336-1.657v-10.292h1.197v10.292v5.433h-1.197v-2.043
			C30.038,148.008,29.41,148.506,28.671,148.871z"/>
		<path fill="#FFFFFF" d="M42.676,148.871c-0.739,0.366-1.549,0.548-2.429,0.548c-0.765,0-1.479-0.141-2.144-0.424
			c-0.664-0.283-1.246-0.672-1.744-1.172c-0.499-0.498-0.894-1.074-1.184-1.73c-0.291-0.656-0.437-1.358-0.437-2.106v-10.292h1.196
			v10.292c0,0.582,0.112,1.134,0.336,1.657s0.531,0.976,0.922,1.357c0.39,0.384,0.847,0.687,1.371,0.91
			c0.523,0.225,1.083,0.336,1.683,0.336c0.598,0,1.159-0.111,1.681-0.336c0.524-0.224,0.98-0.526,1.371-0.91
			c0.39-0.382,0.697-0.834,0.922-1.357s0.336-1.075,0.336-1.657v-10.292h1.196v10.292v5.433h-1.196v-2.043
			C44.042,148.008,43.415,148.506,42.676,148.871z"/>
		<path fill="#FFFFFF" d="M37.131,130.555h8.622v1.196h-8.622V130.555z"/>
		<path fill="#FFFFFF" d="M59.758,143.912c0,0.764-0.146,1.478-0.436,2.143c-0.291,0.665-0.686,1.246-1.184,1.744
			c-0.499,0.499-1.08,0.893-1.745,1.185c-0.665,0.29-1.379,0.436-2.143,0.436c-0.765,0-1.479-0.146-2.143-0.436
			c-0.665-0.292-1.246-0.686-1.744-1.185c-0.499-0.498-0.893-1.079-1.184-1.744c-0.291-0.665-0.436-1.379-0.436-2.143
			c0-0.897,0.2-1.728,0.599-2.491c0.398-0.766,0.93-1.404,1.595-1.92c-0.632-0.166-1.155-0.506-1.57-1.021
			c-0.415-0.515-0.623-1.121-0.623-1.818c0-0.399,0.07-0.77,0.212-1.109c0.141-0.341,0.336-0.645,0.586-0.908
			c0.249-0.268,0.539-0.479,0.873-0.637c0.332-0.158,0.688-0.254,1.071-0.287v-0.025h2.766v1.196h-2.567
			c-0.481,0-0.893,0.175-1.233,0.523c-0.341,0.349-0.511,0.765-0.511,1.247c0,0.48,0.17,0.894,0.511,1.232
			c0.34,0.341,0.751,0.511,1.233,0.511h2.567v1.196c-0.598,0-1.159,0.112-1.682,0.336c-0.523,0.225-0.98,0.532-1.371,0.922
			c-0.39,0.393-0.698,0.848-0.922,1.372c-0.224,0.522-0.336,1.083-0.336,1.682s0.112,1.158,0.336,1.683
			c0.224,0.523,0.532,0.979,0.922,1.369c0.391,0.391,0.848,0.699,1.371,0.923c0.523,0.225,1.084,0.336,1.682,0.336
			c0.598,0,1.159-0.111,1.682-0.336c0.523-0.224,0.98-0.532,1.37-0.923c0.391-0.391,0.698-0.846,0.922-1.369
			c0.225-0.524,0.337-1.084,0.337-1.683v-10.218h1.196V143.912z"/>
		<path fill="#FFFFFF" d="M72.591,133.694h1.196v10.218c0,0.764-0.146,1.478-0.436,2.143s-0.685,1.246-1.184,1.744
			c-0.498,0.499-1.083,0.893-1.757,1.185c-0.672,0.29-1.391,0.436-2.155,0.436c-0.881,0-1.691-0.188-2.43-0.561
			c-0.739-0.373-1.366-0.875-1.881-1.508v2.068h-1.196v-15.725h1.196v10.218c0,0.599,0.112,1.158,0.337,1.683
			c0.224,0.523,0.531,0.979,0.922,1.369c0.39,0.391,0.846,0.699,1.37,0.923c0.523,0.225,1.084,0.336,1.682,0.336
			s1.159-0.111,1.682-0.336c0.524-0.224,0.985-0.532,1.383-0.923c0.399-0.391,0.71-0.846,0.935-1.369
			c0.224-0.524,0.336-1.084,0.336-1.683V133.694z"/>
		<path fill="#FFFFFF" d="M82.285,133.694c0.764,0,1.479,0.146,2.144,0.437c0.664,0.291,1.246,0.686,1.744,1.184
			c0.499,0.499,0.893,1.079,1.184,1.744c0.291,0.665,0.436,1.379,0.436,2.144v10.217h-1.196v-10.217
			c0-0.598-0.112-1.159-0.336-1.682c-0.224-0.523-0.532-0.98-0.922-1.371c-0.39-0.39-0.847-0.698-1.37-0.922
			s-1.084-0.337-1.682-0.337c-0.598,0-1.159,0.113-1.682,0.337s-0.98,0.532-1.371,0.922c-0.391,0.391-0.697,0.848-0.922,1.371
			c-0.224,0.522-0.335,1.084-0.335,1.682v10.217h-1.196v-10.217v-5.508h1.196v2.095c0.514-0.632,1.141-1.139,1.881-1.521
			C80.595,133.886,81.404,133.694,82.285,133.694z"/>
		<path fill="#FFFFFF" d="M87.094,131.727h-0.175h-0.125h-0.05c-0.083,0-0.191-0.017-0.324-0.051c-0.016,0-0.074-0.016-0.174-0.05
			c-0.449-0.148-0.818-0.415-1.109-0.797c-0.291-0.383-0.436-0.822-0.436-1.32v-1.047h1.196v1.047c0,0.282,0.092,0.516,0.274,0.697
			c0.183,0.184,0.407,0.291,0.673,0.324h0.25h3.688v1.196H87.094z"/>
		<path fill="#FFFFFF" d="M90.234,126.418v1.197H85.35v-0.05v-0.623v-0.524v-0.871h-1.221v-1.196h1.221h1.196v0.922v0.274v0.871
			H90.234z"/>
		<path fill="#FFFFFF" d="M99.964,146.317c-0.241,0.622-0.582,1.154-1.021,1.594c-0.44,0.44-0.968,0.78-1.583,1.021
			c-0.615,0.241-1.304,0.362-2.068,0.362s-1.479-0.146-2.143-0.437c-0.665-0.291-1.246-0.686-1.744-1.184
			c-0.499-0.498-0.894-1.08-1.184-1.745c-0.291-0.664-0.436-1.378-0.436-2.143h1.197c0,0.599,0.111,1.158,0.335,1.681
			c0.224,0.524,0.532,0.982,0.923,1.372c0.39,0.391,0.847,0.698,1.37,0.922c0.524,0.226,1.084,0.336,1.683,0.336
			s1.134-0.104,1.607-0.312c0.473-0.207,0.875-0.485,1.209-0.834c0.332-0.35,0.585-0.756,0.759-1.222
			c0.175-0.465,0.262-0.963,0.262-1.495v-9.469h-2.616v-1.196h3.214h0.599v10.665C100.327,144.999,100.205,145.693,99.964,146.317z"
			/>
		<path fill="#FFFFFF" d="M103.753,137.059c0.29-0.665,0.685-1.245,1.184-1.744c0.498-0.498,1.079-0.893,1.744-1.184
			c0.665-0.29,1.379-0.437,2.143-0.437c0.764,0,1.478,0.146,2.144,0.437c0.664,0.291,1.246,0.686,1.744,1.184
			c0.498,0.499,0.893,1.079,1.184,1.744c0.29,0.665,0.436,1.379,0.436,2.144v10.217h-1.196v-10.217c0-0.598-0.112-1.159-0.336-1.682
			c-0.224-0.523-0.532-0.98-0.922-1.371c-0.391-0.39-0.847-0.698-1.371-0.922c-0.523-0.224-1.083-0.337-1.682-0.337
			c-0.598,0-1.158,0.113-1.682,0.337c-0.523,0.224-0.98,0.532-1.37,0.922c-0.391,0.391-0.698,0.848-0.922,1.371
			c-0.225,0.522-0.336,1.084-0.336,1.682v2.368h3.488v1.195h-3.488v6.653h-1.197v-10.217
			C103.316,138.438,103.462,137.724,103.753,137.059z"/>
		<path fill="#FFFFFF" d="M113.134,131.751v-3.289h1.196v3.289H113.134z"/>
		<path fill="#FFFFFF" d="M126.866,149.419h-1.222v-10.217c0-0.598-0.112-1.159-0.336-1.682c-0.224-0.523-0.532-0.98-0.922-1.371
			c-0.391-0.39-0.847-0.698-1.371-0.922s-1.084-0.337-1.682-0.337c-0.599,0-1.159,0.113-1.682,0.337s-0.979,0.532-1.371,0.922
			c-0.391,0.391-0.698,0.848-0.922,1.371c-0.224,0.522-0.337,1.084-0.337,1.682h-1.196c0-0.765,0.146-1.479,0.437-2.144
			c0.29-0.665,0.685-1.245,1.183-1.744c0.498-0.498,1.081-0.893,1.745-1.184c0.665-0.29,1.379-0.437,2.143-0.437
			c0.764,0,1.483,0.146,2.156,0.437c0.672,0.291,1.258,0.686,1.757,1.184c0.498,0.499,0.892,1.079,1.184,1.744
			c0.29,0.665,0.437,1.379,0.437,2.144V149.419z"/>
		<path fill="#FFFFFF" d="M140.869,143.912c0,0.764-0.146,1.478-0.435,2.143c-0.292,0.665-0.686,1.246-1.185,1.744
			c-0.498,0.499-1.08,0.893-1.745,1.185c-0.664,0.29-1.378,0.436-2.143,0.436s-1.479-0.146-2.142-0.436
			c-0.666-0.292-1.247-0.686-1.745-1.185c-0.499-0.498-0.894-1.079-1.185-1.744s-0.436-1.379-0.436-2.143
			c0-0.897,0.199-1.728,0.597-2.491c0.399-0.766,0.931-1.404,1.595-1.92c-0.632-0.166-1.154-0.506-1.57-1.021
			c-0.414-0.515-0.622-1.121-0.622-1.818c0-0.399,0.07-0.77,0.211-1.109c0.141-0.341,0.336-0.645,0.586-0.908
			c0.249-0.268,0.539-0.479,0.872-0.637c0.331-0.158,0.688-0.254,1.071-0.287v-0.025h2.766v1.196h-2.567
			c-0.481,0-0.893,0.175-1.233,0.523c-0.341,0.349-0.511,0.765-0.511,1.247c0,0.48,0.17,0.894,0.511,1.232
			c0.34,0.341,0.751,0.511,1.233,0.511h2.567v1.196c-0.598,0-1.158,0.112-1.682,0.336c-0.522,0.225-0.98,0.532-1.37,0.922
			c-0.391,0.393-0.698,0.848-0.923,1.372c-0.224,0.522-0.336,1.083-0.336,1.682s0.112,1.158,0.336,1.683
			c0.225,0.523,0.533,0.979,0.923,1.369c0.389,0.391,0.847,0.699,1.37,0.923c0.524,0.225,1.084,0.336,1.682,0.336
			c0.599,0,1.159-0.111,1.683-0.336c0.522-0.224,0.98-0.532,1.37-0.923c0.391-0.391,0.698-0.846,0.922-1.369
			c0.225-0.524,0.336-1.084,0.336-1.683v-10.218h1.196V143.912z"/>
		<path fill="#FFFFFF" d="M151.796,148.871c-0.739,0.366-1.549,0.548-2.428,0.548c-0.765,0-1.479-0.141-2.144-0.424
			c-0.664-0.283-1.245-0.672-1.744-1.172c-0.498-0.498-0.894-1.074-1.184-1.73c-0.291-0.656-0.436-1.358-0.436-2.106v-10.292h1.196
			v10.292c0,0.582,0.112,1.134,0.336,1.657c0.225,0.523,0.531,0.976,0.922,1.357c0.391,0.384,0.847,0.687,1.371,0.91
			c0.523,0.225,1.083,0.336,1.683,0.336c0.597,0,1.158-0.111,1.681-0.336c0.524-0.224,0.98-0.526,1.371-0.91
			c0.391-0.382,0.697-0.834,0.921-1.357c0.225-0.523,0.337-1.075,0.337-1.657v-10.292h1.196v10.292v5.433h-1.196v-2.043
			C153.163,148.008,152.537,148.506,151.796,148.871z"/>
		<path fill="#FFFFFF" d="M154.176,131.727h-0.175h-0.124h-0.049c-0.084,0-0.192-0.017-0.324-0.051c-0.017,0-0.076-0.016-0.175-0.05
			c-0.448-0.148-0.817-0.415-1.108-0.797c-0.292-0.383-0.438-0.822-0.438-1.32v-1.047h1.198v1.047c0,0.282,0.091,0.516,0.274,0.697
			c0.183,0.184,0.407,0.291,0.672,0.324h0.249h3.688v1.196H154.176z"/>
		<path fill="#FFFFFF" d="M157.317,126.418v1.197h-4.885v-0.05v-0.623v-0.524v-0.871h-1.221v-1.196h1.221h1.195v0.922v0.274v0.871
			H157.317z"/>
		<path fill="#FFFFFF" d="M165.801,148.871c-0.738,0.366-1.549,0.548-2.429,0.548c-0.765,0-1.479-0.141-2.144-0.424
			s-1.246-0.672-1.744-1.172c-0.499-0.498-0.894-1.074-1.184-1.73c-0.291-0.656-0.437-1.358-0.437-2.106v-10.292h1.196v10.292
			c0,0.582,0.112,1.134,0.336,1.657c0.225,0.523,0.532,0.976,0.923,1.357c0.39,0.384,0.847,0.687,1.37,0.91
			c0.523,0.225,1.085,0.336,1.683,0.336s1.158-0.111,1.681-0.336c0.524-0.224,0.98-0.526,1.371-0.91
			c0.391-0.382,0.698-0.834,0.923-1.357c0.223-0.523,0.336-1.075,0.336-1.657v-10.292h1.195v10.292v5.433h-1.195v-2.043
			C167.167,148.008,166.54,148.506,165.801,148.871z"/>
		<path fill="#FFFFFF" d="M182.609,148.223v1.196h-1.146h-1.147h-0.051v-25.144v-0.573v-0.025c0-0.698-0.148-1.336-0.447-1.918
			c-0.298-0.582-0.698-1.063-1.197-1.445l-2.665,2.665l-2.518-2.516v-1.669v-0.025l0.923,0.921l1.595,1.595l1.594-1.595l0.898-0.921
			c0.398,0.215,0.738,0.44,1.021,0.673c0.614,0.515,1.101,1.138,1.458,1.868c0.357,0.731,0.537,1.521,0.537,2.367v0.025v0.573
			v23.947H182.609z"/>
		<path fill="#FFFFFF" d="M195.679,146.093c-0.291,0.656-0.686,1.232-1.184,1.73c-0.499,0.5-1.079,0.889-1.744,1.172
			s-1.38,0.424-2.143,0.424c-0.766,0-1.479-0.141-2.144-0.424s-1.246-0.672-1.745-1.172c-0.499-0.498-0.893-1.074-1.183-1.73
			c-0.291-0.656-0.437-1.358-0.437-2.106v-10.292h1.197v10.292c0,0.582,0.111,1.134,0.336,1.657c0.224,0.523,0.53,0.976,0.921,1.357
			c0.39,0.384,0.848,0.687,1.371,0.91c0.522,0.225,1.084,0.336,1.683,0.336c0.598,0,1.158-0.111,1.682-0.336
			c0.523-0.224,0.98-0.526,1.371-0.91c0.39-0.382,0.697-0.834,0.921-1.357c0.225-0.523,0.336-1.075,0.336-1.657v-15.524h1.197
			v15.524C196.115,144.734,195.97,145.437,195.679,146.093z"/>
		<path fill="#FFFFFF" d="M192.427,131.751v-3.289h1.196v3.289H192.427z"/>
		<path fill="#FFFFFF" d="M209.622,149.419h-1.197v-8.672c-0.398,0.398-0.88,0.688-1.445,0.871
			c-0.032,0.018-0.086,0.038-0.163,0.062c-0.074,0.025-0.282,0.089-0.622,0.188c-0.341,0.1-0.855,0.25-1.545,0.449
			c-0.689,0.198-1.666,0.482-2.928,0.847c-0.548,0.183-1.002,0.512-1.358,0.983c-0.357,0.475-0.535,1.02-0.535,1.633
			c0,0.682,0.232,1.258,0.696,1.732c0.465,0.475,1.04,0.71,1.72,0.71h1.745v1.196h-1.745c-0.497,0-0.966-0.096-1.407-0.286
			c-0.44-0.191-0.826-0.454-1.158-0.785c-0.334-0.332-0.594-0.72-0.785-1.159s-0.287-0.91-0.287-1.408
			c0-0.764,0.207-1.461,0.623-2.092c0.481-0.799,1.162-1.338,2.043-1.62c0.017-0.017,0.067-0.037,0.149-0.063
			c0.083-0.024,0.295-0.086,0.636-0.186c0.342-0.1,0.868-0.254,1.583-0.462c0.714-0.208,1.711-0.501,2.991-0.885
			c0.681-0.232,1.195-0.688,1.543-1.37c0.034-0.083,0.071-0.232,0.113-0.449c0.042-0.216,0.021-0.473-0.062-0.772
			c-0.149-0.432-0.357-0.829-0.623-1.195s-0.577-0.682-0.935-0.947c-0.357-0.265-0.752-0.474-1.184-0.623
			c-0.433-0.149-0.889-0.225-1.37-0.225c-0.599,0-1.159,0.113-1.683,0.337s-0.98,0.532-1.37,0.922
			c-0.391,0.391-0.698,0.848-0.922,1.371c-0.225,0.522-0.337,1.084-0.337,1.682h-1.196c0-0.765,0.146-1.479,0.437-2.144
			c0.29-0.665,0.686-1.245,1.184-1.744c0.499-0.498,1.079-0.893,1.743-1.184c0.666-0.29,1.38-0.437,2.145-0.437
			c0.781,0,1.512,0.148,2.192,0.448s1.271,0.707,1.77,1.222c0.249-0.331,0.374-0.696,0.374-1.096v-0.574h1.172v0.574
			c0,0.25-0.025,0.482-0.076,0.697c-0.116,0.498-0.357,0.956-0.722,1.371c0.148,0.232,0.282,0.482,0.397,0.746
			c0.117,0.267,0.208,0.541,0.275,0.822c0.049,0.185,0.082,0.371,0.1,0.562c0.016,0.189,0.025,0.435,0.025,0.734V149.419z"/>
		<path fill="#FFFFFF" d="M200.999,130.555h8.621v1.196h-8.621V130.555z"/>
		<path fill="#FFFFFF" d="M212.063,126.418v1.197h-4.884v-0.05v-0.623v-0.524v-0.871h-1.223v-1.196h1.223h1.195v0.922v0.274v0.871
			H212.063z"/>
		<path fill="#FFFFFF" d="M220.548,148.871c-0.739,0.366-1.549,0.548-2.43,0.548c-0.764,0-1.479-0.141-2.143-0.424
			c-0.665-0.283-1.246-0.672-1.744-1.172c-0.499-0.498-0.894-1.074-1.184-1.73c-0.291-0.656-0.437-1.358-0.437-2.106v-10.292h1.195
			v10.292c0,0.582,0.113,1.134,0.337,1.657c0.225,0.523,0.532,0.976,0.923,1.357c0.39,0.384,0.847,0.687,1.37,0.91
			c0.523,0.225,1.083,0.336,1.682,0.336s1.158-0.111,1.682-0.336c0.524-0.224,0.98-0.526,1.37-0.91
			c0.391-0.382,0.699-0.834,0.924-1.357c0.224-0.523,0.336-1.075,0.336-1.657v-10.292h1.195v10.292v5.433h-1.195v-2.043
			C221.914,148.008,221.287,148.506,220.548,148.871z"/>
		<path fill="#FFFFFF" d="M227.052,137.059c0.29-0.665,0.686-1.245,1.184-1.744c0.498-0.498,1.08-0.893,1.745-1.184
			c0.663-0.29,1.378-0.437,2.143-0.437c0.764,0,1.479,0.146,2.144,0.437c0.664,0.291,1.245,0.686,1.743,1.184
			c0.499,0.499,0.894,1.079,1.184,1.744c0.291,0.665,0.437,1.379,0.437,2.144v10.217h-1.195v-10.217
			c0-0.598-0.112-1.159-0.338-1.682c-0.224-0.523-0.531-0.98-0.922-1.371c-0.39-0.39-0.847-0.698-1.369-0.922
			c-0.524-0.224-1.085-0.337-1.683-0.337s-1.159,0.113-1.683,0.337c-0.522,0.224-0.979,0.532-1.37,0.922
			c-0.392,0.391-0.697,0.848-0.923,1.371c-0.224,0.522-0.335,1.084-0.335,1.682v2.368h3.488v1.195h-3.488v6.653h-1.196v-10.217
			C226.616,138.438,226.761,137.724,227.052,137.059z"/>
		<path fill="#FFFFFF" d="M235.886,128.163c0.498,0,0.922,0.174,1.271,0.522c0.35,0.35,0.523,0.773,0.523,1.271
			c0,0.5-0.174,0.922-0.523,1.272c-0.349,0.349-0.772,0.522-1.271,0.522s-0.922-0.174-1.271-0.522
			c-0.348-0.351-0.522-0.772-0.522-1.272c0-0.497,0.175-0.921,0.522-1.271C234.964,128.337,235.388,128.163,235.886,128.163z
			 M235.886,130.53c0.184,0,0.328-0.059,0.437-0.175s0.162-0.257,0.162-0.424c0-0.165-0.054-0.306-0.162-0.423
			c-0.108-0.116-0.253-0.174-0.437-0.174c-0.166,0-0.308,0.058-0.423,0.174c-0.117,0.117-0.176,0.258-0.176,0.423
			c0,0.167,0.059,0.308,0.176,0.424C235.578,130.472,235.72,130.53,235.886,130.53z M250.164,149.419h-1.22v-10.217
			c0-0.598-0.113-1.159-0.337-1.682c-0.225-0.523-0.532-0.98-0.923-1.371c-0.391-0.39-0.848-0.698-1.37-0.922
			c-0.523-0.224-1.085-0.337-1.682-0.337c-0.599,0-1.158,0.113-1.683,0.337c-0.523,0.224-0.98,0.532-1.37,0.922
			c-0.391,0.391-0.698,0.848-0.923,1.371c-0.225,0.522-0.336,1.084-0.336,1.682h-1.196c0-0.765,0.146-1.479,0.436-2.144
			c0.292-0.665,0.687-1.245,1.185-1.744c0.498-0.498,1.079-0.893,1.744-1.184c0.664-0.29,1.379-0.437,2.144-0.437
			c0.764,0,1.482,0.146,2.155,0.437c0.672,0.291,1.258,0.686,1.756,1.184c0.499,0.499,0.894,1.079,1.185,1.744
			c0.29,0.665,0.436,1.379,0.436,2.144V149.419z"/>
		<path fill="#FFFFFF" d="M263.67,149.419h-1.195v-8.672c-0.399,0.398-0.881,0.688-1.446,0.871
			c-0.033,0.018-0.087,0.038-0.161,0.062c-0.075,0.025-0.284,0.089-0.624,0.188c-0.34,0.1-0.855,0.25-1.544,0.449
			c-0.689,0.198-1.667,0.482-2.929,0.847c-0.548,0.183-1.001,0.512-1.357,0.983c-0.358,0.475-0.536,1.02-0.536,1.633
			c0,0.682,0.232,1.258,0.697,1.732s1.039,0.71,1.72,0.71h1.744v1.196h-1.744c-0.498,0-0.967-0.096-1.407-0.286
			c-0.441-0.191-0.827-0.454-1.159-0.785c-0.333-0.332-0.594-0.72-0.785-1.159s-0.287-0.91-0.287-1.408
			c0-0.764,0.208-1.461,0.624-2.092c0.481-0.799,1.163-1.338,2.043-1.62c0.016-0.017,0.07-0.037,0.162-0.063
			c0.091-0.024,0.312-0.086,0.659-0.186c0.351-0.1,0.877-0.254,1.583-0.462s1.691-0.501,2.954-0.885
			c0.681-0.232,1.195-0.688,1.544-1.37c0.033-0.083,0.07-0.232,0.112-0.449c0.042-0.216,0.021-0.473-0.062-0.772
			c-0.149-0.432-0.357-0.829-0.622-1.195c-0.267-0.366-0.577-0.682-0.936-0.947c-0.356-0.265-0.751-0.474-1.184-0.623
			c-0.432-0.149-0.888-0.225-1.369-0.225c-0.599,0-1.159,0.113-1.683,0.337s-0.98,0.532-1.371,0.922
			c-0.392,0.391-0.697,0.848-0.922,1.371c-0.225,0.522-0.336,1.084-0.336,1.682h-1.197c0-0.765,0.146-1.479,0.437-2.144
			c0.292-0.665,0.687-1.245,1.183-1.744c0.5-0.498,1.081-0.893,1.745-1.184c0.665-0.29,1.379-0.437,2.145-0.437
			c0.647,0,1.261,0.104,1.844,0.312c0.581,0.207,1.108,0.494,1.582,0.859c0.473,0.365,0.876,0.806,1.208,1.32
			c0.332,0.517,0.573,1.071,0.724,1.67c0.05,0.183,0.087,0.373,0.111,0.574c0.025,0.198,0.037,0.457,0.037,0.771V149.419z"/>
		<path fill="#FFFFFF" d="M262.474,128.462h1.196v2.093v1.196h-1.196h-1.196h-1.196h-5.033v-1.196h5.033v-2.093h1.196v2.093h1.196
			V128.462z"/>
		<path fill="#FFFFFF" d="M272.167,133.694c0.765,0,1.479,0.146,2.144,0.437c0.664,0.291,1.246,0.686,1.745,1.184
			c0.498,0.499,0.892,1.079,1.183,1.744c0.29,0.665,0.437,1.379,0.437,2.144v4.71c0,0.764-0.146,1.478-0.437,2.143
			c-0.291,0.665-0.685,1.246-1.183,1.744c-0.499,0.499-1.081,0.893-1.745,1.185c-0.664,0.29-1.379,0.436-2.144,0.436
			c-0.764,0-1.478-0.146-2.142-0.436c-0.666-0.292-1.246-0.686-1.745-1.185c-0.499-0.498-0.893-1.079-1.184-1.744
			s-0.437-1.379-0.437-2.143v-1.146v-1.195h3.489v1.195h-2.293v1.146c0,0.599,0.111,1.158,0.337,1.683
			c0.225,0.523,0.531,0.979,0.922,1.369c0.39,0.391,0.847,0.699,1.37,0.923c0.523,0.225,1.084,0.336,1.682,0.336
			c0.599,0,1.16-0.111,1.683-0.336c0.524-0.224,0.98-0.532,1.371-0.923c0.39-0.391,0.697-0.846,0.922-1.369
			c0.224-0.524,0.336-1.084,0.336-1.683v-4.71c0-0.598-0.112-1.159-0.336-1.682c-0.225-0.523-0.532-0.98-0.922-1.371
			c-0.391-0.39-0.847-0.698-1.371-0.922c-0.522-0.224-1.084-0.337-1.683-0.337c-0.598,0-1.158,0.113-1.682,0.337
			s-0.98,0.532-1.37,0.922c-0.391,0.391-0.697,0.848-0.922,1.371c-0.226,0.522-0.337,1.084-0.337,1.682h-1.196
			c0-0.765,0.146-1.479,0.437-2.144s0.685-1.245,1.184-1.744c0.499-0.498,1.079-0.893,1.745-1.184
			C270.689,133.841,271.403,133.694,272.167,133.694z"/>
	</g>
	<g>
		<linearGradient id="SVGID_1_" gradientUnits="userSpaceOnUse" x1="108.4888" y1="137.1226" x2="185.8223" y2="137.1226">
			<stop  offset="0" style="stop-color:#A91F24"/>
			<stop  offset="1" style="stop-color:#E83527"/>
		</linearGradient>
		<path fill="url(#SVGID_1_)" d="M111.335,182.058h72.243c0,0,15.529-90.556-35.109-89.866
			C100.493,92.845,107.285,136.435,111.335,182.058z"/>
		<path fill="#EAB862" d="M156.026,98.762c0,4.474-4.393,8.103-9.806,8.103h-1.092c-5.417,0-9.808-3.629-9.808-8.103V84.809
			c0-4.474,4.391-8.104,9.808-8.104h1.092c5.414,0,9.806,3.631,9.806,8.104V98.762z"/>
		<path fill="#352215" d="M123.504,39.183v17.701h-3.712l-0.169-17.383C119.623,39.501,122.325,35.355,123.504,39.183z"/>
		<path fill="#352215" d="M168.066,39.183v17.701h-3.714l-0.168-17.383C164.185,39.501,166.884,35.355,168.066,39.183z"/>
		<linearGradient id="SVGID_2_" gradientUnits="userSpaceOnUse" x1="118.5527" y1="55.2803" x2="168.7402" y2="55.2803">
			<stop  offset="0.0032" style="stop-color:#D39C44"/>
			<stop  offset="0.1401" style="stop-color:#D9A550"/>
			<stop  offset="0.5004" style="stop-color:#EABA6D"/>
			<stop  offset="0.7957" style="stop-color:#F5C87F"/>
			<stop  offset="0.9875" style="stop-color:#F9CD85"/>
		</linearGradient>
		<path fill="url(#SVGID_2_)" d="M168.74,51.948c0-2.162-1.352-4.03-3.321-4.949c-0.233-4.832-0.488-9.663-0.729-14.489
			c0,0-4.05-10.539-20.592-10.831c-13.897-0.246-19.452,8.596-20.876,11.432c0.01,0.545,0.013,1.092,0.01,1.638l-0.403-0.772
			l0.4,0.888c-0.009,1.476-0.071,2.95-0.233,4.423c0.055,0.432,0.101,0.85,0.106,1.211c0.042,2.285,0.082,4.577,0.132,6.869
			c-2.68,0.578-4.682,2.776-4.682,5.404c0,2.746,2.176,5.02,5.03,5.474c0.041,0.913,0.082,1.823,0.131,2.736l0.128,15.988
			l0.207-0.501c0.085,0.724,0.233,1.423,0.483,2.085c1.778,4.685,7.376,7.122,12.28,8.759c4.773,1.595,8.93,1.963,13.965,1.178
			c9.266-1.444,15.624-5.23,15.526-14.787c-0.057-5.672-0.228-11.349-0.454-17.023C167.582,55.698,168.74,53.95,168.74,51.948z"/>
		<path fill="#352215" d="M160.079,17.247c0,6.061-6.966,10.975-15.562,10.975c-8.593,0-15.56-4.914-15.56-10.975
			c0-6.057,6.967-10.97,15.56-10.97C153.113,6.277,160.079,11.19,160.079,17.247z"/>
		<linearGradient id="SVGID_3_" gradientUnits="userSpaceOnUse" x1="156.876" y1="282.9297" x2="196.8501" y2="282.9297">
			<stop  offset="0.0032" style="stop-color:#D39C44"/>
			<stop  offset="0.1539" style="stop-color:#DEAB5A"/>
			<stop  offset="0.3298" style="stop-color:#EABA6D"/>
			<stop  offset="0.518" style="stop-color:#F2C47B"/>
			<stop  offset="0.7251" style="stop-color:#F7CB83"/>
			<stop  offset="0.9875" style="stop-color:#F9CD85"/>
		</linearGradient>
		<path fill="url(#SVGID_3_)" d="M177.856,227.801c0,0-0.727,88.988-0.741,90.632c-0.031,4.514,8.437,6.926,11.453,8.624
			c2.079,1.171,4.372,1.698,5.933,3.64c0.414,0.516,3.352,7.562,1.993,7.357c-7.098-1.05-14.19-2.127-21.286-3.171
			c-4.166-0.612-9.762,0.54-12.552-3.388c-2.928-4.121-1.127-10.656-1.505-15.34c-0.711-8.81-1.125-17.698-1.244-26.533
			l-3.031-54.596L177.856,227.801z"/>
		<path fill="#4A443B" d="M197.677,335.176c0,0,2.887,0.522,3.09,1.856c0.202,1.335-0.21,3.105-0.21,3.105l-37.829-1.762
			l0.302-3.562L197.677,335.176z"/>
		<path fill="#4A443B" d="M188.568,327.057c0,0,5.604,8.604,3.953,11.327l-3.377,0.046l-2.537-12.794L188.568,327.057z"/>
		<linearGradient id="SVGID_4_" gradientUnits="userSpaceOnUse" x1="100.5625" y1="282.5107" x2="139.1284" y2="282.5107">
			<stop  offset="0.0032" style="stop-color:#D39C44"/>
			<stop  offset="0.1401" style="stop-color:#D9A550"/>
			<stop  offset="0.5004" style="stop-color:#EABA6D"/>
			<stop  offset="0.7957" style="stop-color:#F5C87F"/>
			<stop  offset="0.9875" style="stop-color:#F9CD85"/>
		</linearGradient>
		<path fill="url(#SVGID_4_)" d="M118.05,227.259c0,0,1.948,88.971,1.983,90.613c0.094,4.515-8.342,7.04-11.335,8.781
			c-2.06,1.199-4.345,1.759-5.88,3.723c-0.406,0.518-3.248,7.604-1.892,7.382c7.081-1.148,14.158-2.319,21.24-3.461
			c4.157-0.674,9.77,0.405,12.505-3.562c2.868-4.159,0.979-10.668,1.293-15.357c0.591-8.819,0.881-17.71,0.881-26.548l2.282-54.631
			L118.05,227.259z"/>
		<linearGradient id="SVGID_5_" gradientUnits="userSpaceOnUse" x1="109.873" y1="133.5591" x2="178.0225" y2="133.5591">
			<stop  offset="0" style="stop-color:#A91F24"/>
			<stop  offset="1" style="stop-color:#E83527"/>
		</linearGradient>
		<path fill="url(#SVGID_5_)" d="M132.378,89.897c0,0-2.25,11.703,6.753,13.955c9,2.25,17.103-0.902,18.002-7.203v-8.102
			c0,0,13.054,4.051,14.855,5.852l6.034,83.608l-68.149,0.562l8.101-82.37C117.974,96.2,130.128,89.897,132.378,89.897z"/>
		<path fill="#4A443B" d="M103.088,332.851c0,0-2.878,0.562-3.064,1.9c-0.185,1.338,0.254,3.1,0.254,3.1l37.801-2.276l-0.354-3.56
			L103.088,332.851z"/>
		<path fill="#4A443B" d="M108.698,326.653c0,0-5.481,8.679-3.794,11.379h3.376l2.361-12.826L108.698,326.653z"/>
		<linearGradient id="SVGID_6_" gradientUnits="userSpaceOnUse" x1="113.6763" y1="239.7236" x2="182.5391" y2="239.7236">
			<stop  offset="0" style="stop-color:#C4892B"/>
			<stop  offset="1" style="stop-color:#F1BB33"/>
			<stop  offset="1" style="stop-color:#687533"/>
		</linearGradient>
		<path fill="url(#SVGID_6_)" d="M113.944,187.023c2.185-2.337-0.268,102.271-0.268,102.271s18.229,11.899,29.369-0.851
			l3.038-84.997l5.063,84.997c0,0,26.331,8.501,31.393-1.7l-4.461-101.635L113.944,187.023z"/>
		<linearGradient id="SVGID_7_" gradientUnits="userSpaceOnUse" x1="109.8926" y1="183.4082" x2="181.124" y2="183.4082">
			<stop  offset="0" style="stop-color:#A91F24"/>
			<stop  offset="1" style="stop-color:#E83527"/>
		</linearGradient>
		<path fill="url(#SVGID_7_)" d="M181.124,183.407c0,3.172-2.466,5.741-5.505,5.741h-60.223c-3.038,0-5.504-2.569-5.504-5.741l0,0
			c0-3.169,2.466-5.738,5.504-5.738h60.223C178.658,177.669,181.124,180.238,181.124,183.407L181.124,183.407z"/>
		<path fill="#352215" d="M133.427,30.622c0,0,20.262,17.903,31.342,14.818c0,0,5.212-0.518,7.23-8.157
			c0,0-5.135-4.278-10.392-9.902C156.349,21.758,123.891,15.219,133.427,30.622z"/>
		<path fill="#352215" d="M123.235,47.366c0,0-0.515-14.365,12.313-17.966c0,0-5.176-4.501-0.223-6.749
			C135.325,22.651,111.147,27.521,123.235,47.366z"/>
		<linearGradient id="SVGID_8_" gradientUnits="userSpaceOnUse" x1="127.0923" y1="26.0664" x2="160.8394" y2="26.0664">
			<stop  offset="0" style="stop-color:#C4892B"/>
			<stop  offset="1" style="stop-color:#F1BB33"/>
			<stop  offset="1" style="stop-color:#687533"/>
		</linearGradient>
		<path fill="url(#SVGID_8_)" d="M128.572,26.7c0,0,9.003,6.304,31.959,0c0,0,2.249-1.351-5.403-2.251c0,0-23.855,4.052-23.855,0
			C131.272,20.398,124.072,24,128.572,26.7z"/>
		<g>
			<path fill="#FDFEFF" d="M170.615,188.809c0,3.48-2.821,6.302-6.3,6.302h-34.66c-3.479,0-6.299-2.821-6.299-6.302v-48.837
				c0-3.48,2.821-6.3,6.299-6.3h34.66c3.479,0,6.3,2.819,6.3,6.3V188.809z"/>
			<g>
				<path fill-rule="evenodd" clip-rule="evenodd" fill="#8E8E8E" d="M152.981,153.663c-2.09,1.537-2.156,4.336,0.339,5.832
					c-0.504,1.256-1.073,2.479-2.14,3.392c-0.518,0.445-1.154,0.521-1.757,0.26c-1.114-0.483-2.18-0.551-3.306-0.022
					c-0.745,0.348-1.463,0.17-2.042-0.438c-1.859-1.97-2.773-4.291-2.432-7.009c0.284-2.26,2.471-4.114,4.972-2.971
					c0.671,0.307,1.275,0.245,1.931-0.04c1.244-0.538,2.471-0.502,3.622,0.282C152.441,153.136,152.675,153.392,152.981,153.663z"/>
				<path fill-rule="evenodd" clip-rule="evenodd" fill="#8E8E8E" d="M147.493,152.099c-0.132-1.641,1.119-3.074,2.745-3.2
					C150.563,150.469,149.149,152.15,147.493,152.099z"/>
			</g>
		</g>
		
			<linearGradient id="SVGID_9_" gradientUnits="userSpaceOnUse" x1="-290.064" y1="154.0669" x2="-232.2833" y2="154.0669" gradientTransform="matrix(-0.9982 0.0605 0.0605 0.9982 -166.0961 9.9998)">
			<stop  offset="0.0032" style="stop-color:#D39C44"/>
			<stop  offset="0.1401" style="stop-color:#D9A550"/>
			<stop  offset="0.5004" style="stop-color:#EABA6D"/>
			<stop  offset="0.7957" style="stop-color:#F5C87F"/>
			<stop  offset="0.9875" style="stop-color:#F9CD85"/>
		</linearGradient>
		<path fill="url(#SVGID_9_)" d="M109.743,183.399c-5.436-7.562-18.668-39.317-17.79-43.616
			c0.983-4.795,24.979-42.968,24.979-42.968c6.024,9.588,0.841,19.758,0.841,19.758l-12.593,23.086l14.993,38.291
			c0.408-0.158,0.819-0.316,1.228-0.478c1.541,0.942,2.898,2.534,3.699,4.575l1.618,4.117c1.605,4.094,0.39,8.402-2.72,9.621
			l-3.438,1.35c-3.105,1.223-6.929-1.107-8.536-5.199l-1.618-4.118c-0.097-0.25-0.186-0.502-0.265-0.753
			c-0.006,0.002-0.016,0.002-0.024,0.004c0.006-0.007,0.014-0.016,0.02-0.024C109.756,185.798,109.637,184.556,109.743,183.399z"/>
		
			<linearGradient id="SVGID_10_" gradientUnits="userSpaceOnUse" x1="-446.7627" y1="150.3462" x2="-388.9768" y2="150.3462" gradientTransform="matrix(0.9986 0.0523 -0.0523 0.9986 614.0851 18.992)">
			<stop  offset="0.0032" style="stop-color:#D39C44"/>
			<stop  offset="0.1401" style="stop-color:#D9A550"/>
			<stop  offset="0.5004" style="stop-color:#EABA6D"/>
			<stop  offset="0.7957" style="stop-color:#F5C87F"/>
			<stop  offset="0.9875" style="stop-color:#F9CD85"/>
		</linearGradient>
		<path fill="url(#SVGID_10_)" d="M183.414,182.731c5.373-7.604,18.347-39.47,17.431-43.76
			c-1.021-4.787-25.326-42.763-25.326-42.763c-5.946,9.636-0.681,19.765-0.681,19.765l12.781,22.979l-14.678,38.416
			c-0.412-0.157-0.825-0.31-1.236-0.468c-1.53,0.953-2.876,2.557-3.661,4.604l-1.583,4.131c-1.572,4.106-0.32,8.403,2.798,9.6
			l3.449,1.321c3.117,1.195,6.921-1.164,8.493-5.271l1.584-4.131c0.097-0.25,0.184-0.501,0.258-0.754
			c0.009,0.002,0.017,0.004,0.025,0.005c-0.006-0.007-0.013-0.017-0.021-0.026C183.419,185.13,183.526,183.887,183.414,182.731z"/>
		<linearGradient id="SVGID_11_" gradientUnits="userSpaceOnUse" x1="109.8926" y1="98.0566" x2="179.4346" y2="98.0566">
			<stop  offset="0" style="stop-color:#C4892B"/>
			<stop  offset="1" style="stop-color:#F1BB33"/>
			<stop  offset="1" style="stop-color:#687533"/>
		</linearGradient>
		<path fill="url(#SVGID_11_)" d="M133.26,87.162c0,0,1.829,13.576,8.964,13.398c7.133-0.175,13.417,2.632,14.029-12.481
			l-0.628-2.232l23.809,7.487c0,0-7.32,20.368-35.991,16.426c-28.67-3.941-33.551-16.426-33.551-16.426L133.26,87.162z"/>
		<linearGradient id="SVGID_12_" gradientUnits="userSpaceOnUse" x1="113.269" y1="286.8379" x2="143.6514" y2="286.8379">
			<stop  offset="0" style="stop-color:#A91F24"/>
			<stop  offset="1" style="stop-color:#E83527"/>
		</linearGradient>
		<path fill="url(#SVGID_12_)" d="M113.676,289.294l-0.407-9.406c0,0,16.879,12.49,30.382-0.674l-0.606,9.229
			C143.045,288.443,134.34,301.399,113.676,289.294z"/>
		<linearGradient id="SVGID_13_" gradientUnits="userSpaceOnUse" x1="150.0654" y1="286.8379" x2="182.4727" y2="286.8379">
			<stop  offset="0" style="stop-color:#A91F24"/>
			<stop  offset="1" style="stop-color:#E83527"/>
		</linearGradient>
		<path fill="url(#SVGID_13_)" d="M150.5,289.294l-0.435-9.406c0,0,18.004,12.49,32.407-0.674l-0.645,9.229
			C181.828,288.443,172.542,301.399,150.5,289.294z"/>
	</g>
</g>
</svg>
