<?xml version="1.0" encoding="utf-8"?>
<!-- Generator: Adobe Illustrator 16.0.0, SVG Export Plug-In . SVG Version: 6.00 Build 0)  -->
<!DOCTYPE svg PUBLIC "-//W3C//DTD SVG 1.1//EN" "http://www.w3.org/Graphics/SVG/1.1/DTD/svg11.dtd">
<svg version="1.1" id="Layer_1" xmlns="http://www.w3.org/2000/svg" xmlns:xlink="http://www.w3.org/1999/xlink" x="0px" y="0px"
	 width="287.266px" height="357.141px" viewBox="0 0 287.266 357.141" enable-background="new 0 0 287.266 357.141"
	 xml:space="preserve">
<g>
	<path fill="#E74C25" d="M287.266,333.85c0,12.861-10.429,23.291-23.292,23.291H23.292C10.428,357.141,0,346.711,0,333.85V23.292
		C0,10.43,10.428,0,23.292,0h240.682c12.863,0,23.292,10.43,23.292,23.292V333.85z"/>
	<g>
		<path fill="#FFFFFF" d="M116.301,179.574l72.495,2.558c0,0,14.823-95.86-34.335-95
			C107.885,87.949,114.812,130.335,116.301,179.574z"/>
		
			<linearGradient id="SVGID_1_" gradientUnits="userSpaceOnUse" x1="165.5122" y1="282.7759" x2="205.728" y2="282.7759" gradientTransform="matrix(1 -0.0026 0.0026 1 -4.1243 1.3301)">
			<stop  offset="0.0032" style="stop-color:#D39C44"/>
			<stop  offset="0.1539" style="stop-color:#DEAB5A"/>
			<stop  offset="0.3298" style="stop-color:#EABA6D"/>
			<stop  offset="0.518" style="stop-color:#F2C47B"/>
			<stop  offset="0.7251" style="stop-color:#F7CB83"/>
			<stop  offset="0.9875" style="stop-color:#F9CD85"/>
		</linearGradient>
		<path fill="url(#SVGID_1_)" d="M183.084,228.163c0,0-0.495,89.523-0.503,91.175c-0.021,4.541,8.506,6.947,11.544,8.648
			c2.091,1.17,4.401,1.693,5.977,3.645c0.418,0.514,3.39,7.594,2.024,7.395c-7.143-1.037-14.281-2.102-21.423-3.135
			c-4.194-0.604-9.817,0.57-12.635-3.373c-2.955-4.139-1.163-10.715-1.555-15.428c-0.739-8.859-1.177-17.799-1.321-26.688
			l-3.194-54.914L183.084,228.163z"/>
		<path fill="#4A443B" d="M201.953,336.809c0,0,2.906,0.518,3.113,1.861c0.206,1.342-0.206,3.123-0.206,3.123l-38.06-1.67
			l0.295-3.584L201.953,336.809z"/>
		
			<linearGradient id="SVGID_2_" gradientUnits="userSpaceOnUse" x1="108.8647" y1="282.3599" x2="147.6572" y2="282.3599" gradientTransform="matrix(1 -0.0026 0.0026 1 -4.1243 1.3301)">
			<stop  offset="0.0032" style="stop-color:#D39C44"/>
			<stop  offset="0.1401" style="stop-color:#D9A550"/>
			<stop  offset="0.5004" style="stop-color:#EABA6D"/>
			<stop  offset="0.7957" style="stop-color:#F5C87F"/>
			<stop  offset="0.9875" style="stop-color:#F9CD85"/>
		</linearGradient>
		<path fill="url(#SVGID_2_)" d="M122.917,227.776c0,0,2.196,89.498,2.235,91.152c0.107,4.539-8.372,7.104-11.377,8.863
			c-2.07,1.211-4.367,1.781-5.907,3.76c-0.405,0.523-3.246,7.656-1.883,7.434c7.121-1.176,14.238-2.371,21.36-3.543
			c4.181-0.684,9.826,0.385,12.567-3.615c2.878-4.191,0.96-10.732,1.263-15.453c0.57-8.873,0.837-17.818,0.813-26.709l2.151-54.961
			L122.917,227.776z"/>
		
			<linearGradient id="SVGID_3_" gradientUnits="userSpaceOnUse" x1="107.7832" y1="221.4429" x2="157.3916" y2="221.4429" gradientTransform="matrix(1 -0.0026 0.0026 1 -4.1243 1.3301)">
			<stop  offset="0" style="stop-color:#A91F24"/>
			<stop  offset="1" style="stop-color:#E83527"/>
		</linearGradient>
		<path fill="url(#SVGID_3_)" d="M116.047,183.685c0,0-23.989,46.247-3.554,68.608c0,0,16.016,20.334,39.732-0.444l1.52-67.247
			L116.047,183.685z"/>
		
			<linearGradient id="SVGID_4_" gradientUnits="userSpaceOnUse" x1="151.7026" y1="222.7974" x2="201.3154" y2="222.7974" gradientTransform="matrix(1 -0.0026 0.0026 1 -4.1243 1.3301)">
			<stop  offset="0" style="stop-color:#A91F24"/>
			<stop  offset="1" style="stop-color:#E83527"/>
		</linearGradient>
		<path fill="url(#SVGID_4_)" d="M185.754,184.857c0,0,24.232,46.12,3.915,68.591c0,0-15.907,20.417-39.733-0.236l-1.876-67.237
			L185.754,184.857z"/>
		<path fill="#EAB862" d="M159.72,89.27c0.011,4.501-4.396,8.163-9.846,8.179l-1.096,0.002c-5.448,0.014-9.876-3.625-9.888-8.125
			l-0.038-14.037c-0.012-4.5,4.397-8.16,9.847-8.176l1.095-0.002c5.45-0.016,9.876,3.623,9.888,8.123L159.72,89.27z"/>
		
			<linearGradient id="SVGID_5_" gradientUnits="userSpaceOnUse" x1="115.9585" y1="183.0029" x2="192.7095" y2="183.0029" gradientTransform="matrix(1 -0.0026 0.0026 1 -4.1243 1.3301)">
			<stop  offset="0" style="stop-color:#A91F24"/>
			<stop  offset="1" style="stop-color:#E83527"/>
		</linearGradient>
		<path fill="url(#SVGID_5_)" d="M189.062,183.829c0.01,3.189-2.641,5.781-5.915,5.79l-64.888,0.172
			c-3.276,0.008-5.938-2.569-5.948-5.758l0,0c-0.008-3.189,2.641-5.781,5.918-5.788l64.888-0.172
			C186.391,178.063,189.054,180.641,189.062,183.829L189.062,183.829z"/>
		
			<linearGradient id="SVGID_6_" gradientUnits="userSpaceOnUse" x1="146.5264" y1="223.9233" x2="165.5435" y2="223.9233" gradientTransform="matrix(1 -0.0026 0.0026 1 -4.1243 1.3301)">
			<stop  offset="0" style="stop-color:#A91F24"/>
			<stop  offset="1" style="stop-color:#E83527"/>
		</linearGradient>
		<path fill="url(#SVGID_6_)" d="M153.745,184.602l-2.718,0.007c-4.501,0.013-8.139,3.673-8.126,8.174l0.005,2.036
			c0.007,2.759,1.387,5.188,3.489,6.658c-1.012,15.213-2.843,46.315-1.3,51.407c2.056,6.789,6.145,12.211,6.145,12.211
			s6.781-4.772,8.12-12.248l-1.889-50.803c2.647-1.353,4.461-4.101,4.451-7.275l-0.005-2.036
			C161.905,188.229,158.247,184.59,153.745,184.602z"/>
		<path fill="#FFFFFF" d="M136.965,89.557c0,0-2.23,11.778,6.829,14.02c9.063,2.239,17.205-0.952,18.095-7.294l-0.022-8.149
			c0,0,13.142,4.04,14.958,5.846l6.292,84.095l-65.462-0.201l4.838-81.938C122.492,95.935,134.703,89.563,136.965,89.557z"/>
		<path fill="#4A443B" d="M106.116,336.762c0,0-2.895,0.576-3.074,1.92c-0.184,1.346,0.261,3.119,0.261,3.119l38.023-2.393
			l-0.366-3.58L106.116,336.762z"/>
		<path fill="#8F9293" d="M127.538,34.854l0.047,17.806l-3.733,0.01l-0.218-17.485C123.634,35.185,126.339,31.007,127.538,34.854z"
			/>
		<path fill="#8F9293" d="M172.366,34.734l0.048,17.808l-3.736,0.009l-0.216-17.483C168.462,35.067,171.168,30.887,172.366,34.734z"
			/>
		
			<linearGradient id="SVGID_7_" gradientUnits="userSpaceOnUse" x1="126.5952" y1="50.0596" x2="177.0815" y2="50.0596" gradientTransform="matrix(1 -0.0026 0.0026 1 -4.1243 1.3301)">
			<stop  offset="0.0032" style="stop-color:#D39C44"/>
			<stop  offset="0.1401" style="stop-color:#D9A550"/>
			<stop  offset="0.5004" style="stop-color:#EABA6D"/>
			<stop  offset="0.7957" style="stop-color:#F5C87F"/>
			<stop  offset="0.9875" style="stop-color:#F9CD85"/>
		</linearGradient>
		<path fill="url(#SVGID_7_)" d="M173.079,47.576c-0.005-2.176-1.371-4.052-3.355-4.972c-0.248-4.86-0.516-9.72-0.771-14.573
			c0,0-4.104-10.592-20.745-10.84c-13.982-0.21-19.546,8.698-20.97,11.555c0.011,0.551,0.016,1.098,0.014,1.647l-0.406-0.777
			l0.404,0.892c-0.004,1.485-0.062,2.97-0.222,4.45c0.055,0.436,0.102,0.855,0.11,1.219c0.047,2.3,0.094,4.604,0.15,6.909
			c-2.698,0.591-4.701,2.806-4.694,5.452c0.007,2.76,2.197,5.043,5.073,5.491c0.042,0.917,0.088,1.834,0.139,2.751l0.173,16.085
			l0.204-0.504c0.09,0.726,0.239,1.428,0.494,2.095c1.8,4.707,7.438,7.145,12.377,8.779c4.805,1.593,8.986,1.95,14.048,1.148
			c9.319-1.479,15.706-5.305,15.583-14.918c-0.071-5.704-0.26-11.416-0.501-17.125C171.925,51.352,173.085,49.588,173.079,47.576z"
			/>
		<path fill="#352215" d="M147.495,14.501c0,0,1.546,13.574-1.092,15.09c-2.639,1.516-16.792,1.807-19.798,6.088
			c-3.011,4.281-10.371,3.548-10.962-6.257c0,0,6.048,4.007,7.925,0.229C125.446,25.874,122.384,9.539,147.495,14.501z"/>
		<path fill="#352215" d="M148.25,14.499c0,0-0.717,14.336,1.929,15.836c2.646,1.502,15.813,0.211,18.842,4.477
			c3.032,4.268,10.39,3.493,10.929-6.315c0,0-6.027,4.04-7.923,0.274C170.127,25.002,173.335,9.403,148.25,14.499z"/>
		<path fill="#4A443B" d="M195.765,327.256c0,0,5.661,8.643,4.007,11.383l-3.396,0.057l-2.587-12.865L195.765,327.256z"/>
		<path fill="#4A443B" d="M115.416,327.063c0,0-5.492,8.746-3.787,11.457l3.395-0.008l2.344-12.91L115.416,327.063z"/>
		<g>
			<g>
				<path fill="#FDFEFF" d="M137.93,61.535c1.252,1.675,1.62,3.725,0.818,4.587l-7.949,8.632c-0.796,0.875-2.46,0.221-3.715-1.462
					l-17.717-23.906c-1.27-1.726-1.65-3.821-0.85-4.683l7.988-8.51c0.804-0.848,2.484-0.142,3.749,1.572L137.93,61.535z"/>
				<g>
					<path fill-rule="evenodd" clip-rule="evenodd" fill="#8E8E8E" d="M121.615,48.31c-0.083,1.436,0.913,2.828,2.219,2.74
						c0.301,0.779,0.57,1.564,0.574,2.361c0.002,0.386-0.166,0.631-0.445,0.703c-0.517,0.13-0.868,0.449-1.022,1.076
						c-0.1,0.417-0.386,0.566-0.784,0.458c-1.284-0.349-2.404-1.183-3.287-2.628c-0.732-1.2-0.737-2.832,0.446-3.092
						c0.316-0.071,0.478-0.299,0.576-0.652c0.186-0.674,0.576-1.058,1.213-1.05C121.259,48.227,121.423,48.276,121.615,48.31z"/>
					<path fill-rule="evenodd" clip-rule="evenodd" fill="#8E8E8E" d="M119.365,49.342c-0.636-0.763-0.774-1.876-0.32-2.472
						C119.714,47.534,119.891,48.823,119.365,49.342z"/>
				</g>
			</g>
		</g>
		
			<linearGradient id="SVGID_8_" gradientUnits="userSpaceOnUse" x1="-70.9492" y1="42.8628" x2="-20.2839" y2="42.8628" gradientTransform="matrix(0.9955 0.0948 -0.0948 0.9955 154.2962 43.275)">
			<stop  offset="0.0032" style="stop-color:#D39C44"/>
			<stop  offset="0.1401" style="stop-color:#D9A550"/>
			<stop  offset="0.5004" style="stop-color:#EABA6D"/>
			<stop  offset="0.7957" style="stop-color:#F5C87F"/>
			<stop  offset="0.9875" style="stop-color:#F9CD85"/>
		</linearGradient>
		<path fill="url(#SVGID_8_)" d="M130.098,57.668l-2.953-2.255c-2.67-2.039-7.013-0.843-9.695,2.672l-2.702,3.537
			c-1.184,1.549-1.841,3.286-1.984,4.922L86.66,97.13c0,0-4.12,5.066-1.224,8.07c2.897,3.004,36.17,7.08,36.17,7.08
			s4.012-8.714,1.286-13.522l-20.197-2.832l17.918-21.088c0.108,0.108,0.222,0.214,0.328,0.323c0.077-0.083,0.155-0.166,0.228-0.246
			c1.954-0.137,4.044-1.196,5.673-3.017c0.012,0,0.021,0.002,0.032,0.002c-0.006-0.007-0.013-0.011-0.02-0.019
			c0.177-0.196,0.349-0.402,0.512-0.621l2.7-3.534C132.755,64.21,132.768,59.707,130.098,57.668z"/>
		
			<linearGradient id="SVGID_9_" gradientUnits="userSpaceOnUse" x1="167.6704" y1="143.7114" x2="225.7916" y2="143.7114" gradientTransform="matrix(1 -0.0026 0.0026 1 -4.1243 1.3301)">
			<stop  offset="0.0032" style="stop-color:#D39C44"/>
			<stop  offset="0.1401" style="stop-color:#D9A550"/>
			<stop  offset="0.5004" style="stop-color:#EABA6D"/>
			<stop  offset="0.7957" style="stop-color:#F5C87F"/>
			<stop  offset="0.9875" style="stop-color:#F9CD85"/>
		</linearGradient>
		<path fill="url(#SVGID_9_)" d="M189.394,180.451c4.977-7.936,16.245-40.659,15.088-44.919
			c-1.288-4.751-27.805-41.554-27.805-41.554c-5.439,10.009,0.408,19.892,0.408,19.892l14.112,22.375l-12.621,39.398
			c-0.42-0.134-0.843-0.264-1.266-0.401c-1.486,1.042-2.748,2.729-3.422,4.83l-1.362,4.235c-1.353,4.211,0.143,8.459,3.34,9.485
			l3.538,1.138c3.197,1.028,6.888-1.552,8.24-5.764l1.362-4.238c0.083-0.255,0.154-0.514,0.215-0.77c0.01,0,0.02,0,0.029,0.002
			c-0.009-0.008-0.015-0.016-0.022-0.024C189.533,182.859,189.572,181.605,189.394,180.451z"/>
	</g>
	<g>
		<path fill="#F3AB1D" d="M74.833,171.062c1.421,0.406,2.666,1.066,3.732,1.98s1.929,2.007,2.59,3.275
			c0.659,1.474,0.99,2.945,0.99,4.418c0,1.371-0.267,2.666-0.8,3.885s-1.256,2.285-2.171,3.199c-0.914,0.914-1.98,1.638-3.199,2.171
			c-1.218,0.533-2.514,0.8-3.885,0.8H67.14v4.646h-3.656v-4.646H58.38v-0.076c-1.371,0-2.665-0.254-3.885-0.762
			c-1.219-0.508-2.285-1.219-3.199-2.133c-0.913-0.914-1.625-1.98-2.133-3.199s-0.761-2.514-0.761-3.885h3.656
			c0,1.778,0.621,3.275,1.865,4.494s2.729,1.828,4.456,1.828v0.076h5.104h3.656h4.951c1.777,0,3.275-0.621,4.494-1.866
			c1.219-1.243,1.829-2.754,1.829-4.532c0-1.473-0.445-2.767-1.334-3.885c-0.889-1.117-1.993-1.878-3.313-2.285l-0.381-0.076
			l-1.295-0.305l-15.31-3.58c-0.256-0.05-0.471-0.102-0.648-0.152c-0.179-0.051-0.394-0.101-0.647-0.152
			c-2.793-0.863-4.825-2.615-6.094-5.256c-0.66-1.422-0.989-2.868-0.989-4.342c0-1.371,0.253-2.666,0.761-3.885
			s1.22-2.285,2.133-3.199c0.914-0.914,1.98-1.637,3.199-2.171c1.22-0.533,2.514-0.8,3.885-0.8h5.104v-4.646h3.656v4.646h4.951
			c1.371,0,2.667,0.267,3.885,0.8c1.219,0.534,2.285,1.257,3.199,2.171c0.915,0.914,1.638,1.98,2.171,3.199s0.8,2.514,0.8,3.885
			h-3.656h-0.075c0-0.863-0.167-1.688-0.496-2.476c-0.331-0.786-0.775-1.473-1.333-2.056c-0.559-0.584-1.219-1.041-1.98-1.371
			c-0.762-0.331-1.6-0.496-2.514-0.496H67.14h-3.656H58.38c-0.863,0-1.688,0.165-2.476,0.496c-0.788,0.33-1.461,0.787-2.019,1.371
			c-0.559,0.583-1.003,1.256-1.333,2.018s-0.494,1.6-0.494,2.514c0,1.422,0.404,2.68,1.218,3.771
			c0.812,1.093,1.854,1.841,3.123,2.247l1.066,0.229l0.914,0.229l15.615,3.732C74.249,170.909,74.528,170.961,74.833,171.062z"/>
	</g>
	<g>
		<path fill="#F3AB1D" d="M249.532,246.495c0.996,0.285,1.867,0.748,2.614,1.389c0.747,0.639,1.352,1.404,1.813,2.293
			c0.462,1.032,0.693,2.063,0.693,3.094c0,0.96-0.186,1.867-0.56,2.721c-0.373,0.854-0.881,1.602-1.52,2.242
			c-0.641,0.64-1.388,1.146-2.241,1.52c-0.854,0.374-1.761,0.561-2.722,0.561h-3.467v3.254h-2.562v-3.254h-3.574v-0.053
			c-0.96,0-1.867-0.178-2.721-0.533c-0.854-0.355-1.601-0.854-2.241-1.494c-0.639-0.641-1.138-1.388-1.493-2.242
			c-0.356-0.854-0.533-1.761-0.533-2.721h2.562c0,1.245,0.434,2.295,1.306,3.148s1.911,1.28,3.121,1.28v0.054h3.574h2.562h3.467
			c1.245,0,2.294-0.436,3.148-1.307c0.854-0.872,1.28-1.931,1.28-3.176c0-1.03-0.312-1.937-0.935-2.72
			c-0.621-0.783-1.396-1.316-2.32-1.602l-0.267-0.054l-0.907-0.213l-10.723-2.507c-0.179-0.034-0.329-0.071-0.453-0.106
			c-0.125-0.035-0.276-0.07-0.454-0.107c-1.955-0.604-3.379-1.831-4.268-3.681c-0.463-0.995-0.693-2.008-0.693-3.041
			c0-0.961,0.177-1.867,0.533-2.722c0.355-0.853,0.854-1.6,1.493-2.24c0.641-0.641,1.387-1.146,2.241-1.521
			c0.854-0.374,1.761-0.56,2.721-0.56h3.574v-3.255h2.562v3.255h3.467c0.961,0,1.868,0.186,2.722,0.56s1.601,0.88,2.241,1.521
			c0.639,0.641,1.146,1.388,1.52,2.24c0.374,0.854,0.56,1.761,0.56,2.722h-2.56h-0.054c0-0.604-0.116-1.183-0.348-1.733
			s-0.542-1.031-0.933-1.44c-0.392-0.409-0.854-0.729-1.388-0.961c-0.533-0.231-1.12-0.347-1.761-0.347h-3.467h-2.562h-3.574
			c-0.604,0-1.183,0.115-1.733,0.347c-0.552,0.232-1.023,0.552-1.415,0.961c-0.39,0.409-0.702,0.88-0.933,1.413
			c-0.231,0.534-0.346,1.121-0.346,1.761c0,0.995,0.283,1.877,0.852,2.641c0.569,0.767,1.299,1.289,2.188,1.574l0.747,0.159
			l0.641,0.16l10.937,2.615C249.123,246.39,249.318,246.426,249.532,246.495z"/>
	</g>
	<g>
		<path fill="#F3AB1D" d="M74.205,310.413c0.621,0.178,1.166,0.467,1.633,0.867s0.846,0.877,1.135,1.434
			c0.288,0.645,0.433,1.289,0.433,1.934c0,0.6-0.116,1.168-0.351,1.699c-0.232,0.535-0.549,1.002-0.949,1.402
			s-0.867,0.717-1.4,0.949c-0.533,0.234-1.101,0.352-1.701,0.352h-2.167v2.033h-1.601v-2.033h-2.233v-0.033
			c-0.601,0-1.168-0.111-1.701-0.334c-0.534-0.223-1.001-0.533-1.4-0.934c-0.4-0.4-0.711-0.867-0.933-1.402
			c-0.224-0.531-0.334-1.1-0.334-1.699h1.6c0,0.779,0.272,1.436,0.816,1.967c0.546,0.533,1.195,0.801,1.952,0.801v0.033h2.233h1.601
			h2.167c0.778,0,1.434-0.271,1.967-0.816c0.535-0.545,0.801-1.205,0.801-1.984c0-0.645-0.195-1.211-0.583-1.699
			c-0.39-0.49-0.873-0.822-1.451-1.002l-0.166-0.033l-0.567-0.133l-6.702-1.568c-0.111-0.02-0.205-0.043-0.282-0.064
			c-0.079-0.023-0.173-0.045-0.284-0.068c-1.223-0.377-2.112-1.145-2.668-2.301c-0.289-0.621-0.433-1.254-0.433-1.9
			c0-0.6,0.11-1.166,0.334-1.701c0.222-0.533,0.532-1,0.933-1.4c0.399-0.398,0.866-0.715,1.4-0.949
			c0.533-0.234,1.101-0.35,1.701-0.35h2.233v-2.035h1.601v2.035h2.167c0.601,0,1.168,0.115,1.701,0.35s1,0.551,1.4,0.949
			c0.4,0.4,0.717,0.867,0.949,1.4c0.234,0.535,0.351,1.102,0.351,1.701h-1.601h-0.033c0-0.377-0.072-0.738-0.217-1.082
			c-0.145-0.346-0.339-0.646-0.584-0.902c-0.244-0.254-0.533-0.453-0.866-0.6c-0.334-0.145-0.7-0.217-1.101-0.217h-2.167h-1.601
			h-2.233c-0.378,0-0.74,0.072-1.084,0.217c-0.345,0.146-0.64,0.346-0.885,0.6c-0.243,0.256-0.438,0.551-0.582,0.885
			c-0.146,0.332-0.218,0.701-0.218,1.1c0,0.623,0.178,1.174,0.533,1.65c0.355,0.48,0.812,0.807,1.367,0.984l0.467,0.1l0.401,0.1
			l6.835,1.635C73.948,310.346,74.07,310.37,74.205,310.413z"/>
	</g>
	<g>
		<path fill="#F3AB1D" d="M250.778,90.59c0.622,0.178,1.166,0.467,1.634,0.867c0.467,0.399,0.845,0.878,1.134,1.434
			c0.288,0.645,0.433,1.29,0.433,1.933c0,0.601-0.116,1.168-0.35,1.701c-0.232,0.534-0.55,1.001-0.949,1.4
			c-0.401,0.401-0.868,0.718-1.401,0.951s-1.101,0.35-1.7,0.35h-2.168v2.035h-1.601v-2.035h-2.233v-0.033
			c-0.6,0-1.167-0.111-1.7-0.333c-0.534-0.223-1.001-0.533-1.401-0.935c-0.399-0.399-0.711-0.866-0.933-1.4
			c-0.224-0.533-0.334-1.101-0.334-1.701h1.601c0,0.779,0.271,1.436,0.816,1.969s1.195,0.801,1.951,0.801v0.033h2.233h1.601h2.168
			c0.777,0,1.433-0.271,1.967-0.817c0.534-0.545,0.801-1.206,0.801-1.985c0-0.643-0.195-1.209-0.584-1.699
			c-0.39-0.489-0.873-0.822-1.45-1.001l-0.167-0.033l-0.566-0.133l-6.702-1.567c-0.111-0.021-0.206-0.045-0.283-0.066
			c-0.078-0.022-0.173-0.044-0.284-0.066c-1.223-0.378-2.111-1.146-2.668-2.301c-0.289-0.623-0.433-1.255-0.433-1.901
			c0-0.601,0.11-1.167,0.334-1.7c0.222-0.533,0.533-1.001,0.933-1.4c0.4-0.4,0.867-0.716,1.401-0.95
			c0.533-0.233,1.101-0.351,1.7-0.351h2.233V79.62h1.601v2.033h2.168c0.6,0,1.167,0.117,1.7,0.351c0.533,0.234,1,0.55,1.401,0.95
			c0.399,0.399,0.717,0.867,0.949,1.4c0.233,0.533,0.35,1.1,0.35,1.7h-1.6h-0.033c0-0.377-0.072-0.737-0.217-1.083
			c-0.145-0.345-0.339-0.645-0.584-0.9s-0.534-0.455-0.867-0.601c-0.333-0.145-0.7-0.217-1.1-0.217h-2.168h-1.601h-2.233
			c-0.378,0-0.739,0.072-1.084,0.217c-0.345,0.146-0.639,0.345-0.884,0.601c-0.244,0.256-0.439,0.551-0.583,0.884
			c-0.145,0.333-0.217,0.7-0.217,1.1c0,0.623,0.178,1.173,0.533,1.65c0.355,0.479,0.812,0.806,1.367,0.983l0.467,0.101l0.4,0.101
			l6.835,1.635C250.522,90.524,250.645,90.547,250.778,90.59z"/>
	</g>
	<g>
		<path fill="#F3AB1D" d="M62.836,35.984c0.622,0.178,1.166,0.467,1.634,0.867c0.467,0.399,0.845,0.878,1.134,1.434
			c0.288,0.645,0.434,1.29,0.434,1.933c0,0.601-0.117,1.168-0.351,1.701c-0.232,0.534-0.55,1.001-0.949,1.4
			c-0.401,0.401-0.868,0.718-1.401,0.951s-1.101,0.35-1.7,0.35h-2.168v2.035h-1.601V44.62h-2.233v-0.033
			c-0.601,0-1.167-0.111-1.7-0.333c-0.534-0.223-1.001-0.533-1.401-0.935c-0.399-0.399-0.711-0.866-0.933-1.4
			c-0.223-0.533-0.334-1.101-0.334-1.701h1.601c0,0.779,0.271,1.436,0.816,1.969s1.195,0.801,1.951,0.801v0.033h2.233h1.601h2.168
			c0.777,0,1.433-0.271,1.967-0.817c0.534-0.545,0.801-1.206,0.801-1.985c0-0.643-0.195-1.209-0.584-1.699
			c-0.39-0.489-0.873-0.822-1.45-1.001l-0.166-0.033l-0.567-0.133l-6.702-1.567c-0.111-0.021-0.206-0.045-0.283-0.066
			c-0.078-0.022-0.173-0.044-0.284-0.066c-1.222-0.378-2.111-1.146-2.667-2.302c-0.29-0.622-0.434-1.254-0.434-1.9
			c0-0.601,0.111-1.167,0.334-1.7c0.222-0.533,0.533-1.001,0.933-1.4c0.4-0.4,0.867-0.716,1.401-0.951
			c0.533-0.232,1.1-0.35,1.7-0.35h2.233v-2.033h1.601v2.033h2.168c0.6,0,1.167,0.117,1.7,0.35c0.533,0.235,1,0.551,1.401,0.951
			c0.399,0.399,0.717,0.867,0.949,1.4c0.233,0.533,0.351,1.1,0.351,1.7h-1.601h-0.033c0-0.377-0.072-0.737-0.217-1.083
			c-0.145-0.345-0.339-0.645-0.584-0.9s-0.534-0.455-0.866-0.601c-0.334-0.145-0.701-0.217-1.101-0.217h-2.168h-1.601h-2.233
			c-0.378,0-0.739,0.072-1.084,0.217c-0.345,0.146-0.639,0.345-0.884,0.601c-0.244,0.256-0.439,0.551-0.583,0.884
			c-0.145,0.333-0.217,0.7-0.217,1.1c0,0.623,0.178,1.173,0.533,1.65c0.355,0.479,0.812,0.806,1.366,0.983l0.468,0.101l0.4,0.101
			l6.835,1.635C62.58,35.919,62.701,35.941,62.836,35.984z"/>
	</g>
	<polygon fill="#78297B" points="190.109,80.391 213.733,56.147 228.031,64.85 244.816,43.714 241.086,41.849 250.411,38.739 
		249.169,48.063 247.304,45.577 229.896,70.444 214.355,62.362 193.839,84.122 	"/>
	<polygon fill="#78297B" points="147.939,106.032 144.595,99.34 155.888,99.34 152.541,106.868 159.232,139.492 150.869,153.294 
		143.758,140.329 	"/>
</g>
</svg>
